%TF.GenerationSoftware,KiCad,Pcbnew,7.0.2-0*%
%TF.CreationDate,2023-11-12T18:20:13-05:00*%
%TF.ProjectId,Mux Module CD74HCT4067M,4d757820-4d6f-4647-956c-652043443734,rev?*%
%TF.SameCoordinates,Original*%
%TF.FileFunction,Soldermask,Bot*%
%TF.FilePolarity,Negative*%
%FSLAX46Y46*%
G04 Gerber Fmt 4.6, Leading zero omitted, Abs format (unit mm)*
G04 Created by KiCad (PCBNEW 7.0.2-0) date 2023-11-12 18:20:13*
%MOMM*%
%LPD*%
G01*
G04 APERTURE LIST*
G04 Aperture macros list*
%AMRoundRect*
0 Rectangle with rounded corners*
0 $1 Rounding radius*
0 $2 $3 $4 $5 $6 $7 $8 $9 X,Y pos of 4 corners*
0 Add a 4 corners polygon primitive as box body*
4,1,4,$2,$3,$4,$5,$6,$7,$8,$9,$2,$3,0*
0 Add four circle primitives for the rounded corners*
1,1,$1+$1,$2,$3*
1,1,$1+$1,$4,$5*
1,1,$1+$1,$6,$7*
1,1,$1+$1,$8,$9*
0 Add four rect primitives between the rounded corners*
20,1,$1+$1,$2,$3,$4,$5,0*
20,1,$1+$1,$4,$5,$6,$7,0*
20,1,$1+$1,$6,$7,$8,$9,0*
20,1,$1+$1,$8,$9,$2,$3,0*%
G04 Aperture macros list end*
%ADD10C,1.600000*%
%ADD11R,1.600000X1.600000*%
%ADD12R,1.300000X1.300000*%
%ADD13C,1.300000*%
%ADD14C,1.879600*%
%ADD15RoundRect,0.101600X-1.400000X1.400000X-1.400000X-1.400000X1.400000X-1.400000X1.400000X1.400000X0*%
%ADD16R,1.700000X1.700000*%
%ADD17O,1.700000X1.700000*%
G04 APERTURE END LIST*
D10*
%TO.C,U1*%
X154940000Y-29210000D03*
X145290800Y-43129200D03*
X145290800Y-40589200D03*
X145290800Y-38049200D03*
X145290800Y-35509200D03*
D11*
X145290800Y-32969200D03*
D10*
X157480000Y-26670000D03*
X157480000Y-29210000D03*
X157480000Y-31750000D03*
X157480000Y-34290000D03*
X157480000Y-36830000D03*
X157480000Y-39370000D03*
X157480000Y-41910000D03*
X157480000Y-44450000D03*
X157480000Y-46990000D03*
X157480000Y-49530000D03*
X157480000Y-52070000D03*
X157480000Y-54610000D03*
X157480000Y-57150000D03*
X157480000Y-59690000D03*
D11*
X142240000Y-26670000D03*
D10*
X142240000Y-29210000D03*
X142240000Y-31750000D03*
X142240000Y-34290000D03*
X142240000Y-36830000D03*
X142240000Y-39370000D03*
X142240000Y-41910000D03*
X142240000Y-44450000D03*
X142240000Y-46990000D03*
X142240000Y-49530000D03*
X142240000Y-52070000D03*
X142240000Y-54610000D03*
X142240000Y-57150000D03*
X157480000Y-62230000D03*
X157480000Y-64770000D03*
X157480000Y-67310000D03*
X157480000Y-69850000D03*
X157480000Y-72390000D03*
X157480000Y-74930000D03*
X157480000Y-77470000D03*
X157480000Y-80010000D03*
X157480000Y-82550000D03*
X157480000Y-85090000D03*
X142240000Y-85090000D03*
X142240000Y-82550000D03*
X142240000Y-80010000D03*
X142240000Y-77470000D03*
X142240000Y-59690000D03*
X142240000Y-62230000D03*
X142240000Y-64770000D03*
X142240000Y-74930000D03*
X142240000Y-72390000D03*
X142240000Y-69850000D03*
X142240000Y-67310000D03*
D12*
X155041600Y-39640000D03*
D13*
X155041600Y-41640000D03*
X153041600Y-39640000D03*
X153041600Y-41640000D03*
X151041600Y-41640000D03*
X151041600Y-39640000D03*
D10*
X144780000Y-72390000D03*
X147320000Y-72390000D03*
X149860000Y-72390000D03*
X152400000Y-72390000D03*
X154940000Y-72390000D03*
D13*
X148590000Y-27400000D03*
X151130000Y-27400000D03*
%TD*%
D14*
%TO.C,R1*%
X131277400Y-59932400D03*
X133777400Y-59932400D03*
X136277400Y-59932400D03*
D15*
X138277400Y-52932400D03*
X129277400Y-52932400D03*
%TD*%
D16*
%TO.C,J2*%
X170180000Y-93980000D03*
D17*
X167640000Y-93980000D03*
X165100000Y-93980000D03*
X162560000Y-93980000D03*
X160020000Y-93980000D03*
X157480000Y-93980000D03*
X154940000Y-93980000D03*
X152400000Y-93980000D03*
X149860000Y-93980000D03*
X147320000Y-93980000D03*
X144780000Y-93980000D03*
X142240000Y-93980000D03*
X139700000Y-93980000D03*
X137160000Y-93980000D03*
X134620000Y-93980000D03*
X132080000Y-93980000D03*
X129540000Y-93980000D03*
%TD*%
M02*
