%TF.GenerationSoftware,KiCad,Pcbnew,7.0.2-0*%
%TF.CreationDate,2023-11-12T18:20:21-05:00*%
%TF.ProjectId,Mux Module CD74HCT4067M,4d757820-4d6f-4647-956c-652043443734,rev?*%
%TF.SameCoordinates,Original*%
%TF.FileFunction,Drillmap*%
%TF.FilePolarity,Positive*%
%FSLAX45Y45*%
G04 Gerber Fmt 4.5, Leading zero omitted, Abs format (unit mm)*
G04 Created by KiCad (PCBNEW 7.0.2-0) date 2023-11-12 18:20:21*
%MOMM*%
%LPD*%
G01*
G04 APERTURE LIST*
%ADD10C,0.100000*%
%ADD11C,0.200000*%
G04 APERTURE END LIST*
D10*
X12700000Y-2286000D02*
X17272000Y-2286000D01*
X17272000Y-9652000D01*
X12700000Y-9652000D01*
X12700000Y-2286000D01*
D11*
X12942619Y-9969524D02*
X12942619Y-9769524D01*
X12942619Y-9769524D02*
X12990238Y-9769524D01*
X12990238Y-9769524D02*
X13018809Y-9779048D01*
X13018809Y-9779048D02*
X13037857Y-9798095D01*
X13037857Y-9798095D02*
X13047381Y-9817143D01*
X13047381Y-9817143D02*
X13056905Y-9855238D01*
X13056905Y-9855238D02*
X13056905Y-9883810D01*
X13056905Y-9883810D02*
X13047381Y-9921905D01*
X13047381Y-9921905D02*
X13037857Y-9940952D01*
X13037857Y-9940952D02*
X13018809Y-9960000D01*
X13018809Y-9960000D02*
X12990238Y-9969524D01*
X12990238Y-9969524D02*
X12942619Y-9969524D01*
X13142619Y-9969524D02*
X13142619Y-9836190D01*
X13142619Y-9874286D02*
X13152143Y-9855238D01*
X13152143Y-9855238D02*
X13161667Y-9845714D01*
X13161667Y-9845714D02*
X13180714Y-9836190D01*
X13180714Y-9836190D02*
X13199762Y-9836190D01*
X13266428Y-9969524D02*
X13266428Y-9836190D01*
X13266428Y-9769524D02*
X13256905Y-9779048D01*
X13256905Y-9779048D02*
X13266428Y-9788571D01*
X13266428Y-9788571D02*
X13275952Y-9779048D01*
X13275952Y-9779048D02*
X13266428Y-9769524D01*
X13266428Y-9769524D02*
X13266428Y-9788571D01*
X13390238Y-9969524D02*
X13371190Y-9960000D01*
X13371190Y-9960000D02*
X13361667Y-9940952D01*
X13361667Y-9940952D02*
X13361667Y-9769524D01*
X13495000Y-9969524D02*
X13475952Y-9960000D01*
X13475952Y-9960000D02*
X13466428Y-9940952D01*
X13466428Y-9940952D02*
X13466428Y-9769524D01*
X13723571Y-9969524D02*
X13723571Y-9769524D01*
X13723571Y-9769524D02*
X13790238Y-9912381D01*
X13790238Y-9912381D02*
X13856905Y-9769524D01*
X13856905Y-9769524D02*
X13856905Y-9969524D01*
X14037857Y-9969524D02*
X14037857Y-9864762D01*
X14037857Y-9864762D02*
X14028333Y-9845714D01*
X14028333Y-9845714D02*
X14009286Y-9836190D01*
X14009286Y-9836190D02*
X13971190Y-9836190D01*
X13971190Y-9836190D02*
X13952143Y-9845714D01*
X14037857Y-9960000D02*
X14018809Y-9969524D01*
X14018809Y-9969524D02*
X13971190Y-9969524D01*
X13971190Y-9969524D02*
X13952143Y-9960000D01*
X13952143Y-9960000D02*
X13942619Y-9940952D01*
X13942619Y-9940952D02*
X13942619Y-9921905D01*
X13942619Y-9921905D02*
X13952143Y-9902857D01*
X13952143Y-9902857D02*
X13971190Y-9893333D01*
X13971190Y-9893333D02*
X14018809Y-9893333D01*
X14018809Y-9893333D02*
X14037857Y-9883810D01*
X14133095Y-9836190D02*
X14133095Y-10036190D01*
X14133095Y-9845714D02*
X14152143Y-9836190D01*
X14152143Y-9836190D02*
X14190238Y-9836190D01*
X14190238Y-9836190D02*
X14209286Y-9845714D01*
X14209286Y-9845714D02*
X14218809Y-9855238D01*
X14218809Y-9855238D02*
X14228333Y-9874286D01*
X14228333Y-9874286D02*
X14228333Y-9931429D01*
X14228333Y-9931429D02*
X14218809Y-9950476D01*
X14218809Y-9950476D02*
X14209286Y-9960000D01*
X14209286Y-9960000D02*
X14190238Y-9969524D01*
X14190238Y-9969524D02*
X14152143Y-9969524D01*
X14152143Y-9969524D02*
X14133095Y-9960000D01*
X14314048Y-9950476D02*
X14323571Y-9960000D01*
X14323571Y-9960000D02*
X14314048Y-9969524D01*
X14314048Y-9969524D02*
X14304524Y-9960000D01*
X14304524Y-9960000D02*
X14314048Y-9950476D01*
X14314048Y-9950476D02*
X14314048Y-9969524D01*
X14314048Y-9845714D02*
X14323571Y-9855238D01*
X14323571Y-9855238D02*
X14314048Y-9864762D01*
X14314048Y-9864762D02*
X14304524Y-9855238D01*
X14304524Y-9855238D02*
X14314048Y-9845714D01*
X14314048Y-9845714D02*
X14314048Y-9864762D01*
M02*
