M48
; DRILL file {KiCad 7.0.2-0} date 2023 November 12, Sunday 18:20:17
; FORMAT={-:-/ absolute / inch / decimal}
; #@! TF.CreationDate,2023-11-12T18:20:17-05:00
; #@! TF.GenerationSoftware,Kicad,Pcbnew,7.0.2-0
; #@! TF.FileFunction,Plated,1,2,PTH
FMAT,2
INCH
; #@! TA.AperFunction,Plated,PTH,ViaDrill
T1C0.0157
; #@! TA.AperFunction,Plated,PTH,ComponentDrill
T2C0.0315
; #@! TA.AperFunction,Plated,PTH,ComponentDrill
T3C0.0394
; #@! TA.AperFunction,Plated,PTH,ComponentDrill
T4C0.0433
; #@! TA.AperFunction,Plated,PTH,ComponentDrill
T5C0.0630
%
G90
G05
T1
X6.3555Y-2.408
X6.4745Y-2.8091
X6.6387Y-2.3808
X6.6558Y-2.0428
X6.6598Y-1.9914
X6.6622Y-2.0918
T2
X5.85Y-1.0787
X5.9465Y-1.5606
X5.9465Y-1.6394
X5.95Y-1.0787
X6.0253Y-1.5606
X6.0253Y-1.6394
X6.104Y-1.5606
X6.104Y-1.6394
T3
X5.1Y-3.7
X5.2Y-3.7
X5.3Y-3.7
X5.4Y-3.7
X5.5Y-3.7
X5.6Y-3.7
X5.7Y-3.7
X5.8Y-3.7
X5.9Y-3.7
X6.0Y-3.7
X6.1Y-3.7
X6.2Y-3.7
X6.3Y-3.7
X6.4Y-3.7
X6.5Y-3.7
X6.6Y-3.7
X6.7Y-3.7
T4
X5.1684Y-2.3595
X5.2668Y-2.3595
X5.3653Y-2.3595
X5.6Y-1.05
X5.6Y-1.15
X5.6Y-1.25
X5.6Y-1.35
X5.6Y-1.45
X5.6Y-1.55
X5.6Y-1.65
X5.6Y-1.75
X5.6Y-1.85
X5.6Y-1.95
X5.6Y-2.05
X5.6Y-2.15
X5.6Y-2.25
X5.6Y-2.35
X5.6Y-2.45
X5.6Y-2.55
X5.6Y-2.65
X5.6Y-2.75
X5.6Y-2.85
X5.6Y-2.95
X5.6Y-3.05
X5.6Y-3.15
X5.6Y-3.25
X5.6Y-3.35
X5.7Y-2.85
X5.7201Y-1.298
X5.7201Y-1.398
X5.7201Y-1.498
X5.7201Y-1.598
X5.7201Y-1.698
X5.8Y-2.85
X5.9Y-2.85
X6.0Y-2.85
X6.1Y-1.15
X6.1Y-2.85
X6.2Y-1.05
X6.2Y-1.15
X6.2Y-1.25
X6.2Y-1.35
X6.2Y-1.45
X6.2Y-1.55
X6.2Y-1.65
X6.2Y-1.75
X6.2Y-1.85
X6.2Y-1.95
X6.2Y-2.05
X6.2Y-2.15
X6.2Y-2.25
X6.2Y-2.35
X6.2Y-2.45
X6.2Y-2.55
X6.2Y-2.65
X6.2Y-2.75
X6.2Y-2.85
X6.2Y-2.95
X6.2Y-3.05
X6.2Y-3.15
X6.2Y-3.25
X6.2Y-3.35
T5
X5.0897Y-2.084
X5.444Y-2.084
T0
M30
