%TF.GenerationSoftware,KiCad,Pcbnew,7.0.2-0*%
%TF.CreationDate,2023-11-12T18:20:21-05:00*%
%TF.ProjectId,Mux Module CD74HCT4067M,4d757820-4d6f-4647-956c-652043443734,rev?*%
%TF.SameCoordinates,Original*%
%TF.FileFunction,Drillmap*%
%TF.FilePolarity,Positive*%
%FSLAX45Y45*%
G04 Gerber Fmt 4.5, Leading zero omitted, Abs format (unit mm)*
G04 Created by KiCad (PCBNEW 7.0.2-0) date 2023-11-12 18:20:21*
%MOMM*%
%LPD*%
G01*
G04 APERTURE LIST*
%ADD10C,0.100000*%
%ADD11C,0.200000*%
%ADD12C,0.040000*%
%ADD13C,0.080000*%
%ADD14C,0.110000*%
%ADD15C,0.160000*%
G04 APERTURE END LIST*
D10*
X12700000Y-2286000D02*
X17272000Y-2286000D01*
X17272000Y-9652000D01*
X12700000Y-9652000D01*
X12700000Y-2286000D01*
D11*
D12*
X16123060Y-6096380D02*
X16163060Y-6136380D01*
X16163060Y-6096380D02*
X16123060Y-6136380D01*
X16425310Y-7115190D02*
X16465310Y-7155190D01*
X16465310Y-7115190D02*
X16425310Y-7155190D01*
X16842270Y-6027270D02*
X16882270Y-6067270D01*
X16882270Y-6027270D02*
X16842270Y-6067270D01*
X16885670Y-5168770D02*
X16925670Y-5208770D01*
X16925670Y-5168770D02*
X16885670Y-5208770D01*
X16895950Y-5038260D02*
X16935950Y-5078260D01*
X16935950Y-5038260D02*
X16895950Y-5078260D01*
X16902090Y-5293140D02*
X16942090Y-5333140D01*
X16942090Y-5293140D02*
X16902090Y-5333140D01*
D13*
X14899000Y-2740000D02*
G75*
G03*
X14899000Y-2740000I-40000J0D01*
G01*
X15144160Y-3964000D02*
G75*
G03*
X15144160Y-3964000I-40000J0D01*
G01*
X15144160Y-4164000D02*
G75*
G03*
X15144160Y-4164000I-40000J0D01*
G01*
X15153000Y-2740000D02*
G75*
G03*
X15153000Y-2740000I-40000J0D01*
G01*
X15344160Y-3964000D02*
G75*
G03*
X15344160Y-3964000I-40000J0D01*
G01*
X15344160Y-4164000D02*
G75*
G03*
X15344160Y-4164000I-40000J0D01*
G01*
X15544160Y-3964000D02*
G75*
G03*
X15544160Y-3964000I-40000J0D01*
G01*
X15544160Y-4164000D02*
G75*
G03*
X15544160Y-4164000I-40000J0D01*
G01*
D10*
X12954000Y-9348000D02*
X12954000Y-9448000D01*
X12904000Y-9398000D02*
X13004000Y-9398000D01*
X13208000Y-9348000D02*
X13208000Y-9448000D01*
X13158000Y-9398000D02*
X13258000Y-9398000D01*
X13462000Y-9348000D02*
X13462000Y-9448000D01*
X13412000Y-9398000D02*
X13512000Y-9398000D01*
X13716000Y-9348000D02*
X13716000Y-9448000D01*
X13666000Y-9398000D02*
X13766000Y-9398000D01*
X13970000Y-9348000D02*
X13970000Y-9448000D01*
X13920000Y-9398000D02*
X14020000Y-9398000D01*
X14224000Y-9348000D02*
X14224000Y-9448000D01*
X14174000Y-9398000D02*
X14274000Y-9398000D01*
X14478000Y-9348000D02*
X14478000Y-9448000D01*
X14428000Y-9398000D02*
X14528000Y-9398000D01*
X14732000Y-9348000D02*
X14732000Y-9448000D01*
X14682000Y-9398000D02*
X14782000Y-9398000D01*
X14986000Y-9348000D02*
X14986000Y-9448000D01*
X14936000Y-9398000D02*
X15036000Y-9398000D01*
X15240000Y-9348000D02*
X15240000Y-9448000D01*
X15190000Y-9398000D02*
X15290000Y-9398000D01*
X15494000Y-9348000D02*
X15494000Y-9448000D01*
X15444000Y-9398000D02*
X15544000Y-9398000D01*
X15748000Y-9348000D02*
X15748000Y-9448000D01*
X15698000Y-9398000D02*
X15798000Y-9398000D01*
X16002000Y-9348000D02*
X16002000Y-9448000D01*
X15952000Y-9398000D02*
X16052000Y-9398000D01*
X16256000Y-9348000D02*
X16256000Y-9448000D01*
X16206000Y-9398000D02*
X16306000Y-9398000D01*
X16510000Y-9348000D02*
X16510000Y-9448000D01*
X16460000Y-9398000D02*
X16560000Y-9398000D01*
X16764000Y-9348000D02*
X16764000Y-9448000D01*
X16714000Y-9398000D02*
X16814000Y-9398000D01*
X17018000Y-9348000D02*
X17018000Y-9448000D01*
X16968000Y-9398000D02*
X17068000Y-9398000D01*
D14*
X13166631Y-6032131D02*
X13166631Y-5954349D01*
X13088849Y-5954349D01*
X13088849Y-6032131D01*
X13166631Y-6032131D01*
X13416631Y-6032131D02*
X13416631Y-5954349D01*
X13338849Y-5954349D01*
X13338849Y-6032131D01*
X13416631Y-6032131D01*
X13666631Y-6032131D02*
X13666631Y-5954349D01*
X13588849Y-5954349D01*
X13588849Y-6032131D01*
X13666631Y-6032131D01*
X14262891Y-2705891D02*
X14262891Y-2628109D01*
X14185109Y-2628109D01*
X14185109Y-2705891D01*
X14262891Y-2705891D01*
X14262891Y-2959891D02*
X14262891Y-2882109D01*
X14185109Y-2882109D01*
X14185109Y-2959891D01*
X14262891Y-2959891D01*
X14262891Y-3213891D02*
X14262891Y-3136109D01*
X14185109Y-3136109D01*
X14185109Y-3213891D01*
X14262891Y-3213891D01*
X14262891Y-3467891D02*
X14262891Y-3390109D01*
X14185109Y-3390109D01*
X14185109Y-3467891D01*
X14262891Y-3467891D01*
X14262891Y-3721891D02*
X14262891Y-3644109D01*
X14185109Y-3644109D01*
X14185109Y-3721891D01*
X14262891Y-3721891D01*
X14262891Y-3975891D02*
X14262891Y-3898109D01*
X14185109Y-3898109D01*
X14185109Y-3975891D01*
X14262891Y-3975891D01*
X14262891Y-4229891D02*
X14262891Y-4152109D01*
X14185109Y-4152109D01*
X14185109Y-4229891D01*
X14262891Y-4229891D01*
X14262891Y-4483891D02*
X14262891Y-4406109D01*
X14185109Y-4406109D01*
X14185109Y-4483891D01*
X14262891Y-4483891D01*
X14262891Y-4737891D02*
X14262891Y-4660109D01*
X14185109Y-4660109D01*
X14185109Y-4737891D01*
X14262891Y-4737891D01*
X14262891Y-4991891D02*
X14262891Y-4914109D01*
X14185109Y-4914109D01*
X14185109Y-4991891D01*
X14262891Y-4991891D01*
X14262891Y-5245891D02*
X14262891Y-5168109D01*
X14185109Y-5168109D01*
X14185109Y-5245891D01*
X14262891Y-5245891D01*
X14262891Y-5499891D02*
X14262891Y-5422109D01*
X14185109Y-5422109D01*
X14185109Y-5499891D01*
X14262891Y-5499891D01*
X14262891Y-5753891D02*
X14262891Y-5676109D01*
X14185109Y-5676109D01*
X14185109Y-5753891D01*
X14262891Y-5753891D01*
X14262891Y-6007891D02*
X14262891Y-5930109D01*
X14185109Y-5930109D01*
X14185109Y-6007891D01*
X14262891Y-6007891D01*
X14262891Y-6261891D02*
X14262891Y-6184109D01*
X14185109Y-6184109D01*
X14185109Y-6261891D01*
X14262891Y-6261891D01*
X14262891Y-6515891D02*
X14262891Y-6438109D01*
X14185109Y-6438109D01*
X14185109Y-6515891D01*
X14262891Y-6515891D01*
X14262891Y-6769891D02*
X14262891Y-6692109D01*
X14185109Y-6692109D01*
X14185109Y-6769891D01*
X14262891Y-6769891D01*
X14262891Y-7023891D02*
X14262891Y-6946109D01*
X14185109Y-6946109D01*
X14185109Y-7023891D01*
X14262891Y-7023891D01*
X14262891Y-7277891D02*
X14262891Y-7200109D01*
X14185109Y-7200109D01*
X14185109Y-7277891D01*
X14262891Y-7277891D01*
X14262891Y-7531891D02*
X14262891Y-7454109D01*
X14185109Y-7454109D01*
X14185109Y-7531891D01*
X14262891Y-7531891D01*
X14262891Y-7785891D02*
X14262891Y-7708109D01*
X14185109Y-7708109D01*
X14185109Y-7785891D01*
X14262891Y-7785891D01*
X14262891Y-8039891D02*
X14262891Y-7962109D01*
X14185109Y-7962109D01*
X14185109Y-8039891D01*
X14262891Y-8039891D01*
X14262891Y-8293891D02*
X14262891Y-8216109D01*
X14185109Y-8216109D01*
X14185109Y-8293891D01*
X14262891Y-8293891D01*
X14262891Y-8547891D02*
X14262891Y-8470109D01*
X14185109Y-8470109D01*
X14185109Y-8547891D01*
X14262891Y-8547891D01*
X14516891Y-7277891D02*
X14516891Y-7200109D01*
X14439109Y-7200109D01*
X14439109Y-7277891D01*
X14516891Y-7277891D01*
X14567971Y-3335811D02*
X14567971Y-3258029D01*
X14490189Y-3258029D01*
X14490189Y-3335811D01*
X14567971Y-3335811D01*
X14567971Y-3589811D02*
X14567971Y-3512029D01*
X14490189Y-3512029D01*
X14490189Y-3589811D01*
X14567971Y-3589811D01*
X14567971Y-3843811D02*
X14567971Y-3766029D01*
X14490189Y-3766029D01*
X14490189Y-3843811D01*
X14567971Y-3843811D01*
X14567971Y-4097811D02*
X14567971Y-4020029D01*
X14490189Y-4020029D01*
X14490189Y-4097811D01*
X14567971Y-4097811D01*
X14567971Y-4351811D02*
X14567971Y-4274029D01*
X14490189Y-4274029D01*
X14490189Y-4351811D01*
X14567971Y-4351811D01*
X14770891Y-7277891D02*
X14770891Y-7200109D01*
X14693109Y-7200109D01*
X14693109Y-7277891D01*
X14770891Y-7277891D01*
X15024891Y-7277891D02*
X15024891Y-7200109D01*
X14947109Y-7200109D01*
X14947109Y-7277891D01*
X15024891Y-7277891D01*
X15278891Y-7277891D02*
X15278891Y-7200109D01*
X15201109Y-7200109D01*
X15201109Y-7277891D01*
X15278891Y-7277891D01*
X15532891Y-2959891D02*
X15532891Y-2882109D01*
X15455109Y-2882109D01*
X15455109Y-2959891D01*
X15532891Y-2959891D01*
X15532891Y-7277891D02*
X15532891Y-7200109D01*
X15455109Y-7200109D01*
X15455109Y-7277891D01*
X15532891Y-7277891D01*
X15786891Y-2705891D02*
X15786891Y-2628109D01*
X15709109Y-2628109D01*
X15709109Y-2705891D01*
X15786891Y-2705891D01*
X15786891Y-2959891D02*
X15786891Y-2882109D01*
X15709109Y-2882109D01*
X15709109Y-2959891D01*
X15786891Y-2959891D01*
X15786891Y-3213891D02*
X15786891Y-3136109D01*
X15709109Y-3136109D01*
X15709109Y-3213891D01*
X15786891Y-3213891D01*
X15786891Y-3467891D02*
X15786891Y-3390109D01*
X15709109Y-3390109D01*
X15709109Y-3467891D01*
X15786891Y-3467891D01*
X15786891Y-3721891D02*
X15786891Y-3644109D01*
X15709109Y-3644109D01*
X15709109Y-3721891D01*
X15786891Y-3721891D01*
X15786891Y-3975891D02*
X15786891Y-3898109D01*
X15709109Y-3898109D01*
X15709109Y-3975891D01*
X15786891Y-3975891D01*
X15786891Y-4229891D02*
X15786891Y-4152109D01*
X15709109Y-4152109D01*
X15709109Y-4229891D01*
X15786891Y-4229891D01*
X15786891Y-4483891D02*
X15786891Y-4406109D01*
X15709109Y-4406109D01*
X15709109Y-4483891D01*
X15786891Y-4483891D01*
X15786891Y-4737891D02*
X15786891Y-4660109D01*
X15709109Y-4660109D01*
X15709109Y-4737891D01*
X15786891Y-4737891D01*
X15786891Y-4991891D02*
X15786891Y-4914109D01*
X15709109Y-4914109D01*
X15709109Y-4991891D01*
X15786891Y-4991891D01*
X15786891Y-5245891D02*
X15786891Y-5168109D01*
X15709109Y-5168109D01*
X15709109Y-5245891D01*
X15786891Y-5245891D01*
X15786891Y-5499891D02*
X15786891Y-5422109D01*
X15709109Y-5422109D01*
X15709109Y-5499891D01*
X15786891Y-5499891D01*
X15786891Y-5753891D02*
X15786891Y-5676109D01*
X15709109Y-5676109D01*
X15709109Y-5753891D01*
X15786891Y-5753891D01*
X15786891Y-6007891D02*
X15786891Y-5930109D01*
X15709109Y-5930109D01*
X15709109Y-6007891D01*
X15786891Y-6007891D01*
X15786891Y-6261891D02*
X15786891Y-6184109D01*
X15709109Y-6184109D01*
X15709109Y-6261891D01*
X15786891Y-6261891D01*
X15786891Y-6515891D02*
X15786891Y-6438109D01*
X15709109Y-6438109D01*
X15709109Y-6515891D01*
X15786891Y-6515891D01*
X15786891Y-6769891D02*
X15786891Y-6692109D01*
X15709109Y-6692109D01*
X15709109Y-6769891D01*
X15786891Y-6769891D01*
X15786891Y-7023891D02*
X15786891Y-6946109D01*
X15709109Y-6946109D01*
X15709109Y-7023891D01*
X15786891Y-7023891D01*
X15786891Y-7277891D02*
X15786891Y-7200109D01*
X15709109Y-7200109D01*
X15709109Y-7277891D01*
X15786891Y-7277891D01*
X15786891Y-7531891D02*
X15786891Y-7454109D01*
X15709109Y-7454109D01*
X15709109Y-7531891D01*
X15786891Y-7531891D01*
X15786891Y-7785891D02*
X15786891Y-7708109D01*
X15709109Y-7708109D01*
X15709109Y-7785891D01*
X15786891Y-7785891D01*
X15786891Y-8039891D02*
X15786891Y-7962109D01*
X15709109Y-7962109D01*
X15709109Y-8039891D01*
X15786891Y-8039891D01*
X15786891Y-8293891D02*
X15786891Y-8216109D01*
X15709109Y-8216109D01*
X15709109Y-8293891D01*
X15786891Y-8293891D01*
X15786891Y-8547891D02*
X15786891Y-8470109D01*
X15709109Y-8470109D01*
X15709109Y-8547891D01*
X15786891Y-8547891D01*
D15*
X12927740Y-5373240D02*
X13007740Y-5293240D01*
X12927740Y-5213240D01*
X12847740Y-5293240D01*
X12927740Y-5373240D01*
X13827740Y-5373240D02*
X13907740Y-5293240D01*
X13827740Y-5213240D01*
X13747740Y-5293240D01*
X13827740Y-5373240D01*
D11*
X12942619Y-9969524D02*
X12942619Y-9769524D01*
X12942619Y-9769524D02*
X12990238Y-9769524D01*
X12990238Y-9769524D02*
X13018809Y-9779048D01*
X13018809Y-9779048D02*
X13037857Y-9798095D01*
X13037857Y-9798095D02*
X13047381Y-9817143D01*
X13047381Y-9817143D02*
X13056905Y-9855238D01*
X13056905Y-9855238D02*
X13056905Y-9883810D01*
X13056905Y-9883810D02*
X13047381Y-9921905D01*
X13047381Y-9921905D02*
X13037857Y-9940952D01*
X13037857Y-9940952D02*
X13018809Y-9960000D01*
X13018809Y-9960000D02*
X12990238Y-9969524D01*
X12990238Y-9969524D02*
X12942619Y-9969524D01*
X13142619Y-9969524D02*
X13142619Y-9836190D01*
X13142619Y-9874286D02*
X13152143Y-9855238D01*
X13152143Y-9855238D02*
X13161667Y-9845714D01*
X13161667Y-9845714D02*
X13180714Y-9836190D01*
X13180714Y-9836190D02*
X13199762Y-9836190D01*
X13266428Y-9969524D02*
X13266428Y-9836190D01*
X13266428Y-9769524D02*
X13256905Y-9779048D01*
X13256905Y-9779048D02*
X13266428Y-9788571D01*
X13266428Y-9788571D02*
X13275952Y-9779048D01*
X13275952Y-9779048D02*
X13266428Y-9769524D01*
X13266428Y-9769524D02*
X13266428Y-9788571D01*
X13390238Y-9969524D02*
X13371190Y-9960000D01*
X13371190Y-9960000D02*
X13361667Y-9940952D01*
X13361667Y-9940952D02*
X13361667Y-9769524D01*
X13495000Y-9969524D02*
X13475952Y-9960000D01*
X13475952Y-9960000D02*
X13466428Y-9940952D01*
X13466428Y-9940952D02*
X13466428Y-9769524D01*
X13723571Y-9969524D02*
X13723571Y-9769524D01*
X13723571Y-9769524D02*
X13790238Y-9912381D01*
X13790238Y-9912381D02*
X13856905Y-9769524D01*
X13856905Y-9769524D02*
X13856905Y-9969524D01*
X14037857Y-9969524D02*
X14037857Y-9864762D01*
X14037857Y-9864762D02*
X14028333Y-9845714D01*
X14028333Y-9845714D02*
X14009286Y-9836190D01*
X14009286Y-9836190D02*
X13971190Y-9836190D01*
X13971190Y-9836190D02*
X13952143Y-9845714D01*
X14037857Y-9960000D02*
X14018809Y-9969524D01*
X14018809Y-9969524D02*
X13971190Y-9969524D01*
X13971190Y-9969524D02*
X13952143Y-9960000D01*
X13952143Y-9960000D02*
X13942619Y-9940952D01*
X13942619Y-9940952D02*
X13942619Y-9921905D01*
X13942619Y-9921905D02*
X13952143Y-9902857D01*
X13952143Y-9902857D02*
X13971190Y-9893333D01*
X13971190Y-9893333D02*
X14018809Y-9893333D01*
X14018809Y-9893333D02*
X14037857Y-9883810D01*
X14133095Y-9836190D02*
X14133095Y-10036190D01*
X14133095Y-9845714D02*
X14152143Y-9836190D01*
X14152143Y-9836190D02*
X14190238Y-9836190D01*
X14190238Y-9836190D02*
X14209286Y-9845714D01*
X14209286Y-9845714D02*
X14218809Y-9855238D01*
X14218809Y-9855238D02*
X14228333Y-9874286D01*
X14228333Y-9874286D02*
X14228333Y-9931429D01*
X14228333Y-9931429D02*
X14218809Y-9950476D01*
X14218809Y-9950476D02*
X14209286Y-9960000D01*
X14209286Y-9960000D02*
X14190238Y-9969524D01*
X14190238Y-9969524D02*
X14152143Y-9969524D01*
X14152143Y-9969524D02*
X14133095Y-9960000D01*
X14314048Y-9950476D02*
X14323571Y-9960000D01*
X14323571Y-9960000D02*
X14314048Y-9969524D01*
X14314048Y-9969524D02*
X14304524Y-9960000D01*
X14304524Y-9960000D02*
X14314048Y-9950476D01*
X14314048Y-9950476D02*
X14314048Y-9969524D01*
X14314048Y-9845714D02*
X14323571Y-9855238D01*
X14323571Y-9855238D02*
X14314048Y-9864762D01*
X14314048Y-9864762D02*
X14304524Y-9855238D01*
X14304524Y-9855238D02*
X14314048Y-9845714D01*
X14314048Y-9845714D02*
X14314048Y-9864762D01*
D12*
X12655000Y-10277000D02*
X12695000Y-10317000D01*
X12695000Y-10277000D02*
X12655000Y-10317000D01*
D11*
X12980714Y-10189524D02*
X12999762Y-10189524D01*
X12999762Y-10189524D02*
X13018809Y-10199048D01*
X13018809Y-10199048D02*
X13028333Y-10208571D01*
X13028333Y-10208571D02*
X13037857Y-10227619D01*
X13037857Y-10227619D02*
X13047381Y-10265714D01*
X13047381Y-10265714D02*
X13047381Y-10313333D01*
X13047381Y-10313333D02*
X13037857Y-10351429D01*
X13037857Y-10351429D02*
X13028333Y-10370476D01*
X13028333Y-10370476D02*
X13018809Y-10380000D01*
X13018809Y-10380000D02*
X12999762Y-10389524D01*
X12999762Y-10389524D02*
X12980714Y-10389524D01*
X12980714Y-10389524D02*
X12961667Y-10380000D01*
X12961667Y-10380000D02*
X12952143Y-10370476D01*
X12952143Y-10370476D02*
X12942619Y-10351429D01*
X12942619Y-10351429D02*
X12933095Y-10313333D01*
X12933095Y-10313333D02*
X12933095Y-10265714D01*
X12933095Y-10265714D02*
X12942619Y-10227619D01*
X12942619Y-10227619D02*
X12952143Y-10208571D01*
X12952143Y-10208571D02*
X12961667Y-10199048D01*
X12961667Y-10199048D02*
X12980714Y-10189524D01*
X13133095Y-10370476D02*
X13142619Y-10380000D01*
X13142619Y-10380000D02*
X13133095Y-10389524D01*
X13133095Y-10389524D02*
X13123571Y-10380000D01*
X13123571Y-10380000D02*
X13133095Y-10370476D01*
X13133095Y-10370476D02*
X13133095Y-10389524D01*
X13314048Y-10256190D02*
X13314048Y-10389524D01*
X13266428Y-10180000D02*
X13218809Y-10322857D01*
X13218809Y-10322857D02*
X13342619Y-10322857D01*
X13456905Y-10189524D02*
X13475952Y-10189524D01*
X13475952Y-10189524D02*
X13495000Y-10199048D01*
X13495000Y-10199048D02*
X13504524Y-10208571D01*
X13504524Y-10208571D02*
X13514048Y-10227619D01*
X13514048Y-10227619D02*
X13523571Y-10265714D01*
X13523571Y-10265714D02*
X13523571Y-10313333D01*
X13523571Y-10313333D02*
X13514048Y-10351429D01*
X13514048Y-10351429D02*
X13504524Y-10370476D01*
X13504524Y-10370476D02*
X13495000Y-10380000D01*
X13495000Y-10380000D02*
X13475952Y-10389524D01*
X13475952Y-10389524D02*
X13456905Y-10389524D01*
X13456905Y-10389524D02*
X13437857Y-10380000D01*
X13437857Y-10380000D02*
X13428333Y-10370476D01*
X13428333Y-10370476D02*
X13418809Y-10351429D01*
X13418809Y-10351429D02*
X13409286Y-10313333D01*
X13409286Y-10313333D02*
X13409286Y-10265714D01*
X13409286Y-10265714D02*
X13418809Y-10227619D01*
X13418809Y-10227619D02*
X13428333Y-10208571D01*
X13428333Y-10208571D02*
X13437857Y-10199048D01*
X13437857Y-10199048D02*
X13456905Y-10189524D01*
X13647381Y-10189524D02*
X13666429Y-10189524D01*
X13666429Y-10189524D02*
X13685476Y-10199048D01*
X13685476Y-10199048D02*
X13695000Y-10208571D01*
X13695000Y-10208571D02*
X13704524Y-10227619D01*
X13704524Y-10227619D02*
X13714048Y-10265714D01*
X13714048Y-10265714D02*
X13714048Y-10313333D01*
X13714048Y-10313333D02*
X13704524Y-10351429D01*
X13704524Y-10351429D02*
X13695000Y-10370476D01*
X13695000Y-10370476D02*
X13685476Y-10380000D01*
X13685476Y-10380000D02*
X13666429Y-10389524D01*
X13666429Y-10389524D02*
X13647381Y-10389524D01*
X13647381Y-10389524D02*
X13628333Y-10380000D01*
X13628333Y-10380000D02*
X13618809Y-10370476D01*
X13618809Y-10370476D02*
X13609286Y-10351429D01*
X13609286Y-10351429D02*
X13599762Y-10313333D01*
X13599762Y-10313333D02*
X13599762Y-10265714D01*
X13599762Y-10265714D02*
X13609286Y-10227619D01*
X13609286Y-10227619D02*
X13618809Y-10208571D01*
X13618809Y-10208571D02*
X13628333Y-10199048D01*
X13628333Y-10199048D02*
X13647381Y-10189524D01*
X13799762Y-10389524D02*
X13799762Y-10256190D01*
X13799762Y-10275238D02*
X13809286Y-10265714D01*
X13809286Y-10265714D02*
X13828333Y-10256190D01*
X13828333Y-10256190D02*
X13856905Y-10256190D01*
X13856905Y-10256190D02*
X13875952Y-10265714D01*
X13875952Y-10265714D02*
X13885476Y-10284762D01*
X13885476Y-10284762D02*
X13885476Y-10389524D01*
X13885476Y-10284762D02*
X13895000Y-10265714D01*
X13895000Y-10265714D02*
X13914048Y-10256190D01*
X13914048Y-10256190D02*
X13942619Y-10256190D01*
X13942619Y-10256190D02*
X13961667Y-10265714D01*
X13961667Y-10265714D02*
X13971190Y-10284762D01*
X13971190Y-10284762D02*
X13971190Y-10389524D01*
X14066429Y-10389524D02*
X14066429Y-10256190D01*
X14066429Y-10275238D02*
X14075952Y-10265714D01*
X14075952Y-10265714D02*
X14095000Y-10256190D01*
X14095000Y-10256190D02*
X14123571Y-10256190D01*
X14123571Y-10256190D02*
X14142619Y-10265714D01*
X14142619Y-10265714D02*
X14152143Y-10284762D01*
X14152143Y-10284762D02*
X14152143Y-10389524D01*
X14152143Y-10284762D02*
X14161667Y-10265714D01*
X14161667Y-10265714D02*
X14180714Y-10256190D01*
X14180714Y-10256190D02*
X14209286Y-10256190D01*
X14209286Y-10256190D02*
X14228333Y-10265714D01*
X14228333Y-10265714D02*
X14237857Y-10284762D01*
X14237857Y-10284762D02*
X14237857Y-10389524D01*
X14628333Y-10180000D02*
X14456905Y-10437143D01*
X14885476Y-10189524D02*
X14904524Y-10189524D01*
X14904524Y-10189524D02*
X14923572Y-10199048D01*
X14923572Y-10199048D02*
X14933095Y-10208571D01*
X14933095Y-10208571D02*
X14942619Y-10227619D01*
X14942619Y-10227619D02*
X14952143Y-10265714D01*
X14952143Y-10265714D02*
X14952143Y-10313333D01*
X14952143Y-10313333D02*
X14942619Y-10351429D01*
X14942619Y-10351429D02*
X14933095Y-10370476D01*
X14933095Y-10370476D02*
X14923572Y-10380000D01*
X14923572Y-10380000D02*
X14904524Y-10389524D01*
X14904524Y-10389524D02*
X14885476Y-10389524D01*
X14885476Y-10389524D02*
X14866429Y-10380000D01*
X14866429Y-10380000D02*
X14856905Y-10370476D01*
X14856905Y-10370476D02*
X14847381Y-10351429D01*
X14847381Y-10351429D02*
X14837857Y-10313333D01*
X14837857Y-10313333D02*
X14837857Y-10265714D01*
X14837857Y-10265714D02*
X14847381Y-10227619D01*
X14847381Y-10227619D02*
X14856905Y-10208571D01*
X14856905Y-10208571D02*
X14866429Y-10199048D01*
X14866429Y-10199048D02*
X14885476Y-10189524D01*
X15037857Y-10370476D02*
X15047381Y-10380000D01*
X15047381Y-10380000D02*
X15037857Y-10389524D01*
X15037857Y-10389524D02*
X15028333Y-10380000D01*
X15028333Y-10380000D02*
X15037857Y-10370476D01*
X15037857Y-10370476D02*
X15037857Y-10389524D01*
X15171191Y-10189524D02*
X15190238Y-10189524D01*
X15190238Y-10189524D02*
X15209286Y-10199048D01*
X15209286Y-10199048D02*
X15218810Y-10208571D01*
X15218810Y-10208571D02*
X15228333Y-10227619D01*
X15228333Y-10227619D02*
X15237857Y-10265714D01*
X15237857Y-10265714D02*
X15237857Y-10313333D01*
X15237857Y-10313333D02*
X15228333Y-10351429D01*
X15228333Y-10351429D02*
X15218810Y-10370476D01*
X15218810Y-10370476D02*
X15209286Y-10380000D01*
X15209286Y-10380000D02*
X15190238Y-10389524D01*
X15190238Y-10389524D02*
X15171191Y-10389524D01*
X15171191Y-10389524D02*
X15152143Y-10380000D01*
X15152143Y-10380000D02*
X15142619Y-10370476D01*
X15142619Y-10370476D02*
X15133095Y-10351429D01*
X15133095Y-10351429D02*
X15123572Y-10313333D01*
X15123572Y-10313333D02*
X15123572Y-10265714D01*
X15123572Y-10265714D02*
X15133095Y-10227619D01*
X15133095Y-10227619D02*
X15142619Y-10208571D01*
X15142619Y-10208571D02*
X15152143Y-10199048D01*
X15152143Y-10199048D02*
X15171191Y-10189524D01*
X15428333Y-10389524D02*
X15314048Y-10389524D01*
X15371191Y-10389524D02*
X15371191Y-10189524D01*
X15371191Y-10189524D02*
X15352143Y-10218095D01*
X15352143Y-10218095D02*
X15333095Y-10237143D01*
X15333095Y-10237143D02*
X15314048Y-10246667D01*
X15609286Y-10189524D02*
X15514048Y-10189524D01*
X15514048Y-10189524D02*
X15504524Y-10284762D01*
X15504524Y-10284762D02*
X15514048Y-10275238D01*
X15514048Y-10275238D02*
X15533095Y-10265714D01*
X15533095Y-10265714D02*
X15580714Y-10265714D01*
X15580714Y-10265714D02*
X15599762Y-10275238D01*
X15599762Y-10275238D02*
X15609286Y-10284762D01*
X15609286Y-10284762D02*
X15618810Y-10303810D01*
X15618810Y-10303810D02*
X15618810Y-10351429D01*
X15618810Y-10351429D02*
X15609286Y-10370476D01*
X15609286Y-10370476D02*
X15599762Y-10380000D01*
X15599762Y-10380000D02*
X15580714Y-10389524D01*
X15580714Y-10389524D02*
X15533095Y-10389524D01*
X15533095Y-10389524D02*
X15514048Y-10380000D01*
X15514048Y-10380000D02*
X15504524Y-10370476D01*
X15685476Y-10189524D02*
X15818810Y-10189524D01*
X15818810Y-10189524D02*
X15733095Y-10389524D01*
X15885476Y-10189524D02*
X15885476Y-10227619D01*
X15961667Y-10189524D02*
X15961667Y-10227619D01*
X16256905Y-10465714D02*
X16247381Y-10456190D01*
X16247381Y-10456190D02*
X16228334Y-10427619D01*
X16228334Y-10427619D02*
X16218810Y-10408571D01*
X16218810Y-10408571D02*
X16209286Y-10380000D01*
X16209286Y-10380000D02*
X16199762Y-10332381D01*
X16199762Y-10332381D02*
X16199762Y-10294286D01*
X16199762Y-10294286D02*
X16209286Y-10246667D01*
X16209286Y-10246667D02*
X16218810Y-10218095D01*
X16218810Y-10218095D02*
X16228334Y-10199048D01*
X16228334Y-10199048D02*
X16247381Y-10170476D01*
X16247381Y-10170476D02*
X16256905Y-10160952D01*
X16418810Y-10189524D02*
X16380714Y-10189524D01*
X16380714Y-10189524D02*
X16361667Y-10199048D01*
X16361667Y-10199048D02*
X16352143Y-10208571D01*
X16352143Y-10208571D02*
X16333095Y-10237143D01*
X16333095Y-10237143D02*
X16323572Y-10275238D01*
X16323572Y-10275238D02*
X16323572Y-10351429D01*
X16323572Y-10351429D02*
X16333095Y-10370476D01*
X16333095Y-10370476D02*
X16342619Y-10380000D01*
X16342619Y-10380000D02*
X16361667Y-10389524D01*
X16361667Y-10389524D02*
X16399762Y-10389524D01*
X16399762Y-10389524D02*
X16418810Y-10380000D01*
X16418810Y-10380000D02*
X16428334Y-10370476D01*
X16428334Y-10370476D02*
X16437857Y-10351429D01*
X16437857Y-10351429D02*
X16437857Y-10303810D01*
X16437857Y-10303810D02*
X16428334Y-10284762D01*
X16428334Y-10284762D02*
X16418810Y-10275238D01*
X16418810Y-10275238D02*
X16399762Y-10265714D01*
X16399762Y-10265714D02*
X16361667Y-10265714D01*
X16361667Y-10265714D02*
X16342619Y-10275238D01*
X16342619Y-10275238D02*
X16333095Y-10284762D01*
X16333095Y-10284762D02*
X16323572Y-10303810D01*
X16675953Y-10389524D02*
X16675953Y-10189524D01*
X16761667Y-10389524D02*
X16761667Y-10284762D01*
X16761667Y-10284762D02*
X16752143Y-10265714D01*
X16752143Y-10265714D02*
X16733096Y-10256190D01*
X16733096Y-10256190D02*
X16704524Y-10256190D01*
X16704524Y-10256190D02*
X16685476Y-10265714D01*
X16685476Y-10265714D02*
X16675953Y-10275238D01*
X16885477Y-10389524D02*
X16866429Y-10380000D01*
X16866429Y-10380000D02*
X16856905Y-10370476D01*
X16856905Y-10370476D02*
X16847381Y-10351429D01*
X16847381Y-10351429D02*
X16847381Y-10294286D01*
X16847381Y-10294286D02*
X16856905Y-10275238D01*
X16856905Y-10275238D02*
X16866429Y-10265714D01*
X16866429Y-10265714D02*
X16885477Y-10256190D01*
X16885477Y-10256190D02*
X16914048Y-10256190D01*
X16914048Y-10256190D02*
X16933096Y-10265714D01*
X16933096Y-10265714D02*
X16942619Y-10275238D01*
X16942619Y-10275238D02*
X16952143Y-10294286D01*
X16952143Y-10294286D02*
X16952143Y-10351429D01*
X16952143Y-10351429D02*
X16942619Y-10370476D01*
X16942619Y-10370476D02*
X16933096Y-10380000D01*
X16933096Y-10380000D02*
X16914048Y-10389524D01*
X16914048Y-10389524D02*
X16885477Y-10389524D01*
X17066429Y-10389524D02*
X17047381Y-10380000D01*
X17047381Y-10380000D02*
X17037858Y-10360952D01*
X17037858Y-10360952D02*
X17037858Y-10189524D01*
X17218810Y-10380000D02*
X17199762Y-10389524D01*
X17199762Y-10389524D02*
X17161667Y-10389524D01*
X17161667Y-10389524D02*
X17142619Y-10380000D01*
X17142619Y-10380000D02*
X17133096Y-10360952D01*
X17133096Y-10360952D02*
X17133096Y-10284762D01*
X17133096Y-10284762D02*
X17142619Y-10265714D01*
X17142619Y-10265714D02*
X17161667Y-10256190D01*
X17161667Y-10256190D02*
X17199762Y-10256190D01*
X17199762Y-10256190D02*
X17218810Y-10265714D01*
X17218810Y-10265714D02*
X17228334Y-10284762D01*
X17228334Y-10284762D02*
X17228334Y-10303810D01*
X17228334Y-10303810D02*
X17133096Y-10322857D01*
X17304524Y-10380000D02*
X17323572Y-10389524D01*
X17323572Y-10389524D02*
X17361667Y-10389524D01*
X17361667Y-10389524D02*
X17380715Y-10380000D01*
X17380715Y-10380000D02*
X17390239Y-10360952D01*
X17390239Y-10360952D02*
X17390239Y-10351429D01*
X17390239Y-10351429D02*
X17380715Y-10332381D01*
X17380715Y-10332381D02*
X17361667Y-10322857D01*
X17361667Y-10322857D02*
X17333096Y-10322857D01*
X17333096Y-10322857D02*
X17314048Y-10313333D01*
X17314048Y-10313333D02*
X17304524Y-10294286D01*
X17304524Y-10294286D02*
X17304524Y-10284762D01*
X17304524Y-10284762D02*
X17314048Y-10265714D01*
X17314048Y-10265714D02*
X17333096Y-10256190D01*
X17333096Y-10256190D02*
X17361667Y-10256190D01*
X17361667Y-10256190D02*
X17380715Y-10265714D01*
X17456905Y-10465714D02*
X17466429Y-10456190D01*
X17466429Y-10456190D02*
X17485477Y-10427619D01*
X17485477Y-10427619D02*
X17495000Y-10408571D01*
X17495000Y-10408571D02*
X17504524Y-10380000D01*
X17504524Y-10380000D02*
X17514048Y-10332381D01*
X17514048Y-10332381D02*
X17514048Y-10294286D01*
X17514048Y-10294286D02*
X17504524Y-10246667D01*
X17504524Y-10246667D02*
X17495000Y-10218095D01*
X17495000Y-10218095D02*
X17485477Y-10199048D01*
X17485477Y-10199048D02*
X17466429Y-10170476D01*
X17466429Y-10170476D02*
X17456905Y-10160952D01*
D13*
X12695000Y-10561000D02*
G75*
G03*
X12695000Y-10561000I-40000J0D01*
G01*
D11*
X12980714Y-10453524D02*
X12999762Y-10453524D01*
X12999762Y-10453524D02*
X13018809Y-10463048D01*
X13018809Y-10463048D02*
X13028333Y-10472571D01*
X13028333Y-10472571D02*
X13037857Y-10491619D01*
X13037857Y-10491619D02*
X13047381Y-10529714D01*
X13047381Y-10529714D02*
X13047381Y-10577333D01*
X13047381Y-10577333D02*
X13037857Y-10615429D01*
X13037857Y-10615429D02*
X13028333Y-10634476D01*
X13028333Y-10634476D02*
X13018809Y-10644000D01*
X13018809Y-10644000D02*
X12999762Y-10653524D01*
X12999762Y-10653524D02*
X12980714Y-10653524D01*
X12980714Y-10653524D02*
X12961667Y-10644000D01*
X12961667Y-10644000D02*
X12952143Y-10634476D01*
X12952143Y-10634476D02*
X12942619Y-10615429D01*
X12942619Y-10615429D02*
X12933095Y-10577333D01*
X12933095Y-10577333D02*
X12933095Y-10529714D01*
X12933095Y-10529714D02*
X12942619Y-10491619D01*
X12942619Y-10491619D02*
X12952143Y-10472571D01*
X12952143Y-10472571D02*
X12961667Y-10463048D01*
X12961667Y-10463048D02*
X12980714Y-10453524D01*
X13133095Y-10634476D02*
X13142619Y-10644000D01*
X13142619Y-10644000D02*
X13133095Y-10653524D01*
X13133095Y-10653524D02*
X13123571Y-10644000D01*
X13123571Y-10644000D02*
X13133095Y-10634476D01*
X13133095Y-10634476D02*
X13133095Y-10653524D01*
X13256905Y-10539238D02*
X13237857Y-10529714D01*
X13237857Y-10529714D02*
X13228333Y-10520190D01*
X13228333Y-10520190D02*
X13218809Y-10501143D01*
X13218809Y-10501143D02*
X13218809Y-10491619D01*
X13218809Y-10491619D02*
X13228333Y-10472571D01*
X13228333Y-10472571D02*
X13237857Y-10463048D01*
X13237857Y-10463048D02*
X13256905Y-10453524D01*
X13256905Y-10453524D02*
X13295000Y-10453524D01*
X13295000Y-10453524D02*
X13314048Y-10463048D01*
X13314048Y-10463048D02*
X13323571Y-10472571D01*
X13323571Y-10472571D02*
X13333095Y-10491619D01*
X13333095Y-10491619D02*
X13333095Y-10501143D01*
X13333095Y-10501143D02*
X13323571Y-10520190D01*
X13323571Y-10520190D02*
X13314048Y-10529714D01*
X13314048Y-10529714D02*
X13295000Y-10539238D01*
X13295000Y-10539238D02*
X13256905Y-10539238D01*
X13256905Y-10539238D02*
X13237857Y-10548762D01*
X13237857Y-10548762D02*
X13228333Y-10558286D01*
X13228333Y-10558286D02*
X13218809Y-10577333D01*
X13218809Y-10577333D02*
X13218809Y-10615429D01*
X13218809Y-10615429D02*
X13228333Y-10634476D01*
X13228333Y-10634476D02*
X13237857Y-10644000D01*
X13237857Y-10644000D02*
X13256905Y-10653524D01*
X13256905Y-10653524D02*
X13295000Y-10653524D01*
X13295000Y-10653524D02*
X13314048Y-10644000D01*
X13314048Y-10644000D02*
X13323571Y-10634476D01*
X13323571Y-10634476D02*
X13333095Y-10615429D01*
X13333095Y-10615429D02*
X13333095Y-10577333D01*
X13333095Y-10577333D02*
X13323571Y-10558286D01*
X13323571Y-10558286D02*
X13314048Y-10548762D01*
X13314048Y-10548762D02*
X13295000Y-10539238D01*
X13456905Y-10453524D02*
X13475952Y-10453524D01*
X13475952Y-10453524D02*
X13495000Y-10463048D01*
X13495000Y-10463048D02*
X13504524Y-10472571D01*
X13504524Y-10472571D02*
X13514048Y-10491619D01*
X13514048Y-10491619D02*
X13523571Y-10529714D01*
X13523571Y-10529714D02*
X13523571Y-10577333D01*
X13523571Y-10577333D02*
X13514048Y-10615429D01*
X13514048Y-10615429D02*
X13504524Y-10634476D01*
X13504524Y-10634476D02*
X13495000Y-10644000D01*
X13495000Y-10644000D02*
X13475952Y-10653524D01*
X13475952Y-10653524D02*
X13456905Y-10653524D01*
X13456905Y-10653524D02*
X13437857Y-10644000D01*
X13437857Y-10644000D02*
X13428333Y-10634476D01*
X13428333Y-10634476D02*
X13418809Y-10615429D01*
X13418809Y-10615429D02*
X13409286Y-10577333D01*
X13409286Y-10577333D02*
X13409286Y-10529714D01*
X13409286Y-10529714D02*
X13418809Y-10491619D01*
X13418809Y-10491619D02*
X13428333Y-10472571D01*
X13428333Y-10472571D02*
X13437857Y-10463048D01*
X13437857Y-10463048D02*
X13456905Y-10453524D01*
X13647381Y-10453524D02*
X13666429Y-10453524D01*
X13666429Y-10453524D02*
X13685476Y-10463048D01*
X13685476Y-10463048D02*
X13695000Y-10472571D01*
X13695000Y-10472571D02*
X13704524Y-10491619D01*
X13704524Y-10491619D02*
X13714048Y-10529714D01*
X13714048Y-10529714D02*
X13714048Y-10577333D01*
X13714048Y-10577333D02*
X13704524Y-10615429D01*
X13704524Y-10615429D02*
X13695000Y-10634476D01*
X13695000Y-10634476D02*
X13685476Y-10644000D01*
X13685476Y-10644000D02*
X13666429Y-10653524D01*
X13666429Y-10653524D02*
X13647381Y-10653524D01*
X13647381Y-10653524D02*
X13628333Y-10644000D01*
X13628333Y-10644000D02*
X13618809Y-10634476D01*
X13618809Y-10634476D02*
X13609286Y-10615429D01*
X13609286Y-10615429D02*
X13599762Y-10577333D01*
X13599762Y-10577333D02*
X13599762Y-10529714D01*
X13599762Y-10529714D02*
X13609286Y-10491619D01*
X13609286Y-10491619D02*
X13618809Y-10472571D01*
X13618809Y-10472571D02*
X13628333Y-10463048D01*
X13628333Y-10463048D02*
X13647381Y-10453524D01*
X13799762Y-10653524D02*
X13799762Y-10520190D01*
X13799762Y-10539238D02*
X13809286Y-10529714D01*
X13809286Y-10529714D02*
X13828333Y-10520190D01*
X13828333Y-10520190D02*
X13856905Y-10520190D01*
X13856905Y-10520190D02*
X13875952Y-10529714D01*
X13875952Y-10529714D02*
X13885476Y-10548762D01*
X13885476Y-10548762D02*
X13885476Y-10653524D01*
X13885476Y-10548762D02*
X13895000Y-10529714D01*
X13895000Y-10529714D02*
X13914048Y-10520190D01*
X13914048Y-10520190D02*
X13942619Y-10520190D01*
X13942619Y-10520190D02*
X13961667Y-10529714D01*
X13961667Y-10529714D02*
X13971190Y-10548762D01*
X13971190Y-10548762D02*
X13971190Y-10653524D01*
X14066429Y-10653524D02*
X14066429Y-10520190D01*
X14066429Y-10539238D02*
X14075952Y-10529714D01*
X14075952Y-10529714D02*
X14095000Y-10520190D01*
X14095000Y-10520190D02*
X14123571Y-10520190D01*
X14123571Y-10520190D02*
X14142619Y-10529714D01*
X14142619Y-10529714D02*
X14152143Y-10548762D01*
X14152143Y-10548762D02*
X14152143Y-10653524D01*
X14152143Y-10548762D02*
X14161667Y-10529714D01*
X14161667Y-10529714D02*
X14180714Y-10520190D01*
X14180714Y-10520190D02*
X14209286Y-10520190D01*
X14209286Y-10520190D02*
X14228333Y-10529714D01*
X14228333Y-10529714D02*
X14237857Y-10548762D01*
X14237857Y-10548762D02*
X14237857Y-10653524D01*
X14628333Y-10444000D02*
X14456905Y-10701143D01*
X14885476Y-10453524D02*
X14904524Y-10453524D01*
X14904524Y-10453524D02*
X14923572Y-10463048D01*
X14923572Y-10463048D02*
X14933095Y-10472571D01*
X14933095Y-10472571D02*
X14942619Y-10491619D01*
X14942619Y-10491619D02*
X14952143Y-10529714D01*
X14952143Y-10529714D02*
X14952143Y-10577333D01*
X14952143Y-10577333D02*
X14942619Y-10615429D01*
X14942619Y-10615429D02*
X14933095Y-10634476D01*
X14933095Y-10634476D02*
X14923572Y-10644000D01*
X14923572Y-10644000D02*
X14904524Y-10653524D01*
X14904524Y-10653524D02*
X14885476Y-10653524D01*
X14885476Y-10653524D02*
X14866429Y-10644000D01*
X14866429Y-10644000D02*
X14856905Y-10634476D01*
X14856905Y-10634476D02*
X14847381Y-10615429D01*
X14847381Y-10615429D02*
X14837857Y-10577333D01*
X14837857Y-10577333D02*
X14837857Y-10529714D01*
X14837857Y-10529714D02*
X14847381Y-10491619D01*
X14847381Y-10491619D02*
X14856905Y-10472571D01*
X14856905Y-10472571D02*
X14866429Y-10463048D01*
X14866429Y-10463048D02*
X14885476Y-10453524D01*
X15037857Y-10634476D02*
X15047381Y-10644000D01*
X15047381Y-10644000D02*
X15037857Y-10653524D01*
X15037857Y-10653524D02*
X15028333Y-10644000D01*
X15028333Y-10644000D02*
X15037857Y-10634476D01*
X15037857Y-10634476D02*
X15037857Y-10653524D01*
X15171191Y-10453524D02*
X15190238Y-10453524D01*
X15190238Y-10453524D02*
X15209286Y-10463048D01*
X15209286Y-10463048D02*
X15218810Y-10472571D01*
X15218810Y-10472571D02*
X15228333Y-10491619D01*
X15228333Y-10491619D02*
X15237857Y-10529714D01*
X15237857Y-10529714D02*
X15237857Y-10577333D01*
X15237857Y-10577333D02*
X15228333Y-10615429D01*
X15228333Y-10615429D02*
X15218810Y-10634476D01*
X15218810Y-10634476D02*
X15209286Y-10644000D01*
X15209286Y-10644000D02*
X15190238Y-10653524D01*
X15190238Y-10653524D02*
X15171191Y-10653524D01*
X15171191Y-10653524D02*
X15152143Y-10644000D01*
X15152143Y-10644000D02*
X15142619Y-10634476D01*
X15142619Y-10634476D02*
X15133095Y-10615429D01*
X15133095Y-10615429D02*
X15123572Y-10577333D01*
X15123572Y-10577333D02*
X15123572Y-10529714D01*
X15123572Y-10529714D02*
X15133095Y-10491619D01*
X15133095Y-10491619D02*
X15142619Y-10472571D01*
X15142619Y-10472571D02*
X15152143Y-10463048D01*
X15152143Y-10463048D02*
X15171191Y-10453524D01*
X15304524Y-10453524D02*
X15428333Y-10453524D01*
X15428333Y-10453524D02*
X15361667Y-10529714D01*
X15361667Y-10529714D02*
X15390238Y-10529714D01*
X15390238Y-10529714D02*
X15409286Y-10539238D01*
X15409286Y-10539238D02*
X15418810Y-10548762D01*
X15418810Y-10548762D02*
X15428333Y-10567810D01*
X15428333Y-10567810D02*
X15428333Y-10615429D01*
X15428333Y-10615429D02*
X15418810Y-10634476D01*
X15418810Y-10634476D02*
X15409286Y-10644000D01*
X15409286Y-10644000D02*
X15390238Y-10653524D01*
X15390238Y-10653524D02*
X15333095Y-10653524D01*
X15333095Y-10653524D02*
X15314048Y-10644000D01*
X15314048Y-10644000D02*
X15304524Y-10634476D01*
X15618810Y-10653524D02*
X15504524Y-10653524D01*
X15561667Y-10653524D02*
X15561667Y-10453524D01*
X15561667Y-10453524D02*
X15542619Y-10482095D01*
X15542619Y-10482095D02*
X15523572Y-10501143D01*
X15523572Y-10501143D02*
X15504524Y-10510667D01*
X15799762Y-10453524D02*
X15704524Y-10453524D01*
X15704524Y-10453524D02*
X15695000Y-10548762D01*
X15695000Y-10548762D02*
X15704524Y-10539238D01*
X15704524Y-10539238D02*
X15723572Y-10529714D01*
X15723572Y-10529714D02*
X15771191Y-10529714D01*
X15771191Y-10529714D02*
X15790238Y-10539238D01*
X15790238Y-10539238D02*
X15799762Y-10548762D01*
X15799762Y-10548762D02*
X15809286Y-10567810D01*
X15809286Y-10567810D02*
X15809286Y-10615429D01*
X15809286Y-10615429D02*
X15799762Y-10634476D01*
X15799762Y-10634476D02*
X15790238Y-10644000D01*
X15790238Y-10644000D02*
X15771191Y-10653524D01*
X15771191Y-10653524D02*
X15723572Y-10653524D01*
X15723572Y-10653524D02*
X15704524Y-10644000D01*
X15704524Y-10644000D02*
X15695000Y-10634476D01*
X15885476Y-10453524D02*
X15885476Y-10491619D01*
X15961667Y-10453524D02*
X15961667Y-10491619D01*
X16256905Y-10729714D02*
X16247381Y-10720190D01*
X16247381Y-10720190D02*
X16228334Y-10691619D01*
X16228334Y-10691619D02*
X16218810Y-10672571D01*
X16218810Y-10672571D02*
X16209286Y-10644000D01*
X16209286Y-10644000D02*
X16199762Y-10596381D01*
X16199762Y-10596381D02*
X16199762Y-10558286D01*
X16199762Y-10558286D02*
X16209286Y-10510667D01*
X16209286Y-10510667D02*
X16218810Y-10482095D01*
X16218810Y-10482095D02*
X16228334Y-10463048D01*
X16228334Y-10463048D02*
X16247381Y-10434476D01*
X16247381Y-10434476D02*
X16256905Y-10424952D01*
X16361667Y-10539238D02*
X16342619Y-10529714D01*
X16342619Y-10529714D02*
X16333095Y-10520190D01*
X16333095Y-10520190D02*
X16323572Y-10501143D01*
X16323572Y-10501143D02*
X16323572Y-10491619D01*
X16323572Y-10491619D02*
X16333095Y-10472571D01*
X16333095Y-10472571D02*
X16342619Y-10463048D01*
X16342619Y-10463048D02*
X16361667Y-10453524D01*
X16361667Y-10453524D02*
X16399762Y-10453524D01*
X16399762Y-10453524D02*
X16418810Y-10463048D01*
X16418810Y-10463048D02*
X16428334Y-10472571D01*
X16428334Y-10472571D02*
X16437857Y-10491619D01*
X16437857Y-10491619D02*
X16437857Y-10501143D01*
X16437857Y-10501143D02*
X16428334Y-10520190D01*
X16428334Y-10520190D02*
X16418810Y-10529714D01*
X16418810Y-10529714D02*
X16399762Y-10539238D01*
X16399762Y-10539238D02*
X16361667Y-10539238D01*
X16361667Y-10539238D02*
X16342619Y-10548762D01*
X16342619Y-10548762D02*
X16333095Y-10558286D01*
X16333095Y-10558286D02*
X16323572Y-10577333D01*
X16323572Y-10577333D02*
X16323572Y-10615429D01*
X16323572Y-10615429D02*
X16333095Y-10634476D01*
X16333095Y-10634476D02*
X16342619Y-10644000D01*
X16342619Y-10644000D02*
X16361667Y-10653524D01*
X16361667Y-10653524D02*
X16399762Y-10653524D01*
X16399762Y-10653524D02*
X16418810Y-10644000D01*
X16418810Y-10644000D02*
X16428334Y-10634476D01*
X16428334Y-10634476D02*
X16437857Y-10615429D01*
X16437857Y-10615429D02*
X16437857Y-10577333D01*
X16437857Y-10577333D02*
X16428334Y-10558286D01*
X16428334Y-10558286D02*
X16418810Y-10548762D01*
X16418810Y-10548762D02*
X16399762Y-10539238D01*
X16675953Y-10653524D02*
X16675953Y-10453524D01*
X16761667Y-10653524D02*
X16761667Y-10548762D01*
X16761667Y-10548762D02*
X16752143Y-10529714D01*
X16752143Y-10529714D02*
X16733096Y-10520190D01*
X16733096Y-10520190D02*
X16704524Y-10520190D01*
X16704524Y-10520190D02*
X16685476Y-10529714D01*
X16685476Y-10529714D02*
X16675953Y-10539238D01*
X16885477Y-10653524D02*
X16866429Y-10644000D01*
X16866429Y-10644000D02*
X16856905Y-10634476D01*
X16856905Y-10634476D02*
X16847381Y-10615429D01*
X16847381Y-10615429D02*
X16847381Y-10558286D01*
X16847381Y-10558286D02*
X16856905Y-10539238D01*
X16856905Y-10539238D02*
X16866429Y-10529714D01*
X16866429Y-10529714D02*
X16885477Y-10520190D01*
X16885477Y-10520190D02*
X16914048Y-10520190D01*
X16914048Y-10520190D02*
X16933096Y-10529714D01*
X16933096Y-10529714D02*
X16942619Y-10539238D01*
X16942619Y-10539238D02*
X16952143Y-10558286D01*
X16952143Y-10558286D02*
X16952143Y-10615429D01*
X16952143Y-10615429D02*
X16942619Y-10634476D01*
X16942619Y-10634476D02*
X16933096Y-10644000D01*
X16933096Y-10644000D02*
X16914048Y-10653524D01*
X16914048Y-10653524D02*
X16885477Y-10653524D01*
X17066429Y-10653524D02*
X17047381Y-10644000D01*
X17047381Y-10644000D02*
X17037858Y-10624952D01*
X17037858Y-10624952D02*
X17037858Y-10453524D01*
X17218810Y-10644000D02*
X17199762Y-10653524D01*
X17199762Y-10653524D02*
X17161667Y-10653524D01*
X17161667Y-10653524D02*
X17142619Y-10644000D01*
X17142619Y-10644000D02*
X17133096Y-10624952D01*
X17133096Y-10624952D02*
X17133096Y-10548762D01*
X17133096Y-10548762D02*
X17142619Y-10529714D01*
X17142619Y-10529714D02*
X17161667Y-10520190D01*
X17161667Y-10520190D02*
X17199762Y-10520190D01*
X17199762Y-10520190D02*
X17218810Y-10529714D01*
X17218810Y-10529714D02*
X17228334Y-10548762D01*
X17228334Y-10548762D02*
X17228334Y-10567810D01*
X17228334Y-10567810D02*
X17133096Y-10586857D01*
X17304524Y-10644000D02*
X17323572Y-10653524D01*
X17323572Y-10653524D02*
X17361667Y-10653524D01*
X17361667Y-10653524D02*
X17380715Y-10644000D01*
X17380715Y-10644000D02*
X17390239Y-10624952D01*
X17390239Y-10624952D02*
X17390239Y-10615429D01*
X17390239Y-10615429D02*
X17380715Y-10596381D01*
X17380715Y-10596381D02*
X17361667Y-10586857D01*
X17361667Y-10586857D02*
X17333096Y-10586857D01*
X17333096Y-10586857D02*
X17314048Y-10577333D01*
X17314048Y-10577333D02*
X17304524Y-10558286D01*
X17304524Y-10558286D02*
X17304524Y-10548762D01*
X17304524Y-10548762D02*
X17314048Y-10529714D01*
X17314048Y-10529714D02*
X17333096Y-10520190D01*
X17333096Y-10520190D02*
X17361667Y-10520190D01*
X17361667Y-10520190D02*
X17380715Y-10529714D01*
X17456905Y-10729714D02*
X17466429Y-10720190D01*
X17466429Y-10720190D02*
X17485477Y-10691619D01*
X17485477Y-10691619D02*
X17495000Y-10672571D01*
X17495000Y-10672571D02*
X17504524Y-10644000D01*
X17504524Y-10644000D02*
X17514048Y-10596381D01*
X17514048Y-10596381D02*
X17514048Y-10558286D01*
X17514048Y-10558286D02*
X17504524Y-10510667D01*
X17504524Y-10510667D02*
X17495000Y-10482095D01*
X17495000Y-10482095D02*
X17485477Y-10463048D01*
X17485477Y-10463048D02*
X17466429Y-10434476D01*
X17466429Y-10434476D02*
X17456905Y-10424952D01*
D10*
X12645000Y-10775000D02*
X12645000Y-10875000D01*
X12595000Y-10825000D02*
X12695000Y-10825000D01*
D11*
X13047381Y-10917524D02*
X12933095Y-10917524D01*
X12990238Y-10917524D02*
X12990238Y-10717524D01*
X12990238Y-10717524D02*
X12971190Y-10746095D01*
X12971190Y-10746095D02*
X12952143Y-10765143D01*
X12952143Y-10765143D02*
X12933095Y-10774667D01*
X13133095Y-10898476D02*
X13142619Y-10908000D01*
X13142619Y-10908000D02*
X13133095Y-10917524D01*
X13133095Y-10917524D02*
X13123571Y-10908000D01*
X13123571Y-10908000D02*
X13133095Y-10898476D01*
X13133095Y-10898476D02*
X13133095Y-10917524D01*
X13266428Y-10717524D02*
X13285476Y-10717524D01*
X13285476Y-10717524D02*
X13304524Y-10727048D01*
X13304524Y-10727048D02*
X13314048Y-10736571D01*
X13314048Y-10736571D02*
X13323571Y-10755619D01*
X13323571Y-10755619D02*
X13333095Y-10793714D01*
X13333095Y-10793714D02*
X13333095Y-10841333D01*
X13333095Y-10841333D02*
X13323571Y-10879429D01*
X13323571Y-10879429D02*
X13314048Y-10898476D01*
X13314048Y-10898476D02*
X13304524Y-10908000D01*
X13304524Y-10908000D02*
X13285476Y-10917524D01*
X13285476Y-10917524D02*
X13266428Y-10917524D01*
X13266428Y-10917524D02*
X13247381Y-10908000D01*
X13247381Y-10908000D02*
X13237857Y-10898476D01*
X13237857Y-10898476D02*
X13228333Y-10879429D01*
X13228333Y-10879429D02*
X13218809Y-10841333D01*
X13218809Y-10841333D02*
X13218809Y-10793714D01*
X13218809Y-10793714D02*
X13228333Y-10755619D01*
X13228333Y-10755619D02*
X13237857Y-10736571D01*
X13237857Y-10736571D02*
X13247381Y-10727048D01*
X13247381Y-10727048D02*
X13266428Y-10717524D01*
X13456905Y-10717524D02*
X13475952Y-10717524D01*
X13475952Y-10717524D02*
X13495000Y-10727048D01*
X13495000Y-10727048D02*
X13504524Y-10736571D01*
X13504524Y-10736571D02*
X13514048Y-10755619D01*
X13514048Y-10755619D02*
X13523571Y-10793714D01*
X13523571Y-10793714D02*
X13523571Y-10841333D01*
X13523571Y-10841333D02*
X13514048Y-10879429D01*
X13514048Y-10879429D02*
X13504524Y-10898476D01*
X13504524Y-10898476D02*
X13495000Y-10908000D01*
X13495000Y-10908000D02*
X13475952Y-10917524D01*
X13475952Y-10917524D02*
X13456905Y-10917524D01*
X13456905Y-10917524D02*
X13437857Y-10908000D01*
X13437857Y-10908000D02*
X13428333Y-10898476D01*
X13428333Y-10898476D02*
X13418809Y-10879429D01*
X13418809Y-10879429D02*
X13409286Y-10841333D01*
X13409286Y-10841333D02*
X13409286Y-10793714D01*
X13409286Y-10793714D02*
X13418809Y-10755619D01*
X13418809Y-10755619D02*
X13428333Y-10736571D01*
X13428333Y-10736571D02*
X13437857Y-10727048D01*
X13437857Y-10727048D02*
X13456905Y-10717524D01*
X13647381Y-10717524D02*
X13666429Y-10717524D01*
X13666429Y-10717524D02*
X13685476Y-10727048D01*
X13685476Y-10727048D02*
X13695000Y-10736571D01*
X13695000Y-10736571D02*
X13704524Y-10755619D01*
X13704524Y-10755619D02*
X13714048Y-10793714D01*
X13714048Y-10793714D02*
X13714048Y-10841333D01*
X13714048Y-10841333D02*
X13704524Y-10879429D01*
X13704524Y-10879429D02*
X13695000Y-10898476D01*
X13695000Y-10898476D02*
X13685476Y-10908000D01*
X13685476Y-10908000D02*
X13666429Y-10917524D01*
X13666429Y-10917524D02*
X13647381Y-10917524D01*
X13647381Y-10917524D02*
X13628333Y-10908000D01*
X13628333Y-10908000D02*
X13618809Y-10898476D01*
X13618809Y-10898476D02*
X13609286Y-10879429D01*
X13609286Y-10879429D02*
X13599762Y-10841333D01*
X13599762Y-10841333D02*
X13599762Y-10793714D01*
X13599762Y-10793714D02*
X13609286Y-10755619D01*
X13609286Y-10755619D02*
X13618809Y-10736571D01*
X13618809Y-10736571D02*
X13628333Y-10727048D01*
X13628333Y-10727048D02*
X13647381Y-10717524D01*
X13799762Y-10917524D02*
X13799762Y-10784190D01*
X13799762Y-10803238D02*
X13809286Y-10793714D01*
X13809286Y-10793714D02*
X13828333Y-10784190D01*
X13828333Y-10784190D02*
X13856905Y-10784190D01*
X13856905Y-10784190D02*
X13875952Y-10793714D01*
X13875952Y-10793714D02*
X13885476Y-10812762D01*
X13885476Y-10812762D02*
X13885476Y-10917524D01*
X13885476Y-10812762D02*
X13895000Y-10793714D01*
X13895000Y-10793714D02*
X13914048Y-10784190D01*
X13914048Y-10784190D02*
X13942619Y-10784190D01*
X13942619Y-10784190D02*
X13961667Y-10793714D01*
X13961667Y-10793714D02*
X13971190Y-10812762D01*
X13971190Y-10812762D02*
X13971190Y-10917524D01*
X14066429Y-10917524D02*
X14066429Y-10784190D01*
X14066429Y-10803238D02*
X14075952Y-10793714D01*
X14075952Y-10793714D02*
X14095000Y-10784190D01*
X14095000Y-10784190D02*
X14123571Y-10784190D01*
X14123571Y-10784190D02*
X14142619Y-10793714D01*
X14142619Y-10793714D02*
X14152143Y-10812762D01*
X14152143Y-10812762D02*
X14152143Y-10917524D01*
X14152143Y-10812762D02*
X14161667Y-10793714D01*
X14161667Y-10793714D02*
X14180714Y-10784190D01*
X14180714Y-10784190D02*
X14209286Y-10784190D01*
X14209286Y-10784190D02*
X14228333Y-10793714D01*
X14228333Y-10793714D02*
X14237857Y-10812762D01*
X14237857Y-10812762D02*
X14237857Y-10917524D01*
X14628333Y-10708000D02*
X14456905Y-10965143D01*
X14885476Y-10717524D02*
X14904524Y-10717524D01*
X14904524Y-10717524D02*
X14923572Y-10727048D01*
X14923572Y-10727048D02*
X14933095Y-10736571D01*
X14933095Y-10736571D02*
X14942619Y-10755619D01*
X14942619Y-10755619D02*
X14952143Y-10793714D01*
X14952143Y-10793714D02*
X14952143Y-10841333D01*
X14952143Y-10841333D02*
X14942619Y-10879429D01*
X14942619Y-10879429D02*
X14933095Y-10898476D01*
X14933095Y-10898476D02*
X14923572Y-10908000D01*
X14923572Y-10908000D02*
X14904524Y-10917524D01*
X14904524Y-10917524D02*
X14885476Y-10917524D01*
X14885476Y-10917524D02*
X14866429Y-10908000D01*
X14866429Y-10908000D02*
X14856905Y-10898476D01*
X14856905Y-10898476D02*
X14847381Y-10879429D01*
X14847381Y-10879429D02*
X14837857Y-10841333D01*
X14837857Y-10841333D02*
X14837857Y-10793714D01*
X14837857Y-10793714D02*
X14847381Y-10755619D01*
X14847381Y-10755619D02*
X14856905Y-10736571D01*
X14856905Y-10736571D02*
X14866429Y-10727048D01*
X14866429Y-10727048D02*
X14885476Y-10717524D01*
X15037857Y-10898476D02*
X15047381Y-10908000D01*
X15047381Y-10908000D02*
X15037857Y-10917524D01*
X15037857Y-10917524D02*
X15028333Y-10908000D01*
X15028333Y-10908000D02*
X15037857Y-10898476D01*
X15037857Y-10898476D02*
X15037857Y-10917524D01*
X15171191Y-10717524D02*
X15190238Y-10717524D01*
X15190238Y-10717524D02*
X15209286Y-10727048D01*
X15209286Y-10727048D02*
X15218810Y-10736571D01*
X15218810Y-10736571D02*
X15228333Y-10755619D01*
X15228333Y-10755619D02*
X15237857Y-10793714D01*
X15237857Y-10793714D02*
X15237857Y-10841333D01*
X15237857Y-10841333D02*
X15228333Y-10879429D01*
X15228333Y-10879429D02*
X15218810Y-10898476D01*
X15218810Y-10898476D02*
X15209286Y-10908000D01*
X15209286Y-10908000D02*
X15190238Y-10917524D01*
X15190238Y-10917524D02*
X15171191Y-10917524D01*
X15171191Y-10917524D02*
X15152143Y-10908000D01*
X15152143Y-10908000D02*
X15142619Y-10898476D01*
X15142619Y-10898476D02*
X15133095Y-10879429D01*
X15133095Y-10879429D02*
X15123572Y-10841333D01*
X15123572Y-10841333D02*
X15123572Y-10793714D01*
X15123572Y-10793714D02*
X15133095Y-10755619D01*
X15133095Y-10755619D02*
X15142619Y-10736571D01*
X15142619Y-10736571D02*
X15152143Y-10727048D01*
X15152143Y-10727048D02*
X15171191Y-10717524D01*
X15304524Y-10717524D02*
X15428333Y-10717524D01*
X15428333Y-10717524D02*
X15361667Y-10793714D01*
X15361667Y-10793714D02*
X15390238Y-10793714D01*
X15390238Y-10793714D02*
X15409286Y-10803238D01*
X15409286Y-10803238D02*
X15418810Y-10812762D01*
X15418810Y-10812762D02*
X15428333Y-10831810D01*
X15428333Y-10831810D02*
X15428333Y-10879429D01*
X15428333Y-10879429D02*
X15418810Y-10898476D01*
X15418810Y-10898476D02*
X15409286Y-10908000D01*
X15409286Y-10908000D02*
X15390238Y-10917524D01*
X15390238Y-10917524D02*
X15333095Y-10917524D01*
X15333095Y-10917524D02*
X15314048Y-10908000D01*
X15314048Y-10908000D02*
X15304524Y-10898476D01*
X15523572Y-10917524D02*
X15561667Y-10917524D01*
X15561667Y-10917524D02*
X15580714Y-10908000D01*
X15580714Y-10908000D02*
X15590238Y-10898476D01*
X15590238Y-10898476D02*
X15609286Y-10869905D01*
X15609286Y-10869905D02*
X15618810Y-10831810D01*
X15618810Y-10831810D02*
X15618810Y-10755619D01*
X15618810Y-10755619D02*
X15609286Y-10736571D01*
X15609286Y-10736571D02*
X15599762Y-10727048D01*
X15599762Y-10727048D02*
X15580714Y-10717524D01*
X15580714Y-10717524D02*
X15542619Y-10717524D01*
X15542619Y-10717524D02*
X15523572Y-10727048D01*
X15523572Y-10727048D02*
X15514048Y-10736571D01*
X15514048Y-10736571D02*
X15504524Y-10755619D01*
X15504524Y-10755619D02*
X15504524Y-10803238D01*
X15504524Y-10803238D02*
X15514048Y-10822286D01*
X15514048Y-10822286D02*
X15523572Y-10831810D01*
X15523572Y-10831810D02*
X15542619Y-10841333D01*
X15542619Y-10841333D02*
X15580714Y-10841333D01*
X15580714Y-10841333D02*
X15599762Y-10831810D01*
X15599762Y-10831810D02*
X15609286Y-10822286D01*
X15609286Y-10822286D02*
X15618810Y-10803238D01*
X15790238Y-10784190D02*
X15790238Y-10917524D01*
X15742619Y-10708000D02*
X15695000Y-10850857D01*
X15695000Y-10850857D02*
X15818810Y-10850857D01*
X15885476Y-10717524D02*
X15885476Y-10755619D01*
X15961667Y-10717524D02*
X15961667Y-10755619D01*
X16256905Y-10993714D02*
X16247381Y-10984190D01*
X16247381Y-10984190D02*
X16228334Y-10955619D01*
X16228334Y-10955619D02*
X16218810Y-10936571D01*
X16218810Y-10936571D02*
X16209286Y-10908000D01*
X16209286Y-10908000D02*
X16199762Y-10860381D01*
X16199762Y-10860381D02*
X16199762Y-10822286D01*
X16199762Y-10822286D02*
X16209286Y-10774667D01*
X16209286Y-10774667D02*
X16218810Y-10746095D01*
X16218810Y-10746095D02*
X16228334Y-10727048D01*
X16228334Y-10727048D02*
X16247381Y-10698476D01*
X16247381Y-10698476D02*
X16256905Y-10688952D01*
X16437857Y-10917524D02*
X16323572Y-10917524D01*
X16380714Y-10917524D02*
X16380714Y-10717524D01*
X16380714Y-10717524D02*
X16361667Y-10746095D01*
X16361667Y-10746095D02*
X16342619Y-10765143D01*
X16342619Y-10765143D02*
X16323572Y-10774667D01*
X16504524Y-10717524D02*
X16637857Y-10717524D01*
X16637857Y-10717524D02*
X16552143Y-10917524D01*
X16866429Y-10917524D02*
X16866429Y-10717524D01*
X16952143Y-10917524D02*
X16952143Y-10812762D01*
X16952143Y-10812762D02*
X16942619Y-10793714D01*
X16942619Y-10793714D02*
X16923572Y-10784190D01*
X16923572Y-10784190D02*
X16895000Y-10784190D01*
X16895000Y-10784190D02*
X16875953Y-10793714D01*
X16875953Y-10793714D02*
X16866429Y-10803238D01*
X17075953Y-10917524D02*
X17056905Y-10908000D01*
X17056905Y-10908000D02*
X17047381Y-10898476D01*
X17047381Y-10898476D02*
X17037858Y-10879429D01*
X17037858Y-10879429D02*
X17037858Y-10822286D01*
X17037858Y-10822286D02*
X17047381Y-10803238D01*
X17047381Y-10803238D02*
X17056905Y-10793714D01*
X17056905Y-10793714D02*
X17075953Y-10784190D01*
X17075953Y-10784190D02*
X17104524Y-10784190D01*
X17104524Y-10784190D02*
X17123572Y-10793714D01*
X17123572Y-10793714D02*
X17133096Y-10803238D01*
X17133096Y-10803238D02*
X17142619Y-10822286D01*
X17142619Y-10822286D02*
X17142619Y-10879429D01*
X17142619Y-10879429D02*
X17133096Y-10898476D01*
X17133096Y-10898476D02*
X17123572Y-10908000D01*
X17123572Y-10908000D02*
X17104524Y-10917524D01*
X17104524Y-10917524D02*
X17075953Y-10917524D01*
X17256905Y-10917524D02*
X17237858Y-10908000D01*
X17237858Y-10908000D02*
X17228334Y-10888952D01*
X17228334Y-10888952D02*
X17228334Y-10717524D01*
X17409286Y-10908000D02*
X17390239Y-10917524D01*
X17390239Y-10917524D02*
X17352143Y-10917524D01*
X17352143Y-10917524D02*
X17333096Y-10908000D01*
X17333096Y-10908000D02*
X17323572Y-10888952D01*
X17323572Y-10888952D02*
X17323572Y-10812762D01*
X17323572Y-10812762D02*
X17333096Y-10793714D01*
X17333096Y-10793714D02*
X17352143Y-10784190D01*
X17352143Y-10784190D02*
X17390239Y-10784190D01*
X17390239Y-10784190D02*
X17409286Y-10793714D01*
X17409286Y-10793714D02*
X17418810Y-10812762D01*
X17418810Y-10812762D02*
X17418810Y-10831810D01*
X17418810Y-10831810D02*
X17323572Y-10850857D01*
X17495000Y-10908000D02*
X17514048Y-10917524D01*
X17514048Y-10917524D02*
X17552143Y-10917524D01*
X17552143Y-10917524D02*
X17571191Y-10908000D01*
X17571191Y-10908000D02*
X17580715Y-10888952D01*
X17580715Y-10888952D02*
X17580715Y-10879429D01*
X17580715Y-10879429D02*
X17571191Y-10860381D01*
X17571191Y-10860381D02*
X17552143Y-10850857D01*
X17552143Y-10850857D02*
X17523572Y-10850857D01*
X17523572Y-10850857D02*
X17504524Y-10841333D01*
X17504524Y-10841333D02*
X17495000Y-10822286D01*
X17495000Y-10822286D02*
X17495000Y-10812762D01*
X17495000Y-10812762D02*
X17504524Y-10793714D01*
X17504524Y-10793714D02*
X17523572Y-10784190D01*
X17523572Y-10784190D02*
X17552143Y-10784190D01*
X17552143Y-10784190D02*
X17571191Y-10793714D01*
X17647381Y-10993714D02*
X17656905Y-10984190D01*
X17656905Y-10984190D02*
X17675953Y-10955619D01*
X17675953Y-10955619D02*
X17685477Y-10936571D01*
X17685477Y-10936571D02*
X17695000Y-10908000D01*
X17695000Y-10908000D02*
X17704524Y-10860381D01*
X17704524Y-10860381D02*
X17704524Y-10822286D01*
X17704524Y-10822286D02*
X17695000Y-10774667D01*
X17695000Y-10774667D02*
X17685477Y-10746095D01*
X17685477Y-10746095D02*
X17675953Y-10727048D01*
X17675953Y-10727048D02*
X17656905Y-10698476D01*
X17656905Y-10698476D02*
X17647381Y-10688952D01*
D14*
X12678891Y-11127891D02*
X12678891Y-11050109D01*
X12601109Y-11050109D01*
X12601109Y-11127891D01*
X12678891Y-11127891D01*
D11*
X13047381Y-11181524D02*
X12933095Y-11181524D01*
X12990238Y-11181524D02*
X12990238Y-10981524D01*
X12990238Y-10981524D02*
X12971190Y-11010095D01*
X12971190Y-11010095D02*
X12952143Y-11029143D01*
X12952143Y-11029143D02*
X12933095Y-11038667D01*
X13133095Y-11162476D02*
X13142619Y-11172000D01*
X13142619Y-11172000D02*
X13133095Y-11181524D01*
X13133095Y-11181524D02*
X13123571Y-11172000D01*
X13123571Y-11172000D02*
X13133095Y-11162476D01*
X13133095Y-11162476D02*
X13133095Y-11181524D01*
X13333095Y-11181524D02*
X13218809Y-11181524D01*
X13275952Y-11181524D02*
X13275952Y-10981524D01*
X13275952Y-10981524D02*
X13256905Y-11010095D01*
X13256905Y-11010095D02*
X13237857Y-11029143D01*
X13237857Y-11029143D02*
X13218809Y-11038667D01*
X13456905Y-10981524D02*
X13475952Y-10981524D01*
X13475952Y-10981524D02*
X13495000Y-10991048D01*
X13495000Y-10991048D02*
X13504524Y-11000571D01*
X13504524Y-11000571D02*
X13514048Y-11019619D01*
X13514048Y-11019619D02*
X13523571Y-11057714D01*
X13523571Y-11057714D02*
X13523571Y-11105333D01*
X13523571Y-11105333D02*
X13514048Y-11143429D01*
X13514048Y-11143429D02*
X13504524Y-11162476D01*
X13504524Y-11162476D02*
X13495000Y-11172000D01*
X13495000Y-11172000D02*
X13475952Y-11181524D01*
X13475952Y-11181524D02*
X13456905Y-11181524D01*
X13456905Y-11181524D02*
X13437857Y-11172000D01*
X13437857Y-11172000D02*
X13428333Y-11162476D01*
X13428333Y-11162476D02*
X13418809Y-11143429D01*
X13418809Y-11143429D02*
X13409286Y-11105333D01*
X13409286Y-11105333D02*
X13409286Y-11057714D01*
X13409286Y-11057714D02*
X13418809Y-11019619D01*
X13418809Y-11019619D02*
X13428333Y-11000571D01*
X13428333Y-11000571D02*
X13437857Y-10991048D01*
X13437857Y-10991048D02*
X13456905Y-10981524D01*
X13647381Y-10981524D02*
X13666429Y-10981524D01*
X13666429Y-10981524D02*
X13685476Y-10991048D01*
X13685476Y-10991048D02*
X13695000Y-11000571D01*
X13695000Y-11000571D02*
X13704524Y-11019619D01*
X13704524Y-11019619D02*
X13714048Y-11057714D01*
X13714048Y-11057714D02*
X13714048Y-11105333D01*
X13714048Y-11105333D02*
X13704524Y-11143429D01*
X13704524Y-11143429D02*
X13695000Y-11162476D01*
X13695000Y-11162476D02*
X13685476Y-11172000D01*
X13685476Y-11172000D02*
X13666429Y-11181524D01*
X13666429Y-11181524D02*
X13647381Y-11181524D01*
X13647381Y-11181524D02*
X13628333Y-11172000D01*
X13628333Y-11172000D02*
X13618809Y-11162476D01*
X13618809Y-11162476D02*
X13609286Y-11143429D01*
X13609286Y-11143429D02*
X13599762Y-11105333D01*
X13599762Y-11105333D02*
X13599762Y-11057714D01*
X13599762Y-11057714D02*
X13609286Y-11019619D01*
X13609286Y-11019619D02*
X13618809Y-11000571D01*
X13618809Y-11000571D02*
X13628333Y-10991048D01*
X13628333Y-10991048D02*
X13647381Y-10981524D01*
X13799762Y-11181524D02*
X13799762Y-11048190D01*
X13799762Y-11067238D02*
X13809286Y-11057714D01*
X13809286Y-11057714D02*
X13828333Y-11048190D01*
X13828333Y-11048190D02*
X13856905Y-11048190D01*
X13856905Y-11048190D02*
X13875952Y-11057714D01*
X13875952Y-11057714D02*
X13885476Y-11076762D01*
X13885476Y-11076762D02*
X13885476Y-11181524D01*
X13885476Y-11076762D02*
X13895000Y-11057714D01*
X13895000Y-11057714D02*
X13914048Y-11048190D01*
X13914048Y-11048190D02*
X13942619Y-11048190D01*
X13942619Y-11048190D02*
X13961667Y-11057714D01*
X13961667Y-11057714D02*
X13971190Y-11076762D01*
X13971190Y-11076762D02*
X13971190Y-11181524D01*
X14066429Y-11181524D02*
X14066429Y-11048190D01*
X14066429Y-11067238D02*
X14075952Y-11057714D01*
X14075952Y-11057714D02*
X14095000Y-11048190D01*
X14095000Y-11048190D02*
X14123571Y-11048190D01*
X14123571Y-11048190D02*
X14142619Y-11057714D01*
X14142619Y-11057714D02*
X14152143Y-11076762D01*
X14152143Y-11076762D02*
X14152143Y-11181524D01*
X14152143Y-11076762D02*
X14161667Y-11057714D01*
X14161667Y-11057714D02*
X14180714Y-11048190D01*
X14180714Y-11048190D02*
X14209286Y-11048190D01*
X14209286Y-11048190D02*
X14228333Y-11057714D01*
X14228333Y-11057714D02*
X14237857Y-11076762D01*
X14237857Y-11076762D02*
X14237857Y-11181524D01*
X14628333Y-10972000D02*
X14456905Y-11229143D01*
X14885476Y-10981524D02*
X14904524Y-10981524D01*
X14904524Y-10981524D02*
X14923572Y-10991048D01*
X14923572Y-10991048D02*
X14933095Y-11000571D01*
X14933095Y-11000571D02*
X14942619Y-11019619D01*
X14942619Y-11019619D02*
X14952143Y-11057714D01*
X14952143Y-11057714D02*
X14952143Y-11105333D01*
X14952143Y-11105333D02*
X14942619Y-11143429D01*
X14942619Y-11143429D02*
X14933095Y-11162476D01*
X14933095Y-11162476D02*
X14923572Y-11172000D01*
X14923572Y-11172000D02*
X14904524Y-11181524D01*
X14904524Y-11181524D02*
X14885476Y-11181524D01*
X14885476Y-11181524D02*
X14866429Y-11172000D01*
X14866429Y-11172000D02*
X14856905Y-11162476D01*
X14856905Y-11162476D02*
X14847381Y-11143429D01*
X14847381Y-11143429D02*
X14837857Y-11105333D01*
X14837857Y-11105333D02*
X14837857Y-11057714D01*
X14837857Y-11057714D02*
X14847381Y-11019619D01*
X14847381Y-11019619D02*
X14856905Y-11000571D01*
X14856905Y-11000571D02*
X14866429Y-10991048D01*
X14866429Y-10991048D02*
X14885476Y-10981524D01*
X15037857Y-11162476D02*
X15047381Y-11172000D01*
X15047381Y-11172000D02*
X15037857Y-11181524D01*
X15037857Y-11181524D02*
X15028333Y-11172000D01*
X15028333Y-11172000D02*
X15037857Y-11162476D01*
X15037857Y-11162476D02*
X15037857Y-11181524D01*
X15171191Y-10981524D02*
X15190238Y-10981524D01*
X15190238Y-10981524D02*
X15209286Y-10991048D01*
X15209286Y-10991048D02*
X15218810Y-11000571D01*
X15218810Y-11000571D02*
X15228333Y-11019619D01*
X15228333Y-11019619D02*
X15237857Y-11057714D01*
X15237857Y-11057714D02*
X15237857Y-11105333D01*
X15237857Y-11105333D02*
X15228333Y-11143429D01*
X15228333Y-11143429D02*
X15218810Y-11162476D01*
X15218810Y-11162476D02*
X15209286Y-11172000D01*
X15209286Y-11172000D02*
X15190238Y-11181524D01*
X15190238Y-11181524D02*
X15171191Y-11181524D01*
X15171191Y-11181524D02*
X15152143Y-11172000D01*
X15152143Y-11172000D02*
X15142619Y-11162476D01*
X15142619Y-11162476D02*
X15133095Y-11143429D01*
X15133095Y-11143429D02*
X15123572Y-11105333D01*
X15123572Y-11105333D02*
X15123572Y-11057714D01*
X15123572Y-11057714D02*
X15133095Y-11019619D01*
X15133095Y-11019619D02*
X15142619Y-11000571D01*
X15142619Y-11000571D02*
X15152143Y-10991048D01*
X15152143Y-10991048D02*
X15171191Y-10981524D01*
X15409286Y-11048190D02*
X15409286Y-11181524D01*
X15361667Y-10972000D02*
X15314048Y-11114857D01*
X15314048Y-11114857D02*
X15437857Y-11114857D01*
X15495000Y-10981524D02*
X15618810Y-10981524D01*
X15618810Y-10981524D02*
X15552143Y-11057714D01*
X15552143Y-11057714D02*
X15580714Y-11057714D01*
X15580714Y-11057714D02*
X15599762Y-11067238D01*
X15599762Y-11067238D02*
X15609286Y-11076762D01*
X15609286Y-11076762D02*
X15618810Y-11095810D01*
X15618810Y-11095810D02*
X15618810Y-11143429D01*
X15618810Y-11143429D02*
X15609286Y-11162476D01*
X15609286Y-11162476D02*
X15599762Y-11172000D01*
X15599762Y-11172000D02*
X15580714Y-11181524D01*
X15580714Y-11181524D02*
X15523572Y-11181524D01*
X15523572Y-11181524D02*
X15504524Y-11172000D01*
X15504524Y-11172000D02*
X15495000Y-11162476D01*
X15685476Y-10981524D02*
X15809286Y-10981524D01*
X15809286Y-10981524D02*
X15742619Y-11057714D01*
X15742619Y-11057714D02*
X15771191Y-11057714D01*
X15771191Y-11057714D02*
X15790238Y-11067238D01*
X15790238Y-11067238D02*
X15799762Y-11076762D01*
X15799762Y-11076762D02*
X15809286Y-11095810D01*
X15809286Y-11095810D02*
X15809286Y-11143429D01*
X15809286Y-11143429D02*
X15799762Y-11162476D01*
X15799762Y-11162476D02*
X15790238Y-11172000D01*
X15790238Y-11172000D02*
X15771191Y-11181524D01*
X15771191Y-11181524D02*
X15714048Y-11181524D01*
X15714048Y-11181524D02*
X15695000Y-11172000D01*
X15695000Y-11172000D02*
X15685476Y-11162476D01*
X15885476Y-10981524D02*
X15885476Y-11019619D01*
X15961667Y-10981524D02*
X15961667Y-11019619D01*
X16256905Y-11257714D02*
X16247381Y-11248190D01*
X16247381Y-11248190D02*
X16228334Y-11219619D01*
X16228334Y-11219619D02*
X16218810Y-11200571D01*
X16218810Y-11200571D02*
X16209286Y-11172000D01*
X16209286Y-11172000D02*
X16199762Y-11124381D01*
X16199762Y-11124381D02*
X16199762Y-11086286D01*
X16199762Y-11086286D02*
X16209286Y-11038667D01*
X16209286Y-11038667D02*
X16218810Y-11010095D01*
X16218810Y-11010095D02*
X16228334Y-10991048D01*
X16228334Y-10991048D02*
X16247381Y-10962476D01*
X16247381Y-10962476D02*
X16256905Y-10952952D01*
X16418810Y-10981524D02*
X16380714Y-10981524D01*
X16380714Y-10981524D02*
X16361667Y-10991048D01*
X16361667Y-10991048D02*
X16352143Y-11000571D01*
X16352143Y-11000571D02*
X16333095Y-11029143D01*
X16333095Y-11029143D02*
X16323572Y-11067238D01*
X16323572Y-11067238D02*
X16323572Y-11143429D01*
X16323572Y-11143429D02*
X16333095Y-11162476D01*
X16333095Y-11162476D02*
X16342619Y-11172000D01*
X16342619Y-11172000D02*
X16361667Y-11181524D01*
X16361667Y-11181524D02*
X16399762Y-11181524D01*
X16399762Y-11181524D02*
X16418810Y-11172000D01*
X16418810Y-11172000D02*
X16428334Y-11162476D01*
X16428334Y-11162476D02*
X16437857Y-11143429D01*
X16437857Y-11143429D02*
X16437857Y-11095810D01*
X16437857Y-11095810D02*
X16428334Y-11076762D01*
X16428334Y-11076762D02*
X16418810Y-11067238D01*
X16418810Y-11067238D02*
X16399762Y-11057714D01*
X16399762Y-11057714D02*
X16361667Y-11057714D01*
X16361667Y-11057714D02*
X16342619Y-11067238D01*
X16342619Y-11067238D02*
X16333095Y-11076762D01*
X16333095Y-11076762D02*
X16323572Y-11095810D01*
X16514048Y-11000571D02*
X16523572Y-10991048D01*
X16523572Y-10991048D02*
X16542619Y-10981524D01*
X16542619Y-10981524D02*
X16590238Y-10981524D01*
X16590238Y-10981524D02*
X16609286Y-10991048D01*
X16609286Y-10991048D02*
X16618810Y-11000571D01*
X16618810Y-11000571D02*
X16628334Y-11019619D01*
X16628334Y-11019619D02*
X16628334Y-11038667D01*
X16628334Y-11038667D02*
X16618810Y-11067238D01*
X16618810Y-11067238D02*
X16504524Y-11181524D01*
X16504524Y-11181524D02*
X16628334Y-11181524D01*
X16866429Y-11181524D02*
X16866429Y-10981524D01*
X16952143Y-11181524D02*
X16952143Y-11076762D01*
X16952143Y-11076762D02*
X16942619Y-11057714D01*
X16942619Y-11057714D02*
X16923572Y-11048190D01*
X16923572Y-11048190D02*
X16895000Y-11048190D01*
X16895000Y-11048190D02*
X16875953Y-11057714D01*
X16875953Y-11057714D02*
X16866429Y-11067238D01*
X17075953Y-11181524D02*
X17056905Y-11172000D01*
X17056905Y-11172000D02*
X17047381Y-11162476D01*
X17047381Y-11162476D02*
X17037858Y-11143429D01*
X17037858Y-11143429D02*
X17037858Y-11086286D01*
X17037858Y-11086286D02*
X17047381Y-11067238D01*
X17047381Y-11067238D02*
X17056905Y-11057714D01*
X17056905Y-11057714D02*
X17075953Y-11048190D01*
X17075953Y-11048190D02*
X17104524Y-11048190D01*
X17104524Y-11048190D02*
X17123572Y-11057714D01*
X17123572Y-11057714D02*
X17133096Y-11067238D01*
X17133096Y-11067238D02*
X17142619Y-11086286D01*
X17142619Y-11086286D02*
X17142619Y-11143429D01*
X17142619Y-11143429D02*
X17133096Y-11162476D01*
X17133096Y-11162476D02*
X17123572Y-11172000D01*
X17123572Y-11172000D02*
X17104524Y-11181524D01*
X17104524Y-11181524D02*
X17075953Y-11181524D01*
X17256905Y-11181524D02*
X17237858Y-11172000D01*
X17237858Y-11172000D02*
X17228334Y-11152952D01*
X17228334Y-11152952D02*
X17228334Y-10981524D01*
X17409286Y-11172000D02*
X17390239Y-11181524D01*
X17390239Y-11181524D02*
X17352143Y-11181524D01*
X17352143Y-11181524D02*
X17333096Y-11172000D01*
X17333096Y-11172000D02*
X17323572Y-11152952D01*
X17323572Y-11152952D02*
X17323572Y-11076762D01*
X17323572Y-11076762D02*
X17333096Y-11057714D01*
X17333096Y-11057714D02*
X17352143Y-11048190D01*
X17352143Y-11048190D02*
X17390239Y-11048190D01*
X17390239Y-11048190D02*
X17409286Y-11057714D01*
X17409286Y-11057714D02*
X17418810Y-11076762D01*
X17418810Y-11076762D02*
X17418810Y-11095810D01*
X17418810Y-11095810D02*
X17323572Y-11114857D01*
X17495000Y-11172000D02*
X17514048Y-11181524D01*
X17514048Y-11181524D02*
X17552143Y-11181524D01*
X17552143Y-11181524D02*
X17571191Y-11172000D01*
X17571191Y-11172000D02*
X17580715Y-11152952D01*
X17580715Y-11152952D02*
X17580715Y-11143429D01*
X17580715Y-11143429D02*
X17571191Y-11124381D01*
X17571191Y-11124381D02*
X17552143Y-11114857D01*
X17552143Y-11114857D02*
X17523572Y-11114857D01*
X17523572Y-11114857D02*
X17504524Y-11105333D01*
X17504524Y-11105333D02*
X17495000Y-11086286D01*
X17495000Y-11086286D02*
X17495000Y-11076762D01*
X17495000Y-11076762D02*
X17504524Y-11057714D01*
X17504524Y-11057714D02*
X17523572Y-11048190D01*
X17523572Y-11048190D02*
X17552143Y-11048190D01*
X17552143Y-11048190D02*
X17571191Y-11057714D01*
X17647381Y-11257714D02*
X17656905Y-11248190D01*
X17656905Y-11248190D02*
X17675953Y-11219619D01*
X17675953Y-11219619D02*
X17685477Y-11200571D01*
X17685477Y-11200571D02*
X17695000Y-11172000D01*
X17695000Y-11172000D02*
X17704524Y-11124381D01*
X17704524Y-11124381D02*
X17704524Y-11086286D01*
X17704524Y-11086286D02*
X17695000Y-11038667D01*
X17695000Y-11038667D02*
X17685477Y-11010095D01*
X17685477Y-11010095D02*
X17675953Y-10991048D01*
X17675953Y-10991048D02*
X17656905Y-10962476D01*
X17656905Y-10962476D02*
X17647381Y-10952952D01*
D15*
X12615000Y-11433000D02*
X12695000Y-11353000D01*
X12615000Y-11273000D01*
X12535000Y-11353000D01*
X12615000Y-11433000D01*
D11*
X13047381Y-11445524D02*
X12933095Y-11445524D01*
X12990238Y-11445524D02*
X12990238Y-11245524D01*
X12990238Y-11245524D02*
X12971190Y-11274095D01*
X12971190Y-11274095D02*
X12952143Y-11293143D01*
X12952143Y-11293143D02*
X12933095Y-11302667D01*
X13133095Y-11426476D02*
X13142619Y-11436000D01*
X13142619Y-11436000D02*
X13133095Y-11445524D01*
X13133095Y-11445524D02*
X13123571Y-11436000D01*
X13123571Y-11436000D02*
X13133095Y-11426476D01*
X13133095Y-11426476D02*
X13133095Y-11445524D01*
X13314048Y-11245524D02*
X13275952Y-11245524D01*
X13275952Y-11245524D02*
X13256905Y-11255048D01*
X13256905Y-11255048D02*
X13247381Y-11264571D01*
X13247381Y-11264571D02*
X13228333Y-11293143D01*
X13228333Y-11293143D02*
X13218809Y-11331238D01*
X13218809Y-11331238D02*
X13218809Y-11407428D01*
X13218809Y-11407428D02*
X13228333Y-11426476D01*
X13228333Y-11426476D02*
X13237857Y-11436000D01*
X13237857Y-11436000D02*
X13256905Y-11445524D01*
X13256905Y-11445524D02*
X13295000Y-11445524D01*
X13295000Y-11445524D02*
X13314048Y-11436000D01*
X13314048Y-11436000D02*
X13323571Y-11426476D01*
X13323571Y-11426476D02*
X13333095Y-11407428D01*
X13333095Y-11407428D02*
X13333095Y-11359809D01*
X13333095Y-11359809D02*
X13323571Y-11340762D01*
X13323571Y-11340762D02*
X13314048Y-11331238D01*
X13314048Y-11331238D02*
X13295000Y-11321714D01*
X13295000Y-11321714D02*
X13256905Y-11321714D01*
X13256905Y-11321714D02*
X13237857Y-11331238D01*
X13237857Y-11331238D02*
X13228333Y-11340762D01*
X13228333Y-11340762D02*
X13218809Y-11359809D01*
X13456905Y-11245524D02*
X13475952Y-11245524D01*
X13475952Y-11245524D02*
X13495000Y-11255048D01*
X13495000Y-11255048D02*
X13504524Y-11264571D01*
X13504524Y-11264571D02*
X13514048Y-11283619D01*
X13514048Y-11283619D02*
X13523571Y-11321714D01*
X13523571Y-11321714D02*
X13523571Y-11369333D01*
X13523571Y-11369333D02*
X13514048Y-11407428D01*
X13514048Y-11407428D02*
X13504524Y-11426476D01*
X13504524Y-11426476D02*
X13495000Y-11436000D01*
X13495000Y-11436000D02*
X13475952Y-11445524D01*
X13475952Y-11445524D02*
X13456905Y-11445524D01*
X13456905Y-11445524D02*
X13437857Y-11436000D01*
X13437857Y-11436000D02*
X13428333Y-11426476D01*
X13428333Y-11426476D02*
X13418809Y-11407428D01*
X13418809Y-11407428D02*
X13409286Y-11369333D01*
X13409286Y-11369333D02*
X13409286Y-11321714D01*
X13409286Y-11321714D02*
X13418809Y-11283619D01*
X13418809Y-11283619D02*
X13428333Y-11264571D01*
X13428333Y-11264571D02*
X13437857Y-11255048D01*
X13437857Y-11255048D02*
X13456905Y-11245524D01*
X13647381Y-11245524D02*
X13666429Y-11245524D01*
X13666429Y-11245524D02*
X13685476Y-11255048D01*
X13685476Y-11255048D02*
X13695000Y-11264571D01*
X13695000Y-11264571D02*
X13704524Y-11283619D01*
X13704524Y-11283619D02*
X13714048Y-11321714D01*
X13714048Y-11321714D02*
X13714048Y-11369333D01*
X13714048Y-11369333D02*
X13704524Y-11407428D01*
X13704524Y-11407428D02*
X13695000Y-11426476D01*
X13695000Y-11426476D02*
X13685476Y-11436000D01*
X13685476Y-11436000D02*
X13666429Y-11445524D01*
X13666429Y-11445524D02*
X13647381Y-11445524D01*
X13647381Y-11445524D02*
X13628333Y-11436000D01*
X13628333Y-11436000D02*
X13618809Y-11426476D01*
X13618809Y-11426476D02*
X13609286Y-11407428D01*
X13609286Y-11407428D02*
X13599762Y-11369333D01*
X13599762Y-11369333D02*
X13599762Y-11321714D01*
X13599762Y-11321714D02*
X13609286Y-11283619D01*
X13609286Y-11283619D02*
X13618809Y-11264571D01*
X13618809Y-11264571D02*
X13628333Y-11255048D01*
X13628333Y-11255048D02*
X13647381Y-11245524D01*
X13799762Y-11445524D02*
X13799762Y-11312190D01*
X13799762Y-11331238D02*
X13809286Y-11321714D01*
X13809286Y-11321714D02*
X13828333Y-11312190D01*
X13828333Y-11312190D02*
X13856905Y-11312190D01*
X13856905Y-11312190D02*
X13875952Y-11321714D01*
X13875952Y-11321714D02*
X13885476Y-11340762D01*
X13885476Y-11340762D02*
X13885476Y-11445524D01*
X13885476Y-11340762D02*
X13895000Y-11321714D01*
X13895000Y-11321714D02*
X13914048Y-11312190D01*
X13914048Y-11312190D02*
X13942619Y-11312190D01*
X13942619Y-11312190D02*
X13961667Y-11321714D01*
X13961667Y-11321714D02*
X13971190Y-11340762D01*
X13971190Y-11340762D02*
X13971190Y-11445524D01*
X14066429Y-11445524D02*
X14066429Y-11312190D01*
X14066429Y-11331238D02*
X14075952Y-11321714D01*
X14075952Y-11321714D02*
X14095000Y-11312190D01*
X14095000Y-11312190D02*
X14123571Y-11312190D01*
X14123571Y-11312190D02*
X14142619Y-11321714D01*
X14142619Y-11321714D02*
X14152143Y-11340762D01*
X14152143Y-11340762D02*
X14152143Y-11445524D01*
X14152143Y-11340762D02*
X14161667Y-11321714D01*
X14161667Y-11321714D02*
X14180714Y-11312190D01*
X14180714Y-11312190D02*
X14209286Y-11312190D01*
X14209286Y-11312190D02*
X14228333Y-11321714D01*
X14228333Y-11321714D02*
X14237857Y-11340762D01*
X14237857Y-11340762D02*
X14237857Y-11445524D01*
X14628333Y-11236000D02*
X14456905Y-11493143D01*
X14885476Y-11245524D02*
X14904524Y-11245524D01*
X14904524Y-11245524D02*
X14923572Y-11255048D01*
X14923572Y-11255048D02*
X14933095Y-11264571D01*
X14933095Y-11264571D02*
X14942619Y-11283619D01*
X14942619Y-11283619D02*
X14952143Y-11321714D01*
X14952143Y-11321714D02*
X14952143Y-11369333D01*
X14952143Y-11369333D02*
X14942619Y-11407428D01*
X14942619Y-11407428D02*
X14933095Y-11426476D01*
X14933095Y-11426476D02*
X14923572Y-11436000D01*
X14923572Y-11436000D02*
X14904524Y-11445524D01*
X14904524Y-11445524D02*
X14885476Y-11445524D01*
X14885476Y-11445524D02*
X14866429Y-11436000D01*
X14866429Y-11436000D02*
X14856905Y-11426476D01*
X14856905Y-11426476D02*
X14847381Y-11407428D01*
X14847381Y-11407428D02*
X14837857Y-11369333D01*
X14837857Y-11369333D02*
X14837857Y-11321714D01*
X14837857Y-11321714D02*
X14847381Y-11283619D01*
X14847381Y-11283619D02*
X14856905Y-11264571D01*
X14856905Y-11264571D02*
X14866429Y-11255048D01*
X14866429Y-11255048D02*
X14885476Y-11245524D01*
X15037857Y-11426476D02*
X15047381Y-11436000D01*
X15047381Y-11436000D02*
X15037857Y-11445524D01*
X15037857Y-11445524D02*
X15028333Y-11436000D01*
X15028333Y-11436000D02*
X15037857Y-11426476D01*
X15037857Y-11426476D02*
X15037857Y-11445524D01*
X15171191Y-11245524D02*
X15190238Y-11245524D01*
X15190238Y-11245524D02*
X15209286Y-11255048D01*
X15209286Y-11255048D02*
X15218810Y-11264571D01*
X15218810Y-11264571D02*
X15228333Y-11283619D01*
X15228333Y-11283619D02*
X15237857Y-11321714D01*
X15237857Y-11321714D02*
X15237857Y-11369333D01*
X15237857Y-11369333D02*
X15228333Y-11407428D01*
X15228333Y-11407428D02*
X15218810Y-11426476D01*
X15218810Y-11426476D02*
X15209286Y-11436000D01*
X15209286Y-11436000D02*
X15190238Y-11445524D01*
X15190238Y-11445524D02*
X15171191Y-11445524D01*
X15171191Y-11445524D02*
X15152143Y-11436000D01*
X15152143Y-11436000D02*
X15142619Y-11426476D01*
X15142619Y-11426476D02*
X15133095Y-11407428D01*
X15133095Y-11407428D02*
X15123572Y-11369333D01*
X15123572Y-11369333D02*
X15123572Y-11321714D01*
X15123572Y-11321714D02*
X15133095Y-11283619D01*
X15133095Y-11283619D02*
X15142619Y-11264571D01*
X15142619Y-11264571D02*
X15152143Y-11255048D01*
X15152143Y-11255048D02*
X15171191Y-11245524D01*
X15409286Y-11245524D02*
X15371191Y-11245524D01*
X15371191Y-11245524D02*
X15352143Y-11255048D01*
X15352143Y-11255048D02*
X15342619Y-11264571D01*
X15342619Y-11264571D02*
X15323572Y-11293143D01*
X15323572Y-11293143D02*
X15314048Y-11331238D01*
X15314048Y-11331238D02*
X15314048Y-11407428D01*
X15314048Y-11407428D02*
X15323572Y-11426476D01*
X15323572Y-11426476D02*
X15333095Y-11436000D01*
X15333095Y-11436000D02*
X15352143Y-11445524D01*
X15352143Y-11445524D02*
X15390238Y-11445524D01*
X15390238Y-11445524D02*
X15409286Y-11436000D01*
X15409286Y-11436000D02*
X15418810Y-11426476D01*
X15418810Y-11426476D02*
X15428333Y-11407428D01*
X15428333Y-11407428D02*
X15428333Y-11359809D01*
X15428333Y-11359809D02*
X15418810Y-11340762D01*
X15418810Y-11340762D02*
X15409286Y-11331238D01*
X15409286Y-11331238D02*
X15390238Y-11321714D01*
X15390238Y-11321714D02*
X15352143Y-11321714D01*
X15352143Y-11321714D02*
X15333095Y-11331238D01*
X15333095Y-11331238D02*
X15323572Y-11340762D01*
X15323572Y-11340762D02*
X15314048Y-11359809D01*
X15495000Y-11245524D02*
X15618810Y-11245524D01*
X15618810Y-11245524D02*
X15552143Y-11321714D01*
X15552143Y-11321714D02*
X15580714Y-11321714D01*
X15580714Y-11321714D02*
X15599762Y-11331238D01*
X15599762Y-11331238D02*
X15609286Y-11340762D01*
X15609286Y-11340762D02*
X15618810Y-11359809D01*
X15618810Y-11359809D02*
X15618810Y-11407428D01*
X15618810Y-11407428D02*
X15609286Y-11426476D01*
X15609286Y-11426476D02*
X15599762Y-11436000D01*
X15599762Y-11436000D02*
X15580714Y-11445524D01*
X15580714Y-11445524D02*
X15523572Y-11445524D01*
X15523572Y-11445524D02*
X15504524Y-11436000D01*
X15504524Y-11436000D02*
X15495000Y-11426476D01*
X15742619Y-11245524D02*
X15761667Y-11245524D01*
X15761667Y-11245524D02*
X15780714Y-11255048D01*
X15780714Y-11255048D02*
X15790238Y-11264571D01*
X15790238Y-11264571D02*
X15799762Y-11283619D01*
X15799762Y-11283619D02*
X15809286Y-11321714D01*
X15809286Y-11321714D02*
X15809286Y-11369333D01*
X15809286Y-11369333D02*
X15799762Y-11407428D01*
X15799762Y-11407428D02*
X15790238Y-11426476D01*
X15790238Y-11426476D02*
X15780714Y-11436000D01*
X15780714Y-11436000D02*
X15761667Y-11445524D01*
X15761667Y-11445524D02*
X15742619Y-11445524D01*
X15742619Y-11445524D02*
X15723572Y-11436000D01*
X15723572Y-11436000D02*
X15714048Y-11426476D01*
X15714048Y-11426476D02*
X15704524Y-11407428D01*
X15704524Y-11407428D02*
X15695000Y-11369333D01*
X15695000Y-11369333D02*
X15695000Y-11321714D01*
X15695000Y-11321714D02*
X15704524Y-11283619D01*
X15704524Y-11283619D02*
X15714048Y-11264571D01*
X15714048Y-11264571D02*
X15723572Y-11255048D01*
X15723572Y-11255048D02*
X15742619Y-11245524D01*
X15885476Y-11245524D02*
X15885476Y-11283619D01*
X15961667Y-11245524D02*
X15961667Y-11283619D01*
X16256905Y-11521714D02*
X16247381Y-11512190D01*
X16247381Y-11512190D02*
X16228334Y-11483619D01*
X16228334Y-11483619D02*
X16218810Y-11464571D01*
X16218810Y-11464571D02*
X16209286Y-11436000D01*
X16209286Y-11436000D02*
X16199762Y-11388381D01*
X16199762Y-11388381D02*
X16199762Y-11350286D01*
X16199762Y-11350286D02*
X16209286Y-11302667D01*
X16209286Y-11302667D02*
X16218810Y-11274095D01*
X16218810Y-11274095D02*
X16228334Y-11255048D01*
X16228334Y-11255048D02*
X16247381Y-11226476D01*
X16247381Y-11226476D02*
X16256905Y-11216952D01*
X16323572Y-11264571D02*
X16333095Y-11255048D01*
X16333095Y-11255048D02*
X16352143Y-11245524D01*
X16352143Y-11245524D02*
X16399762Y-11245524D01*
X16399762Y-11245524D02*
X16418810Y-11255048D01*
X16418810Y-11255048D02*
X16428334Y-11264571D01*
X16428334Y-11264571D02*
X16437857Y-11283619D01*
X16437857Y-11283619D02*
X16437857Y-11302667D01*
X16437857Y-11302667D02*
X16428334Y-11331238D01*
X16428334Y-11331238D02*
X16314048Y-11445524D01*
X16314048Y-11445524D02*
X16437857Y-11445524D01*
X16675953Y-11445524D02*
X16675953Y-11245524D01*
X16761667Y-11445524D02*
X16761667Y-11340762D01*
X16761667Y-11340762D02*
X16752143Y-11321714D01*
X16752143Y-11321714D02*
X16733096Y-11312190D01*
X16733096Y-11312190D02*
X16704524Y-11312190D01*
X16704524Y-11312190D02*
X16685476Y-11321714D01*
X16685476Y-11321714D02*
X16675953Y-11331238D01*
X16885477Y-11445524D02*
X16866429Y-11436000D01*
X16866429Y-11436000D02*
X16856905Y-11426476D01*
X16856905Y-11426476D02*
X16847381Y-11407428D01*
X16847381Y-11407428D02*
X16847381Y-11350286D01*
X16847381Y-11350286D02*
X16856905Y-11331238D01*
X16856905Y-11331238D02*
X16866429Y-11321714D01*
X16866429Y-11321714D02*
X16885477Y-11312190D01*
X16885477Y-11312190D02*
X16914048Y-11312190D01*
X16914048Y-11312190D02*
X16933096Y-11321714D01*
X16933096Y-11321714D02*
X16942619Y-11331238D01*
X16942619Y-11331238D02*
X16952143Y-11350286D01*
X16952143Y-11350286D02*
X16952143Y-11407428D01*
X16952143Y-11407428D02*
X16942619Y-11426476D01*
X16942619Y-11426476D02*
X16933096Y-11436000D01*
X16933096Y-11436000D02*
X16914048Y-11445524D01*
X16914048Y-11445524D02*
X16885477Y-11445524D01*
X17066429Y-11445524D02*
X17047381Y-11436000D01*
X17047381Y-11436000D02*
X17037858Y-11416952D01*
X17037858Y-11416952D02*
X17037858Y-11245524D01*
X17218810Y-11436000D02*
X17199762Y-11445524D01*
X17199762Y-11445524D02*
X17161667Y-11445524D01*
X17161667Y-11445524D02*
X17142619Y-11436000D01*
X17142619Y-11436000D02*
X17133096Y-11416952D01*
X17133096Y-11416952D02*
X17133096Y-11340762D01*
X17133096Y-11340762D02*
X17142619Y-11321714D01*
X17142619Y-11321714D02*
X17161667Y-11312190D01*
X17161667Y-11312190D02*
X17199762Y-11312190D01*
X17199762Y-11312190D02*
X17218810Y-11321714D01*
X17218810Y-11321714D02*
X17228334Y-11340762D01*
X17228334Y-11340762D02*
X17228334Y-11359809D01*
X17228334Y-11359809D02*
X17133096Y-11378857D01*
X17304524Y-11436000D02*
X17323572Y-11445524D01*
X17323572Y-11445524D02*
X17361667Y-11445524D01*
X17361667Y-11445524D02*
X17380715Y-11436000D01*
X17380715Y-11436000D02*
X17390239Y-11416952D01*
X17390239Y-11416952D02*
X17390239Y-11407428D01*
X17390239Y-11407428D02*
X17380715Y-11388381D01*
X17380715Y-11388381D02*
X17361667Y-11378857D01*
X17361667Y-11378857D02*
X17333096Y-11378857D01*
X17333096Y-11378857D02*
X17314048Y-11369333D01*
X17314048Y-11369333D02*
X17304524Y-11350286D01*
X17304524Y-11350286D02*
X17304524Y-11340762D01*
X17304524Y-11340762D02*
X17314048Y-11321714D01*
X17314048Y-11321714D02*
X17333096Y-11312190D01*
X17333096Y-11312190D02*
X17361667Y-11312190D01*
X17361667Y-11312190D02*
X17380715Y-11321714D01*
X17456905Y-11521714D02*
X17466429Y-11512190D01*
X17466429Y-11512190D02*
X17485477Y-11483619D01*
X17485477Y-11483619D02*
X17495000Y-11464571D01*
X17495000Y-11464571D02*
X17504524Y-11436000D01*
X17504524Y-11436000D02*
X17514048Y-11388381D01*
X17514048Y-11388381D02*
X17514048Y-11350286D01*
X17514048Y-11350286D02*
X17504524Y-11302667D01*
X17504524Y-11302667D02*
X17495000Y-11274095D01*
X17495000Y-11274095D02*
X17485477Y-11255048D01*
X17485477Y-11255048D02*
X17466429Y-11226476D01*
X17466429Y-11226476D02*
X17456905Y-11216952D01*
M02*
