%TF.GenerationSoftware,KiCad,Pcbnew,7.0.2-0*%
%TF.CreationDate,2023-11-12T18:20:12-05:00*%
%TF.ProjectId,Mux Module CD74HCT4067M,4d757820-4d6f-4647-956c-652043443734,rev?*%
%TF.SameCoordinates,Original*%
%TF.FileFunction,Copper,L2,Bot*%
%TF.FilePolarity,Positive*%
%FSLAX46Y46*%
G04 Gerber Fmt 4.6, Leading zero omitted, Abs format (unit mm)*
G04 Created by KiCad (PCBNEW 7.0.2-0) date 2023-11-12 18:20:12*
%MOMM*%
%LPD*%
G01*
G04 APERTURE LIST*
%TA.AperFunction,ComponentPad*%
%ADD10C,1.600000*%
%TD*%
%TA.AperFunction,ComponentPad*%
%ADD11R,1.600000X1.600000*%
%TD*%
%TA.AperFunction,ComponentPad*%
%ADD12R,1.300000X1.300000*%
%TD*%
%TA.AperFunction,ComponentPad*%
%ADD13C,1.300000*%
%TD*%
%TA.AperFunction,ComponentPad*%
%ADD14C,1.676400*%
%TD*%
%TA.AperFunction,ComponentPad*%
%ADD15R,2.800000X2.800000*%
%TD*%
%TA.AperFunction,ComponentPad*%
%ADD16R,1.700000X1.700000*%
%TD*%
%TA.AperFunction,ComponentPad*%
%ADD17O,1.700000X1.700000*%
%TD*%
%TA.AperFunction,ViaPad*%
%ADD18C,0.800000*%
%TD*%
%TA.AperFunction,Conductor*%
%ADD19C,0.250000*%
%TD*%
G04 APERTURE END LIST*
D10*
%TO.P,U1,49,VUSB*%
%TO.N,unconnected-(U1-VUSB-Pad49)*%
X154940000Y-29210000D03*
%TO.P,U1,59,GND*%
%TO.N,unconnected-(U1-GND-Pad59)*%
X145290800Y-43129200D03*
%TO.P,U1,58,GND*%
%TO.N,unconnected-(U1-GND-Pad58)*%
X145290800Y-40589200D03*
%TO.P,U1,57,D+*%
%TO.N,unconnected-(U1-D+-Pad57)*%
X145290800Y-38049200D03*
%TO.P,U1,56,D-*%
%TO.N,unconnected-(U1-D--Pad56)*%
X145290800Y-35509200D03*
D11*
%TO.P,U1,55,5V*%
%TO.N,unconnected-(U1-5V-Pad55)*%
X145290800Y-32969200D03*
D10*
%TO.P,U1,48,VIN*%
%TO.N,unconnected-(U1-VIN-Pad48)*%
X157480000Y-26670000D03*
%TO.P,U1,47,GND*%
%TO.N,GND*%
X157480000Y-29210000D03*
%TO.P,U1,46,3V3*%
%TO.N,+3.3V*%
X157480000Y-31750000D03*
%TO.P,U1,45,23_A9_CRX1_MCLK1*%
%TO.N,unconnected-(U1-23_A9_CRX1_MCLK1-Pad45)*%
X157480000Y-34290000D03*
%TO.P,U1,44,22_A8_CTX1*%
%TO.N,unconnected-(U1-22_A8_CTX1-Pad44)*%
X157480000Y-36830000D03*
%TO.P,U1,43,21_A7_RX5_BCLK1*%
%TO.N,unconnected-(U1-21_A7_RX5_BCLK1-Pad43)*%
X157480000Y-39370000D03*
%TO.P,U1,42,20_A6_TX5_LRCLK1*%
%TO.N,unconnected-(U1-20_A6_TX5_LRCLK1-Pad42)*%
X157480000Y-41910000D03*
%TO.P,U1,41,19_A5_SCL*%
%TO.N,unconnected-(U1-19_A5_SCL-Pad41)*%
X157480000Y-44450000D03*
%TO.P,U1,40,18_A4_SDA*%
%TO.N,unconnected-(U1-18_A4_SDA-Pad40)*%
X157480000Y-46990000D03*
%TO.P,U1,39,17_A3_TX4_SDA1*%
%TO.N,unconnected-(U1-17_A3_TX4_SDA1-Pad39)*%
X157480000Y-49530000D03*
%TO.P,U1,38,16_A2_RX4_SCL1*%
%TO.N,unconnected-(U1-16_A2_RX4_SCL1-Pad38)*%
X157480000Y-52070000D03*
%TO.P,U1,37,15_A1_RX3_SPDIF_IN*%
%TO.N,unconnected-(U1-15_A1_RX3_SPDIF_IN-Pad37)*%
X157480000Y-54610000D03*
%TO.P,U1,36,14_A0_TX3_SPDIF_OUT*%
%TO.N,Common I{slash}O*%
X157480000Y-57150000D03*
%TO.P,U1,35,13_SCK_LED*%
%TO.N,unconnected-(U1-13_SCK_LED-Pad35)*%
X157480000Y-59690000D03*
D11*
%TO.P,U1,1,GND*%
%TO.N,GND*%
X142240000Y-26670000D03*
D10*
%TO.P,U1,2,0_RX1_CRX2_CS1*%
%TO.N,S0*%
X142240000Y-29210000D03*
%TO.P,U1,3,1_TX1_CTX2_MISO1*%
%TO.N,S1*%
X142240000Y-31750000D03*
%TO.P,U1,4,2_OUT2*%
%TO.N,S2*%
X142240000Y-34290000D03*
%TO.P,U1,5,3_LRCLK2*%
%TO.N,S3*%
X142240000Y-36830000D03*
%TO.P,U1,6,4_BCLK2*%
%TO.N,unconnected-(U1-4_BCLK2-Pad6)*%
X142240000Y-39370000D03*
%TO.P,U1,7,5_IN2*%
%TO.N,unconnected-(U1-5_IN2-Pad7)*%
X142240000Y-41910000D03*
%TO.P,U1,8,6_OUT1D*%
%TO.N,unconnected-(U1-6_OUT1D-Pad8)*%
X142240000Y-44450000D03*
%TO.P,U1,9,7_RX2_OUT1A*%
%TO.N,unconnected-(U1-7_RX2_OUT1A-Pad9)*%
X142240000Y-46990000D03*
%TO.P,U1,10,8_TX2_IN1*%
%TO.N,unconnected-(U1-8_TX2_IN1-Pad10)*%
X142240000Y-49530000D03*
%TO.P,U1,11,9_OUT1C*%
%TO.N,unconnected-(U1-9_OUT1C-Pad11)*%
X142240000Y-52070000D03*
%TO.P,U1,12,10_CS_MQSR*%
%TO.N,unconnected-(U1-10_CS_MQSR-Pad12)*%
X142240000Y-54610000D03*
%TO.P,U1,13,11_MOSI_CTX1*%
%TO.N,unconnected-(U1-11_MOSI_CTX1-Pad13)*%
X142240000Y-57150000D03*
%TO.P,U1,34,GND*%
%TO.N,GND*%
X157480000Y-62230000D03*
%TO.P,U1,33,41_A17*%
%TO.N,unconnected-(U1-41_A17-Pad33)*%
X157480000Y-64770000D03*
%TO.P,U1,32,40_A16*%
%TO.N,unconnected-(U1-40_A16-Pad32)*%
X157480000Y-67310000D03*
%TO.P,U1,31,39_MISO1_OUT1A*%
%TO.N,unconnected-(U1-39_MISO1_OUT1A-Pad31)*%
X157480000Y-69850000D03*
%TO.P,U1,30,38_CS1_IN1*%
%TO.N,unconnected-(U1-38_CS1_IN1-Pad30)*%
X157480000Y-72390000D03*
%TO.P,U1,29,37_CS*%
%TO.N,unconnected-(U1-37_CS-Pad29)*%
X157480000Y-74930000D03*
%TO.P,U1,28,36_CS*%
%TO.N,unconnected-(U1-36_CS-Pad28)*%
X157480000Y-77470000D03*
%TO.P,U1,27,35_TX8*%
%TO.N,unconnected-(U1-35_TX8-Pad27)*%
X157480000Y-80010000D03*
%TO.P,U1,26,34_RX8*%
%TO.N,unconnected-(U1-34_RX8-Pad26)*%
X157480000Y-82550000D03*
%TO.P,U1,25,33_MCLK2*%
%TO.N,unconnected-(U1-33_MCLK2-Pad25)*%
X157480000Y-85090000D03*
%TO.P,U1,24,32_OUT1B*%
%TO.N,unconnected-(U1-32_OUT1B-Pad24)*%
X142240000Y-85090000D03*
%TO.P,U1,23,31_CTX3*%
%TO.N,unconnected-(U1-31_CTX3-Pad23)*%
X142240000Y-82550000D03*
%TO.P,U1,22,30_CRX3*%
%TO.N,unconnected-(U1-30_CRX3-Pad22)*%
X142240000Y-80010000D03*
%TO.P,U1,21,29_TX7*%
%TO.N,unconnected-(U1-29_TX7-Pad21)*%
X142240000Y-77470000D03*
%TO.P,U1,14,12_MISO_MQSL*%
%TO.N,unconnected-(U1-12_MISO_MQSL-Pad14)*%
X142240000Y-59690000D03*
%TO.P,U1,15,3V3*%
%TO.N,+3.3V*%
X142240000Y-62230000D03*
%TO.P,U1,16,24_A10_TX6_SCL2*%
%TO.N,unconnected-(U1-24_A10_TX6_SCL2-Pad16)*%
X142240000Y-64770000D03*
%TO.P,U1,20,28_RX7*%
%TO.N,unconnected-(U1-28_RX7-Pad20)*%
X142240000Y-74930000D03*
%TO.P,U1,19,27_A13_SCK1*%
%TO.N,unconnected-(U1-27_A13_SCK1-Pad19)*%
X142240000Y-72390000D03*
%TO.P,U1,18,26_A12_MOSI1*%
%TO.N,unconnected-(U1-26_A12_MOSI1-Pad18)*%
X142240000Y-69850000D03*
%TO.P,U1,17,25_A11_RX6_SDA2*%
%TO.N,unconnected-(U1-25_A11_RX6_SDA2-Pad17)*%
X142240000Y-67310000D03*
D12*
%TO.P,U1,60,R+*%
%TO.N,unconnected-(U1-R+-Pad60)*%
X155041600Y-39640000D03*
D13*
%TO.P,U1,65,R-*%
%TO.N,unconnected-(U1-R--Pad65)*%
X155041600Y-41640000D03*
%TO.P,U1,61,LED*%
%TO.N,unconnected-(U1-LED-Pad61)*%
X153041600Y-39640000D03*
%TO.P,U1,64,GND*%
%TO.N,unconnected-(U1-GND-Pad64)*%
X153041600Y-41640000D03*
%TO.P,U1,63,T+*%
%TO.N,unconnected-(U1-T+-Pad63)*%
X151041600Y-41640000D03*
%TO.P,U1,62,T-*%
%TO.N,unconnected-(U1-T--Pad62)*%
X151041600Y-39640000D03*
D10*
%TO.P,U1,50,VBAT*%
%TO.N,unconnected-(U1-VBAT-Pad50)*%
X144780000Y-72390000D03*
%TO.P,U1,51,3V3*%
%TO.N,unconnected-(U1-3V3-Pad51)*%
X147320000Y-72390000D03*
%TO.P,U1,52,GND*%
%TO.N,unconnected-(U1-GND-Pad52)*%
X149860000Y-72390000D03*
%TO.P,U1,53,PROGRAM*%
%TO.N,unconnected-(U1-PROGRAM-Pad53)*%
X152400000Y-72390000D03*
%TO.P,U1,54,ON_OFF*%
%TO.N,unconnected-(U1-ON_OFF-Pad54)*%
X154940000Y-72390000D03*
D13*
%TO.P,U1,67,D+*%
%TO.N,unconnected-(U1-D+-Pad67)*%
X148590000Y-27400000D03*
%TO.P,U1,66,D-*%
%TO.N,unconnected-(U1-D--Pad66)*%
X151130000Y-27400000D03*
%TD*%
D14*
%TO.P,R1,1,A*%
%TO.N,GND*%
X131277400Y-59932400D03*
%TO.P,R1,2,S*%
%TO.N,Net-(J2-Pin_17)*%
X133777400Y-59932400D03*
%TO.P,R1,3,E*%
%TO.N,+3.3V*%
X136277400Y-59932400D03*
D15*
%TO.P,R1,M1*%
%TO.N,N/C*%
X138277400Y-52932400D03*
%TO.P,R1,M2*%
X129277400Y-52932400D03*
%TD*%
D16*
%TO.P,J2,1,Pin_1*%
%TO.N,i0*%
X170180000Y-93980000D03*
D17*
%TO.P,J2,2,Pin_2*%
%TO.N,i1*%
X167640000Y-93980000D03*
%TO.P,J2,3,Pin_3*%
%TO.N,i2*%
X165100000Y-93980000D03*
%TO.P,J2,4,Pin_4*%
%TO.N,i3*%
X162560000Y-93980000D03*
%TO.P,J2,5,Pin_5*%
%TO.N,i4*%
X160020000Y-93980000D03*
%TO.P,J2,6,Pin_6*%
%TO.N,i5*%
X157480000Y-93980000D03*
%TO.P,J2,7,Pin_7*%
%TO.N,i6*%
X154940000Y-93980000D03*
%TO.P,J2,8,Pin_8*%
%TO.N,i7*%
X152400000Y-93980000D03*
%TO.P,J2,9,Pin_9*%
%TO.N,i8*%
X149860000Y-93980000D03*
%TO.P,J2,10,Pin_10*%
%TO.N,i9*%
X147320000Y-93980000D03*
%TO.P,J2,11,Pin_11*%
%TO.N,i10*%
X144780000Y-93980000D03*
%TO.P,J2,12,Pin_12*%
%TO.N,i11*%
X142240000Y-93980000D03*
%TO.P,J2,13,Pin_13*%
%TO.N,i12*%
X139700000Y-93980000D03*
%TO.P,J2,14,Pin_14*%
%TO.N,i13*%
X137160000Y-93980000D03*
%TO.P,J2,15,Pin_15*%
%TO.N,i14*%
X134620000Y-93980000D03*
%TO.P,J2,16,Pin_16*%
%TO.N,i15*%
X132080000Y-93980000D03*
%TO.P,J2,17,Pin_17*%
%TO.N,Net-(J2-Pin_17)*%
X129540000Y-93980000D03*
%TD*%
D18*
%TO.N,Common I{slash}O*%
X168622700Y-60472700D03*
%TO.N,+3.3V*%
X161430600Y-61163800D03*
%TO.N,i4*%
X164453100Y-71351900D03*
%TO.N,i2*%
X169220900Y-53131400D03*
%TO.N,i1*%
X169056700Y-51887700D03*
%TO.N,i0*%
X169159500Y-50582600D03*
%TD*%
D19*
%TO.N,Common I{slash}O*%
X165300000Y-57150000D02*
X168622700Y-60472700D01*
X157480000Y-57150000D02*
X165300000Y-57150000D01*
%TO.N,+3.3V*%
X156330500Y-32899500D02*
X157480000Y-31750000D01*
X156330500Y-60960000D02*
X156330500Y-32899500D01*
X143510000Y-60960000D02*
X156330500Y-60960000D01*
X142240000Y-62230000D02*
X143510000Y-60960000D01*
X161226800Y-60960000D02*
X161430600Y-61163800D01*
X156330500Y-60960000D02*
X161226800Y-60960000D01*
X138575000Y-62230000D02*
X142240000Y-62230000D01*
X136277400Y-59932400D02*
X138575000Y-62230000D01*
%TO.N,GND*%
X154694900Y-26424900D02*
X157480000Y-29210000D01*
X143610200Y-26424900D02*
X154694900Y-26424900D01*
X143365100Y-26670000D02*
X143610200Y-26424900D01*
X142240000Y-26670000D02*
X143365100Y-26670000D01*
X156289400Y-63420600D02*
X157480000Y-62230000D01*
X134765600Y-63420600D02*
X156289400Y-63420600D01*
X131277400Y-59932400D02*
X134765600Y-63420600D01*
%TO.N,i4*%
X160020000Y-75785000D02*
X164453100Y-71351900D01*
X160020000Y-93980000D02*
X160020000Y-75785000D01*
%TO.N,i2*%
X165100000Y-93980000D02*
X165100000Y-92804900D01*
X169396900Y-88508000D02*
X165100000Y-92804900D01*
X169396900Y-53307400D02*
X169396900Y-88508000D01*
X169220900Y-53131400D02*
X169396900Y-53307400D01*
%TO.N,i1*%
X169962700Y-52793700D02*
X169056700Y-51887700D01*
X169962700Y-90482200D02*
X169962700Y-52793700D01*
X167640000Y-92804900D02*
X169962700Y-90482200D01*
X167640000Y-93980000D02*
X167640000Y-92804900D01*
%TO.N,i0*%
X170180000Y-93980000D02*
X170180000Y-92804900D01*
X170458700Y-51881800D02*
X169159500Y-50582600D01*
X170458700Y-92526200D02*
X170458700Y-51881800D01*
X170180000Y-92804900D02*
X170458700Y-92526200D01*
%TD*%
M02*
