%TF.GenerationSoftware,KiCad,Pcbnew,7.0.2-0*%
%TF.CreationDate,2023-11-13T17:50:44-05:00*%
%TF.ProjectId,Euro Power CV Shield,4575726f-2050-46f7-9765-722043562053,rev?*%
%TF.SameCoordinates,Original*%
%TF.FileFunction,Soldermask,Top*%
%TF.FilePolarity,Negative*%
%FSLAX46Y46*%
G04 Gerber Fmt 4.6, Leading zero omitted, Abs format (unit mm)*
G04 Created by KiCad (PCBNEW 7.0.2-0) date 2023-11-13 17:50:44*
%MOMM*%
%LPD*%
G01*
G04 APERTURE LIST*
G04 Aperture macros list*
%AMRoundRect*
0 Rectangle with rounded corners*
0 $1 Rounding radius*
0 $2 $3 $4 $5 $6 $7 $8 $9 X,Y pos of 4 corners*
0 Add a 4 corners polygon primitive as box body*
4,1,4,$2,$3,$4,$5,$6,$7,$8,$9,$2,$3,0*
0 Add four circle primitives for the rounded corners*
1,1,$1+$1,$2,$3*
1,1,$1+$1,$4,$5*
1,1,$1+$1,$6,$7*
1,1,$1+$1,$8,$9*
0 Add four rect primitives between the rounded corners*
20,1,$1+$1,$2,$3,$4,$5,0*
20,1,$1+$1,$4,$5,$6,$7,0*
20,1,$1+$1,$6,$7,$8,$9,0*
20,1,$1+$1,$8,$9,$2,$3,0*%
G04 Aperture macros list end*
%ADD10C,1.600000*%
%ADD11R,1.600000X1.600000*%
%ADD12R,1.300000X1.300000*%
%ADD13C,1.300000*%
%ADD14O,1.600000X1.600000*%
%ADD15RoundRect,0.050800X-0.650000X-0.750000X0.650000X-0.750000X0.650000X0.750000X-0.650000X0.750000X0*%
%ADD16C,1.751600*%
%ADD17C,1.981200*%
%ADD18RoundRect,0.050800X-0.500000X-0.700000X0.500000X-0.700000X0.500000X0.700000X-0.500000X0.700000X0*%
G04 APERTURE END LIST*
D10*
%TO.C,U2*%
X132080000Y-78740000D03*
X122430800Y-92659200D03*
X122430800Y-90119200D03*
X122430800Y-87579200D03*
X122430800Y-85039200D03*
D11*
X122430800Y-82499200D03*
D10*
X134620000Y-76200000D03*
X134620000Y-78740000D03*
X134620000Y-81280000D03*
X134620000Y-83820000D03*
X134620000Y-86360000D03*
X134620000Y-88900000D03*
X134620000Y-91440000D03*
X134620000Y-93980000D03*
X134620000Y-96520000D03*
X134620000Y-99060000D03*
X134620000Y-101600000D03*
X134620000Y-104140000D03*
X134620000Y-106680000D03*
X134620000Y-109220000D03*
D11*
X119380000Y-76200000D03*
D10*
X119380000Y-78740000D03*
X119380000Y-81280000D03*
X119380000Y-83820000D03*
X119380000Y-86360000D03*
X119380000Y-88900000D03*
X119380000Y-91440000D03*
X119380000Y-93980000D03*
X119380000Y-96520000D03*
X119380000Y-99060000D03*
X119380000Y-101600000D03*
X119380000Y-104140000D03*
X119380000Y-106680000D03*
X134620000Y-111760000D03*
X134620000Y-114300000D03*
X134620000Y-116840000D03*
X134620000Y-119380000D03*
X134620000Y-121920000D03*
X134620000Y-124460000D03*
X134620000Y-127000000D03*
X134620000Y-129540000D03*
X134620000Y-132080000D03*
X134620000Y-134620000D03*
X119380000Y-134620000D03*
X119380000Y-132080000D03*
X119380000Y-129540000D03*
X119380000Y-127000000D03*
X119380000Y-109220000D03*
X119380000Y-111760000D03*
X119380000Y-114300000D03*
X119380000Y-124460000D03*
X119380000Y-121920000D03*
X119380000Y-119380000D03*
X119380000Y-116840000D03*
D12*
X132181600Y-89170000D03*
D13*
X132181600Y-91170000D03*
X130181600Y-89170000D03*
X130181600Y-91170000D03*
X128181600Y-91170000D03*
X128181600Y-89170000D03*
D10*
X121920000Y-121920000D03*
X124460000Y-121920000D03*
X127000000Y-121920000D03*
X129540000Y-121920000D03*
X132080000Y-121920000D03*
D13*
X125730000Y-76930000D03*
X128270000Y-76930000D03*
%TD*%
D14*
%TO.C,U1*%
X146060000Y-76220000D03*
X138440000Y-91460000D03*
X146060000Y-78760000D03*
X138440000Y-88920000D03*
X146060000Y-81300000D03*
X138440000Y-86380000D03*
X146060000Y-83840000D03*
X138440000Y-83840000D03*
X146060000Y-86380000D03*
X138440000Y-81300000D03*
X146060000Y-88920000D03*
X138440000Y-78760000D03*
X146060000Y-91460000D03*
D11*
X138440000Y-76220000D03*
%TD*%
D15*
%TO.C,R17*%
X150320900Y-109131900D03*
X152220900Y-109131900D03*
%TD*%
%TO.C,R16*%
X144293200Y-109249100D03*
X146193200Y-109249100D03*
%TD*%
%TO.C,R15*%
X149565500Y-87915100D03*
X151465500Y-87915100D03*
%TD*%
%TO.C,R14*%
X138573200Y-99089100D03*
X140473200Y-99089100D03*
%TD*%
%TO.C,R13*%
X150320900Y-114211900D03*
X152220900Y-114211900D03*
%TD*%
%TO.C,R12*%
X144293200Y-114329100D03*
X146193200Y-114329100D03*
%TD*%
%TO.C,R11*%
X149565500Y-92995100D03*
X151465500Y-92995100D03*
%TD*%
%TO.C,R10*%
X138573200Y-114329100D03*
X140473200Y-114329100D03*
%TD*%
D16*
%TO.C,CV_4*%
X109220000Y-122000000D03*
X109220000Y-130500000D03*
X109220000Y-133500000D03*
%TD*%
%TO.C,CV_3*%
X109220000Y-106680000D03*
X109220000Y-115180000D03*
X109220000Y-118180000D03*
%TD*%
D15*
%TO.C,C5*%
X155695500Y-92995100D03*
X157395500Y-92995100D03*
%TD*%
%TO.C,C4*%
X155695500Y-82835100D03*
X157395500Y-82835100D03*
%TD*%
D17*
%TO.C,OffsetTestPoint (-5v)*%
X142240000Y-127000000D03*
%TD*%
D15*
%TO.C,R9*%
X138573200Y-109249100D03*
X140473200Y-109249100D03*
%TD*%
%TO.C,R8*%
X144293200Y-104169100D03*
X146193200Y-104169100D03*
%TD*%
%TO.C,R7*%
X149565500Y-82835100D03*
X151465500Y-82835100D03*
%TD*%
%TO.C,R6*%
X138573200Y-104169100D03*
X140473200Y-104169100D03*
%TD*%
%TO.C,R5*%
X144293200Y-99089100D03*
X146193200Y-99089100D03*
%TD*%
%TO.C,R4*%
X149565500Y-77755100D03*
X151465500Y-77755100D03*
%TD*%
%TO.C,R3*%
X150320900Y-98971900D03*
X152220900Y-98971900D03*
%TD*%
%TO.C,R2*%
X150320900Y-104051900D03*
X152220900Y-104051900D03*
%TD*%
%TO.C,R1*%
X147320000Y-119380000D03*
X149220000Y-119380000D03*
%TD*%
D18*
%TO.C,IC1*%
X139671500Y-122455700D03*
X141571500Y-122455700D03*
X140621500Y-120255700D03*
%TD*%
D16*
%TO.C,CV_2*%
X109220000Y-91440000D03*
X109220000Y-99940000D03*
X109220000Y-102940000D03*
%TD*%
%TO.C,CV_1*%
X109220000Y-76200000D03*
X109220000Y-84700000D03*
X109220000Y-87700000D03*
%TD*%
D15*
%TO.C,C12*%
X155695500Y-87915100D03*
X157395500Y-87915100D03*
%TD*%
%TO.C,C3*%
X158150900Y-104051900D03*
X156450900Y-104051900D03*
%TD*%
%TO.C,C2*%
X158150900Y-98971900D03*
X156450900Y-98971900D03*
%TD*%
%TO.C,C1*%
X155695500Y-77755100D03*
X157395500Y-77755100D03*
%TD*%
D17*
%TO.C,-12V_IN*%
X142154400Y-133319200D03*
%TD*%
M02*
