M48
; DRILL file {KiCad 7.0.2-0} date 2023 November 13, Monday 17:50:48
; FORMAT={-:-/ absolute / inch / decimal}
; #@! TF.CreationDate,2023-11-13T17:50:48-05:00
; #@! TF.GenerationSoftware,Kicad,Pcbnew,7.0.2-0
; #@! TF.FileFunction,Plated,1,2,PTH
FMAT,2
INCH
; #@! TA.AperFunction,Plated,PTH,ViaDrill
T1C0.0118
; #@! TA.AperFunction,Plated,PTH,ComponentDrill
T2C0.0315
; #@! TA.AperFunction,Plated,PTH,ComponentDrill
T3C0.0400
; #@! TA.AperFunction,Plated,PTH,ComponentDrill
T4C0.0433
%
G90
G05
T1
X5.7Y-4.8
X5.8656Y-3.8913
X5.8739Y-4.0878
X5.8742Y-4.4985
X5.9632Y-3.3508
X6.0857Y-3.4527
X6.2255Y-3.5989
T2
X4.95Y-3.0287
X5.0465Y-3.5106
X5.0465Y-3.5894
X5.05Y-3.0287
X5.1253Y-3.5106
X5.1253Y-3.5894
X5.204Y-3.5106
X5.204Y-3.5894
X5.4504Y-3.0008
X5.4504Y-3.1008
X5.4504Y-3.2008
X5.4504Y-3.3008
X5.4504Y-3.4008
X5.4504Y-3.5008
X5.4504Y-3.6008
X5.7504Y-3.0008
X5.7504Y-3.1008
X5.7504Y-3.2008
X5.7504Y-3.3008
X5.7504Y-3.4008
X5.7504Y-3.5008
X5.7504Y-3.6008
T3
X5.5966Y-5.2488
X5.6Y-5.0
T4
X4.3Y-3.0
X4.3Y-3.3346
X4.3Y-3.4528
X4.3Y-3.6
X4.3Y-3.9346
X4.3Y-4.0528
X4.3Y-4.2
X4.3Y-4.5346
X4.3Y-4.6528
X4.3Y-4.8031
X4.3Y-5.1378
X4.3Y-5.2559
X4.7Y-3.0
X4.7Y-3.1
X4.7Y-3.2
X4.7Y-3.3
X4.7Y-3.4
X4.7Y-3.5
X4.7Y-3.6
X4.7Y-3.7
X4.7Y-3.8
X4.7Y-3.9
X4.7Y-4.0
X4.7Y-4.1
X4.7Y-4.2
X4.7Y-4.3
X4.7Y-4.4
X4.7Y-4.5
X4.7Y-4.6
X4.7Y-4.7
X4.7Y-4.8
X4.7Y-4.9
X4.7Y-5.0
X4.7Y-5.1
X4.7Y-5.2
X4.7Y-5.3
X4.8Y-4.8
X4.8201Y-3.248
X4.8201Y-3.348
X4.8201Y-3.448
X4.8201Y-3.548
X4.8201Y-3.648
X4.9Y-4.8
X5.0Y-4.8
X5.1Y-4.8
X5.2Y-3.1
X5.2Y-4.8
X5.3Y-3.0
X5.3Y-3.1
X5.3Y-3.2
X5.3Y-3.3
X5.3Y-3.4
X5.3Y-3.5
X5.3Y-3.6
X5.3Y-3.7
X5.3Y-3.8
X5.3Y-3.9
X5.3Y-4.0
X5.3Y-4.1
X5.3Y-4.2
X5.3Y-4.3
X5.3Y-4.4
X5.3Y-4.5
X5.3Y-4.6
X5.3Y-4.7
X5.3Y-4.8
X5.3Y-4.9
X5.3Y-5.0
X5.3Y-5.1
X5.3Y-5.2
X5.3Y-5.3
T0
M30
