%TF.GenerationSoftware,KiCad,Pcbnew,7.0.2-0*%
%TF.CreationDate,2023-11-13T17:50:50-05:00*%
%TF.ProjectId,Euro Power CV Shield,4575726f-2050-46f7-9765-722043562053,rev?*%
%TF.SameCoordinates,Original*%
%TF.FileFunction,Drillmap*%
%TF.FilePolarity,Positive*%
%FSLAX45Y45*%
G04 Gerber Fmt 4.5, Leading zero omitted, Abs format (unit mm)*
G04 Created by KiCad (PCBNEW 7.0.2-0) date 2023-11-13 17:50:50*
%MOMM*%
%LPD*%
G01*
G04 APERTURE LIST*
%ADD10C,0.050000*%
%ADD11C,0.200000*%
%ADD12C,0.030000*%
%ADD13C,0.080000*%
%ADD14C,0.101600*%
%ADD15C,0.110000*%
G04 APERTURE END LIST*
D10*
X10414000Y-7366000D02*
X16002000Y-7366000D01*
X16002000Y-13716000D01*
X10414000Y-13716000D01*
X10414000Y-7366000D01*
D11*
D12*
X14463000Y-12177000D02*
X14493000Y-12207000D01*
X14493000Y-12177000D02*
X14463000Y-12207000D01*
X14883720Y-9868910D02*
X14913720Y-9898910D01*
X14913720Y-9868910D02*
X14883720Y-9898910D01*
X14904650Y-10368000D02*
X14934650Y-10398000D01*
X14934650Y-10368000D02*
X14904650Y-10398000D01*
X14905550Y-11411170D02*
X14935550Y-11441170D01*
X14935550Y-11411170D02*
X14905550Y-11441170D01*
X15131550Y-8496000D02*
X15161550Y-8526000D01*
X15161550Y-8496000D02*
X15131550Y-8526000D01*
X15442560Y-8754770D02*
X15472560Y-8784770D01*
X15472560Y-8754770D02*
X15442560Y-8784770D01*
X15797880Y-9126230D02*
X15827880Y-9156230D01*
X15827880Y-9126230D02*
X15797880Y-9156230D01*
D13*
X12613000Y-7693000D02*
G75*
G03*
X12613000Y-7693000I-40000J0D01*
G01*
X12858160Y-8917000D02*
G75*
G03*
X12858160Y-8917000I-40000J0D01*
G01*
X12858160Y-9117000D02*
G75*
G03*
X12858160Y-9117000I-40000J0D01*
G01*
X12867000Y-7693000D02*
G75*
G03*
X12867000Y-7693000I-40000J0D01*
G01*
X13058160Y-8917000D02*
G75*
G03*
X13058160Y-8917000I-40000J0D01*
G01*
X13058160Y-9117000D02*
G75*
G03*
X13058160Y-9117000I-40000J0D01*
G01*
X13258160Y-8917000D02*
G75*
G03*
X13258160Y-8917000I-40000J0D01*
G01*
X13258160Y-9117000D02*
G75*
G03*
X13258160Y-9117000I-40000J0D01*
G01*
X13884000Y-7622000D02*
G75*
G03*
X13884000Y-7622000I-40000J0D01*
G01*
X13884000Y-7876000D02*
G75*
G03*
X13884000Y-7876000I-40000J0D01*
G01*
X13884000Y-8130000D02*
G75*
G03*
X13884000Y-8130000I-40000J0D01*
G01*
X13884000Y-8384000D02*
G75*
G03*
X13884000Y-8384000I-40000J0D01*
G01*
X13884000Y-8638000D02*
G75*
G03*
X13884000Y-8638000I-40000J0D01*
G01*
X13884000Y-8892000D02*
G75*
G03*
X13884000Y-8892000I-40000J0D01*
G01*
X13884000Y-9146000D02*
G75*
G03*
X13884000Y-9146000I-40000J0D01*
G01*
X14646000Y-7622000D02*
G75*
G03*
X14646000Y-7622000I-40000J0D01*
G01*
X14646000Y-7876000D02*
G75*
G03*
X14646000Y-7876000I-40000J0D01*
G01*
X14646000Y-8130000D02*
G75*
G03*
X14646000Y-8130000I-40000J0D01*
G01*
X14646000Y-8384000D02*
G75*
G03*
X14646000Y-8384000I-40000J0D01*
G01*
X14646000Y-8638000D02*
G75*
G03*
X14646000Y-8638000I-40000J0D01*
G01*
X14646000Y-8892000D02*
G75*
G03*
X14646000Y-8892000I-40000J0D01*
G01*
X14646000Y-9146000D02*
G75*
G03*
X14646000Y-9146000I-40000J0D01*
G01*
D14*
X14215440Y-13281120D02*
X14215440Y-13382720D01*
X14164640Y-13331920D02*
X14266240Y-13331920D01*
X14224000Y-12649200D02*
X14224000Y-12750800D01*
X14173200Y-12700000D02*
X14274800Y-12700000D01*
D15*
X10960891Y-7658891D02*
X10960891Y-7581109D01*
X10883109Y-7581109D01*
X10883109Y-7658891D01*
X10960891Y-7658891D01*
X10960891Y-8508891D02*
X10960891Y-8431109D01*
X10883109Y-8431109D01*
X10883109Y-8508891D01*
X10960891Y-8508891D01*
X10960891Y-8808891D02*
X10960891Y-8731109D01*
X10883109Y-8731109D01*
X10883109Y-8808891D01*
X10960891Y-8808891D01*
X10960891Y-9182891D02*
X10960891Y-9105109D01*
X10883109Y-9105109D01*
X10883109Y-9182891D01*
X10960891Y-9182891D01*
X10960891Y-10032891D02*
X10960891Y-9955109D01*
X10883109Y-9955109D01*
X10883109Y-10032891D01*
X10960891Y-10032891D01*
X10960891Y-10332891D02*
X10960891Y-10255109D01*
X10883109Y-10255109D01*
X10883109Y-10332891D01*
X10960891Y-10332891D01*
X10960891Y-10706891D02*
X10960891Y-10629109D01*
X10883109Y-10629109D01*
X10883109Y-10706891D01*
X10960891Y-10706891D01*
X10960891Y-11556891D02*
X10960891Y-11479109D01*
X10883109Y-11479109D01*
X10883109Y-11556891D01*
X10960891Y-11556891D01*
X10960891Y-11856891D02*
X10960891Y-11779109D01*
X10883109Y-11779109D01*
X10883109Y-11856891D01*
X10960891Y-11856891D01*
X10960891Y-12238891D02*
X10960891Y-12161109D01*
X10883109Y-12161109D01*
X10883109Y-12238891D01*
X10960891Y-12238891D01*
X10960891Y-13088891D02*
X10960891Y-13011109D01*
X10883109Y-13011109D01*
X10883109Y-13088891D01*
X10960891Y-13088891D01*
X10960891Y-13388891D02*
X10960891Y-13311109D01*
X10883109Y-13311109D01*
X10883109Y-13388891D01*
X10960891Y-13388891D01*
X11976891Y-7658891D02*
X11976891Y-7581109D01*
X11899109Y-7581109D01*
X11899109Y-7658891D01*
X11976891Y-7658891D01*
X11976891Y-7912891D02*
X11976891Y-7835109D01*
X11899109Y-7835109D01*
X11899109Y-7912891D01*
X11976891Y-7912891D01*
X11976891Y-8166891D02*
X11976891Y-8089109D01*
X11899109Y-8089109D01*
X11899109Y-8166891D01*
X11976891Y-8166891D01*
X11976891Y-8420891D02*
X11976891Y-8343109D01*
X11899109Y-8343109D01*
X11899109Y-8420891D01*
X11976891Y-8420891D01*
X11976891Y-8674891D02*
X11976891Y-8597109D01*
X11899109Y-8597109D01*
X11899109Y-8674891D01*
X11976891Y-8674891D01*
X11976891Y-8928891D02*
X11976891Y-8851109D01*
X11899109Y-8851109D01*
X11899109Y-8928891D01*
X11976891Y-8928891D01*
X11976891Y-9182891D02*
X11976891Y-9105109D01*
X11899109Y-9105109D01*
X11899109Y-9182891D01*
X11976891Y-9182891D01*
X11976891Y-9436891D02*
X11976891Y-9359109D01*
X11899109Y-9359109D01*
X11899109Y-9436891D01*
X11976891Y-9436891D01*
X11976891Y-9690891D02*
X11976891Y-9613109D01*
X11899109Y-9613109D01*
X11899109Y-9690891D01*
X11976891Y-9690891D01*
X11976891Y-9944891D02*
X11976891Y-9867109D01*
X11899109Y-9867109D01*
X11899109Y-9944891D01*
X11976891Y-9944891D01*
X11976891Y-10198891D02*
X11976891Y-10121109D01*
X11899109Y-10121109D01*
X11899109Y-10198891D01*
X11976891Y-10198891D01*
X11976891Y-10452891D02*
X11976891Y-10375109D01*
X11899109Y-10375109D01*
X11899109Y-10452891D01*
X11976891Y-10452891D01*
X11976891Y-10706891D02*
X11976891Y-10629109D01*
X11899109Y-10629109D01*
X11899109Y-10706891D01*
X11976891Y-10706891D01*
X11976891Y-10960891D02*
X11976891Y-10883109D01*
X11899109Y-10883109D01*
X11899109Y-10960891D01*
X11976891Y-10960891D01*
X11976891Y-11214891D02*
X11976891Y-11137109D01*
X11899109Y-11137109D01*
X11899109Y-11214891D01*
X11976891Y-11214891D01*
X11976891Y-11468891D02*
X11976891Y-11391109D01*
X11899109Y-11391109D01*
X11899109Y-11468891D01*
X11976891Y-11468891D01*
X11976891Y-11722891D02*
X11976891Y-11645109D01*
X11899109Y-11645109D01*
X11899109Y-11722891D01*
X11976891Y-11722891D01*
X11976891Y-11976891D02*
X11976891Y-11899109D01*
X11899109Y-11899109D01*
X11899109Y-11976891D01*
X11976891Y-11976891D01*
X11976891Y-12230891D02*
X11976891Y-12153109D01*
X11899109Y-12153109D01*
X11899109Y-12230891D01*
X11976891Y-12230891D01*
X11976891Y-12484891D02*
X11976891Y-12407109D01*
X11899109Y-12407109D01*
X11899109Y-12484891D01*
X11976891Y-12484891D01*
X11976891Y-12738891D02*
X11976891Y-12661109D01*
X11899109Y-12661109D01*
X11899109Y-12738891D01*
X11976891Y-12738891D01*
X11976891Y-12992891D02*
X11976891Y-12915109D01*
X11899109Y-12915109D01*
X11899109Y-12992891D01*
X11976891Y-12992891D01*
X11976891Y-13246891D02*
X11976891Y-13169109D01*
X11899109Y-13169109D01*
X11899109Y-13246891D01*
X11976891Y-13246891D01*
X11976891Y-13500891D02*
X11976891Y-13423109D01*
X11899109Y-13423109D01*
X11899109Y-13500891D01*
X11976891Y-13500891D01*
X12230891Y-12230891D02*
X12230891Y-12153109D01*
X12153109Y-12153109D01*
X12153109Y-12230891D01*
X12230891Y-12230891D01*
X12281971Y-8288811D02*
X12281971Y-8211029D01*
X12204189Y-8211029D01*
X12204189Y-8288811D01*
X12281971Y-8288811D01*
X12281971Y-8542811D02*
X12281971Y-8465029D01*
X12204189Y-8465029D01*
X12204189Y-8542811D01*
X12281971Y-8542811D01*
X12281971Y-8796811D02*
X12281971Y-8719029D01*
X12204189Y-8719029D01*
X12204189Y-8796811D01*
X12281971Y-8796811D01*
X12281971Y-9050811D02*
X12281971Y-8973029D01*
X12204189Y-8973029D01*
X12204189Y-9050811D01*
X12281971Y-9050811D01*
X12281971Y-9304811D02*
X12281971Y-9227029D01*
X12204189Y-9227029D01*
X12204189Y-9304811D01*
X12281971Y-9304811D01*
X12484891Y-12230891D02*
X12484891Y-12153109D01*
X12407109Y-12153109D01*
X12407109Y-12230891D01*
X12484891Y-12230891D01*
X12738891Y-12230891D02*
X12738891Y-12153109D01*
X12661109Y-12153109D01*
X12661109Y-12230891D01*
X12738891Y-12230891D01*
X12992891Y-12230891D02*
X12992891Y-12153109D01*
X12915109Y-12153109D01*
X12915109Y-12230891D01*
X12992891Y-12230891D01*
X13246891Y-7912891D02*
X13246891Y-7835109D01*
X13169109Y-7835109D01*
X13169109Y-7912891D01*
X13246891Y-7912891D01*
X13246891Y-12230891D02*
X13246891Y-12153109D01*
X13169109Y-12153109D01*
X13169109Y-12230891D01*
X13246891Y-12230891D01*
X13500891Y-7658891D02*
X13500891Y-7581109D01*
X13423109Y-7581109D01*
X13423109Y-7658891D01*
X13500891Y-7658891D01*
X13500891Y-7912891D02*
X13500891Y-7835109D01*
X13423109Y-7835109D01*
X13423109Y-7912891D01*
X13500891Y-7912891D01*
X13500891Y-8166891D02*
X13500891Y-8089109D01*
X13423109Y-8089109D01*
X13423109Y-8166891D01*
X13500891Y-8166891D01*
X13500891Y-8420891D02*
X13500891Y-8343109D01*
X13423109Y-8343109D01*
X13423109Y-8420891D01*
X13500891Y-8420891D01*
X13500891Y-8674891D02*
X13500891Y-8597109D01*
X13423109Y-8597109D01*
X13423109Y-8674891D01*
X13500891Y-8674891D01*
X13500891Y-8928891D02*
X13500891Y-8851109D01*
X13423109Y-8851109D01*
X13423109Y-8928891D01*
X13500891Y-8928891D01*
X13500891Y-9182891D02*
X13500891Y-9105109D01*
X13423109Y-9105109D01*
X13423109Y-9182891D01*
X13500891Y-9182891D01*
X13500891Y-9436891D02*
X13500891Y-9359109D01*
X13423109Y-9359109D01*
X13423109Y-9436891D01*
X13500891Y-9436891D01*
X13500891Y-9690891D02*
X13500891Y-9613109D01*
X13423109Y-9613109D01*
X13423109Y-9690891D01*
X13500891Y-9690891D01*
X13500891Y-9944891D02*
X13500891Y-9867109D01*
X13423109Y-9867109D01*
X13423109Y-9944891D01*
X13500891Y-9944891D01*
X13500891Y-10198891D02*
X13500891Y-10121109D01*
X13423109Y-10121109D01*
X13423109Y-10198891D01*
X13500891Y-10198891D01*
X13500891Y-10452891D02*
X13500891Y-10375109D01*
X13423109Y-10375109D01*
X13423109Y-10452891D01*
X13500891Y-10452891D01*
X13500891Y-10706891D02*
X13500891Y-10629109D01*
X13423109Y-10629109D01*
X13423109Y-10706891D01*
X13500891Y-10706891D01*
X13500891Y-10960891D02*
X13500891Y-10883109D01*
X13423109Y-10883109D01*
X13423109Y-10960891D01*
X13500891Y-10960891D01*
X13500891Y-11214891D02*
X13500891Y-11137109D01*
X13423109Y-11137109D01*
X13423109Y-11214891D01*
X13500891Y-11214891D01*
X13500891Y-11468891D02*
X13500891Y-11391109D01*
X13423109Y-11391109D01*
X13423109Y-11468891D01*
X13500891Y-11468891D01*
X13500891Y-11722891D02*
X13500891Y-11645109D01*
X13423109Y-11645109D01*
X13423109Y-11722891D01*
X13500891Y-11722891D01*
X13500891Y-11976891D02*
X13500891Y-11899109D01*
X13423109Y-11899109D01*
X13423109Y-11976891D01*
X13500891Y-11976891D01*
X13500891Y-12230891D02*
X13500891Y-12153109D01*
X13423109Y-12153109D01*
X13423109Y-12230891D01*
X13500891Y-12230891D01*
X13500891Y-12484891D02*
X13500891Y-12407109D01*
X13423109Y-12407109D01*
X13423109Y-12484891D01*
X13500891Y-12484891D01*
X13500891Y-12738891D02*
X13500891Y-12661109D01*
X13423109Y-12661109D01*
X13423109Y-12738891D01*
X13500891Y-12738891D01*
X13500891Y-12992891D02*
X13500891Y-12915109D01*
X13423109Y-12915109D01*
X13423109Y-12992891D01*
X13500891Y-12992891D01*
X13500891Y-13246891D02*
X13500891Y-13169109D01*
X13423109Y-13169109D01*
X13423109Y-13246891D01*
X13500891Y-13246891D01*
X13500891Y-13500891D02*
X13500891Y-13423109D01*
X13423109Y-13423109D01*
X13423109Y-13500891D01*
X13500891Y-13500891D01*
D11*
X10659119Y-14031024D02*
X10659119Y-13831024D01*
X10659119Y-13831024D02*
X10706738Y-13831024D01*
X10706738Y-13831024D02*
X10735310Y-13840548D01*
X10735310Y-13840548D02*
X10754357Y-13859595D01*
X10754357Y-13859595D02*
X10763881Y-13878643D01*
X10763881Y-13878643D02*
X10773405Y-13916738D01*
X10773405Y-13916738D02*
X10773405Y-13945309D01*
X10773405Y-13945309D02*
X10763881Y-13983405D01*
X10763881Y-13983405D02*
X10754357Y-14002452D01*
X10754357Y-14002452D02*
X10735310Y-14021500D01*
X10735310Y-14021500D02*
X10706738Y-14031024D01*
X10706738Y-14031024D02*
X10659119Y-14031024D01*
X10859119Y-14031024D02*
X10859119Y-13897690D01*
X10859119Y-13935786D02*
X10868643Y-13916738D01*
X10868643Y-13916738D02*
X10878167Y-13907214D01*
X10878167Y-13907214D02*
X10897214Y-13897690D01*
X10897214Y-13897690D02*
X10916262Y-13897690D01*
X10982929Y-14031024D02*
X10982929Y-13897690D01*
X10982929Y-13831024D02*
X10973405Y-13840548D01*
X10973405Y-13840548D02*
X10982929Y-13850071D01*
X10982929Y-13850071D02*
X10992452Y-13840548D01*
X10992452Y-13840548D02*
X10982929Y-13831024D01*
X10982929Y-13831024D02*
X10982929Y-13850071D01*
X11106738Y-14031024D02*
X11087690Y-14021500D01*
X11087690Y-14021500D02*
X11078167Y-14002452D01*
X11078167Y-14002452D02*
X11078167Y-13831024D01*
X11211500Y-14031024D02*
X11192452Y-14021500D01*
X11192452Y-14021500D02*
X11182929Y-14002452D01*
X11182929Y-14002452D02*
X11182929Y-13831024D01*
X11440071Y-14031024D02*
X11440071Y-13831024D01*
X11440071Y-13831024D02*
X11506738Y-13973881D01*
X11506738Y-13973881D02*
X11573405Y-13831024D01*
X11573405Y-13831024D02*
X11573405Y-14031024D01*
X11754357Y-14031024D02*
X11754357Y-13926262D01*
X11754357Y-13926262D02*
X11744833Y-13907214D01*
X11744833Y-13907214D02*
X11725786Y-13897690D01*
X11725786Y-13897690D02*
X11687690Y-13897690D01*
X11687690Y-13897690D02*
X11668643Y-13907214D01*
X11754357Y-14021500D02*
X11735309Y-14031024D01*
X11735309Y-14031024D02*
X11687690Y-14031024D01*
X11687690Y-14031024D02*
X11668643Y-14021500D01*
X11668643Y-14021500D02*
X11659119Y-14002452D01*
X11659119Y-14002452D02*
X11659119Y-13983405D01*
X11659119Y-13983405D02*
X11668643Y-13964357D01*
X11668643Y-13964357D02*
X11687690Y-13954833D01*
X11687690Y-13954833D02*
X11735309Y-13954833D01*
X11735309Y-13954833D02*
X11754357Y-13945309D01*
X11849595Y-13897690D02*
X11849595Y-14097690D01*
X11849595Y-13907214D02*
X11868643Y-13897690D01*
X11868643Y-13897690D02*
X11906738Y-13897690D01*
X11906738Y-13897690D02*
X11925786Y-13907214D01*
X11925786Y-13907214D02*
X11935309Y-13916738D01*
X11935309Y-13916738D02*
X11944833Y-13935786D01*
X11944833Y-13935786D02*
X11944833Y-13992928D01*
X11944833Y-13992928D02*
X11935309Y-14011976D01*
X11935309Y-14011976D02*
X11925786Y-14021500D01*
X11925786Y-14021500D02*
X11906738Y-14031024D01*
X11906738Y-14031024D02*
X11868643Y-14031024D01*
X11868643Y-14031024D02*
X11849595Y-14021500D01*
X12030548Y-14011976D02*
X12040071Y-14021500D01*
X12040071Y-14021500D02*
X12030548Y-14031024D01*
X12030548Y-14031024D02*
X12021024Y-14021500D01*
X12021024Y-14021500D02*
X12030548Y-14011976D01*
X12030548Y-14011976D02*
X12030548Y-14031024D01*
X12030548Y-13907214D02*
X12040071Y-13916738D01*
X12040071Y-13916738D02*
X12030548Y-13926262D01*
X12030548Y-13926262D02*
X12021024Y-13916738D01*
X12021024Y-13916738D02*
X12030548Y-13907214D01*
X12030548Y-13907214D02*
X12030548Y-13926262D01*
D12*
X10381500Y-14343500D02*
X10411500Y-14373500D01*
X10411500Y-14343500D02*
X10381500Y-14373500D01*
D11*
X10697214Y-14251024D02*
X10716262Y-14251024D01*
X10716262Y-14251024D02*
X10735310Y-14260548D01*
X10735310Y-14260548D02*
X10744833Y-14270071D01*
X10744833Y-14270071D02*
X10754357Y-14289119D01*
X10754357Y-14289119D02*
X10763881Y-14327214D01*
X10763881Y-14327214D02*
X10763881Y-14374833D01*
X10763881Y-14374833D02*
X10754357Y-14412928D01*
X10754357Y-14412928D02*
X10744833Y-14431976D01*
X10744833Y-14431976D02*
X10735310Y-14441500D01*
X10735310Y-14441500D02*
X10716262Y-14451024D01*
X10716262Y-14451024D02*
X10697214Y-14451024D01*
X10697214Y-14451024D02*
X10678167Y-14441500D01*
X10678167Y-14441500D02*
X10668643Y-14431976D01*
X10668643Y-14431976D02*
X10659119Y-14412928D01*
X10659119Y-14412928D02*
X10649595Y-14374833D01*
X10649595Y-14374833D02*
X10649595Y-14327214D01*
X10649595Y-14327214D02*
X10659119Y-14289119D01*
X10659119Y-14289119D02*
X10668643Y-14270071D01*
X10668643Y-14270071D02*
X10678167Y-14260548D01*
X10678167Y-14260548D02*
X10697214Y-14251024D01*
X10849595Y-14431976D02*
X10859119Y-14441500D01*
X10859119Y-14441500D02*
X10849595Y-14451024D01*
X10849595Y-14451024D02*
X10840071Y-14441500D01*
X10840071Y-14441500D02*
X10849595Y-14431976D01*
X10849595Y-14431976D02*
X10849595Y-14451024D01*
X10925786Y-14251024D02*
X11049595Y-14251024D01*
X11049595Y-14251024D02*
X10982929Y-14327214D01*
X10982929Y-14327214D02*
X11011500Y-14327214D01*
X11011500Y-14327214D02*
X11030548Y-14336738D01*
X11030548Y-14336738D02*
X11040071Y-14346262D01*
X11040071Y-14346262D02*
X11049595Y-14365309D01*
X11049595Y-14365309D02*
X11049595Y-14412928D01*
X11049595Y-14412928D02*
X11040071Y-14431976D01*
X11040071Y-14431976D02*
X11030548Y-14441500D01*
X11030548Y-14441500D02*
X11011500Y-14451024D01*
X11011500Y-14451024D02*
X10954357Y-14451024D01*
X10954357Y-14451024D02*
X10935310Y-14441500D01*
X10935310Y-14441500D02*
X10925786Y-14431976D01*
X11173405Y-14251024D02*
X11192452Y-14251024D01*
X11192452Y-14251024D02*
X11211500Y-14260548D01*
X11211500Y-14260548D02*
X11221024Y-14270071D01*
X11221024Y-14270071D02*
X11230548Y-14289119D01*
X11230548Y-14289119D02*
X11240071Y-14327214D01*
X11240071Y-14327214D02*
X11240071Y-14374833D01*
X11240071Y-14374833D02*
X11230548Y-14412928D01*
X11230548Y-14412928D02*
X11221024Y-14431976D01*
X11221024Y-14431976D02*
X11211500Y-14441500D01*
X11211500Y-14441500D02*
X11192452Y-14451024D01*
X11192452Y-14451024D02*
X11173405Y-14451024D01*
X11173405Y-14451024D02*
X11154357Y-14441500D01*
X11154357Y-14441500D02*
X11144833Y-14431976D01*
X11144833Y-14431976D02*
X11135310Y-14412928D01*
X11135310Y-14412928D02*
X11125786Y-14374833D01*
X11125786Y-14374833D02*
X11125786Y-14327214D01*
X11125786Y-14327214D02*
X11135310Y-14289119D01*
X11135310Y-14289119D02*
X11144833Y-14270071D01*
X11144833Y-14270071D02*
X11154357Y-14260548D01*
X11154357Y-14260548D02*
X11173405Y-14251024D01*
X11363881Y-14251024D02*
X11382929Y-14251024D01*
X11382929Y-14251024D02*
X11401976Y-14260548D01*
X11401976Y-14260548D02*
X11411500Y-14270071D01*
X11411500Y-14270071D02*
X11421024Y-14289119D01*
X11421024Y-14289119D02*
X11430548Y-14327214D01*
X11430548Y-14327214D02*
X11430548Y-14374833D01*
X11430548Y-14374833D02*
X11421024Y-14412928D01*
X11421024Y-14412928D02*
X11411500Y-14431976D01*
X11411500Y-14431976D02*
X11401976Y-14441500D01*
X11401976Y-14441500D02*
X11382929Y-14451024D01*
X11382929Y-14451024D02*
X11363881Y-14451024D01*
X11363881Y-14451024D02*
X11344833Y-14441500D01*
X11344833Y-14441500D02*
X11335309Y-14431976D01*
X11335309Y-14431976D02*
X11325786Y-14412928D01*
X11325786Y-14412928D02*
X11316262Y-14374833D01*
X11316262Y-14374833D02*
X11316262Y-14327214D01*
X11316262Y-14327214D02*
X11325786Y-14289119D01*
X11325786Y-14289119D02*
X11335309Y-14270071D01*
X11335309Y-14270071D02*
X11344833Y-14260548D01*
X11344833Y-14260548D02*
X11363881Y-14251024D01*
X11516262Y-14451024D02*
X11516262Y-14317690D01*
X11516262Y-14336738D02*
X11525786Y-14327214D01*
X11525786Y-14327214D02*
X11544833Y-14317690D01*
X11544833Y-14317690D02*
X11573405Y-14317690D01*
X11573405Y-14317690D02*
X11592452Y-14327214D01*
X11592452Y-14327214D02*
X11601976Y-14346262D01*
X11601976Y-14346262D02*
X11601976Y-14451024D01*
X11601976Y-14346262D02*
X11611500Y-14327214D01*
X11611500Y-14327214D02*
X11630548Y-14317690D01*
X11630548Y-14317690D02*
X11659119Y-14317690D01*
X11659119Y-14317690D02*
X11678167Y-14327214D01*
X11678167Y-14327214D02*
X11687690Y-14346262D01*
X11687690Y-14346262D02*
X11687690Y-14451024D01*
X11782929Y-14451024D02*
X11782929Y-14317690D01*
X11782929Y-14336738D02*
X11792452Y-14327214D01*
X11792452Y-14327214D02*
X11811500Y-14317690D01*
X11811500Y-14317690D02*
X11840071Y-14317690D01*
X11840071Y-14317690D02*
X11859119Y-14327214D01*
X11859119Y-14327214D02*
X11868643Y-14346262D01*
X11868643Y-14346262D02*
X11868643Y-14451024D01*
X11868643Y-14346262D02*
X11878167Y-14327214D01*
X11878167Y-14327214D02*
X11897214Y-14317690D01*
X11897214Y-14317690D02*
X11925786Y-14317690D01*
X11925786Y-14317690D02*
X11944833Y-14327214D01*
X11944833Y-14327214D02*
X11954357Y-14346262D01*
X11954357Y-14346262D02*
X11954357Y-14451024D01*
X12344833Y-14241500D02*
X12173405Y-14498643D01*
X12601976Y-14251024D02*
X12621024Y-14251024D01*
X12621024Y-14251024D02*
X12640072Y-14260548D01*
X12640072Y-14260548D02*
X12649595Y-14270071D01*
X12649595Y-14270071D02*
X12659119Y-14289119D01*
X12659119Y-14289119D02*
X12668643Y-14327214D01*
X12668643Y-14327214D02*
X12668643Y-14374833D01*
X12668643Y-14374833D02*
X12659119Y-14412928D01*
X12659119Y-14412928D02*
X12649595Y-14431976D01*
X12649595Y-14431976D02*
X12640072Y-14441500D01*
X12640072Y-14441500D02*
X12621024Y-14451024D01*
X12621024Y-14451024D02*
X12601976Y-14451024D01*
X12601976Y-14451024D02*
X12582929Y-14441500D01*
X12582929Y-14441500D02*
X12573405Y-14431976D01*
X12573405Y-14431976D02*
X12563881Y-14412928D01*
X12563881Y-14412928D02*
X12554357Y-14374833D01*
X12554357Y-14374833D02*
X12554357Y-14327214D01*
X12554357Y-14327214D02*
X12563881Y-14289119D01*
X12563881Y-14289119D02*
X12573405Y-14270071D01*
X12573405Y-14270071D02*
X12582929Y-14260548D01*
X12582929Y-14260548D02*
X12601976Y-14251024D01*
X12754357Y-14431976D02*
X12763881Y-14441500D01*
X12763881Y-14441500D02*
X12754357Y-14451024D01*
X12754357Y-14451024D02*
X12744833Y-14441500D01*
X12744833Y-14441500D02*
X12754357Y-14431976D01*
X12754357Y-14431976D02*
X12754357Y-14451024D01*
X12887691Y-14251024D02*
X12906738Y-14251024D01*
X12906738Y-14251024D02*
X12925786Y-14260548D01*
X12925786Y-14260548D02*
X12935310Y-14270071D01*
X12935310Y-14270071D02*
X12944833Y-14289119D01*
X12944833Y-14289119D02*
X12954357Y-14327214D01*
X12954357Y-14327214D02*
X12954357Y-14374833D01*
X12954357Y-14374833D02*
X12944833Y-14412928D01*
X12944833Y-14412928D02*
X12935310Y-14431976D01*
X12935310Y-14431976D02*
X12925786Y-14441500D01*
X12925786Y-14441500D02*
X12906738Y-14451024D01*
X12906738Y-14451024D02*
X12887691Y-14451024D01*
X12887691Y-14451024D02*
X12868643Y-14441500D01*
X12868643Y-14441500D02*
X12859119Y-14431976D01*
X12859119Y-14431976D02*
X12849595Y-14412928D01*
X12849595Y-14412928D02*
X12840072Y-14374833D01*
X12840072Y-14374833D02*
X12840072Y-14327214D01*
X12840072Y-14327214D02*
X12849595Y-14289119D01*
X12849595Y-14289119D02*
X12859119Y-14270071D01*
X12859119Y-14270071D02*
X12868643Y-14260548D01*
X12868643Y-14260548D02*
X12887691Y-14251024D01*
X13144833Y-14451024D02*
X13030548Y-14451024D01*
X13087691Y-14451024D02*
X13087691Y-14251024D01*
X13087691Y-14251024D02*
X13068643Y-14279595D01*
X13068643Y-14279595D02*
X13049595Y-14298643D01*
X13049595Y-14298643D02*
X13030548Y-14308167D01*
X13335310Y-14451024D02*
X13221024Y-14451024D01*
X13278167Y-14451024D02*
X13278167Y-14251024D01*
X13278167Y-14251024D02*
X13259119Y-14279595D01*
X13259119Y-14279595D02*
X13240072Y-14298643D01*
X13240072Y-14298643D02*
X13221024Y-14308167D01*
X13449595Y-14336738D02*
X13430548Y-14327214D01*
X13430548Y-14327214D02*
X13421024Y-14317690D01*
X13421024Y-14317690D02*
X13411500Y-14298643D01*
X13411500Y-14298643D02*
X13411500Y-14289119D01*
X13411500Y-14289119D02*
X13421024Y-14270071D01*
X13421024Y-14270071D02*
X13430548Y-14260548D01*
X13430548Y-14260548D02*
X13449595Y-14251024D01*
X13449595Y-14251024D02*
X13487691Y-14251024D01*
X13487691Y-14251024D02*
X13506738Y-14260548D01*
X13506738Y-14260548D02*
X13516262Y-14270071D01*
X13516262Y-14270071D02*
X13525786Y-14289119D01*
X13525786Y-14289119D02*
X13525786Y-14298643D01*
X13525786Y-14298643D02*
X13516262Y-14317690D01*
X13516262Y-14317690D02*
X13506738Y-14327214D01*
X13506738Y-14327214D02*
X13487691Y-14336738D01*
X13487691Y-14336738D02*
X13449595Y-14336738D01*
X13449595Y-14336738D02*
X13430548Y-14346262D01*
X13430548Y-14346262D02*
X13421024Y-14355786D01*
X13421024Y-14355786D02*
X13411500Y-14374833D01*
X13411500Y-14374833D02*
X13411500Y-14412928D01*
X13411500Y-14412928D02*
X13421024Y-14431976D01*
X13421024Y-14431976D02*
X13430548Y-14441500D01*
X13430548Y-14441500D02*
X13449595Y-14451024D01*
X13449595Y-14451024D02*
X13487691Y-14451024D01*
X13487691Y-14451024D02*
X13506738Y-14441500D01*
X13506738Y-14441500D02*
X13516262Y-14431976D01*
X13516262Y-14431976D02*
X13525786Y-14412928D01*
X13525786Y-14412928D02*
X13525786Y-14374833D01*
X13525786Y-14374833D02*
X13516262Y-14355786D01*
X13516262Y-14355786D02*
X13506738Y-14346262D01*
X13506738Y-14346262D02*
X13487691Y-14336738D01*
X13601976Y-14251024D02*
X13601976Y-14289119D01*
X13678167Y-14251024D02*
X13678167Y-14289119D01*
X13973405Y-14527214D02*
X13963881Y-14517690D01*
X13963881Y-14517690D02*
X13944834Y-14489119D01*
X13944834Y-14489119D02*
X13935310Y-14470071D01*
X13935310Y-14470071D02*
X13925786Y-14441500D01*
X13925786Y-14441500D02*
X13916262Y-14393881D01*
X13916262Y-14393881D02*
X13916262Y-14355786D01*
X13916262Y-14355786D02*
X13925786Y-14308167D01*
X13925786Y-14308167D02*
X13935310Y-14279595D01*
X13935310Y-14279595D02*
X13944834Y-14260548D01*
X13944834Y-14260548D02*
X13963881Y-14231976D01*
X13963881Y-14231976D02*
X13973405Y-14222452D01*
X14030548Y-14251024D02*
X14163881Y-14251024D01*
X14163881Y-14251024D02*
X14078167Y-14451024D01*
X14392453Y-14451024D02*
X14392453Y-14251024D01*
X14478167Y-14451024D02*
X14478167Y-14346262D01*
X14478167Y-14346262D02*
X14468643Y-14327214D01*
X14468643Y-14327214D02*
X14449596Y-14317690D01*
X14449596Y-14317690D02*
X14421024Y-14317690D01*
X14421024Y-14317690D02*
X14401976Y-14327214D01*
X14401976Y-14327214D02*
X14392453Y-14336738D01*
X14601976Y-14451024D02*
X14582929Y-14441500D01*
X14582929Y-14441500D02*
X14573405Y-14431976D01*
X14573405Y-14431976D02*
X14563881Y-14412928D01*
X14563881Y-14412928D02*
X14563881Y-14355786D01*
X14563881Y-14355786D02*
X14573405Y-14336738D01*
X14573405Y-14336738D02*
X14582929Y-14327214D01*
X14582929Y-14327214D02*
X14601976Y-14317690D01*
X14601976Y-14317690D02*
X14630548Y-14317690D01*
X14630548Y-14317690D02*
X14649596Y-14327214D01*
X14649596Y-14327214D02*
X14659119Y-14336738D01*
X14659119Y-14336738D02*
X14668643Y-14355786D01*
X14668643Y-14355786D02*
X14668643Y-14412928D01*
X14668643Y-14412928D02*
X14659119Y-14431976D01*
X14659119Y-14431976D02*
X14649596Y-14441500D01*
X14649596Y-14441500D02*
X14630548Y-14451024D01*
X14630548Y-14451024D02*
X14601976Y-14451024D01*
X14782929Y-14451024D02*
X14763881Y-14441500D01*
X14763881Y-14441500D02*
X14754357Y-14422452D01*
X14754357Y-14422452D02*
X14754357Y-14251024D01*
X14935310Y-14441500D02*
X14916262Y-14451024D01*
X14916262Y-14451024D02*
X14878167Y-14451024D01*
X14878167Y-14451024D02*
X14859119Y-14441500D01*
X14859119Y-14441500D02*
X14849596Y-14422452D01*
X14849596Y-14422452D02*
X14849596Y-14346262D01*
X14849596Y-14346262D02*
X14859119Y-14327214D01*
X14859119Y-14327214D02*
X14878167Y-14317690D01*
X14878167Y-14317690D02*
X14916262Y-14317690D01*
X14916262Y-14317690D02*
X14935310Y-14327214D01*
X14935310Y-14327214D02*
X14944834Y-14346262D01*
X14944834Y-14346262D02*
X14944834Y-14365309D01*
X14944834Y-14365309D02*
X14849596Y-14384357D01*
X15021024Y-14441500D02*
X15040072Y-14451024D01*
X15040072Y-14451024D02*
X15078167Y-14451024D01*
X15078167Y-14451024D02*
X15097215Y-14441500D01*
X15097215Y-14441500D02*
X15106738Y-14422452D01*
X15106738Y-14422452D02*
X15106738Y-14412928D01*
X15106738Y-14412928D02*
X15097215Y-14393881D01*
X15097215Y-14393881D02*
X15078167Y-14384357D01*
X15078167Y-14384357D02*
X15049596Y-14384357D01*
X15049596Y-14384357D02*
X15030548Y-14374833D01*
X15030548Y-14374833D02*
X15021024Y-14355786D01*
X15021024Y-14355786D02*
X15021024Y-14346262D01*
X15021024Y-14346262D02*
X15030548Y-14327214D01*
X15030548Y-14327214D02*
X15049596Y-14317690D01*
X15049596Y-14317690D02*
X15078167Y-14317690D01*
X15078167Y-14317690D02*
X15097215Y-14327214D01*
X15173405Y-14527214D02*
X15182929Y-14517690D01*
X15182929Y-14517690D02*
X15201977Y-14489119D01*
X15201977Y-14489119D02*
X15211500Y-14470071D01*
X15211500Y-14470071D02*
X15221024Y-14441500D01*
X15221024Y-14441500D02*
X15230548Y-14393881D01*
X15230548Y-14393881D02*
X15230548Y-14355786D01*
X15230548Y-14355786D02*
X15221024Y-14308167D01*
X15221024Y-14308167D02*
X15211500Y-14279595D01*
X15211500Y-14279595D02*
X15201977Y-14260548D01*
X15201977Y-14260548D02*
X15182929Y-14231976D01*
X15182929Y-14231976D02*
X15173405Y-14222452D01*
D13*
X10411500Y-14622500D02*
G75*
G03*
X10411500Y-14622500I-40000J0D01*
G01*
D11*
X10697214Y-14515024D02*
X10716262Y-14515024D01*
X10716262Y-14515024D02*
X10735310Y-14524548D01*
X10735310Y-14524548D02*
X10744833Y-14534071D01*
X10744833Y-14534071D02*
X10754357Y-14553119D01*
X10754357Y-14553119D02*
X10763881Y-14591214D01*
X10763881Y-14591214D02*
X10763881Y-14638833D01*
X10763881Y-14638833D02*
X10754357Y-14676928D01*
X10754357Y-14676928D02*
X10744833Y-14695976D01*
X10744833Y-14695976D02*
X10735310Y-14705500D01*
X10735310Y-14705500D02*
X10716262Y-14715024D01*
X10716262Y-14715024D02*
X10697214Y-14715024D01*
X10697214Y-14715024D02*
X10678167Y-14705500D01*
X10678167Y-14705500D02*
X10668643Y-14695976D01*
X10668643Y-14695976D02*
X10659119Y-14676928D01*
X10659119Y-14676928D02*
X10649595Y-14638833D01*
X10649595Y-14638833D02*
X10649595Y-14591214D01*
X10649595Y-14591214D02*
X10659119Y-14553119D01*
X10659119Y-14553119D02*
X10668643Y-14534071D01*
X10668643Y-14534071D02*
X10678167Y-14524548D01*
X10678167Y-14524548D02*
X10697214Y-14515024D01*
X10849595Y-14695976D02*
X10859119Y-14705500D01*
X10859119Y-14705500D02*
X10849595Y-14715024D01*
X10849595Y-14715024D02*
X10840071Y-14705500D01*
X10840071Y-14705500D02*
X10849595Y-14695976D01*
X10849595Y-14695976D02*
X10849595Y-14715024D01*
X10973405Y-14600738D02*
X10954357Y-14591214D01*
X10954357Y-14591214D02*
X10944833Y-14581690D01*
X10944833Y-14581690D02*
X10935310Y-14562643D01*
X10935310Y-14562643D02*
X10935310Y-14553119D01*
X10935310Y-14553119D02*
X10944833Y-14534071D01*
X10944833Y-14534071D02*
X10954357Y-14524548D01*
X10954357Y-14524548D02*
X10973405Y-14515024D01*
X10973405Y-14515024D02*
X11011500Y-14515024D01*
X11011500Y-14515024D02*
X11030548Y-14524548D01*
X11030548Y-14524548D02*
X11040071Y-14534071D01*
X11040071Y-14534071D02*
X11049595Y-14553119D01*
X11049595Y-14553119D02*
X11049595Y-14562643D01*
X11049595Y-14562643D02*
X11040071Y-14581690D01*
X11040071Y-14581690D02*
X11030548Y-14591214D01*
X11030548Y-14591214D02*
X11011500Y-14600738D01*
X11011500Y-14600738D02*
X10973405Y-14600738D01*
X10973405Y-14600738D02*
X10954357Y-14610262D01*
X10954357Y-14610262D02*
X10944833Y-14619786D01*
X10944833Y-14619786D02*
X10935310Y-14638833D01*
X10935310Y-14638833D02*
X10935310Y-14676928D01*
X10935310Y-14676928D02*
X10944833Y-14695976D01*
X10944833Y-14695976D02*
X10954357Y-14705500D01*
X10954357Y-14705500D02*
X10973405Y-14715024D01*
X10973405Y-14715024D02*
X11011500Y-14715024D01*
X11011500Y-14715024D02*
X11030548Y-14705500D01*
X11030548Y-14705500D02*
X11040071Y-14695976D01*
X11040071Y-14695976D02*
X11049595Y-14676928D01*
X11049595Y-14676928D02*
X11049595Y-14638833D01*
X11049595Y-14638833D02*
X11040071Y-14619786D01*
X11040071Y-14619786D02*
X11030548Y-14610262D01*
X11030548Y-14610262D02*
X11011500Y-14600738D01*
X11173405Y-14515024D02*
X11192452Y-14515024D01*
X11192452Y-14515024D02*
X11211500Y-14524548D01*
X11211500Y-14524548D02*
X11221024Y-14534071D01*
X11221024Y-14534071D02*
X11230548Y-14553119D01*
X11230548Y-14553119D02*
X11240071Y-14591214D01*
X11240071Y-14591214D02*
X11240071Y-14638833D01*
X11240071Y-14638833D02*
X11230548Y-14676928D01*
X11230548Y-14676928D02*
X11221024Y-14695976D01*
X11221024Y-14695976D02*
X11211500Y-14705500D01*
X11211500Y-14705500D02*
X11192452Y-14715024D01*
X11192452Y-14715024D02*
X11173405Y-14715024D01*
X11173405Y-14715024D02*
X11154357Y-14705500D01*
X11154357Y-14705500D02*
X11144833Y-14695976D01*
X11144833Y-14695976D02*
X11135310Y-14676928D01*
X11135310Y-14676928D02*
X11125786Y-14638833D01*
X11125786Y-14638833D02*
X11125786Y-14591214D01*
X11125786Y-14591214D02*
X11135310Y-14553119D01*
X11135310Y-14553119D02*
X11144833Y-14534071D01*
X11144833Y-14534071D02*
X11154357Y-14524548D01*
X11154357Y-14524548D02*
X11173405Y-14515024D01*
X11363881Y-14515024D02*
X11382929Y-14515024D01*
X11382929Y-14515024D02*
X11401976Y-14524548D01*
X11401976Y-14524548D02*
X11411500Y-14534071D01*
X11411500Y-14534071D02*
X11421024Y-14553119D01*
X11421024Y-14553119D02*
X11430548Y-14591214D01*
X11430548Y-14591214D02*
X11430548Y-14638833D01*
X11430548Y-14638833D02*
X11421024Y-14676928D01*
X11421024Y-14676928D02*
X11411500Y-14695976D01*
X11411500Y-14695976D02*
X11401976Y-14705500D01*
X11401976Y-14705500D02*
X11382929Y-14715024D01*
X11382929Y-14715024D02*
X11363881Y-14715024D01*
X11363881Y-14715024D02*
X11344833Y-14705500D01*
X11344833Y-14705500D02*
X11335309Y-14695976D01*
X11335309Y-14695976D02*
X11325786Y-14676928D01*
X11325786Y-14676928D02*
X11316262Y-14638833D01*
X11316262Y-14638833D02*
X11316262Y-14591214D01*
X11316262Y-14591214D02*
X11325786Y-14553119D01*
X11325786Y-14553119D02*
X11335309Y-14534071D01*
X11335309Y-14534071D02*
X11344833Y-14524548D01*
X11344833Y-14524548D02*
X11363881Y-14515024D01*
X11516262Y-14715024D02*
X11516262Y-14581690D01*
X11516262Y-14600738D02*
X11525786Y-14591214D01*
X11525786Y-14591214D02*
X11544833Y-14581690D01*
X11544833Y-14581690D02*
X11573405Y-14581690D01*
X11573405Y-14581690D02*
X11592452Y-14591214D01*
X11592452Y-14591214D02*
X11601976Y-14610262D01*
X11601976Y-14610262D02*
X11601976Y-14715024D01*
X11601976Y-14610262D02*
X11611500Y-14591214D01*
X11611500Y-14591214D02*
X11630548Y-14581690D01*
X11630548Y-14581690D02*
X11659119Y-14581690D01*
X11659119Y-14581690D02*
X11678167Y-14591214D01*
X11678167Y-14591214D02*
X11687690Y-14610262D01*
X11687690Y-14610262D02*
X11687690Y-14715024D01*
X11782929Y-14715024D02*
X11782929Y-14581690D01*
X11782929Y-14600738D02*
X11792452Y-14591214D01*
X11792452Y-14591214D02*
X11811500Y-14581690D01*
X11811500Y-14581690D02*
X11840071Y-14581690D01*
X11840071Y-14581690D02*
X11859119Y-14591214D01*
X11859119Y-14591214D02*
X11868643Y-14610262D01*
X11868643Y-14610262D02*
X11868643Y-14715024D01*
X11868643Y-14610262D02*
X11878167Y-14591214D01*
X11878167Y-14591214D02*
X11897214Y-14581690D01*
X11897214Y-14581690D02*
X11925786Y-14581690D01*
X11925786Y-14581690D02*
X11944833Y-14591214D01*
X11944833Y-14591214D02*
X11954357Y-14610262D01*
X11954357Y-14610262D02*
X11954357Y-14715024D01*
X12344833Y-14505500D02*
X12173405Y-14762643D01*
X12601976Y-14515024D02*
X12621024Y-14515024D01*
X12621024Y-14515024D02*
X12640072Y-14524548D01*
X12640072Y-14524548D02*
X12649595Y-14534071D01*
X12649595Y-14534071D02*
X12659119Y-14553119D01*
X12659119Y-14553119D02*
X12668643Y-14591214D01*
X12668643Y-14591214D02*
X12668643Y-14638833D01*
X12668643Y-14638833D02*
X12659119Y-14676928D01*
X12659119Y-14676928D02*
X12649595Y-14695976D01*
X12649595Y-14695976D02*
X12640072Y-14705500D01*
X12640072Y-14705500D02*
X12621024Y-14715024D01*
X12621024Y-14715024D02*
X12601976Y-14715024D01*
X12601976Y-14715024D02*
X12582929Y-14705500D01*
X12582929Y-14705500D02*
X12573405Y-14695976D01*
X12573405Y-14695976D02*
X12563881Y-14676928D01*
X12563881Y-14676928D02*
X12554357Y-14638833D01*
X12554357Y-14638833D02*
X12554357Y-14591214D01*
X12554357Y-14591214D02*
X12563881Y-14553119D01*
X12563881Y-14553119D02*
X12573405Y-14534071D01*
X12573405Y-14534071D02*
X12582929Y-14524548D01*
X12582929Y-14524548D02*
X12601976Y-14515024D01*
X12754357Y-14695976D02*
X12763881Y-14705500D01*
X12763881Y-14705500D02*
X12754357Y-14715024D01*
X12754357Y-14715024D02*
X12744833Y-14705500D01*
X12744833Y-14705500D02*
X12754357Y-14695976D01*
X12754357Y-14695976D02*
X12754357Y-14715024D01*
X12887691Y-14515024D02*
X12906738Y-14515024D01*
X12906738Y-14515024D02*
X12925786Y-14524548D01*
X12925786Y-14524548D02*
X12935310Y-14534071D01*
X12935310Y-14534071D02*
X12944833Y-14553119D01*
X12944833Y-14553119D02*
X12954357Y-14591214D01*
X12954357Y-14591214D02*
X12954357Y-14638833D01*
X12954357Y-14638833D02*
X12944833Y-14676928D01*
X12944833Y-14676928D02*
X12935310Y-14695976D01*
X12935310Y-14695976D02*
X12925786Y-14705500D01*
X12925786Y-14705500D02*
X12906738Y-14715024D01*
X12906738Y-14715024D02*
X12887691Y-14715024D01*
X12887691Y-14715024D02*
X12868643Y-14705500D01*
X12868643Y-14705500D02*
X12859119Y-14695976D01*
X12859119Y-14695976D02*
X12849595Y-14676928D01*
X12849595Y-14676928D02*
X12840072Y-14638833D01*
X12840072Y-14638833D02*
X12840072Y-14591214D01*
X12840072Y-14591214D02*
X12849595Y-14553119D01*
X12849595Y-14553119D02*
X12859119Y-14534071D01*
X12859119Y-14534071D02*
X12868643Y-14524548D01*
X12868643Y-14524548D02*
X12887691Y-14515024D01*
X13021024Y-14515024D02*
X13144833Y-14515024D01*
X13144833Y-14515024D02*
X13078167Y-14591214D01*
X13078167Y-14591214D02*
X13106738Y-14591214D01*
X13106738Y-14591214D02*
X13125786Y-14600738D01*
X13125786Y-14600738D02*
X13135310Y-14610262D01*
X13135310Y-14610262D02*
X13144833Y-14629309D01*
X13144833Y-14629309D02*
X13144833Y-14676928D01*
X13144833Y-14676928D02*
X13135310Y-14695976D01*
X13135310Y-14695976D02*
X13125786Y-14705500D01*
X13125786Y-14705500D02*
X13106738Y-14715024D01*
X13106738Y-14715024D02*
X13049595Y-14715024D01*
X13049595Y-14715024D02*
X13030548Y-14705500D01*
X13030548Y-14705500D02*
X13021024Y-14695976D01*
X13335310Y-14715024D02*
X13221024Y-14715024D01*
X13278167Y-14715024D02*
X13278167Y-14515024D01*
X13278167Y-14515024D02*
X13259119Y-14543595D01*
X13259119Y-14543595D02*
X13240072Y-14562643D01*
X13240072Y-14562643D02*
X13221024Y-14572167D01*
X13516262Y-14515024D02*
X13421024Y-14515024D01*
X13421024Y-14515024D02*
X13411500Y-14610262D01*
X13411500Y-14610262D02*
X13421024Y-14600738D01*
X13421024Y-14600738D02*
X13440072Y-14591214D01*
X13440072Y-14591214D02*
X13487691Y-14591214D01*
X13487691Y-14591214D02*
X13506738Y-14600738D01*
X13506738Y-14600738D02*
X13516262Y-14610262D01*
X13516262Y-14610262D02*
X13525786Y-14629309D01*
X13525786Y-14629309D02*
X13525786Y-14676928D01*
X13525786Y-14676928D02*
X13516262Y-14695976D01*
X13516262Y-14695976D02*
X13506738Y-14705500D01*
X13506738Y-14705500D02*
X13487691Y-14715024D01*
X13487691Y-14715024D02*
X13440072Y-14715024D01*
X13440072Y-14715024D02*
X13421024Y-14705500D01*
X13421024Y-14705500D02*
X13411500Y-14695976D01*
X13601976Y-14515024D02*
X13601976Y-14553119D01*
X13678167Y-14515024D02*
X13678167Y-14553119D01*
X13973405Y-14791214D02*
X13963881Y-14781690D01*
X13963881Y-14781690D02*
X13944834Y-14753119D01*
X13944834Y-14753119D02*
X13935310Y-14734071D01*
X13935310Y-14734071D02*
X13925786Y-14705500D01*
X13925786Y-14705500D02*
X13916262Y-14657881D01*
X13916262Y-14657881D02*
X13916262Y-14619786D01*
X13916262Y-14619786D02*
X13925786Y-14572167D01*
X13925786Y-14572167D02*
X13935310Y-14543595D01*
X13935310Y-14543595D02*
X13944834Y-14524548D01*
X13944834Y-14524548D02*
X13963881Y-14495976D01*
X13963881Y-14495976D02*
X13973405Y-14486452D01*
X14040072Y-14534071D02*
X14049595Y-14524548D01*
X14049595Y-14524548D02*
X14068643Y-14515024D01*
X14068643Y-14515024D02*
X14116262Y-14515024D01*
X14116262Y-14515024D02*
X14135310Y-14524548D01*
X14135310Y-14524548D02*
X14144834Y-14534071D01*
X14144834Y-14534071D02*
X14154357Y-14553119D01*
X14154357Y-14553119D02*
X14154357Y-14572167D01*
X14154357Y-14572167D02*
X14144834Y-14600738D01*
X14144834Y-14600738D02*
X14030548Y-14715024D01*
X14030548Y-14715024D02*
X14154357Y-14715024D01*
X14230548Y-14534071D02*
X14240072Y-14524548D01*
X14240072Y-14524548D02*
X14259119Y-14515024D01*
X14259119Y-14515024D02*
X14306738Y-14515024D01*
X14306738Y-14515024D02*
X14325786Y-14524548D01*
X14325786Y-14524548D02*
X14335310Y-14534071D01*
X14335310Y-14534071D02*
X14344834Y-14553119D01*
X14344834Y-14553119D02*
X14344834Y-14572167D01*
X14344834Y-14572167D02*
X14335310Y-14600738D01*
X14335310Y-14600738D02*
X14221024Y-14715024D01*
X14221024Y-14715024D02*
X14344834Y-14715024D01*
X14582929Y-14715024D02*
X14582929Y-14515024D01*
X14668643Y-14715024D02*
X14668643Y-14610262D01*
X14668643Y-14610262D02*
X14659119Y-14591214D01*
X14659119Y-14591214D02*
X14640072Y-14581690D01*
X14640072Y-14581690D02*
X14611500Y-14581690D01*
X14611500Y-14581690D02*
X14592453Y-14591214D01*
X14592453Y-14591214D02*
X14582929Y-14600738D01*
X14792453Y-14715024D02*
X14773405Y-14705500D01*
X14773405Y-14705500D02*
X14763881Y-14695976D01*
X14763881Y-14695976D02*
X14754357Y-14676928D01*
X14754357Y-14676928D02*
X14754357Y-14619786D01*
X14754357Y-14619786D02*
X14763881Y-14600738D01*
X14763881Y-14600738D02*
X14773405Y-14591214D01*
X14773405Y-14591214D02*
X14792453Y-14581690D01*
X14792453Y-14581690D02*
X14821024Y-14581690D01*
X14821024Y-14581690D02*
X14840072Y-14591214D01*
X14840072Y-14591214D02*
X14849596Y-14600738D01*
X14849596Y-14600738D02*
X14859119Y-14619786D01*
X14859119Y-14619786D02*
X14859119Y-14676928D01*
X14859119Y-14676928D02*
X14849596Y-14695976D01*
X14849596Y-14695976D02*
X14840072Y-14705500D01*
X14840072Y-14705500D02*
X14821024Y-14715024D01*
X14821024Y-14715024D02*
X14792453Y-14715024D01*
X14973405Y-14715024D02*
X14954357Y-14705500D01*
X14954357Y-14705500D02*
X14944834Y-14686452D01*
X14944834Y-14686452D02*
X14944834Y-14515024D01*
X15125786Y-14705500D02*
X15106738Y-14715024D01*
X15106738Y-14715024D02*
X15068643Y-14715024D01*
X15068643Y-14715024D02*
X15049596Y-14705500D01*
X15049596Y-14705500D02*
X15040072Y-14686452D01*
X15040072Y-14686452D02*
X15040072Y-14610262D01*
X15040072Y-14610262D02*
X15049596Y-14591214D01*
X15049596Y-14591214D02*
X15068643Y-14581690D01*
X15068643Y-14581690D02*
X15106738Y-14581690D01*
X15106738Y-14581690D02*
X15125786Y-14591214D01*
X15125786Y-14591214D02*
X15135310Y-14610262D01*
X15135310Y-14610262D02*
X15135310Y-14629309D01*
X15135310Y-14629309D02*
X15040072Y-14648357D01*
X15211500Y-14705500D02*
X15230548Y-14715024D01*
X15230548Y-14715024D02*
X15268643Y-14715024D01*
X15268643Y-14715024D02*
X15287691Y-14705500D01*
X15287691Y-14705500D02*
X15297215Y-14686452D01*
X15297215Y-14686452D02*
X15297215Y-14676928D01*
X15297215Y-14676928D02*
X15287691Y-14657881D01*
X15287691Y-14657881D02*
X15268643Y-14648357D01*
X15268643Y-14648357D02*
X15240072Y-14648357D01*
X15240072Y-14648357D02*
X15221024Y-14638833D01*
X15221024Y-14638833D02*
X15211500Y-14619786D01*
X15211500Y-14619786D02*
X15211500Y-14610262D01*
X15211500Y-14610262D02*
X15221024Y-14591214D01*
X15221024Y-14591214D02*
X15240072Y-14581690D01*
X15240072Y-14581690D02*
X15268643Y-14581690D01*
X15268643Y-14581690D02*
X15287691Y-14591214D01*
X15363881Y-14791214D02*
X15373405Y-14781690D01*
X15373405Y-14781690D02*
X15392453Y-14753119D01*
X15392453Y-14753119D02*
X15401977Y-14734071D01*
X15401977Y-14734071D02*
X15411500Y-14705500D01*
X15411500Y-14705500D02*
X15421024Y-14657881D01*
X15421024Y-14657881D02*
X15421024Y-14619786D01*
X15421024Y-14619786D02*
X15411500Y-14572167D01*
X15411500Y-14572167D02*
X15401977Y-14543595D01*
X15401977Y-14543595D02*
X15392453Y-14524548D01*
X15392453Y-14524548D02*
X15373405Y-14495976D01*
X15373405Y-14495976D02*
X15363881Y-14486452D01*
D14*
X10360700Y-14835700D02*
X10360700Y-14937300D01*
X10309900Y-14886500D02*
X10411500Y-14886500D01*
D11*
X10763881Y-14979024D02*
X10649595Y-14979024D01*
X10706738Y-14979024D02*
X10706738Y-14779024D01*
X10706738Y-14779024D02*
X10687690Y-14807595D01*
X10687690Y-14807595D02*
X10668643Y-14826643D01*
X10668643Y-14826643D02*
X10649595Y-14836167D01*
X10849595Y-14959976D02*
X10859119Y-14969500D01*
X10859119Y-14969500D02*
X10849595Y-14979024D01*
X10849595Y-14979024D02*
X10840071Y-14969500D01*
X10840071Y-14969500D02*
X10849595Y-14959976D01*
X10849595Y-14959976D02*
X10849595Y-14979024D01*
X10982929Y-14779024D02*
X11001976Y-14779024D01*
X11001976Y-14779024D02*
X11021024Y-14788548D01*
X11021024Y-14788548D02*
X11030548Y-14798071D01*
X11030548Y-14798071D02*
X11040071Y-14817119D01*
X11040071Y-14817119D02*
X11049595Y-14855214D01*
X11049595Y-14855214D02*
X11049595Y-14902833D01*
X11049595Y-14902833D02*
X11040071Y-14940928D01*
X11040071Y-14940928D02*
X11030548Y-14959976D01*
X11030548Y-14959976D02*
X11021024Y-14969500D01*
X11021024Y-14969500D02*
X11001976Y-14979024D01*
X11001976Y-14979024D02*
X10982929Y-14979024D01*
X10982929Y-14979024D02*
X10963881Y-14969500D01*
X10963881Y-14969500D02*
X10954357Y-14959976D01*
X10954357Y-14959976D02*
X10944833Y-14940928D01*
X10944833Y-14940928D02*
X10935310Y-14902833D01*
X10935310Y-14902833D02*
X10935310Y-14855214D01*
X10935310Y-14855214D02*
X10944833Y-14817119D01*
X10944833Y-14817119D02*
X10954357Y-14798071D01*
X10954357Y-14798071D02*
X10963881Y-14788548D01*
X10963881Y-14788548D02*
X10982929Y-14779024D01*
X11240071Y-14979024D02*
X11125786Y-14979024D01*
X11182929Y-14979024D02*
X11182929Y-14779024D01*
X11182929Y-14779024D02*
X11163881Y-14807595D01*
X11163881Y-14807595D02*
X11144833Y-14826643D01*
X11144833Y-14826643D02*
X11125786Y-14836167D01*
X11411500Y-14779024D02*
X11373405Y-14779024D01*
X11373405Y-14779024D02*
X11354357Y-14788548D01*
X11354357Y-14788548D02*
X11344833Y-14798071D01*
X11344833Y-14798071D02*
X11325786Y-14826643D01*
X11325786Y-14826643D02*
X11316262Y-14864738D01*
X11316262Y-14864738D02*
X11316262Y-14940928D01*
X11316262Y-14940928D02*
X11325786Y-14959976D01*
X11325786Y-14959976D02*
X11335309Y-14969500D01*
X11335309Y-14969500D02*
X11354357Y-14979024D01*
X11354357Y-14979024D02*
X11392452Y-14979024D01*
X11392452Y-14979024D02*
X11411500Y-14969500D01*
X11411500Y-14969500D02*
X11421024Y-14959976D01*
X11421024Y-14959976D02*
X11430548Y-14940928D01*
X11430548Y-14940928D02*
X11430548Y-14893309D01*
X11430548Y-14893309D02*
X11421024Y-14874262D01*
X11421024Y-14874262D02*
X11411500Y-14864738D01*
X11411500Y-14864738D02*
X11392452Y-14855214D01*
X11392452Y-14855214D02*
X11354357Y-14855214D01*
X11354357Y-14855214D02*
X11335309Y-14864738D01*
X11335309Y-14864738D02*
X11325786Y-14874262D01*
X11325786Y-14874262D02*
X11316262Y-14893309D01*
X11516262Y-14979024D02*
X11516262Y-14845690D01*
X11516262Y-14864738D02*
X11525786Y-14855214D01*
X11525786Y-14855214D02*
X11544833Y-14845690D01*
X11544833Y-14845690D02*
X11573405Y-14845690D01*
X11573405Y-14845690D02*
X11592452Y-14855214D01*
X11592452Y-14855214D02*
X11601976Y-14874262D01*
X11601976Y-14874262D02*
X11601976Y-14979024D01*
X11601976Y-14874262D02*
X11611500Y-14855214D01*
X11611500Y-14855214D02*
X11630548Y-14845690D01*
X11630548Y-14845690D02*
X11659119Y-14845690D01*
X11659119Y-14845690D02*
X11678167Y-14855214D01*
X11678167Y-14855214D02*
X11687690Y-14874262D01*
X11687690Y-14874262D02*
X11687690Y-14979024D01*
X11782929Y-14979024D02*
X11782929Y-14845690D01*
X11782929Y-14864738D02*
X11792452Y-14855214D01*
X11792452Y-14855214D02*
X11811500Y-14845690D01*
X11811500Y-14845690D02*
X11840071Y-14845690D01*
X11840071Y-14845690D02*
X11859119Y-14855214D01*
X11859119Y-14855214D02*
X11868643Y-14874262D01*
X11868643Y-14874262D02*
X11868643Y-14979024D01*
X11868643Y-14874262D02*
X11878167Y-14855214D01*
X11878167Y-14855214D02*
X11897214Y-14845690D01*
X11897214Y-14845690D02*
X11925786Y-14845690D01*
X11925786Y-14845690D02*
X11944833Y-14855214D01*
X11944833Y-14855214D02*
X11954357Y-14874262D01*
X11954357Y-14874262D02*
X11954357Y-14979024D01*
X12344833Y-14769500D02*
X12173405Y-15026643D01*
X12601976Y-14779024D02*
X12621024Y-14779024D01*
X12621024Y-14779024D02*
X12640072Y-14788548D01*
X12640072Y-14788548D02*
X12649595Y-14798071D01*
X12649595Y-14798071D02*
X12659119Y-14817119D01*
X12659119Y-14817119D02*
X12668643Y-14855214D01*
X12668643Y-14855214D02*
X12668643Y-14902833D01*
X12668643Y-14902833D02*
X12659119Y-14940928D01*
X12659119Y-14940928D02*
X12649595Y-14959976D01*
X12649595Y-14959976D02*
X12640072Y-14969500D01*
X12640072Y-14969500D02*
X12621024Y-14979024D01*
X12621024Y-14979024D02*
X12601976Y-14979024D01*
X12601976Y-14979024D02*
X12582929Y-14969500D01*
X12582929Y-14969500D02*
X12573405Y-14959976D01*
X12573405Y-14959976D02*
X12563881Y-14940928D01*
X12563881Y-14940928D02*
X12554357Y-14902833D01*
X12554357Y-14902833D02*
X12554357Y-14855214D01*
X12554357Y-14855214D02*
X12563881Y-14817119D01*
X12563881Y-14817119D02*
X12573405Y-14798071D01*
X12573405Y-14798071D02*
X12582929Y-14788548D01*
X12582929Y-14788548D02*
X12601976Y-14779024D01*
X12754357Y-14959976D02*
X12763881Y-14969500D01*
X12763881Y-14969500D02*
X12754357Y-14979024D01*
X12754357Y-14979024D02*
X12744833Y-14969500D01*
X12744833Y-14969500D02*
X12754357Y-14959976D01*
X12754357Y-14959976D02*
X12754357Y-14979024D01*
X12887691Y-14779024D02*
X12906738Y-14779024D01*
X12906738Y-14779024D02*
X12925786Y-14788548D01*
X12925786Y-14788548D02*
X12935310Y-14798071D01*
X12935310Y-14798071D02*
X12944833Y-14817119D01*
X12944833Y-14817119D02*
X12954357Y-14855214D01*
X12954357Y-14855214D02*
X12954357Y-14902833D01*
X12954357Y-14902833D02*
X12944833Y-14940928D01*
X12944833Y-14940928D02*
X12935310Y-14959976D01*
X12935310Y-14959976D02*
X12925786Y-14969500D01*
X12925786Y-14969500D02*
X12906738Y-14979024D01*
X12906738Y-14979024D02*
X12887691Y-14979024D01*
X12887691Y-14979024D02*
X12868643Y-14969500D01*
X12868643Y-14969500D02*
X12859119Y-14959976D01*
X12859119Y-14959976D02*
X12849595Y-14940928D01*
X12849595Y-14940928D02*
X12840072Y-14902833D01*
X12840072Y-14902833D02*
X12840072Y-14855214D01*
X12840072Y-14855214D02*
X12849595Y-14817119D01*
X12849595Y-14817119D02*
X12859119Y-14798071D01*
X12859119Y-14798071D02*
X12868643Y-14788548D01*
X12868643Y-14788548D02*
X12887691Y-14779024D01*
X13125786Y-14845690D02*
X13125786Y-14979024D01*
X13078167Y-14769500D02*
X13030548Y-14912357D01*
X13030548Y-14912357D02*
X13154357Y-14912357D01*
X13268643Y-14779024D02*
X13287691Y-14779024D01*
X13287691Y-14779024D02*
X13306738Y-14788548D01*
X13306738Y-14788548D02*
X13316262Y-14798071D01*
X13316262Y-14798071D02*
X13325786Y-14817119D01*
X13325786Y-14817119D02*
X13335310Y-14855214D01*
X13335310Y-14855214D02*
X13335310Y-14902833D01*
X13335310Y-14902833D02*
X13325786Y-14940928D01*
X13325786Y-14940928D02*
X13316262Y-14959976D01*
X13316262Y-14959976D02*
X13306738Y-14969500D01*
X13306738Y-14969500D02*
X13287691Y-14979024D01*
X13287691Y-14979024D02*
X13268643Y-14979024D01*
X13268643Y-14979024D02*
X13249595Y-14969500D01*
X13249595Y-14969500D02*
X13240072Y-14959976D01*
X13240072Y-14959976D02*
X13230548Y-14940928D01*
X13230548Y-14940928D02*
X13221024Y-14902833D01*
X13221024Y-14902833D02*
X13221024Y-14855214D01*
X13221024Y-14855214D02*
X13230548Y-14817119D01*
X13230548Y-14817119D02*
X13240072Y-14798071D01*
X13240072Y-14798071D02*
X13249595Y-14788548D01*
X13249595Y-14788548D02*
X13268643Y-14779024D01*
X13459119Y-14779024D02*
X13478167Y-14779024D01*
X13478167Y-14779024D02*
X13497214Y-14788548D01*
X13497214Y-14788548D02*
X13506738Y-14798071D01*
X13506738Y-14798071D02*
X13516262Y-14817119D01*
X13516262Y-14817119D02*
X13525786Y-14855214D01*
X13525786Y-14855214D02*
X13525786Y-14902833D01*
X13525786Y-14902833D02*
X13516262Y-14940928D01*
X13516262Y-14940928D02*
X13506738Y-14959976D01*
X13506738Y-14959976D02*
X13497214Y-14969500D01*
X13497214Y-14969500D02*
X13478167Y-14979024D01*
X13478167Y-14979024D02*
X13459119Y-14979024D01*
X13459119Y-14979024D02*
X13440072Y-14969500D01*
X13440072Y-14969500D02*
X13430548Y-14959976D01*
X13430548Y-14959976D02*
X13421024Y-14940928D01*
X13421024Y-14940928D02*
X13411500Y-14902833D01*
X13411500Y-14902833D02*
X13411500Y-14855214D01*
X13411500Y-14855214D02*
X13421024Y-14817119D01*
X13421024Y-14817119D02*
X13430548Y-14798071D01*
X13430548Y-14798071D02*
X13440072Y-14788548D01*
X13440072Y-14788548D02*
X13459119Y-14779024D01*
X13601976Y-14779024D02*
X13601976Y-14817119D01*
X13678167Y-14779024D02*
X13678167Y-14817119D01*
X13973405Y-15055214D02*
X13963881Y-15045690D01*
X13963881Y-15045690D02*
X13944834Y-15017119D01*
X13944834Y-15017119D02*
X13935310Y-14998071D01*
X13935310Y-14998071D02*
X13925786Y-14969500D01*
X13925786Y-14969500D02*
X13916262Y-14921881D01*
X13916262Y-14921881D02*
X13916262Y-14883786D01*
X13916262Y-14883786D02*
X13925786Y-14836167D01*
X13925786Y-14836167D02*
X13935310Y-14807595D01*
X13935310Y-14807595D02*
X13944834Y-14788548D01*
X13944834Y-14788548D02*
X13963881Y-14759976D01*
X13963881Y-14759976D02*
X13973405Y-14750452D01*
X14040072Y-14798071D02*
X14049595Y-14788548D01*
X14049595Y-14788548D02*
X14068643Y-14779024D01*
X14068643Y-14779024D02*
X14116262Y-14779024D01*
X14116262Y-14779024D02*
X14135310Y-14788548D01*
X14135310Y-14788548D02*
X14144834Y-14798071D01*
X14144834Y-14798071D02*
X14154357Y-14817119D01*
X14154357Y-14817119D02*
X14154357Y-14836167D01*
X14154357Y-14836167D02*
X14144834Y-14864738D01*
X14144834Y-14864738D02*
X14030548Y-14979024D01*
X14030548Y-14979024D02*
X14154357Y-14979024D01*
X14392453Y-14979024D02*
X14392453Y-14779024D01*
X14478167Y-14979024D02*
X14478167Y-14874262D01*
X14478167Y-14874262D02*
X14468643Y-14855214D01*
X14468643Y-14855214D02*
X14449596Y-14845690D01*
X14449596Y-14845690D02*
X14421024Y-14845690D01*
X14421024Y-14845690D02*
X14401976Y-14855214D01*
X14401976Y-14855214D02*
X14392453Y-14864738D01*
X14601976Y-14979024D02*
X14582929Y-14969500D01*
X14582929Y-14969500D02*
X14573405Y-14959976D01*
X14573405Y-14959976D02*
X14563881Y-14940928D01*
X14563881Y-14940928D02*
X14563881Y-14883786D01*
X14563881Y-14883786D02*
X14573405Y-14864738D01*
X14573405Y-14864738D02*
X14582929Y-14855214D01*
X14582929Y-14855214D02*
X14601976Y-14845690D01*
X14601976Y-14845690D02*
X14630548Y-14845690D01*
X14630548Y-14845690D02*
X14649596Y-14855214D01*
X14649596Y-14855214D02*
X14659119Y-14864738D01*
X14659119Y-14864738D02*
X14668643Y-14883786D01*
X14668643Y-14883786D02*
X14668643Y-14940928D01*
X14668643Y-14940928D02*
X14659119Y-14959976D01*
X14659119Y-14959976D02*
X14649596Y-14969500D01*
X14649596Y-14969500D02*
X14630548Y-14979024D01*
X14630548Y-14979024D02*
X14601976Y-14979024D01*
X14782929Y-14979024D02*
X14763881Y-14969500D01*
X14763881Y-14969500D02*
X14754357Y-14950452D01*
X14754357Y-14950452D02*
X14754357Y-14779024D01*
X14935310Y-14969500D02*
X14916262Y-14979024D01*
X14916262Y-14979024D02*
X14878167Y-14979024D01*
X14878167Y-14979024D02*
X14859119Y-14969500D01*
X14859119Y-14969500D02*
X14849596Y-14950452D01*
X14849596Y-14950452D02*
X14849596Y-14874262D01*
X14849596Y-14874262D02*
X14859119Y-14855214D01*
X14859119Y-14855214D02*
X14878167Y-14845690D01*
X14878167Y-14845690D02*
X14916262Y-14845690D01*
X14916262Y-14845690D02*
X14935310Y-14855214D01*
X14935310Y-14855214D02*
X14944834Y-14874262D01*
X14944834Y-14874262D02*
X14944834Y-14893309D01*
X14944834Y-14893309D02*
X14849596Y-14912357D01*
X15021024Y-14969500D02*
X15040072Y-14979024D01*
X15040072Y-14979024D02*
X15078167Y-14979024D01*
X15078167Y-14979024D02*
X15097215Y-14969500D01*
X15097215Y-14969500D02*
X15106738Y-14950452D01*
X15106738Y-14950452D02*
X15106738Y-14940928D01*
X15106738Y-14940928D02*
X15097215Y-14921881D01*
X15097215Y-14921881D02*
X15078167Y-14912357D01*
X15078167Y-14912357D02*
X15049596Y-14912357D01*
X15049596Y-14912357D02*
X15030548Y-14902833D01*
X15030548Y-14902833D02*
X15021024Y-14883786D01*
X15021024Y-14883786D02*
X15021024Y-14874262D01*
X15021024Y-14874262D02*
X15030548Y-14855214D01*
X15030548Y-14855214D02*
X15049596Y-14845690D01*
X15049596Y-14845690D02*
X15078167Y-14845690D01*
X15078167Y-14845690D02*
X15097215Y-14855214D01*
X15173405Y-15055214D02*
X15182929Y-15045690D01*
X15182929Y-15045690D02*
X15201977Y-15017119D01*
X15201977Y-15017119D02*
X15211500Y-14998071D01*
X15211500Y-14998071D02*
X15221024Y-14969500D01*
X15221024Y-14969500D02*
X15230548Y-14921881D01*
X15230548Y-14921881D02*
X15230548Y-14883786D01*
X15230548Y-14883786D02*
X15221024Y-14836167D01*
X15221024Y-14836167D02*
X15211500Y-14807595D01*
X15211500Y-14807595D02*
X15201977Y-14788548D01*
X15201977Y-14788548D02*
X15182929Y-14759976D01*
X15182929Y-14759976D02*
X15173405Y-14750452D01*
D15*
X10395391Y-15189391D02*
X10395391Y-15111609D01*
X10317609Y-15111609D01*
X10317609Y-15189391D01*
X10395391Y-15189391D01*
D11*
X10763881Y-15243024D02*
X10649595Y-15243024D01*
X10706738Y-15243024D02*
X10706738Y-15043024D01*
X10706738Y-15043024D02*
X10687690Y-15071595D01*
X10687690Y-15071595D02*
X10668643Y-15090643D01*
X10668643Y-15090643D02*
X10649595Y-15100167D01*
X10849595Y-15223976D02*
X10859119Y-15233500D01*
X10859119Y-15233500D02*
X10849595Y-15243024D01*
X10849595Y-15243024D02*
X10840071Y-15233500D01*
X10840071Y-15233500D02*
X10849595Y-15223976D01*
X10849595Y-15223976D02*
X10849595Y-15243024D01*
X11049595Y-15243024D02*
X10935310Y-15243024D01*
X10992452Y-15243024D02*
X10992452Y-15043024D01*
X10992452Y-15043024D02*
X10973405Y-15071595D01*
X10973405Y-15071595D02*
X10954357Y-15090643D01*
X10954357Y-15090643D02*
X10935310Y-15100167D01*
X11173405Y-15043024D02*
X11192452Y-15043024D01*
X11192452Y-15043024D02*
X11211500Y-15052548D01*
X11211500Y-15052548D02*
X11221024Y-15062071D01*
X11221024Y-15062071D02*
X11230548Y-15081119D01*
X11230548Y-15081119D02*
X11240071Y-15119214D01*
X11240071Y-15119214D02*
X11240071Y-15166833D01*
X11240071Y-15166833D02*
X11230548Y-15204928D01*
X11230548Y-15204928D02*
X11221024Y-15223976D01*
X11221024Y-15223976D02*
X11211500Y-15233500D01*
X11211500Y-15233500D02*
X11192452Y-15243024D01*
X11192452Y-15243024D02*
X11173405Y-15243024D01*
X11173405Y-15243024D02*
X11154357Y-15233500D01*
X11154357Y-15233500D02*
X11144833Y-15223976D01*
X11144833Y-15223976D02*
X11135310Y-15204928D01*
X11135310Y-15204928D02*
X11125786Y-15166833D01*
X11125786Y-15166833D02*
X11125786Y-15119214D01*
X11125786Y-15119214D02*
X11135310Y-15081119D01*
X11135310Y-15081119D02*
X11144833Y-15062071D01*
X11144833Y-15062071D02*
X11154357Y-15052548D01*
X11154357Y-15052548D02*
X11173405Y-15043024D01*
X11363881Y-15043024D02*
X11382929Y-15043024D01*
X11382929Y-15043024D02*
X11401976Y-15052548D01*
X11401976Y-15052548D02*
X11411500Y-15062071D01*
X11411500Y-15062071D02*
X11421024Y-15081119D01*
X11421024Y-15081119D02*
X11430548Y-15119214D01*
X11430548Y-15119214D02*
X11430548Y-15166833D01*
X11430548Y-15166833D02*
X11421024Y-15204928D01*
X11421024Y-15204928D02*
X11411500Y-15223976D01*
X11411500Y-15223976D02*
X11401976Y-15233500D01*
X11401976Y-15233500D02*
X11382929Y-15243024D01*
X11382929Y-15243024D02*
X11363881Y-15243024D01*
X11363881Y-15243024D02*
X11344833Y-15233500D01*
X11344833Y-15233500D02*
X11335309Y-15223976D01*
X11335309Y-15223976D02*
X11325786Y-15204928D01*
X11325786Y-15204928D02*
X11316262Y-15166833D01*
X11316262Y-15166833D02*
X11316262Y-15119214D01*
X11316262Y-15119214D02*
X11325786Y-15081119D01*
X11325786Y-15081119D02*
X11335309Y-15062071D01*
X11335309Y-15062071D02*
X11344833Y-15052548D01*
X11344833Y-15052548D02*
X11363881Y-15043024D01*
X11516262Y-15243024D02*
X11516262Y-15109690D01*
X11516262Y-15128738D02*
X11525786Y-15119214D01*
X11525786Y-15119214D02*
X11544833Y-15109690D01*
X11544833Y-15109690D02*
X11573405Y-15109690D01*
X11573405Y-15109690D02*
X11592452Y-15119214D01*
X11592452Y-15119214D02*
X11601976Y-15138262D01*
X11601976Y-15138262D02*
X11601976Y-15243024D01*
X11601976Y-15138262D02*
X11611500Y-15119214D01*
X11611500Y-15119214D02*
X11630548Y-15109690D01*
X11630548Y-15109690D02*
X11659119Y-15109690D01*
X11659119Y-15109690D02*
X11678167Y-15119214D01*
X11678167Y-15119214D02*
X11687690Y-15138262D01*
X11687690Y-15138262D02*
X11687690Y-15243024D01*
X11782929Y-15243024D02*
X11782929Y-15109690D01*
X11782929Y-15128738D02*
X11792452Y-15119214D01*
X11792452Y-15119214D02*
X11811500Y-15109690D01*
X11811500Y-15109690D02*
X11840071Y-15109690D01*
X11840071Y-15109690D02*
X11859119Y-15119214D01*
X11859119Y-15119214D02*
X11868643Y-15138262D01*
X11868643Y-15138262D02*
X11868643Y-15243024D01*
X11868643Y-15138262D02*
X11878167Y-15119214D01*
X11878167Y-15119214D02*
X11897214Y-15109690D01*
X11897214Y-15109690D02*
X11925786Y-15109690D01*
X11925786Y-15109690D02*
X11944833Y-15119214D01*
X11944833Y-15119214D02*
X11954357Y-15138262D01*
X11954357Y-15138262D02*
X11954357Y-15243024D01*
X12344833Y-15033500D02*
X12173405Y-15290643D01*
X12601976Y-15043024D02*
X12621024Y-15043024D01*
X12621024Y-15043024D02*
X12640072Y-15052548D01*
X12640072Y-15052548D02*
X12649595Y-15062071D01*
X12649595Y-15062071D02*
X12659119Y-15081119D01*
X12659119Y-15081119D02*
X12668643Y-15119214D01*
X12668643Y-15119214D02*
X12668643Y-15166833D01*
X12668643Y-15166833D02*
X12659119Y-15204928D01*
X12659119Y-15204928D02*
X12649595Y-15223976D01*
X12649595Y-15223976D02*
X12640072Y-15233500D01*
X12640072Y-15233500D02*
X12621024Y-15243024D01*
X12621024Y-15243024D02*
X12601976Y-15243024D01*
X12601976Y-15243024D02*
X12582929Y-15233500D01*
X12582929Y-15233500D02*
X12573405Y-15223976D01*
X12573405Y-15223976D02*
X12563881Y-15204928D01*
X12563881Y-15204928D02*
X12554357Y-15166833D01*
X12554357Y-15166833D02*
X12554357Y-15119214D01*
X12554357Y-15119214D02*
X12563881Y-15081119D01*
X12563881Y-15081119D02*
X12573405Y-15062071D01*
X12573405Y-15062071D02*
X12582929Y-15052548D01*
X12582929Y-15052548D02*
X12601976Y-15043024D01*
X12754357Y-15223976D02*
X12763881Y-15233500D01*
X12763881Y-15233500D02*
X12754357Y-15243024D01*
X12754357Y-15243024D02*
X12744833Y-15233500D01*
X12744833Y-15233500D02*
X12754357Y-15223976D01*
X12754357Y-15223976D02*
X12754357Y-15243024D01*
X12887691Y-15043024D02*
X12906738Y-15043024D01*
X12906738Y-15043024D02*
X12925786Y-15052548D01*
X12925786Y-15052548D02*
X12935310Y-15062071D01*
X12935310Y-15062071D02*
X12944833Y-15081119D01*
X12944833Y-15081119D02*
X12954357Y-15119214D01*
X12954357Y-15119214D02*
X12954357Y-15166833D01*
X12954357Y-15166833D02*
X12944833Y-15204928D01*
X12944833Y-15204928D02*
X12935310Y-15223976D01*
X12935310Y-15223976D02*
X12925786Y-15233500D01*
X12925786Y-15233500D02*
X12906738Y-15243024D01*
X12906738Y-15243024D02*
X12887691Y-15243024D01*
X12887691Y-15243024D02*
X12868643Y-15233500D01*
X12868643Y-15233500D02*
X12859119Y-15223976D01*
X12859119Y-15223976D02*
X12849595Y-15204928D01*
X12849595Y-15204928D02*
X12840072Y-15166833D01*
X12840072Y-15166833D02*
X12840072Y-15119214D01*
X12840072Y-15119214D02*
X12849595Y-15081119D01*
X12849595Y-15081119D02*
X12859119Y-15062071D01*
X12859119Y-15062071D02*
X12868643Y-15052548D01*
X12868643Y-15052548D02*
X12887691Y-15043024D01*
X13125786Y-15109690D02*
X13125786Y-15243024D01*
X13078167Y-15033500D02*
X13030548Y-15176357D01*
X13030548Y-15176357D02*
X13154357Y-15176357D01*
X13211500Y-15043024D02*
X13335310Y-15043024D01*
X13335310Y-15043024D02*
X13268643Y-15119214D01*
X13268643Y-15119214D02*
X13297214Y-15119214D01*
X13297214Y-15119214D02*
X13316262Y-15128738D01*
X13316262Y-15128738D02*
X13325786Y-15138262D01*
X13325786Y-15138262D02*
X13335310Y-15157309D01*
X13335310Y-15157309D02*
X13335310Y-15204928D01*
X13335310Y-15204928D02*
X13325786Y-15223976D01*
X13325786Y-15223976D02*
X13316262Y-15233500D01*
X13316262Y-15233500D02*
X13297214Y-15243024D01*
X13297214Y-15243024D02*
X13240072Y-15243024D01*
X13240072Y-15243024D02*
X13221024Y-15233500D01*
X13221024Y-15233500D02*
X13211500Y-15223976D01*
X13401976Y-15043024D02*
X13525786Y-15043024D01*
X13525786Y-15043024D02*
X13459119Y-15119214D01*
X13459119Y-15119214D02*
X13487691Y-15119214D01*
X13487691Y-15119214D02*
X13506738Y-15128738D01*
X13506738Y-15128738D02*
X13516262Y-15138262D01*
X13516262Y-15138262D02*
X13525786Y-15157309D01*
X13525786Y-15157309D02*
X13525786Y-15204928D01*
X13525786Y-15204928D02*
X13516262Y-15223976D01*
X13516262Y-15223976D02*
X13506738Y-15233500D01*
X13506738Y-15233500D02*
X13487691Y-15243024D01*
X13487691Y-15243024D02*
X13430548Y-15243024D01*
X13430548Y-15243024D02*
X13411500Y-15233500D01*
X13411500Y-15233500D02*
X13401976Y-15223976D01*
X13601976Y-15043024D02*
X13601976Y-15081119D01*
X13678167Y-15043024D02*
X13678167Y-15081119D01*
X13973405Y-15319214D02*
X13963881Y-15309690D01*
X13963881Y-15309690D02*
X13944834Y-15281119D01*
X13944834Y-15281119D02*
X13935310Y-15262071D01*
X13935310Y-15262071D02*
X13925786Y-15233500D01*
X13925786Y-15233500D02*
X13916262Y-15185881D01*
X13916262Y-15185881D02*
X13916262Y-15147786D01*
X13916262Y-15147786D02*
X13925786Y-15100167D01*
X13925786Y-15100167D02*
X13935310Y-15071595D01*
X13935310Y-15071595D02*
X13944834Y-15052548D01*
X13944834Y-15052548D02*
X13963881Y-15023976D01*
X13963881Y-15023976D02*
X13973405Y-15014452D01*
X14030548Y-15043024D02*
X14163881Y-15043024D01*
X14163881Y-15043024D02*
X14078167Y-15243024D01*
X14344834Y-15243024D02*
X14230548Y-15243024D01*
X14287691Y-15243024D02*
X14287691Y-15043024D01*
X14287691Y-15043024D02*
X14268643Y-15071595D01*
X14268643Y-15071595D02*
X14249595Y-15090643D01*
X14249595Y-15090643D02*
X14230548Y-15100167D01*
X14582929Y-15243024D02*
X14582929Y-15043024D01*
X14668643Y-15243024D02*
X14668643Y-15138262D01*
X14668643Y-15138262D02*
X14659119Y-15119214D01*
X14659119Y-15119214D02*
X14640072Y-15109690D01*
X14640072Y-15109690D02*
X14611500Y-15109690D01*
X14611500Y-15109690D02*
X14592453Y-15119214D01*
X14592453Y-15119214D02*
X14582929Y-15128738D01*
X14792453Y-15243024D02*
X14773405Y-15233500D01*
X14773405Y-15233500D02*
X14763881Y-15223976D01*
X14763881Y-15223976D02*
X14754357Y-15204928D01*
X14754357Y-15204928D02*
X14754357Y-15147786D01*
X14754357Y-15147786D02*
X14763881Y-15128738D01*
X14763881Y-15128738D02*
X14773405Y-15119214D01*
X14773405Y-15119214D02*
X14792453Y-15109690D01*
X14792453Y-15109690D02*
X14821024Y-15109690D01*
X14821024Y-15109690D02*
X14840072Y-15119214D01*
X14840072Y-15119214D02*
X14849596Y-15128738D01*
X14849596Y-15128738D02*
X14859119Y-15147786D01*
X14859119Y-15147786D02*
X14859119Y-15204928D01*
X14859119Y-15204928D02*
X14849596Y-15223976D01*
X14849596Y-15223976D02*
X14840072Y-15233500D01*
X14840072Y-15233500D02*
X14821024Y-15243024D01*
X14821024Y-15243024D02*
X14792453Y-15243024D01*
X14973405Y-15243024D02*
X14954357Y-15233500D01*
X14954357Y-15233500D02*
X14944834Y-15214452D01*
X14944834Y-15214452D02*
X14944834Y-15043024D01*
X15125786Y-15233500D02*
X15106738Y-15243024D01*
X15106738Y-15243024D02*
X15068643Y-15243024D01*
X15068643Y-15243024D02*
X15049596Y-15233500D01*
X15049596Y-15233500D02*
X15040072Y-15214452D01*
X15040072Y-15214452D02*
X15040072Y-15138262D01*
X15040072Y-15138262D02*
X15049596Y-15119214D01*
X15049596Y-15119214D02*
X15068643Y-15109690D01*
X15068643Y-15109690D02*
X15106738Y-15109690D01*
X15106738Y-15109690D02*
X15125786Y-15119214D01*
X15125786Y-15119214D02*
X15135310Y-15138262D01*
X15135310Y-15138262D02*
X15135310Y-15157309D01*
X15135310Y-15157309D02*
X15040072Y-15176357D01*
X15211500Y-15233500D02*
X15230548Y-15243024D01*
X15230548Y-15243024D02*
X15268643Y-15243024D01*
X15268643Y-15243024D02*
X15287691Y-15233500D01*
X15287691Y-15233500D02*
X15297215Y-15214452D01*
X15297215Y-15214452D02*
X15297215Y-15204928D01*
X15297215Y-15204928D02*
X15287691Y-15185881D01*
X15287691Y-15185881D02*
X15268643Y-15176357D01*
X15268643Y-15176357D02*
X15240072Y-15176357D01*
X15240072Y-15176357D02*
X15221024Y-15166833D01*
X15221024Y-15166833D02*
X15211500Y-15147786D01*
X15211500Y-15147786D02*
X15211500Y-15138262D01*
X15211500Y-15138262D02*
X15221024Y-15119214D01*
X15221024Y-15119214D02*
X15240072Y-15109690D01*
X15240072Y-15109690D02*
X15268643Y-15109690D01*
X15268643Y-15109690D02*
X15287691Y-15119214D01*
X15363881Y-15319214D02*
X15373405Y-15309690D01*
X15373405Y-15309690D02*
X15392453Y-15281119D01*
X15392453Y-15281119D02*
X15401977Y-15262071D01*
X15401977Y-15262071D02*
X15411500Y-15233500D01*
X15411500Y-15233500D02*
X15421024Y-15185881D01*
X15421024Y-15185881D02*
X15421024Y-15147786D01*
X15421024Y-15147786D02*
X15411500Y-15100167D01*
X15411500Y-15100167D02*
X15401977Y-15071595D01*
X15401977Y-15071595D02*
X15392453Y-15052548D01*
X15392453Y-15052548D02*
X15373405Y-15023976D01*
X15373405Y-15023976D02*
X15363881Y-15014452D01*
M02*
