%TF.GenerationSoftware,KiCad,Pcbnew,7.0.2-0*%
%TF.CreationDate,2023-11-13T17:50:50-05:00*%
%TF.ProjectId,Euro Power CV Shield,4575726f-2050-46f7-9765-722043562053,rev?*%
%TF.SameCoordinates,Original*%
%TF.FileFunction,Drillmap*%
%TF.FilePolarity,Positive*%
%FSLAX45Y45*%
G04 Gerber Fmt 4.5, Leading zero omitted, Abs format (unit mm)*
G04 Created by KiCad (PCBNEW 7.0.2-0) date 2023-11-13 17:50:50*
%MOMM*%
%LPD*%
G01*
G04 APERTURE LIST*
%ADD10C,0.050000*%
%ADD11C,0.200000*%
G04 APERTURE END LIST*
D10*
X10414000Y-7366000D02*
X16002000Y-7366000D01*
X16002000Y-13716000D01*
X10414000Y-13716000D01*
X10414000Y-7366000D01*
D11*
X10659119Y-14031024D02*
X10659119Y-13831024D01*
X10659119Y-13831024D02*
X10706738Y-13831024D01*
X10706738Y-13831024D02*
X10735310Y-13840548D01*
X10735310Y-13840548D02*
X10754357Y-13859595D01*
X10754357Y-13859595D02*
X10763881Y-13878643D01*
X10763881Y-13878643D02*
X10773405Y-13916738D01*
X10773405Y-13916738D02*
X10773405Y-13945309D01*
X10773405Y-13945309D02*
X10763881Y-13983405D01*
X10763881Y-13983405D02*
X10754357Y-14002452D01*
X10754357Y-14002452D02*
X10735310Y-14021500D01*
X10735310Y-14021500D02*
X10706738Y-14031024D01*
X10706738Y-14031024D02*
X10659119Y-14031024D01*
X10859119Y-14031024D02*
X10859119Y-13897690D01*
X10859119Y-13935786D02*
X10868643Y-13916738D01*
X10868643Y-13916738D02*
X10878167Y-13907214D01*
X10878167Y-13907214D02*
X10897214Y-13897690D01*
X10897214Y-13897690D02*
X10916262Y-13897690D01*
X10982929Y-14031024D02*
X10982929Y-13897690D01*
X10982929Y-13831024D02*
X10973405Y-13840548D01*
X10973405Y-13840548D02*
X10982929Y-13850071D01*
X10982929Y-13850071D02*
X10992452Y-13840548D01*
X10992452Y-13840548D02*
X10982929Y-13831024D01*
X10982929Y-13831024D02*
X10982929Y-13850071D01*
X11106738Y-14031024D02*
X11087690Y-14021500D01*
X11087690Y-14021500D02*
X11078167Y-14002452D01*
X11078167Y-14002452D02*
X11078167Y-13831024D01*
X11211500Y-14031024D02*
X11192452Y-14021500D01*
X11192452Y-14021500D02*
X11182929Y-14002452D01*
X11182929Y-14002452D02*
X11182929Y-13831024D01*
X11440071Y-14031024D02*
X11440071Y-13831024D01*
X11440071Y-13831024D02*
X11506738Y-13973881D01*
X11506738Y-13973881D02*
X11573405Y-13831024D01*
X11573405Y-13831024D02*
X11573405Y-14031024D01*
X11754357Y-14031024D02*
X11754357Y-13926262D01*
X11754357Y-13926262D02*
X11744833Y-13907214D01*
X11744833Y-13907214D02*
X11725786Y-13897690D01*
X11725786Y-13897690D02*
X11687690Y-13897690D01*
X11687690Y-13897690D02*
X11668643Y-13907214D01*
X11754357Y-14021500D02*
X11735309Y-14031024D01*
X11735309Y-14031024D02*
X11687690Y-14031024D01*
X11687690Y-14031024D02*
X11668643Y-14021500D01*
X11668643Y-14021500D02*
X11659119Y-14002452D01*
X11659119Y-14002452D02*
X11659119Y-13983405D01*
X11659119Y-13983405D02*
X11668643Y-13964357D01*
X11668643Y-13964357D02*
X11687690Y-13954833D01*
X11687690Y-13954833D02*
X11735309Y-13954833D01*
X11735309Y-13954833D02*
X11754357Y-13945309D01*
X11849595Y-13897690D02*
X11849595Y-14097690D01*
X11849595Y-13907214D02*
X11868643Y-13897690D01*
X11868643Y-13897690D02*
X11906738Y-13897690D01*
X11906738Y-13897690D02*
X11925786Y-13907214D01*
X11925786Y-13907214D02*
X11935309Y-13916738D01*
X11935309Y-13916738D02*
X11944833Y-13935786D01*
X11944833Y-13935786D02*
X11944833Y-13992928D01*
X11944833Y-13992928D02*
X11935309Y-14011976D01*
X11935309Y-14011976D02*
X11925786Y-14021500D01*
X11925786Y-14021500D02*
X11906738Y-14031024D01*
X11906738Y-14031024D02*
X11868643Y-14031024D01*
X11868643Y-14031024D02*
X11849595Y-14021500D01*
X12030548Y-14011976D02*
X12040071Y-14021500D01*
X12040071Y-14021500D02*
X12030548Y-14031024D01*
X12030548Y-14031024D02*
X12021024Y-14021500D01*
X12021024Y-14021500D02*
X12030548Y-14011976D01*
X12030548Y-14011976D02*
X12030548Y-14031024D01*
X12030548Y-13907214D02*
X12040071Y-13916738D01*
X12040071Y-13916738D02*
X12030548Y-13926262D01*
X12030548Y-13926262D02*
X12021024Y-13916738D01*
X12021024Y-13916738D02*
X12030548Y-13907214D01*
X12030548Y-13907214D02*
X12030548Y-13926262D01*
M02*
