%TF.GenerationSoftware,KiCad,Pcbnew,7.0.2-0*%
%TF.CreationDate,2023-11-13T17:50:44-05:00*%
%TF.ProjectId,Euro Power CV Shield,4575726f-2050-46f7-9765-722043562053,rev?*%
%TF.SameCoordinates,Original*%
%TF.FileFunction,Legend,Top*%
%TF.FilePolarity,Positive*%
%FSLAX46Y46*%
G04 Gerber Fmt 4.6, Leading zero omitted, Abs format (unit mm)*
G04 Created by KiCad (PCBNEW 7.0.2-0) date 2023-11-13 17:50:44*
%MOMM*%
%LPD*%
G01*
G04 APERTURE LIST*
%ADD10C,0.150000*%
%ADD11C,0.101600*%
%ADD12C,0.100000*%
%ADD13C,0.120000*%
%ADD14C,0.127000*%
%ADD15C,0.203200*%
%ADD16C,0.152400*%
G04 APERTURE END LIST*
D10*
%TO.C,U2*%
X122571608Y-119341796D02*
X122571608Y-118770368D01*
X123571608Y-119056082D02*
X122571608Y-119056082D01*
X123523989Y-118056082D02*
X123571608Y-118151320D01*
X123571608Y-118151320D02*
X123571608Y-118341796D01*
X123571608Y-118341796D02*
X123523989Y-118437034D01*
X123523989Y-118437034D02*
X123428750Y-118484653D01*
X123428750Y-118484653D02*
X123047798Y-118484653D01*
X123047798Y-118484653D02*
X122952560Y-118437034D01*
X122952560Y-118437034D02*
X122904941Y-118341796D01*
X122904941Y-118341796D02*
X122904941Y-118151320D01*
X122904941Y-118151320D02*
X122952560Y-118056082D01*
X122952560Y-118056082D02*
X123047798Y-118008463D01*
X123047798Y-118008463D02*
X123143036Y-118008463D01*
X123143036Y-118008463D02*
X123238274Y-118484653D01*
X123523989Y-117198939D02*
X123571608Y-117294177D01*
X123571608Y-117294177D02*
X123571608Y-117484653D01*
X123571608Y-117484653D02*
X123523989Y-117579891D01*
X123523989Y-117579891D02*
X123428750Y-117627510D01*
X123428750Y-117627510D02*
X123047798Y-117627510D01*
X123047798Y-117627510D02*
X122952560Y-117579891D01*
X122952560Y-117579891D02*
X122904941Y-117484653D01*
X122904941Y-117484653D02*
X122904941Y-117294177D01*
X122904941Y-117294177D02*
X122952560Y-117198939D01*
X122952560Y-117198939D02*
X123047798Y-117151320D01*
X123047798Y-117151320D02*
X123143036Y-117151320D01*
X123143036Y-117151320D02*
X123238274Y-117627510D01*
X122904941Y-116722748D02*
X123571608Y-116722748D01*
X123000179Y-116722748D02*
X122952560Y-116675129D01*
X122952560Y-116675129D02*
X122904941Y-116579891D01*
X122904941Y-116579891D02*
X122904941Y-116437034D01*
X122904941Y-116437034D02*
X122952560Y-116341796D01*
X122952560Y-116341796D02*
X123047798Y-116294177D01*
X123047798Y-116294177D02*
X123571608Y-116294177D01*
X123523989Y-115865605D02*
X123571608Y-115770367D01*
X123571608Y-115770367D02*
X123571608Y-115579891D01*
X123571608Y-115579891D02*
X123523989Y-115484653D01*
X123523989Y-115484653D02*
X123428750Y-115437034D01*
X123428750Y-115437034D02*
X123381131Y-115437034D01*
X123381131Y-115437034D02*
X123285893Y-115484653D01*
X123285893Y-115484653D02*
X123238274Y-115579891D01*
X123238274Y-115579891D02*
X123238274Y-115722748D01*
X123238274Y-115722748D02*
X123190655Y-115817986D01*
X123190655Y-115817986D02*
X123095417Y-115865605D01*
X123095417Y-115865605D02*
X123047798Y-115865605D01*
X123047798Y-115865605D02*
X122952560Y-115817986D01*
X122952560Y-115817986D02*
X122904941Y-115722748D01*
X122904941Y-115722748D02*
X122904941Y-115579891D01*
X122904941Y-115579891D02*
X122952560Y-115484653D01*
X122904941Y-115103700D02*
X123571608Y-114865605D01*
X122904941Y-114627510D02*
X123571608Y-114865605D01*
X123571608Y-114865605D02*
X123809703Y-114960843D01*
X123809703Y-114960843D02*
X123857322Y-115008462D01*
X123857322Y-115008462D02*
X123904941Y-115103700D01*
X122904941Y-113817986D02*
X123571608Y-113817986D01*
X122523989Y-114056081D02*
X123238274Y-114294176D01*
X123238274Y-114294176D02*
X123238274Y-113675129D01*
X123476369Y-113294176D02*
X123523989Y-113246557D01*
X123523989Y-113246557D02*
X123571608Y-113294176D01*
X123571608Y-113294176D02*
X123523989Y-113341795D01*
X123523989Y-113341795D02*
X123476369Y-113294176D01*
X123476369Y-113294176D02*
X123571608Y-113294176D01*
X123571608Y-112294177D02*
X123571608Y-112865605D01*
X123571608Y-112579891D02*
X122571608Y-112579891D01*
X122571608Y-112579891D02*
X122714465Y-112675129D01*
X122714465Y-112675129D02*
X122809703Y-112770367D01*
X122809703Y-112770367D02*
X122857322Y-112865605D01*
X125796666Y-103193833D02*
X125796666Y-102493833D01*
X125796666Y-102493833D02*
X125963333Y-102493833D01*
X125963333Y-102493833D02*
X126063333Y-102527166D01*
X126063333Y-102527166D02*
X126130000Y-102593833D01*
X126130000Y-102593833D02*
X126163333Y-102660500D01*
X126163333Y-102660500D02*
X126196666Y-102793833D01*
X126196666Y-102793833D02*
X126196666Y-102893833D01*
X126196666Y-102893833D02*
X126163333Y-103027166D01*
X126163333Y-103027166D02*
X126130000Y-103093833D01*
X126130000Y-103093833D02*
X126063333Y-103160500D01*
X126063333Y-103160500D02*
X125963333Y-103193833D01*
X125963333Y-103193833D02*
X125796666Y-103193833D01*
X126396666Y-102493833D02*
X126630000Y-103193833D01*
X126630000Y-103193833D02*
X126863333Y-102493833D01*
X127296666Y-102493833D02*
X127296666Y-102993833D01*
X127296666Y-102993833D02*
X127263333Y-103093833D01*
X127263333Y-103093833D02*
X127196666Y-103160500D01*
X127196666Y-103160500D02*
X127096666Y-103193833D01*
X127096666Y-103193833D02*
X127030000Y-103193833D01*
X127929999Y-102493833D02*
X127796666Y-102493833D01*
X127796666Y-102493833D02*
X127729999Y-102527166D01*
X127729999Y-102527166D02*
X127696666Y-102560500D01*
X127696666Y-102560500D02*
X127629999Y-102660500D01*
X127629999Y-102660500D02*
X127596666Y-102793833D01*
X127596666Y-102793833D02*
X127596666Y-103060500D01*
X127596666Y-103060500D02*
X127629999Y-103127166D01*
X127629999Y-103127166D02*
X127663333Y-103160500D01*
X127663333Y-103160500D02*
X127729999Y-103193833D01*
X127729999Y-103193833D02*
X127863333Y-103193833D01*
X127863333Y-103193833D02*
X127929999Y-103160500D01*
X127929999Y-103160500D02*
X127963333Y-103127166D01*
X127963333Y-103127166D02*
X127996666Y-103060500D01*
X127996666Y-103060500D02*
X127996666Y-102893833D01*
X127996666Y-102893833D02*
X127963333Y-102827166D01*
X127963333Y-102827166D02*
X127929999Y-102793833D01*
X127929999Y-102793833D02*
X127863333Y-102760500D01*
X127863333Y-102760500D02*
X127729999Y-102760500D01*
X127729999Y-102760500D02*
X127663333Y-102793833D01*
X127663333Y-102793833D02*
X127629999Y-102827166D01*
X127629999Y-102827166D02*
X127596666Y-102893833D01*
X128263333Y-102993833D02*
X128596666Y-102993833D01*
X128196666Y-103193833D02*
X128430000Y-102493833D01*
X128430000Y-102493833D02*
X128663333Y-103193833D01*
X123916666Y-104463833D02*
X123916666Y-103763833D01*
X123916666Y-103763833D02*
X124150000Y-104263833D01*
X124150000Y-104263833D02*
X124383333Y-103763833D01*
X124383333Y-103763833D02*
X124383333Y-104463833D01*
X124716666Y-104463833D02*
X124716666Y-103763833D01*
X125049999Y-104463833D02*
X125049999Y-103763833D01*
X125049999Y-103763833D02*
X125283333Y-104263833D01*
X125283333Y-104263833D02*
X125516666Y-103763833D01*
X125516666Y-103763833D02*
X125516666Y-104463833D01*
X125783333Y-103763833D02*
X126249999Y-104463833D01*
X126249999Y-103763833D02*
X125783333Y-104463833D01*
X126916666Y-104463833D02*
X126683333Y-104130500D01*
X126516666Y-104463833D02*
X126516666Y-103763833D01*
X126516666Y-103763833D02*
X126783333Y-103763833D01*
X126783333Y-103763833D02*
X126850000Y-103797166D01*
X126850000Y-103797166D02*
X126883333Y-103830500D01*
X126883333Y-103830500D02*
X126916666Y-103897166D01*
X126916666Y-103897166D02*
X126916666Y-103997166D01*
X126916666Y-103997166D02*
X126883333Y-104063833D01*
X126883333Y-104063833D02*
X126850000Y-104097166D01*
X126850000Y-104097166D02*
X126783333Y-104130500D01*
X126783333Y-104130500D02*
X126516666Y-104130500D01*
X127116666Y-103763833D02*
X127516666Y-103763833D01*
X127316666Y-104463833D02*
X127316666Y-103763833D01*
X128116666Y-104463833D02*
X127716666Y-104463833D01*
X127916666Y-104463833D02*
X127916666Y-103763833D01*
X127916666Y-103763833D02*
X127849999Y-103863833D01*
X127849999Y-103863833D02*
X127783333Y-103930500D01*
X127783333Y-103930500D02*
X127716666Y-103963833D01*
X128550000Y-103763833D02*
X128616666Y-103763833D01*
X128616666Y-103763833D02*
X128683333Y-103797166D01*
X128683333Y-103797166D02*
X128716666Y-103830500D01*
X128716666Y-103830500D02*
X128750000Y-103897166D01*
X128750000Y-103897166D02*
X128783333Y-104030500D01*
X128783333Y-104030500D02*
X128783333Y-104197166D01*
X128783333Y-104197166D02*
X128750000Y-104330500D01*
X128750000Y-104330500D02*
X128716666Y-104397166D01*
X128716666Y-104397166D02*
X128683333Y-104430500D01*
X128683333Y-104430500D02*
X128616666Y-104463833D01*
X128616666Y-104463833D02*
X128550000Y-104463833D01*
X128550000Y-104463833D02*
X128483333Y-104430500D01*
X128483333Y-104430500D02*
X128450000Y-104397166D01*
X128450000Y-104397166D02*
X128416666Y-104330500D01*
X128416666Y-104330500D02*
X128383333Y-104197166D01*
X128383333Y-104197166D02*
X128383333Y-104030500D01*
X128383333Y-104030500D02*
X128416666Y-103897166D01*
X128416666Y-103897166D02*
X128450000Y-103830500D01*
X128450000Y-103830500D02*
X128483333Y-103797166D01*
X128483333Y-103797166D02*
X128550000Y-103763833D01*
X129383333Y-103763833D02*
X129250000Y-103763833D01*
X129250000Y-103763833D02*
X129183333Y-103797166D01*
X129183333Y-103797166D02*
X129150000Y-103830500D01*
X129150000Y-103830500D02*
X129083333Y-103930500D01*
X129083333Y-103930500D02*
X129050000Y-104063833D01*
X129050000Y-104063833D02*
X129050000Y-104330500D01*
X129050000Y-104330500D02*
X129083333Y-104397166D01*
X129083333Y-104397166D02*
X129116667Y-104430500D01*
X129116667Y-104430500D02*
X129183333Y-104463833D01*
X129183333Y-104463833D02*
X129316667Y-104463833D01*
X129316667Y-104463833D02*
X129383333Y-104430500D01*
X129383333Y-104430500D02*
X129416667Y-104397166D01*
X129416667Y-104397166D02*
X129450000Y-104330500D01*
X129450000Y-104330500D02*
X129450000Y-104163833D01*
X129450000Y-104163833D02*
X129416667Y-104097166D01*
X129416667Y-104097166D02*
X129383333Y-104063833D01*
X129383333Y-104063833D02*
X129316667Y-104030500D01*
X129316667Y-104030500D02*
X129183333Y-104030500D01*
X129183333Y-104030500D02*
X129116667Y-104063833D01*
X129116667Y-104063833D02*
X129083333Y-104097166D01*
X129083333Y-104097166D02*
X129050000Y-104163833D01*
X129716667Y-103830500D02*
X129750000Y-103797166D01*
X129750000Y-103797166D02*
X129816667Y-103763833D01*
X129816667Y-103763833D02*
X129983334Y-103763833D01*
X129983334Y-103763833D02*
X130050000Y-103797166D01*
X130050000Y-103797166D02*
X130083334Y-103830500D01*
X130083334Y-103830500D02*
X130116667Y-103897166D01*
X130116667Y-103897166D02*
X130116667Y-103963833D01*
X130116667Y-103963833D02*
X130083334Y-104063833D01*
X130083334Y-104063833D02*
X129683334Y-104463833D01*
X129683334Y-104463833D02*
X130116667Y-104463833D01*
X127462619Y-132659047D02*
X126462619Y-132659047D01*
X126462619Y-132659047D02*
X127176904Y-132325714D01*
X127176904Y-132325714D02*
X126462619Y-131992381D01*
X126462619Y-131992381D02*
X127462619Y-131992381D01*
X127462619Y-131516190D02*
X126795952Y-131516190D01*
X126462619Y-131516190D02*
X126510238Y-131563809D01*
X126510238Y-131563809D02*
X126557857Y-131516190D01*
X126557857Y-131516190D02*
X126510238Y-131468571D01*
X126510238Y-131468571D02*
X126462619Y-131516190D01*
X126462619Y-131516190D02*
X126557857Y-131516190D01*
X127415000Y-130611429D02*
X127462619Y-130706667D01*
X127462619Y-130706667D02*
X127462619Y-130897143D01*
X127462619Y-130897143D02*
X127415000Y-130992381D01*
X127415000Y-130992381D02*
X127367380Y-131040000D01*
X127367380Y-131040000D02*
X127272142Y-131087619D01*
X127272142Y-131087619D02*
X126986428Y-131087619D01*
X126986428Y-131087619D02*
X126891190Y-131040000D01*
X126891190Y-131040000D02*
X126843571Y-130992381D01*
X126843571Y-130992381D02*
X126795952Y-130897143D01*
X126795952Y-130897143D02*
X126795952Y-130706667D01*
X126795952Y-130706667D02*
X126843571Y-130611429D01*
X127462619Y-130182857D02*
X126795952Y-130182857D01*
X126986428Y-130182857D02*
X126891190Y-130135238D01*
X126891190Y-130135238D02*
X126843571Y-130087619D01*
X126843571Y-130087619D02*
X126795952Y-129992381D01*
X126795952Y-129992381D02*
X126795952Y-129897143D01*
X127462619Y-129420952D02*
X127415000Y-129516190D01*
X127415000Y-129516190D02*
X127367380Y-129563809D01*
X127367380Y-129563809D02*
X127272142Y-129611428D01*
X127272142Y-129611428D02*
X126986428Y-129611428D01*
X126986428Y-129611428D02*
X126891190Y-129563809D01*
X126891190Y-129563809D02*
X126843571Y-129516190D01*
X126843571Y-129516190D02*
X126795952Y-129420952D01*
X126795952Y-129420952D02*
X126795952Y-129278095D01*
X126795952Y-129278095D02*
X126843571Y-129182857D01*
X126843571Y-129182857D02*
X126891190Y-129135238D01*
X126891190Y-129135238D02*
X126986428Y-129087619D01*
X126986428Y-129087619D02*
X127272142Y-129087619D01*
X127272142Y-129087619D02*
X127367380Y-129135238D01*
X127367380Y-129135238D02*
X127415000Y-129182857D01*
X127415000Y-129182857D02*
X127462619Y-129278095D01*
X127462619Y-129278095D02*
X127462619Y-129420952D01*
X127415000Y-127944761D02*
X127462619Y-127801904D01*
X127462619Y-127801904D02*
X127462619Y-127563809D01*
X127462619Y-127563809D02*
X127415000Y-127468571D01*
X127415000Y-127468571D02*
X127367380Y-127420952D01*
X127367380Y-127420952D02*
X127272142Y-127373333D01*
X127272142Y-127373333D02*
X127176904Y-127373333D01*
X127176904Y-127373333D02*
X127081666Y-127420952D01*
X127081666Y-127420952D02*
X127034047Y-127468571D01*
X127034047Y-127468571D02*
X126986428Y-127563809D01*
X126986428Y-127563809D02*
X126938809Y-127754285D01*
X126938809Y-127754285D02*
X126891190Y-127849523D01*
X126891190Y-127849523D02*
X126843571Y-127897142D01*
X126843571Y-127897142D02*
X126748333Y-127944761D01*
X126748333Y-127944761D02*
X126653095Y-127944761D01*
X126653095Y-127944761D02*
X126557857Y-127897142D01*
X126557857Y-127897142D02*
X126510238Y-127849523D01*
X126510238Y-127849523D02*
X126462619Y-127754285D01*
X126462619Y-127754285D02*
X126462619Y-127516190D01*
X126462619Y-127516190D02*
X126510238Y-127373333D01*
X127462619Y-126944761D02*
X126462619Y-126944761D01*
X126462619Y-126944761D02*
X126462619Y-126706666D01*
X126462619Y-126706666D02*
X126510238Y-126563809D01*
X126510238Y-126563809D02*
X126605476Y-126468571D01*
X126605476Y-126468571D02*
X126700714Y-126420952D01*
X126700714Y-126420952D02*
X126891190Y-126373333D01*
X126891190Y-126373333D02*
X127034047Y-126373333D01*
X127034047Y-126373333D02*
X127224523Y-126420952D01*
X127224523Y-126420952D02*
X127319761Y-126468571D01*
X127319761Y-126468571D02*
X127415000Y-126563809D01*
X127415000Y-126563809D02*
X127462619Y-126706666D01*
X127462619Y-126706666D02*
X127462619Y-126944761D01*
X125738095Y-78202619D02*
X125738095Y-79012142D01*
X125738095Y-79012142D02*
X125785714Y-79107380D01*
X125785714Y-79107380D02*
X125833333Y-79155000D01*
X125833333Y-79155000D02*
X125928571Y-79202619D01*
X125928571Y-79202619D02*
X126119047Y-79202619D01*
X126119047Y-79202619D02*
X126214285Y-79155000D01*
X126214285Y-79155000D02*
X126261904Y-79107380D01*
X126261904Y-79107380D02*
X126309523Y-79012142D01*
X126309523Y-79012142D02*
X126309523Y-78202619D01*
X126738095Y-79155000D02*
X126880952Y-79202619D01*
X126880952Y-79202619D02*
X127119047Y-79202619D01*
X127119047Y-79202619D02*
X127214285Y-79155000D01*
X127214285Y-79155000D02*
X127261904Y-79107380D01*
X127261904Y-79107380D02*
X127309523Y-79012142D01*
X127309523Y-79012142D02*
X127309523Y-78916904D01*
X127309523Y-78916904D02*
X127261904Y-78821666D01*
X127261904Y-78821666D02*
X127214285Y-78774047D01*
X127214285Y-78774047D02*
X127119047Y-78726428D01*
X127119047Y-78726428D02*
X126928571Y-78678809D01*
X126928571Y-78678809D02*
X126833333Y-78631190D01*
X126833333Y-78631190D02*
X126785714Y-78583571D01*
X126785714Y-78583571D02*
X126738095Y-78488333D01*
X126738095Y-78488333D02*
X126738095Y-78393095D01*
X126738095Y-78393095D02*
X126785714Y-78297857D01*
X126785714Y-78297857D02*
X126833333Y-78250238D01*
X126833333Y-78250238D02*
X126928571Y-78202619D01*
X126928571Y-78202619D02*
X127166666Y-78202619D01*
X127166666Y-78202619D02*
X127309523Y-78250238D01*
X128071428Y-78678809D02*
X128214285Y-78726428D01*
X128214285Y-78726428D02*
X128261904Y-78774047D01*
X128261904Y-78774047D02*
X128309523Y-78869285D01*
X128309523Y-78869285D02*
X128309523Y-79012142D01*
X128309523Y-79012142D02*
X128261904Y-79107380D01*
X128261904Y-79107380D02*
X128214285Y-79155000D01*
X128214285Y-79155000D02*
X128119047Y-79202619D01*
X128119047Y-79202619D02*
X127738095Y-79202619D01*
X127738095Y-79202619D02*
X127738095Y-78202619D01*
X127738095Y-78202619D02*
X128071428Y-78202619D01*
X128071428Y-78202619D02*
X128166666Y-78250238D01*
X128166666Y-78250238D02*
X128214285Y-78297857D01*
X128214285Y-78297857D02*
X128261904Y-78393095D01*
X128261904Y-78393095D02*
X128261904Y-78488333D01*
X128261904Y-78488333D02*
X128214285Y-78583571D01*
X128214285Y-78583571D02*
X128166666Y-78631190D01*
X128166666Y-78631190D02*
X128071428Y-78678809D01*
X128071428Y-78678809D02*
X127738095Y-78678809D01*
X127419456Y-93283809D02*
X127752789Y-93283809D01*
X127895646Y-93807619D02*
X127419456Y-93807619D01*
X127419456Y-93807619D02*
X127419456Y-92807619D01*
X127419456Y-92807619D02*
X127895646Y-92807619D01*
X128181361Y-93140952D02*
X128562313Y-93140952D01*
X128324218Y-92807619D02*
X128324218Y-93664761D01*
X128324218Y-93664761D02*
X128371837Y-93760000D01*
X128371837Y-93760000D02*
X128467075Y-93807619D01*
X128467075Y-93807619D02*
X128562313Y-93807619D01*
X128895647Y-93807619D02*
X128895647Y-92807619D01*
X129324218Y-93807619D02*
X129324218Y-93283809D01*
X129324218Y-93283809D02*
X129276599Y-93188571D01*
X129276599Y-93188571D02*
X129181361Y-93140952D01*
X129181361Y-93140952D02*
X129038504Y-93140952D01*
X129038504Y-93140952D02*
X128943266Y-93188571D01*
X128943266Y-93188571D02*
X128895647Y-93236190D01*
X130181361Y-93760000D02*
X130086123Y-93807619D01*
X130086123Y-93807619D02*
X129895647Y-93807619D01*
X129895647Y-93807619D02*
X129800409Y-93760000D01*
X129800409Y-93760000D02*
X129752790Y-93664761D01*
X129752790Y-93664761D02*
X129752790Y-93283809D01*
X129752790Y-93283809D02*
X129800409Y-93188571D01*
X129800409Y-93188571D02*
X129895647Y-93140952D01*
X129895647Y-93140952D02*
X130086123Y-93140952D01*
X130086123Y-93140952D02*
X130181361Y-93188571D01*
X130181361Y-93188571D02*
X130228980Y-93283809D01*
X130228980Y-93283809D02*
X130228980Y-93379047D01*
X130228980Y-93379047D02*
X129752790Y-93474285D01*
X130657552Y-93807619D02*
X130657552Y-93140952D01*
X130657552Y-93331428D02*
X130705171Y-93236190D01*
X130705171Y-93236190D02*
X130752790Y-93188571D01*
X130752790Y-93188571D02*
X130848028Y-93140952D01*
X130848028Y-93140952D02*
X130943266Y-93140952D01*
X131276600Y-93140952D02*
X131276600Y-93807619D01*
X131276600Y-93236190D02*
X131324219Y-93188571D01*
X131324219Y-93188571D02*
X131419457Y-93140952D01*
X131419457Y-93140952D02*
X131562314Y-93140952D01*
X131562314Y-93140952D02*
X131657552Y-93188571D01*
X131657552Y-93188571D02*
X131705171Y-93283809D01*
X131705171Y-93283809D02*
X131705171Y-93807619D01*
X132562314Y-93760000D02*
X132467076Y-93807619D01*
X132467076Y-93807619D02*
X132276600Y-93807619D01*
X132276600Y-93807619D02*
X132181362Y-93760000D01*
X132181362Y-93760000D02*
X132133743Y-93664761D01*
X132133743Y-93664761D02*
X132133743Y-93283809D01*
X132133743Y-93283809D02*
X132181362Y-93188571D01*
X132181362Y-93188571D02*
X132276600Y-93140952D01*
X132276600Y-93140952D02*
X132467076Y-93140952D01*
X132467076Y-93140952D02*
X132562314Y-93188571D01*
X132562314Y-93188571D02*
X132609933Y-93283809D01*
X132609933Y-93283809D02*
X132609933Y-93379047D01*
X132609933Y-93379047D02*
X132133743Y-93474285D01*
X132895648Y-93140952D02*
X133276600Y-93140952D01*
X133038505Y-92807619D02*
X133038505Y-93664761D01*
X133038505Y-93664761D02*
X133086124Y-93760000D01*
X133086124Y-93760000D02*
X133181362Y-93807619D01*
X133181362Y-93807619D02*
X133276600Y-93807619D01*
X123973419Y-90253723D02*
X124782942Y-90253723D01*
X124782942Y-90253723D02*
X124878180Y-90206104D01*
X124878180Y-90206104D02*
X124925800Y-90158485D01*
X124925800Y-90158485D02*
X124973419Y-90063247D01*
X124973419Y-90063247D02*
X124973419Y-89872771D01*
X124973419Y-89872771D02*
X124925800Y-89777533D01*
X124925800Y-89777533D02*
X124878180Y-89729914D01*
X124878180Y-89729914D02*
X124782942Y-89682295D01*
X124782942Y-89682295D02*
X123973419Y-89682295D01*
X124925800Y-89253723D02*
X124973419Y-89110866D01*
X124973419Y-89110866D02*
X124973419Y-88872771D01*
X124973419Y-88872771D02*
X124925800Y-88777533D01*
X124925800Y-88777533D02*
X124878180Y-88729914D01*
X124878180Y-88729914D02*
X124782942Y-88682295D01*
X124782942Y-88682295D02*
X124687704Y-88682295D01*
X124687704Y-88682295D02*
X124592466Y-88729914D01*
X124592466Y-88729914D02*
X124544847Y-88777533D01*
X124544847Y-88777533D02*
X124497228Y-88872771D01*
X124497228Y-88872771D02*
X124449609Y-89063247D01*
X124449609Y-89063247D02*
X124401990Y-89158485D01*
X124401990Y-89158485D02*
X124354371Y-89206104D01*
X124354371Y-89206104D02*
X124259133Y-89253723D01*
X124259133Y-89253723D02*
X124163895Y-89253723D01*
X124163895Y-89253723D02*
X124068657Y-89206104D01*
X124068657Y-89206104D02*
X124021038Y-89158485D01*
X124021038Y-89158485D02*
X123973419Y-89063247D01*
X123973419Y-89063247D02*
X123973419Y-88825152D01*
X123973419Y-88825152D02*
X124021038Y-88682295D01*
X124449609Y-87920390D02*
X124497228Y-87777533D01*
X124497228Y-87777533D02*
X124544847Y-87729914D01*
X124544847Y-87729914D02*
X124640085Y-87682295D01*
X124640085Y-87682295D02*
X124782942Y-87682295D01*
X124782942Y-87682295D02*
X124878180Y-87729914D01*
X124878180Y-87729914D02*
X124925800Y-87777533D01*
X124925800Y-87777533D02*
X124973419Y-87872771D01*
X124973419Y-87872771D02*
X124973419Y-88253723D01*
X124973419Y-88253723D02*
X123973419Y-88253723D01*
X123973419Y-88253723D02*
X123973419Y-87920390D01*
X123973419Y-87920390D02*
X124021038Y-87825152D01*
X124021038Y-87825152D02*
X124068657Y-87777533D01*
X124068657Y-87777533D02*
X124163895Y-87729914D01*
X124163895Y-87729914D02*
X124259133Y-87729914D01*
X124259133Y-87729914D02*
X124354371Y-87777533D01*
X124354371Y-87777533D02*
X124401990Y-87825152D01*
X124401990Y-87825152D02*
X124449609Y-87920390D01*
X124449609Y-87920390D02*
X124449609Y-88253723D01*
X124973419Y-86491818D02*
X123973419Y-86491818D01*
X124449609Y-86491818D02*
X124449609Y-85920390D01*
X124973419Y-85920390D02*
X123973419Y-85920390D01*
X124973419Y-85301342D02*
X124925800Y-85396580D01*
X124925800Y-85396580D02*
X124878180Y-85444199D01*
X124878180Y-85444199D02*
X124782942Y-85491818D01*
X124782942Y-85491818D02*
X124497228Y-85491818D01*
X124497228Y-85491818D02*
X124401990Y-85444199D01*
X124401990Y-85444199D02*
X124354371Y-85396580D01*
X124354371Y-85396580D02*
X124306752Y-85301342D01*
X124306752Y-85301342D02*
X124306752Y-85158485D01*
X124306752Y-85158485D02*
X124354371Y-85063247D01*
X124354371Y-85063247D02*
X124401990Y-85015628D01*
X124401990Y-85015628D02*
X124497228Y-84968009D01*
X124497228Y-84968009D02*
X124782942Y-84968009D01*
X124782942Y-84968009D02*
X124878180Y-85015628D01*
X124878180Y-85015628D02*
X124925800Y-85063247D01*
X124925800Y-85063247D02*
X124973419Y-85158485D01*
X124973419Y-85158485D02*
X124973419Y-85301342D01*
X124925800Y-84587056D02*
X124973419Y-84491818D01*
X124973419Y-84491818D02*
X124973419Y-84301342D01*
X124973419Y-84301342D02*
X124925800Y-84206104D01*
X124925800Y-84206104D02*
X124830561Y-84158485D01*
X124830561Y-84158485D02*
X124782942Y-84158485D01*
X124782942Y-84158485D02*
X124687704Y-84206104D01*
X124687704Y-84206104D02*
X124640085Y-84301342D01*
X124640085Y-84301342D02*
X124640085Y-84444199D01*
X124640085Y-84444199D02*
X124592466Y-84539437D01*
X124592466Y-84539437D02*
X124497228Y-84587056D01*
X124497228Y-84587056D02*
X124449609Y-84587056D01*
X124449609Y-84587056D02*
X124354371Y-84539437D01*
X124354371Y-84539437D02*
X124306752Y-84444199D01*
X124306752Y-84444199D02*
X124306752Y-84301342D01*
X124306752Y-84301342D02*
X124354371Y-84206104D01*
X124306752Y-83872770D02*
X124306752Y-83491818D01*
X123973419Y-83729913D02*
X124830561Y-83729913D01*
X124830561Y-83729913D02*
X124925800Y-83682294D01*
X124925800Y-83682294D02*
X124973419Y-83587056D01*
X124973419Y-83587056D02*
X124973419Y-83491818D01*
%TO.C,U1*%
X139011905Y-94312619D02*
X139011905Y-93312619D01*
X139011905Y-93312619D02*
X139345238Y-94026904D01*
X139345238Y-94026904D02*
X139678571Y-93312619D01*
X139678571Y-93312619D02*
X139678571Y-94312619D01*
X140726190Y-94217380D02*
X140678571Y-94265000D01*
X140678571Y-94265000D02*
X140535714Y-94312619D01*
X140535714Y-94312619D02*
X140440476Y-94312619D01*
X140440476Y-94312619D02*
X140297619Y-94265000D01*
X140297619Y-94265000D02*
X140202381Y-94169761D01*
X140202381Y-94169761D02*
X140154762Y-94074523D01*
X140154762Y-94074523D02*
X140107143Y-93884047D01*
X140107143Y-93884047D02*
X140107143Y-93741190D01*
X140107143Y-93741190D02*
X140154762Y-93550714D01*
X140154762Y-93550714D02*
X140202381Y-93455476D01*
X140202381Y-93455476D02*
X140297619Y-93360238D01*
X140297619Y-93360238D02*
X140440476Y-93312619D01*
X140440476Y-93312619D02*
X140535714Y-93312619D01*
X140535714Y-93312619D02*
X140678571Y-93360238D01*
X140678571Y-93360238D02*
X140726190Y-93407857D01*
X141154762Y-94312619D02*
X141154762Y-93312619D01*
X141154762Y-93312619D02*
X141535714Y-93312619D01*
X141535714Y-93312619D02*
X141630952Y-93360238D01*
X141630952Y-93360238D02*
X141678571Y-93407857D01*
X141678571Y-93407857D02*
X141726190Y-93503095D01*
X141726190Y-93503095D02*
X141726190Y-93645952D01*
X141726190Y-93645952D02*
X141678571Y-93741190D01*
X141678571Y-93741190D02*
X141630952Y-93788809D01*
X141630952Y-93788809D02*
X141535714Y-93836428D01*
X141535714Y-93836428D02*
X141154762Y-93836428D01*
X142583333Y-93312619D02*
X142392857Y-93312619D01*
X142392857Y-93312619D02*
X142297619Y-93360238D01*
X142297619Y-93360238D02*
X142250000Y-93407857D01*
X142250000Y-93407857D02*
X142154762Y-93550714D01*
X142154762Y-93550714D02*
X142107143Y-93741190D01*
X142107143Y-93741190D02*
X142107143Y-94122142D01*
X142107143Y-94122142D02*
X142154762Y-94217380D01*
X142154762Y-94217380D02*
X142202381Y-94265000D01*
X142202381Y-94265000D02*
X142297619Y-94312619D01*
X142297619Y-94312619D02*
X142488095Y-94312619D01*
X142488095Y-94312619D02*
X142583333Y-94265000D01*
X142583333Y-94265000D02*
X142630952Y-94217380D01*
X142630952Y-94217380D02*
X142678571Y-94122142D01*
X142678571Y-94122142D02*
X142678571Y-93884047D01*
X142678571Y-93884047D02*
X142630952Y-93788809D01*
X142630952Y-93788809D02*
X142583333Y-93741190D01*
X142583333Y-93741190D02*
X142488095Y-93693571D01*
X142488095Y-93693571D02*
X142297619Y-93693571D01*
X142297619Y-93693571D02*
X142202381Y-93741190D01*
X142202381Y-93741190D02*
X142154762Y-93788809D01*
X142154762Y-93788809D02*
X142107143Y-93884047D01*
X143297619Y-93312619D02*
X143392857Y-93312619D01*
X143392857Y-93312619D02*
X143488095Y-93360238D01*
X143488095Y-93360238D02*
X143535714Y-93407857D01*
X143535714Y-93407857D02*
X143583333Y-93503095D01*
X143583333Y-93503095D02*
X143630952Y-93693571D01*
X143630952Y-93693571D02*
X143630952Y-93931666D01*
X143630952Y-93931666D02*
X143583333Y-94122142D01*
X143583333Y-94122142D02*
X143535714Y-94217380D01*
X143535714Y-94217380D02*
X143488095Y-94265000D01*
X143488095Y-94265000D02*
X143392857Y-94312619D01*
X143392857Y-94312619D02*
X143297619Y-94312619D01*
X143297619Y-94312619D02*
X143202381Y-94265000D01*
X143202381Y-94265000D02*
X143154762Y-94217380D01*
X143154762Y-94217380D02*
X143107143Y-94122142D01*
X143107143Y-94122142D02*
X143059524Y-93931666D01*
X143059524Y-93931666D02*
X143059524Y-93693571D01*
X143059524Y-93693571D02*
X143107143Y-93503095D01*
X143107143Y-93503095D02*
X143154762Y-93407857D01*
X143154762Y-93407857D02*
X143202381Y-93360238D01*
X143202381Y-93360238D02*
X143297619Y-93312619D01*
X144250000Y-93312619D02*
X144345238Y-93312619D01*
X144345238Y-93312619D02*
X144440476Y-93360238D01*
X144440476Y-93360238D02*
X144488095Y-93407857D01*
X144488095Y-93407857D02*
X144535714Y-93503095D01*
X144535714Y-93503095D02*
X144583333Y-93693571D01*
X144583333Y-93693571D02*
X144583333Y-93931666D01*
X144583333Y-93931666D02*
X144535714Y-94122142D01*
X144535714Y-94122142D02*
X144488095Y-94217380D01*
X144488095Y-94217380D02*
X144440476Y-94265000D01*
X144440476Y-94265000D02*
X144345238Y-94312619D01*
X144345238Y-94312619D02*
X144250000Y-94312619D01*
X144250000Y-94312619D02*
X144154762Y-94265000D01*
X144154762Y-94265000D02*
X144107143Y-94217380D01*
X144107143Y-94217380D02*
X144059524Y-94122142D01*
X144059524Y-94122142D02*
X144011905Y-93931666D01*
X144011905Y-93931666D02*
X144011905Y-93693571D01*
X144011905Y-93693571D02*
X144059524Y-93503095D01*
X144059524Y-93503095D02*
X144107143Y-93407857D01*
X144107143Y-93407857D02*
X144154762Y-93360238D01*
X144154762Y-93360238D02*
X144250000Y-93312619D01*
X145440476Y-93645952D02*
X145440476Y-94312619D01*
X145202381Y-93265000D02*
X144964286Y-93979285D01*
X144964286Y-93979285D02*
X145583333Y-93979285D01*
D11*
%TO.C,R17*%
X151526109Y-111528910D02*
X150858452Y-111528910D01*
X151192280Y-111528910D02*
X151192280Y-110360510D01*
X151192280Y-110360510D02*
X151081004Y-110527424D01*
X151081004Y-110527424D02*
X150969728Y-110638700D01*
X150969728Y-110638700D02*
X150858452Y-110694338D01*
X152249404Y-110360510D02*
X152360681Y-110360510D01*
X152360681Y-110360510D02*
X152471957Y-110416148D01*
X152471957Y-110416148D02*
X152527595Y-110471786D01*
X152527595Y-110471786D02*
X152583233Y-110583062D01*
X152583233Y-110583062D02*
X152638871Y-110805614D01*
X152638871Y-110805614D02*
X152638871Y-111083805D01*
X152638871Y-111083805D02*
X152583233Y-111306357D01*
X152583233Y-111306357D02*
X152527595Y-111417633D01*
X152527595Y-111417633D02*
X152471957Y-111473272D01*
X152471957Y-111473272D02*
X152360681Y-111528910D01*
X152360681Y-111528910D02*
X152249404Y-111528910D01*
X152249404Y-111528910D02*
X152138128Y-111473272D01*
X152138128Y-111473272D02*
X152082490Y-111417633D01*
X152082490Y-111417633D02*
X152026852Y-111306357D01*
X152026852Y-111306357D02*
X151971214Y-111083805D01*
X151971214Y-111083805D02*
X151971214Y-110805614D01*
X151971214Y-110805614D02*
X152026852Y-110583062D01*
X152026852Y-110583062D02*
X152082490Y-110471786D01*
X152082490Y-110471786D02*
X152138128Y-110416148D01*
X152138128Y-110416148D02*
X152249404Y-110360510D01*
X153362166Y-110360510D02*
X153473443Y-110360510D01*
X153473443Y-110360510D02*
X153584719Y-110416148D01*
X153584719Y-110416148D02*
X153640357Y-110471786D01*
X153640357Y-110471786D02*
X153695995Y-110583062D01*
X153695995Y-110583062D02*
X153751633Y-110805614D01*
X153751633Y-110805614D02*
X153751633Y-111083805D01*
X153751633Y-111083805D02*
X153695995Y-111306357D01*
X153695995Y-111306357D02*
X153640357Y-111417633D01*
X153640357Y-111417633D02*
X153584719Y-111473272D01*
X153584719Y-111473272D02*
X153473443Y-111528910D01*
X153473443Y-111528910D02*
X153362166Y-111528910D01*
X153362166Y-111528910D02*
X153250890Y-111473272D01*
X153250890Y-111473272D02*
X153195252Y-111417633D01*
X153195252Y-111417633D02*
X153139614Y-111306357D01*
X153139614Y-111306357D02*
X153083976Y-111083805D01*
X153083976Y-111083805D02*
X153083976Y-110805614D01*
X153083976Y-110805614D02*
X153139614Y-110583062D01*
X153139614Y-110583062D02*
X153195252Y-110471786D01*
X153195252Y-110471786D02*
X153250890Y-110416148D01*
X153250890Y-110416148D02*
X153362166Y-110360510D01*
X154252376Y-111528910D02*
X154252376Y-110360510D01*
X154363652Y-111083805D02*
X154697481Y-111528910D01*
X154697481Y-110749976D02*
X154252376Y-111195081D01*
%TO.C,R16*%
X144775114Y-110477710D02*
X145498409Y-110477710D01*
X145498409Y-110477710D02*
X145108942Y-110922814D01*
X145108942Y-110922814D02*
X145275857Y-110922814D01*
X145275857Y-110922814D02*
X145387133Y-110978452D01*
X145387133Y-110978452D02*
X145442771Y-111034091D01*
X145442771Y-111034091D02*
X145498409Y-111145367D01*
X145498409Y-111145367D02*
X145498409Y-111423557D01*
X145498409Y-111423557D02*
X145442771Y-111534833D01*
X145442771Y-111534833D02*
X145387133Y-111590472D01*
X145387133Y-111590472D02*
X145275857Y-111646110D01*
X145275857Y-111646110D02*
X144942028Y-111646110D01*
X144942028Y-111646110D02*
X144830752Y-111590472D01*
X144830752Y-111590472D02*
X144775114Y-111534833D01*
X145887876Y-110477710D02*
X146611171Y-110477710D01*
X146611171Y-110477710D02*
X146221704Y-110922814D01*
X146221704Y-110922814D02*
X146388619Y-110922814D01*
X146388619Y-110922814D02*
X146499895Y-110978452D01*
X146499895Y-110978452D02*
X146555533Y-111034091D01*
X146555533Y-111034091D02*
X146611171Y-111145367D01*
X146611171Y-111145367D02*
X146611171Y-111423557D01*
X146611171Y-111423557D02*
X146555533Y-111534833D01*
X146555533Y-111534833D02*
X146499895Y-111590472D01*
X146499895Y-111590472D02*
X146388619Y-111646110D01*
X146388619Y-111646110D02*
X146054790Y-111646110D01*
X146054790Y-111646110D02*
X145943514Y-111590472D01*
X145943514Y-111590472D02*
X145887876Y-111534833D01*
X147111914Y-111646110D02*
X147111914Y-110477710D01*
X147223190Y-111201005D02*
X147557019Y-111646110D01*
X147557019Y-110867176D02*
X147111914Y-111312281D01*
%TO.C,R15*%
X150047414Y-89143710D02*
X150826347Y-89143710D01*
X150826347Y-89143710D02*
X150325604Y-90312110D01*
X151827833Y-89143710D02*
X151271452Y-89143710D01*
X151271452Y-89143710D02*
X151215814Y-89700091D01*
X151215814Y-89700091D02*
X151271452Y-89644452D01*
X151271452Y-89644452D02*
X151382728Y-89588814D01*
X151382728Y-89588814D02*
X151660919Y-89588814D01*
X151660919Y-89588814D02*
X151772195Y-89644452D01*
X151772195Y-89644452D02*
X151827833Y-89700091D01*
X151827833Y-89700091D02*
X151883471Y-89811367D01*
X151883471Y-89811367D02*
X151883471Y-90089557D01*
X151883471Y-90089557D02*
X151827833Y-90200833D01*
X151827833Y-90200833D02*
X151772195Y-90256472D01*
X151772195Y-90256472D02*
X151660919Y-90312110D01*
X151660919Y-90312110D02*
X151382728Y-90312110D01*
X151382728Y-90312110D02*
X151271452Y-90256472D01*
X151271452Y-90256472D02*
X151215814Y-90200833D01*
X152384214Y-90312110D02*
X152384214Y-89143710D01*
X152495490Y-89867005D02*
X152829319Y-90312110D01*
X152829319Y-89533176D02*
X152384214Y-89978281D01*
%TO.C,R14*%
X139778409Y-101486110D02*
X139110752Y-101486110D01*
X139444580Y-101486110D02*
X139444580Y-100317710D01*
X139444580Y-100317710D02*
X139333304Y-100484624D01*
X139333304Y-100484624D02*
X139222028Y-100595900D01*
X139222028Y-100595900D02*
X139110752Y-100651538D01*
X140501704Y-100317710D02*
X140612981Y-100317710D01*
X140612981Y-100317710D02*
X140724257Y-100373348D01*
X140724257Y-100373348D02*
X140779895Y-100428986D01*
X140779895Y-100428986D02*
X140835533Y-100540262D01*
X140835533Y-100540262D02*
X140891171Y-100762814D01*
X140891171Y-100762814D02*
X140891171Y-101041005D01*
X140891171Y-101041005D02*
X140835533Y-101263557D01*
X140835533Y-101263557D02*
X140779895Y-101374833D01*
X140779895Y-101374833D02*
X140724257Y-101430472D01*
X140724257Y-101430472D02*
X140612981Y-101486110D01*
X140612981Y-101486110D02*
X140501704Y-101486110D01*
X140501704Y-101486110D02*
X140390428Y-101430472D01*
X140390428Y-101430472D02*
X140334790Y-101374833D01*
X140334790Y-101374833D02*
X140279152Y-101263557D01*
X140279152Y-101263557D02*
X140223514Y-101041005D01*
X140223514Y-101041005D02*
X140223514Y-100762814D01*
X140223514Y-100762814D02*
X140279152Y-100540262D01*
X140279152Y-100540262D02*
X140334790Y-100428986D01*
X140334790Y-100428986D02*
X140390428Y-100373348D01*
X140390428Y-100373348D02*
X140501704Y-100317710D01*
X141614466Y-100317710D02*
X141725743Y-100317710D01*
X141725743Y-100317710D02*
X141837019Y-100373348D01*
X141837019Y-100373348D02*
X141892657Y-100428986D01*
X141892657Y-100428986D02*
X141948295Y-100540262D01*
X141948295Y-100540262D02*
X142003933Y-100762814D01*
X142003933Y-100762814D02*
X142003933Y-101041005D01*
X142003933Y-101041005D02*
X141948295Y-101263557D01*
X141948295Y-101263557D02*
X141892657Y-101374833D01*
X141892657Y-101374833D02*
X141837019Y-101430472D01*
X141837019Y-101430472D02*
X141725743Y-101486110D01*
X141725743Y-101486110D02*
X141614466Y-101486110D01*
X141614466Y-101486110D02*
X141503190Y-101430472D01*
X141503190Y-101430472D02*
X141447552Y-101374833D01*
X141447552Y-101374833D02*
X141391914Y-101263557D01*
X141391914Y-101263557D02*
X141336276Y-101041005D01*
X141336276Y-101041005D02*
X141336276Y-100762814D01*
X141336276Y-100762814D02*
X141391914Y-100540262D01*
X141391914Y-100540262D02*
X141447552Y-100428986D01*
X141447552Y-100428986D02*
X141503190Y-100373348D01*
X141503190Y-100373348D02*
X141614466Y-100317710D01*
%TO.C,R13*%
X151526109Y-116608910D02*
X150858452Y-116608910D01*
X151192280Y-116608910D02*
X151192280Y-115440510D01*
X151192280Y-115440510D02*
X151081004Y-115607424D01*
X151081004Y-115607424D02*
X150969728Y-115718700D01*
X150969728Y-115718700D02*
X150858452Y-115774338D01*
X152249404Y-115440510D02*
X152360681Y-115440510D01*
X152360681Y-115440510D02*
X152471957Y-115496148D01*
X152471957Y-115496148D02*
X152527595Y-115551786D01*
X152527595Y-115551786D02*
X152583233Y-115663062D01*
X152583233Y-115663062D02*
X152638871Y-115885614D01*
X152638871Y-115885614D02*
X152638871Y-116163805D01*
X152638871Y-116163805D02*
X152583233Y-116386357D01*
X152583233Y-116386357D02*
X152527595Y-116497633D01*
X152527595Y-116497633D02*
X152471957Y-116553272D01*
X152471957Y-116553272D02*
X152360681Y-116608910D01*
X152360681Y-116608910D02*
X152249404Y-116608910D01*
X152249404Y-116608910D02*
X152138128Y-116553272D01*
X152138128Y-116553272D02*
X152082490Y-116497633D01*
X152082490Y-116497633D02*
X152026852Y-116386357D01*
X152026852Y-116386357D02*
X151971214Y-116163805D01*
X151971214Y-116163805D02*
X151971214Y-115885614D01*
X151971214Y-115885614D02*
X152026852Y-115663062D01*
X152026852Y-115663062D02*
X152082490Y-115551786D01*
X152082490Y-115551786D02*
X152138128Y-115496148D01*
X152138128Y-115496148D02*
X152249404Y-115440510D01*
X153362166Y-115440510D02*
X153473443Y-115440510D01*
X153473443Y-115440510D02*
X153584719Y-115496148D01*
X153584719Y-115496148D02*
X153640357Y-115551786D01*
X153640357Y-115551786D02*
X153695995Y-115663062D01*
X153695995Y-115663062D02*
X153751633Y-115885614D01*
X153751633Y-115885614D02*
X153751633Y-116163805D01*
X153751633Y-116163805D02*
X153695995Y-116386357D01*
X153695995Y-116386357D02*
X153640357Y-116497633D01*
X153640357Y-116497633D02*
X153584719Y-116553272D01*
X153584719Y-116553272D02*
X153473443Y-116608910D01*
X153473443Y-116608910D02*
X153362166Y-116608910D01*
X153362166Y-116608910D02*
X153250890Y-116553272D01*
X153250890Y-116553272D02*
X153195252Y-116497633D01*
X153195252Y-116497633D02*
X153139614Y-116386357D01*
X153139614Y-116386357D02*
X153083976Y-116163805D01*
X153083976Y-116163805D02*
X153083976Y-115885614D01*
X153083976Y-115885614D02*
X153139614Y-115663062D01*
X153139614Y-115663062D02*
X153195252Y-115551786D01*
X153195252Y-115551786D02*
X153250890Y-115496148D01*
X153250890Y-115496148D02*
X153362166Y-115440510D01*
X154252376Y-116608910D02*
X154252376Y-115440510D01*
X154363652Y-116163805D02*
X154697481Y-116608910D01*
X154697481Y-115829976D02*
X154252376Y-116275081D01*
%TO.C,R12*%
X144775114Y-115557710D02*
X145498409Y-115557710D01*
X145498409Y-115557710D02*
X145108942Y-116002814D01*
X145108942Y-116002814D02*
X145275857Y-116002814D01*
X145275857Y-116002814D02*
X145387133Y-116058452D01*
X145387133Y-116058452D02*
X145442771Y-116114091D01*
X145442771Y-116114091D02*
X145498409Y-116225367D01*
X145498409Y-116225367D02*
X145498409Y-116503557D01*
X145498409Y-116503557D02*
X145442771Y-116614833D01*
X145442771Y-116614833D02*
X145387133Y-116670472D01*
X145387133Y-116670472D02*
X145275857Y-116726110D01*
X145275857Y-116726110D02*
X144942028Y-116726110D01*
X144942028Y-116726110D02*
X144830752Y-116670472D01*
X144830752Y-116670472D02*
X144775114Y-116614833D01*
X145887876Y-115557710D02*
X146611171Y-115557710D01*
X146611171Y-115557710D02*
X146221704Y-116002814D01*
X146221704Y-116002814D02*
X146388619Y-116002814D01*
X146388619Y-116002814D02*
X146499895Y-116058452D01*
X146499895Y-116058452D02*
X146555533Y-116114091D01*
X146555533Y-116114091D02*
X146611171Y-116225367D01*
X146611171Y-116225367D02*
X146611171Y-116503557D01*
X146611171Y-116503557D02*
X146555533Y-116614833D01*
X146555533Y-116614833D02*
X146499895Y-116670472D01*
X146499895Y-116670472D02*
X146388619Y-116726110D01*
X146388619Y-116726110D02*
X146054790Y-116726110D01*
X146054790Y-116726110D02*
X145943514Y-116670472D01*
X145943514Y-116670472D02*
X145887876Y-116614833D01*
X147111914Y-116726110D02*
X147111914Y-115557710D01*
X147223190Y-116281005D02*
X147557019Y-116726110D01*
X147557019Y-115947176D02*
X147111914Y-116392281D01*
%TO.C,R11*%
X150047414Y-94223710D02*
X150826347Y-94223710D01*
X150826347Y-94223710D02*
X150325604Y-95392110D01*
X151827833Y-94223710D02*
X151271452Y-94223710D01*
X151271452Y-94223710D02*
X151215814Y-94780091D01*
X151215814Y-94780091D02*
X151271452Y-94724452D01*
X151271452Y-94724452D02*
X151382728Y-94668814D01*
X151382728Y-94668814D02*
X151660919Y-94668814D01*
X151660919Y-94668814D02*
X151772195Y-94724452D01*
X151772195Y-94724452D02*
X151827833Y-94780091D01*
X151827833Y-94780091D02*
X151883471Y-94891367D01*
X151883471Y-94891367D02*
X151883471Y-95169557D01*
X151883471Y-95169557D02*
X151827833Y-95280833D01*
X151827833Y-95280833D02*
X151772195Y-95336472D01*
X151772195Y-95336472D02*
X151660919Y-95392110D01*
X151660919Y-95392110D02*
X151382728Y-95392110D01*
X151382728Y-95392110D02*
X151271452Y-95336472D01*
X151271452Y-95336472D02*
X151215814Y-95280833D01*
X152384214Y-95392110D02*
X152384214Y-94223710D01*
X152495490Y-94947005D02*
X152829319Y-95392110D01*
X152829319Y-94613176D02*
X152384214Y-95058281D01*
%TO.C,R10*%
X139778409Y-116726110D02*
X139110752Y-116726110D01*
X139444580Y-116726110D02*
X139444580Y-115557710D01*
X139444580Y-115557710D02*
X139333304Y-115724624D01*
X139333304Y-115724624D02*
X139222028Y-115835900D01*
X139222028Y-115835900D02*
X139110752Y-115891538D01*
X140501704Y-115557710D02*
X140612981Y-115557710D01*
X140612981Y-115557710D02*
X140724257Y-115613348D01*
X140724257Y-115613348D02*
X140779895Y-115668986D01*
X140779895Y-115668986D02*
X140835533Y-115780262D01*
X140835533Y-115780262D02*
X140891171Y-116002814D01*
X140891171Y-116002814D02*
X140891171Y-116281005D01*
X140891171Y-116281005D02*
X140835533Y-116503557D01*
X140835533Y-116503557D02*
X140779895Y-116614833D01*
X140779895Y-116614833D02*
X140724257Y-116670472D01*
X140724257Y-116670472D02*
X140612981Y-116726110D01*
X140612981Y-116726110D02*
X140501704Y-116726110D01*
X140501704Y-116726110D02*
X140390428Y-116670472D01*
X140390428Y-116670472D02*
X140334790Y-116614833D01*
X140334790Y-116614833D02*
X140279152Y-116503557D01*
X140279152Y-116503557D02*
X140223514Y-116281005D01*
X140223514Y-116281005D02*
X140223514Y-116002814D01*
X140223514Y-116002814D02*
X140279152Y-115780262D01*
X140279152Y-115780262D02*
X140334790Y-115668986D01*
X140334790Y-115668986D02*
X140390428Y-115613348D01*
X140390428Y-115613348D02*
X140501704Y-115557710D01*
X141614466Y-115557710D02*
X141725743Y-115557710D01*
X141725743Y-115557710D02*
X141837019Y-115613348D01*
X141837019Y-115613348D02*
X141892657Y-115668986D01*
X141892657Y-115668986D02*
X141948295Y-115780262D01*
X141948295Y-115780262D02*
X142003933Y-116002814D01*
X142003933Y-116002814D02*
X142003933Y-116281005D01*
X142003933Y-116281005D02*
X141948295Y-116503557D01*
X141948295Y-116503557D02*
X141892657Y-116614833D01*
X141892657Y-116614833D02*
X141837019Y-116670472D01*
X141837019Y-116670472D02*
X141725743Y-116726110D01*
X141725743Y-116726110D02*
X141614466Y-116726110D01*
X141614466Y-116726110D02*
X141503190Y-116670472D01*
X141503190Y-116670472D02*
X141447552Y-116614833D01*
X141447552Y-116614833D02*
X141391914Y-116503557D01*
X141391914Y-116503557D02*
X141336276Y-116281005D01*
X141336276Y-116281005D02*
X141336276Y-116002814D01*
X141336276Y-116002814D02*
X141391914Y-115780262D01*
X141391914Y-115780262D02*
X141447552Y-115668986D01*
X141447552Y-115668986D02*
X141503190Y-115613348D01*
X141503190Y-115613348D02*
X141614466Y-115557710D01*
%TO.C,CV_4*%
X111599000Y-133296453D02*
X111543362Y-133352092D01*
X111543362Y-133352092D02*
X111376448Y-133407730D01*
X111376448Y-133407730D02*
X111265172Y-133407730D01*
X111265172Y-133407730D02*
X111098257Y-133352092D01*
X111098257Y-133352092D02*
X110986981Y-133240815D01*
X110986981Y-133240815D02*
X110931343Y-133129539D01*
X110931343Y-133129539D02*
X110875705Y-132906987D01*
X110875705Y-132906987D02*
X110875705Y-132740072D01*
X110875705Y-132740072D02*
X110931343Y-132517520D01*
X110931343Y-132517520D02*
X110986981Y-132406244D01*
X110986981Y-132406244D02*
X111098257Y-132294968D01*
X111098257Y-132294968D02*
X111265172Y-132239330D01*
X111265172Y-132239330D02*
X111376448Y-132239330D01*
X111376448Y-132239330D02*
X111543362Y-132294968D01*
X111543362Y-132294968D02*
X111599000Y-132350606D01*
X111932829Y-132239330D02*
X112322295Y-133407730D01*
X112322295Y-133407730D02*
X112711762Y-132239330D01*
X112823039Y-133519006D02*
X113713248Y-133519006D01*
X114492182Y-132628796D02*
X114492182Y-133407730D01*
X114213991Y-132183692D02*
X113935801Y-133018263D01*
X113935801Y-133018263D02*
X114659096Y-133018263D01*
%TO.C,CV_3*%
X111486836Y-117929886D02*
X111431198Y-117985525D01*
X111431198Y-117985525D02*
X111264284Y-118041163D01*
X111264284Y-118041163D02*
X111153008Y-118041163D01*
X111153008Y-118041163D02*
X110986093Y-117985525D01*
X110986093Y-117985525D02*
X110874817Y-117874248D01*
X110874817Y-117874248D02*
X110819179Y-117762972D01*
X110819179Y-117762972D02*
X110763541Y-117540420D01*
X110763541Y-117540420D02*
X110763541Y-117373505D01*
X110763541Y-117373505D02*
X110819179Y-117150953D01*
X110819179Y-117150953D02*
X110874817Y-117039677D01*
X110874817Y-117039677D02*
X110986093Y-116928401D01*
X110986093Y-116928401D02*
X111153008Y-116872763D01*
X111153008Y-116872763D02*
X111264284Y-116872763D01*
X111264284Y-116872763D02*
X111431198Y-116928401D01*
X111431198Y-116928401D02*
X111486836Y-116984039D01*
X111820665Y-116872763D02*
X112210131Y-118041163D01*
X112210131Y-118041163D02*
X112599598Y-116872763D01*
X112710875Y-118152439D02*
X113601084Y-118152439D01*
X113767999Y-116872763D02*
X114491294Y-116872763D01*
X114491294Y-116872763D02*
X114101827Y-117317867D01*
X114101827Y-117317867D02*
X114268742Y-117317867D01*
X114268742Y-117317867D02*
X114380018Y-117373505D01*
X114380018Y-117373505D02*
X114435656Y-117429144D01*
X114435656Y-117429144D02*
X114491294Y-117540420D01*
X114491294Y-117540420D02*
X114491294Y-117818610D01*
X114491294Y-117818610D02*
X114435656Y-117929886D01*
X114435656Y-117929886D02*
X114380018Y-117985525D01*
X114380018Y-117985525D02*
X114268742Y-118041163D01*
X114268742Y-118041163D02*
X113934913Y-118041163D01*
X113934913Y-118041163D02*
X113823637Y-117985525D01*
X113823637Y-117985525D02*
X113767999Y-117929886D01*
%TO.C,C5*%
X154351473Y-94311801D02*
X155074768Y-94311801D01*
X155074768Y-94311801D02*
X154685301Y-94756905D01*
X154685301Y-94756905D02*
X154852216Y-94756905D01*
X154852216Y-94756905D02*
X154963492Y-94812543D01*
X154963492Y-94812543D02*
X155019130Y-94868182D01*
X155019130Y-94868182D02*
X155074768Y-94979458D01*
X155074768Y-94979458D02*
X155074768Y-95257648D01*
X155074768Y-95257648D02*
X155019130Y-95368924D01*
X155019130Y-95368924D02*
X154963492Y-95424563D01*
X154963492Y-95424563D02*
X154852216Y-95480201D01*
X154852216Y-95480201D02*
X154518387Y-95480201D01*
X154518387Y-95480201D02*
X154407111Y-95424563D01*
X154407111Y-95424563D02*
X154351473Y-95368924D01*
X155464235Y-94311801D02*
X156187530Y-94311801D01*
X156187530Y-94311801D02*
X155798063Y-94756905D01*
X155798063Y-94756905D02*
X155964978Y-94756905D01*
X155964978Y-94756905D02*
X156076254Y-94812543D01*
X156076254Y-94812543D02*
X156131892Y-94868182D01*
X156131892Y-94868182D02*
X156187530Y-94979458D01*
X156187530Y-94979458D02*
X156187530Y-95257648D01*
X156187530Y-95257648D02*
X156131892Y-95368924D01*
X156131892Y-95368924D02*
X156076254Y-95424563D01*
X156076254Y-95424563D02*
X155964978Y-95480201D01*
X155964978Y-95480201D02*
X155631149Y-95480201D01*
X155631149Y-95480201D02*
X155519873Y-95424563D01*
X155519873Y-95424563D02*
X155464235Y-95368924D01*
X156910825Y-94311801D02*
X157022102Y-94311801D01*
X157022102Y-94311801D02*
X157133378Y-94367439D01*
X157133378Y-94367439D02*
X157189016Y-94423077D01*
X157189016Y-94423077D02*
X157244654Y-94534353D01*
X157244654Y-94534353D02*
X157300292Y-94756905D01*
X157300292Y-94756905D02*
X157300292Y-95035096D01*
X157300292Y-95035096D02*
X157244654Y-95257648D01*
X157244654Y-95257648D02*
X157189016Y-95368924D01*
X157189016Y-95368924D02*
X157133378Y-95424563D01*
X157133378Y-95424563D02*
X157022102Y-95480201D01*
X157022102Y-95480201D02*
X156910825Y-95480201D01*
X156910825Y-95480201D02*
X156799549Y-95424563D01*
X156799549Y-95424563D02*
X156743911Y-95368924D01*
X156743911Y-95368924D02*
X156688273Y-95257648D01*
X156688273Y-95257648D02*
X156632635Y-95035096D01*
X156632635Y-95035096D02*
X156632635Y-94756905D01*
X156632635Y-94756905D02*
X156688273Y-94534353D01*
X156688273Y-94534353D02*
X156743911Y-94423077D01*
X156743911Y-94423077D02*
X156799549Y-94367439D01*
X156799549Y-94367439D02*
X156910825Y-94311801D01*
X157801035Y-94701267D02*
X157801035Y-95869667D01*
X157801035Y-94756905D02*
X157912311Y-94701267D01*
X157912311Y-94701267D02*
X158134864Y-94701267D01*
X158134864Y-94701267D02*
X158246140Y-94756905D01*
X158246140Y-94756905D02*
X158301778Y-94812543D01*
X158301778Y-94812543D02*
X158357416Y-94923820D01*
X158357416Y-94923820D02*
X158357416Y-95257648D01*
X158357416Y-95257648D02*
X158301778Y-95368924D01*
X158301778Y-95368924D02*
X158246140Y-95424563D01*
X158246140Y-95424563D02*
X158134864Y-95480201D01*
X158134864Y-95480201D02*
X157912311Y-95480201D01*
X157912311Y-95480201D02*
X157801035Y-95424563D01*
X159247626Y-94868182D02*
X158858159Y-94868182D01*
X158858159Y-95480201D02*
X158858159Y-94311801D01*
X158858159Y-94311801D02*
X159414540Y-94311801D01*
%TO.C,C4*%
X154351473Y-84151801D02*
X155074768Y-84151801D01*
X155074768Y-84151801D02*
X154685301Y-84596905D01*
X154685301Y-84596905D02*
X154852216Y-84596905D01*
X154852216Y-84596905D02*
X154963492Y-84652543D01*
X154963492Y-84652543D02*
X155019130Y-84708182D01*
X155019130Y-84708182D02*
X155074768Y-84819458D01*
X155074768Y-84819458D02*
X155074768Y-85097648D01*
X155074768Y-85097648D02*
X155019130Y-85208924D01*
X155019130Y-85208924D02*
X154963492Y-85264563D01*
X154963492Y-85264563D02*
X154852216Y-85320201D01*
X154852216Y-85320201D02*
X154518387Y-85320201D01*
X154518387Y-85320201D02*
X154407111Y-85264563D01*
X154407111Y-85264563D02*
X154351473Y-85208924D01*
X155464235Y-84151801D02*
X156187530Y-84151801D01*
X156187530Y-84151801D02*
X155798063Y-84596905D01*
X155798063Y-84596905D02*
X155964978Y-84596905D01*
X155964978Y-84596905D02*
X156076254Y-84652543D01*
X156076254Y-84652543D02*
X156131892Y-84708182D01*
X156131892Y-84708182D02*
X156187530Y-84819458D01*
X156187530Y-84819458D02*
X156187530Y-85097648D01*
X156187530Y-85097648D02*
X156131892Y-85208924D01*
X156131892Y-85208924D02*
X156076254Y-85264563D01*
X156076254Y-85264563D02*
X155964978Y-85320201D01*
X155964978Y-85320201D02*
X155631149Y-85320201D01*
X155631149Y-85320201D02*
X155519873Y-85264563D01*
X155519873Y-85264563D02*
X155464235Y-85208924D01*
X156910825Y-84151801D02*
X157022102Y-84151801D01*
X157022102Y-84151801D02*
X157133378Y-84207439D01*
X157133378Y-84207439D02*
X157189016Y-84263077D01*
X157189016Y-84263077D02*
X157244654Y-84374353D01*
X157244654Y-84374353D02*
X157300292Y-84596905D01*
X157300292Y-84596905D02*
X157300292Y-84875096D01*
X157300292Y-84875096D02*
X157244654Y-85097648D01*
X157244654Y-85097648D02*
X157189016Y-85208924D01*
X157189016Y-85208924D02*
X157133378Y-85264563D01*
X157133378Y-85264563D02*
X157022102Y-85320201D01*
X157022102Y-85320201D02*
X156910825Y-85320201D01*
X156910825Y-85320201D02*
X156799549Y-85264563D01*
X156799549Y-85264563D02*
X156743911Y-85208924D01*
X156743911Y-85208924D02*
X156688273Y-85097648D01*
X156688273Y-85097648D02*
X156632635Y-84875096D01*
X156632635Y-84875096D02*
X156632635Y-84596905D01*
X156632635Y-84596905D02*
X156688273Y-84374353D01*
X156688273Y-84374353D02*
X156743911Y-84263077D01*
X156743911Y-84263077D02*
X156799549Y-84207439D01*
X156799549Y-84207439D02*
X156910825Y-84151801D01*
X157801035Y-84541267D02*
X157801035Y-85709667D01*
X157801035Y-84596905D02*
X157912311Y-84541267D01*
X157912311Y-84541267D02*
X158134864Y-84541267D01*
X158134864Y-84541267D02*
X158246140Y-84596905D01*
X158246140Y-84596905D02*
X158301778Y-84652543D01*
X158301778Y-84652543D02*
X158357416Y-84763820D01*
X158357416Y-84763820D02*
X158357416Y-85097648D01*
X158357416Y-85097648D02*
X158301778Y-85208924D01*
X158301778Y-85208924D02*
X158246140Y-85264563D01*
X158246140Y-85264563D02*
X158134864Y-85320201D01*
X158134864Y-85320201D02*
X157912311Y-85320201D01*
X157912311Y-85320201D02*
X157801035Y-85264563D01*
X159247626Y-84708182D02*
X158858159Y-84708182D01*
X158858159Y-85320201D02*
X158858159Y-84151801D01*
X158858159Y-84151801D02*
X159414540Y-84151801D01*
%TO.C,OffsetTestPoint (-5v)*%
X137660742Y-128497623D02*
X137883295Y-128497623D01*
X137883295Y-128497623D02*
X137994571Y-128553261D01*
X137994571Y-128553261D02*
X138105847Y-128664537D01*
X138105847Y-128664537D02*
X138161485Y-128887089D01*
X138161485Y-128887089D02*
X138161485Y-129276556D01*
X138161485Y-129276556D02*
X138105847Y-129499108D01*
X138105847Y-129499108D02*
X137994571Y-129610385D01*
X137994571Y-129610385D02*
X137883295Y-129666023D01*
X137883295Y-129666023D02*
X137660742Y-129666023D01*
X137660742Y-129666023D02*
X137549466Y-129610385D01*
X137549466Y-129610385D02*
X137438190Y-129499108D01*
X137438190Y-129499108D02*
X137382552Y-129276556D01*
X137382552Y-129276556D02*
X137382552Y-128887089D01*
X137382552Y-128887089D02*
X137438190Y-128664537D01*
X137438190Y-128664537D02*
X137549466Y-128553261D01*
X137549466Y-128553261D02*
X137660742Y-128497623D01*
X138495314Y-128887089D02*
X138940418Y-128887089D01*
X138662228Y-129666023D02*
X138662228Y-128664537D01*
X138662228Y-128664537D02*
X138717866Y-128553261D01*
X138717866Y-128553261D02*
X138829142Y-128497623D01*
X138829142Y-128497623D02*
X138940418Y-128497623D01*
X139162971Y-128887089D02*
X139608075Y-128887089D01*
X139329885Y-129666023D02*
X139329885Y-128664537D01*
X139329885Y-128664537D02*
X139385523Y-128553261D01*
X139385523Y-128553261D02*
X139496799Y-128497623D01*
X139496799Y-128497623D02*
X139608075Y-128497623D01*
X139941904Y-129610385D02*
X140053180Y-129666023D01*
X140053180Y-129666023D02*
X140275732Y-129666023D01*
X140275732Y-129666023D02*
X140387009Y-129610385D01*
X140387009Y-129610385D02*
X140442647Y-129499108D01*
X140442647Y-129499108D02*
X140442647Y-129443470D01*
X140442647Y-129443470D02*
X140387009Y-129332194D01*
X140387009Y-129332194D02*
X140275732Y-129276556D01*
X140275732Y-129276556D02*
X140108818Y-129276556D01*
X140108818Y-129276556D02*
X139997542Y-129220918D01*
X139997542Y-129220918D02*
X139941904Y-129109642D01*
X139941904Y-129109642D02*
X139941904Y-129054004D01*
X139941904Y-129054004D02*
X139997542Y-128942727D01*
X139997542Y-128942727D02*
X140108818Y-128887089D01*
X140108818Y-128887089D02*
X140275732Y-128887089D01*
X140275732Y-128887089D02*
X140387009Y-128942727D01*
X141388495Y-129610385D02*
X141277219Y-129666023D01*
X141277219Y-129666023D02*
X141054666Y-129666023D01*
X141054666Y-129666023D02*
X140943390Y-129610385D01*
X140943390Y-129610385D02*
X140887752Y-129499108D01*
X140887752Y-129499108D02*
X140887752Y-129054004D01*
X140887752Y-129054004D02*
X140943390Y-128942727D01*
X140943390Y-128942727D02*
X141054666Y-128887089D01*
X141054666Y-128887089D02*
X141277219Y-128887089D01*
X141277219Y-128887089D02*
X141388495Y-128942727D01*
X141388495Y-128942727D02*
X141444133Y-129054004D01*
X141444133Y-129054004D02*
X141444133Y-129165280D01*
X141444133Y-129165280D02*
X140887752Y-129276556D01*
X141777962Y-128887089D02*
X142223066Y-128887089D01*
X141944876Y-128497623D02*
X141944876Y-129499108D01*
X141944876Y-129499108D02*
X142000514Y-129610385D01*
X142000514Y-129610385D02*
X142111790Y-129666023D01*
X142111790Y-129666023D02*
X142223066Y-129666023D01*
X142445619Y-128497623D02*
X143113276Y-128497623D01*
X142779447Y-129666023D02*
X142779447Y-128497623D01*
X143947848Y-129610385D02*
X143836572Y-129666023D01*
X143836572Y-129666023D02*
X143614019Y-129666023D01*
X143614019Y-129666023D02*
X143502743Y-129610385D01*
X143502743Y-129610385D02*
X143447105Y-129499108D01*
X143447105Y-129499108D02*
X143447105Y-129054004D01*
X143447105Y-129054004D02*
X143502743Y-128942727D01*
X143502743Y-128942727D02*
X143614019Y-128887089D01*
X143614019Y-128887089D02*
X143836572Y-128887089D01*
X143836572Y-128887089D02*
X143947848Y-128942727D01*
X143947848Y-128942727D02*
X144003486Y-129054004D01*
X144003486Y-129054004D02*
X144003486Y-129165280D01*
X144003486Y-129165280D02*
X143447105Y-129276556D01*
X144448591Y-129610385D02*
X144559867Y-129666023D01*
X144559867Y-129666023D02*
X144782419Y-129666023D01*
X144782419Y-129666023D02*
X144893696Y-129610385D01*
X144893696Y-129610385D02*
X144949334Y-129499108D01*
X144949334Y-129499108D02*
X144949334Y-129443470D01*
X144949334Y-129443470D02*
X144893696Y-129332194D01*
X144893696Y-129332194D02*
X144782419Y-129276556D01*
X144782419Y-129276556D02*
X144615505Y-129276556D01*
X144615505Y-129276556D02*
X144504229Y-129220918D01*
X144504229Y-129220918D02*
X144448591Y-129109642D01*
X144448591Y-129109642D02*
X144448591Y-129054004D01*
X144448591Y-129054004D02*
X144504229Y-128942727D01*
X144504229Y-128942727D02*
X144615505Y-128887089D01*
X144615505Y-128887089D02*
X144782419Y-128887089D01*
X144782419Y-128887089D02*
X144893696Y-128942727D01*
X145283163Y-128887089D02*
X145728267Y-128887089D01*
X145450077Y-128497623D02*
X145450077Y-129499108D01*
X145450077Y-129499108D02*
X145505715Y-129610385D01*
X145505715Y-129610385D02*
X145616991Y-129666023D01*
X145616991Y-129666023D02*
X145728267Y-129666023D01*
X146117734Y-129666023D02*
X146117734Y-128497623D01*
X146117734Y-128497623D02*
X146562839Y-128497623D01*
X146562839Y-128497623D02*
X146674115Y-128553261D01*
X146674115Y-128553261D02*
X146729753Y-128608899D01*
X146729753Y-128608899D02*
X146785391Y-128720175D01*
X146785391Y-128720175D02*
X146785391Y-128887089D01*
X146785391Y-128887089D02*
X146729753Y-128998365D01*
X146729753Y-128998365D02*
X146674115Y-129054004D01*
X146674115Y-129054004D02*
X146562839Y-129109642D01*
X146562839Y-129109642D02*
X146117734Y-129109642D01*
X147453048Y-129666023D02*
X147341772Y-129610385D01*
X147341772Y-129610385D02*
X147286134Y-129554746D01*
X147286134Y-129554746D02*
X147230496Y-129443470D01*
X147230496Y-129443470D02*
X147230496Y-129109642D01*
X147230496Y-129109642D02*
X147286134Y-128998365D01*
X147286134Y-128998365D02*
X147341772Y-128942727D01*
X147341772Y-128942727D02*
X147453048Y-128887089D01*
X147453048Y-128887089D02*
X147619963Y-128887089D01*
X147619963Y-128887089D02*
X147731239Y-128942727D01*
X147731239Y-128942727D02*
X147786877Y-128998365D01*
X147786877Y-128998365D02*
X147842515Y-129109642D01*
X147842515Y-129109642D02*
X147842515Y-129443470D01*
X147842515Y-129443470D02*
X147786877Y-129554746D01*
X147786877Y-129554746D02*
X147731239Y-129610385D01*
X147731239Y-129610385D02*
X147619963Y-129666023D01*
X147619963Y-129666023D02*
X147453048Y-129666023D01*
X148343258Y-129666023D02*
X148343258Y-128887089D01*
X148343258Y-128497623D02*
X148287620Y-128553261D01*
X148287620Y-128553261D02*
X148343258Y-128608899D01*
X148343258Y-128608899D02*
X148398896Y-128553261D01*
X148398896Y-128553261D02*
X148343258Y-128497623D01*
X148343258Y-128497623D02*
X148343258Y-128608899D01*
X148899639Y-128887089D02*
X148899639Y-129666023D01*
X148899639Y-128998365D02*
X148955277Y-128942727D01*
X148955277Y-128942727D02*
X149066553Y-128887089D01*
X149066553Y-128887089D02*
X149233468Y-128887089D01*
X149233468Y-128887089D02*
X149344744Y-128942727D01*
X149344744Y-128942727D02*
X149400382Y-129054004D01*
X149400382Y-129054004D02*
X149400382Y-129666023D01*
X149789849Y-128887089D02*
X150234953Y-128887089D01*
X149956763Y-128497623D02*
X149956763Y-129499108D01*
X149956763Y-129499108D02*
X150012401Y-129610385D01*
X150012401Y-129610385D02*
X150123677Y-129666023D01*
X150123677Y-129666023D02*
X150234953Y-129666023D01*
X151848459Y-130111127D02*
X151792820Y-130055489D01*
X151792820Y-130055489D02*
X151681544Y-129888575D01*
X151681544Y-129888575D02*
X151625906Y-129777299D01*
X151625906Y-129777299D02*
X151570268Y-129610385D01*
X151570268Y-129610385D02*
X151514630Y-129332194D01*
X151514630Y-129332194D02*
X151514630Y-129109642D01*
X151514630Y-129109642D02*
X151570268Y-128831451D01*
X151570268Y-128831451D02*
X151625906Y-128664537D01*
X151625906Y-128664537D02*
X151681544Y-128553261D01*
X151681544Y-128553261D02*
X151792820Y-128386346D01*
X151792820Y-128386346D02*
X151848459Y-128330708D01*
X152293563Y-129220918D02*
X153183773Y-129220918D01*
X154296534Y-128497623D02*
X153740153Y-128497623D01*
X153740153Y-128497623D02*
X153684515Y-129054004D01*
X153684515Y-129054004D02*
X153740153Y-128998365D01*
X153740153Y-128998365D02*
X153851429Y-128942727D01*
X153851429Y-128942727D02*
X154129620Y-128942727D01*
X154129620Y-128942727D02*
X154240896Y-128998365D01*
X154240896Y-128998365D02*
X154296534Y-129054004D01*
X154296534Y-129054004D02*
X154352172Y-129165280D01*
X154352172Y-129165280D02*
X154352172Y-129443470D01*
X154352172Y-129443470D02*
X154296534Y-129554746D01*
X154296534Y-129554746D02*
X154240896Y-129610385D01*
X154240896Y-129610385D02*
X154129620Y-129666023D01*
X154129620Y-129666023D02*
X153851429Y-129666023D01*
X153851429Y-129666023D02*
X153740153Y-129610385D01*
X153740153Y-129610385D02*
X153684515Y-129554746D01*
X154741639Y-128887089D02*
X155019829Y-129666023D01*
X155019829Y-129666023D02*
X155298020Y-128887089D01*
X155631849Y-130111127D02*
X155687487Y-130055489D01*
X155687487Y-130055489D02*
X155798763Y-129888575D01*
X155798763Y-129888575D02*
X155854401Y-129777299D01*
X155854401Y-129777299D02*
X155910039Y-129610385D01*
X155910039Y-129610385D02*
X155965677Y-129332194D01*
X155965677Y-129332194D02*
X155965677Y-129109642D01*
X155965677Y-129109642D02*
X155910039Y-128831451D01*
X155910039Y-128831451D02*
X155854401Y-128664537D01*
X155854401Y-128664537D02*
X155798763Y-128553261D01*
X155798763Y-128553261D02*
X155687487Y-128386346D01*
X155687487Y-128386346D02*
X155631849Y-128330708D01*
%TO.C,R9*%
X139778409Y-111646110D02*
X139110752Y-111646110D01*
X139444580Y-111646110D02*
X139444580Y-110477710D01*
X139444580Y-110477710D02*
X139333304Y-110644624D01*
X139333304Y-110644624D02*
X139222028Y-110755900D01*
X139222028Y-110755900D02*
X139110752Y-110811538D01*
X140501704Y-110477710D02*
X140612981Y-110477710D01*
X140612981Y-110477710D02*
X140724257Y-110533348D01*
X140724257Y-110533348D02*
X140779895Y-110588986D01*
X140779895Y-110588986D02*
X140835533Y-110700262D01*
X140835533Y-110700262D02*
X140891171Y-110922814D01*
X140891171Y-110922814D02*
X140891171Y-111201005D01*
X140891171Y-111201005D02*
X140835533Y-111423557D01*
X140835533Y-111423557D02*
X140779895Y-111534833D01*
X140779895Y-111534833D02*
X140724257Y-111590472D01*
X140724257Y-111590472D02*
X140612981Y-111646110D01*
X140612981Y-111646110D02*
X140501704Y-111646110D01*
X140501704Y-111646110D02*
X140390428Y-111590472D01*
X140390428Y-111590472D02*
X140334790Y-111534833D01*
X140334790Y-111534833D02*
X140279152Y-111423557D01*
X140279152Y-111423557D02*
X140223514Y-111201005D01*
X140223514Y-111201005D02*
X140223514Y-110922814D01*
X140223514Y-110922814D02*
X140279152Y-110700262D01*
X140279152Y-110700262D02*
X140334790Y-110588986D01*
X140334790Y-110588986D02*
X140390428Y-110533348D01*
X140390428Y-110533348D02*
X140501704Y-110477710D01*
X141614466Y-110477710D02*
X141725743Y-110477710D01*
X141725743Y-110477710D02*
X141837019Y-110533348D01*
X141837019Y-110533348D02*
X141892657Y-110588986D01*
X141892657Y-110588986D02*
X141948295Y-110700262D01*
X141948295Y-110700262D02*
X142003933Y-110922814D01*
X142003933Y-110922814D02*
X142003933Y-111201005D01*
X142003933Y-111201005D02*
X141948295Y-111423557D01*
X141948295Y-111423557D02*
X141892657Y-111534833D01*
X141892657Y-111534833D02*
X141837019Y-111590472D01*
X141837019Y-111590472D02*
X141725743Y-111646110D01*
X141725743Y-111646110D02*
X141614466Y-111646110D01*
X141614466Y-111646110D02*
X141503190Y-111590472D01*
X141503190Y-111590472D02*
X141447552Y-111534833D01*
X141447552Y-111534833D02*
X141391914Y-111423557D01*
X141391914Y-111423557D02*
X141336276Y-111201005D01*
X141336276Y-111201005D02*
X141336276Y-110922814D01*
X141336276Y-110922814D02*
X141391914Y-110700262D01*
X141391914Y-110700262D02*
X141447552Y-110588986D01*
X141447552Y-110588986D02*
X141503190Y-110533348D01*
X141503190Y-110533348D02*
X141614466Y-110477710D01*
%TO.C,R8*%
X144775114Y-105397710D02*
X145498409Y-105397710D01*
X145498409Y-105397710D02*
X145108942Y-105842814D01*
X145108942Y-105842814D02*
X145275857Y-105842814D01*
X145275857Y-105842814D02*
X145387133Y-105898452D01*
X145387133Y-105898452D02*
X145442771Y-105954091D01*
X145442771Y-105954091D02*
X145498409Y-106065367D01*
X145498409Y-106065367D02*
X145498409Y-106343557D01*
X145498409Y-106343557D02*
X145442771Y-106454833D01*
X145442771Y-106454833D02*
X145387133Y-106510472D01*
X145387133Y-106510472D02*
X145275857Y-106566110D01*
X145275857Y-106566110D02*
X144942028Y-106566110D01*
X144942028Y-106566110D02*
X144830752Y-106510472D01*
X144830752Y-106510472D02*
X144775114Y-106454833D01*
X145887876Y-105397710D02*
X146611171Y-105397710D01*
X146611171Y-105397710D02*
X146221704Y-105842814D01*
X146221704Y-105842814D02*
X146388619Y-105842814D01*
X146388619Y-105842814D02*
X146499895Y-105898452D01*
X146499895Y-105898452D02*
X146555533Y-105954091D01*
X146555533Y-105954091D02*
X146611171Y-106065367D01*
X146611171Y-106065367D02*
X146611171Y-106343557D01*
X146611171Y-106343557D02*
X146555533Y-106454833D01*
X146555533Y-106454833D02*
X146499895Y-106510472D01*
X146499895Y-106510472D02*
X146388619Y-106566110D01*
X146388619Y-106566110D02*
X146054790Y-106566110D01*
X146054790Y-106566110D02*
X145943514Y-106510472D01*
X145943514Y-106510472D02*
X145887876Y-106454833D01*
X147111914Y-106566110D02*
X147111914Y-105397710D01*
X147223190Y-106121005D02*
X147557019Y-106566110D01*
X147557019Y-105787176D02*
X147111914Y-106232281D01*
%TO.C,R7*%
X150047414Y-84063710D02*
X150826347Y-84063710D01*
X150826347Y-84063710D02*
X150325604Y-85232110D01*
X151827833Y-84063710D02*
X151271452Y-84063710D01*
X151271452Y-84063710D02*
X151215814Y-84620091D01*
X151215814Y-84620091D02*
X151271452Y-84564452D01*
X151271452Y-84564452D02*
X151382728Y-84508814D01*
X151382728Y-84508814D02*
X151660919Y-84508814D01*
X151660919Y-84508814D02*
X151772195Y-84564452D01*
X151772195Y-84564452D02*
X151827833Y-84620091D01*
X151827833Y-84620091D02*
X151883471Y-84731367D01*
X151883471Y-84731367D02*
X151883471Y-85009557D01*
X151883471Y-85009557D02*
X151827833Y-85120833D01*
X151827833Y-85120833D02*
X151772195Y-85176472D01*
X151772195Y-85176472D02*
X151660919Y-85232110D01*
X151660919Y-85232110D02*
X151382728Y-85232110D01*
X151382728Y-85232110D02*
X151271452Y-85176472D01*
X151271452Y-85176472D02*
X151215814Y-85120833D01*
X152384214Y-85232110D02*
X152384214Y-84063710D01*
X152495490Y-84787005D02*
X152829319Y-85232110D01*
X152829319Y-84453176D02*
X152384214Y-84898281D01*
%TO.C,R6*%
X139778409Y-106566110D02*
X139110752Y-106566110D01*
X139444580Y-106566110D02*
X139444580Y-105397710D01*
X139444580Y-105397710D02*
X139333304Y-105564624D01*
X139333304Y-105564624D02*
X139222028Y-105675900D01*
X139222028Y-105675900D02*
X139110752Y-105731538D01*
X140501704Y-105397710D02*
X140612981Y-105397710D01*
X140612981Y-105397710D02*
X140724257Y-105453348D01*
X140724257Y-105453348D02*
X140779895Y-105508986D01*
X140779895Y-105508986D02*
X140835533Y-105620262D01*
X140835533Y-105620262D02*
X140891171Y-105842814D01*
X140891171Y-105842814D02*
X140891171Y-106121005D01*
X140891171Y-106121005D02*
X140835533Y-106343557D01*
X140835533Y-106343557D02*
X140779895Y-106454833D01*
X140779895Y-106454833D02*
X140724257Y-106510472D01*
X140724257Y-106510472D02*
X140612981Y-106566110D01*
X140612981Y-106566110D02*
X140501704Y-106566110D01*
X140501704Y-106566110D02*
X140390428Y-106510472D01*
X140390428Y-106510472D02*
X140334790Y-106454833D01*
X140334790Y-106454833D02*
X140279152Y-106343557D01*
X140279152Y-106343557D02*
X140223514Y-106121005D01*
X140223514Y-106121005D02*
X140223514Y-105842814D01*
X140223514Y-105842814D02*
X140279152Y-105620262D01*
X140279152Y-105620262D02*
X140334790Y-105508986D01*
X140334790Y-105508986D02*
X140390428Y-105453348D01*
X140390428Y-105453348D02*
X140501704Y-105397710D01*
X141614466Y-105397710D02*
X141725743Y-105397710D01*
X141725743Y-105397710D02*
X141837019Y-105453348D01*
X141837019Y-105453348D02*
X141892657Y-105508986D01*
X141892657Y-105508986D02*
X141948295Y-105620262D01*
X141948295Y-105620262D02*
X142003933Y-105842814D01*
X142003933Y-105842814D02*
X142003933Y-106121005D01*
X142003933Y-106121005D02*
X141948295Y-106343557D01*
X141948295Y-106343557D02*
X141892657Y-106454833D01*
X141892657Y-106454833D02*
X141837019Y-106510472D01*
X141837019Y-106510472D02*
X141725743Y-106566110D01*
X141725743Y-106566110D02*
X141614466Y-106566110D01*
X141614466Y-106566110D02*
X141503190Y-106510472D01*
X141503190Y-106510472D02*
X141447552Y-106454833D01*
X141447552Y-106454833D02*
X141391914Y-106343557D01*
X141391914Y-106343557D02*
X141336276Y-106121005D01*
X141336276Y-106121005D02*
X141336276Y-105842814D01*
X141336276Y-105842814D02*
X141391914Y-105620262D01*
X141391914Y-105620262D02*
X141447552Y-105508986D01*
X141447552Y-105508986D02*
X141503190Y-105453348D01*
X141503190Y-105453348D02*
X141614466Y-105397710D01*
%TO.C,R5*%
X144775114Y-100317710D02*
X145498409Y-100317710D01*
X145498409Y-100317710D02*
X145108942Y-100762814D01*
X145108942Y-100762814D02*
X145275857Y-100762814D01*
X145275857Y-100762814D02*
X145387133Y-100818452D01*
X145387133Y-100818452D02*
X145442771Y-100874091D01*
X145442771Y-100874091D02*
X145498409Y-100985367D01*
X145498409Y-100985367D02*
X145498409Y-101263557D01*
X145498409Y-101263557D02*
X145442771Y-101374833D01*
X145442771Y-101374833D02*
X145387133Y-101430472D01*
X145387133Y-101430472D02*
X145275857Y-101486110D01*
X145275857Y-101486110D02*
X144942028Y-101486110D01*
X144942028Y-101486110D02*
X144830752Y-101430472D01*
X144830752Y-101430472D02*
X144775114Y-101374833D01*
X145887876Y-100317710D02*
X146611171Y-100317710D01*
X146611171Y-100317710D02*
X146221704Y-100762814D01*
X146221704Y-100762814D02*
X146388619Y-100762814D01*
X146388619Y-100762814D02*
X146499895Y-100818452D01*
X146499895Y-100818452D02*
X146555533Y-100874091D01*
X146555533Y-100874091D02*
X146611171Y-100985367D01*
X146611171Y-100985367D02*
X146611171Y-101263557D01*
X146611171Y-101263557D02*
X146555533Y-101374833D01*
X146555533Y-101374833D02*
X146499895Y-101430472D01*
X146499895Y-101430472D02*
X146388619Y-101486110D01*
X146388619Y-101486110D02*
X146054790Y-101486110D01*
X146054790Y-101486110D02*
X145943514Y-101430472D01*
X145943514Y-101430472D02*
X145887876Y-101374833D01*
X147111914Y-101486110D02*
X147111914Y-100317710D01*
X147223190Y-101041005D02*
X147557019Y-101486110D01*
X147557019Y-100707176D02*
X147111914Y-101152281D01*
%TO.C,R4*%
X150047414Y-78983710D02*
X150826347Y-78983710D01*
X150826347Y-78983710D02*
X150325604Y-80152110D01*
X151827833Y-78983710D02*
X151271452Y-78983710D01*
X151271452Y-78983710D02*
X151215814Y-79540091D01*
X151215814Y-79540091D02*
X151271452Y-79484452D01*
X151271452Y-79484452D02*
X151382728Y-79428814D01*
X151382728Y-79428814D02*
X151660919Y-79428814D01*
X151660919Y-79428814D02*
X151772195Y-79484452D01*
X151772195Y-79484452D02*
X151827833Y-79540091D01*
X151827833Y-79540091D02*
X151883471Y-79651367D01*
X151883471Y-79651367D02*
X151883471Y-79929557D01*
X151883471Y-79929557D02*
X151827833Y-80040833D01*
X151827833Y-80040833D02*
X151772195Y-80096472D01*
X151772195Y-80096472D02*
X151660919Y-80152110D01*
X151660919Y-80152110D02*
X151382728Y-80152110D01*
X151382728Y-80152110D02*
X151271452Y-80096472D01*
X151271452Y-80096472D02*
X151215814Y-80040833D01*
X152384214Y-80152110D02*
X152384214Y-78983710D01*
X152495490Y-79707005D02*
X152829319Y-80152110D01*
X152829319Y-79373176D02*
X152384214Y-79818281D01*
%TO.C,R3*%
X151526109Y-101368910D02*
X150858452Y-101368910D01*
X151192280Y-101368910D02*
X151192280Y-100200510D01*
X151192280Y-100200510D02*
X151081004Y-100367424D01*
X151081004Y-100367424D02*
X150969728Y-100478700D01*
X150969728Y-100478700D02*
X150858452Y-100534338D01*
X152249404Y-100200510D02*
X152360681Y-100200510D01*
X152360681Y-100200510D02*
X152471957Y-100256148D01*
X152471957Y-100256148D02*
X152527595Y-100311786D01*
X152527595Y-100311786D02*
X152583233Y-100423062D01*
X152583233Y-100423062D02*
X152638871Y-100645614D01*
X152638871Y-100645614D02*
X152638871Y-100923805D01*
X152638871Y-100923805D02*
X152583233Y-101146357D01*
X152583233Y-101146357D02*
X152527595Y-101257633D01*
X152527595Y-101257633D02*
X152471957Y-101313272D01*
X152471957Y-101313272D02*
X152360681Y-101368910D01*
X152360681Y-101368910D02*
X152249404Y-101368910D01*
X152249404Y-101368910D02*
X152138128Y-101313272D01*
X152138128Y-101313272D02*
X152082490Y-101257633D01*
X152082490Y-101257633D02*
X152026852Y-101146357D01*
X152026852Y-101146357D02*
X151971214Y-100923805D01*
X151971214Y-100923805D02*
X151971214Y-100645614D01*
X151971214Y-100645614D02*
X152026852Y-100423062D01*
X152026852Y-100423062D02*
X152082490Y-100311786D01*
X152082490Y-100311786D02*
X152138128Y-100256148D01*
X152138128Y-100256148D02*
X152249404Y-100200510D01*
X153362166Y-100200510D02*
X153473443Y-100200510D01*
X153473443Y-100200510D02*
X153584719Y-100256148D01*
X153584719Y-100256148D02*
X153640357Y-100311786D01*
X153640357Y-100311786D02*
X153695995Y-100423062D01*
X153695995Y-100423062D02*
X153751633Y-100645614D01*
X153751633Y-100645614D02*
X153751633Y-100923805D01*
X153751633Y-100923805D02*
X153695995Y-101146357D01*
X153695995Y-101146357D02*
X153640357Y-101257633D01*
X153640357Y-101257633D02*
X153584719Y-101313272D01*
X153584719Y-101313272D02*
X153473443Y-101368910D01*
X153473443Y-101368910D02*
X153362166Y-101368910D01*
X153362166Y-101368910D02*
X153250890Y-101313272D01*
X153250890Y-101313272D02*
X153195252Y-101257633D01*
X153195252Y-101257633D02*
X153139614Y-101146357D01*
X153139614Y-101146357D02*
X153083976Y-100923805D01*
X153083976Y-100923805D02*
X153083976Y-100645614D01*
X153083976Y-100645614D02*
X153139614Y-100423062D01*
X153139614Y-100423062D02*
X153195252Y-100311786D01*
X153195252Y-100311786D02*
X153250890Y-100256148D01*
X153250890Y-100256148D02*
X153362166Y-100200510D01*
X154252376Y-101368910D02*
X154252376Y-100200510D01*
X154363652Y-100923805D02*
X154697481Y-101368910D01*
X154697481Y-100589976D02*
X154252376Y-101035081D01*
%TO.C,R2*%
X151526109Y-106448910D02*
X150858452Y-106448910D01*
X151192280Y-106448910D02*
X151192280Y-105280510D01*
X151192280Y-105280510D02*
X151081004Y-105447424D01*
X151081004Y-105447424D02*
X150969728Y-105558700D01*
X150969728Y-105558700D02*
X150858452Y-105614338D01*
X152249404Y-105280510D02*
X152360681Y-105280510D01*
X152360681Y-105280510D02*
X152471957Y-105336148D01*
X152471957Y-105336148D02*
X152527595Y-105391786D01*
X152527595Y-105391786D02*
X152583233Y-105503062D01*
X152583233Y-105503062D02*
X152638871Y-105725614D01*
X152638871Y-105725614D02*
X152638871Y-106003805D01*
X152638871Y-106003805D02*
X152583233Y-106226357D01*
X152583233Y-106226357D02*
X152527595Y-106337633D01*
X152527595Y-106337633D02*
X152471957Y-106393272D01*
X152471957Y-106393272D02*
X152360681Y-106448910D01*
X152360681Y-106448910D02*
X152249404Y-106448910D01*
X152249404Y-106448910D02*
X152138128Y-106393272D01*
X152138128Y-106393272D02*
X152082490Y-106337633D01*
X152082490Y-106337633D02*
X152026852Y-106226357D01*
X152026852Y-106226357D02*
X151971214Y-106003805D01*
X151971214Y-106003805D02*
X151971214Y-105725614D01*
X151971214Y-105725614D02*
X152026852Y-105503062D01*
X152026852Y-105503062D02*
X152082490Y-105391786D01*
X152082490Y-105391786D02*
X152138128Y-105336148D01*
X152138128Y-105336148D02*
X152249404Y-105280510D01*
X153362166Y-105280510D02*
X153473443Y-105280510D01*
X153473443Y-105280510D02*
X153584719Y-105336148D01*
X153584719Y-105336148D02*
X153640357Y-105391786D01*
X153640357Y-105391786D02*
X153695995Y-105503062D01*
X153695995Y-105503062D02*
X153751633Y-105725614D01*
X153751633Y-105725614D02*
X153751633Y-106003805D01*
X153751633Y-106003805D02*
X153695995Y-106226357D01*
X153695995Y-106226357D02*
X153640357Y-106337633D01*
X153640357Y-106337633D02*
X153584719Y-106393272D01*
X153584719Y-106393272D02*
X153473443Y-106448910D01*
X153473443Y-106448910D02*
X153362166Y-106448910D01*
X153362166Y-106448910D02*
X153250890Y-106393272D01*
X153250890Y-106393272D02*
X153195252Y-106337633D01*
X153195252Y-106337633D02*
X153139614Y-106226357D01*
X153139614Y-106226357D02*
X153083976Y-106003805D01*
X153083976Y-106003805D02*
X153083976Y-105725614D01*
X153083976Y-105725614D02*
X153139614Y-105503062D01*
X153139614Y-105503062D02*
X153195252Y-105391786D01*
X153195252Y-105391786D02*
X153250890Y-105336148D01*
X153250890Y-105336148D02*
X153362166Y-105280510D01*
X154252376Y-106448910D02*
X154252376Y-105280510D01*
X154363652Y-106003805D02*
X154697481Y-106448910D01*
X154697481Y-105669976D02*
X154252376Y-106115081D01*
%TO.C,R1*%
X147857552Y-120719886D02*
X147913190Y-120664248D01*
X147913190Y-120664248D02*
X148024466Y-120608610D01*
X148024466Y-120608610D02*
X148302657Y-120608610D01*
X148302657Y-120608610D02*
X148413933Y-120664248D01*
X148413933Y-120664248D02*
X148469571Y-120719886D01*
X148469571Y-120719886D02*
X148525209Y-120831162D01*
X148525209Y-120831162D02*
X148525209Y-120942438D01*
X148525209Y-120942438D02*
X148469571Y-121109352D01*
X148469571Y-121109352D02*
X147801914Y-121777010D01*
X147801914Y-121777010D02*
X148525209Y-121777010D01*
X149025952Y-121777010D02*
X149025952Y-120608610D01*
X149137228Y-121331905D02*
X149471057Y-121777010D01*
X149471057Y-120998076D02*
X149025952Y-121443181D01*
%TO.C,IC1*%
X138994690Y-119307710D02*
X138994690Y-118139310D01*
X140218728Y-119196433D02*
X140163090Y-119252072D01*
X140163090Y-119252072D02*
X139996176Y-119307710D01*
X139996176Y-119307710D02*
X139884900Y-119307710D01*
X139884900Y-119307710D02*
X139717985Y-119252072D01*
X139717985Y-119252072D02*
X139606709Y-119140795D01*
X139606709Y-119140795D02*
X139551071Y-119029519D01*
X139551071Y-119029519D02*
X139495433Y-118806967D01*
X139495433Y-118806967D02*
X139495433Y-118640052D01*
X139495433Y-118640052D02*
X139551071Y-118417500D01*
X139551071Y-118417500D02*
X139606709Y-118306224D01*
X139606709Y-118306224D02*
X139717985Y-118194948D01*
X139717985Y-118194948D02*
X139884900Y-118139310D01*
X139884900Y-118139310D02*
X139996176Y-118139310D01*
X139996176Y-118139310D02*
X140163090Y-118194948D01*
X140163090Y-118194948D02*
X140218728Y-118250586D01*
X141331490Y-119307710D02*
X140663833Y-119307710D01*
X140997661Y-119307710D02*
X140997661Y-118139310D01*
X140997661Y-118139310D02*
X140886385Y-118306224D01*
X140886385Y-118306224D02*
X140775109Y-118417500D01*
X140775109Y-118417500D02*
X140663833Y-118473138D01*
X138261019Y-125867090D02*
X138261019Y-126105185D01*
X138261019Y-126105185D02*
X137761019Y-126105185D01*
X138261019Y-125700423D02*
X137761019Y-125700423D01*
X137761019Y-125700423D02*
X138118162Y-125533756D01*
X138118162Y-125533756D02*
X137761019Y-125367090D01*
X137761019Y-125367090D02*
X138261019Y-125367090D01*
X137927686Y-124914708D02*
X138261019Y-124914708D01*
X137737210Y-125033756D02*
X138094352Y-125152803D01*
X138094352Y-125152803D02*
X138094352Y-124843280D01*
X137761019Y-124557566D02*
X137761019Y-124509947D01*
X137761019Y-124509947D02*
X137784829Y-124462328D01*
X137784829Y-124462328D02*
X137808638Y-124438518D01*
X137808638Y-124438518D02*
X137856257Y-124414709D01*
X137856257Y-124414709D02*
X137951495Y-124390899D01*
X137951495Y-124390899D02*
X138070543Y-124390899D01*
X138070543Y-124390899D02*
X138165781Y-124414709D01*
X138165781Y-124414709D02*
X138213400Y-124438518D01*
X138213400Y-124438518D02*
X138237210Y-124462328D01*
X138237210Y-124462328D02*
X138261019Y-124509947D01*
X138261019Y-124509947D02*
X138261019Y-124557566D01*
X138261019Y-124557566D02*
X138237210Y-124605185D01*
X138237210Y-124605185D02*
X138213400Y-124628994D01*
X138213400Y-124628994D02*
X138165781Y-124652804D01*
X138165781Y-124652804D02*
X138070543Y-124676613D01*
X138070543Y-124676613D02*
X137951495Y-124676613D01*
X137951495Y-124676613D02*
X137856257Y-124652804D01*
X137856257Y-124652804D02*
X137808638Y-124628994D01*
X137808638Y-124628994D02*
X137784829Y-124605185D01*
X137784829Y-124605185D02*
X137761019Y-124557566D01*
X137927686Y-123962328D02*
X138261019Y-123962328D01*
X137737210Y-124081376D02*
X138094352Y-124200423D01*
X138094352Y-124200423D02*
X138094352Y-123890900D01*
X137761019Y-123605186D02*
X137761019Y-123557567D01*
X137761019Y-123557567D02*
X137784829Y-123509948D01*
X137784829Y-123509948D02*
X137808638Y-123486138D01*
X137808638Y-123486138D02*
X137856257Y-123462329D01*
X137856257Y-123462329D02*
X137951495Y-123438519D01*
X137951495Y-123438519D02*
X138070543Y-123438519D01*
X138070543Y-123438519D02*
X138165781Y-123462329D01*
X138165781Y-123462329D02*
X138213400Y-123486138D01*
X138213400Y-123486138D02*
X138237210Y-123509948D01*
X138237210Y-123509948D02*
X138261019Y-123557567D01*
X138261019Y-123557567D02*
X138261019Y-123605186D01*
X138261019Y-123605186D02*
X138237210Y-123652805D01*
X138237210Y-123652805D02*
X138213400Y-123676614D01*
X138213400Y-123676614D02*
X138165781Y-123700424D01*
X138165781Y-123700424D02*
X138070543Y-123724233D01*
X138070543Y-123724233D02*
X137951495Y-123724233D01*
X137951495Y-123724233D02*
X137856257Y-123700424D01*
X137856257Y-123700424D02*
X137808638Y-123676614D01*
X137808638Y-123676614D02*
X137784829Y-123652805D01*
X137784829Y-123652805D02*
X137761019Y-123605186D01*
X138261019Y-123224234D02*
X137761019Y-123224234D01*
X137761019Y-123224234D02*
X137761019Y-123105186D01*
X137761019Y-123105186D02*
X137784829Y-123033758D01*
X137784829Y-123033758D02*
X137832448Y-122986139D01*
X137832448Y-122986139D02*
X137880067Y-122962329D01*
X137880067Y-122962329D02*
X137975305Y-122938520D01*
X137975305Y-122938520D02*
X138046733Y-122938520D01*
X138046733Y-122938520D02*
X138141971Y-122962329D01*
X138141971Y-122962329D02*
X138189590Y-122986139D01*
X138189590Y-122986139D02*
X138237210Y-123033758D01*
X138237210Y-123033758D02*
X138261019Y-123105186D01*
X138261019Y-123105186D02*
X138261019Y-123224234D01*
X138261019Y-122724234D02*
X137761019Y-122724234D01*
X138261019Y-122486139D02*
X137761019Y-122486139D01*
X137761019Y-122486139D02*
X138118162Y-122319472D01*
X138118162Y-122319472D02*
X137761019Y-122152806D01*
X137761019Y-122152806D02*
X138261019Y-122152806D01*
X137761019Y-121962329D02*
X137761019Y-121652805D01*
X137761019Y-121652805D02*
X137951495Y-121819472D01*
X137951495Y-121819472D02*
X137951495Y-121748043D01*
X137951495Y-121748043D02*
X137975305Y-121700424D01*
X137975305Y-121700424D02*
X137999114Y-121676615D01*
X137999114Y-121676615D02*
X138046733Y-121652805D01*
X138046733Y-121652805D02*
X138165781Y-121652805D01*
X138165781Y-121652805D02*
X138213400Y-121676615D01*
X138213400Y-121676615D02*
X138237210Y-121700424D01*
X138237210Y-121700424D02*
X138261019Y-121748043D01*
X138261019Y-121748043D02*
X138261019Y-121890900D01*
X138261019Y-121890900D02*
X138237210Y-121938519D01*
X138237210Y-121938519D02*
X138213400Y-121962329D01*
X138070543Y-121438520D02*
X138070543Y-121057568D01*
X137761019Y-120581377D02*
X137761019Y-120819472D01*
X137761019Y-120819472D02*
X137999114Y-120843281D01*
X137999114Y-120843281D02*
X137975305Y-120819472D01*
X137975305Y-120819472D02*
X137951495Y-120771853D01*
X137951495Y-120771853D02*
X137951495Y-120652805D01*
X137951495Y-120652805D02*
X137975305Y-120605186D01*
X137975305Y-120605186D02*
X137999114Y-120581377D01*
X137999114Y-120581377D02*
X138046733Y-120557567D01*
X138046733Y-120557567D02*
X138165781Y-120557567D01*
X138165781Y-120557567D02*
X138213400Y-120581377D01*
X138213400Y-120581377D02*
X138237210Y-120605186D01*
X138237210Y-120605186D02*
X138261019Y-120652805D01*
X138261019Y-120652805D02*
X138261019Y-120771853D01*
X138261019Y-120771853D02*
X138237210Y-120819472D01*
X138237210Y-120819472D02*
X138213400Y-120843281D01*
X138213400Y-120343282D02*
X138237210Y-120319472D01*
X138237210Y-120319472D02*
X138261019Y-120343282D01*
X138261019Y-120343282D02*
X138237210Y-120367091D01*
X138237210Y-120367091D02*
X138213400Y-120343282D01*
X138213400Y-120343282D02*
X138261019Y-120343282D01*
X137761019Y-120009949D02*
X137761019Y-119962330D01*
X137761019Y-119962330D02*
X137784829Y-119914711D01*
X137784829Y-119914711D02*
X137808638Y-119890901D01*
X137808638Y-119890901D02*
X137856257Y-119867092D01*
X137856257Y-119867092D02*
X137951495Y-119843282D01*
X137951495Y-119843282D02*
X138070543Y-119843282D01*
X138070543Y-119843282D02*
X138165781Y-119867092D01*
X138165781Y-119867092D02*
X138213400Y-119890901D01*
X138213400Y-119890901D02*
X138237210Y-119914711D01*
X138237210Y-119914711D02*
X138261019Y-119962330D01*
X138261019Y-119962330D02*
X138261019Y-120009949D01*
X138261019Y-120009949D02*
X138237210Y-120057568D01*
X138237210Y-120057568D02*
X138213400Y-120081377D01*
X138213400Y-120081377D02*
X138165781Y-120105187D01*
X138165781Y-120105187D02*
X138070543Y-120128996D01*
X138070543Y-120128996D02*
X137951495Y-120128996D01*
X137951495Y-120128996D02*
X137856257Y-120105187D01*
X137856257Y-120105187D02*
X137808638Y-120081377D01*
X137808638Y-120081377D02*
X137784829Y-120057568D01*
X137784829Y-120057568D02*
X137761019Y-120009949D01*
X137737210Y-119271854D02*
X138380067Y-119700425D01*
X138261019Y-119105187D02*
X137761019Y-119105187D01*
X137761019Y-119105187D02*
X138261019Y-118819473D01*
X138261019Y-118819473D02*
X137761019Y-118819473D01*
X137761019Y-118486139D02*
X137761019Y-118390901D01*
X137761019Y-118390901D02*
X137784829Y-118343282D01*
X137784829Y-118343282D02*
X137832448Y-118295663D01*
X137832448Y-118295663D02*
X137927686Y-118271853D01*
X137927686Y-118271853D02*
X138094352Y-118271853D01*
X138094352Y-118271853D02*
X138189590Y-118295663D01*
X138189590Y-118295663D02*
X138237210Y-118343282D01*
X138237210Y-118343282D02*
X138261019Y-118390901D01*
X138261019Y-118390901D02*
X138261019Y-118486139D01*
X138261019Y-118486139D02*
X138237210Y-118533758D01*
X138237210Y-118533758D02*
X138189590Y-118581377D01*
X138189590Y-118581377D02*
X138094352Y-118605186D01*
X138094352Y-118605186D02*
X137927686Y-118605186D01*
X137927686Y-118605186D02*
X137832448Y-118581377D01*
X137832448Y-118581377D02*
X137784829Y-118533758D01*
X137784829Y-118533758D02*
X137761019Y-118486139D01*
X138261019Y-118057567D02*
X137761019Y-118057567D01*
X137761019Y-118057567D02*
X137761019Y-117867091D01*
X137761019Y-117867091D02*
X137784829Y-117819472D01*
X137784829Y-117819472D02*
X137808638Y-117795662D01*
X137808638Y-117795662D02*
X137856257Y-117771853D01*
X137856257Y-117771853D02*
X137927686Y-117771853D01*
X137927686Y-117771853D02*
X137975305Y-117795662D01*
X137975305Y-117795662D02*
X137999114Y-117819472D01*
X137999114Y-117819472D02*
X138022924Y-117867091D01*
X138022924Y-117867091D02*
X138022924Y-118057567D01*
X137999114Y-117390900D02*
X138022924Y-117319472D01*
X138022924Y-117319472D02*
X138046733Y-117295662D01*
X138046733Y-117295662D02*
X138094352Y-117271853D01*
X138094352Y-117271853D02*
X138165781Y-117271853D01*
X138165781Y-117271853D02*
X138213400Y-117295662D01*
X138213400Y-117295662D02*
X138237210Y-117319472D01*
X138237210Y-117319472D02*
X138261019Y-117367091D01*
X138261019Y-117367091D02*
X138261019Y-117557567D01*
X138261019Y-117557567D02*
X137761019Y-117557567D01*
X137761019Y-117557567D02*
X137761019Y-117390900D01*
X137761019Y-117390900D02*
X137784829Y-117343281D01*
X137784829Y-117343281D02*
X137808638Y-117319472D01*
X137808638Y-117319472D02*
X137856257Y-117295662D01*
X137856257Y-117295662D02*
X137903876Y-117295662D01*
X137903876Y-117295662D02*
X137951495Y-117319472D01*
X137951495Y-117319472D02*
X137975305Y-117343281D01*
X137975305Y-117343281D02*
X137999114Y-117390900D01*
X137999114Y-117390900D02*
X137999114Y-117557567D01*
%TO.C,CV_2*%
X111542918Y-102442182D02*
X111487280Y-102497821D01*
X111487280Y-102497821D02*
X111320366Y-102553459D01*
X111320366Y-102553459D02*
X111209090Y-102553459D01*
X111209090Y-102553459D02*
X111042175Y-102497821D01*
X111042175Y-102497821D02*
X110930899Y-102386544D01*
X110930899Y-102386544D02*
X110875261Y-102275268D01*
X110875261Y-102275268D02*
X110819623Y-102052716D01*
X110819623Y-102052716D02*
X110819623Y-101885801D01*
X110819623Y-101885801D02*
X110875261Y-101663249D01*
X110875261Y-101663249D02*
X110930899Y-101551973D01*
X110930899Y-101551973D02*
X111042175Y-101440697D01*
X111042175Y-101440697D02*
X111209090Y-101385059D01*
X111209090Y-101385059D02*
X111320366Y-101385059D01*
X111320366Y-101385059D02*
X111487280Y-101440697D01*
X111487280Y-101440697D02*
X111542918Y-101496335D01*
X111876747Y-101385059D02*
X112266213Y-102553459D01*
X112266213Y-102553459D02*
X112655680Y-101385059D01*
X112766957Y-102664735D02*
X113657166Y-102664735D01*
X113879719Y-101496335D02*
X113935357Y-101440697D01*
X113935357Y-101440697D02*
X114046633Y-101385059D01*
X114046633Y-101385059D02*
X114324824Y-101385059D01*
X114324824Y-101385059D02*
X114436100Y-101440697D01*
X114436100Y-101440697D02*
X114491738Y-101496335D01*
X114491738Y-101496335D02*
X114547376Y-101607611D01*
X114547376Y-101607611D02*
X114547376Y-101718887D01*
X114547376Y-101718887D02*
X114491738Y-101885801D01*
X114491738Y-101885801D02*
X113824081Y-102553459D01*
X113824081Y-102553459D02*
X114547376Y-102553459D01*
%TO.C,CV_1*%
X111767247Y-87312283D02*
X111711609Y-87367922D01*
X111711609Y-87367922D02*
X111544695Y-87423560D01*
X111544695Y-87423560D02*
X111433419Y-87423560D01*
X111433419Y-87423560D02*
X111266504Y-87367922D01*
X111266504Y-87367922D02*
X111155228Y-87256645D01*
X111155228Y-87256645D02*
X111099590Y-87145369D01*
X111099590Y-87145369D02*
X111043952Y-86922817D01*
X111043952Y-86922817D02*
X111043952Y-86755902D01*
X111043952Y-86755902D02*
X111099590Y-86533350D01*
X111099590Y-86533350D02*
X111155228Y-86422074D01*
X111155228Y-86422074D02*
X111266504Y-86310798D01*
X111266504Y-86310798D02*
X111433419Y-86255160D01*
X111433419Y-86255160D02*
X111544695Y-86255160D01*
X111544695Y-86255160D02*
X111711609Y-86310798D01*
X111711609Y-86310798D02*
X111767247Y-86366436D01*
X112101076Y-86255160D02*
X112490542Y-87423560D01*
X112490542Y-87423560D02*
X112880009Y-86255160D01*
X112991286Y-87534836D02*
X113881495Y-87534836D01*
X114771705Y-87423560D02*
X114104048Y-87423560D01*
X114437876Y-87423560D02*
X114437876Y-86255160D01*
X114437876Y-86255160D02*
X114326600Y-86422074D01*
X114326600Y-86422074D02*
X114215324Y-86533350D01*
X114215324Y-86533350D02*
X114104048Y-86588988D01*
%TO.C,C12*%
X154351473Y-89231801D02*
X155074768Y-89231801D01*
X155074768Y-89231801D02*
X154685301Y-89676905D01*
X154685301Y-89676905D02*
X154852216Y-89676905D01*
X154852216Y-89676905D02*
X154963492Y-89732543D01*
X154963492Y-89732543D02*
X155019130Y-89788182D01*
X155019130Y-89788182D02*
X155074768Y-89899458D01*
X155074768Y-89899458D02*
X155074768Y-90177648D01*
X155074768Y-90177648D02*
X155019130Y-90288924D01*
X155019130Y-90288924D02*
X154963492Y-90344563D01*
X154963492Y-90344563D02*
X154852216Y-90400201D01*
X154852216Y-90400201D02*
X154518387Y-90400201D01*
X154518387Y-90400201D02*
X154407111Y-90344563D01*
X154407111Y-90344563D02*
X154351473Y-90288924D01*
X155464235Y-89231801D02*
X156187530Y-89231801D01*
X156187530Y-89231801D02*
X155798063Y-89676905D01*
X155798063Y-89676905D02*
X155964978Y-89676905D01*
X155964978Y-89676905D02*
X156076254Y-89732543D01*
X156076254Y-89732543D02*
X156131892Y-89788182D01*
X156131892Y-89788182D02*
X156187530Y-89899458D01*
X156187530Y-89899458D02*
X156187530Y-90177648D01*
X156187530Y-90177648D02*
X156131892Y-90288924D01*
X156131892Y-90288924D02*
X156076254Y-90344563D01*
X156076254Y-90344563D02*
X155964978Y-90400201D01*
X155964978Y-90400201D02*
X155631149Y-90400201D01*
X155631149Y-90400201D02*
X155519873Y-90344563D01*
X155519873Y-90344563D02*
X155464235Y-90288924D01*
X156910825Y-89231801D02*
X157022102Y-89231801D01*
X157022102Y-89231801D02*
X157133378Y-89287439D01*
X157133378Y-89287439D02*
X157189016Y-89343077D01*
X157189016Y-89343077D02*
X157244654Y-89454353D01*
X157244654Y-89454353D02*
X157300292Y-89676905D01*
X157300292Y-89676905D02*
X157300292Y-89955096D01*
X157300292Y-89955096D02*
X157244654Y-90177648D01*
X157244654Y-90177648D02*
X157189016Y-90288924D01*
X157189016Y-90288924D02*
X157133378Y-90344563D01*
X157133378Y-90344563D02*
X157022102Y-90400201D01*
X157022102Y-90400201D02*
X156910825Y-90400201D01*
X156910825Y-90400201D02*
X156799549Y-90344563D01*
X156799549Y-90344563D02*
X156743911Y-90288924D01*
X156743911Y-90288924D02*
X156688273Y-90177648D01*
X156688273Y-90177648D02*
X156632635Y-89955096D01*
X156632635Y-89955096D02*
X156632635Y-89676905D01*
X156632635Y-89676905D02*
X156688273Y-89454353D01*
X156688273Y-89454353D02*
X156743911Y-89343077D01*
X156743911Y-89343077D02*
X156799549Y-89287439D01*
X156799549Y-89287439D02*
X156910825Y-89231801D01*
X157801035Y-89621267D02*
X157801035Y-90789667D01*
X157801035Y-89676905D02*
X157912311Y-89621267D01*
X157912311Y-89621267D02*
X158134864Y-89621267D01*
X158134864Y-89621267D02*
X158246140Y-89676905D01*
X158246140Y-89676905D02*
X158301778Y-89732543D01*
X158301778Y-89732543D02*
X158357416Y-89843820D01*
X158357416Y-89843820D02*
X158357416Y-90177648D01*
X158357416Y-90177648D02*
X158301778Y-90288924D01*
X158301778Y-90288924D02*
X158246140Y-90344563D01*
X158246140Y-90344563D02*
X158134864Y-90400201D01*
X158134864Y-90400201D02*
X157912311Y-90400201D01*
X157912311Y-90400201D02*
X157801035Y-90344563D01*
X159247626Y-89788182D02*
X158858159Y-89788182D01*
X158858159Y-90400201D02*
X158858159Y-89231801D01*
X158858159Y-89231801D02*
X159414540Y-89231801D01*
%TO.C,C3*%
X157302109Y-106194910D02*
X156634452Y-106194910D01*
X156968280Y-106194910D02*
X156968280Y-105026510D01*
X156968280Y-105026510D02*
X156857004Y-105193424D01*
X156857004Y-105193424D02*
X156745728Y-105304700D01*
X156745728Y-105304700D02*
X156634452Y-105360338D01*
X158303595Y-105415976D02*
X158303595Y-106194910D01*
X157802852Y-105415976D02*
X157802852Y-106027995D01*
X157802852Y-106027995D02*
X157858490Y-106139272D01*
X157858490Y-106139272D02*
X157969766Y-106194910D01*
X157969766Y-106194910D02*
X158136681Y-106194910D01*
X158136681Y-106194910D02*
X158247957Y-106139272D01*
X158247957Y-106139272D02*
X158303595Y-106083633D01*
X159249443Y-105582891D02*
X158859976Y-105582891D01*
X158859976Y-106194910D02*
X158859976Y-105026510D01*
X158859976Y-105026510D02*
X159416357Y-105026510D01*
%TO.C,C2*%
X157302109Y-101114910D02*
X156634452Y-101114910D01*
X156968280Y-101114910D02*
X156968280Y-99946510D01*
X156968280Y-99946510D02*
X156857004Y-100113424D01*
X156857004Y-100113424D02*
X156745728Y-100224700D01*
X156745728Y-100224700D02*
X156634452Y-100280338D01*
X158303595Y-100335976D02*
X158303595Y-101114910D01*
X157802852Y-100335976D02*
X157802852Y-100947995D01*
X157802852Y-100947995D02*
X157858490Y-101059272D01*
X157858490Y-101059272D02*
X157969766Y-101114910D01*
X157969766Y-101114910D02*
X158136681Y-101114910D01*
X158136681Y-101114910D02*
X158247957Y-101059272D01*
X158247957Y-101059272D02*
X158303595Y-101003633D01*
X159249443Y-100502891D02*
X158859976Y-100502891D01*
X158859976Y-101114910D02*
X158859976Y-99946510D01*
X158859976Y-99946510D02*
X159416357Y-99946510D01*
%TO.C,C1*%
X154351473Y-79071801D02*
X155074768Y-79071801D01*
X155074768Y-79071801D02*
X154685301Y-79516905D01*
X154685301Y-79516905D02*
X154852216Y-79516905D01*
X154852216Y-79516905D02*
X154963492Y-79572543D01*
X154963492Y-79572543D02*
X155019130Y-79628182D01*
X155019130Y-79628182D02*
X155074768Y-79739458D01*
X155074768Y-79739458D02*
X155074768Y-80017648D01*
X155074768Y-80017648D02*
X155019130Y-80128924D01*
X155019130Y-80128924D02*
X154963492Y-80184563D01*
X154963492Y-80184563D02*
X154852216Y-80240201D01*
X154852216Y-80240201D02*
X154518387Y-80240201D01*
X154518387Y-80240201D02*
X154407111Y-80184563D01*
X154407111Y-80184563D02*
X154351473Y-80128924D01*
X155464235Y-79071801D02*
X156187530Y-79071801D01*
X156187530Y-79071801D02*
X155798063Y-79516905D01*
X155798063Y-79516905D02*
X155964978Y-79516905D01*
X155964978Y-79516905D02*
X156076254Y-79572543D01*
X156076254Y-79572543D02*
X156131892Y-79628182D01*
X156131892Y-79628182D02*
X156187530Y-79739458D01*
X156187530Y-79739458D02*
X156187530Y-80017648D01*
X156187530Y-80017648D02*
X156131892Y-80128924D01*
X156131892Y-80128924D02*
X156076254Y-80184563D01*
X156076254Y-80184563D02*
X155964978Y-80240201D01*
X155964978Y-80240201D02*
X155631149Y-80240201D01*
X155631149Y-80240201D02*
X155519873Y-80184563D01*
X155519873Y-80184563D02*
X155464235Y-80128924D01*
X156910825Y-79071801D02*
X157022102Y-79071801D01*
X157022102Y-79071801D02*
X157133378Y-79127439D01*
X157133378Y-79127439D02*
X157189016Y-79183077D01*
X157189016Y-79183077D02*
X157244654Y-79294353D01*
X157244654Y-79294353D02*
X157300292Y-79516905D01*
X157300292Y-79516905D02*
X157300292Y-79795096D01*
X157300292Y-79795096D02*
X157244654Y-80017648D01*
X157244654Y-80017648D02*
X157189016Y-80128924D01*
X157189016Y-80128924D02*
X157133378Y-80184563D01*
X157133378Y-80184563D02*
X157022102Y-80240201D01*
X157022102Y-80240201D02*
X156910825Y-80240201D01*
X156910825Y-80240201D02*
X156799549Y-80184563D01*
X156799549Y-80184563D02*
X156743911Y-80128924D01*
X156743911Y-80128924D02*
X156688273Y-80017648D01*
X156688273Y-80017648D02*
X156632635Y-79795096D01*
X156632635Y-79795096D02*
X156632635Y-79516905D01*
X156632635Y-79516905D02*
X156688273Y-79294353D01*
X156688273Y-79294353D02*
X156743911Y-79183077D01*
X156743911Y-79183077D02*
X156799549Y-79127439D01*
X156799549Y-79127439D02*
X156910825Y-79071801D01*
X157801035Y-79461267D02*
X157801035Y-80629667D01*
X157801035Y-79516905D02*
X157912311Y-79461267D01*
X157912311Y-79461267D02*
X158134864Y-79461267D01*
X158134864Y-79461267D02*
X158246140Y-79516905D01*
X158246140Y-79516905D02*
X158301778Y-79572543D01*
X158301778Y-79572543D02*
X158357416Y-79683820D01*
X158357416Y-79683820D02*
X158357416Y-80017648D01*
X158357416Y-80017648D02*
X158301778Y-80128924D01*
X158301778Y-80128924D02*
X158246140Y-80184563D01*
X158246140Y-80184563D02*
X158134864Y-80240201D01*
X158134864Y-80240201D02*
X157912311Y-80240201D01*
X157912311Y-80240201D02*
X157801035Y-80184563D01*
X159247626Y-79628182D02*
X158858159Y-79628182D01*
X158858159Y-80240201D02*
X158858159Y-79071801D01*
X158858159Y-79071801D02*
X159414540Y-79071801D01*
%TO.C,-12V_IN*%
X138223852Y-135776338D02*
X139114062Y-135776338D01*
X140282461Y-136221443D02*
X139614804Y-136221443D01*
X139948632Y-136221443D02*
X139948632Y-135053043D01*
X139948632Y-135053043D02*
X139837356Y-135219957D01*
X139837356Y-135219957D02*
X139726080Y-135331233D01*
X139726080Y-135331233D02*
X139614804Y-135386871D01*
X140727566Y-135164319D02*
X140783204Y-135108681D01*
X140783204Y-135108681D02*
X140894480Y-135053043D01*
X140894480Y-135053043D02*
X141172671Y-135053043D01*
X141172671Y-135053043D02*
X141283947Y-135108681D01*
X141283947Y-135108681D02*
X141339585Y-135164319D01*
X141339585Y-135164319D02*
X141395223Y-135275595D01*
X141395223Y-135275595D02*
X141395223Y-135386871D01*
X141395223Y-135386871D02*
X141339585Y-135553785D01*
X141339585Y-135553785D02*
X140671928Y-136221443D01*
X140671928Y-136221443D02*
X141395223Y-136221443D01*
X141729052Y-135053043D02*
X142118518Y-136221443D01*
X142118518Y-136221443D02*
X142507985Y-135053043D01*
X142619262Y-136332719D02*
X143509471Y-136332719D01*
X143787662Y-136221443D02*
X143787662Y-135053043D01*
X144344043Y-136221443D02*
X144344043Y-135053043D01*
X144344043Y-135053043D02*
X145011700Y-136221443D01*
X145011700Y-136221443D02*
X145011700Y-135053043D01*
D10*
%TO.C,U2*%
X127898026Y-117475000D02*
G75*
G03*
X127898026Y-117475000I-898026J0D01*
G01*
X133350000Y-97790000D02*
X120650000Y-97790000D01*
X133350000Y-110490000D02*
X133350000Y-97790000D01*
X120650000Y-110490000D02*
X133350000Y-110490000D01*
X120650000Y-97790000D02*
X120650000Y-110490000D01*
X133351600Y-88160000D02*
X133101600Y-88160000D01*
X133351600Y-92160000D02*
X133351600Y-88160000D01*
X127101600Y-92160000D02*
X133351600Y-92160000D01*
X127101600Y-88160000D02*
X127101600Y-92160000D01*
X133101600Y-88160000D02*
X127101600Y-88160000D01*
X123700800Y-83769200D02*
X121160800Y-83769200D01*
X123700800Y-81229200D02*
X123700800Y-83769200D01*
X121160800Y-81229200D02*
X123700800Y-81229200D01*
X121160800Y-93929200D02*
X121160800Y-81229200D01*
X123700800Y-93929200D02*
X121160800Y-93929200D01*
X123700800Y-81229200D02*
X123700800Y-93929200D01*
X128270000Y-115570000D02*
X128270000Y-119380000D01*
X125730000Y-115570000D02*
X128270000Y-115570000D01*
X125730000Y-119380000D02*
X125730000Y-115570000D01*
X128270000Y-119380000D02*
X125730000Y-119380000D01*
X121920000Y-134620000D02*
X121920000Y-135890000D01*
X132080000Y-134620000D02*
X121920000Y-134620000D01*
X132080000Y-135890000D02*
X132080000Y-134620000D01*
X120650000Y-123190000D02*
X120650000Y-135890000D01*
X133350000Y-123190000D02*
X120650000Y-123190000D01*
X133350000Y-135890000D02*
X133350000Y-123190000D01*
X123190000Y-74930000D02*
X123190000Y-73660000D01*
X123190000Y-73660000D02*
X130810000Y-73660000D01*
X130810000Y-73660000D02*
X130810000Y-74930000D01*
X123190000Y-80010000D02*
X130810000Y-80010000D01*
X130810000Y-80010000D02*
X130810000Y-74930000D01*
X123190000Y-80010000D02*
X123190000Y-74930000D01*
X135890000Y-74930000D02*
X135890000Y-135890000D01*
X135890000Y-135890000D02*
X118110000Y-135890000D01*
X118110000Y-135890000D02*
X118110000Y-74930000D01*
X118110000Y-74930000D02*
X135890000Y-74930000D01*
D12*
X126926000Y-107591000D02*
X126545000Y-107845000D01*
X126291000Y-107591000D01*
X126672000Y-107337000D01*
X126926000Y-107591000D01*
G36*
X126926000Y-107591000D02*
G01*
X126545000Y-107845000D01*
X126291000Y-107591000D01*
X126672000Y-107337000D01*
X126926000Y-107591000D01*
G37*
X127434000Y-107210000D02*
X127053000Y-107464000D01*
X126799000Y-107210000D01*
X127180000Y-106956000D01*
X127434000Y-107210000D01*
G36*
X127434000Y-107210000D02*
G01*
X127053000Y-107464000D01*
X126799000Y-107210000D01*
X127180000Y-106956000D01*
X127434000Y-107210000D01*
G37*
X127942000Y-106829000D02*
X127561000Y-107083000D01*
X127307000Y-106829000D01*
X127688000Y-106575000D01*
X127942000Y-106829000D01*
G36*
X127942000Y-106829000D02*
G01*
X127561000Y-107083000D01*
X127307000Y-106829000D01*
X127688000Y-106575000D01*
X127942000Y-106829000D01*
G37*
X127053000Y-106829000D02*
X126672000Y-107083000D01*
X126418000Y-106829000D01*
X126799000Y-106575000D01*
X127053000Y-106829000D01*
G36*
X127053000Y-106829000D02*
G01*
X126672000Y-107083000D01*
X126418000Y-106829000D01*
X126799000Y-106575000D01*
X127053000Y-106829000D01*
G37*
X127561000Y-106448000D02*
X127180000Y-106702000D01*
X126926000Y-106448000D01*
X127307000Y-106194000D01*
X127561000Y-106448000D01*
G36*
X127561000Y-106448000D02*
G01*
X127180000Y-106702000D01*
X126926000Y-106448000D01*
X127307000Y-106194000D01*
X127561000Y-106448000D01*
G37*
X128069000Y-106067000D02*
X127688000Y-106321000D01*
X127434000Y-106067000D01*
X127815000Y-105813000D01*
X128069000Y-106067000D01*
G36*
X128069000Y-106067000D02*
G01*
X127688000Y-106321000D01*
X127434000Y-106067000D01*
X127815000Y-105813000D01*
X128069000Y-106067000D01*
G37*
X127307000Y-107972000D02*
X126926000Y-108226000D01*
X126672000Y-107972000D01*
X127053000Y-107718000D01*
X127307000Y-107972000D01*
G36*
X127307000Y-107972000D02*
G01*
X126926000Y-108226000D01*
X126672000Y-107972000D01*
X127053000Y-107718000D01*
X127307000Y-107972000D01*
G37*
X127688000Y-108353000D02*
X127307000Y-108607000D01*
X127053000Y-108353000D01*
X127434000Y-108099000D01*
X127688000Y-108353000D01*
G36*
X127688000Y-108353000D02*
G01*
X127307000Y-108607000D01*
X127053000Y-108353000D01*
X127434000Y-108099000D01*
X127688000Y-108353000D01*
G37*
D13*
%TO.C,U1*%
X141250000Y-74830000D02*
G75*
G03*
X143250000Y-74830000I1000000J0D01*
G01*
X145020000Y-74830000D02*
X143250000Y-74830000D01*
X145020000Y-92850000D02*
X145020000Y-74830000D01*
X139480000Y-92850000D02*
X145020000Y-92850000D01*
X139480000Y-74830000D02*
X139480000Y-92850000D01*
X141250000Y-74830000D02*
X139480000Y-74830000D01*
D14*
%TO.C,CV_4*%
X104720000Y-121000000D02*
X104720000Y-131500000D01*
X104720000Y-121000000D02*
X107720000Y-121000000D01*
X104720000Y-131500000D02*
X109420000Y-131500000D01*
X107720000Y-121000000D02*
X107720000Y-123000000D01*
X107720000Y-121000000D02*
X110720000Y-121000000D01*
X107720000Y-123000000D02*
X110720000Y-123000000D01*
X109020000Y-131600000D02*
X109020000Y-133700000D01*
X109020000Y-133700000D02*
X109420000Y-133700000D01*
X109420000Y-131500000D02*
X113720000Y-131500000D01*
X109420000Y-133700000D02*
X109420000Y-131500000D01*
X110720000Y-121000000D02*
X113720000Y-121000000D01*
X110720000Y-123000000D02*
X110720000Y-121000000D01*
X113720000Y-131500000D02*
X113720000Y-121000000D01*
X111910721Y-127000000D02*
G75*
G03*
X111910721Y-127000000I-2690721J0D01*
G01*
X112382275Y-127000000D02*
G75*
G03*
X112382275Y-127000000I-3162275J0D01*
G01*
%TO.C,CV_3*%
X104720000Y-105680000D02*
X104720000Y-116180000D01*
X104720000Y-105680000D02*
X107720000Y-105680000D01*
X104720000Y-116180000D02*
X109420000Y-116180000D01*
X107720000Y-105680000D02*
X107720000Y-107680000D01*
X107720000Y-105680000D02*
X110720000Y-105680000D01*
X107720000Y-107680000D02*
X110720000Y-107680000D01*
X109020000Y-116280000D02*
X109020000Y-118380000D01*
X109020000Y-118380000D02*
X109420000Y-118380000D01*
X109420000Y-116180000D02*
X113720000Y-116180000D01*
X109420000Y-118380000D02*
X109420000Y-116180000D01*
X110720000Y-105680000D02*
X113720000Y-105680000D01*
X110720000Y-107680000D02*
X110720000Y-105680000D01*
X113720000Y-116180000D02*
X113720000Y-105680000D01*
X111910721Y-111680000D02*
G75*
G03*
X111910721Y-111680000I-2690721J0D01*
G01*
X112382275Y-111680000D02*
G75*
G03*
X112382275Y-111680000I-3162275J0D01*
G01*
D15*
%TO.C,OffsetTestPoint (-5v)*%
X140970000Y-126365000D02*
X140970000Y-127635000D01*
X140970000Y-127635000D02*
X141605000Y-128270000D01*
X141605000Y-125730000D02*
X140970000Y-126365000D01*
X141605000Y-128270000D02*
X142875000Y-128270000D01*
X142875000Y-125730000D02*
X141605000Y-125730000D01*
X142875000Y-128270000D02*
X143510000Y-127635000D01*
X143510000Y-126365000D02*
X142875000Y-125730000D01*
X143510000Y-127635000D02*
X143510000Y-126365000D01*
D16*
%TO.C,IC1*%
X139199500Y-120695700D02*
X139757500Y-120695700D01*
X139199500Y-121507700D02*
X139199500Y-120695700D01*
X141485500Y-120695700D02*
X142043500Y-120695700D01*
X142043500Y-120695700D02*
X142043500Y-121507700D01*
D14*
%TO.C,CV_2*%
X104720000Y-90440000D02*
X104720000Y-100940000D01*
X104720000Y-90440000D02*
X107720000Y-90440000D01*
X104720000Y-100940000D02*
X109420000Y-100940000D01*
X107720000Y-90440000D02*
X107720000Y-92440000D01*
X107720000Y-90440000D02*
X110720000Y-90440000D01*
X107720000Y-92440000D02*
X110720000Y-92440000D01*
X109020000Y-101040000D02*
X109020000Y-103140000D01*
X109020000Y-103140000D02*
X109420000Y-103140000D01*
X109420000Y-100940000D02*
X113720000Y-100940000D01*
X109420000Y-103140000D02*
X109420000Y-100940000D01*
X110720000Y-90440000D02*
X113720000Y-90440000D01*
X110720000Y-92440000D02*
X110720000Y-90440000D01*
X113720000Y-100940000D02*
X113720000Y-90440000D01*
X111910721Y-96440000D02*
G75*
G03*
X111910721Y-96440000I-2690721J0D01*
G01*
X112382275Y-96440000D02*
G75*
G03*
X112382275Y-96440000I-3162275J0D01*
G01*
%TO.C,CV_1*%
X104720000Y-75200000D02*
X104720000Y-85700000D01*
X104720000Y-75200000D02*
X107720000Y-75200000D01*
X104720000Y-85700000D02*
X109420000Y-85700000D01*
X107720000Y-75200000D02*
X107720000Y-77200000D01*
X107720000Y-75200000D02*
X110720000Y-75200000D01*
X107720000Y-77200000D02*
X110720000Y-77200000D01*
X109020000Y-85800000D02*
X109020000Y-87900000D01*
X109020000Y-87900000D02*
X109420000Y-87900000D01*
X109420000Y-85700000D02*
X113720000Y-85700000D01*
X109420000Y-87900000D02*
X109420000Y-85700000D01*
X110720000Y-75200000D02*
X113720000Y-75200000D01*
X110720000Y-77200000D02*
X110720000Y-75200000D01*
X113720000Y-85700000D02*
X113720000Y-75200000D01*
X111910721Y-81200000D02*
G75*
G03*
X111910721Y-81200000I-2690721J0D01*
G01*
X112382275Y-81200000D02*
G75*
G03*
X112382275Y-81200000I-3162275J0D01*
G01*
D15*
%TO.C,-12V_IN*%
X140884400Y-132684200D02*
X140884400Y-133954200D01*
X140884400Y-133954200D02*
X141519400Y-134589200D01*
X141519400Y-132049200D02*
X140884400Y-132684200D01*
X141519400Y-134589200D02*
X142789400Y-134589200D01*
X142789400Y-132049200D02*
X141519400Y-132049200D01*
X142789400Y-134589200D02*
X143424400Y-133954200D01*
X143424400Y-132684200D02*
X142789400Y-132049200D01*
X143424400Y-133954200D02*
X143424400Y-132684200D01*
%TD*%
M02*
