%TF.GenerationSoftware,KiCad,Pcbnew,7.0.2-0*%
%TF.CreationDate,2023-11-13T17:50:45-05:00*%
%TF.ProjectId,Euro Power CV Shield,4575726f-2050-46f7-9765-722043562053,rev?*%
%TF.SameCoordinates,Original*%
%TF.FileFunction,Soldermask,Bot*%
%TF.FilePolarity,Negative*%
%FSLAX46Y46*%
G04 Gerber Fmt 4.6, Leading zero omitted, Abs format (unit mm)*
G04 Created by KiCad (PCBNEW 7.0.2-0) date 2023-11-13 17:50:45*
%MOMM*%
%LPD*%
G01*
G04 APERTURE LIST*
%ADD10C,1.600000*%
%ADD11R,1.600000X1.600000*%
%ADD12R,1.300000X1.300000*%
%ADD13C,1.300000*%
%ADD14O,1.600000X1.600000*%
%ADD15C,1.751600*%
%ADD16C,1.981200*%
G04 APERTURE END LIST*
D10*
%TO.C,U2*%
X132080000Y-78740000D03*
X122430800Y-92659200D03*
X122430800Y-90119200D03*
X122430800Y-87579200D03*
X122430800Y-85039200D03*
D11*
X122430800Y-82499200D03*
D10*
X134620000Y-76200000D03*
X134620000Y-78740000D03*
X134620000Y-81280000D03*
X134620000Y-83820000D03*
X134620000Y-86360000D03*
X134620000Y-88900000D03*
X134620000Y-91440000D03*
X134620000Y-93980000D03*
X134620000Y-96520000D03*
X134620000Y-99060000D03*
X134620000Y-101600000D03*
X134620000Y-104140000D03*
X134620000Y-106680000D03*
X134620000Y-109220000D03*
D11*
X119380000Y-76200000D03*
D10*
X119380000Y-78740000D03*
X119380000Y-81280000D03*
X119380000Y-83820000D03*
X119380000Y-86360000D03*
X119380000Y-88900000D03*
X119380000Y-91440000D03*
X119380000Y-93980000D03*
X119380000Y-96520000D03*
X119380000Y-99060000D03*
X119380000Y-101600000D03*
X119380000Y-104140000D03*
X119380000Y-106680000D03*
X134620000Y-111760000D03*
X134620000Y-114300000D03*
X134620000Y-116840000D03*
X134620000Y-119380000D03*
X134620000Y-121920000D03*
X134620000Y-124460000D03*
X134620000Y-127000000D03*
X134620000Y-129540000D03*
X134620000Y-132080000D03*
X134620000Y-134620000D03*
X119380000Y-134620000D03*
X119380000Y-132080000D03*
X119380000Y-129540000D03*
X119380000Y-127000000D03*
X119380000Y-109220000D03*
X119380000Y-111760000D03*
X119380000Y-114300000D03*
X119380000Y-124460000D03*
X119380000Y-121920000D03*
X119380000Y-119380000D03*
X119380000Y-116840000D03*
D12*
X132181600Y-89170000D03*
D13*
X132181600Y-91170000D03*
X130181600Y-89170000D03*
X130181600Y-91170000D03*
X128181600Y-91170000D03*
X128181600Y-89170000D03*
D10*
X121920000Y-121920000D03*
X124460000Y-121920000D03*
X127000000Y-121920000D03*
X129540000Y-121920000D03*
X132080000Y-121920000D03*
D13*
X125730000Y-76930000D03*
X128270000Y-76930000D03*
%TD*%
D14*
%TO.C,U1*%
X146060000Y-76220000D03*
X138440000Y-91460000D03*
X146060000Y-78760000D03*
X138440000Y-88920000D03*
X146060000Y-81300000D03*
X138440000Y-86380000D03*
X146060000Y-83840000D03*
X138440000Y-83840000D03*
X146060000Y-86380000D03*
X138440000Y-81300000D03*
X146060000Y-88920000D03*
X138440000Y-78760000D03*
X146060000Y-91460000D03*
D11*
X138440000Y-76220000D03*
%TD*%
D15*
%TO.C,CV_4*%
X109220000Y-122000000D03*
X109220000Y-130500000D03*
X109220000Y-133500000D03*
%TD*%
%TO.C,CV_3*%
X109220000Y-106680000D03*
X109220000Y-115180000D03*
X109220000Y-118180000D03*
%TD*%
D16*
%TO.C,OffsetTestPoint (-5v)*%
X142240000Y-127000000D03*
%TD*%
D15*
%TO.C,CV_2*%
X109220000Y-91440000D03*
X109220000Y-99940000D03*
X109220000Y-102940000D03*
%TD*%
%TO.C,CV_1*%
X109220000Y-76200000D03*
X109220000Y-84700000D03*
X109220000Y-87700000D03*
%TD*%
D16*
%TO.C,-12V_IN*%
X142154400Y-133319200D03*
%TD*%
M02*
