%TF.GenerationSoftware,KiCad,Pcbnew,7.0.2-0*%
%TF.CreationDate,2023-11-13T20:51:34-05:00*%
%TF.ProjectId,Bridge System On Ramp,42726964-6765-4205-9379-7374656d204f,rev?*%
%TF.SameCoordinates,Original*%
%TF.FileFunction,Drillmap*%
%TF.FilePolarity,Positive*%
%FSLAX45Y45*%
G04 Gerber Fmt 4.5, Leading zero omitted, Abs format (unit mm)*
G04 Created by KiCad (PCBNEW 7.0.2-0) date 2023-11-13 20:51:34*
%MOMM*%
%LPD*%
G01*
G04 APERTURE LIST*
%ADD10C,0.100000*%
%ADD11C,0.200000*%
G04 APERTURE END LIST*
D10*
X1270160Y-12954000D02*
G75*
G03*
X1270160Y-12954000I-1524160J0D01*
G01*
X-2253768Y5925846D02*
X24384000Y5925846D01*
X24384000Y-16256000D01*
X-2253768Y-16256000D01*
X-2253768Y5925846D01*
D11*
X-2011149Y-16573524D02*
X-2011149Y-16373524D01*
X-2011149Y-16373524D02*
X-1963530Y-16373524D01*
X-1963530Y-16373524D02*
X-1934958Y-16383048D01*
X-1934958Y-16383048D02*
X-1915911Y-16402095D01*
X-1915911Y-16402095D02*
X-1906387Y-16421143D01*
X-1906387Y-16421143D02*
X-1896863Y-16459238D01*
X-1896863Y-16459238D02*
X-1896863Y-16487809D01*
X-1896863Y-16487809D02*
X-1906387Y-16525905D01*
X-1906387Y-16525905D02*
X-1915911Y-16544952D01*
X-1915911Y-16544952D02*
X-1934958Y-16564000D01*
X-1934958Y-16564000D02*
X-1963530Y-16573524D01*
X-1963530Y-16573524D02*
X-2011149Y-16573524D01*
X-1811149Y-16573524D02*
X-1811149Y-16440190D01*
X-1811149Y-16478286D02*
X-1801625Y-16459238D01*
X-1801625Y-16459238D02*
X-1792101Y-16449714D01*
X-1792101Y-16449714D02*
X-1773054Y-16440190D01*
X-1773054Y-16440190D02*
X-1754006Y-16440190D01*
X-1687339Y-16573524D02*
X-1687339Y-16440190D01*
X-1687339Y-16373524D02*
X-1696863Y-16383048D01*
X-1696863Y-16383048D02*
X-1687339Y-16392571D01*
X-1687339Y-16392571D02*
X-1677816Y-16383048D01*
X-1677816Y-16383048D02*
X-1687339Y-16373524D01*
X-1687339Y-16373524D02*
X-1687339Y-16392571D01*
X-1563530Y-16573524D02*
X-1582578Y-16564000D01*
X-1582578Y-16564000D02*
X-1592101Y-16544952D01*
X-1592101Y-16544952D02*
X-1592101Y-16373524D01*
X-1458768Y-16573524D02*
X-1477816Y-16564000D01*
X-1477816Y-16564000D02*
X-1487339Y-16544952D01*
X-1487339Y-16544952D02*
X-1487339Y-16373524D01*
X-1230197Y-16573524D02*
X-1230197Y-16373524D01*
X-1230197Y-16373524D02*
X-1163530Y-16516381D01*
X-1163530Y-16516381D02*
X-1096863Y-16373524D01*
X-1096863Y-16373524D02*
X-1096863Y-16573524D01*
X-915911Y-16573524D02*
X-915911Y-16468762D01*
X-915911Y-16468762D02*
X-925435Y-16449714D01*
X-925435Y-16449714D02*
X-944482Y-16440190D01*
X-944482Y-16440190D02*
X-982578Y-16440190D01*
X-982578Y-16440190D02*
X-1001625Y-16449714D01*
X-915911Y-16564000D02*
X-934958Y-16573524D01*
X-934958Y-16573524D02*
X-982578Y-16573524D01*
X-982578Y-16573524D02*
X-1001625Y-16564000D01*
X-1001625Y-16564000D02*
X-1011149Y-16544952D01*
X-1011149Y-16544952D02*
X-1011149Y-16525905D01*
X-1011149Y-16525905D02*
X-1001625Y-16506857D01*
X-1001625Y-16506857D02*
X-982578Y-16497333D01*
X-982578Y-16497333D02*
X-934958Y-16497333D01*
X-934958Y-16497333D02*
X-915911Y-16487809D01*
X-820673Y-16440190D02*
X-820673Y-16640190D01*
X-820673Y-16449714D02*
X-801625Y-16440190D01*
X-801625Y-16440190D02*
X-763530Y-16440190D01*
X-763530Y-16440190D02*
X-744482Y-16449714D01*
X-744482Y-16449714D02*
X-734958Y-16459238D01*
X-734958Y-16459238D02*
X-725435Y-16478286D01*
X-725435Y-16478286D02*
X-725435Y-16535428D01*
X-725435Y-16535428D02*
X-734958Y-16554476D01*
X-734958Y-16554476D02*
X-744482Y-16564000D01*
X-744482Y-16564000D02*
X-763530Y-16573524D01*
X-763530Y-16573524D02*
X-801625Y-16573524D01*
X-801625Y-16573524D02*
X-820673Y-16564000D01*
X-639720Y-16554476D02*
X-630197Y-16564000D01*
X-630197Y-16564000D02*
X-639720Y-16573524D01*
X-639720Y-16573524D02*
X-649244Y-16564000D01*
X-649244Y-16564000D02*
X-639720Y-16554476D01*
X-639720Y-16554476D02*
X-639720Y-16573524D01*
X-639720Y-16449714D02*
X-630197Y-16459238D01*
X-630197Y-16459238D02*
X-639720Y-16468762D01*
X-639720Y-16468762D02*
X-649244Y-16459238D01*
X-649244Y-16459238D02*
X-639720Y-16449714D01*
X-639720Y-16449714D02*
X-639720Y-16468762D01*
M02*
