M48
; DRILL file {KiCad 7.0.2-0} date 2023 November 13, Monday 20:51:33
; FORMAT={-:-/ absolute / inch / decimal}
; #@! TF.CreationDate,2023-11-13T20:51:33-05:00
; #@! TF.GenerationSoftware,Kicad,Pcbnew,7.0.2-0
; #@! TF.FileFunction,Plated,1,2,PTH
FMAT,2
INCH
; #@! TA.AperFunction,Plated,PTH,ViaDrill
T1C0.0118
; #@! TA.AperFunction,Plated,PTH,ComponentDrill
T2C0.0197
; #@! TA.AperFunction,Plated,PTH,ComponentDrill
T3C0.0315
; #@! TA.AperFunction,Plated,PTH,ComponentDrill
T4C0.0354
; #@! TA.AperFunction,Plated,PTH,ComponentDrill
T5C0.0394
; #@! TA.AperFunction,Plated,PTH,ComponentDrill
T6C0.0413
; #@! TA.AperFunction,Plated,PTH,ComponentDrill
T7C0.0433
; #@! TA.AperFunction,Plated,PTH,ComponentDrill
T8C0.0472
; #@! TA.AperFunction,Plated,PTH,ComponentDrill
T9C0.0630
; #@! TA.AperFunction,Plated,PTH,ComponentDrill
T10C0.0669
; #@! TA.AperFunction,Plated,PTH,ComponentDrill
T11C0.1244
%
G90
G05
T1
X2.6889Y-0.4621
X4.2583Y-0.7743
X4.8247Y-0.6487
X4.8342Y-0.4946
X4.8433Y-0.9186
X4.8495Y-0.4621
X4.8615Y-0.8693
X4.8804Y-0.9321
X5.3373Y-0.8459
X5.5596Y-4.0959
X5.642Y-1.0194
X5.6549Y-1.7603
X5.8821Y-2.3318
X5.8967Y-2.3571
X5.9639Y-4.0359
X6.0262Y-0.9467
X6.1342Y-1.8477
X6.3181Y-0.4481
X6.3361Y-1.1472
X6.483Y-0.2804
X6.5314Y-0.1986
X6.5629Y-0.7359
X6.6Y-1.9
X6.678Y-0.6911
X6.7Y-2.1
X6.7035Y-2.4263
X6.7035Y-2.6228
X6.829Y-1.8386
X6.9999Y-0.4341
X7.1028Y-0.7536
X7.5006Y-1.1496
X7.5658Y-4.1273
T2
X-0.1178Y-4.3476
X-0.0785Y-4.3476
T3
X7.1586Y-0.9425
X7.1586Y-1.0213
X7.1586Y-1.1
X7.2374Y-0.9425
X7.2374Y-1.0213
X7.2374Y-1.1
X7.7193Y-1.0965
X7.7193Y-1.1965
T4
X0.5528Y-0.1926
X0.6528Y-0.1926
X1.3719Y-3.5986
X1.4719Y-3.5986
X2.5295Y-0.1801
X2.6295Y-0.1801
X2.7841Y-6.0491
X2.8841Y-6.0491
X3.6569Y-6.0557
X3.7569Y-6.0557
X4.5085Y-0.1654
X4.5471Y-6.0527
X4.6085Y-0.1654
X4.6471Y-6.0527
X5.4236Y-6.0527
X5.5236Y-6.0527
X6.4449Y-0.1452
X6.5449Y-0.1452
X6.7842Y-4.399
X6.8842Y-4.399
X7.8391Y-0.1601
X7.9391Y-0.1601
T5
X1.326Y-5.4953
X1.4244Y-5.4953
X1.5228Y-5.4953
T6
X1.2929Y-4.0843
X1.2929Y-4.2615
X1.5488Y-4.0843
X1.5488Y-4.2615
T7
X0.2566Y0.7933
X0.3551Y0.7933
X0.4535Y0.7933
X2.2162Y0.7895
X2.3147Y0.7895
X2.4131Y0.7895
X4.1758Y0.7958
X4.2742Y0.7958
X4.3727Y0.7958
X4.5491Y-2.2513
X4.6475Y-2.2513
X4.7459Y-2.2513
X5.448Y-0.8465
X5.448Y-1.4465
X5.548Y-0.8465
X5.548Y-1.4465
X5.648Y-0.8465
X5.648Y-1.4465
X5.748Y-0.8465
X5.748Y-1.4465
X5.848Y-0.8465
X5.848Y-1.4465
X5.9346Y-2.2387
X5.948Y-0.8465
X5.948Y-0.9465
X5.948Y-1.0465
X5.948Y-1.1465
X5.948Y-1.2465
X5.948Y-1.3465
X5.948Y-1.4465
X6.033Y-2.2387
X6.048Y-0.8465
X6.048Y-1.4465
X6.1314Y-2.2387
X6.1466Y0.807
X6.148Y-0.8465
X6.148Y-1.4465
X6.245Y0.807
X6.248Y-0.8465
X6.248Y-1.4465
X6.3434Y0.807
X6.348Y-0.8465
X6.348Y-1.4465
X6.448Y-0.8465
X6.448Y-1.4465
X6.548Y-0.8465
X6.548Y-1.4465
X6.648Y-0.8465
X6.648Y-1.4465
X6.748Y-0.8465
X6.748Y-1.4465
X6.848Y-0.8465
X6.848Y-1.4465
X6.948Y-0.8465
X6.948Y-1.4465
X7.048Y-0.8465
X7.048Y-1.4465
X7.1Y-1.3264
X7.148Y-0.8465
X7.148Y-1.4465
X7.1742Y-2.2347
X7.2Y-1.3264
X7.248Y-0.8465
X7.248Y-1.4465
X7.2726Y-2.2347
X7.3Y-1.3264
X7.348Y-0.8465
X7.348Y-1.4465
X7.371Y-2.2347
X7.4Y-1.3264
X7.448Y-0.8465
X7.448Y-1.4465
X7.4757Y0.7883
X7.5Y-1.3264
X7.5304Y-5.7867
X7.548Y-0.8465
X7.548Y-1.4465
X7.5741Y0.7883
X7.6288Y-5.7867
X7.648Y-0.8465
X7.648Y-0.9465
X7.648Y-1.4465
X7.6726Y0.7883
X7.7272Y-5.7867
X7.748Y-0.8465
X7.748Y-1.4465
X8.645Y-5.8176
X8.7434Y-5.8176
X8.8419Y-5.8176
T8
X2.7646Y-3.5844
X2.7646Y-5.897
X2.9024Y-5.897
X3.6438Y-3.5932
X3.6438Y-5.9058
X3.7816Y-5.9058
X4.5264Y-3.5789
X4.5264Y-5.8915
X4.6641Y-5.8915
X5.3965Y-3.5881
X5.3965Y-5.9007
X5.5343Y-5.9007
T9
X-0.2937Y-3.6
X-0.2617Y-1.5765
X-0.2535Y-2.2243
X0.006Y-0.191
X0.0331Y-3.6
X0.065Y-1.5765
X0.0733Y-2.2243
X0.1551Y-3.6
X0.1779Y1.0689
X0.1871Y-1.5765
X0.1954Y-2.2243
X0.3328Y-0.191
X0.4548Y-0.191
X0.5322Y1.0689
X1.3117Y-1.5755
X1.3149Y-2.229
X1.6385Y-1.5755
X1.6417Y-2.229
X1.7605Y-1.5755
X1.7637Y-2.229
X1.9656Y-0.1789
X2.1375Y1.0651
X2.1849Y-1.5595
X2.1881Y-2.2304
X2.2924Y-0.1789
X2.4144Y-0.1789
X2.4918Y1.0651
X2.5117Y-1.5595
X2.5149Y-2.2304
X2.6337Y-1.5595
X2.6369Y-2.2304
X2.9811Y-2.2336
X2.9838Y-1.5603
X3.3079Y-2.2336
X3.3106Y-1.5603
X3.4299Y-2.2336
X3.4327Y-1.5603
X3.9628Y-0.166
X4.0971Y1.0714
X4.2895Y-0.166
X4.4116Y-0.166
X4.4514Y1.0714
X4.4704Y-1.9757
X4.8247Y-1.9757
X5.8558Y-1.9631
X5.8842Y-0.1507
X6.0679Y1.0826
X6.2102Y-1.9631
X6.2109Y-0.1507
X6.2251Y-3.5922
X6.2352Y-4.3967
X6.333Y-0.1507
X6.4222Y1.0826
X6.5519Y-3.5922
X6.562Y-4.3967
X6.674Y-3.5922
X6.6841Y-4.3967
X7.0954Y-1.9591
X7.2801Y-0.1618
X7.397Y1.0639
X7.4308Y-3.6025
X7.4498Y-1.9591
X7.4516Y-5.5112
X7.6069Y-0.1618
X7.7289Y-0.1618
X7.7513Y1.0639
X7.7576Y-3.6025
X7.806Y-5.5112
X7.8797Y-3.6025
X8.5056Y-1.3189
X8.5063Y-3.6
X8.5663Y-5.542
X8.8324Y-1.3189
X8.8331Y-3.6
X8.9206Y-5.542
X8.9545Y-1.3189
X8.9551Y-3.6
T10
X2.6682Y-3.7951
X2.6682Y-5.6864
X2.9989Y-3.7478
X2.9989Y-5.7336
X3.5473Y-3.8038
X3.5473Y-5.6952
X3.8781Y-3.7566
X3.8781Y-5.7424
X4.4299Y-3.7896
X4.4299Y-5.6809
X4.7606Y-3.7423
X4.7606Y-5.7281
X5.3Y-3.7987
X5.3Y-5.69
X5.6307Y-3.7515
X5.6307Y-5.7373
T11
X1.2Y-5.2
X1.6488Y-5.2
T0
M30
