%TF.GenerationSoftware,KiCad,Pcbnew,7.0.2-0*%
%TF.CreationDate,2023-11-13T20:51:25-05:00*%
%TF.ProjectId,Bridge System On Ramp,42726964-6765-4205-9379-7374656d204f,rev?*%
%TF.SameCoordinates,Original*%
%TF.FileFunction,Soldermask,Top*%
%TF.FilePolarity,Negative*%
%FSLAX46Y46*%
G04 Gerber Fmt 4.6, Leading zero omitted, Abs format (unit mm)*
G04 Created by KiCad (PCBNEW 7.0.2-0) date 2023-11-13 20:51:25*
%MOMM*%
%LPD*%
G01*
G04 APERTURE LIST*
G04 Aperture macros list*
%AMRoundRect*
0 Rectangle with rounded corners*
0 $1 Rounding radius*
0 $2 $3 $4 $5 $6 $7 $8 $9 X,Y pos of 4 corners*
0 Add a 4 corners polygon primitive as box body*
4,1,4,$2,$3,$4,$5,$6,$7,$8,$9,$2,$3,0*
0 Add four circle primitives for the rounded corners*
1,1,$1+$1,$2,$3*
1,1,$1+$1,$4,$5*
1,1,$1+$1,$6,$7*
1,1,$1+$1,$8,$9*
0 Add four rect primitives between the rounded corners*
20,1,$1+$1,$2,$3,$4,$5,0*
20,1,$1+$1,$4,$5,$6,$7,0*
20,1,$1+$1,$6,$7,$8,$9,0*
20,1,$1+$1,$8,$9,$2,$3,0*%
G04 Aperture macros list end*
%ADD10C,0.150000*%
%ADD11C,0.250000*%
%ADD12C,1.879600*%
%ADD13RoundRect,0.101600X-1.400000X1.400000X-1.400000X-1.400000X1.400000X-1.400000X1.400000X1.400000X0*%
%ADD14R,1.800000X1.800000*%
%ADD15C,1.800000*%
%ADD16C,2.387600*%
%ADD17C,2.743200*%
%ADD18R,1.500000X1.500000*%
%ADD19C,1.500000*%
%ADD20C,4.740000*%
%ADD21R,1.000000X2.750000*%
%ADD22R,0.850000X0.850000*%
%ADD23O,0.850000X0.850000*%
%ADD24C,1.600000*%
%ADD25R,1.600000X1.600000*%
%ADD26R,1.300000X1.300000*%
%ADD27C,1.300000*%
G04 APERTURE END LIST*
D10*
X137592932Y50109156D02*
X135347691Y47691204D01*
X28833651Y50127143D02*
X38620599Y50127143D01*
D11*
X33020000Y45720000D02*
X33020000Y-17780000D01*
X16116366Y-81280000D02*
X16116366Y-157715035D01*
X95180388Y-30480000D02*
X95180388Y-67803834D01*
D10*
X88530063Y50184714D02*
X86284822Y47766762D01*
X78743115Y50184714D02*
X88530063Y50184714D01*
D11*
X178532092Y-81255002D02*
X178532092Y-157690037D01*
D10*
X38620599Y50127143D02*
X36375358Y47709191D01*
X86284822Y52717807D02*
X88530063Y50184714D01*
D11*
X55977046Y-81255002D02*
X55977046Y-157690037D01*
X83138598Y45830511D02*
X83138598Y-17669489D01*
D10*
X135347691Y52642249D02*
X137592932Y50109156D01*
D11*
X135436052Y45934390D02*
X135436052Y-17565610D01*
D10*
X36375358Y52660236D02*
X38620599Y50127143D01*
X127805984Y50109156D02*
X137592932Y50109156D01*
D11*
X23419688Y-30661056D02*
X23419688Y-67984890D01*
D12*
%TO.C,LFOAmount1*%
X182224100Y-56760600D03*
X184724100Y-56760600D03*
X187224100Y-56760600D03*
D13*
X189224100Y-49760600D03*
X180224100Y-49760600D03*
%TD*%
D14*
%TO.C,LED_AttackIN1*%
X163701300Y-3687000D03*
D15*
X166241300Y-3687000D03*
%TD*%
D14*
%TO.C,LED_ShaperIN1*%
X64249200Y-4575200D03*
D15*
X66789200Y-4575200D03*
%TD*%
D14*
%TO.C,LED_SeqIN1*%
X172318700Y-111733400D03*
D15*
X174858700Y-111733400D03*
%TD*%
%TO.C,Mult_B_3*%
X87119700Y-56734500D03*
X84019700Y-56734500D03*
X75719700Y-56734500D03*
%TD*%
D12*
%TO.C,Shaper1*%
X56292300Y20054400D03*
X58792300Y20054400D03*
X61292300Y20054400D03*
D13*
X63292300Y27054400D03*
X54292300Y27054400D03*
%TD*%
D16*
%TO.C,TM4*%
X114969300Y-149644600D03*
X114969300Y-90904600D03*
D17*
X112519300Y-144294600D03*
X112519300Y-96254600D03*
X120919300Y-145494600D03*
X120919300Y-95054600D03*
D16*
X118469300Y-149644600D03*
%TD*%
D14*
%TO.C,Seq4LED1*%
X137758400Y-153737900D03*
D15*
X140298400Y-153737900D03*
%TD*%
%TO.C,Mult_A_1*%
X44716700Y-40017900D03*
X41616700Y-40017900D03*
X33316700Y-40017900D03*
%TD*%
D12*
%TO.C,Filter1*%
X106065800Y20213400D03*
X108565800Y20213400D03*
X111065800Y20213400D03*
D13*
X113065800Y27213400D03*
X104065800Y27213400D03*
%TD*%
D15*
%TO.C,Attack IN1*%
X160857500Y-3828200D03*
X157757500Y-3828200D03*
X149457500Y-3828200D03*
%TD*%
D16*
%TO.C,TM5*%
X137070000Y-149877100D03*
X137070000Y-91137100D03*
D17*
X134620000Y-144527100D03*
X134620000Y-96487100D03*
X143020000Y-145727100D03*
X143020000Y-95287100D03*
D16*
X140570000Y-149877100D03*
%TD*%
D15*
%TO.C,Mult_A_2*%
X66896700Y-39610200D03*
X63796700Y-39610200D03*
X55496700Y-39610200D03*
%TD*%
D16*
%TO.C,TM3*%
X92552500Y-150007700D03*
X92552500Y-91267700D03*
D17*
X90102500Y-144657700D03*
X90102500Y-96617700D03*
X98502500Y-145857700D03*
X98502500Y-95417700D03*
D16*
X96052500Y-150007700D03*
%TD*%
D14*
%TO.C,Seq2LED1*%
X92885000Y-153813900D03*
D15*
X95425000Y-153813900D03*
%TD*%
%TO.C,Output2*%
X227460000Y-91440000D03*
X224360000Y-91440000D03*
X216060000Y-91440000D03*
%TD*%
D12*
%TO.C,out1*%
X191271200Y-146983300D03*
X193771200Y-146983300D03*
X196271200Y-146983300D03*
D13*
X198271200Y-139983300D03*
X189271200Y-139983300D03*
%TD*%
D15*
%TO.C,Mult_A_3*%
X87189400Y-39632100D03*
X84089400Y-39632100D03*
X75789400Y-39632100D03*
%TD*%
%TO.C,seqIN1*%
X169775300Y-111677200D03*
X166675300Y-111677200D03*
X158375300Y-111677200D03*
%TD*%
%TO.C,LFO Out1*%
X227443200Y-33498800D03*
X224343200Y-33498800D03*
X216043200Y-33498800D03*
%TD*%
D14*
%TO.C,LED_DecayIN1*%
X199114300Y-4066700D03*
D15*
X201654300Y-4066700D03*
%TD*%
D12*
%TO.C,EnvDecay1*%
X189883400Y20021800D03*
X192383400Y20021800D03*
X194883400Y20021800D03*
D13*
X196883400Y27021800D03*
X187883400Y27021800D03*
%TD*%
D14*
%TO.C,Seq1LED1*%
X70717000Y-153647800D03*
D15*
X73257000Y-153647800D03*
%TD*%
%TO.C,Output1*%
X200143400Y-91504000D03*
X197043400Y-91504000D03*
X188743400Y-91504000D03*
%TD*%
D14*
%TO.C,Seq3LED1*%
X115495500Y-153737900D03*
D15*
X118035500Y-153737900D03*
%TD*%
%TO.C,Trig OUT1*%
X3940000Y-91440000D03*
X840000Y-91440000D03*
X-7460000Y-91440000D03*
%TD*%
%TO.C,LineIn_L1*%
X4751800Y-40043400D03*
X1651800Y-40043400D03*
X-6648200Y-40043400D03*
%TD*%
D12*
%TO.C,EnvAttack1*%
X156123600Y20498900D03*
X158623600Y20498900D03*
X161123600Y20498900D03*
D13*
X163123600Y27498900D03*
X154123600Y27498900D03*
%TD*%
D18*
%TO.C,U2*%
X33680000Y-139580000D03*
D19*
X38680000Y-139580000D03*
X36180000Y-139580000D03*
D20*
X30480000Y-132080000D03*
X41880000Y-132080000D03*
%TD*%
D12*
%TO.C,out2*%
X219583200Y-147766600D03*
X222083200Y-147766600D03*
X224583200Y-147766600D03*
D13*
X226583200Y-140766600D03*
X217583200Y-140766600D03*
%TD*%
D15*
%TO.C,LineIn_R1*%
X4962300Y-56496300D03*
X1862300Y-56496300D03*
X-6437700Y-56496300D03*
%TD*%
D12*
%TO.C,OscWaveform1*%
X6518800Y20150600D03*
X9018800Y20150600D03*
X11518800Y20150600D03*
D13*
X13518800Y27150600D03*
X4518800Y27150600D03*
%TD*%
D21*
%TO.C,J1*%
X204699700Y-112352900D03*
X204699700Y-118602900D03*
X206699700Y-112352900D03*
X206699700Y-118602900D03*
X208699700Y-112352900D03*
X208699700Y-118602900D03*
X210699700Y-112352900D03*
X210699700Y-118602900D03*
%TD*%
D15*
%TO.C,Mult_B_2*%
X66978300Y-56652900D03*
X63878300Y-56652900D03*
X55578300Y-56652900D03*
%TD*%
%TO.C,Seq OUT1*%
X169518400Y-91242700D03*
X166418400Y-91242700D03*
X158118400Y-91242700D03*
%TD*%
%TO.C,Waveform IN1*%
X11552900Y-4851400D03*
X8452900Y-4851400D03*
X152900Y-4851400D03*
%TD*%
%TO.C,Shaper IN1*%
X61326400Y-4543000D03*
X58226400Y-4543000D03*
X49926400Y-4543000D03*
%TD*%
D14*
%TO.C,LED_FilterIN1*%
X114515200Y-4199900D03*
D15*
X117055200Y-4199900D03*
%TD*%
%TO.C,Mult_B_1*%
X44798200Y-56616300D03*
X41698200Y-56616300D03*
X33398200Y-56616300D03*
%TD*%
D14*
%TO.C,LED_WaveformIN1*%
X14042000Y-4891400D03*
D15*
X16582000Y-4891400D03*
%TD*%
D16*
%TO.C,TM2*%
X70221500Y-149784400D03*
X70221500Y-91044400D03*
D17*
X67771500Y-144434400D03*
X67771500Y-96394400D03*
X76171500Y-145634400D03*
X76171500Y-95194400D03*
D16*
X73721500Y-149784400D03*
%TD*%
D15*
%TO.C,Filter IN1*%
X112054000Y-4215300D03*
X108954000Y-4215300D03*
X100654000Y-4215300D03*
%TD*%
%TO.C,Decay IN1*%
X196315000Y-4110700D03*
X193215000Y-4110700D03*
X184915000Y-4110700D03*
%TD*%
D14*
%TO.C,ClockLED1*%
X34846000Y-91403300D03*
D15*
X37386000Y-91403300D03*
%TD*%
D22*
%TO.C,Trigger1*%
X-2993300Y-110429500D03*
D23*
X-1993300Y-110429500D03*
%TD*%
D12*
%TO.C,LFOWave1*%
X115546900Y-57182000D03*
X118046900Y-57182000D03*
X120546900Y-57182000D03*
D13*
X122546900Y-50182000D03*
X113546900Y-50182000D03*
%TD*%
D24*
%TO.C,ClockPlay1*%
X39338700Y-108241700D03*
X32838700Y-108241700D03*
X39338700Y-103741700D03*
X32838700Y-103741700D03*
%TD*%
D12*
%TO.C,LFORate1*%
X150737900Y-56863900D03*
X153237900Y-56863900D03*
X155737900Y-56863900D03*
D13*
X157737900Y-49863900D03*
X148737900Y-49863900D03*
%TD*%
D25*
%TO.C,U1*%
X196799200Y-36741600D03*
D24*
X194259200Y-36741600D03*
X191719200Y-36741600D03*
X189179200Y-36741600D03*
X186639200Y-36741600D03*
X184099200Y-36741600D03*
X181559200Y-36741600D03*
X179019200Y-36741600D03*
X176479200Y-36741600D03*
X173939200Y-36741600D03*
X171399200Y-36741600D03*
X168859200Y-36741600D03*
X166319200Y-36741600D03*
X163779200Y-36741600D03*
X161239200Y-36741600D03*
X158699200Y-36741600D03*
X156159200Y-36741600D03*
X153619200Y-36741600D03*
X151079200Y-36741600D03*
X148539200Y-36741600D03*
X145999200Y-36741600D03*
X143459200Y-36741600D03*
X140919200Y-36741600D03*
X138379200Y-36741600D03*
X138379200Y-21501600D03*
X140919200Y-21501600D03*
X143459200Y-21501600D03*
X145999200Y-21501600D03*
X148539200Y-21501600D03*
X151079200Y-21501600D03*
X153619200Y-21501600D03*
X156159200Y-21501600D03*
X158699200Y-21501600D03*
X161239200Y-21501600D03*
X163779200Y-21501600D03*
X166319200Y-21501600D03*
X168859200Y-21501600D03*
X171399200Y-21501600D03*
X173939200Y-21501600D03*
X176479200Y-21501600D03*
X179019200Y-21501600D03*
X181559200Y-21501600D03*
X184099200Y-21501600D03*
X186639200Y-21501600D03*
X189179200Y-21501600D03*
X191719200Y-21501600D03*
X194259200Y-21501600D03*
X196799200Y-21501600D03*
X194259200Y-24041600D03*
X151079200Y-34201600D03*
X151079200Y-31661600D03*
X151079200Y-29121600D03*
X151079200Y-26581600D03*
X151079200Y-24041600D03*
D25*
X190500000Y-33690800D03*
D24*
X187960000Y-33690800D03*
X185420000Y-33690800D03*
X182880000Y-33690800D03*
X180340000Y-33690800D03*
D26*
X183829200Y-23940000D03*
D27*
X183829200Y-25940000D03*
X183829200Y-27940000D03*
X181829200Y-27940000D03*
X181829200Y-25940000D03*
X181829200Y-23940000D03*
X196069200Y-27851600D03*
X196069200Y-30391600D03*
%TD*%
M02*
