%TF.GenerationSoftware,KiCad,Pcbnew,7.0.2-0*%
%TF.CreationDate,2023-11-13T20:51:25-05:00*%
%TF.ProjectId,Bridge System On Ramp,42726964-6765-4205-9379-7374656d204f,rev?*%
%TF.SameCoordinates,Original*%
%TF.FileFunction,Legend,Bot*%
%TF.FilePolarity,Positive*%
%FSLAX46Y46*%
G04 Gerber Fmt 4.6, Leading zero omitted, Abs format (unit mm)*
G04 Created by KiCad (PCBNEW 7.0.2-0) date 2023-11-13 20:51:25*
%MOMM*%
%LPD*%
G01*
G04 APERTURE LIST*
%ADD10C,0.100000*%
%ADD11C,0.040000*%
%ADD12C,0.150000*%
%ADD13C,0.120000*%
G04 APERTURE END LIST*
D10*
X113082350Y0D02*
X134620000Y0D01*
X134620000Y-33084880D01*
X113082350Y-33084880D01*
X113082350Y0D01*
D11*
G36*
X228134190Y-161783324D02*
G01*
X228316639Y-161863558D01*
X228300139Y-161877627D01*
X228282602Y-161890819D01*
X228264029Y-161903133D01*
X228244420Y-161914569D01*
X228223775Y-161925128D01*
X228202093Y-161934810D01*
X228179376Y-161943614D01*
X228155622Y-161951540D01*
X228130833Y-161958589D01*
X228105007Y-161964760D01*
X228078145Y-161970054D01*
X228050247Y-161974470D01*
X228035909Y-161976349D01*
X228021313Y-161978009D01*
X228006457Y-161979449D01*
X227991342Y-161980670D01*
X227975968Y-161981671D01*
X227960336Y-161982453D01*
X227944444Y-161983016D01*
X227928293Y-161983359D01*
X227904889Y-161982900D01*
X227881845Y-161981855D01*
X227859162Y-161980221D01*
X227836840Y-161978001D01*
X227814878Y-161975193D01*
X227793277Y-161971798D01*
X227772036Y-161967815D01*
X227751156Y-161963245D01*
X227730637Y-161958088D01*
X227710478Y-161952344D01*
X227690680Y-161946012D01*
X227671243Y-161939093D01*
X227652166Y-161931586D01*
X227633450Y-161923493D01*
X227615095Y-161914812D01*
X227597100Y-161905543D01*
X227579693Y-161895984D01*
X227563377Y-161885938D01*
X227548152Y-161875404D01*
X227534017Y-161864382D01*
X227520972Y-161852873D01*
X227509018Y-161840875D01*
X227498154Y-161828390D01*
X227488381Y-161815418D01*
X227479699Y-161801957D01*
X227472107Y-161788009D01*
X227465605Y-161773573D01*
X227460194Y-161758649D01*
X227455874Y-161743238D01*
X227452644Y-161727339D01*
X227450504Y-161710952D01*
X227449455Y-161694078D01*
X227449455Y-161068914D01*
X227675868Y-161068914D01*
X227675868Y-161678910D01*
X227676235Y-161690152D01*
X227677334Y-161700906D01*
X227679165Y-161711172D01*
X227681730Y-161720950D01*
X227685027Y-161730241D01*
X227689057Y-161739044D01*
X227695125Y-161749362D01*
X227699316Y-161755187D01*
X227706834Y-161764779D01*
X227715194Y-161773769D01*
X227724394Y-161782158D01*
X227734435Y-161789946D01*
X227745317Y-161797133D01*
X227757039Y-161803719D01*
X227761964Y-161806185D01*
X227777422Y-161813166D01*
X227793022Y-161819436D01*
X227808763Y-161824995D01*
X227824646Y-161829843D01*
X227840671Y-161833980D01*
X227856838Y-161837406D01*
X227873146Y-161840121D01*
X227889596Y-161842125D01*
X227906188Y-161843419D01*
X227922921Y-161844001D01*
X227934155Y-161843994D01*
X227950825Y-161843695D01*
X227966945Y-161842799D01*
X227982515Y-161841305D01*
X227997536Y-161839213D01*
X228012007Y-161836524D01*
X228025929Y-161833237D01*
X228039302Y-161829352D01*
X228052124Y-161824870D01*
X228067362Y-161819566D01*
X228081705Y-161813823D01*
X228095154Y-161807639D01*
X228107709Y-161801016D01*
X228119369Y-161793952D01*
X228130134Y-161786449D01*
X228134190Y-161783324D01*
G37*
G36*
X227151235Y-161969291D02*
G01*
X226196489Y-161969291D01*
X226196489Y-161843994D01*
X226924455Y-161843994D01*
X226924455Y-161068914D01*
X227151235Y-161068914D01*
X227151235Y-161969291D01*
G37*
G36*
X225215366Y-161722434D02*
G01*
X225227556Y-161737154D01*
X225240496Y-161750925D01*
X225254186Y-161763746D01*
X225268626Y-161775617D01*
X225283816Y-161786538D01*
X225299755Y-161796510D01*
X225316445Y-161805532D01*
X225333885Y-161813604D01*
X225352074Y-161820727D01*
X225371013Y-161826900D01*
X225390703Y-161832123D01*
X225411142Y-161836396D01*
X225432331Y-161839720D01*
X225454270Y-161842095D01*
X225476958Y-161843519D01*
X225500397Y-161843994D01*
X225515176Y-161843816D01*
X225534270Y-161843026D01*
X225552665Y-161841604D01*
X225570362Y-161839550D01*
X225587361Y-161836864D01*
X225603661Y-161833547D01*
X225619263Y-161829597D01*
X225634167Y-161825015D01*
X225637784Y-161823771D01*
X225652083Y-161819323D01*
X225665673Y-161814552D01*
X225678553Y-161809458D01*
X225690723Y-161804042D01*
X225702184Y-161798303D01*
X225712934Y-161792240D01*
X225725374Y-161784209D01*
X225732306Y-161779147D01*
X225742833Y-161771722D01*
X225752433Y-161763733D01*
X225761105Y-161755180D01*
X225768851Y-161746065D01*
X225775668Y-161736386D01*
X225781559Y-161726144D01*
X225786522Y-161715338D01*
X225790558Y-161703969D01*
X225793504Y-161694525D01*
X225796160Y-161683586D01*
X225798527Y-161671151D01*
X225799944Y-161662030D01*
X225801232Y-161652245D01*
X225802391Y-161641795D01*
X225803422Y-161630680D01*
X225804323Y-161618901D01*
X225805096Y-161606457D01*
X225805740Y-161593349D01*
X225806255Y-161579576D01*
X225806642Y-161565138D01*
X225806899Y-161550036D01*
X225807028Y-161534269D01*
X225807044Y-161526136D01*
X225806980Y-161510032D01*
X225806786Y-161494582D01*
X225806464Y-161479786D01*
X225806014Y-161465645D01*
X225805434Y-161452158D01*
X225804726Y-161439325D01*
X225803888Y-161427147D01*
X225802922Y-161415622D01*
X225801828Y-161404753D01*
X225800604Y-161394537D01*
X225799252Y-161384976D01*
X225797770Y-161376069D01*
X225795307Y-161363935D01*
X225792554Y-161353274D01*
X225790558Y-161346984D01*
X225786522Y-161335925D01*
X225781559Y-161325387D01*
X225775668Y-161315371D01*
X225768851Y-161305878D01*
X225761105Y-161296907D01*
X225752433Y-161288457D01*
X225742833Y-161280530D01*
X225732306Y-161273125D01*
X225720531Y-161264758D01*
X225710313Y-161258382D01*
X225699385Y-161252287D01*
X225687747Y-161246474D01*
X225675400Y-161240943D01*
X225662342Y-161235693D01*
X225648575Y-161230724D01*
X225637784Y-161227183D01*
X225623055Y-161223041D01*
X225607627Y-161219407D01*
X225591502Y-161216281D01*
X225574678Y-161213664D01*
X225557155Y-161211555D01*
X225538934Y-161209955D01*
X225520015Y-161208863D01*
X225505367Y-161208377D01*
X225500397Y-161208279D01*
X225480285Y-161208831D01*
X225460753Y-161209994D01*
X225441800Y-161211768D01*
X225423426Y-161214152D01*
X225405633Y-161217147D01*
X225388418Y-161220752D01*
X225371784Y-161224967D01*
X225355729Y-161229793D01*
X225340254Y-161235230D01*
X225325358Y-161241277D01*
X225315750Y-161245648D01*
X225302541Y-161252878D01*
X225290118Y-161260390D01*
X225278481Y-161268185D01*
X225267630Y-161276261D01*
X225257564Y-161284619D01*
X225248284Y-161293260D01*
X225239790Y-161302183D01*
X225232081Y-161311387D01*
X225225158Y-161320874D01*
X225219021Y-161330643D01*
X225215366Y-161337312D01*
X224975397Y-161337312D01*
X224980277Y-161323249D01*
X224985942Y-161309471D01*
X224992390Y-161295978D01*
X224999623Y-161282770D01*
X225007640Y-161269847D01*
X225016441Y-161257209D01*
X225026027Y-161244856D01*
X225036397Y-161232788D01*
X225047551Y-161221006D01*
X225059489Y-161209508D01*
X225072212Y-161198296D01*
X225085719Y-161187368D01*
X225100010Y-161176726D01*
X225115085Y-161166369D01*
X225130945Y-161156297D01*
X225147588Y-161146510D01*
X225164938Y-161137268D01*
X225182914Y-161128612D01*
X225201517Y-161120541D01*
X225220747Y-161113056D01*
X225240603Y-161106157D01*
X225261087Y-161099843D01*
X225282197Y-161094115D01*
X225303934Y-161088972D01*
X225326298Y-161084415D01*
X225349289Y-161080444D01*
X225372907Y-161077058D01*
X225397151Y-161074258D01*
X225422022Y-161072044D01*
X225447520Y-161070415D01*
X225473645Y-161069371D01*
X225500397Y-161068914D01*
X225522197Y-161069266D01*
X225543542Y-161069992D01*
X225564432Y-161071093D01*
X225584867Y-161072568D01*
X225604847Y-161074418D01*
X225624371Y-161076642D01*
X225643441Y-161079240D01*
X225662055Y-161082213D01*
X225680215Y-161085560D01*
X225697919Y-161089281D01*
X225715168Y-161093377D01*
X225731962Y-161097847D01*
X225748301Y-161102692D01*
X225764185Y-161107911D01*
X225779614Y-161113504D01*
X225794588Y-161119472D01*
X225809351Y-161125624D01*
X225823599Y-161131881D01*
X225837332Y-161138243D01*
X225850550Y-161144710D01*
X225863252Y-161151281D01*
X225875440Y-161157957D01*
X225887112Y-161164738D01*
X225898269Y-161171624D01*
X225908911Y-161178614D01*
X225919037Y-161185709D01*
X225928648Y-161192909D01*
X225937745Y-161200214D01*
X225946325Y-161207623D01*
X225954391Y-161215138D01*
X225961942Y-161222757D01*
X225968977Y-161230480D01*
X225977134Y-161238988D01*
X225984754Y-161248134D01*
X225991835Y-161257920D01*
X225998378Y-161268344D01*
X226004383Y-161279407D01*
X226008533Y-161288124D01*
X226012381Y-161297200D01*
X226015926Y-161306635D01*
X226019169Y-161316429D01*
X226021919Y-161327274D01*
X226024398Y-161339943D01*
X226025901Y-161349402D01*
X226027283Y-161359672D01*
X226028546Y-161370752D01*
X226029688Y-161382643D01*
X226030709Y-161395344D01*
X226031611Y-161408856D01*
X226032392Y-161423179D01*
X226033054Y-161438312D01*
X226033595Y-161454256D01*
X226034015Y-161471010D01*
X226034316Y-161488575D01*
X226034421Y-161497661D01*
X226034496Y-161506950D01*
X226034541Y-161516442D01*
X226034556Y-161526136D01*
X226034541Y-161535683D01*
X226034496Y-161545035D01*
X226034421Y-161554191D01*
X226034316Y-161563152D01*
X226034015Y-161580487D01*
X226033595Y-161597042D01*
X226033054Y-161612814D01*
X226032392Y-161627806D01*
X226031611Y-161642016D01*
X226030709Y-161655445D01*
X226029688Y-161668092D01*
X226028546Y-161679958D01*
X226027283Y-161691042D01*
X226025901Y-161701345D01*
X226024398Y-161710867D01*
X226022775Y-161719608D01*
X226020116Y-161731253D01*
X226019169Y-161734744D01*
X226016543Y-161743570D01*
X226013108Y-161753524D01*
X226009364Y-161762782D01*
X226005312Y-161771345D01*
X226000192Y-161780455D01*
X225998653Y-161782884D01*
X225992725Y-161791057D01*
X225986481Y-161799420D01*
X225979922Y-161807971D01*
X225973047Y-161816712D01*
X225968977Y-161821792D01*
X225961942Y-161829511D01*
X225954391Y-161837114D01*
X225946325Y-161844603D01*
X225937745Y-161851976D01*
X225928648Y-161859234D01*
X225919037Y-161866378D01*
X225908911Y-161873406D01*
X225898269Y-161880319D01*
X225887112Y-161887117D01*
X225875440Y-161893800D01*
X225863252Y-161900368D01*
X225850550Y-161906821D01*
X225837332Y-161913159D01*
X225823599Y-161919381D01*
X225809351Y-161925489D01*
X225794588Y-161931482D01*
X225779614Y-161937480D01*
X225764185Y-161943111D01*
X225748301Y-161948375D01*
X225731962Y-161953271D01*
X225715168Y-161957800D01*
X225697919Y-161961961D01*
X225680215Y-161965755D01*
X225662055Y-161969181D01*
X225643441Y-161972239D01*
X225624371Y-161974930D01*
X225604847Y-161977254D01*
X225584867Y-161979210D01*
X225564432Y-161980798D01*
X225543542Y-161982019D01*
X225522197Y-161982873D01*
X225500397Y-161983359D01*
X225476239Y-161983097D01*
X225452489Y-161982311D01*
X225429149Y-161981002D01*
X225406219Y-161979169D01*
X225383697Y-161976812D01*
X225361585Y-161973931D01*
X225339882Y-161970526D01*
X225318589Y-161966598D01*
X225297705Y-161962146D01*
X225277230Y-161957170D01*
X225257164Y-161951670D01*
X225237508Y-161945646D01*
X225218261Y-161939099D01*
X225199423Y-161932028D01*
X225180995Y-161924433D01*
X225162976Y-161916314D01*
X225146014Y-161907623D01*
X225129751Y-161898475D01*
X225114186Y-161888870D01*
X225099320Y-161878808D01*
X225085152Y-161868289D01*
X225071682Y-161857314D01*
X225058911Y-161845881D01*
X225046838Y-161833992D01*
X225035464Y-161821646D01*
X225024788Y-161808844D01*
X225014810Y-161795584D01*
X225005531Y-161781868D01*
X224996950Y-161767695D01*
X224989067Y-161753065D01*
X224981883Y-161737978D01*
X224975397Y-161722434D01*
X225215366Y-161722434D01*
G37*
G36*
X224788551Y-161783324D02*
G01*
X224971001Y-161863558D01*
X224954500Y-161877627D01*
X224936963Y-161890819D01*
X224918390Y-161903133D01*
X224898781Y-161914569D01*
X224878136Y-161925128D01*
X224856455Y-161934810D01*
X224833737Y-161943614D01*
X224809984Y-161951540D01*
X224785194Y-161958589D01*
X224759368Y-161964760D01*
X224732506Y-161970054D01*
X224704608Y-161974470D01*
X224690271Y-161976349D01*
X224675674Y-161978009D01*
X224660818Y-161979449D01*
X224645704Y-161980670D01*
X224630330Y-161981671D01*
X224614697Y-161982453D01*
X224598805Y-161983016D01*
X224582655Y-161983359D01*
X224559250Y-161982900D01*
X224536207Y-161981855D01*
X224513523Y-161980221D01*
X224491201Y-161978001D01*
X224469239Y-161975193D01*
X224447638Y-161971798D01*
X224426397Y-161967815D01*
X224405518Y-161963245D01*
X224384998Y-161958088D01*
X224364840Y-161952344D01*
X224345042Y-161946012D01*
X224325604Y-161939093D01*
X224306528Y-161931586D01*
X224287812Y-161923493D01*
X224269456Y-161914812D01*
X224251461Y-161905543D01*
X224234055Y-161895984D01*
X224217739Y-161885938D01*
X224202513Y-161875404D01*
X224188378Y-161864382D01*
X224175333Y-161852873D01*
X224163379Y-161840875D01*
X224152516Y-161828390D01*
X224142743Y-161815418D01*
X224134060Y-161801957D01*
X224126468Y-161788009D01*
X224119967Y-161773573D01*
X224114556Y-161758649D01*
X224110235Y-161743238D01*
X224107005Y-161727339D01*
X224104866Y-161710952D01*
X224103817Y-161694078D01*
X224103817Y-161068914D01*
X224330230Y-161068914D01*
X224330230Y-161678910D01*
X224330596Y-161690152D01*
X224331695Y-161700906D01*
X224333527Y-161711172D01*
X224336092Y-161720950D01*
X224339389Y-161730241D01*
X224343419Y-161739044D01*
X224349487Y-161749362D01*
X224353677Y-161755187D01*
X224361196Y-161764779D01*
X224369555Y-161773769D01*
X224378755Y-161782158D01*
X224388796Y-161789946D01*
X224399678Y-161797133D01*
X224411401Y-161803719D01*
X224416325Y-161806185D01*
X224431783Y-161813166D01*
X224447383Y-161819436D01*
X224463125Y-161824995D01*
X224479008Y-161829843D01*
X224495033Y-161833980D01*
X224511199Y-161837406D01*
X224527508Y-161840121D01*
X224543957Y-161842125D01*
X224560549Y-161843419D01*
X224577282Y-161844001D01*
X224588516Y-161843994D01*
X224605186Y-161843695D01*
X224621306Y-161842799D01*
X224636877Y-161841305D01*
X224651898Y-161839213D01*
X224666369Y-161836524D01*
X224680291Y-161833237D01*
X224693663Y-161829352D01*
X224706486Y-161824870D01*
X224721724Y-161819566D01*
X224736067Y-161813823D01*
X224749516Y-161807639D01*
X224762070Y-161801016D01*
X224773730Y-161793952D01*
X224784496Y-161786449D01*
X224788551Y-161783324D01*
G37*
G36*
X223805596Y-161969291D02*
G01*
X222850851Y-161969291D01*
X222850851Y-161843994D01*
X223578817Y-161843994D01*
X223578817Y-161068914D01*
X223805596Y-161068914D01*
X223805596Y-161969291D01*
G37*
G36*
X221869727Y-161722434D02*
G01*
X221881917Y-161737154D01*
X221894858Y-161750925D01*
X221908548Y-161763746D01*
X221922987Y-161775617D01*
X221938177Y-161786538D01*
X221954117Y-161796510D01*
X221970807Y-161805532D01*
X221988246Y-161813604D01*
X222006435Y-161820727D01*
X222025375Y-161826900D01*
X222045064Y-161832123D01*
X222065503Y-161836396D01*
X222086692Y-161839720D01*
X222108631Y-161842095D01*
X222131320Y-161843519D01*
X222154759Y-161843994D01*
X222169537Y-161843816D01*
X222188631Y-161843026D01*
X222207027Y-161841604D01*
X222224724Y-161839550D01*
X222241723Y-161836864D01*
X222258023Y-161833547D01*
X222273625Y-161829597D01*
X222288528Y-161825015D01*
X222292145Y-161823771D01*
X222306445Y-161819323D01*
X222320035Y-161814552D01*
X222332915Y-161809458D01*
X222345085Y-161804042D01*
X222356545Y-161798303D01*
X222367296Y-161792240D01*
X222379736Y-161784209D01*
X222386667Y-161779147D01*
X222397194Y-161771722D01*
X222406794Y-161763733D01*
X222415467Y-161755180D01*
X222423212Y-161746065D01*
X222430030Y-161736386D01*
X222435920Y-161726144D01*
X222440883Y-161715338D01*
X222444919Y-161703969D01*
X222447865Y-161694525D01*
X222450522Y-161683586D01*
X222452889Y-161671151D01*
X222454305Y-161662030D01*
X222455593Y-161652245D01*
X222456753Y-161641795D01*
X222457783Y-161630680D01*
X222458685Y-161618901D01*
X222459457Y-161606457D01*
X222460101Y-161593349D01*
X222460617Y-161579576D01*
X222461003Y-161565138D01*
X222461261Y-161550036D01*
X222461389Y-161534269D01*
X222461406Y-161526136D01*
X222461341Y-161510032D01*
X222461148Y-161494582D01*
X222460826Y-161479786D01*
X222460375Y-161465645D01*
X222459796Y-161452158D01*
X222459087Y-161439325D01*
X222458250Y-161427147D01*
X222457284Y-161415622D01*
X222456189Y-161404753D01*
X222454966Y-161394537D01*
X222453613Y-161384976D01*
X222452132Y-161376069D01*
X222449669Y-161363935D01*
X222446916Y-161353274D01*
X222444919Y-161346984D01*
X222440883Y-161335925D01*
X222435920Y-161325387D01*
X222430030Y-161315371D01*
X222423212Y-161305878D01*
X222415467Y-161296907D01*
X222406794Y-161288457D01*
X222397194Y-161280530D01*
X222386667Y-161273125D01*
X222374893Y-161264758D01*
X222364675Y-161258382D01*
X222353747Y-161252287D01*
X222342109Y-161246474D01*
X222329761Y-161240943D01*
X222316704Y-161235693D01*
X222302937Y-161230724D01*
X222292145Y-161227183D01*
X222277416Y-161223041D01*
X222261989Y-161219407D01*
X222245863Y-161216281D01*
X222229039Y-161213664D01*
X222211516Y-161211555D01*
X222193296Y-161209955D01*
X222174376Y-161208863D01*
X222159729Y-161208377D01*
X222154759Y-161208279D01*
X222134647Y-161208831D01*
X222115114Y-161209994D01*
X222096161Y-161211768D01*
X222077788Y-161214152D01*
X222059994Y-161217147D01*
X222042780Y-161220752D01*
X222026145Y-161224967D01*
X222010091Y-161229793D01*
X221994615Y-161235230D01*
X221979720Y-161241277D01*
X221970111Y-161245648D01*
X221956903Y-161252878D01*
X221944480Y-161260390D01*
X221932843Y-161268185D01*
X221921991Y-161276261D01*
X221911926Y-161284619D01*
X221902646Y-161293260D01*
X221894151Y-161302183D01*
X221886443Y-161311387D01*
X221879520Y-161320874D01*
X221873382Y-161330643D01*
X221869727Y-161337312D01*
X221629759Y-161337312D01*
X221634639Y-161323249D01*
X221640303Y-161309471D01*
X221646752Y-161295978D01*
X221653984Y-161282770D01*
X221662002Y-161269847D01*
X221670803Y-161257209D01*
X221680388Y-161244856D01*
X221690758Y-161232788D01*
X221701912Y-161221006D01*
X221713851Y-161209508D01*
X221726573Y-161198296D01*
X221740080Y-161187368D01*
X221754371Y-161176726D01*
X221769446Y-161166369D01*
X221785306Y-161156297D01*
X221801950Y-161146510D01*
X221819299Y-161137268D01*
X221837275Y-161128612D01*
X221855878Y-161120541D01*
X221875108Y-161113056D01*
X221894965Y-161106157D01*
X221915448Y-161099843D01*
X221936559Y-161094115D01*
X221958296Y-161088972D01*
X221980660Y-161084415D01*
X222003651Y-161080444D01*
X222027268Y-161077058D01*
X222051513Y-161074258D01*
X222076384Y-161072044D01*
X222101882Y-161070415D01*
X222128007Y-161069371D01*
X222154759Y-161068914D01*
X222176559Y-161069266D01*
X222197904Y-161069992D01*
X222218794Y-161071093D01*
X222239229Y-161072568D01*
X222259208Y-161074418D01*
X222278733Y-161076642D01*
X222297802Y-161079240D01*
X222316417Y-161082213D01*
X222334576Y-161085560D01*
X222352281Y-161089281D01*
X222369530Y-161093377D01*
X222386324Y-161097847D01*
X222402663Y-161102692D01*
X222418547Y-161107911D01*
X222433975Y-161113504D01*
X222448949Y-161119472D01*
X222463712Y-161125624D01*
X222477961Y-161131881D01*
X222491694Y-161138243D01*
X222504911Y-161144710D01*
X222517614Y-161151281D01*
X222529801Y-161157957D01*
X222541473Y-161164738D01*
X222552630Y-161171624D01*
X222563272Y-161178614D01*
X222573399Y-161185709D01*
X222583010Y-161192909D01*
X222592106Y-161200214D01*
X222600687Y-161207623D01*
X222608753Y-161215138D01*
X222616303Y-161222757D01*
X222623339Y-161230480D01*
X222631496Y-161238988D01*
X222639115Y-161248134D01*
X222646196Y-161257920D01*
X222652739Y-161268344D01*
X222658744Y-161279407D01*
X222662895Y-161288124D01*
X222666743Y-161297200D01*
X222670288Y-161306635D01*
X222673530Y-161316429D01*
X222676280Y-161327274D01*
X222678760Y-161339943D01*
X222680262Y-161349402D01*
X222681645Y-161359672D01*
X222682907Y-161370752D01*
X222684049Y-161382643D01*
X222685071Y-161395344D01*
X222685973Y-161408856D01*
X222686754Y-161423179D01*
X222687415Y-161438312D01*
X222687956Y-161454256D01*
X222688377Y-161471010D01*
X222688677Y-161488575D01*
X222688783Y-161497661D01*
X222688858Y-161506950D01*
X222688903Y-161516442D01*
X222688918Y-161526136D01*
X222688903Y-161535683D01*
X222688858Y-161545035D01*
X222688783Y-161554191D01*
X222688677Y-161563152D01*
X222688377Y-161580487D01*
X222687956Y-161597042D01*
X222687415Y-161612814D01*
X222686754Y-161627806D01*
X222685973Y-161642016D01*
X222685071Y-161655445D01*
X222684049Y-161668092D01*
X222682907Y-161679958D01*
X222681645Y-161691042D01*
X222680262Y-161701345D01*
X222678760Y-161710867D01*
X222677137Y-161719608D01*
X222674477Y-161731253D01*
X222673530Y-161734744D01*
X222670904Y-161743570D01*
X222667470Y-161753524D01*
X222663726Y-161762782D01*
X222659673Y-161771345D01*
X222654554Y-161780455D01*
X222653014Y-161782884D01*
X222647086Y-161791057D01*
X222640842Y-161799420D01*
X222634283Y-161807971D01*
X222627409Y-161816712D01*
X222623339Y-161821792D01*
X222616303Y-161829511D01*
X222608753Y-161837114D01*
X222600687Y-161844603D01*
X222592106Y-161851976D01*
X222583010Y-161859234D01*
X222573399Y-161866378D01*
X222563272Y-161873406D01*
X222552630Y-161880319D01*
X222541473Y-161887117D01*
X222529801Y-161893800D01*
X222517614Y-161900368D01*
X222504911Y-161906821D01*
X222491694Y-161913159D01*
X222477961Y-161919381D01*
X222463712Y-161925489D01*
X222448949Y-161931482D01*
X222433975Y-161937480D01*
X222418547Y-161943111D01*
X222402663Y-161948375D01*
X222386324Y-161953271D01*
X222369530Y-161957800D01*
X222352281Y-161961961D01*
X222334576Y-161965755D01*
X222316417Y-161969181D01*
X222297802Y-161972239D01*
X222278733Y-161974930D01*
X222259208Y-161977254D01*
X222239229Y-161979210D01*
X222218794Y-161980798D01*
X222197904Y-161982019D01*
X222176559Y-161982873D01*
X222154759Y-161983359D01*
X222130600Y-161983097D01*
X222106851Y-161982311D01*
X222083511Y-161981002D01*
X222060580Y-161979169D01*
X222038059Y-161976812D01*
X222015947Y-161973931D01*
X221994244Y-161970526D01*
X221972950Y-161966598D01*
X221952066Y-161962146D01*
X221931591Y-161957170D01*
X221911526Y-161951670D01*
X221891869Y-161945646D01*
X221872622Y-161939099D01*
X221853785Y-161932028D01*
X221835356Y-161924433D01*
X221817337Y-161916314D01*
X221800376Y-161907623D01*
X221784112Y-161898475D01*
X221768548Y-161888870D01*
X221753681Y-161878808D01*
X221739513Y-161868289D01*
X221726044Y-161857314D01*
X221713273Y-161845881D01*
X221701200Y-161833992D01*
X221689825Y-161821646D01*
X221679149Y-161808844D01*
X221669171Y-161795584D01*
X221659892Y-161781868D01*
X221651311Y-161767695D01*
X221643429Y-161753065D01*
X221636244Y-161737978D01*
X221629759Y-161722434D01*
X221869727Y-161722434D01*
G37*
G36*
X221442913Y-161783324D02*
G01*
X221625362Y-161863558D01*
X221608862Y-161877627D01*
X221591325Y-161890819D01*
X221572752Y-161903133D01*
X221553143Y-161914569D01*
X221532498Y-161925128D01*
X221510816Y-161934810D01*
X221488099Y-161943614D01*
X221464345Y-161951540D01*
X221439555Y-161958589D01*
X221413730Y-161964760D01*
X221386868Y-161970054D01*
X221358970Y-161974470D01*
X221344632Y-161976349D01*
X221330035Y-161978009D01*
X221315180Y-161979449D01*
X221300065Y-161980670D01*
X221284691Y-161981671D01*
X221269059Y-161982453D01*
X221253167Y-161983016D01*
X221237016Y-161983359D01*
X221213612Y-161982900D01*
X221190568Y-161981855D01*
X221167885Y-161980221D01*
X221145562Y-161978001D01*
X221123601Y-161975193D01*
X221101999Y-161971798D01*
X221080759Y-161967815D01*
X221059879Y-161963245D01*
X221039360Y-161958088D01*
X221019201Y-161952344D01*
X220999403Y-161946012D01*
X220979966Y-161939093D01*
X220960889Y-161931586D01*
X220942173Y-161923493D01*
X220923818Y-161914812D01*
X220905823Y-161905543D01*
X220888416Y-161895984D01*
X220872100Y-161885938D01*
X220856875Y-161875404D01*
X220842739Y-161864382D01*
X220829695Y-161852873D01*
X220817741Y-161840875D01*
X220806877Y-161828390D01*
X220797104Y-161815418D01*
X220788422Y-161801957D01*
X220780830Y-161788009D01*
X220774328Y-161773573D01*
X220768917Y-161758649D01*
X220764597Y-161743238D01*
X220761367Y-161727339D01*
X220759227Y-161710952D01*
X220758178Y-161694078D01*
X220758178Y-161068914D01*
X220984591Y-161068914D01*
X220984591Y-161678910D01*
X220984958Y-161690152D01*
X220986057Y-161700906D01*
X220987888Y-161711172D01*
X220990453Y-161720950D01*
X220993750Y-161730241D01*
X220997780Y-161739044D01*
X221003848Y-161749362D01*
X221008038Y-161755187D01*
X221015557Y-161764779D01*
X221023917Y-161773769D01*
X221033117Y-161782158D01*
X221043158Y-161789946D01*
X221054040Y-161797133D01*
X221065762Y-161803719D01*
X221070687Y-161806185D01*
X221086145Y-161813166D01*
X221101745Y-161819436D01*
X221117486Y-161824995D01*
X221133369Y-161829843D01*
X221149394Y-161833980D01*
X221165561Y-161837406D01*
X221181869Y-161840121D01*
X221198319Y-161842125D01*
X221214910Y-161843419D01*
X221231644Y-161844001D01*
X221242878Y-161843994D01*
X221259548Y-161843695D01*
X221275668Y-161842799D01*
X221291238Y-161841305D01*
X221306259Y-161839213D01*
X221320730Y-161836524D01*
X221334652Y-161833237D01*
X221348025Y-161829352D01*
X221360847Y-161824870D01*
X221376085Y-161819566D01*
X221390428Y-161813823D01*
X221403877Y-161807639D01*
X221416432Y-161801016D01*
X221428092Y-161793952D01*
X221438857Y-161786449D01*
X221442913Y-161783324D01*
G37*
G36*
X220459958Y-161969291D02*
G01*
X219505212Y-161969291D01*
X219505212Y-161843994D01*
X220233178Y-161843994D01*
X220233178Y-161068914D01*
X220459958Y-161068914D01*
X220459958Y-161969291D01*
G37*
G36*
X218524089Y-161722434D02*
G01*
X218536279Y-161737154D01*
X218549219Y-161750925D01*
X218562909Y-161763746D01*
X218577349Y-161775617D01*
X218592539Y-161786538D01*
X218608478Y-161796510D01*
X218625168Y-161805532D01*
X218642608Y-161813604D01*
X218660797Y-161820727D01*
X218679736Y-161826900D01*
X218699426Y-161832123D01*
X218719865Y-161836396D01*
X218741054Y-161839720D01*
X218762993Y-161842095D01*
X218785681Y-161843519D01*
X218809120Y-161843994D01*
X218823899Y-161843816D01*
X218842993Y-161843026D01*
X218861388Y-161841604D01*
X218879085Y-161839550D01*
X218896084Y-161836864D01*
X218912384Y-161833547D01*
X218927986Y-161829597D01*
X218942890Y-161825015D01*
X218946507Y-161823771D01*
X218960806Y-161819323D01*
X218974396Y-161814552D01*
X218987276Y-161809458D01*
X218999446Y-161804042D01*
X219010907Y-161798303D01*
X219021657Y-161792240D01*
X219034097Y-161784209D01*
X219041029Y-161779147D01*
X219051556Y-161771722D01*
X219061156Y-161763733D01*
X219069828Y-161755180D01*
X219077574Y-161746065D01*
X219084391Y-161736386D01*
X219090282Y-161726144D01*
X219095245Y-161715338D01*
X219099281Y-161703969D01*
X219102227Y-161694525D01*
X219104883Y-161683586D01*
X219107250Y-161671151D01*
X219108667Y-161662030D01*
X219109955Y-161652245D01*
X219111114Y-161641795D01*
X219112145Y-161630680D01*
X219113046Y-161618901D01*
X219113819Y-161606457D01*
X219114463Y-161593349D01*
X219114978Y-161579576D01*
X219115365Y-161565138D01*
X219115622Y-161550036D01*
X219115751Y-161534269D01*
X219115767Y-161526136D01*
X219115703Y-161510032D01*
X219115509Y-161494582D01*
X219115187Y-161479786D01*
X219114737Y-161465645D01*
X219114157Y-161452158D01*
X219113449Y-161439325D01*
X219112611Y-161427147D01*
X219111645Y-161415622D01*
X219110551Y-161404753D01*
X219109327Y-161394537D01*
X219107975Y-161384976D01*
X219106493Y-161376069D01*
X219104030Y-161363935D01*
X219101277Y-161353274D01*
X219099281Y-161346984D01*
X219095245Y-161335925D01*
X219090282Y-161325387D01*
X219084391Y-161315371D01*
X219077574Y-161305878D01*
X219069828Y-161296907D01*
X219061156Y-161288457D01*
X219051556Y-161280530D01*
X219041029Y-161273125D01*
X219029254Y-161264758D01*
X219019036Y-161258382D01*
X219008108Y-161252287D01*
X218996470Y-161246474D01*
X218984123Y-161240943D01*
X218971065Y-161235693D01*
X218957298Y-161230724D01*
X218946507Y-161227183D01*
X218931778Y-161223041D01*
X218916350Y-161219407D01*
X218900225Y-161216281D01*
X218883400Y-161213664D01*
X218865878Y-161211555D01*
X218847657Y-161209955D01*
X218828738Y-161208863D01*
X218814090Y-161208377D01*
X218809120Y-161208279D01*
X218789008Y-161208831D01*
X218769476Y-161209994D01*
X218750523Y-161211768D01*
X218732149Y-161214152D01*
X218714356Y-161217147D01*
X218697141Y-161220752D01*
X218680507Y-161224967D01*
X218664452Y-161229793D01*
X218648977Y-161235230D01*
X218634081Y-161241277D01*
X218624473Y-161245648D01*
X218611264Y-161252878D01*
X218598841Y-161260390D01*
X218587204Y-161268185D01*
X218576353Y-161276261D01*
X218566287Y-161284619D01*
X218557007Y-161293260D01*
X218548513Y-161302183D01*
X218540804Y-161311387D01*
X218533881Y-161320874D01*
X218527744Y-161330643D01*
X218524089Y-161337312D01*
X218284120Y-161337312D01*
X218289000Y-161323249D01*
X218294665Y-161309471D01*
X218301113Y-161295978D01*
X218308346Y-161282770D01*
X218316363Y-161269847D01*
X218325164Y-161257209D01*
X218334750Y-161244856D01*
X218345120Y-161232788D01*
X218356274Y-161221006D01*
X218368212Y-161209508D01*
X218380935Y-161198296D01*
X218394442Y-161187368D01*
X218408733Y-161176726D01*
X218423808Y-161166369D01*
X218439668Y-161156297D01*
X218456311Y-161146510D01*
X218473661Y-161137268D01*
X218491637Y-161128612D01*
X218510240Y-161120541D01*
X218529470Y-161113056D01*
X218549326Y-161106157D01*
X218569810Y-161099843D01*
X218590920Y-161094115D01*
X218612657Y-161088972D01*
X218635021Y-161084415D01*
X218658012Y-161080444D01*
X218681630Y-161077058D01*
X218705874Y-161074258D01*
X218730745Y-161072044D01*
X218756243Y-161070415D01*
X218782368Y-161069371D01*
X218809120Y-161068914D01*
X218830920Y-161069266D01*
X218852265Y-161069992D01*
X218873155Y-161071093D01*
X218893590Y-161072568D01*
X218913570Y-161074418D01*
X218933094Y-161076642D01*
X218952164Y-161079240D01*
X218970778Y-161082213D01*
X218988938Y-161085560D01*
X219006642Y-161089281D01*
X219023891Y-161093377D01*
X219040685Y-161097847D01*
X219057024Y-161102692D01*
X219072908Y-161107911D01*
X219088337Y-161113504D01*
X219103311Y-161119472D01*
X219118074Y-161125624D01*
X219132322Y-161131881D01*
X219146055Y-161138243D01*
X219159273Y-161144710D01*
X219171975Y-161151281D01*
X219184163Y-161157957D01*
X219195835Y-161164738D01*
X219206992Y-161171624D01*
X219217633Y-161178614D01*
X219227760Y-161185709D01*
X219237371Y-161192909D01*
X219246467Y-161200214D01*
X219255048Y-161207623D01*
X219263114Y-161215138D01*
X219270665Y-161222757D01*
X219277700Y-161230480D01*
X219285857Y-161238988D01*
X219293477Y-161248134D01*
X219300558Y-161257920D01*
X219307101Y-161268344D01*
X219313106Y-161279407D01*
X219317256Y-161288124D01*
X219321104Y-161297200D01*
X219324649Y-161306635D01*
X219327892Y-161316429D01*
X219330642Y-161327274D01*
X219333121Y-161339943D01*
X219334624Y-161349402D01*
X219336006Y-161359672D01*
X219337269Y-161370752D01*
X219338411Y-161382643D01*
X219339432Y-161395344D01*
X219340334Y-161408856D01*
X219341115Y-161423179D01*
X219341777Y-161438312D01*
X219342318Y-161454256D01*
X219342738Y-161471010D01*
X219343039Y-161488575D01*
X219343144Y-161497661D01*
X219343219Y-161506950D01*
X219343264Y-161516442D01*
X219343279Y-161526136D01*
X219343264Y-161535683D01*
X219343219Y-161545035D01*
X219343144Y-161554191D01*
X219343039Y-161563152D01*
X219342738Y-161580487D01*
X219342318Y-161597042D01*
X219341777Y-161612814D01*
X219341115Y-161627806D01*
X219340334Y-161642016D01*
X219339432Y-161655445D01*
X219338411Y-161668092D01*
X219337269Y-161679958D01*
X219336006Y-161691042D01*
X219334624Y-161701345D01*
X219333121Y-161710867D01*
X219331498Y-161719608D01*
X219328839Y-161731253D01*
X219327892Y-161734744D01*
X219325266Y-161743570D01*
X219321831Y-161753524D01*
X219318087Y-161762782D01*
X219314034Y-161771345D01*
X219308915Y-161780455D01*
X219307376Y-161782884D01*
X219301448Y-161791057D01*
X219295204Y-161799420D01*
X219288645Y-161807971D01*
X219281770Y-161816712D01*
X219277700Y-161821792D01*
X219270665Y-161829511D01*
X219263114Y-161837114D01*
X219255048Y-161844603D01*
X219246467Y-161851976D01*
X219237371Y-161859234D01*
X219227760Y-161866378D01*
X219217633Y-161873406D01*
X219206992Y-161880319D01*
X219195835Y-161887117D01*
X219184163Y-161893800D01*
X219171975Y-161900368D01*
X219159273Y-161906821D01*
X219146055Y-161913159D01*
X219132322Y-161919381D01*
X219118074Y-161925489D01*
X219103311Y-161931482D01*
X219088337Y-161937480D01*
X219072908Y-161943111D01*
X219057024Y-161948375D01*
X219040685Y-161953271D01*
X219023891Y-161957800D01*
X219006642Y-161961961D01*
X218988938Y-161965755D01*
X218970778Y-161969181D01*
X218952164Y-161972239D01*
X218933094Y-161974930D01*
X218913570Y-161977254D01*
X218893590Y-161979210D01*
X218873155Y-161980798D01*
X218852265Y-161982019D01*
X218830920Y-161982873D01*
X218809120Y-161983359D01*
X218784962Y-161983097D01*
X218761212Y-161982311D01*
X218737872Y-161981002D01*
X218714942Y-161979169D01*
X218692420Y-161976812D01*
X218670308Y-161973931D01*
X218648605Y-161970526D01*
X218627312Y-161966598D01*
X218606428Y-161962146D01*
X218585953Y-161957170D01*
X218565887Y-161951670D01*
X218546231Y-161945646D01*
X218526984Y-161939099D01*
X218508146Y-161932028D01*
X218489718Y-161924433D01*
X218471699Y-161916314D01*
X218454737Y-161907623D01*
X218438474Y-161898475D01*
X218422909Y-161888870D01*
X218408043Y-161878808D01*
X218393875Y-161868289D01*
X218380405Y-161857314D01*
X218367634Y-161845881D01*
X218355561Y-161833992D01*
X218344187Y-161821646D01*
X218333511Y-161808844D01*
X218323533Y-161795584D01*
X218314254Y-161781868D01*
X218305673Y-161767695D01*
X218297790Y-161753065D01*
X218290606Y-161737978D01*
X218284120Y-161722434D01*
X218524089Y-161722434D01*
G37*
G36*
X218097274Y-161783324D02*
G01*
X218279724Y-161863558D01*
X218263223Y-161877627D01*
X218245686Y-161890819D01*
X218227113Y-161903133D01*
X218207504Y-161914569D01*
X218186859Y-161925128D01*
X218165178Y-161934810D01*
X218142460Y-161943614D01*
X218118707Y-161951540D01*
X218093917Y-161958589D01*
X218068091Y-161964760D01*
X218041229Y-161970054D01*
X218013331Y-161974470D01*
X217998994Y-161976349D01*
X217984397Y-161978009D01*
X217969541Y-161979449D01*
X217954427Y-161980670D01*
X217939053Y-161981671D01*
X217923420Y-161982453D01*
X217907528Y-161983016D01*
X217891378Y-161983359D01*
X217867973Y-161982900D01*
X217844930Y-161981855D01*
X217822246Y-161980221D01*
X217799924Y-161978001D01*
X217777962Y-161975193D01*
X217756361Y-161971798D01*
X217735120Y-161967815D01*
X217714241Y-161963245D01*
X217693721Y-161958088D01*
X217673563Y-161952344D01*
X217653765Y-161946012D01*
X217634327Y-161939093D01*
X217615251Y-161931586D01*
X217596535Y-161923493D01*
X217578179Y-161914812D01*
X217560184Y-161905543D01*
X217542778Y-161895984D01*
X217526462Y-161885938D01*
X217511236Y-161875404D01*
X217497101Y-161864382D01*
X217484056Y-161852873D01*
X217472102Y-161840875D01*
X217461239Y-161828390D01*
X217451466Y-161815418D01*
X217442783Y-161801957D01*
X217435191Y-161788009D01*
X217428690Y-161773573D01*
X217423279Y-161758649D01*
X217418958Y-161743238D01*
X217415728Y-161727339D01*
X217413589Y-161710952D01*
X217412540Y-161694078D01*
X217412540Y-161068914D01*
X217638953Y-161068914D01*
X217638953Y-161678910D01*
X217639319Y-161690152D01*
X217640418Y-161700906D01*
X217642250Y-161711172D01*
X217644814Y-161720950D01*
X217648112Y-161730241D01*
X217652142Y-161739044D01*
X217658210Y-161749362D01*
X217662400Y-161755187D01*
X217669919Y-161764779D01*
X217678278Y-161773769D01*
X217687478Y-161782158D01*
X217697519Y-161789946D01*
X217708401Y-161797133D01*
X217720124Y-161803719D01*
X217725048Y-161806185D01*
X217740506Y-161813166D01*
X217756106Y-161819436D01*
X217771848Y-161824995D01*
X217787731Y-161829843D01*
X217803756Y-161833980D01*
X217819922Y-161837406D01*
X217836231Y-161840121D01*
X217852680Y-161842125D01*
X217869272Y-161843419D01*
X217886005Y-161844001D01*
X217897239Y-161843994D01*
X217913909Y-161843695D01*
X217930029Y-161842799D01*
X217945600Y-161841305D01*
X217960620Y-161839213D01*
X217975092Y-161836524D01*
X217989014Y-161833237D01*
X218002386Y-161829352D01*
X218015209Y-161824870D01*
X218030446Y-161819566D01*
X218044790Y-161813823D01*
X218058239Y-161807639D01*
X218070793Y-161801016D01*
X218082453Y-161793952D01*
X218093219Y-161786449D01*
X218097274Y-161783324D01*
G37*
G36*
X217114319Y-161969291D02*
G01*
X216159574Y-161969291D01*
X216159574Y-161843994D01*
X216887540Y-161843994D01*
X216887540Y-161068914D01*
X217114319Y-161068914D01*
X217114319Y-161969291D01*
G37*
G36*
X215178450Y-161722434D02*
G01*
X215190640Y-161737154D01*
X215203580Y-161750925D01*
X215217271Y-161763746D01*
X215231710Y-161775617D01*
X215246900Y-161786538D01*
X215262840Y-161796510D01*
X215279530Y-161805532D01*
X215296969Y-161813604D01*
X215315158Y-161820727D01*
X215334098Y-161826900D01*
X215353787Y-161832123D01*
X215374226Y-161836396D01*
X215395415Y-161839720D01*
X215417354Y-161842095D01*
X215440043Y-161843519D01*
X215463482Y-161843994D01*
X215478260Y-161843816D01*
X215497354Y-161843026D01*
X215515750Y-161841604D01*
X215533447Y-161839550D01*
X215550446Y-161836864D01*
X215566746Y-161833547D01*
X215582348Y-161829597D01*
X215597251Y-161825015D01*
X215600868Y-161823771D01*
X215615168Y-161819323D01*
X215628758Y-161814552D01*
X215641638Y-161809458D01*
X215653808Y-161804042D01*
X215665268Y-161798303D01*
X215676019Y-161792240D01*
X215688459Y-161784209D01*
X215695390Y-161779147D01*
X215705917Y-161771722D01*
X215715517Y-161763733D01*
X215724190Y-161755180D01*
X215731935Y-161746065D01*
X215738753Y-161736386D01*
X215744643Y-161726144D01*
X215749606Y-161715338D01*
X215753642Y-161703969D01*
X215756588Y-161694525D01*
X215759245Y-161683586D01*
X215761612Y-161671151D01*
X215763028Y-161662030D01*
X215764316Y-161652245D01*
X215765476Y-161641795D01*
X215766506Y-161630680D01*
X215767408Y-161618901D01*
X215768180Y-161606457D01*
X215768824Y-161593349D01*
X215769340Y-161579576D01*
X215769726Y-161565138D01*
X215769984Y-161550036D01*
X215770112Y-161534269D01*
X215770128Y-161526136D01*
X215770064Y-161510032D01*
X215769871Y-161494582D01*
X215769549Y-161479786D01*
X215769098Y-161465645D01*
X215768518Y-161452158D01*
X215767810Y-161439325D01*
X215766973Y-161427147D01*
X215766007Y-161415622D01*
X215764912Y-161404753D01*
X215763689Y-161394537D01*
X215762336Y-161384976D01*
X215760855Y-161376069D01*
X215758392Y-161363935D01*
X215755639Y-161353274D01*
X215753642Y-161346984D01*
X215749606Y-161335925D01*
X215744643Y-161325387D01*
X215738753Y-161315371D01*
X215731935Y-161305878D01*
X215724190Y-161296907D01*
X215715517Y-161288457D01*
X215705917Y-161280530D01*
X215695390Y-161273125D01*
X215683616Y-161264758D01*
X215673398Y-161258382D01*
X215662470Y-161252287D01*
X215650832Y-161246474D01*
X215638484Y-161240943D01*
X215625427Y-161235693D01*
X215611659Y-161230724D01*
X215600868Y-161227183D01*
X215586139Y-161223041D01*
X215570712Y-161219407D01*
X215554586Y-161216281D01*
X215537762Y-161213664D01*
X215520239Y-161211555D01*
X215502019Y-161209955D01*
X215483099Y-161208863D01*
X215468451Y-161208377D01*
X215463482Y-161208279D01*
X215443369Y-161208831D01*
X215423837Y-161209994D01*
X215404884Y-161211768D01*
X215386511Y-161214152D01*
X215368717Y-161217147D01*
X215351503Y-161220752D01*
X215334868Y-161224967D01*
X215318814Y-161229793D01*
X215303338Y-161235230D01*
X215288442Y-161241277D01*
X215278834Y-161245648D01*
X215265626Y-161252878D01*
X215253203Y-161260390D01*
X215241566Y-161268185D01*
X215230714Y-161276261D01*
X215220649Y-161284619D01*
X215211369Y-161293260D01*
X215202874Y-161302183D01*
X215195166Y-161311387D01*
X215188243Y-161320874D01*
X215182105Y-161330643D01*
X215178450Y-161337312D01*
X214938482Y-161337312D01*
X214943362Y-161323249D01*
X214949026Y-161309471D01*
X214955475Y-161295978D01*
X214962707Y-161282770D01*
X214970725Y-161269847D01*
X214979526Y-161257209D01*
X214989111Y-161244856D01*
X214999481Y-161232788D01*
X215010635Y-161221006D01*
X215022574Y-161209508D01*
X215035296Y-161198296D01*
X215048803Y-161187368D01*
X215063094Y-161176726D01*
X215078169Y-161166369D01*
X215094029Y-161156297D01*
X215110673Y-161146510D01*
X215128022Y-161137268D01*
X215145998Y-161128612D01*
X215164601Y-161120541D01*
X215183831Y-161113056D01*
X215203688Y-161106157D01*
X215224171Y-161099843D01*
X215245282Y-161094115D01*
X215267019Y-161088972D01*
X215289383Y-161084415D01*
X215312374Y-161080444D01*
X215335991Y-161077058D01*
X215360236Y-161074258D01*
X215385107Y-161072044D01*
X215410605Y-161070415D01*
X215436730Y-161069371D01*
X215463482Y-161068914D01*
X215485282Y-161069266D01*
X215506627Y-161069992D01*
X215527517Y-161071093D01*
X215547951Y-161072568D01*
X215567931Y-161074418D01*
X215587456Y-161076642D01*
X215606525Y-161079240D01*
X215625140Y-161082213D01*
X215643299Y-161085560D01*
X215661003Y-161089281D01*
X215678253Y-161093377D01*
X215695047Y-161097847D01*
X215711386Y-161102692D01*
X215727270Y-161107911D01*
X215742698Y-161113504D01*
X215757672Y-161119472D01*
X215772435Y-161125624D01*
X215786684Y-161131881D01*
X215800417Y-161138243D01*
X215813634Y-161144710D01*
X215826337Y-161151281D01*
X215838524Y-161157957D01*
X215850196Y-161164738D01*
X215861353Y-161171624D01*
X215871995Y-161178614D01*
X215882121Y-161185709D01*
X215891733Y-161192909D01*
X215900829Y-161200214D01*
X215909410Y-161207623D01*
X215917476Y-161215138D01*
X215925026Y-161222757D01*
X215932062Y-161230480D01*
X215940219Y-161238988D01*
X215947838Y-161248134D01*
X215954919Y-161257920D01*
X215961462Y-161268344D01*
X215967467Y-161279407D01*
X215971618Y-161288124D01*
X215975466Y-161297200D01*
X215979011Y-161306635D01*
X215982253Y-161316429D01*
X215985003Y-161327274D01*
X215987483Y-161339943D01*
X215988985Y-161349402D01*
X215990368Y-161359672D01*
X215991630Y-161370752D01*
X215992772Y-161382643D01*
X215993794Y-161395344D01*
X215994695Y-161408856D01*
X215995477Y-161423179D01*
X215996138Y-161438312D01*
X215996679Y-161454256D01*
X215997100Y-161471010D01*
X215997400Y-161488575D01*
X215997505Y-161497661D01*
X215997581Y-161506950D01*
X215997626Y-161516442D01*
X215997641Y-161526136D01*
X215997626Y-161535683D01*
X215997581Y-161545035D01*
X215997505Y-161554191D01*
X215997400Y-161563152D01*
X215997100Y-161580487D01*
X215996679Y-161597042D01*
X215996138Y-161612814D01*
X215995477Y-161627806D01*
X215994695Y-161642016D01*
X215993794Y-161655445D01*
X215992772Y-161668092D01*
X215991630Y-161679958D01*
X215990368Y-161691042D01*
X215988985Y-161701345D01*
X215987483Y-161710867D01*
X215985860Y-161719608D01*
X215983200Y-161731253D01*
X215982253Y-161734744D01*
X215979627Y-161743570D01*
X215976193Y-161753524D01*
X215972449Y-161762782D01*
X215968396Y-161771345D01*
X215963277Y-161780455D01*
X215961737Y-161782884D01*
X215955809Y-161791057D01*
X215949565Y-161799420D01*
X215943006Y-161807971D01*
X215936132Y-161816712D01*
X215932062Y-161821792D01*
X215925026Y-161829511D01*
X215917476Y-161837114D01*
X215909410Y-161844603D01*
X215900829Y-161851976D01*
X215891733Y-161859234D01*
X215882121Y-161866378D01*
X215871995Y-161873406D01*
X215861353Y-161880319D01*
X215850196Y-161887117D01*
X215838524Y-161893800D01*
X215826337Y-161900368D01*
X215813634Y-161906821D01*
X215800417Y-161913159D01*
X215786684Y-161919381D01*
X215772435Y-161925489D01*
X215757672Y-161931482D01*
X215742698Y-161937480D01*
X215727270Y-161943111D01*
X215711386Y-161948375D01*
X215695047Y-161953271D01*
X215678253Y-161957800D01*
X215661003Y-161961961D01*
X215643299Y-161965755D01*
X215625140Y-161969181D01*
X215606525Y-161972239D01*
X215587456Y-161974930D01*
X215567931Y-161977254D01*
X215547951Y-161979210D01*
X215527517Y-161980798D01*
X215506627Y-161982019D01*
X215485282Y-161982873D01*
X215463482Y-161983359D01*
X215439323Y-161983097D01*
X215415574Y-161982311D01*
X215392234Y-161981002D01*
X215369303Y-161979169D01*
X215346782Y-161976812D01*
X215324670Y-161973931D01*
X215302967Y-161970526D01*
X215281673Y-161966598D01*
X215260789Y-161962146D01*
X215240314Y-161957170D01*
X215220249Y-161951670D01*
X215200592Y-161945646D01*
X215181345Y-161939099D01*
X215162508Y-161932028D01*
X215144079Y-161924433D01*
X215126060Y-161916314D01*
X215109099Y-161907623D01*
X215092835Y-161898475D01*
X215077271Y-161888870D01*
X215062404Y-161878808D01*
X215048236Y-161868289D01*
X215034767Y-161857314D01*
X215021995Y-161845881D01*
X215009923Y-161833992D01*
X214998548Y-161821646D01*
X214987872Y-161808844D01*
X214977894Y-161795584D01*
X214968615Y-161781868D01*
X214960034Y-161767695D01*
X214952152Y-161753065D01*
X214944967Y-161737978D01*
X214938482Y-161722434D01*
X215178450Y-161722434D01*
G37*
D12*
%TO.C,Trigger1*%
X395537Y-107858086D02*
X-175890Y-107858086D01*
X109823Y-108858086D02*
X109823Y-107858086D01*
X-509224Y-108858086D02*
X-509224Y-108191419D01*
X-509224Y-108381895D02*
X-556843Y-108286657D01*
X-556843Y-108286657D02*
X-604462Y-108239038D01*
X-604462Y-108239038D02*
X-699700Y-108191419D01*
X-699700Y-108191419D02*
X-794938Y-108191419D01*
X-1128272Y-108858086D02*
X-1128272Y-108191419D01*
X-1128272Y-107858086D02*
X-1080653Y-107905705D01*
X-1080653Y-107905705D02*
X-1128272Y-107953324D01*
X-1128272Y-107953324D02*
X-1175891Y-107905705D01*
X-1175891Y-107905705D02*
X-1128272Y-107858086D01*
X-1128272Y-107858086D02*
X-1128272Y-107953324D01*
X-2033033Y-108191419D02*
X-2033033Y-109000943D01*
X-2033033Y-109000943D02*
X-1985414Y-109096181D01*
X-1985414Y-109096181D02*
X-1937795Y-109143800D01*
X-1937795Y-109143800D02*
X-1842557Y-109191419D01*
X-1842557Y-109191419D02*
X-1699700Y-109191419D01*
X-1699700Y-109191419D02*
X-1604462Y-109143800D01*
X-2033033Y-108810467D02*
X-1937795Y-108858086D01*
X-1937795Y-108858086D02*
X-1747319Y-108858086D01*
X-1747319Y-108858086D02*
X-1652081Y-108810467D01*
X-1652081Y-108810467D02*
X-1604462Y-108762847D01*
X-1604462Y-108762847D02*
X-1556843Y-108667609D01*
X-1556843Y-108667609D02*
X-1556843Y-108381895D01*
X-1556843Y-108381895D02*
X-1604462Y-108286657D01*
X-1604462Y-108286657D02*
X-1652081Y-108239038D01*
X-1652081Y-108239038D02*
X-1747319Y-108191419D01*
X-1747319Y-108191419D02*
X-1937795Y-108191419D01*
X-1937795Y-108191419D02*
X-2033033Y-108239038D01*
X-2937795Y-108191419D02*
X-2937795Y-109000943D01*
X-2937795Y-109000943D02*
X-2890176Y-109096181D01*
X-2890176Y-109096181D02*
X-2842557Y-109143800D01*
X-2842557Y-109143800D02*
X-2747319Y-109191419D01*
X-2747319Y-109191419D02*
X-2604462Y-109191419D01*
X-2604462Y-109191419D02*
X-2509224Y-109143800D01*
X-2937795Y-108810467D02*
X-2842557Y-108858086D01*
X-2842557Y-108858086D02*
X-2652081Y-108858086D01*
X-2652081Y-108858086D02*
X-2556843Y-108810467D01*
X-2556843Y-108810467D02*
X-2509224Y-108762847D01*
X-2509224Y-108762847D02*
X-2461605Y-108667609D01*
X-2461605Y-108667609D02*
X-2461605Y-108381895D01*
X-2461605Y-108381895D02*
X-2509224Y-108286657D01*
X-2509224Y-108286657D02*
X-2556843Y-108239038D01*
X-2556843Y-108239038D02*
X-2652081Y-108191419D01*
X-2652081Y-108191419D02*
X-2842557Y-108191419D01*
X-2842557Y-108191419D02*
X-2937795Y-108239038D01*
X-3794938Y-108810467D02*
X-3699700Y-108858086D01*
X-3699700Y-108858086D02*
X-3509224Y-108858086D01*
X-3509224Y-108858086D02*
X-3413986Y-108810467D01*
X-3413986Y-108810467D02*
X-3366367Y-108715228D01*
X-3366367Y-108715228D02*
X-3366367Y-108334276D01*
X-3366367Y-108334276D02*
X-3413986Y-108239038D01*
X-3413986Y-108239038D02*
X-3509224Y-108191419D01*
X-3509224Y-108191419D02*
X-3699700Y-108191419D01*
X-3699700Y-108191419D02*
X-3794938Y-108239038D01*
X-3794938Y-108239038D02*
X-3842557Y-108334276D01*
X-3842557Y-108334276D02*
X-3842557Y-108429514D01*
X-3842557Y-108429514D02*
X-3366367Y-108524752D01*
X-4271129Y-108858086D02*
X-4271129Y-108191419D01*
X-4271129Y-108381895D02*
X-4318748Y-108286657D01*
X-4318748Y-108286657D02*
X-4366367Y-108239038D01*
X-4366367Y-108239038D02*
X-4461605Y-108191419D01*
X-4461605Y-108191419D02*
X-4556843Y-108191419D01*
X-5413986Y-108858086D02*
X-4842558Y-108858086D01*
X-5128272Y-108858086D02*
X-5128272Y-107858086D01*
X-5128272Y-107858086D02*
X-5033034Y-108000943D01*
X-5033034Y-108000943D02*
X-4937796Y-108096181D01*
X-4937796Y-108096181D02*
X-4842558Y-108143800D01*
%TO.C,R9*%
X173393619Y-3438633D02*
X172917428Y-3105300D01*
X173393619Y-2867205D02*
X172393619Y-2867205D01*
X172393619Y-2867205D02*
X172393619Y-3248157D01*
X172393619Y-3248157D02*
X172441238Y-3343395D01*
X172441238Y-3343395D02*
X172488857Y-3391014D01*
X172488857Y-3391014D02*
X172584095Y-3438633D01*
X172584095Y-3438633D02*
X172726952Y-3438633D01*
X172726952Y-3438633D02*
X172822190Y-3391014D01*
X172822190Y-3391014D02*
X172869809Y-3343395D01*
X172869809Y-3343395D02*
X172917428Y-3248157D01*
X172917428Y-3248157D02*
X172917428Y-2867205D01*
X173393619Y-3914824D02*
X173393619Y-4105300D01*
X173393619Y-4105300D02*
X173346000Y-4200538D01*
X173346000Y-4200538D02*
X173298380Y-4248157D01*
X173298380Y-4248157D02*
X173155523Y-4343395D01*
X173155523Y-4343395D02*
X172965047Y-4391014D01*
X172965047Y-4391014D02*
X172584095Y-4391014D01*
X172584095Y-4391014D02*
X172488857Y-4343395D01*
X172488857Y-4343395D02*
X172441238Y-4295776D01*
X172441238Y-4295776D02*
X172393619Y-4200538D01*
X172393619Y-4200538D02*
X172393619Y-4010062D01*
X172393619Y-4010062D02*
X172441238Y-3914824D01*
X172441238Y-3914824D02*
X172488857Y-3867205D01*
X172488857Y-3867205D02*
X172584095Y-3819586D01*
X172584095Y-3819586D02*
X172822190Y-3819586D01*
X172822190Y-3819586D02*
X172917428Y-3867205D01*
X172917428Y-3867205D02*
X172965047Y-3914824D01*
X172965047Y-3914824D02*
X173012666Y-4010062D01*
X173012666Y-4010062D02*
X173012666Y-4200538D01*
X173012666Y-4200538D02*
X172965047Y-4295776D01*
X172965047Y-4295776D02*
X172917428Y-4343395D01*
X172917428Y-4343395D02*
X172822190Y-4391014D01*
%TO.C,R4*%
X123076666Y-157222619D02*
X123409999Y-156746428D01*
X123648094Y-157222619D02*
X123648094Y-156222619D01*
X123648094Y-156222619D02*
X123267142Y-156222619D01*
X123267142Y-156222619D02*
X123171904Y-156270238D01*
X123171904Y-156270238D02*
X123124285Y-156317857D01*
X123124285Y-156317857D02*
X123076666Y-156413095D01*
X123076666Y-156413095D02*
X123076666Y-156555952D01*
X123076666Y-156555952D02*
X123124285Y-156651190D01*
X123124285Y-156651190D02*
X123171904Y-156698809D01*
X123171904Y-156698809D02*
X123267142Y-156746428D01*
X123267142Y-156746428D02*
X123648094Y-156746428D01*
X122219523Y-156555952D02*
X122219523Y-157222619D01*
X122457618Y-156175000D02*
X122695713Y-156889285D01*
X122695713Y-156889285D02*
X122076666Y-156889285D01*
%TO.C,R1*%
X208022619Y-3363333D02*
X207546428Y-3030000D01*
X208022619Y-2791905D02*
X207022619Y-2791905D01*
X207022619Y-2791905D02*
X207022619Y-3172857D01*
X207022619Y-3172857D02*
X207070238Y-3268095D01*
X207070238Y-3268095D02*
X207117857Y-3315714D01*
X207117857Y-3315714D02*
X207213095Y-3363333D01*
X207213095Y-3363333D02*
X207355952Y-3363333D01*
X207355952Y-3363333D02*
X207451190Y-3315714D01*
X207451190Y-3315714D02*
X207498809Y-3268095D01*
X207498809Y-3268095D02*
X207546428Y-3172857D01*
X207546428Y-3172857D02*
X207546428Y-2791905D01*
X208022619Y-4315714D02*
X208022619Y-3744286D01*
X208022619Y-4030000D02*
X207022619Y-4030000D01*
X207022619Y-4030000D02*
X207165476Y-3934762D01*
X207165476Y-3934762D02*
X207260714Y-3839524D01*
X207260714Y-3839524D02*
X207308333Y-3744286D01*
%TO.C,R8*%
X124202619Y-3783333D02*
X123726428Y-3450000D01*
X124202619Y-3211905D02*
X123202619Y-3211905D01*
X123202619Y-3211905D02*
X123202619Y-3592857D01*
X123202619Y-3592857D02*
X123250238Y-3688095D01*
X123250238Y-3688095D02*
X123297857Y-3735714D01*
X123297857Y-3735714D02*
X123393095Y-3783333D01*
X123393095Y-3783333D02*
X123535952Y-3783333D01*
X123535952Y-3783333D02*
X123631190Y-3735714D01*
X123631190Y-3735714D02*
X123678809Y-3688095D01*
X123678809Y-3688095D02*
X123726428Y-3592857D01*
X123726428Y-3592857D02*
X123726428Y-3211905D01*
X123631190Y-4354762D02*
X123583571Y-4259524D01*
X123583571Y-4259524D02*
X123535952Y-4211905D01*
X123535952Y-4211905D02*
X123440714Y-4164286D01*
X123440714Y-4164286D02*
X123393095Y-4164286D01*
X123393095Y-4164286D02*
X123297857Y-4211905D01*
X123297857Y-4211905D02*
X123250238Y-4259524D01*
X123250238Y-4259524D02*
X123202619Y-4354762D01*
X123202619Y-4354762D02*
X123202619Y-4545238D01*
X123202619Y-4545238D02*
X123250238Y-4640476D01*
X123250238Y-4640476D02*
X123297857Y-4688095D01*
X123297857Y-4688095D02*
X123393095Y-4735714D01*
X123393095Y-4735714D02*
X123440714Y-4735714D01*
X123440714Y-4735714D02*
X123535952Y-4688095D01*
X123535952Y-4688095D02*
X123583571Y-4640476D01*
X123583571Y-4640476D02*
X123631190Y-4545238D01*
X123631190Y-4545238D02*
X123631190Y-4354762D01*
X123631190Y-4354762D02*
X123678809Y-4259524D01*
X123678809Y-4259524D02*
X123726428Y-4211905D01*
X123726428Y-4211905D02*
X123821666Y-4164286D01*
X123821666Y-4164286D02*
X124012142Y-4164286D01*
X124012142Y-4164286D02*
X124107380Y-4211905D01*
X124107380Y-4211905D02*
X124155000Y-4259524D01*
X124155000Y-4259524D02*
X124202619Y-4354762D01*
X124202619Y-4354762D02*
X124202619Y-4545238D01*
X124202619Y-4545238D02*
X124155000Y-4640476D01*
X124155000Y-4640476D02*
X124107380Y-4688095D01*
X124107380Y-4688095D02*
X124012142Y-4735714D01*
X124012142Y-4735714D02*
X123821666Y-4735714D01*
X123821666Y-4735714D02*
X123726428Y-4688095D01*
X123726428Y-4688095D02*
X123678809Y-4640476D01*
X123678809Y-4640476D02*
X123631190Y-4545238D01*
%TO.C,R3*%
X100776666Y-157222619D02*
X101109999Y-156746428D01*
X101348094Y-157222619D02*
X101348094Y-156222619D01*
X101348094Y-156222619D02*
X100967142Y-156222619D01*
X100967142Y-156222619D02*
X100871904Y-156270238D01*
X100871904Y-156270238D02*
X100824285Y-156317857D01*
X100824285Y-156317857D02*
X100776666Y-156413095D01*
X100776666Y-156413095D02*
X100776666Y-156555952D01*
X100776666Y-156555952D02*
X100824285Y-156651190D01*
X100824285Y-156651190D02*
X100871904Y-156698809D01*
X100871904Y-156698809D02*
X100967142Y-156746428D01*
X100967142Y-156746428D02*
X101348094Y-156746428D01*
X100443332Y-156222619D02*
X99824285Y-156222619D01*
X99824285Y-156222619D02*
X100157618Y-156603571D01*
X100157618Y-156603571D02*
X100014761Y-156603571D01*
X100014761Y-156603571D02*
X99919523Y-156651190D01*
X99919523Y-156651190D02*
X99871904Y-156698809D01*
X99871904Y-156698809D02*
X99824285Y-156794047D01*
X99824285Y-156794047D02*
X99824285Y-157032142D01*
X99824285Y-157032142D02*
X99871904Y-157127380D01*
X99871904Y-157127380D02*
X99919523Y-157175000D01*
X99919523Y-157175000D02*
X100014761Y-157222619D01*
X100014761Y-157222619D02*
X100300475Y-157222619D01*
X100300475Y-157222619D02*
X100395713Y-157175000D01*
X100395713Y-157175000D02*
X100443332Y-157127380D01*
%TO.C,R2*%
X78906666Y-157222619D02*
X79239999Y-156746428D01*
X79478094Y-157222619D02*
X79478094Y-156222619D01*
X79478094Y-156222619D02*
X79097142Y-156222619D01*
X79097142Y-156222619D02*
X79001904Y-156270238D01*
X79001904Y-156270238D02*
X78954285Y-156317857D01*
X78954285Y-156317857D02*
X78906666Y-156413095D01*
X78906666Y-156413095D02*
X78906666Y-156555952D01*
X78906666Y-156555952D02*
X78954285Y-156651190D01*
X78954285Y-156651190D02*
X79001904Y-156698809D01*
X79001904Y-156698809D02*
X79097142Y-156746428D01*
X79097142Y-156746428D02*
X79478094Y-156746428D01*
X78525713Y-156317857D02*
X78478094Y-156270238D01*
X78478094Y-156270238D02*
X78382856Y-156222619D01*
X78382856Y-156222619D02*
X78144761Y-156222619D01*
X78144761Y-156222619D02*
X78049523Y-156270238D01*
X78049523Y-156270238D02*
X78001904Y-156317857D01*
X78001904Y-156317857D02*
X77954285Y-156413095D01*
X77954285Y-156413095D02*
X77954285Y-156508333D01*
X77954285Y-156508333D02*
X78001904Y-156651190D01*
X78001904Y-156651190D02*
X78573332Y-157222619D01*
X78573332Y-157222619D02*
X77954285Y-157222619D01*
%TO.C,R7*%
X73846019Y-4647033D02*
X73369828Y-4313700D01*
X73846019Y-4075605D02*
X72846019Y-4075605D01*
X72846019Y-4075605D02*
X72846019Y-4456557D01*
X72846019Y-4456557D02*
X72893638Y-4551795D01*
X72893638Y-4551795D02*
X72941257Y-4599414D01*
X72941257Y-4599414D02*
X73036495Y-4647033D01*
X73036495Y-4647033D02*
X73179352Y-4647033D01*
X73179352Y-4647033D02*
X73274590Y-4599414D01*
X73274590Y-4599414D02*
X73322209Y-4551795D01*
X73322209Y-4551795D02*
X73369828Y-4456557D01*
X73369828Y-4456557D02*
X73369828Y-4075605D01*
X72846019Y-4980367D02*
X72846019Y-5647033D01*
X72846019Y-5647033D02*
X73846019Y-5218462D01*
%TO.C,R6*%
X45886666Y-92172619D02*
X46219999Y-91696428D01*
X46458094Y-92172619D02*
X46458094Y-91172619D01*
X46458094Y-91172619D02*
X46077142Y-91172619D01*
X46077142Y-91172619D02*
X45981904Y-91220238D01*
X45981904Y-91220238D02*
X45934285Y-91267857D01*
X45934285Y-91267857D02*
X45886666Y-91363095D01*
X45886666Y-91363095D02*
X45886666Y-91505952D01*
X45886666Y-91505952D02*
X45934285Y-91601190D01*
X45934285Y-91601190D02*
X45981904Y-91648809D01*
X45981904Y-91648809D02*
X46077142Y-91696428D01*
X46077142Y-91696428D02*
X46458094Y-91696428D01*
X45029523Y-91172619D02*
X45219999Y-91172619D01*
X45219999Y-91172619D02*
X45315237Y-91220238D01*
X45315237Y-91220238D02*
X45362856Y-91267857D01*
X45362856Y-91267857D02*
X45458094Y-91410714D01*
X45458094Y-91410714D02*
X45505713Y-91601190D01*
X45505713Y-91601190D02*
X45505713Y-91982142D01*
X45505713Y-91982142D02*
X45458094Y-92077380D01*
X45458094Y-92077380D02*
X45410475Y-92125000D01*
X45410475Y-92125000D02*
X45315237Y-92172619D01*
X45315237Y-92172619D02*
X45124761Y-92172619D01*
X45124761Y-92172619D02*
X45029523Y-92125000D01*
X45029523Y-92125000D02*
X44981904Y-92077380D01*
X44981904Y-92077380D02*
X44934285Y-91982142D01*
X44934285Y-91982142D02*
X44934285Y-91744047D01*
X44934285Y-91744047D02*
X44981904Y-91648809D01*
X44981904Y-91648809D02*
X45029523Y-91601190D01*
X45029523Y-91601190D02*
X45124761Y-91553571D01*
X45124761Y-91553571D02*
X45315237Y-91553571D01*
X45315237Y-91553571D02*
X45410475Y-91601190D01*
X45410475Y-91601190D02*
X45458094Y-91648809D01*
X45458094Y-91648809D02*
X45505713Y-91744047D01*
%TO.C,R11*%
X177432619Y-111117142D02*
X176956428Y-110783809D01*
X177432619Y-110545714D02*
X176432619Y-110545714D01*
X176432619Y-110545714D02*
X176432619Y-110926666D01*
X176432619Y-110926666D02*
X176480238Y-111021904D01*
X176480238Y-111021904D02*
X176527857Y-111069523D01*
X176527857Y-111069523D02*
X176623095Y-111117142D01*
X176623095Y-111117142D02*
X176765952Y-111117142D01*
X176765952Y-111117142D02*
X176861190Y-111069523D01*
X176861190Y-111069523D02*
X176908809Y-111021904D01*
X176908809Y-111021904D02*
X176956428Y-110926666D01*
X176956428Y-110926666D02*
X176956428Y-110545714D01*
X177432619Y-112069523D02*
X177432619Y-111498095D01*
X177432619Y-111783809D02*
X176432619Y-111783809D01*
X176432619Y-111783809D02*
X176575476Y-111688571D01*
X176575476Y-111688571D02*
X176670714Y-111593333D01*
X176670714Y-111593333D02*
X176718333Y-111498095D01*
X177432619Y-113021904D02*
X177432619Y-112450476D01*
X177432619Y-112736190D02*
X176432619Y-112736190D01*
X176432619Y-112736190D02*
X176575476Y-112640952D01*
X176575476Y-112640952D02*
X176670714Y-112545714D01*
X176670714Y-112545714D02*
X176718333Y-112450476D01*
%TO.C,U1*%
X168351104Y-18424219D02*
X168351104Y-19233742D01*
X168351104Y-19233742D02*
X168303485Y-19328980D01*
X168303485Y-19328980D02*
X168255866Y-19376600D01*
X168255866Y-19376600D02*
X168160628Y-19424219D01*
X168160628Y-19424219D02*
X167970152Y-19424219D01*
X167970152Y-19424219D02*
X167874914Y-19376600D01*
X167874914Y-19376600D02*
X167827295Y-19328980D01*
X167827295Y-19328980D02*
X167779676Y-19233742D01*
X167779676Y-19233742D02*
X167779676Y-18424219D01*
X166779676Y-19424219D02*
X167351104Y-19424219D01*
X167065390Y-19424219D02*
X167065390Y-18424219D01*
X167065390Y-18424219D02*
X167160628Y-18567076D01*
X167160628Y-18567076D02*
X167255866Y-18662314D01*
X167255866Y-18662314D02*
X167351104Y-18709933D01*
X170453033Y-27558266D02*
X169753033Y-27558266D01*
X169753033Y-27558266D02*
X169753033Y-27724933D01*
X169753033Y-27724933D02*
X169786366Y-27824933D01*
X169786366Y-27824933D02*
X169853033Y-27891600D01*
X169853033Y-27891600D02*
X169919700Y-27924933D01*
X169919700Y-27924933D02*
X170053033Y-27958266D01*
X170053033Y-27958266D02*
X170153033Y-27958266D01*
X170153033Y-27958266D02*
X170286366Y-27924933D01*
X170286366Y-27924933D02*
X170353033Y-27891600D01*
X170353033Y-27891600D02*
X170419700Y-27824933D01*
X170419700Y-27824933D02*
X170453033Y-27724933D01*
X170453033Y-27724933D02*
X170453033Y-27558266D01*
X169753033Y-28158266D02*
X170453033Y-28391600D01*
X170453033Y-28391600D02*
X169753033Y-28624933D01*
X169753033Y-29058266D02*
X170253033Y-29058266D01*
X170253033Y-29058266D02*
X170353033Y-29024933D01*
X170353033Y-29024933D02*
X170419700Y-28958266D01*
X170419700Y-28958266D02*
X170453033Y-28858266D01*
X170453033Y-28858266D02*
X170453033Y-28791600D01*
X169753033Y-29691599D02*
X169753033Y-29558266D01*
X169753033Y-29558266D02*
X169786366Y-29491599D01*
X169786366Y-29491599D02*
X169819700Y-29458266D01*
X169819700Y-29458266D02*
X169919700Y-29391599D01*
X169919700Y-29391599D02*
X170053033Y-29358266D01*
X170053033Y-29358266D02*
X170319700Y-29358266D01*
X170319700Y-29358266D02*
X170386366Y-29391599D01*
X170386366Y-29391599D02*
X170419700Y-29424933D01*
X170419700Y-29424933D02*
X170453033Y-29491599D01*
X170453033Y-29491599D02*
X170453033Y-29624933D01*
X170453033Y-29624933D02*
X170419700Y-29691599D01*
X170419700Y-29691599D02*
X170386366Y-29724933D01*
X170386366Y-29724933D02*
X170319700Y-29758266D01*
X170319700Y-29758266D02*
X170153033Y-29758266D01*
X170153033Y-29758266D02*
X170086366Y-29724933D01*
X170086366Y-29724933D02*
X170053033Y-29691599D01*
X170053033Y-29691599D02*
X170019700Y-29624933D01*
X170019700Y-29624933D02*
X170019700Y-29491599D01*
X170019700Y-29491599D02*
X170053033Y-29424933D01*
X170053033Y-29424933D02*
X170086366Y-29391599D01*
X170086366Y-29391599D02*
X170153033Y-29358266D01*
X170253033Y-30024933D02*
X170253033Y-30358266D01*
X170453033Y-29958266D02*
X169753033Y-30191600D01*
X169753033Y-30191600D02*
X170453033Y-30424933D01*
X189364523Y-31073419D02*
X189364523Y-31882942D01*
X189364523Y-31882942D02*
X189316904Y-31978180D01*
X189316904Y-31978180D02*
X189269285Y-32025800D01*
X189269285Y-32025800D02*
X189174047Y-32073419D01*
X189174047Y-32073419D02*
X188983571Y-32073419D01*
X188983571Y-32073419D02*
X188888333Y-32025800D01*
X188888333Y-32025800D02*
X188840714Y-31978180D01*
X188840714Y-31978180D02*
X188793095Y-31882942D01*
X188793095Y-31882942D02*
X188793095Y-31073419D01*
X188364523Y-32025800D02*
X188221666Y-32073419D01*
X188221666Y-32073419D02*
X187983571Y-32073419D01*
X187983571Y-32073419D02*
X187888333Y-32025800D01*
X187888333Y-32025800D02*
X187840714Y-31978180D01*
X187840714Y-31978180D02*
X187793095Y-31882942D01*
X187793095Y-31882942D02*
X187793095Y-31787704D01*
X187793095Y-31787704D02*
X187840714Y-31692466D01*
X187840714Y-31692466D02*
X187888333Y-31644847D01*
X187888333Y-31644847D02*
X187983571Y-31597228D01*
X187983571Y-31597228D02*
X188174047Y-31549609D01*
X188174047Y-31549609D02*
X188269285Y-31501990D01*
X188269285Y-31501990D02*
X188316904Y-31454371D01*
X188316904Y-31454371D02*
X188364523Y-31359133D01*
X188364523Y-31359133D02*
X188364523Y-31263895D01*
X188364523Y-31263895D02*
X188316904Y-31168657D01*
X188316904Y-31168657D02*
X188269285Y-31121038D01*
X188269285Y-31121038D02*
X188174047Y-31073419D01*
X188174047Y-31073419D02*
X187935952Y-31073419D01*
X187935952Y-31073419D02*
X187793095Y-31121038D01*
X187031190Y-31549609D02*
X186888333Y-31597228D01*
X186888333Y-31597228D02*
X186840714Y-31644847D01*
X186840714Y-31644847D02*
X186793095Y-31740085D01*
X186793095Y-31740085D02*
X186793095Y-31882942D01*
X186793095Y-31882942D02*
X186840714Y-31978180D01*
X186840714Y-31978180D02*
X186888333Y-32025800D01*
X186888333Y-32025800D02*
X186983571Y-32073419D01*
X186983571Y-32073419D02*
X187364523Y-32073419D01*
X187364523Y-32073419D02*
X187364523Y-31073419D01*
X187364523Y-31073419D02*
X187031190Y-31073419D01*
X187031190Y-31073419D02*
X186935952Y-31121038D01*
X186935952Y-31121038D02*
X186888333Y-31168657D01*
X186888333Y-31168657D02*
X186840714Y-31263895D01*
X186840714Y-31263895D02*
X186840714Y-31359133D01*
X186840714Y-31359133D02*
X186888333Y-31454371D01*
X186888333Y-31454371D02*
X186935952Y-31501990D01*
X186935952Y-31501990D02*
X187031190Y-31549609D01*
X187031190Y-31549609D02*
X187364523Y-31549609D01*
X185602618Y-32073419D02*
X185602618Y-31073419D01*
X185602618Y-31549609D02*
X185031190Y-31549609D01*
X185031190Y-32073419D02*
X185031190Y-31073419D01*
X184412142Y-32073419D02*
X184507380Y-32025800D01*
X184507380Y-32025800D02*
X184554999Y-31978180D01*
X184554999Y-31978180D02*
X184602618Y-31882942D01*
X184602618Y-31882942D02*
X184602618Y-31597228D01*
X184602618Y-31597228D02*
X184554999Y-31501990D01*
X184554999Y-31501990D02*
X184507380Y-31454371D01*
X184507380Y-31454371D02*
X184412142Y-31406752D01*
X184412142Y-31406752D02*
X184269285Y-31406752D01*
X184269285Y-31406752D02*
X184174047Y-31454371D01*
X184174047Y-31454371D02*
X184126428Y-31501990D01*
X184126428Y-31501990D02*
X184078809Y-31597228D01*
X184078809Y-31597228D02*
X184078809Y-31882942D01*
X184078809Y-31882942D02*
X184126428Y-31978180D01*
X184126428Y-31978180D02*
X184174047Y-32025800D01*
X184174047Y-32025800D02*
X184269285Y-32073419D01*
X184269285Y-32073419D02*
X184412142Y-32073419D01*
X183697856Y-32025800D02*
X183602618Y-32073419D01*
X183602618Y-32073419D02*
X183412142Y-32073419D01*
X183412142Y-32073419D02*
X183316904Y-32025800D01*
X183316904Y-32025800D02*
X183269285Y-31930561D01*
X183269285Y-31930561D02*
X183269285Y-31882942D01*
X183269285Y-31882942D02*
X183316904Y-31787704D01*
X183316904Y-31787704D02*
X183412142Y-31740085D01*
X183412142Y-31740085D02*
X183554999Y-31740085D01*
X183554999Y-31740085D02*
X183650237Y-31692466D01*
X183650237Y-31692466D02*
X183697856Y-31597228D01*
X183697856Y-31597228D02*
X183697856Y-31549609D01*
X183697856Y-31549609D02*
X183650237Y-31454371D01*
X183650237Y-31454371D02*
X183554999Y-31406752D01*
X183554999Y-31406752D02*
X183412142Y-31406752D01*
X183412142Y-31406752D02*
X183316904Y-31454371D01*
X182983570Y-31406752D02*
X182602618Y-31406752D01*
X182840713Y-31073419D02*
X182840713Y-31930561D01*
X182840713Y-31930561D02*
X182793094Y-32025800D01*
X182793094Y-32025800D02*
X182697856Y-32073419D01*
X182697856Y-32073419D02*
X182602618Y-32073419D01*
X146578247Y-29584219D02*
X146578247Y-28584219D01*
X146578247Y-28584219D02*
X146244914Y-29298504D01*
X146244914Y-29298504D02*
X145911581Y-28584219D01*
X145911581Y-28584219D02*
X145911581Y-29584219D01*
X145435390Y-29584219D02*
X145435390Y-28917552D01*
X145435390Y-28584219D02*
X145483009Y-28631838D01*
X145483009Y-28631838D02*
X145435390Y-28679457D01*
X145435390Y-28679457D02*
X145387771Y-28631838D01*
X145387771Y-28631838D02*
X145435390Y-28584219D01*
X145435390Y-28584219D02*
X145435390Y-28679457D01*
X144530629Y-29536600D02*
X144625867Y-29584219D01*
X144625867Y-29584219D02*
X144816343Y-29584219D01*
X144816343Y-29584219D02*
X144911581Y-29536600D01*
X144911581Y-29536600D02*
X144959200Y-29488980D01*
X144959200Y-29488980D02*
X145006819Y-29393742D01*
X145006819Y-29393742D02*
X145006819Y-29108028D01*
X145006819Y-29108028D02*
X144959200Y-29012790D01*
X144959200Y-29012790D02*
X144911581Y-28965171D01*
X144911581Y-28965171D02*
X144816343Y-28917552D01*
X144816343Y-28917552D02*
X144625867Y-28917552D01*
X144625867Y-28917552D02*
X144530629Y-28965171D01*
X144102057Y-29584219D02*
X144102057Y-28917552D01*
X144102057Y-29108028D02*
X144054438Y-29012790D01*
X144054438Y-29012790D02*
X144006819Y-28965171D01*
X144006819Y-28965171D02*
X143911581Y-28917552D01*
X143911581Y-28917552D02*
X143816343Y-28917552D01*
X143340152Y-29584219D02*
X143435390Y-29536600D01*
X143435390Y-29536600D02*
X143483009Y-29488980D01*
X143483009Y-29488980D02*
X143530628Y-29393742D01*
X143530628Y-29393742D02*
X143530628Y-29108028D01*
X143530628Y-29108028D02*
X143483009Y-29012790D01*
X143483009Y-29012790D02*
X143435390Y-28965171D01*
X143435390Y-28965171D02*
X143340152Y-28917552D01*
X143340152Y-28917552D02*
X143197295Y-28917552D01*
X143197295Y-28917552D02*
X143102057Y-28965171D01*
X143102057Y-28965171D02*
X143054438Y-29012790D01*
X143054438Y-29012790D02*
X143006819Y-29108028D01*
X143006819Y-29108028D02*
X143006819Y-29393742D01*
X143006819Y-29393742D02*
X143054438Y-29488980D01*
X143054438Y-29488980D02*
X143102057Y-29536600D01*
X143102057Y-29536600D02*
X143197295Y-29584219D01*
X143197295Y-29584219D02*
X143340152Y-29584219D01*
X141863961Y-29536600D02*
X141721104Y-29584219D01*
X141721104Y-29584219D02*
X141483009Y-29584219D01*
X141483009Y-29584219D02*
X141387771Y-29536600D01*
X141387771Y-29536600D02*
X141340152Y-29488980D01*
X141340152Y-29488980D02*
X141292533Y-29393742D01*
X141292533Y-29393742D02*
X141292533Y-29298504D01*
X141292533Y-29298504D02*
X141340152Y-29203266D01*
X141340152Y-29203266D02*
X141387771Y-29155647D01*
X141387771Y-29155647D02*
X141483009Y-29108028D01*
X141483009Y-29108028D02*
X141673485Y-29060409D01*
X141673485Y-29060409D02*
X141768723Y-29012790D01*
X141768723Y-29012790D02*
X141816342Y-28965171D01*
X141816342Y-28965171D02*
X141863961Y-28869933D01*
X141863961Y-28869933D02*
X141863961Y-28774695D01*
X141863961Y-28774695D02*
X141816342Y-28679457D01*
X141816342Y-28679457D02*
X141768723Y-28631838D01*
X141768723Y-28631838D02*
X141673485Y-28584219D01*
X141673485Y-28584219D02*
X141435390Y-28584219D01*
X141435390Y-28584219D02*
X141292533Y-28631838D01*
X140863961Y-29584219D02*
X140863961Y-28584219D01*
X140863961Y-28584219D02*
X140625866Y-28584219D01*
X140625866Y-28584219D02*
X140483009Y-28631838D01*
X140483009Y-28631838D02*
X140387771Y-28727076D01*
X140387771Y-28727076D02*
X140340152Y-28822314D01*
X140340152Y-28822314D02*
X140292533Y-29012790D01*
X140292533Y-29012790D02*
X140292533Y-29155647D01*
X140292533Y-29155647D02*
X140340152Y-29346123D01*
X140340152Y-29346123D02*
X140387771Y-29441361D01*
X140387771Y-29441361D02*
X140483009Y-29536600D01*
X140483009Y-29536600D02*
X140625866Y-29584219D01*
X140625866Y-29584219D02*
X140863961Y-29584219D01*
X179593009Y-22987856D02*
X179593009Y-23321189D01*
X180116819Y-23464046D02*
X180116819Y-22987856D01*
X180116819Y-22987856D02*
X179116819Y-22987856D01*
X179116819Y-22987856D02*
X179116819Y-23464046D01*
X179450152Y-23749761D02*
X179450152Y-24130713D01*
X179116819Y-23892618D02*
X179973961Y-23892618D01*
X179973961Y-23892618D02*
X180069200Y-23940237D01*
X180069200Y-23940237D02*
X180116819Y-24035475D01*
X180116819Y-24035475D02*
X180116819Y-24130713D01*
X180116819Y-24464047D02*
X179116819Y-24464047D01*
X180116819Y-24892618D02*
X179593009Y-24892618D01*
X179593009Y-24892618D02*
X179497771Y-24844999D01*
X179497771Y-24844999D02*
X179450152Y-24749761D01*
X179450152Y-24749761D02*
X179450152Y-24606904D01*
X179450152Y-24606904D02*
X179497771Y-24511666D01*
X179497771Y-24511666D02*
X179545390Y-24464047D01*
X180069200Y-25749761D02*
X180116819Y-25654523D01*
X180116819Y-25654523D02*
X180116819Y-25464047D01*
X180116819Y-25464047D02*
X180069200Y-25368809D01*
X180069200Y-25368809D02*
X179973961Y-25321190D01*
X179973961Y-25321190D02*
X179593009Y-25321190D01*
X179593009Y-25321190D02*
X179497771Y-25368809D01*
X179497771Y-25368809D02*
X179450152Y-25464047D01*
X179450152Y-25464047D02*
X179450152Y-25654523D01*
X179450152Y-25654523D02*
X179497771Y-25749761D01*
X179497771Y-25749761D02*
X179593009Y-25797380D01*
X179593009Y-25797380D02*
X179688247Y-25797380D01*
X179688247Y-25797380D02*
X179783485Y-25321190D01*
X180116819Y-26225952D02*
X179450152Y-26225952D01*
X179640628Y-26225952D02*
X179545390Y-26273571D01*
X179545390Y-26273571D02*
X179497771Y-26321190D01*
X179497771Y-26321190D02*
X179450152Y-26416428D01*
X179450152Y-26416428D02*
X179450152Y-26511666D01*
X179450152Y-26845000D02*
X180116819Y-26845000D01*
X179545390Y-26845000D02*
X179497771Y-26892619D01*
X179497771Y-26892619D02*
X179450152Y-26987857D01*
X179450152Y-26987857D02*
X179450152Y-27130714D01*
X179450152Y-27130714D02*
X179497771Y-27225952D01*
X179497771Y-27225952D02*
X179593009Y-27273571D01*
X179593009Y-27273571D02*
X180116819Y-27273571D01*
X180069200Y-28130714D02*
X180116819Y-28035476D01*
X180116819Y-28035476D02*
X180116819Y-27845000D01*
X180116819Y-27845000D02*
X180069200Y-27749762D01*
X180069200Y-27749762D02*
X179973961Y-27702143D01*
X179973961Y-27702143D02*
X179593009Y-27702143D01*
X179593009Y-27702143D02*
X179497771Y-27749762D01*
X179497771Y-27749762D02*
X179450152Y-27845000D01*
X179450152Y-27845000D02*
X179450152Y-28035476D01*
X179450152Y-28035476D02*
X179497771Y-28130714D01*
X179497771Y-28130714D02*
X179593009Y-28178333D01*
X179593009Y-28178333D02*
X179688247Y-28178333D01*
X179688247Y-28178333D02*
X179783485Y-27702143D01*
X179450152Y-28464048D02*
X179450152Y-28845000D01*
X179116819Y-28606905D02*
X179973961Y-28606905D01*
X179973961Y-28606905D02*
X180069200Y-28654524D01*
X180069200Y-28654524D02*
X180116819Y-28749762D01*
X180116819Y-28749762D02*
X180116819Y-28845000D01*
X169183033Y-26038266D02*
X168483033Y-26038266D01*
X168483033Y-26038266D02*
X168983033Y-26271600D01*
X168983033Y-26271600D02*
X168483033Y-26504933D01*
X168483033Y-26504933D02*
X169183033Y-26504933D01*
X169183033Y-26838266D02*
X168483033Y-26838266D01*
X169183033Y-27171599D02*
X168483033Y-27171599D01*
X168483033Y-27171599D02*
X168983033Y-27404933D01*
X168983033Y-27404933D02*
X168483033Y-27638266D01*
X168483033Y-27638266D02*
X169183033Y-27638266D01*
X168483033Y-27904933D02*
X169183033Y-28371599D01*
X168483033Y-28371599D02*
X169183033Y-27904933D01*
X169183033Y-29038266D02*
X168849700Y-28804933D01*
X169183033Y-28638266D02*
X168483033Y-28638266D01*
X168483033Y-28638266D02*
X168483033Y-28904933D01*
X168483033Y-28904933D02*
X168516366Y-28971600D01*
X168516366Y-28971600D02*
X168549700Y-29004933D01*
X168549700Y-29004933D02*
X168616366Y-29038266D01*
X168616366Y-29038266D02*
X168716366Y-29038266D01*
X168716366Y-29038266D02*
X168783033Y-29004933D01*
X168783033Y-29004933D02*
X168816366Y-28971600D01*
X168816366Y-28971600D02*
X168849700Y-28904933D01*
X168849700Y-28904933D02*
X168849700Y-28638266D01*
X168483033Y-29238266D02*
X168483033Y-29638266D01*
X169183033Y-29438266D02*
X168483033Y-29438266D01*
X169183033Y-30238266D02*
X169183033Y-29838266D01*
X169183033Y-30038266D02*
X168483033Y-30038266D01*
X168483033Y-30038266D02*
X168583033Y-29971599D01*
X168583033Y-29971599D02*
X168649700Y-29904933D01*
X168649700Y-29904933D02*
X168683033Y-29838266D01*
X168483033Y-30671600D02*
X168483033Y-30738266D01*
X168483033Y-30738266D02*
X168516366Y-30804933D01*
X168516366Y-30804933D02*
X168549700Y-30838266D01*
X168549700Y-30838266D02*
X168616366Y-30871600D01*
X168616366Y-30871600D02*
X168749700Y-30904933D01*
X168749700Y-30904933D02*
X168916366Y-30904933D01*
X168916366Y-30904933D02*
X169049700Y-30871600D01*
X169049700Y-30871600D02*
X169116366Y-30838266D01*
X169116366Y-30838266D02*
X169149700Y-30804933D01*
X169149700Y-30804933D02*
X169183033Y-30738266D01*
X169183033Y-30738266D02*
X169183033Y-30671600D01*
X169183033Y-30671600D02*
X169149700Y-30604933D01*
X169149700Y-30604933D02*
X169116366Y-30571600D01*
X169116366Y-30571600D02*
X169049700Y-30538266D01*
X169049700Y-30538266D02*
X168916366Y-30504933D01*
X168916366Y-30504933D02*
X168749700Y-30504933D01*
X168749700Y-30504933D02*
X168616366Y-30538266D01*
X168616366Y-30538266D02*
X168549700Y-30571600D01*
X168549700Y-30571600D02*
X168516366Y-30604933D01*
X168516366Y-30604933D02*
X168483033Y-30671600D01*
X168483033Y-31504933D02*
X168483033Y-31371600D01*
X168483033Y-31371600D02*
X168516366Y-31304933D01*
X168516366Y-31304933D02*
X168549700Y-31271600D01*
X168549700Y-31271600D02*
X168649700Y-31204933D01*
X168649700Y-31204933D02*
X168783033Y-31171600D01*
X168783033Y-31171600D02*
X169049700Y-31171600D01*
X169049700Y-31171600D02*
X169116366Y-31204933D01*
X169116366Y-31204933D02*
X169149700Y-31238267D01*
X169149700Y-31238267D02*
X169183033Y-31304933D01*
X169183033Y-31304933D02*
X169183033Y-31438267D01*
X169183033Y-31438267D02*
X169149700Y-31504933D01*
X169149700Y-31504933D02*
X169116366Y-31538267D01*
X169116366Y-31538267D02*
X169049700Y-31571600D01*
X169049700Y-31571600D02*
X168883033Y-31571600D01*
X168883033Y-31571600D02*
X168816366Y-31538267D01*
X168816366Y-31538267D02*
X168783033Y-31504933D01*
X168783033Y-31504933D02*
X168749700Y-31438267D01*
X168749700Y-31438267D02*
X168749700Y-31304933D01*
X168749700Y-31304933D02*
X168783033Y-31238267D01*
X168783033Y-31238267D02*
X168816366Y-31204933D01*
X168816366Y-31204933D02*
X168883033Y-31171600D01*
X168549700Y-31838267D02*
X168516366Y-31871600D01*
X168516366Y-31871600D02*
X168483033Y-31938267D01*
X168483033Y-31938267D02*
X168483033Y-32104934D01*
X168483033Y-32104934D02*
X168516366Y-32171600D01*
X168516366Y-32171600D02*
X168549700Y-32204934D01*
X168549700Y-32204934D02*
X168616366Y-32238267D01*
X168616366Y-32238267D02*
X168683033Y-32238267D01*
X168683033Y-32238267D02*
X168783033Y-32204934D01*
X168783033Y-32204934D02*
X169183033Y-31804934D01*
X169183033Y-31804934D02*
X169183033Y-32238267D01*
X193721819Y-27859695D02*
X194531342Y-27859695D01*
X194531342Y-27859695D02*
X194626580Y-27907314D01*
X194626580Y-27907314D02*
X194674200Y-27954933D01*
X194674200Y-27954933D02*
X194721819Y-28050171D01*
X194721819Y-28050171D02*
X194721819Y-28240647D01*
X194721819Y-28240647D02*
X194674200Y-28335885D01*
X194674200Y-28335885D02*
X194626580Y-28383504D01*
X194626580Y-28383504D02*
X194531342Y-28431123D01*
X194531342Y-28431123D02*
X193721819Y-28431123D01*
X194674200Y-28859695D02*
X194721819Y-29002552D01*
X194721819Y-29002552D02*
X194721819Y-29240647D01*
X194721819Y-29240647D02*
X194674200Y-29335885D01*
X194674200Y-29335885D02*
X194626580Y-29383504D01*
X194626580Y-29383504D02*
X194531342Y-29431123D01*
X194531342Y-29431123D02*
X194436104Y-29431123D01*
X194436104Y-29431123D02*
X194340866Y-29383504D01*
X194340866Y-29383504D02*
X194293247Y-29335885D01*
X194293247Y-29335885D02*
X194245628Y-29240647D01*
X194245628Y-29240647D02*
X194198009Y-29050171D01*
X194198009Y-29050171D02*
X194150390Y-28954933D01*
X194150390Y-28954933D02*
X194102771Y-28907314D01*
X194102771Y-28907314D02*
X194007533Y-28859695D01*
X194007533Y-28859695D02*
X193912295Y-28859695D01*
X193912295Y-28859695D02*
X193817057Y-28907314D01*
X193817057Y-28907314D02*
X193769438Y-28954933D01*
X193769438Y-28954933D02*
X193721819Y-29050171D01*
X193721819Y-29050171D02*
X193721819Y-29288266D01*
X193721819Y-29288266D02*
X193769438Y-29431123D01*
X194198009Y-30193028D02*
X194245628Y-30335885D01*
X194245628Y-30335885D02*
X194293247Y-30383504D01*
X194293247Y-30383504D02*
X194388485Y-30431123D01*
X194388485Y-30431123D02*
X194531342Y-30431123D01*
X194531342Y-30431123D02*
X194626580Y-30383504D01*
X194626580Y-30383504D02*
X194674200Y-30335885D01*
X194674200Y-30335885D02*
X194721819Y-30240647D01*
X194721819Y-30240647D02*
X194721819Y-29859695D01*
X194721819Y-29859695D02*
X193721819Y-29859695D01*
X193721819Y-29859695D02*
X193721819Y-30193028D01*
X193721819Y-30193028D02*
X193769438Y-30288266D01*
X193769438Y-30288266D02*
X193817057Y-30335885D01*
X193817057Y-30335885D02*
X193912295Y-30383504D01*
X193912295Y-30383504D02*
X194007533Y-30383504D01*
X194007533Y-30383504D02*
X194102771Y-30335885D01*
X194102771Y-30335885D02*
X194150390Y-30288266D01*
X194150390Y-30288266D02*
X194198009Y-30193028D01*
X194198009Y-30193028D02*
X194198009Y-29859695D01*
%TO.C,R10*%
X22602619Y-4437142D02*
X22126428Y-4103809D01*
X22602619Y-3865714D02*
X21602619Y-3865714D01*
X21602619Y-3865714D02*
X21602619Y-4246666D01*
X21602619Y-4246666D02*
X21650238Y-4341904D01*
X21650238Y-4341904D02*
X21697857Y-4389523D01*
X21697857Y-4389523D02*
X21793095Y-4437142D01*
X21793095Y-4437142D02*
X21935952Y-4437142D01*
X21935952Y-4437142D02*
X22031190Y-4389523D01*
X22031190Y-4389523D02*
X22078809Y-4341904D01*
X22078809Y-4341904D02*
X22126428Y-4246666D01*
X22126428Y-4246666D02*
X22126428Y-3865714D01*
X22602619Y-5389523D02*
X22602619Y-4818095D01*
X22602619Y-5103809D02*
X21602619Y-5103809D01*
X21602619Y-5103809D02*
X21745476Y-5008571D01*
X21745476Y-5008571D02*
X21840714Y-4913333D01*
X21840714Y-4913333D02*
X21888333Y-4818095D01*
X21602619Y-6008571D02*
X21602619Y-6103809D01*
X21602619Y-6103809D02*
X21650238Y-6199047D01*
X21650238Y-6199047D02*
X21697857Y-6246666D01*
X21697857Y-6246666D02*
X21793095Y-6294285D01*
X21793095Y-6294285D02*
X21983571Y-6341904D01*
X21983571Y-6341904D02*
X22221666Y-6341904D01*
X22221666Y-6341904D02*
X22412142Y-6294285D01*
X22412142Y-6294285D02*
X22507380Y-6246666D01*
X22507380Y-6246666D02*
X22555000Y-6199047D01*
X22555000Y-6199047D02*
X22602619Y-6103809D01*
X22602619Y-6103809D02*
X22602619Y-6008571D01*
X22602619Y-6008571D02*
X22555000Y-5913333D01*
X22555000Y-5913333D02*
X22507380Y-5865714D01*
X22507380Y-5865714D02*
X22412142Y-5818095D01*
X22412142Y-5818095D02*
X22221666Y-5770476D01*
X22221666Y-5770476D02*
X21983571Y-5770476D01*
X21983571Y-5770476D02*
X21793095Y-5818095D01*
X21793095Y-5818095D02*
X21697857Y-5865714D01*
X21697857Y-5865714D02*
X21650238Y-5913333D01*
X21650238Y-5913333D02*
X21602619Y-6008571D01*
%TO.C,R5*%
X145936666Y-157222619D02*
X146269999Y-156746428D01*
X146508094Y-157222619D02*
X146508094Y-156222619D01*
X146508094Y-156222619D02*
X146127142Y-156222619D01*
X146127142Y-156222619D02*
X146031904Y-156270238D01*
X146031904Y-156270238D02*
X145984285Y-156317857D01*
X145984285Y-156317857D02*
X145936666Y-156413095D01*
X145936666Y-156413095D02*
X145936666Y-156555952D01*
X145936666Y-156555952D02*
X145984285Y-156651190D01*
X145984285Y-156651190D02*
X146031904Y-156698809D01*
X146031904Y-156698809D02*
X146127142Y-156746428D01*
X146127142Y-156746428D02*
X146508094Y-156746428D01*
X145031904Y-156222619D02*
X145508094Y-156222619D01*
X145508094Y-156222619D02*
X145555713Y-156698809D01*
X145555713Y-156698809D02*
X145508094Y-156651190D01*
X145508094Y-156651190D02*
X145412856Y-156603571D01*
X145412856Y-156603571D02*
X145174761Y-156603571D01*
X145174761Y-156603571D02*
X145079523Y-156651190D01*
X145079523Y-156651190D02*
X145031904Y-156698809D01*
X145031904Y-156698809D02*
X144984285Y-156794047D01*
X144984285Y-156794047D02*
X144984285Y-157032142D01*
X144984285Y-157032142D02*
X145031904Y-157127380D01*
X145031904Y-157127380D02*
X145079523Y-157175000D01*
X145079523Y-157175000D02*
X145174761Y-157222619D01*
X145174761Y-157222619D02*
X145412856Y-157222619D01*
X145412856Y-157222619D02*
X145508094Y-157175000D01*
X145508094Y-157175000D02*
X145555713Y-157127380D01*
%TO.C,J2*%
X124084833Y-9099319D02*
X124084833Y-9813604D01*
X124084833Y-9813604D02*
X124132452Y-9956461D01*
X124132452Y-9956461D02*
X124227690Y-10051700D01*
X124227690Y-10051700D02*
X124370547Y-10099319D01*
X124370547Y-10099319D02*
X124465785Y-10099319D01*
X123656261Y-9194557D02*
X123608642Y-9146938D01*
X123608642Y-9146938D02*
X123513404Y-9099319D01*
X123513404Y-9099319D02*
X123275309Y-9099319D01*
X123275309Y-9099319D02*
X123180071Y-9146938D01*
X123180071Y-9146938D02*
X123132452Y-9194557D01*
X123132452Y-9194557D02*
X123084833Y-9289795D01*
X123084833Y-9289795D02*
X123084833Y-9385033D01*
X123084833Y-9385033D02*
X123132452Y-9527890D01*
X123132452Y-9527890D02*
X123703880Y-10099319D01*
X123703880Y-10099319D02*
X123084833Y-10099319D01*
D13*
%TO.C,R9*%
X170201000Y-4332364D02*
X170201000Y-2878236D01*
X172021000Y-4332364D02*
X172021000Y-2878236D01*
%TO.C,R4*%
X122182936Y-154030000D02*
X123637064Y-154030000D01*
X122182936Y-155850000D02*
X123637064Y-155850000D01*
%TO.C,R1*%
X204830000Y-4257064D02*
X204830000Y-2802936D01*
X206650000Y-4257064D02*
X206650000Y-2802936D01*
%TO.C,R8*%
X121010000Y-4677064D02*
X121010000Y-3222936D01*
X122830000Y-4677064D02*
X122830000Y-3222936D01*
%TO.C,R3*%
X99882936Y-154030000D02*
X101337064Y-154030000D01*
X99882936Y-155850000D02*
X101337064Y-155850000D01*
%TO.C,R2*%
X78012936Y-154030000D02*
X79467064Y-154030000D01*
X78012936Y-155850000D02*
X79467064Y-155850000D01*
%TO.C,R7*%
X70653400Y-5540764D02*
X70653400Y-4086636D01*
X72473400Y-5540764D02*
X72473400Y-4086636D01*
%TO.C,R6*%
X44992936Y-88980000D02*
X46447064Y-88980000D01*
X44992936Y-90800000D02*
X46447064Y-90800000D01*
%TO.C,R11*%
X179700000Y-111032936D02*
X179700000Y-112487064D01*
X177880000Y-111032936D02*
X177880000Y-112487064D01*
D12*
%TO.C,U1*%
X199339200Y-32931600D02*
X199339200Y-25311600D01*
X199339200Y-25311600D02*
X198069200Y-25311600D01*
X198069200Y-38011600D02*
X198069200Y-20231600D01*
X198069200Y-32931600D02*
X199339200Y-32931600D01*
X198069200Y-20231600D02*
X137109200Y-20231600D01*
X192989200Y-32931600D02*
X198069200Y-32931600D01*
X192989200Y-32931600D02*
X192989200Y-25311600D01*
X192989200Y-25311600D02*
X198069200Y-25311600D01*
X191770000Y-34960800D02*
X191770000Y-32420800D01*
X191770000Y-32420800D02*
X189230000Y-32420800D01*
X191770000Y-32420800D02*
X179070000Y-32420800D01*
X189230000Y-32420800D02*
X189230000Y-34960800D01*
X184839200Y-29020000D02*
X180839200Y-29020000D01*
X184839200Y-23020000D02*
X184839200Y-29020000D01*
X184839200Y-22770000D02*
X184839200Y-23020000D01*
X180839200Y-29020000D02*
X180839200Y-22770000D01*
X180839200Y-22770000D02*
X184839200Y-22770000D01*
X179070000Y-34960800D02*
X191770000Y-34960800D01*
X179070000Y-32420800D02*
X179070000Y-34960800D01*
X175209200Y-35471600D02*
X162509200Y-35471600D01*
X175209200Y-22771600D02*
X175209200Y-35471600D01*
X162509200Y-35471600D02*
X162509200Y-22771600D01*
X162509200Y-22771600D02*
X175209200Y-22771600D01*
X157429200Y-30391600D02*
X157429200Y-27851600D01*
X157429200Y-27851600D02*
X153619200Y-27851600D01*
X153619200Y-30391600D02*
X157429200Y-30391600D01*
X153619200Y-27851600D02*
X153619200Y-30391600D01*
X149809200Y-35471600D02*
X137109200Y-35471600D01*
X149809200Y-22771600D02*
X149809200Y-35471600D01*
X138379200Y-34201600D02*
X137109200Y-34201600D01*
X138379200Y-24041600D02*
X138379200Y-34201600D01*
X137109200Y-38011600D02*
X198069200Y-38011600D01*
X137109200Y-24041600D02*
X138379200Y-24041600D01*
X137109200Y-22771600D02*
X149809200Y-22771600D01*
X137109200Y-20231600D02*
X137109200Y-38011600D01*
X156422226Y-29121600D02*
G75*
G03*
X156422226Y-29121600I-898026J0D01*
G01*
D10*
X167186200Y-28306600D02*
X166932200Y-28687600D01*
X166678200Y-28433600D01*
X166932200Y-28052600D01*
X167186200Y-28306600D01*
G36*
X167186200Y-28306600D02*
G01*
X166932200Y-28687600D01*
X166678200Y-28433600D01*
X166932200Y-28052600D01*
X167186200Y-28306600D01*
G37*
X166805200Y-28814600D02*
X166551200Y-29195600D01*
X166297200Y-28941600D01*
X166551200Y-28560600D01*
X166805200Y-28814600D01*
G36*
X166805200Y-28814600D02*
G01*
X166551200Y-29195600D01*
X166297200Y-28941600D01*
X166551200Y-28560600D01*
X166805200Y-28814600D01*
G37*
X166424200Y-29322600D02*
X166170200Y-29703600D01*
X165916200Y-29449600D01*
X166170200Y-29068600D01*
X166424200Y-29322600D01*
G36*
X166424200Y-29322600D02*
G01*
X166170200Y-29703600D01*
X165916200Y-29449600D01*
X166170200Y-29068600D01*
X166424200Y-29322600D01*
G37*
X166424200Y-28433600D02*
X166170200Y-28814600D01*
X165916200Y-28560600D01*
X166170200Y-28179600D01*
X166424200Y-28433600D01*
G36*
X166424200Y-28433600D02*
G01*
X166170200Y-28814600D01*
X165916200Y-28560600D01*
X166170200Y-28179600D01*
X166424200Y-28433600D01*
G37*
X166043200Y-28941600D02*
X165789200Y-29322600D01*
X165535200Y-29068600D01*
X165789200Y-28687600D01*
X166043200Y-28941600D01*
G36*
X166043200Y-28941600D02*
G01*
X165789200Y-29322600D01*
X165535200Y-29068600D01*
X165789200Y-28687600D01*
X166043200Y-28941600D01*
G37*
X165662200Y-29449600D02*
X165408200Y-29830600D01*
X165154200Y-29576600D01*
X165408200Y-29195600D01*
X165662200Y-29449600D01*
G36*
X165662200Y-29449600D02*
G01*
X165408200Y-29830600D01*
X165154200Y-29576600D01*
X165408200Y-29195600D01*
X165662200Y-29449600D01*
G37*
X165281200Y-29068600D02*
X165027200Y-29449600D01*
X164773200Y-29195600D01*
X165027200Y-28814600D01*
X165281200Y-29068600D01*
G36*
X165281200Y-29068600D02*
G01*
X165027200Y-29449600D01*
X164773200Y-29195600D01*
X165027200Y-28814600D01*
X165281200Y-29068600D01*
G37*
X164900200Y-28687600D02*
X164646200Y-29068600D01*
X164392200Y-28814600D01*
X164646200Y-28433600D01*
X164900200Y-28687600D01*
G36*
X164900200Y-28687600D02*
G01*
X164646200Y-29068600D01*
X164392200Y-28814600D01*
X164646200Y-28433600D01*
X164900200Y-28687600D01*
G37*
D13*
%TO.C,R10*%
X19410000Y-5807064D02*
X19410000Y-4352936D01*
X21230000Y-5807064D02*
X21230000Y-4352936D01*
%TO.C,R5*%
X145042936Y-154030000D02*
X146497064Y-154030000D01*
X145042936Y-155850000D02*
X146497064Y-155850000D01*
%TO.C,J2*%
X125811500Y-27196700D02*
X121691500Y-27196700D01*
X125811500Y-26896700D02*
X125811500Y-27196700D01*
X125811500Y-24896700D02*
X125811500Y-25376700D01*
X125811500Y-22896700D02*
X125811500Y-23376700D01*
X125811500Y-20896700D02*
X125811500Y-21376700D01*
X125811500Y-18896700D02*
X125811500Y-19376700D01*
X125811500Y-16896700D02*
X125811500Y-17376700D01*
X125811500Y-14896700D02*
X125811500Y-15376700D01*
X125811500Y-12896700D02*
X125811500Y-13376700D01*
X125811500Y-11076700D02*
X125811500Y-11376700D01*
X125811500Y-11076700D02*
X121691500Y-11076700D01*
X121691500Y-26896700D02*
X121691500Y-27196700D01*
X121691500Y-24896700D02*
X121691500Y-25376700D01*
X121691500Y-22896700D02*
X121691500Y-23376700D01*
X121691500Y-20896700D02*
X121691500Y-21376700D01*
X121691500Y-18896700D02*
X121691500Y-19376700D01*
X121691500Y-16896700D02*
X121691500Y-17376700D01*
X121691500Y-14896700D02*
X121691500Y-15376700D01*
X121691500Y-12896700D02*
X121691500Y-13376700D01*
X121691500Y-11376700D02*
X119311500Y-11376700D01*
X121691500Y-11076700D02*
X121691500Y-11376700D01*
%TD*%
M02*
