%TF.GenerationSoftware,KiCad,Pcbnew,7.0.2-0*%
%TF.CreationDate,2023-11-12T18:23:23-05:00*%
%TF.ProjectId,Audio Module,41756469-6f20-44d6-9f64-756c652e6b69,rev?*%
%TF.SameCoordinates,Original*%
%TF.FileFunction,Copper,L1,Top*%
%TF.FilePolarity,Positive*%
%FSLAX46Y46*%
G04 Gerber Fmt 4.6, Leading zero omitted, Abs format (unit mm)*
G04 Created by KiCad (PCBNEW 7.0.2-0) date 2023-11-12 18:23:23*
%MOMM*%
%LPD*%
G01*
G04 APERTURE LIST*
G04 Aperture macros list*
%AMRoundRect*
0 Rectangle with rounded corners*
0 $1 Rounding radius*
0 $2 $3 $4 $5 $6 $7 $8 $9 X,Y pos of 4 corners*
0 Add a 4 corners polygon primitive as box body*
4,1,4,$2,$3,$4,$5,$6,$7,$8,$9,$2,$3,0*
0 Add four circle primitives for the rounded corners*
1,1,$1+$1,$2,$3*
1,1,$1+$1,$4,$5*
1,1,$1+$1,$6,$7*
1,1,$1+$1,$8,$9*
0 Add four rect primitives between the rounded corners*
20,1,$1+$1,$2,$3,$4,$5,0*
20,1,$1+$1,$4,$5,$6,$7,0*
20,1,$1+$1,$6,$7,$8,$9,0*
20,1,$1+$1,$8,$9,$2,$3,0*%
%AMRotRect*
0 Rectangle, with rotation*
0 The origin of the aperture is its center*
0 $1 length*
0 $2 width*
0 $3 Rotation angle, in degrees counterclockwise*
0 Add horizontal line*
21,1,$1,$2,0,0,$3*%
G04 Aperture macros list end*
%TA.AperFunction,SMDPad,CuDef*%
%ADD10R,2.750000X1.000000*%
%TD*%
%TA.AperFunction,SMDPad,CuDef*%
%ADD11RoundRect,0.250000X0.412500X0.650000X-0.412500X0.650000X-0.412500X-0.650000X0.412500X-0.650000X0*%
%TD*%
%TA.AperFunction,SMDPad,CuDef*%
%ADD12RoundRect,0.250000X-0.412500X-0.650000X0.412500X-0.650000X0.412500X0.650000X-0.412500X0.650000X0*%
%TD*%
%TA.AperFunction,SMDPad,CuDef*%
%ADD13RoundRect,0.250000X0.400000X0.625000X-0.400000X0.625000X-0.400000X-0.625000X0.400000X-0.625000X0*%
%TD*%
%TA.AperFunction,SMDPad,CuDef*%
%ADD14R,1.050000X0.650000*%
%TD*%
%TA.AperFunction,SMDPad,CuDef*%
%ADD15RotRect,0.200000X0.800000X135.000000*%
%TD*%
%TA.AperFunction,SMDPad,CuDef*%
%ADD16RotRect,0.200000X0.800000X45.000000*%
%TD*%
%TA.AperFunction,SMDPad,CuDef*%
%ADD17RotRect,1.800000X1.800000X45.000000*%
%TD*%
%TA.AperFunction,ViaPad*%
%ADD18C,0.500000*%
%TD*%
%TA.AperFunction,Conductor*%
%ADD19C,0.127000*%
%TD*%
G04 APERTURE END LIST*
D10*
%TO.P,J1,1,P1*%
%TO.N,+3.3V*%
X112930000Y-85060000D03*
%TO.P,J1,2,P2*%
%TO.N,GND*%
X106680000Y-85060000D03*
%TO.P,J1,3,P3*%
%TO.N,Headphones_L*%
X112930000Y-87060000D03*
%TO.P,J1,4,P4*%
%TO.N,SDA*%
X106680000Y-87060000D03*
%TO.P,J1,5,+12V*%
%TO.N,Headphones_R*%
X112930000Y-89060000D03*
%TO.P,J1,6,P6*%
%TO.N,SCL*%
X106680000Y-89060000D03*
%TO.P,J1,7,12V*%
%TO.N,Linein_L*%
X112930000Y-91060000D03*
%TO.P,J1,8,+12V*%
%TO.N,MCLK*%
X106680000Y-91060000D03*
%TO.P,J1,9,GND*%
%TO.N,Linein_R*%
X112930000Y-93060000D03*
%TO.P,J1,10,GND*%
%TO.N,LRCLCK*%
X106680000Y-93060000D03*
%TO.P,J1,11,GND*%
%TO.N,Mic*%
X112930000Y-95060000D03*
%TO.P,J1,12,GND*%
%TO.N,DOUT*%
X106680000Y-95060000D03*
%TO.P,J1,13,-12*%
%TO.N,Lineout_L*%
X112930000Y-97060000D03*
%TO.P,J1,14,-12V*%
%TO.N,DIN*%
X106680000Y-97060000D03*
%TO.P,J1,15,-12V*%
%TO.N,Lineout_R*%
X112930000Y-99060000D03*
%TO.P,J1,16,P16*%
%TO.N,BLCK*%
X106680000Y-99060000D03*
%TD*%
D11*
%TO.P,C14,1*%
%TO.N,Net-(IC1-LINEOUT_R)*%
X119380000Y-99060000D03*
%TO.P,C14,2*%
%TO.N,Lineout_R*%
X116255000Y-99060000D03*
%TD*%
D12*
%TO.P,C10,1*%
%TO.N,+3.3V*%
X100225700Y-91834300D03*
%TO.P,C10,2*%
%TO.N,GND*%
X103350700Y-91834300D03*
%TD*%
%TO.P,C5,1*%
%TO.N,+3.3V*%
X100314300Y-104140000D03*
%TO.P,C5,2*%
%TO.N,GND*%
X103439300Y-104140000D03*
%TD*%
%TO.P,C2,1*%
%TO.N,+3.3V*%
X100355500Y-95791900D03*
%TO.P,C2,2*%
%TO.N,GND*%
X103480500Y-95791900D03*
%TD*%
D13*
%TO.P,R1,1*%
%TO.N,Net-(IC1-MIC_BIAS)*%
X119246000Y-74511700D03*
%TO.P,R1,2*%
%TO.N,Mic*%
X116146000Y-74511700D03*
%TD*%
D11*
%TO.P,C13,1*%
%TO.N,Net-(IC1-LINEOUT_L)*%
X119347600Y-95164700D03*
%TO.P,C13,2*%
%TO.N,Lineout_L*%
X116222600Y-95164700D03*
%TD*%
D14*
%TO.P,IC2,1,GND*%
%TO.N,GND*%
X110873700Y-104732000D03*
%TO.P,IC2,2,OUT*%
%TO.N,Net-(IC2-OUT)*%
X110873700Y-102812000D03*
%TO.P,IC2,3,IN*%
%TO.N,+3.3V*%
X108673700Y-103772000D03*
%TD*%
D12*
%TO.P,C6,1*%
%TO.N,Net-(IC1-VAG)*%
X100420400Y-78339500D03*
%TO.P,C6,2*%
%TO.N,GND*%
X103545400Y-78339500D03*
%TD*%
D15*
%TO.P,IC1,1,HP_R*%
%TO.N,Headphones_R*%
X114722754Y-80628475D03*
%TO.P,IC1,2,HP_VGND*%
%TO.N,GND*%
X115005597Y-80911317D03*
%TO.P,IC1,3,VDDA*%
%TO.N,+3.3V*%
X115288440Y-81194160D03*
%TO.P,IC1,4,HP_L*%
%TO.N,Headphones_L*%
X115571283Y-81477003D03*
%TO.P,IC1,5,VAG*%
%TO.N,Net-(IC1-VAG)*%
X115854125Y-81759846D03*
D16*
%TO.P,IC1,6,LINEOUT_R*%
%TO.N,Net-(IC1-LINEOUT_R)*%
X116844075Y-81759846D03*
%TO.P,IC1,7,LINEOUT_L*%
%TO.N,Net-(IC1-LINEOUT_L)*%
X117126917Y-81477003D03*
%TO.P,IC1,8,LINEIN_R*%
%TO.N,Net-(IC1-LINEIN_R)*%
X117409760Y-81194160D03*
%TO.P,IC1,9,LINEIN_L*%
%TO.N,Net-(IC1-LINEIN_L)*%
X117692603Y-80911317D03*
%TO.P,IC1,10,MIC*%
%TO.N,Net-(IC1-MIC)*%
X117975446Y-80628475D03*
D15*
%TO.P,IC1,11,MIC_BIAS*%
%TO.N,Net-(IC1-MIC_BIAS)*%
X117975446Y-79638525D03*
%TO.P,IC1,12,VDDIO*%
%TO.N,+3.3V*%
X117692603Y-79355683D03*
%TO.P,IC1,13,SYS_MCLK*%
%TO.N,Net-(IC1-SYS_MCLK)*%
X117409760Y-79072840D03*
%TO.P,IC1,14,I2S_LRCLK*%
%TO.N,LRCLCK*%
X117126917Y-78789997D03*
%TO.P,IC1,15,I2S_SCLK*%
%TO.N,BLCK*%
X116844075Y-78507154D03*
D16*
%TO.P,IC1,16,I2S_DOUT*%
%TO.N,DOUT*%
X115854125Y-78507154D03*
%TO.P,IC1,17,I2S_DIN*%
%TO.N,DIN*%
X115571283Y-78789997D03*
%TO.P,IC1,18,CTRL_DATA*%
%TO.N,SDA*%
X115288440Y-79072840D03*
%TO.P,IC1,19,CTRL_CLK*%
%TO.N,SCL*%
X115005597Y-79355683D03*
%TO.P,IC1,20,VDDD*%
%TO.N,Net-(IC1-VDDD)*%
X114722754Y-79638525D03*
D17*
%TO.P,IC1,21,GND*%
%TO.N,GND*%
X116349100Y-80133500D03*
%TD*%
D12*
%TO.P,C8,1*%
%TO.N,Linein_R*%
X116255000Y-91440000D03*
%TO.P,C8,2*%
%TO.N,Net-(IC1-LINEIN_R)*%
X119380000Y-91440000D03*
%TD*%
%TO.P,C7,1*%
%TO.N,Net-(IC2-OUT)*%
X114109800Y-103707100D03*
%TO.P,C7,2*%
%TO.N,Net-(IC1-VDDD)*%
X117234800Y-103707100D03*
%TD*%
%TO.P,C3,1*%
%TO.N,+3.3V*%
X100355500Y-87746900D03*
%TO.P,C3,2*%
%TO.N,GND*%
X103480500Y-87746900D03*
%TD*%
%TO.P,C4,1*%
%TO.N,+3.3V*%
X100355500Y-99749500D03*
%TO.P,C4,2*%
%TO.N,GND*%
X103480500Y-99749500D03*
%TD*%
D11*
%TO.P,C12,1*%
%TO.N,Net-(IC1-MIC_BIAS)*%
X103565200Y-74339000D03*
%TO.P,C12,2*%
%TO.N,GND*%
X100440200Y-74339000D03*
%TD*%
%TO.P,C9,1*%
%TO.N,Net-(IC1-LINEIN_L)*%
X119406900Y-87629500D03*
%TO.P,C9,2*%
%TO.N,Linein_L*%
X116281900Y-87629500D03*
%TD*%
D12*
%TO.P,C11,1*%
%TO.N,Net-(IC1-MIC)*%
X107697600Y-74446800D03*
%TO.P,C11,2*%
%TO.N,Mic*%
X110822600Y-74446800D03*
%TD*%
%TO.P,C1,1*%
%TO.N,+3.3V*%
X100355500Y-83205400D03*
%TO.P,C1,2*%
%TO.N,GND*%
X103480500Y-83205400D03*
%TD*%
D13*
%TO.P,R2,1*%
%TO.N,Net-(IC1-SYS_MCLK)*%
X109831500Y-80415700D03*
%TO.P,R2,2*%
%TO.N,MCLK*%
X106731500Y-80415700D03*
%TD*%
D18*
%TO.N,GND*%
X114136900Y-81760300D03*
X108318600Y-82375800D03*
%TO.N,Net-(IC1-VAG)*%
X101554000Y-78698600D03*
X115722100Y-82566300D03*
%TO.N,SDA*%
X105335000Y-84092200D03*
X112746600Y-80713300D03*
%TD*%
D19*
%TO.N,+3.3V*%
X114664500Y-81818100D02*
X115288400Y-81194200D01*
X100355500Y-104140000D02*
X100355500Y-99749500D01*
X114568700Y-88447100D02*
X114568700Y-89737700D01*
X100355500Y-99749500D02*
X100355500Y-95791900D01*
X111291400Y-99706000D02*
X111602500Y-100017100D01*
X117692600Y-79355700D02*
X118161900Y-78886400D01*
X103854200Y-76463100D02*
X102237100Y-74846000D01*
X108673700Y-104360600D02*
X107718500Y-105315800D01*
X107718500Y-105315800D02*
X101531300Y-105315800D01*
X111868600Y-89823700D02*
X111291400Y-90400900D01*
X100355500Y-104140000D02*
X100314300Y-104140000D01*
X115335200Y-100017100D02*
X118164800Y-102846700D01*
X117210200Y-76949400D02*
X116720900Y-76949400D01*
X118161900Y-78886400D02*
X118151200Y-78875800D01*
X114664500Y-81961300D02*
X114664500Y-81818100D01*
X100355500Y-95791900D02*
X100225700Y-95662100D01*
X109633800Y-105320700D02*
X108673700Y-104360600D01*
X101531300Y-105315800D02*
X100355500Y-104140000D01*
X118151200Y-77890400D02*
X117210200Y-76949400D01*
X114568700Y-89737700D02*
X114482700Y-89823700D01*
X112930000Y-85060000D02*
X112930000Y-83695800D01*
X111291400Y-85060000D02*
X111291400Y-87721100D01*
X99476400Y-82326300D02*
X100355500Y-83205400D01*
X111602500Y-100017100D02*
X115335200Y-100017100D01*
X102237100Y-74334300D02*
X101032200Y-73129400D01*
X116234600Y-76463100D02*
X103854200Y-76463100D01*
X118151200Y-78875800D02*
X118151200Y-77890400D01*
X114399800Y-88278200D02*
X114568700Y-88447100D01*
X114482700Y-89823700D02*
X111868600Y-89823700D01*
X99476400Y-73436900D02*
X99476400Y-82326300D01*
X111291400Y-90400900D02*
X111291400Y-99706000D01*
X100355500Y-87746900D02*
X100355500Y-91704500D01*
X116720900Y-76949400D02*
X116234600Y-76463100D01*
X118164800Y-102846700D02*
X118164800Y-104593200D01*
X111848500Y-88278200D02*
X114399800Y-88278200D01*
X100225700Y-95662100D02*
X100225700Y-91834300D01*
X100355500Y-91704500D02*
X100225700Y-91834300D01*
X108673700Y-103772000D02*
X108673700Y-104360600D01*
X117437300Y-105320700D02*
X109633800Y-105320700D01*
X100355500Y-87746900D02*
X100355500Y-83205400D01*
X102237100Y-74846000D02*
X102237100Y-74334300D01*
X101032200Y-73129400D02*
X99783900Y-73129400D01*
X99783900Y-73129400D02*
X99476400Y-73436900D01*
X112930000Y-83695800D02*
X114664500Y-81961300D01*
X111291400Y-87721100D02*
X111848500Y-88278200D01*
X118164800Y-104593200D02*
X117437300Y-105320700D01*
X112930000Y-85060000D02*
X111291400Y-85060000D01*
%TO.N,GND*%
X108318600Y-82375800D02*
X108318600Y-80227700D01*
X114156600Y-81760300D02*
X115005600Y-80911300D01*
X104396000Y-103183300D02*
X104396000Y-100665000D01*
X103545400Y-77444200D02*
X100440200Y-74339000D01*
X103480500Y-83205400D02*
X103480500Y-87746900D01*
X108318600Y-85060000D02*
X108318600Y-82375800D01*
X106430400Y-78339500D02*
X103545400Y-78339500D01*
X114136900Y-81760300D02*
X114156600Y-81760300D01*
X108318600Y-80227700D02*
X106430400Y-78339500D01*
X103480500Y-78404400D02*
X103545400Y-78339500D01*
X103480500Y-87746900D02*
X103350700Y-87876700D01*
X106680000Y-85060000D02*
X108318600Y-85060000D01*
X110873700Y-104732000D02*
X110873700Y-104143400D01*
X103480500Y-95791900D02*
X103350700Y-95662100D01*
X103350700Y-95662100D02*
X103350700Y-91834300D01*
X104396000Y-100665000D02*
X103480500Y-99749500D01*
X110873700Y-104143400D02*
X109913600Y-103183300D01*
X116349100Y-80133500D02*
X115783400Y-80133500D01*
X103545400Y-78339500D02*
X103545400Y-77444200D01*
X103350700Y-87876700D02*
X103350700Y-91834300D01*
X103439300Y-104140000D02*
X104396000Y-103183300D01*
X115783400Y-80133500D02*
X115005600Y-80911300D01*
X103480500Y-99749500D02*
X103480500Y-95791900D01*
X109913600Y-103183300D02*
X104396000Y-103183300D01*
X103480500Y-83205400D02*
X103480500Y-78404400D01*
%TO.N,Net-(IC1-VAG)*%
X115384900Y-82229000D02*
X115722100Y-82566300D01*
X100779500Y-78698600D02*
X100420400Y-78339500D01*
X115854100Y-81759800D02*
X115384900Y-82229000D01*
X101554000Y-78698600D02*
X100779500Y-78698600D01*
%TO.N,Net-(IC2-OUT)*%
X113214700Y-102812000D02*
X114109800Y-103707100D01*
X110873700Y-102812000D02*
X113214700Y-102812000D01*
%TO.N,Net-(IC1-VDDD)*%
X110626500Y-84066500D02*
X110626500Y-99518000D01*
X114722800Y-79970200D02*
X110626500Y-84066500D01*
X112654700Y-101546200D02*
X115073900Y-101546200D01*
X115073900Y-101546200D02*
X117234800Y-103707100D01*
X114722800Y-79638500D02*
X114722800Y-79970200D01*
X110626500Y-99518000D02*
X112654700Y-101546200D01*
%TO.N,Net-(IC1-LINEIN_R)*%
X117409800Y-81194200D02*
X118232200Y-82016600D01*
X118232200Y-90292200D02*
X119380000Y-91440000D01*
X118232200Y-82016600D02*
X118232200Y-90292200D01*
%TO.N,Net-(IC1-LINEIN_L)*%
X119406900Y-82625600D02*
X119406900Y-87629500D01*
X117692600Y-80911300D02*
X119406900Y-82625600D01*
%TO.N,Net-(IC1-SYS_MCLK)*%
X117079900Y-77281700D02*
X116562700Y-77281700D01*
X116101200Y-76820200D02*
X113427000Y-76820200D01*
X117409800Y-79072800D02*
X117824100Y-78658500D01*
X116562700Y-77281700D02*
X116101200Y-76820200D01*
X117824100Y-78025900D02*
X117079900Y-77281700D01*
X113427000Y-76820200D02*
X109831500Y-80415700D01*
X117824100Y-78658500D02*
X117824100Y-78025900D01*
%TO.N,LRCLCK*%
X116518800Y-77719200D02*
X115946900Y-77147300D01*
X117126900Y-78790000D02*
X117497000Y-78419900D01*
X115946900Y-77147300D02*
X113958300Y-77147300D01*
X111023200Y-80995200D02*
X108645800Y-83372600D01*
X108645800Y-92732800D02*
X108318600Y-93060000D01*
X108645800Y-83372600D02*
X108645800Y-92732800D01*
X117497000Y-78419900D02*
X117497000Y-78161400D01*
X117497000Y-78161400D02*
X117054800Y-77719200D01*
X111023200Y-80082400D02*
X111023200Y-80995200D01*
X117054800Y-77719200D02*
X116518800Y-77719200D01*
X113958300Y-77147300D02*
X111023200Y-80082400D01*
X106680000Y-93060000D02*
X108318600Y-93060000D01*
%TO.N,BLCK*%
X104987800Y-94437600D02*
X104987800Y-97660200D01*
X114093800Y-77474400D02*
X111466000Y-80102200D01*
X111466000Y-80102200D02*
X111466000Y-81015000D01*
X115811300Y-77474400D02*
X114093800Y-77474400D01*
X105365400Y-94060000D02*
X104987800Y-94437600D01*
X111466000Y-81015000D02*
X108972900Y-83508100D01*
X108972900Y-83508100D02*
X108972900Y-93096100D01*
X108972900Y-93096100D02*
X108009000Y-94060000D01*
X108009000Y-94060000D02*
X105365400Y-94060000D01*
X104987800Y-97660200D02*
X106387600Y-99060000D01*
X116844100Y-78507200D02*
X115811300Y-77474400D01*
X106387600Y-99060000D02*
X106680000Y-99060000D01*
%TO.N,DOUT*%
X115148400Y-77801500D02*
X114229300Y-77801500D01*
X106680000Y-95060000D02*
X108318600Y-95060000D01*
X114229300Y-77801500D02*
X111793100Y-80237700D01*
X111793100Y-80237700D02*
X111793100Y-81150500D01*
X109300000Y-83643600D02*
X109300000Y-93359200D01*
X115854100Y-78507200D02*
X115148400Y-77801500D01*
X109300000Y-93359200D02*
X108318600Y-94340600D01*
X108318600Y-94340600D02*
X108318600Y-95060000D01*
X111793100Y-81150500D02*
X109300000Y-83643600D01*
%TO.N,DIN*%
X111808100Y-81598100D02*
X111808100Y-81598200D01*
X112966400Y-79767200D02*
X112233000Y-80500600D01*
X109627100Y-93494700D02*
X109300900Y-93820900D01*
X111477700Y-81928600D02*
X111477700Y-81940900D01*
X109628000Y-83790600D02*
X109628000Y-86910400D01*
X109628000Y-86910400D02*
X109627100Y-86911300D01*
X114364800Y-78128600D02*
X112966400Y-79527000D01*
X111808100Y-81598200D02*
X111477700Y-81928600D01*
X115571300Y-78790000D02*
X115102100Y-78320700D01*
X115102000Y-78320800D02*
X114965600Y-78320800D01*
X106680000Y-97060000D02*
X108318600Y-97060000D01*
X112120200Y-80835800D02*
X112120200Y-81286000D01*
X109300900Y-93820900D02*
X109300900Y-96077700D01*
X112966400Y-79527000D02*
X112966400Y-79767200D01*
X112233000Y-80723000D02*
X112120200Y-80835800D01*
X111477700Y-81940900D02*
X109628000Y-83790600D01*
X112233000Y-80500600D02*
X112233000Y-80723000D01*
X114965600Y-78320800D02*
X114773400Y-78128600D01*
X112120200Y-81286000D02*
X111808100Y-81598100D01*
X114773400Y-78128600D02*
X114364800Y-78128600D01*
X109627100Y-86911300D02*
X109627100Y-93494700D01*
X115102100Y-78320700D02*
X115102000Y-78320800D01*
X109300900Y-96077700D02*
X108318600Y-97060000D01*
%TO.N,SDA*%
X112746600Y-80713300D02*
X112746600Y-80676400D01*
X113408800Y-79547200D02*
X114418600Y-78537400D01*
X114701700Y-78537400D02*
X115237100Y-79072800D01*
X114418600Y-78537400D02*
X114701700Y-78537400D01*
X105041400Y-87060000D02*
X105041400Y-84385800D01*
X106680000Y-87060000D02*
X105041400Y-87060000D01*
X105041400Y-84385800D02*
X105335000Y-84092200D01*
X115237100Y-79072800D02*
X115288400Y-79072800D01*
X112746600Y-80676400D02*
X113408800Y-80014200D01*
X113408800Y-80014200D02*
X113408800Y-79547200D01*
%TO.N,SCL*%
X104987800Y-99659300D02*
X104987800Y-98122800D01*
X109735900Y-95669700D02*
X109735900Y-98311400D01*
X114019500Y-79865900D02*
X113929800Y-79955600D01*
X113260200Y-80926100D02*
X111029200Y-83157100D01*
X104987800Y-92438000D02*
X105491900Y-91933900D01*
X111029200Y-83157100D02*
X111029200Y-83201200D01*
X113929800Y-79968800D02*
X113260200Y-80638400D01*
X109972400Y-84258000D02*
X109972400Y-94174100D01*
X104660700Y-97795700D02*
X104660700Y-93924500D01*
X105491900Y-91933900D02*
X108119000Y-91933900D01*
X109972400Y-94174100D02*
X109788100Y-94358400D01*
X106680000Y-89060000D02*
X108318600Y-89060000D01*
X108318600Y-91734300D02*
X108318600Y-89060000D01*
X109788100Y-94358400D02*
X109788100Y-95617500D01*
X104987800Y-93597400D02*
X104987800Y-92438000D01*
X111029200Y-83201200D02*
X109972400Y-84258000D01*
X113260200Y-80638400D02*
X113260200Y-80926100D01*
X104660700Y-93924500D02*
X104987800Y-93597400D01*
X115005600Y-79355700D02*
X114536400Y-78886400D01*
X114536400Y-78886400D02*
X114019500Y-79403300D01*
X114019500Y-79403300D02*
X114019500Y-79865900D01*
X108223600Y-99823700D02*
X105152200Y-99823700D01*
X104987800Y-98122800D02*
X104660700Y-97795700D01*
X108119000Y-91933900D02*
X108318600Y-91734300D01*
X109735900Y-98311400D02*
X108223600Y-99823700D01*
X113929800Y-79955600D02*
X113929800Y-79968800D01*
X109788100Y-95617500D02*
X109735900Y-95669700D01*
X105152200Y-99823700D02*
X104987800Y-99659300D01*
%TO.N,MCLK*%
X104714300Y-82432900D02*
X104714300Y-90732900D01*
X106680000Y-91060000D02*
X105041400Y-91060000D01*
X104714300Y-90732900D02*
X105041400Y-91060000D01*
X106731500Y-80415700D02*
X104714300Y-82432900D01*
%TO.N,Linein_R*%
X114635000Y-93060000D02*
X116255000Y-91440000D01*
X112930000Y-93060000D02*
X114635000Y-93060000D01*
%TO.N,Linein_L*%
X116281900Y-89346700D02*
X116281900Y-87629500D01*
X114568600Y-91060000D02*
X116281900Y-89346700D01*
X112930000Y-91060000D02*
X114568600Y-91060000D01*
%TO.N,Net-(IC1-MIC)*%
X118882200Y-77696200D02*
X116994800Y-75808800D01*
X109059600Y-75808800D02*
X107697600Y-74446800D01*
X117975400Y-80628500D02*
X118882200Y-79721700D01*
X118882200Y-79721700D02*
X118882200Y-77696200D01*
X116994800Y-75808800D02*
X109059600Y-75808800D01*
%TO.N,Mic*%
X120041400Y-100237000D02*
X120379300Y-99899100D01*
X110887500Y-74511700D02*
X110822600Y-74446800D01*
X114568600Y-94964600D02*
X115548000Y-93985200D01*
X117209100Y-94285600D02*
X117209100Y-98735500D01*
X115548000Y-93985200D02*
X116908700Y-93985200D01*
X117209100Y-98735500D02*
X118710600Y-100237000D01*
X116908700Y-93985200D02*
X117209100Y-94285600D01*
X112930000Y-95060000D02*
X114568600Y-95060000D01*
X116160300Y-74511700D02*
X116146000Y-74511700D01*
X120379300Y-99899100D02*
X120379300Y-78730700D01*
X114568600Y-95060000D02*
X114568600Y-94964600D01*
X120379300Y-78730700D02*
X116160300Y-74511700D01*
X118710600Y-100237000D02*
X120041400Y-100237000D01*
X116146000Y-74511700D02*
X110887500Y-74511700D01*
%TO.N,Net-(IC1-MIC_BIAS)*%
X118521400Y-78256400D02*
X118478300Y-78213300D01*
X105874700Y-74460600D02*
X107114400Y-73220900D01*
X118444700Y-79169200D02*
X118444600Y-79169200D01*
X118444600Y-79066300D02*
X118521400Y-78989500D01*
X118478300Y-78213300D02*
X118478300Y-77754900D01*
X103686900Y-74460700D02*
X105874600Y-74460700D01*
X107114400Y-73220900D02*
X117955200Y-73220900D01*
X118444600Y-79169200D02*
X118444600Y-79066300D01*
X118478300Y-77754900D02*
X117345700Y-76622300D01*
X105874600Y-74460700D02*
X105874700Y-74460600D01*
X118521400Y-78989500D02*
X118521400Y-78256400D01*
X117955200Y-73220900D02*
X119246000Y-74511700D01*
X117345700Y-76622300D02*
X116887300Y-76622300D01*
X116401000Y-76136000D02*
X107550000Y-76136000D01*
X103565200Y-74339000D02*
X103686900Y-74460700D01*
X107550000Y-76136000D02*
X105874700Y-74460600D01*
X116887300Y-76622300D02*
X116401000Y-76136000D01*
X117975400Y-79638500D02*
X118444700Y-79169200D01*
%TO.N,Net-(IC1-LINEOUT_L)*%
X117126900Y-81477000D02*
X117878300Y-82228400D01*
X117878300Y-82228400D02*
X117878300Y-93695400D01*
X117878300Y-93695400D02*
X119347600Y-95164700D01*
%TO.N,Lineout_L*%
X114568600Y-96818700D02*
X116222600Y-95164700D01*
X112930000Y-97060000D02*
X114568600Y-97060000D01*
X114568600Y-97060000D02*
X114568600Y-96818700D01*
%TO.N,Net-(IC1-LINEOUT_R)*%
X116844100Y-81759800D02*
X117551100Y-82466800D01*
X117551100Y-97231100D02*
X119380000Y-99060000D01*
X117551100Y-82466800D02*
X117551100Y-97231100D01*
%TO.N,Lineout_R*%
X112930000Y-99060000D02*
X116255000Y-99060000D01*
%TO.N,Headphones_R*%
X110964200Y-84206600D02*
X114073100Y-81097700D01*
X110964200Y-88732800D02*
X110964200Y-84206600D01*
X114073100Y-81097700D02*
X114253500Y-81097700D01*
X114253500Y-81097700D02*
X114253600Y-81097700D01*
X114722800Y-80628500D02*
X114253600Y-81097700D01*
X112930000Y-89060000D02*
X111291400Y-89060000D01*
X111291400Y-89060000D02*
X110964200Y-88732800D01*
%TO.N,Headphones_L*%
X115571300Y-81477000D02*
X115102000Y-81946300D01*
X114568600Y-82519800D02*
X115102000Y-81986400D01*
X112930000Y-87060000D02*
X114568600Y-87060000D01*
X114568600Y-87060000D02*
X114568600Y-82519800D01*
X115102000Y-81986400D02*
X115102000Y-81946300D01*
%TD*%
M02*
