%TF.GenerationSoftware,KiCad,Pcbnew,7.0.2-0*%
%TF.CreationDate,2023-11-12T18:23:27-05:00*%
%TF.ProjectId,Audio Module,41756469-6f20-44d6-9f64-756c652e6b69,rev?*%
%TF.SameCoordinates,Original*%
%TF.FileFunction,Drillmap*%
%TF.FilePolarity,Positive*%
%FSLAX45Y45*%
G04 Gerber Fmt 4.5, Leading zero omitted, Abs format (unit mm)*
G04 Created by KiCad (PCBNEW 7.0.2-0) date 2023-11-12 18:23:27*
%MOMM*%
%LPD*%
G01*
G04 APERTURE LIST*
%ADD10C,0.100000*%
%ADD11C,0.200000*%
G04 APERTURE END LIST*
D10*
X9911523Y-7285570D02*
X12065288Y-7285570D01*
X12065288Y-10594058D01*
X9911523Y-10594058D01*
X9911523Y-7285570D01*
D11*
X10154142Y-10911582D02*
X10154142Y-10711582D01*
X10154142Y-10711582D02*
X10201761Y-10711582D01*
X10201761Y-10711582D02*
X10230333Y-10721106D01*
X10230333Y-10721106D02*
X10249381Y-10740153D01*
X10249381Y-10740153D02*
X10258904Y-10759201D01*
X10258904Y-10759201D02*
X10268428Y-10797296D01*
X10268428Y-10797296D02*
X10268428Y-10825868D01*
X10268428Y-10825868D02*
X10258904Y-10863963D01*
X10258904Y-10863963D02*
X10249381Y-10883010D01*
X10249381Y-10883010D02*
X10230333Y-10902058D01*
X10230333Y-10902058D02*
X10201761Y-10911582D01*
X10201761Y-10911582D02*
X10154142Y-10911582D01*
X10354142Y-10911582D02*
X10354142Y-10778249D01*
X10354142Y-10816344D02*
X10363666Y-10797296D01*
X10363666Y-10797296D02*
X10373190Y-10787772D01*
X10373190Y-10787772D02*
X10392238Y-10778249D01*
X10392238Y-10778249D02*
X10411285Y-10778249D01*
X10477952Y-10911582D02*
X10477952Y-10778249D01*
X10477952Y-10711582D02*
X10468428Y-10721106D01*
X10468428Y-10721106D02*
X10477952Y-10730630D01*
X10477952Y-10730630D02*
X10487476Y-10721106D01*
X10487476Y-10721106D02*
X10477952Y-10711582D01*
X10477952Y-10711582D02*
X10477952Y-10730630D01*
X10601761Y-10911582D02*
X10582714Y-10902058D01*
X10582714Y-10902058D02*
X10573190Y-10883010D01*
X10573190Y-10883010D02*
X10573190Y-10711582D01*
X10706523Y-10911582D02*
X10687476Y-10902058D01*
X10687476Y-10902058D02*
X10677952Y-10883010D01*
X10677952Y-10883010D02*
X10677952Y-10711582D01*
X10935095Y-10911582D02*
X10935095Y-10711582D01*
X10935095Y-10711582D02*
X11001762Y-10854439D01*
X11001762Y-10854439D02*
X11068428Y-10711582D01*
X11068428Y-10711582D02*
X11068428Y-10911582D01*
X11249380Y-10911582D02*
X11249380Y-10806820D01*
X11249380Y-10806820D02*
X11239857Y-10787772D01*
X11239857Y-10787772D02*
X11220809Y-10778249D01*
X11220809Y-10778249D02*
X11182714Y-10778249D01*
X11182714Y-10778249D02*
X11163666Y-10787772D01*
X11249380Y-10902058D02*
X11230333Y-10911582D01*
X11230333Y-10911582D02*
X11182714Y-10911582D01*
X11182714Y-10911582D02*
X11163666Y-10902058D01*
X11163666Y-10902058D02*
X11154142Y-10883010D01*
X11154142Y-10883010D02*
X11154142Y-10863963D01*
X11154142Y-10863963D02*
X11163666Y-10844915D01*
X11163666Y-10844915D02*
X11182714Y-10835391D01*
X11182714Y-10835391D02*
X11230333Y-10835391D01*
X11230333Y-10835391D02*
X11249380Y-10825868D01*
X11344619Y-10778249D02*
X11344619Y-10978249D01*
X11344619Y-10787772D02*
X11363666Y-10778249D01*
X11363666Y-10778249D02*
X11401761Y-10778249D01*
X11401761Y-10778249D02*
X11420809Y-10787772D01*
X11420809Y-10787772D02*
X11430333Y-10797296D01*
X11430333Y-10797296D02*
X11439857Y-10816344D01*
X11439857Y-10816344D02*
X11439857Y-10873487D01*
X11439857Y-10873487D02*
X11430333Y-10892534D01*
X11430333Y-10892534D02*
X11420809Y-10902058D01*
X11420809Y-10902058D02*
X11401761Y-10911582D01*
X11401761Y-10911582D02*
X11363666Y-10911582D01*
X11363666Y-10911582D02*
X11344619Y-10902058D01*
X11525571Y-10892534D02*
X11535095Y-10902058D01*
X11535095Y-10902058D02*
X11525571Y-10911582D01*
X11525571Y-10911582D02*
X11516047Y-10902058D01*
X11516047Y-10902058D02*
X11525571Y-10892534D01*
X11525571Y-10892534D02*
X11525571Y-10911582D01*
X11525571Y-10787772D02*
X11535095Y-10797296D01*
X11535095Y-10797296D02*
X11525571Y-10806820D01*
X11525571Y-10806820D02*
X11516047Y-10797296D01*
X11516047Y-10797296D02*
X11525571Y-10787772D01*
X11525571Y-10787772D02*
X11525571Y-10806820D01*
M02*
