%TF.GenerationSoftware,KiCad,Pcbnew,7.0.2-0*%
%TF.CreationDate,2023-11-12T18:23:27-05:00*%
%TF.ProjectId,Audio Module,41756469-6f20-44d6-9f64-756c652e6b69,rev?*%
%TF.SameCoordinates,Original*%
%TF.FileFunction,Drillmap*%
%TF.FilePolarity,Positive*%
%FSLAX45Y45*%
G04 Gerber Fmt 4.5, Leading zero omitted, Abs format (unit mm)*
G04 Created by KiCad (PCBNEW 7.0.2-0) date 2023-11-12 18:23:27*
%MOMM*%
%LPD*%
G01*
G04 APERTURE LIST*
%ADD10C,0.100000*%
%ADD11C,0.200000*%
%ADD12C,0.030000*%
G04 APERTURE END LIST*
D10*
X9911523Y-7285570D02*
X12065288Y-7285570D01*
X12065288Y-10594058D01*
X9911523Y-10594058D01*
X9911523Y-7285570D01*
D11*
D12*
X10140400Y-7854860D02*
X10170400Y-7884860D01*
X10170400Y-7854860D02*
X10140400Y-7884860D01*
X10518500Y-8394220D02*
X10548500Y-8424220D01*
X10548500Y-8394220D02*
X10518500Y-8424220D01*
X10816860Y-8222580D02*
X10846860Y-8252580D01*
X10846860Y-8222580D02*
X10816860Y-8252580D01*
X11259660Y-8056330D02*
X11289660Y-8086330D01*
X11289660Y-8056330D02*
X11259660Y-8086330D01*
X11398690Y-8161030D02*
X11428690Y-8191030D01*
X11428690Y-8161030D02*
X11398690Y-8191030D01*
X11557210Y-8241630D02*
X11587210Y-8271630D01*
X11587210Y-8241630D02*
X11557210Y-8271630D01*
D11*
X10154142Y-10911582D02*
X10154142Y-10711582D01*
X10154142Y-10711582D02*
X10201761Y-10711582D01*
X10201761Y-10711582D02*
X10230333Y-10721106D01*
X10230333Y-10721106D02*
X10249381Y-10740153D01*
X10249381Y-10740153D02*
X10258904Y-10759201D01*
X10258904Y-10759201D02*
X10268428Y-10797296D01*
X10268428Y-10797296D02*
X10268428Y-10825868D01*
X10268428Y-10825868D02*
X10258904Y-10863963D01*
X10258904Y-10863963D02*
X10249381Y-10883010D01*
X10249381Y-10883010D02*
X10230333Y-10902058D01*
X10230333Y-10902058D02*
X10201761Y-10911582D01*
X10201761Y-10911582D02*
X10154142Y-10911582D01*
X10354142Y-10911582D02*
X10354142Y-10778249D01*
X10354142Y-10816344D02*
X10363666Y-10797296D01*
X10363666Y-10797296D02*
X10373190Y-10787772D01*
X10373190Y-10787772D02*
X10392238Y-10778249D01*
X10392238Y-10778249D02*
X10411285Y-10778249D01*
X10477952Y-10911582D02*
X10477952Y-10778249D01*
X10477952Y-10711582D02*
X10468428Y-10721106D01*
X10468428Y-10721106D02*
X10477952Y-10730630D01*
X10477952Y-10730630D02*
X10487476Y-10721106D01*
X10487476Y-10721106D02*
X10477952Y-10711582D01*
X10477952Y-10711582D02*
X10477952Y-10730630D01*
X10601761Y-10911582D02*
X10582714Y-10902058D01*
X10582714Y-10902058D02*
X10573190Y-10883010D01*
X10573190Y-10883010D02*
X10573190Y-10711582D01*
X10706523Y-10911582D02*
X10687476Y-10902058D01*
X10687476Y-10902058D02*
X10677952Y-10883010D01*
X10677952Y-10883010D02*
X10677952Y-10711582D01*
X10935095Y-10911582D02*
X10935095Y-10711582D01*
X10935095Y-10711582D02*
X11001762Y-10854439D01*
X11001762Y-10854439D02*
X11068428Y-10711582D01*
X11068428Y-10711582D02*
X11068428Y-10911582D01*
X11249380Y-10911582D02*
X11249380Y-10806820D01*
X11249380Y-10806820D02*
X11239857Y-10787772D01*
X11239857Y-10787772D02*
X11220809Y-10778249D01*
X11220809Y-10778249D02*
X11182714Y-10778249D01*
X11182714Y-10778249D02*
X11163666Y-10787772D01*
X11249380Y-10902058D02*
X11230333Y-10911582D01*
X11230333Y-10911582D02*
X11182714Y-10911582D01*
X11182714Y-10911582D02*
X11163666Y-10902058D01*
X11163666Y-10902058D02*
X11154142Y-10883010D01*
X11154142Y-10883010D02*
X11154142Y-10863963D01*
X11154142Y-10863963D02*
X11163666Y-10844915D01*
X11163666Y-10844915D02*
X11182714Y-10835391D01*
X11182714Y-10835391D02*
X11230333Y-10835391D01*
X11230333Y-10835391D02*
X11249380Y-10825868D01*
X11344619Y-10778249D02*
X11344619Y-10978249D01*
X11344619Y-10787772D02*
X11363666Y-10778249D01*
X11363666Y-10778249D02*
X11401761Y-10778249D01*
X11401761Y-10778249D02*
X11420809Y-10787772D01*
X11420809Y-10787772D02*
X11430333Y-10797296D01*
X11430333Y-10797296D02*
X11439857Y-10816344D01*
X11439857Y-10816344D02*
X11439857Y-10873487D01*
X11439857Y-10873487D02*
X11430333Y-10892534D01*
X11430333Y-10892534D02*
X11420809Y-10902058D01*
X11420809Y-10902058D02*
X11401761Y-10911582D01*
X11401761Y-10911582D02*
X11363666Y-10911582D01*
X11363666Y-10911582D02*
X11344619Y-10902058D01*
X11525571Y-10892534D02*
X11535095Y-10902058D01*
X11535095Y-10902058D02*
X11525571Y-10911582D01*
X11525571Y-10911582D02*
X11516047Y-10902058D01*
X11516047Y-10902058D02*
X11525571Y-10892534D01*
X11525571Y-10892534D02*
X11525571Y-10911582D01*
X11525571Y-10787772D02*
X11535095Y-10797296D01*
X11535095Y-10797296D02*
X11525571Y-10806820D01*
X11525571Y-10806820D02*
X11516047Y-10797296D01*
X11516047Y-10797296D02*
X11525571Y-10787772D01*
X11525571Y-10787772D02*
X11525571Y-10806820D01*
D12*
X9876523Y-11224058D02*
X9906523Y-11254058D01*
X9906523Y-11224058D02*
X9876523Y-11254058D01*
D11*
X10192238Y-11131582D02*
X10211285Y-11131582D01*
X10211285Y-11131582D02*
X10230333Y-11141106D01*
X10230333Y-11141106D02*
X10239857Y-11150630D01*
X10239857Y-11150630D02*
X10249381Y-11169677D01*
X10249381Y-11169677D02*
X10258904Y-11207772D01*
X10258904Y-11207772D02*
X10258904Y-11255391D01*
X10258904Y-11255391D02*
X10249381Y-11293487D01*
X10249381Y-11293487D02*
X10239857Y-11312534D01*
X10239857Y-11312534D02*
X10230333Y-11322058D01*
X10230333Y-11322058D02*
X10211285Y-11331582D01*
X10211285Y-11331582D02*
X10192238Y-11331582D01*
X10192238Y-11331582D02*
X10173190Y-11322058D01*
X10173190Y-11322058D02*
X10163666Y-11312534D01*
X10163666Y-11312534D02*
X10154142Y-11293487D01*
X10154142Y-11293487D02*
X10144619Y-11255391D01*
X10144619Y-11255391D02*
X10144619Y-11207772D01*
X10144619Y-11207772D02*
X10154142Y-11169677D01*
X10154142Y-11169677D02*
X10163666Y-11150630D01*
X10163666Y-11150630D02*
X10173190Y-11141106D01*
X10173190Y-11141106D02*
X10192238Y-11131582D01*
X10344619Y-11312534D02*
X10354142Y-11322058D01*
X10354142Y-11322058D02*
X10344619Y-11331582D01*
X10344619Y-11331582D02*
X10335095Y-11322058D01*
X10335095Y-11322058D02*
X10344619Y-11312534D01*
X10344619Y-11312534D02*
X10344619Y-11331582D01*
X10420809Y-11131582D02*
X10544619Y-11131582D01*
X10544619Y-11131582D02*
X10477952Y-11207772D01*
X10477952Y-11207772D02*
X10506523Y-11207772D01*
X10506523Y-11207772D02*
X10525571Y-11217296D01*
X10525571Y-11217296D02*
X10535095Y-11226820D01*
X10535095Y-11226820D02*
X10544619Y-11245868D01*
X10544619Y-11245868D02*
X10544619Y-11293487D01*
X10544619Y-11293487D02*
X10535095Y-11312534D01*
X10535095Y-11312534D02*
X10525571Y-11322058D01*
X10525571Y-11322058D02*
X10506523Y-11331582D01*
X10506523Y-11331582D02*
X10449381Y-11331582D01*
X10449381Y-11331582D02*
X10430333Y-11322058D01*
X10430333Y-11322058D02*
X10420809Y-11312534D01*
X10668428Y-11131582D02*
X10687476Y-11131582D01*
X10687476Y-11131582D02*
X10706523Y-11141106D01*
X10706523Y-11141106D02*
X10716047Y-11150630D01*
X10716047Y-11150630D02*
X10725571Y-11169677D01*
X10725571Y-11169677D02*
X10735095Y-11207772D01*
X10735095Y-11207772D02*
X10735095Y-11255391D01*
X10735095Y-11255391D02*
X10725571Y-11293487D01*
X10725571Y-11293487D02*
X10716047Y-11312534D01*
X10716047Y-11312534D02*
X10706523Y-11322058D01*
X10706523Y-11322058D02*
X10687476Y-11331582D01*
X10687476Y-11331582D02*
X10668428Y-11331582D01*
X10668428Y-11331582D02*
X10649381Y-11322058D01*
X10649381Y-11322058D02*
X10639857Y-11312534D01*
X10639857Y-11312534D02*
X10630333Y-11293487D01*
X10630333Y-11293487D02*
X10620809Y-11255391D01*
X10620809Y-11255391D02*
X10620809Y-11207772D01*
X10620809Y-11207772D02*
X10630333Y-11169677D01*
X10630333Y-11169677D02*
X10639857Y-11150630D01*
X10639857Y-11150630D02*
X10649381Y-11141106D01*
X10649381Y-11141106D02*
X10668428Y-11131582D01*
X10858904Y-11131582D02*
X10877952Y-11131582D01*
X10877952Y-11131582D02*
X10897000Y-11141106D01*
X10897000Y-11141106D02*
X10906523Y-11150630D01*
X10906523Y-11150630D02*
X10916047Y-11169677D01*
X10916047Y-11169677D02*
X10925571Y-11207772D01*
X10925571Y-11207772D02*
X10925571Y-11255391D01*
X10925571Y-11255391D02*
X10916047Y-11293487D01*
X10916047Y-11293487D02*
X10906523Y-11312534D01*
X10906523Y-11312534D02*
X10897000Y-11322058D01*
X10897000Y-11322058D02*
X10877952Y-11331582D01*
X10877952Y-11331582D02*
X10858904Y-11331582D01*
X10858904Y-11331582D02*
X10839857Y-11322058D01*
X10839857Y-11322058D02*
X10830333Y-11312534D01*
X10830333Y-11312534D02*
X10820809Y-11293487D01*
X10820809Y-11293487D02*
X10811285Y-11255391D01*
X10811285Y-11255391D02*
X10811285Y-11207772D01*
X10811285Y-11207772D02*
X10820809Y-11169677D01*
X10820809Y-11169677D02*
X10830333Y-11150630D01*
X10830333Y-11150630D02*
X10839857Y-11141106D01*
X10839857Y-11141106D02*
X10858904Y-11131582D01*
X11011285Y-11331582D02*
X11011285Y-11198248D01*
X11011285Y-11217296D02*
X11020809Y-11207772D01*
X11020809Y-11207772D02*
X11039857Y-11198248D01*
X11039857Y-11198248D02*
X11068428Y-11198248D01*
X11068428Y-11198248D02*
X11087476Y-11207772D01*
X11087476Y-11207772D02*
X11097000Y-11226820D01*
X11097000Y-11226820D02*
X11097000Y-11331582D01*
X11097000Y-11226820D02*
X11106523Y-11207772D01*
X11106523Y-11207772D02*
X11125571Y-11198248D01*
X11125571Y-11198248D02*
X11154142Y-11198248D01*
X11154142Y-11198248D02*
X11173190Y-11207772D01*
X11173190Y-11207772D02*
X11182714Y-11226820D01*
X11182714Y-11226820D02*
X11182714Y-11331582D01*
X11277952Y-11331582D02*
X11277952Y-11198248D01*
X11277952Y-11217296D02*
X11287476Y-11207772D01*
X11287476Y-11207772D02*
X11306523Y-11198248D01*
X11306523Y-11198248D02*
X11335095Y-11198248D01*
X11335095Y-11198248D02*
X11354142Y-11207772D01*
X11354142Y-11207772D02*
X11363666Y-11226820D01*
X11363666Y-11226820D02*
X11363666Y-11331582D01*
X11363666Y-11226820D02*
X11373190Y-11207772D01*
X11373190Y-11207772D02*
X11392238Y-11198248D01*
X11392238Y-11198248D02*
X11420809Y-11198248D01*
X11420809Y-11198248D02*
X11439857Y-11207772D01*
X11439857Y-11207772D02*
X11449381Y-11226820D01*
X11449381Y-11226820D02*
X11449381Y-11331582D01*
X11839857Y-11122058D02*
X11668428Y-11379201D01*
X12097000Y-11131582D02*
X12116047Y-11131582D01*
X12116047Y-11131582D02*
X12135095Y-11141106D01*
X12135095Y-11141106D02*
X12144619Y-11150630D01*
X12144619Y-11150630D02*
X12154143Y-11169677D01*
X12154143Y-11169677D02*
X12163666Y-11207772D01*
X12163666Y-11207772D02*
X12163666Y-11255391D01*
X12163666Y-11255391D02*
X12154143Y-11293487D01*
X12154143Y-11293487D02*
X12144619Y-11312534D01*
X12144619Y-11312534D02*
X12135095Y-11322058D01*
X12135095Y-11322058D02*
X12116047Y-11331582D01*
X12116047Y-11331582D02*
X12097000Y-11331582D01*
X12097000Y-11331582D02*
X12077952Y-11322058D01*
X12077952Y-11322058D02*
X12068428Y-11312534D01*
X12068428Y-11312534D02*
X12058904Y-11293487D01*
X12058904Y-11293487D02*
X12049381Y-11255391D01*
X12049381Y-11255391D02*
X12049381Y-11207772D01*
X12049381Y-11207772D02*
X12058904Y-11169677D01*
X12058904Y-11169677D02*
X12068428Y-11150630D01*
X12068428Y-11150630D02*
X12077952Y-11141106D01*
X12077952Y-11141106D02*
X12097000Y-11131582D01*
X12249381Y-11312534D02*
X12258904Y-11322058D01*
X12258904Y-11322058D02*
X12249381Y-11331582D01*
X12249381Y-11331582D02*
X12239857Y-11322058D01*
X12239857Y-11322058D02*
X12249381Y-11312534D01*
X12249381Y-11312534D02*
X12249381Y-11331582D01*
X12382714Y-11131582D02*
X12401762Y-11131582D01*
X12401762Y-11131582D02*
X12420809Y-11141106D01*
X12420809Y-11141106D02*
X12430333Y-11150630D01*
X12430333Y-11150630D02*
X12439857Y-11169677D01*
X12439857Y-11169677D02*
X12449381Y-11207772D01*
X12449381Y-11207772D02*
X12449381Y-11255391D01*
X12449381Y-11255391D02*
X12439857Y-11293487D01*
X12439857Y-11293487D02*
X12430333Y-11312534D01*
X12430333Y-11312534D02*
X12420809Y-11322058D01*
X12420809Y-11322058D02*
X12401762Y-11331582D01*
X12401762Y-11331582D02*
X12382714Y-11331582D01*
X12382714Y-11331582D02*
X12363666Y-11322058D01*
X12363666Y-11322058D02*
X12354143Y-11312534D01*
X12354143Y-11312534D02*
X12344619Y-11293487D01*
X12344619Y-11293487D02*
X12335095Y-11255391D01*
X12335095Y-11255391D02*
X12335095Y-11207772D01*
X12335095Y-11207772D02*
X12344619Y-11169677D01*
X12344619Y-11169677D02*
X12354143Y-11150630D01*
X12354143Y-11150630D02*
X12363666Y-11141106D01*
X12363666Y-11141106D02*
X12382714Y-11131582D01*
X12639857Y-11331582D02*
X12525571Y-11331582D01*
X12582714Y-11331582D02*
X12582714Y-11131582D01*
X12582714Y-11131582D02*
X12563666Y-11160153D01*
X12563666Y-11160153D02*
X12544619Y-11179201D01*
X12544619Y-11179201D02*
X12525571Y-11188725D01*
X12830333Y-11331582D02*
X12716047Y-11331582D01*
X12773190Y-11331582D02*
X12773190Y-11131582D01*
X12773190Y-11131582D02*
X12754143Y-11160153D01*
X12754143Y-11160153D02*
X12735095Y-11179201D01*
X12735095Y-11179201D02*
X12716047Y-11188725D01*
X12944619Y-11217296D02*
X12925571Y-11207772D01*
X12925571Y-11207772D02*
X12916047Y-11198248D01*
X12916047Y-11198248D02*
X12906524Y-11179201D01*
X12906524Y-11179201D02*
X12906524Y-11169677D01*
X12906524Y-11169677D02*
X12916047Y-11150630D01*
X12916047Y-11150630D02*
X12925571Y-11141106D01*
X12925571Y-11141106D02*
X12944619Y-11131582D01*
X12944619Y-11131582D02*
X12982714Y-11131582D01*
X12982714Y-11131582D02*
X13001762Y-11141106D01*
X13001762Y-11141106D02*
X13011285Y-11150630D01*
X13011285Y-11150630D02*
X13020809Y-11169677D01*
X13020809Y-11169677D02*
X13020809Y-11179201D01*
X13020809Y-11179201D02*
X13011285Y-11198248D01*
X13011285Y-11198248D02*
X13001762Y-11207772D01*
X13001762Y-11207772D02*
X12982714Y-11217296D01*
X12982714Y-11217296D02*
X12944619Y-11217296D01*
X12944619Y-11217296D02*
X12925571Y-11226820D01*
X12925571Y-11226820D02*
X12916047Y-11236344D01*
X12916047Y-11236344D02*
X12906524Y-11255391D01*
X12906524Y-11255391D02*
X12906524Y-11293487D01*
X12906524Y-11293487D02*
X12916047Y-11312534D01*
X12916047Y-11312534D02*
X12925571Y-11322058D01*
X12925571Y-11322058D02*
X12944619Y-11331582D01*
X12944619Y-11331582D02*
X12982714Y-11331582D01*
X12982714Y-11331582D02*
X13001762Y-11322058D01*
X13001762Y-11322058D02*
X13011285Y-11312534D01*
X13011285Y-11312534D02*
X13020809Y-11293487D01*
X13020809Y-11293487D02*
X13020809Y-11255391D01*
X13020809Y-11255391D02*
X13011285Y-11236344D01*
X13011285Y-11236344D02*
X13001762Y-11226820D01*
X13001762Y-11226820D02*
X12982714Y-11217296D01*
X13097000Y-11131582D02*
X13097000Y-11169677D01*
X13173190Y-11131582D02*
X13173190Y-11169677D01*
X13468428Y-11407772D02*
X13458905Y-11398248D01*
X13458905Y-11398248D02*
X13439857Y-11369677D01*
X13439857Y-11369677D02*
X13430333Y-11350629D01*
X13430333Y-11350629D02*
X13420809Y-11322058D01*
X13420809Y-11322058D02*
X13411286Y-11274439D01*
X13411286Y-11274439D02*
X13411286Y-11236344D01*
X13411286Y-11236344D02*
X13420809Y-11188725D01*
X13420809Y-11188725D02*
X13430333Y-11160153D01*
X13430333Y-11160153D02*
X13439857Y-11141106D01*
X13439857Y-11141106D02*
X13458905Y-11112534D01*
X13458905Y-11112534D02*
X13468428Y-11103010D01*
X13630333Y-11131582D02*
X13592238Y-11131582D01*
X13592238Y-11131582D02*
X13573190Y-11141106D01*
X13573190Y-11141106D02*
X13563666Y-11150630D01*
X13563666Y-11150630D02*
X13544619Y-11179201D01*
X13544619Y-11179201D02*
X13535095Y-11217296D01*
X13535095Y-11217296D02*
X13535095Y-11293487D01*
X13535095Y-11293487D02*
X13544619Y-11312534D01*
X13544619Y-11312534D02*
X13554143Y-11322058D01*
X13554143Y-11322058D02*
X13573190Y-11331582D01*
X13573190Y-11331582D02*
X13611286Y-11331582D01*
X13611286Y-11331582D02*
X13630333Y-11322058D01*
X13630333Y-11322058D02*
X13639857Y-11312534D01*
X13639857Y-11312534D02*
X13649381Y-11293487D01*
X13649381Y-11293487D02*
X13649381Y-11245868D01*
X13649381Y-11245868D02*
X13639857Y-11226820D01*
X13639857Y-11226820D02*
X13630333Y-11217296D01*
X13630333Y-11217296D02*
X13611286Y-11207772D01*
X13611286Y-11207772D02*
X13573190Y-11207772D01*
X13573190Y-11207772D02*
X13554143Y-11217296D01*
X13554143Y-11217296D02*
X13544619Y-11226820D01*
X13544619Y-11226820D02*
X13535095Y-11245868D01*
X13887476Y-11331582D02*
X13887476Y-11131582D01*
X13973190Y-11331582D02*
X13973190Y-11226820D01*
X13973190Y-11226820D02*
X13963667Y-11207772D01*
X13963667Y-11207772D02*
X13944619Y-11198248D01*
X13944619Y-11198248D02*
X13916047Y-11198248D01*
X13916047Y-11198248D02*
X13897000Y-11207772D01*
X13897000Y-11207772D02*
X13887476Y-11217296D01*
X14097000Y-11331582D02*
X14077952Y-11322058D01*
X14077952Y-11322058D02*
X14068428Y-11312534D01*
X14068428Y-11312534D02*
X14058905Y-11293487D01*
X14058905Y-11293487D02*
X14058905Y-11236344D01*
X14058905Y-11236344D02*
X14068428Y-11217296D01*
X14068428Y-11217296D02*
X14077952Y-11207772D01*
X14077952Y-11207772D02*
X14097000Y-11198248D01*
X14097000Y-11198248D02*
X14125571Y-11198248D01*
X14125571Y-11198248D02*
X14144619Y-11207772D01*
X14144619Y-11207772D02*
X14154143Y-11217296D01*
X14154143Y-11217296D02*
X14163667Y-11236344D01*
X14163667Y-11236344D02*
X14163667Y-11293487D01*
X14163667Y-11293487D02*
X14154143Y-11312534D01*
X14154143Y-11312534D02*
X14144619Y-11322058D01*
X14144619Y-11322058D02*
X14125571Y-11331582D01*
X14125571Y-11331582D02*
X14097000Y-11331582D01*
X14277952Y-11331582D02*
X14258905Y-11322058D01*
X14258905Y-11322058D02*
X14249381Y-11303010D01*
X14249381Y-11303010D02*
X14249381Y-11131582D01*
X14430333Y-11322058D02*
X14411286Y-11331582D01*
X14411286Y-11331582D02*
X14373190Y-11331582D01*
X14373190Y-11331582D02*
X14354143Y-11322058D01*
X14354143Y-11322058D02*
X14344619Y-11303010D01*
X14344619Y-11303010D02*
X14344619Y-11226820D01*
X14344619Y-11226820D02*
X14354143Y-11207772D01*
X14354143Y-11207772D02*
X14373190Y-11198248D01*
X14373190Y-11198248D02*
X14411286Y-11198248D01*
X14411286Y-11198248D02*
X14430333Y-11207772D01*
X14430333Y-11207772D02*
X14439857Y-11226820D01*
X14439857Y-11226820D02*
X14439857Y-11245868D01*
X14439857Y-11245868D02*
X14344619Y-11264915D01*
X14516048Y-11322058D02*
X14535095Y-11331582D01*
X14535095Y-11331582D02*
X14573190Y-11331582D01*
X14573190Y-11331582D02*
X14592238Y-11322058D01*
X14592238Y-11322058D02*
X14601762Y-11303010D01*
X14601762Y-11303010D02*
X14601762Y-11293487D01*
X14601762Y-11293487D02*
X14592238Y-11274439D01*
X14592238Y-11274439D02*
X14573190Y-11264915D01*
X14573190Y-11264915D02*
X14544619Y-11264915D01*
X14544619Y-11264915D02*
X14525571Y-11255391D01*
X14525571Y-11255391D02*
X14516048Y-11236344D01*
X14516048Y-11236344D02*
X14516048Y-11226820D01*
X14516048Y-11226820D02*
X14525571Y-11207772D01*
X14525571Y-11207772D02*
X14544619Y-11198248D01*
X14544619Y-11198248D02*
X14573190Y-11198248D01*
X14573190Y-11198248D02*
X14592238Y-11207772D01*
X14668429Y-11407772D02*
X14677952Y-11398248D01*
X14677952Y-11398248D02*
X14697000Y-11369677D01*
X14697000Y-11369677D02*
X14706524Y-11350629D01*
X14706524Y-11350629D02*
X14716048Y-11322058D01*
X14716048Y-11322058D02*
X14725571Y-11274439D01*
X14725571Y-11274439D02*
X14725571Y-11236344D01*
X14725571Y-11236344D02*
X14716048Y-11188725D01*
X14716048Y-11188725D02*
X14706524Y-11160153D01*
X14706524Y-11160153D02*
X14697000Y-11141106D01*
X14697000Y-11141106D02*
X14677952Y-11112534D01*
X14677952Y-11112534D02*
X14668429Y-11103010D01*
M02*
