%TF.GenerationSoftware,KiCad,Pcbnew,7.0.2-0*%
%TF.CreationDate,2023-11-12T18:23:23-05:00*%
%TF.ProjectId,Audio Module,41756469-6f20-44d6-9f64-756c652e6b69,rev?*%
%TF.SameCoordinates,Original*%
%TF.FileFunction,Soldermask,Top*%
%TF.FilePolarity,Negative*%
%FSLAX46Y46*%
G04 Gerber Fmt 4.6, Leading zero omitted, Abs format (unit mm)*
G04 Created by KiCad (PCBNEW 7.0.2-0) date 2023-11-12 18:23:23*
%MOMM*%
%LPD*%
G01*
G04 APERTURE LIST*
G04 Aperture macros list*
%AMRoundRect*
0 Rectangle with rounded corners*
0 $1 Rounding radius*
0 $2 $3 $4 $5 $6 $7 $8 $9 X,Y pos of 4 corners*
0 Add a 4 corners polygon primitive as box body*
4,1,4,$2,$3,$4,$5,$6,$7,$8,$9,$2,$3,0*
0 Add four circle primitives for the rounded corners*
1,1,$1+$1,$2,$3*
1,1,$1+$1,$4,$5*
1,1,$1+$1,$6,$7*
1,1,$1+$1,$8,$9*
0 Add four rect primitives between the rounded corners*
20,1,$1+$1,$2,$3,$4,$5,0*
20,1,$1+$1,$4,$5,$6,$7,0*
20,1,$1+$1,$6,$7,$8,$9,0*
20,1,$1+$1,$8,$9,$2,$3,0*%
%AMRotRect*
0 Rectangle, with rotation*
0 The origin of the aperture is its center*
0 $1 length*
0 $2 width*
0 $3 Rotation angle, in degrees counterclockwise*
0 Add horizontal line*
21,1,$1,$2,0,0,$3*%
G04 Aperture macros list end*
%ADD10R,2.750000X1.000000*%
%ADD11RoundRect,0.250000X0.412500X0.650000X-0.412500X0.650000X-0.412500X-0.650000X0.412500X-0.650000X0*%
%ADD12RoundRect,0.250000X-0.412500X-0.650000X0.412500X-0.650000X0.412500X0.650000X-0.412500X0.650000X0*%
%ADD13RoundRect,0.250000X0.400000X0.625000X-0.400000X0.625000X-0.400000X-0.625000X0.400000X-0.625000X0*%
%ADD14R,1.050000X0.650000*%
%ADD15RotRect,0.200000X0.800000X135.000000*%
%ADD16RotRect,0.200000X0.800000X45.000000*%
%ADD17RotRect,1.800000X1.800000X45.000000*%
G04 APERTURE END LIST*
D10*
%TO.C,J1*%
X112930000Y-85060000D03*
X106680000Y-85060000D03*
X112930000Y-87060000D03*
X106680000Y-87060000D03*
X112930000Y-89060000D03*
X106680000Y-89060000D03*
X112930000Y-91060000D03*
X106680000Y-91060000D03*
X112930000Y-93060000D03*
X106680000Y-93060000D03*
X112930000Y-95060000D03*
X106680000Y-95060000D03*
X112930000Y-97060000D03*
X106680000Y-97060000D03*
X112930000Y-99060000D03*
X106680000Y-99060000D03*
%TD*%
D11*
%TO.C,C14*%
X119380000Y-99060000D03*
X116255000Y-99060000D03*
%TD*%
D12*
%TO.C,C10*%
X100225700Y-91834300D03*
X103350700Y-91834300D03*
%TD*%
%TO.C,C5*%
X100314300Y-104140000D03*
X103439300Y-104140000D03*
%TD*%
%TO.C,C2*%
X100355500Y-95791900D03*
X103480500Y-95791900D03*
%TD*%
D13*
%TO.C,R1*%
X119246000Y-74511700D03*
X116146000Y-74511700D03*
%TD*%
D11*
%TO.C,C13*%
X119347600Y-95164700D03*
X116222600Y-95164700D03*
%TD*%
D14*
%TO.C,IC2*%
X110873700Y-104732000D03*
X110873700Y-102812000D03*
X108673700Y-103772000D03*
%TD*%
D12*
%TO.C,C6*%
X100420400Y-78339500D03*
X103545400Y-78339500D03*
%TD*%
D15*
%TO.C,IC1*%
X114722754Y-80628475D03*
X115005597Y-80911317D03*
X115288440Y-81194160D03*
X115571283Y-81477003D03*
X115854125Y-81759846D03*
D16*
X116844075Y-81759846D03*
X117126917Y-81477003D03*
X117409760Y-81194160D03*
X117692603Y-80911317D03*
X117975446Y-80628475D03*
D15*
X117975446Y-79638525D03*
X117692603Y-79355683D03*
X117409760Y-79072840D03*
X117126917Y-78789997D03*
X116844075Y-78507154D03*
D16*
X115854125Y-78507154D03*
X115571283Y-78789997D03*
X115288440Y-79072840D03*
X115005597Y-79355683D03*
X114722754Y-79638525D03*
D17*
X116349100Y-80133500D03*
%TD*%
D12*
%TO.C,C8*%
X116255000Y-91440000D03*
X119380000Y-91440000D03*
%TD*%
%TO.C,C7*%
X114109800Y-103707100D03*
X117234800Y-103707100D03*
%TD*%
%TO.C,C3*%
X100355500Y-87746900D03*
X103480500Y-87746900D03*
%TD*%
%TO.C,C4*%
X100355500Y-99749500D03*
X103480500Y-99749500D03*
%TD*%
D11*
%TO.C,C12*%
X103565200Y-74339000D03*
X100440200Y-74339000D03*
%TD*%
%TO.C,C9*%
X119406900Y-87629500D03*
X116281900Y-87629500D03*
%TD*%
D12*
%TO.C,C11*%
X107697600Y-74446800D03*
X110822600Y-74446800D03*
%TD*%
%TO.C,C1*%
X100355500Y-83205400D03*
X103480500Y-83205400D03*
%TD*%
D13*
%TO.C,R2*%
X109831500Y-80415700D03*
X106731500Y-80415700D03*
%TD*%
M02*
