%TF.GenerationSoftware,KiCad,Pcbnew,7.0.2-0*%
%TF.CreationDate,2023-11-12T18:26:11-05:00*%
%TF.ProjectId,LCD Module,4c434420-4d6f-4647-956c-652e6b696361,rev?*%
%TF.SameCoordinates,Original*%
%TF.FileFunction,Soldermask,Bot*%
%TF.FilePolarity,Negative*%
%FSLAX46Y46*%
G04 Gerber Fmt 4.6, Leading zero omitted, Abs format (unit mm)*
G04 Created by KiCad (PCBNEW 7.0.2-0) date 2023-11-12 18:26:11*
%MOMM*%
%LPD*%
G01*
G04 APERTURE LIST*
G04 Aperture macros list*
%AMRoundRect*
0 Rectangle with rounded corners*
0 $1 Rounding radius*
0 $2 $3 $4 $5 $6 $7 $8 $9 X,Y pos of 4 corners*
0 Add a 4 corners polygon primitive as box body*
4,1,4,$2,$3,$4,$5,$6,$7,$8,$9,$2,$3,0*
0 Add four circle primitives for the rounded corners*
1,1,$1+$1,$2,$3*
1,1,$1+$1,$4,$5*
1,1,$1+$1,$6,$7*
1,1,$1+$1,$8,$9*
0 Add four rect primitives between the rounded corners*
20,1,$1+$1,$2,$3,$4,$5,0*
20,1,$1+$1,$4,$5,$6,$7,0*
20,1,$1+$1,$6,$7,$8,$9,0*
20,1,$1+$1,$8,$9,$2,$3,0*%
G04 Aperture macros list end*
%ADD10C,1.200000*%
%ADD11C,2.310000*%
%ADD12R,1.000000X2.580000*%
%ADD13RoundRect,0.250000X-0.650000X0.412500X-0.650000X-0.412500X0.650000X-0.412500X0.650000X0.412500X0*%
%ADD14RoundRect,0.250000X-0.375000X-0.625000X0.375000X-0.625000X0.375000X0.625000X-0.375000X0.625000X0*%
G04 APERTURE END LIST*
D10*
%TO.C,LCDScreen1*%
X111042500Y-93955000D03*
X112542500Y-93955000D03*
X114042500Y-93955000D03*
X115542500Y-93955000D03*
X117042500Y-93955000D03*
X118542500Y-93955000D03*
X120042500Y-93955000D03*
X121542500Y-93955000D03*
X123042500Y-93955000D03*
X124542500Y-93955000D03*
X126042500Y-93955000D03*
X127542500Y-93955000D03*
X129042500Y-93955000D03*
X130542500Y-93955000D03*
X132042500Y-93955000D03*
X133542500Y-93955000D03*
X135042500Y-93955000D03*
D11*
X105742500Y-92155000D03*
X140342500Y-92155000D03*
%TD*%
D12*
%TO.C,J1*%
X121000000Y-74700000D03*
X121000000Y-78870000D03*
X123000000Y-74700000D03*
X123000000Y-78870000D03*
X125000000Y-74700000D03*
X125000000Y-78870000D03*
X127000000Y-74700000D03*
X127000000Y-78870000D03*
%TD*%
D13*
%TO.C,C5*%
X140108800Y-72927900D03*
X140108800Y-76052900D03*
%TD*%
%TO.C,C6*%
X134874700Y-72889400D03*
X134874700Y-76014400D03*
%TD*%
%TO.C,C8*%
X140185800Y-85428200D03*
X140185800Y-88553200D03*
%TD*%
%TO.C,C7*%
X140108800Y-79586000D03*
X140108800Y-82711000D03*
%TD*%
%TO.C,C1*%
X124460000Y-85775000D03*
X124460000Y-88900000D03*
%TD*%
%TO.C,C2*%
X130525800Y-85620600D03*
X130525800Y-88745600D03*
%TD*%
D14*
%TO.C,R1*%
X106420000Y-81280000D03*
X109220000Y-81280000D03*
%TD*%
D13*
%TO.C,C4*%
X135144100Y-79470500D03*
X135144100Y-82595500D03*
%TD*%
%TO.C,C3*%
X135221100Y-85582100D03*
X135221100Y-88707100D03*
%TD*%
M02*
