%TF.GenerationSoftware,KiCad,Pcbnew,7.0.2-0*%
%TF.CreationDate,2023-11-12T18:26:11-05:00*%
%TF.ProjectId,LCD Module,4c434420-4d6f-4647-956c-652e6b696361,rev?*%
%TF.SameCoordinates,Original*%
%TF.FileFunction,Legend,Top*%
%TF.FilePolarity,Positive*%
%FSLAX46Y46*%
G04 Gerber Fmt 4.6, Leading zero omitted, Abs format (unit mm)*
G04 Created by KiCad (PCBNEW 7.0.2-0) date 2023-11-12 18:26:11*
%MOMM*%
%LPD*%
G01*
G04 APERTURE LIST*
%ADD10C,0.254000*%
%ADD11C,0.100000*%
G04 APERTURE END LIST*
D10*
%TO.C,LCDScreen1*%
X118355595Y-83142526D02*
X117750833Y-83142526D01*
X117750833Y-83142526D02*
X117750833Y-81872526D01*
X119504643Y-83021573D02*
X119444167Y-83082050D01*
X119444167Y-83082050D02*
X119262738Y-83142526D01*
X119262738Y-83142526D02*
X119141786Y-83142526D01*
X119141786Y-83142526D02*
X118960357Y-83082050D01*
X118960357Y-83082050D02*
X118839405Y-82961097D01*
X118839405Y-82961097D02*
X118778928Y-82840145D01*
X118778928Y-82840145D02*
X118718452Y-82598240D01*
X118718452Y-82598240D02*
X118718452Y-82416811D01*
X118718452Y-82416811D02*
X118778928Y-82174907D01*
X118778928Y-82174907D02*
X118839405Y-82053954D01*
X118839405Y-82053954D02*
X118960357Y-81933002D01*
X118960357Y-81933002D02*
X119141786Y-81872526D01*
X119141786Y-81872526D02*
X119262738Y-81872526D01*
X119262738Y-81872526D02*
X119444167Y-81933002D01*
X119444167Y-81933002D02*
X119504643Y-81993478D01*
X120048928Y-83142526D02*
X120048928Y-81872526D01*
X120048928Y-81872526D02*
X120351309Y-81872526D01*
X120351309Y-81872526D02*
X120532738Y-81933002D01*
X120532738Y-81933002D02*
X120653690Y-82053954D01*
X120653690Y-82053954D02*
X120714167Y-82174907D01*
X120714167Y-82174907D02*
X120774643Y-82416811D01*
X120774643Y-82416811D02*
X120774643Y-82598240D01*
X120774643Y-82598240D02*
X120714167Y-82840145D01*
X120714167Y-82840145D02*
X120653690Y-82961097D01*
X120653690Y-82961097D02*
X120532738Y-83082050D01*
X120532738Y-83082050D02*
X120351309Y-83142526D01*
X120351309Y-83142526D02*
X120048928Y-83142526D01*
X121258452Y-83082050D02*
X121439881Y-83142526D01*
X121439881Y-83142526D02*
X121742262Y-83142526D01*
X121742262Y-83142526D02*
X121863214Y-83082050D01*
X121863214Y-83082050D02*
X121923690Y-83021573D01*
X121923690Y-83021573D02*
X121984167Y-82900621D01*
X121984167Y-82900621D02*
X121984167Y-82779669D01*
X121984167Y-82779669D02*
X121923690Y-82658716D01*
X121923690Y-82658716D02*
X121863214Y-82598240D01*
X121863214Y-82598240D02*
X121742262Y-82537764D01*
X121742262Y-82537764D02*
X121500357Y-82477288D01*
X121500357Y-82477288D02*
X121379405Y-82416811D01*
X121379405Y-82416811D02*
X121318928Y-82356335D01*
X121318928Y-82356335D02*
X121258452Y-82235383D01*
X121258452Y-82235383D02*
X121258452Y-82114430D01*
X121258452Y-82114430D02*
X121318928Y-81993478D01*
X121318928Y-81993478D02*
X121379405Y-81933002D01*
X121379405Y-81933002D02*
X121500357Y-81872526D01*
X121500357Y-81872526D02*
X121802738Y-81872526D01*
X121802738Y-81872526D02*
X121984167Y-81933002D01*
X123072738Y-83082050D02*
X122951786Y-83142526D01*
X122951786Y-83142526D02*
X122709881Y-83142526D01*
X122709881Y-83142526D02*
X122588929Y-83082050D01*
X122588929Y-83082050D02*
X122528452Y-83021573D01*
X122528452Y-83021573D02*
X122467976Y-82900621D01*
X122467976Y-82900621D02*
X122467976Y-82537764D01*
X122467976Y-82537764D02*
X122528452Y-82416811D01*
X122528452Y-82416811D02*
X122588929Y-82356335D01*
X122588929Y-82356335D02*
X122709881Y-82295859D01*
X122709881Y-82295859D02*
X122951786Y-82295859D01*
X122951786Y-82295859D02*
X123072738Y-82356335D01*
X123617023Y-83142526D02*
X123617023Y-82295859D01*
X123617023Y-82537764D02*
X123677500Y-82416811D01*
X123677500Y-82416811D02*
X123737976Y-82356335D01*
X123737976Y-82356335D02*
X123858928Y-82295859D01*
X123858928Y-82295859D02*
X123979881Y-82295859D01*
X124887023Y-83082050D02*
X124766071Y-83142526D01*
X124766071Y-83142526D02*
X124524166Y-83142526D01*
X124524166Y-83142526D02*
X124403213Y-83082050D01*
X124403213Y-83082050D02*
X124342737Y-82961097D01*
X124342737Y-82961097D02*
X124342737Y-82477288D01*
X124342737Y-82477288D02*
X124403213Y-82356335D01*
X124403213Y-82356335D02*
X124524166Y-82295859D01*
X124524166Y-82295859D02*
X124766071Y-82295859D01*
X124766071Y-82295859D02*
X124887023Y-82356335D01*
X124887023Y-82356335D02*
X124947499Y-82477288D01*
X124947499Y-82477288D02*
X124947499Y-82598240D01*
X124947499Y-82598240D02*
X124342737Y-82719192D01*
X125975594Y-83082050D02*
X125854642Y-83142526D01*
X125854642Y-83142526D02*
X125612737Y-83142526D01*
X125612737Y-83142526D02*
X125491784Y-83082050D01*
X125491784Y-83082050D02*
X125431308Y-82961097D01*
X125431308Y-82961097D02*
X125431308Y-82477288D01*
X125431308Y-82477288D02*
X125491784Y-82356335D01*
X125491784Y-82356335D02*
X125612737Y-82295859D01*
X125612737Y-82295859D02*
X125854642Y-82295859D01*
X125854642Y-82295859D02*
X125975594Y-82356335D01*
X125975594Y-82356335D02*
X126036070Y-82477288D01*
X126036070Y-82477288D02*
X126036070Y-82598240D01*
X126036070Y-82598240D02*
X125431308Y-82719192D01*
X126580355Y-82295859D02*
X126580355Y-83142526D01*
X126580355Y-82416811D02*
X126640832Y-82356335D01*
X126640832Y-82356335D02*
X126761784Y-82295859D01*
X126761784Y-82295859D02*
X126943213Y-82295859D01*
X126943213Y-82295859D02*
X127064165Y-82356335D01*
X127064165Y-82356335D02*
X127124641Y-82477288D01*
X127124641Y-82477288D02*
X127124641Y-83142526D01*
X128394642Y-83142526D02*
X127668927Y-83142526D01*
X128031784Y-83142526D02*
X128031784Y-81872526D01*
X128031784Y-81872526D02*
X127910832Y-82053954D01*
X127910832Y-82053954D02*
X127789880Y-82174907D01*
X127789880Y-82174907D02*
X127668927Y-82235383D01*
D11*
X102342500Y-70405000D02*
X143742500Y-70405000D01*
X102342500Y-94705000D02*
X102342500Y-70405000D01*
X143742500Y-70405000D02*
X143742500Y-94705000D01*
X143742500Y-94705000D02*
X102342500Y-94705000D01*
%TD*%
M02*
