%TF.GenerationSoftware,KiCad,Pcbnew,7.0.2-0*%
%TF.CreationDate,2023-11-12T18:26:15-05:00*%
%TF.ProjectId,LCD Module,4c434420-4d6f-4647-956c-652e6b696361,rev?*%
%TF.SameCoordinates,Original*%
%TF.FileFunction,Drillmap*%
%TF.FilePolarity,Positive*%
%FSLAX45Y45*%
G04 Gerber Fmt 4.5, Leading zero omitted, Abs format (unit mm)*
G04 Created by KiCad (PCBNEW 7.0.2-0) date 2023-11-12 18:26:15*
%MOMM*%
%LPD*%
G01*
G04 APERTURE LIST*
%ADD10C,0.100000*%
%ADD11C,0.200000*%
%ADD12C,0.040000*%
%ADD13C,0.070000*%
%ADD14C,0.154000*%
%ADD15C,0.280000*%
G04 APERTURE END LIST*
D10*
X12733867Y-6937120D02*
X14473328Y-6937346D01*
X14472620Y-7558456D01*
X14960404Y-7805776D01*
X14960404Y-8219731D01*
X14472620Y-8480411D01*
X14468719Y-9566906D01*
X10121810Y-9571271D01*
X10130173Y-8469234D01*
X9626301Y-8208453D01*
X9633948Y-7817054D01*
X10135885Y-7564800D01*
X10133025Y-6936677D01*
X11862939Y-6937120D01*
X12113071Y-6349773D01*
X12484539Y-6349773D01*
X12733867Y-6937120D01*
D11*
D12*
X11067400Y-9237490D02*
X11107400Y-9277490D01*
X11107400Y-9237490D02*
X11067400Y-9277490D01*
X11778650Y-9108790D02*
X11818650Y-9148790D01*
X11818650Y-9108790D02*
X11778650Y-9148790D01*
X11880220Y-9130930D02*
X11920220Y-9170930D01*
X11920220Y-9130930D02*
X11880220Y-9170930D01*
X12534900Y-8073870D02*
X12574900Y-8113870D01*
X12574900Y-8073870D02*
X12534900Y-8113870D01*
X13680360Y-7283860D02*
X13720360Y-7323860D01*
X13720360Y-7283860D02*
X13680360Y-7323860D01*
X13694630Y-8377760D02*
X13734630Y-8417760D01*
X13734630Y-8377760D02*
X13694630Y-8417760D01*
D13*
X11139250Y-9395500D02*
G75*
G03*
X11139250Y-9395500I-35000J0D01*
G01*
X11289250Y-9395500D02*
G75*
G03*
X11289250Y-9395500I-35000J0D01*
G01*
X11439250Y-9395500D02*
G75*
G03*
X11439250Y-9395500I-35000J0D01*
G01*
X11589250Y-9395500D02*
G75*
G03*
X11589250Y-9395500I-35000J0D01*
G01*
X11739250Y-9395500D02*
G75*
G03*
X11739250Y-9395500I-35000J0D01*
G01*
X11889250Y-9395500D02*
G75*
G03*
X11889250Y-9395500I-35000J0D01*
G01*
X12039250Y-9395500D02*
G75*
G03*
X12039250Y-9395500I-35000J0D01*
G01*
X12189250Y-9395500D02*
G75*
G03*
X12189250Y-9395500I-35000J0D01*
G01*
X12339250Y-9395500D02*
G75*
G03*
X12339250Y-9395500I-35000J0D01*
G01*
X12489250Y-9395500D02*
G75*
G03*
X12489250Y-9395500I-35000J0D01*
G01*
X12639250Y-9395500D02*
G75*
G03*
X12639250Y-9395500I-35000J0D01*
G01*
X12789250Y-9395500D02*
G75*
G03*
X12789250Y-9395500I-35000J0D01*
G01*
X12939250Y-9395500D02*
G75*
G03*
X12939250Y-9395500I-35000J0D01*
G01*
X13089250Y-9395500D02*
G75*
G03*
X13089250Y-9395500I-35000J0D01*
G01*
X13239250Y-9395500D02*
G75*
G03*
X13239250Y-9395500I-35000J0D01*
G01*
X13389250Y-9395500D02*
G75*
G03*
X13389250Y-9395500I-35000J0D01*
G01*
X13539250Y-9395500D02*
G75*
G03*
X13539250Y-9395500I-35000J0D01*
G01*
D14*
X10574250Y-9138500D02*
X10574250Y-9292500D01*
X10497250Y-9215500D02*
X10651250Y-9215500D01*
X14034250Y-9138500D02*
X14034250Y-9292500D01*
X13957250Y-9215500D02*
X14111250Y-9215500D01*
D15*
X9934108Y-8126988D02*
X9934108Y-7928997D01*
X9736117Y-7928997D01*
X9736117Y-8126988D01*
X9934108Y-8126988D01*
X12406074Y-6707278D02*
X12406074Y-6509287D01*
X12208082Y-6509287D01*
X12208082Y-6707278D01*
X12406074Y-6707278D01*
X14827932Y-8126988D02*
X14827932Y-7928997D01*
X14629941Y-7928997D01*
X14629941Y-8126988D01*
X14827932Y-8126988D01*
D11*
X9868920Y-9888795D02*
X9868920Y-9688795D01*
X9868920Y-9688795D02*
X9916539Y-9688795D01*
X9916539Y-9688795D02*
X9945111Y-9698319D01*
X9945111Y-9698319D02*
X9964159Y-9717366D01*
X9964159Y-9717366D02*
X9973682Y-9736414D01*
X9973682Y-9736414D02*
X9983206Y-9774509D01*
X9983206Y-9774509D02*
X9983206Y-9803080D01*
X9983206Y-9803080D02*
X9973682Y-9841176D01*
X9973682Y-9841176D02*
X9964159Y-9860223D01*
X9964159Y-9860223D02*
X9945111Y-9879271D01*
X9945111Y-9879271D02*
X9916539Y-9888795D01*
X9916539Y-9888795D02*
X9868920Y-9888795D01*
X10068920Y-9888795D02*
X10068920Y-9755461D01*
X10068920Y-9793557D02*
X10078444Y-9774509D01*
X10078444Y-9774509D02*
X10087968Y-9764985D01*
X10087968Y-9764985D02*
X10107016Y-9755461D01*
X10107016Y-9755461D02*
X10126063Y-9755461D01*
X10192730Y-9888795D02*
X10192730Y-9755461D01*
X10192730Y-9688795D02*
X10183206Y-9698319D01*
X10183206Y-9698319D02*
X10192730Y-9707842D01*
X10192730Y-9707842D02*
X10202254Y-9698319D01*
X10202254Y-9698319D02*
X10192730Y-9688795D01*
X10192730Y-9688795D02*
X10192730Y-9707842D01*
X10316539Y-9888795D02*
X10297492Y-9879271D01*
X10297492Y-9879271D02*
X10287968Y-9860223D01*
X10287968Y-9860223D02*
X10287968Y-9688795D01*
X10421301Y-9888795D02*
X10402254Y-9879271D01*
X10402254Y-9879271D02*
X10392730Y-9860223D01*
X10392730Y-9860223D02*
X10392730Y-9688795D01*
X10649873Y-9888795D02*
X10649873Y-9688795D01*
X10649873Y-9688795D02*
X10716540Y-9831652D01*
X10716540Y-9831652D02*
X10783206Y-9688795D01*
X10783206Y-9688795D02*
X10783206Y-9888795D01*
X10964159Y-9888795D02*
X10964159Y-9784033D01*
X10964159Y-9784033D02*
X10954635Y-9764985D01*
X10954635Y-9764985D02*
X10935587Y-9755461D01*
X10935587Y-9755461D02*
X10897492Y-9755461D01*
X10897492Y-9755461D02*
X10878444Y-9764985D01*
X10964159Y-9879271D02*
X10945111Y-9888795D01*
X10945111Y-9888795D02*
X10897492Y-9888795D01*
X10897492Y-9888795D02*
X10878444Y-9879271D01*
X10878444Y-9879271D02*
X10868920Y-9860223D01*
X10868920Y-9860223D02*
X10868920Y-9841176D01*
X10868920Y-9841176D02*
X10878444Y-9822128D01*
X10878444Y-9822128D02*
X10897492Y-9812604D01*
X10897492Y-9812604D02*
X10945111Y-9812604D01*
X10945111Y-9812604D02*
X10964159Y-9803080D01*
X11059397Y-9755461D02*
X11059397Y-9955461D01*
X11059397Y-9764985D02*
X11078444Y-9755461D01*
X11078444Y-9755461D02*
X11116540Y-9755461D01*
X11116540Y-9755461D02*
X11135587Y-9764985D01*
X11135587Y-9764985D02*
X11145111Y-9774509D01*
X11145111Y-9774509D02*
X11154635Y-9793557D01*
X11154635Y-9793557D02*
X11154635Y-9850699D01*
X11154635Y-9850699D02*
X11145111Y-9869747D01*
X11145111Y-9869747D02*
X11135587Y-9879271D01*
X11135587Y-9879271D02*
X11116540Y-9888795D01*
X11116540Y-9888795D02*
X11078444Y-9888795D01*
X11078444Y-9888795D02*
X11059397Y-9879271D01*
X11240349Y-9869747D02*
X11249873Y-9879271D01*
X11249873Y-9879271D02*
X11240349Y-9888795D01*
X11240349Y-9888795D02*
X11230825Y-9879271D01*
X11230825Y-9879271D02*
X11240349Y-9869747D01*
X11240349Y-9869747D02*
X11240349Y-9888795D01*
X11240349Y-9764985D02*
X11249873Y-9774509D01*
X11249873Y-9774509D02*
X11240349Y-9784033D01*
X11240349Y-9784033D02*
X11230825Y-9774509D01*
X11230825Y-9774509D02*
X11240349Y-9764985D01*
X11240349Y-9764985D02*
X11240349Y-9784033D01*
D12*
X9581301Y-10196271D02*
X9621301Y-10236271D01*
X9621301Y-10196271D02*
X9581301Y-10236271D01*
D11*
X9907016Y-10108795D02*
X9926063Y-10108795D01*
X9926063Y-10108795D02*
X9945111Y-10118319D01*
X9945111Y-10118319D02*
X9954635Y-10127842D01*
X9954635Y-10127842D02*
X9964159Y-10146890D01*
X9964159Y-10146890D02*
X9973682Y-10184985D01*
X9973682Y-10184985D02*
X9973682Y-10232604D01*
X9973682Y-10232604D02*
X9964159Y-10270699D01*
X9964159Y-10270699D02*
X9954635Y-10289747D01*
X9954635Y-10289747D02*
X9945111Y-10299271D01*
X9945111Y-10299271D02*
X9926063Y-10308795D01*
X9926063Y-10308795D02*
X9907016Y-10308795D01*
X9907016Y-10308795D02*
X9887968Y-10299271D01*
X9887968Y-10299271D02*
X9878444Y-10289747D01*
X9878444Y-10289747D02*
X9868920Y-10270699D01*
X9868920Y-10270699D02*
X9859397Y-10232604D01*
X9859397Y-10232604D02*
X9859397Y-10184985D01*
X9859397Y-10184985D02*
X9868920Y-10146890D01*
X9868920Y-10146890D02*
X9878444Y-10127842D01*
X9878444Y-10127842D02*
X9887968Y-10118319D01*
X9887968Y-10118319D02*
X9907016Y-10108795D01*
X10059397Y-10289747D02*
X10068920Y-10299271D01*
X10068920Y-10299271D02*
X10059397Y-10308795D01*
X10059397Y-10308795D02*
X10049873Y-10299271D01*
X10049873Y-10299271D02*
X10059397Y-10289747D01*
X10059397Y-10289747D02*
X10059397Y-10308795D01*
X10240349Y-10175461D02*
X10240349Y-10308795D01*
X10192730Y-10099271D02*
X10145111Y-10242128D01*
X10145111Y-10242128D02*
X10268920Y-10242128D01*
X10383206Y-10108795D02*
X10402254Y-10108795D01*
X10402254Y-10108795D02*
X10421301Y-10118319D01*
X10421301Y-10118319D02*
X10430825Y-10127842D01*
X10430825Y-10127842D02*
X10440349Y-10146890D01*
X10440349Y-10146890D02*
X10449873Y-10184985D01*
X10449873Y-10184985D02*
X10449873Y-10232604D01*
X10449873Y-10232604D02*
X10440349Y-10270699D01*
X10440349Y-10270699D02*
X10430825Y-10289747D01*
X10430825Y-10289747D02*
X10421301Y-10299271D01*
X10421301Y-10299271D02*
X10402254Y-10308795D01*
X10402254Y-10308795D02*
X10383206Y-10308795D01*
X10383206Y-10308795D02*
X10364159Y-10299271D01*
X10364159Y-10299271D02*
X10354635Y-10289747D01*
X10354635Y-10289747D02*
X10345111Y-10270699D01*
X10345111Y-10270699D02*
X10335587Y-10232604D01*
X10335587Y-10232604D02*
X10335587Y-10184985D01*
X10335587Y-10184985D02*
X10345111Y-10146890D01*
X10345111Y-10146890D02*
X10354635Y-10127842D01*
X10354635Y-10127842D02*
X10364159Y-10118319D01*
X10364159Y-10118319D02*
X10383206Y-10108795D01*
X10573682Y-10108795D02*
X10592730Y-10108795D01*
X10592730Y-10108795D02*
X10611778Y-10118319D01*
X10611778Y-10118319D02*
X10621301Y-10127842D01*
X10621301Y-10127842D02*
X10630825Y-10146890D01*
X10630825Y-10146890D02*
X10640349Y-10184985D01*
X10640349Y-10184985D02*
X10640349Y-10232604D01*
X10640349Y-10232604D02*
X10630825Y-10270699D01*
X10630825Y-10270699D02*
X10621301Y-10289747D01*
X10621301Y-10289747D02*
X10611778Y-10299271D01*
X10611778Y-10299271D02*
X10592730Y-10308795D01*
X10592730Y-10308795D02*
X10573682Y-10308795D01*
X10573682Y-10308795D02*
X10554635Y-10299271D01*
X10554635Y-10299271D02*
X10545111Y-10289747D01*
X10545111Y-10289747D02*
X10535587Y-10270699D01*
X10535587Y-10270699D02*
X10526063Y-10232604D01*
X10526063Y-10232604D02*
X10526063Y-10184985D01*
X10526063Y-10184985D02*
X10535587Y-10146890D01*
X10535587Y-10146890D02*
X10545111Y-10127842D01*
X10545111Y-10127842D02*
X10554635Y-10118319D01*
X10554635Y-10118319D02*
X10573682Y-10108795D01*
X10726063Y-10308795D02*
X10726063Y-10175461D01*
X10726063Y-10194509D02*
X10735587Y-10184985D01*
X10735587Y-10184985D02*
X10754635Y-10175461D01*
X10754635Y-10175461D02*
X10783206Y-10175461D01*
X10783206Y-10175461D02*
X10802254Y-10184985D01*
X10802254Y-10184985D02*
X10811778Y-10204033D01*
X10811778Y-10204033D02*
X10811778Y-10308795D01*
X10811778Y-10204033D02*
X10821301Y-10184985D01*
X10821301Y-10184985D02*
X10840349Y-10175461D01*
X10840349Y-10175461D02*
X10868920Y-10175461D01*
X10868920Y-10175461D02*
X10887968Y-10184985D01*
X10887968Y-10184985D02*
X10897492Y-10204033D01*
X10897492Y-10204033D02*
X10897492Y-10308795D01*
X10992730Y-10308795D02*
X10992730Y-10175461D01*
X10992730Y-10194509D02*
X11002254Y-10184985D01*
X11002254Y-10184985D02*
X11021301Y-10175461D01*
X11021301Y-10175461D02*
X11049873Y-10175461D01*
X11049873Y-10175461D02*
X11068921Y-10184985D01*
X11068921Y-10184985D02*
X11078444Y-10204033D01*
X11078444Y-10204033D02*
X11078444Y-10308795D01*
X11078444Y-10204033D02*
X11087968Y-10184985D01*
X11087968Y-10184985D02*
X11107016Y-10175461D01*
X11107016Y-10175461D02*
X11135587Y-10175461D01*
X11135587Y-10175461D02*
X11154635Y-10184985D01*
X11154635Y-10184985D02*
X11164159Y-10204033D01*
X11164159Y-10204033D02*
X11164159Y-10308795D01*
X11554635Y-10099271D02*
X11383206Y-10356414D01*
X11811778Y-10108795D02*
X11830825Y-10108795D01*
X11830825Y-10108795D02*
X11849873Y-10118319D01*
X11849873Y-10118319D02*
X11859397Y-10127842D01*
X11859397Y-10127842D02*
X11868921Y-10146890D01*
X11868921Y-10146890D02*
X11878444Y-10184985D01*
X11878444Y-10184985D02*
X11878444Y-10232604D01*
X11878444Y-10232604D02*
X11868921Y-10270699D01*
X11868921Y-10270699D02*
X11859397Y-10289747D01*
X11859397Y-10289747D02*
X11849873Y-10299271D01*
X11849873Y-10299271D02*
X11830825Y-10308795D01*
X11830825Y-10308795D02*
X11811778Y-10308795D01*
X11811778Y-10308795D02*
X11792730Y-10299271D01*
X11792730Y-10299271D02*
X11783206Y-10289747D01*
X11783206Y-10289747D02*
X11773682Y-10270699D01*
X11773682Y-10270699D02*
X11764159Y-10232604D01*
X11764159Y-10232604D02*
X11764159Y-10184985D01*
X11764159Y-10184985D02*
X11773682Y-10146890D01*
X11773682Y-10146890D02*
X11783206Y-10127842D01*
X11783206Y-10127842D02*
X11792730Y-10118319D01*
X11792730Y-10118319D02*
X11811778Y-10108795D01*
X11964159Y-10289747D02*
X11973682Y-10299271D01*
X11973682Y-10299271D02*
X11964159Y-10308795D01*
X11964159Y-10308795D02*
X11954635Y-10299271D01*
X11954635Y-10299271D02*
X11964159Y-10289747D01*
X11964159Y-10289747D02*
X11964159Y-10308795D01*
X12097492Y-10108795D02*
X12116540Y-10108795D01*
X12116540Y-10108795D02*
X12135587Y-10118319D01*
X12135587Y-10118319D02*
X12145111Y-10127842D01*
X12145111Y-10127842D02*
X12154635Y-10146890D01*
X12154635Y-10146890D02*
X12164159Y-10184985D01*
X12164159Y-10184985D02*
X12164159Y-10232604D01*
X12164159Y-10232604D02*
X12154635Y-10270699D01*
X12154635Y-10270699D02*
X12145111Y-10289747D01*
X12145111Y-10289747D02*
X12135587Y-10299271D01*
X12135587Y-10299271D02*
X12116540Y-10308795D01*
X12116540Y-10308795D02*
X12097492Y-10308795D01*
X12097492Y-10308795D02*
X12078444Y-10299271D01*
X12078444Y-10299271D02*
X12068921Y-10289747D01*
X12068921Y-10289747D02*
X12059397Y-10270699D01*
X12059397Y-10270699D02*
X12049873Y-10232604D01*
X12049873Y-10232604D02*
X12049873Y-10184985D01*
X12049873Y-10184985D02*
X12059397Y-10146890D01*
X12059397Y-10146890D02*
X12068921Y-10127842D01*
X12068921Y-10127842D02*
X12078444Y-10118319D01*
X12078444Y-10118319D02*
X12097492Y-10108795D01*
X12354635Y-10308795D02*
X12240349Y-10308795D01*
X12297492Y-10308795D02*
X12297492Y-10108795D01*
X12297492Y-10108795D02*
X12278444Y-10137366D01*
X12278444Y-10137366D02*
X12259397Y-10156414D01*
X12259397Y-10156414D02*
X12240349Y-10165938D01*
X12535587Y-10108795D02*
X12440349Y-10108795D01*
X12440349Y-10108795D02*
X12430825Y-10204033D01*
X12430825Y-10204033D02*
X12440349Y-10194509D01*
X12440349Y-10194509D02*
X12459397Y-10184985D01*
X12459397Y-10184985D02*
X12507016Y-10184985D01*
X12507016Y-10184985D02*
X12526063Y-10194509D01*
X12526063Y-10194509D02*
X12535587Y-10204033D01*
X12535587Y-10204033D02*
X12545111Y-10223080D01*
X12545111Y-10223080D02*
X12545111Y-10270699D01*
X12545111Y-10270699D02*
X12535587Y-10289747D01*
X12535587Y-10289747D02*
X12526063Y-10299271D01*
X12526063Y-10299271D02*
X12507016Y-10308795D01*
X12507016Y-10308795D02*
X12459397Y-10308795D01*
X12459397Y-10308795D02*
X12440349Y-10299271D01*
X12440349Y-10299271D02*
X12430825Y-10289747D01*
X12611778Y-10108795D02*
X12745111Y-10108795D01*
X12745111Y-10108795D02*
X12659397Y-10308795D01*
X12811778Y-10108795D02*
X12811778Y-10146890D01*
X12887968Y-10108795D02*
X12887968Y-10146890D01*
X13183206Y-10384985D02*
X13173683Y-10375461D01*
X13173683Y-10375461D02*
X13154635Y-10346890D01*
X13154635Y-10346890D02*
X13145111Y-10327842D01*
X13145111Y-10327842D02*
X13135587Y-10299271D01*
X13135587Y-10299271D02*
X13126064Y-10251652D01*
X13126064Y-10251652D02*
X13126064Y-10213557D01*
X13126064Y-10213557D02*
X13135587Y-10165938D01*
X13135587Y-10165938D02*
X13145111Y-10137366D01*
X13145111Y-10137366D02*
X13154635Y-10118319D01*
X13154635Y-10118319D02*
X13173683Y-10089747D01*
X13173683Y-10089747D02*
X13183206Y-10080223D01*
X13345111Y-10108795D02*
X13307016Y-10108795D01*
X13307016Y-10108795D02*
X13287968Y-10118319D01*
X13287968Y-10118319D02*
X13278444Y-10127842D01*
X13278444Y-10127842D02*
X13259397Y-10156414D01*
X13259397Y-10156414D02*
X13249873Y-10194509D01*
X13249873Y-10194509D02*
X13249873Y-10270699D01*
X13249873Y-10270699D02*
X13259397Y-10289747D01*
X13259397Y-10289747D02*
X13268921Y-10299271D01*
X13268921Y-10299271D02*
X13287968Y-10308795D01*
X13287968Y-10308795D02*
X13326064Y-10308795D01*
X13326064Y-10308795D02*
X13345111Y-10299271D01*
X13345111Y-10299271D02*
X13354635Y-10289747D01*
X13354635Y-10289747D02*
X13364159Y-10270699D01*
X13364159Y-10270699D02*
X13364159Y-10223080D01*
X13364159Y-10223080D02*
X13354635Y-10204033D01*
X13354635Y-10204033D02*
X13345111Y-10194509D01*
X13345111Y-10194509D02*
X13326064Y-10184985D01*
X13326064Y-10184985D02*
X13287968Y-10184985D01*
X13287968Y-10184985D02*
X13268921Y-10194509D01*
X13268921Y-10194509D02*
X13259397Y-10204033D01*
X13259397Y-10204033D02*
X13249873Y-10223080D01*
X13602254Y-10308795D02*
X13602254Y-10108795D01*
X13687968Y-10308795D02*
X13687968Y-10204033D01*
X13687968Y-10204033D02*
X13678445Y-10184985D01*
X13678445Y-10184985D02*
X13659397Y-10175461D01*
X13659397Y-10175461D02*
X13630825Y-10175461D01*
X13630825Y-10175461D02*
X13611778Y-10184985D01*
X13611778Y-10184985D02*
X13602254Y-10194509D01*
X13811778Y-10308795D02*
X13792730Y-10299271D01*
X13792730Y-10299271D02*
X13783206Y-10289747D01*
X13783206Y-10289747D02*
X13773683Y-10270699D01*
X13773683Y-10270699D02*
X13773683Y-10213557D01*
X13773683Y-10213557D02*
X13783206Y-10194509D01*
X13783206Y-10194509D02*
X13792730Y-10184985D01*
X13792730Y-10184985D02*
X13811778Y-10175461D01*
X13811778Y-10175461D02*
X13840349Y-10175461D01*
X13840349Y-10175461D02*
X13859397Y-10184985D01*
X13859397Y-10184985D02*
X13868921Y-10194509D01*
X13868921Y-10194509D02*
X13878445Y-10213557D01*
X13878445Y-10213557D02*
X13878445Y-10270699D01*
X13878445Y-10270699D02*
X13868921Y-10289747D01*
X13868921Y-10289747D02*
X13859397Y-10299271D01*
X13859397Y-10299271D02*
X13840349Y-10308795D01*
X13840349Y-10308795D02*
X13811778Y-10308795D01*
X13992730Y-10308795D02*
X13973683Y-10299271D01*
X13973683Y-10299271D02*
X13964159Y-10280223D01*
X13964159Y-10280223D02*
X13964159Y-10108795D01*
X14145111Y-10299271D02*
X14126064Y-10308795D01*
X14126064Y-10308795D02*
X14087968Y-10308795D01*
X14087968Y-10308795D02*
X14068921Y-10299271D01*
X14068921Y-10299271D02*
X14059397Y-10280223D01*
X14059397Y-10280223D02*
X14059397Y-10204033D01*
X14059397Y-10204033D02*
X14068921Y-10184985D01*
X14068921Y-10184985D02*
X14087968Y-10175461D01*
X14087968Y-10175461D02*
X14126064Y-10175461D01*
X14126064Y-10175461D02*
X14145111Y-10184985D01*
X14145111Y-10184985D02*
X14154635Y-10204033D01*
X14154635Y-10204033D02*
X14154635Y-10223080D01*
X14154635Y-10223080D02*
X14059397Y-10242128D01*
X14230826Y-10299271D02*
X14249873Y-10308795D01*
X14249873Y-10308795D02*
X14287968Y-10308795D01*
X14287968Y-10308795D02*
X14307016Y-10299271D01*
X14307016Y-10299271D02*
X14316540Y-10280223D01*
X14316540Y-10280223D02*
X14316540Y-10270699D01*
X14316540Y-10270699D02*
X14307016Y-10251652D01*
X14307016Y-10251652D02*
X14287968Y-10242128D01*
X14287968Y-10242128D02*
X14259397Y-10242128D01*
X14259397Y-10242128D02*
X14240349Y-10232604D01*
X14240349Y-10232604D02*
X14230826Y-10213557D01*
X14230826Y-10213557D02*
X14230826Y-10204033D01*
X14230826Y-10204033D02*
X14240349Y-10184985D01*
X14240349Y-10184985D02*
X14259397Y-10175461D01*
X14259397Y-10175461D02*
X14287968Y-10175461D01*
X14287968Y-10175461D02*
X14307016Y-10184985D01*
X14383207Y-10384985D02*
X14392730Y-10375461D01*
X14392730Y-10375461D02*
X14411778Y-10346890D01*
X14411778Y-10346890D02*
X14421302Y-10327842D01*
X14421302Y-10327842D02*
X14430826Y-10299271D01*
X14430826Y-10299271D02*
X14440349Y-10251652D01*
X14440349Y-10251652D02*
X14440349Y-10213557D01*
X14440349Y-10213557D02*
X14430826Y-10165938D01*
X14430826Y-10165938D02*
X14421302Y-10137366D01*
X14421302Y-10137366D02*
X14411778Y-10118319D01*
X14411778Y-10118319D02*
X14392730Y-10089747D01*
X14392730Y-10089747D02*
X14383207Y-10080223D01*
D13*
X9621301Y-10480271D02*
G75*
G03*
X9621301Y-10480271I-35000J0D01*
G01*
D11*
X9907016Y-10372795D02*
X9926063Y-10372795D01*
X9926063Y-10372795D02*
X9945111Y-10382319D01*
X9945111Y-10382319D02*
X9954635Y-10391842D01*
X9954635Y-10391842D02*
X9964159Y-10410890D01*
X9964159Y-10410890D02*
X9973682Y-10448985D01*
X9973682Y-10448985D02*
X9973682Y-10496604D01*
X9973682Y-10496604D02*
X9964159Y-10534699D01*
X9964159Y-10534699D02*
X9954635Y-10553747D01*
X9954635Y-10553747D02*
X9945111Y-10563271D01*
X9945111Y-10563271D02*
X9926063Y-10572795D01*
X9926063Y-10572795D02*
X9907016Y-10572795D01*
X9907016Y-10572795D02*
X9887968Y-10563271D01*
X9887968Y-10563271D02*
X9878444Y-10553747D01*
X9878444Y-10553747D02*
X9868920Y-10534699D01*
X9868920Y-10534699D02*
X9859397Y-10496604D01*
X9859397Y-10496604D02*
X9859397Y-10448985D01*
X9859397Y-10448985D02*
X9868920Y-10410890D01*
X9868920Y-10410890D02*
X9878444Y-10391842D01*
X9878444Y-10391842D02*
X9887968Y-10382319D01*
X9887968Y-10382319D02*
X9907016Y-10372795D01*
X10059397Y-10553747D02*
X10068920Y-10563271D01*
X10068920Y-10563271D02*
X10059397Y-10572795D01*
X10059397Y-10572795D02*
X10049873Y-10563271D01*
X10049873Y-10563271D02*
X10059397Y-10553747D01*
X10059397Y-10553747D02*
X10059397Y-10572795D01*
X10135587Y-10372795D02*
X10268920Y-10372795D01*
X10268920Y-10372795D02*
X10183206Y-10572795D01*
X10383206Y-10372795D02*
X10402254Y-10372795D01*
X10402254Y-10372795D02*
X10421301Y-10382319D01*
X10421301Y-10382319D02*
X10430825Y-10391842D01*
X10430825Y-10391842D02*
X10440349Y-10410890D01*
X10440349Y-10410890D02*
X10449873Y-10448985D01*
X10449873Y-10448985D02*
X10449873Y-10496604D01*
X10449873Y-10496604D02*
X10440349Y-10534699D01*
X10440349Y-10534699D02*
X10430825Y-10553747D01*
X10430825Y-10553747D02*
X10421301Y-10563271D01*
X10421301Y-10563271D02*
X10402254Y-10572795D01*
X10402254Y-10572795D02*
X10383206Y-10572795D01*
X10383206Y-10572795D02*
X10364159Y-10563271D01*
X10364159Y-10563271D02*
X10354635Y-10553747D01*
X10354635Y-10553747D02*
X10345111Y-10534699D01*
X10345111Y-10534699D02*
X10335587Y-10496604D01*
X10335587Y-10496604D02*
X10335587Y-10448985D01*
X10335587Y-10448985D02*
X10345111Y-10410890D01*
X10345111Y-10410890D02*
X10354635Y-10391842D01*
X10354635Y-10391842D02*
X10364159Y-10382319D01*
X10364159Y-10382319D02*
X10383206Y-10372795D01*
X10573682Y-10372795D02*
X10592730Y-10372795D01*
X10592730Y-10372795D02*
X10611778Y-10382319D01*
X10611778Y-10382319D02*
X10621301Y-10391842D01*
X10621301Y-10391842D02*
X10630825Y-10410890D01*
X10630825Y-10410890D02*
X10640349Y-10448985D01*
X10640349Y-10448985D02*
X10640349Y-10496604D01*
X10640349Y-10496604D02*
X10630825Y-10534699D01*
X10630825Y-10534699D02*
X10621301Y-10553747D01*
X10621301Y-10553747D02*
X10611778Y-10563271D01*
X10611778Y-10563271D02*
X10592730Y-10572795D01*
X10592730Y-10572795D02*
X10573682Y-10572795D01*
X10573682Y-10572795D02*
X10554635Y-10563271D01*
X10554635Y-10563271D02*
X10545111Y-10553747D01*
X10545111Y-10553747D02*
X10535587Y-10534699D01*
X10535587Y-10534699D02*
X10526063Y-10496604D01*
X10526063Y-10496604D02*
X10526063Y-10448985D01*
X10526063Y-10448985D02*
X10535587Y-10410890D01*
X10535587Y-10410890D02*
X10545111Y-10391842D01*
X10545111Y-10391842D02*
X10554635Y-10382319D01*
X10554635Y-10382319D02*
X10573682Y-10372795D01*
X10726063Y-10572795D02*
X10726063Y-10439461D01*
X10726063Y-10458509D02*
X10735587Y-10448985D01*
X10735587Y-10448985D02*
X10754635Y-10439461D01*
X10754635Y-10439461D02*
X10783206Y-10439461D01*
X10783206Y-10439461D02*
X10802254Y-10448985D01*
X10802254Y-10448985D02*
X10811778Y-10468033D01*
X10811778Y-10468033D02*
X10811778Y-10572795D01*
X10811778Y-10468033D02*
X10821301Y-10448985D01*
X10821301Y-10448985D02*
X10840349Y-10439461D01*
X10840349Y-10439461D02*
X10868920Y-10439461D01*
X10868920Y-10439461D02*
X10887968Y-10448985D01*
X10887968Y-10448985D02*
X10897492Y-10468033D01*
X10897492Y-10468033D02*
X10897492Y-10572795D01*
X10992730Y-10572795D02*
X10992730Y-10439461D01*
X10992730Y-10458509D02*
X11002254Y-10448985D01*
X11002254Y-10448985D02*
X11021301Y-10439461D01*
X11021301Y-10439461D02*
X11049873Y-10439461D01*
X11049873Y-10439461D02*
X11068921Y-10448985D01*
X11068921Y-10448985D02*
X11078444Y-10468033D01*
X11078444Y-10468033D02*
X11078444Y-10572795D01*
X11078444Y-10468033D02*
X11087968Y-10448985D01*
X11087968Y-10448985D02*
X11107016Y-10439461D01*
X11107016Y-10439461D02*
X11135587Y-10439461D01*
X11135587Y-10439461D02*
X11154635Y-10448985D01*
X11154635Y-10448985D02*
X11164159Y-10468033D01*
X11164159Y-10468033D02*
X11164159Y-10572795D01*
X11554635Y-10363271D02*
X11383206Y-10620414D01*
X11811778Y-10372795D02*
X11830825Y-10372795D01*
X11830825Y-10372795D02*
X11849873Y-10382319D01*
X11849873Y-10382319D02*
X11859397Y-10391842D01*
X11859397Y-10391842D02*
X11868921Y-10410890D01*
X11868921Y-10410890D02*
X11878444Y-10448985D01*
X11878444Y-10448985D02*
X11878444Y-10496604D01*
X11878444Y-10496604D02*
X11868921Y-10534699D01*
X11868921Y-10534699D02*
X11859397Y-10553747D01*
X11859397Y-10553747D02*
X11849873Y-10563271D01*
X11849873Y-10563271D02*
X11830825Y-10572795D01*
X11830825Y-10572795D02*
X11811778Y-10572795D01*
X11811778Y-10572795D02*
X11792730Y-10563271D01*
X11792730Y-10563271D02*
X11783206Y-10553747D01*
X11783206Y-10553747D02*
X11773682Y-10534699D01*
X11773682Y-10534699D02*
X11764159Y-10496604D01*
X11764159Y-10496604D02*
X11764159Y-10448985D01*
X11764159Y-10448985D02*
X11773682Y-10410890D01*
X11773682Y-10410890D02*
X11783206Y-10391842D01*
X11783206Y-10391842D02*
X11792730Y-10382319D01*
X11792730Y-10382319D02*
X11811778Y-10372795D01*
X11964159Y-10553747D02*
X11973682Y-10563271D01*
X11973682Y-10563271D02*
X11964159Y-10572795D01*
X11964159Y-10572795D02*
X11954635Y-10563271D01*
X11954635Y-10563271D02*
X11964159Y-10553747D01*
X11964159Y-10553747D02*
X11964159Y-10572795D01*
X12097492Y-10372795D02*
X12116540Y-10372795D01*
X12116540Y-10372795D02*
X12135587Y-10382319D01*
X12135587Y-10382319D02*
X12145111Y-10391842D01*
X12145111Y-10391842D02*
X12154635Y-10410890D01*
X12154635Y-10410890D02*
X12164159Y-10448985D01*
X12164159Y-10448985D02*
X12164159Y-10496604D01*
X12164159Y-10496604D02*
X12154635Y-10534699D01*
X12154635Y-10534699D02*
X12145111Y-10553747D01*
X12145111Y-10553747D02*
X12135587Y-10563271D01*
X12135587Y-10563271D02*
X12116540Y-10572795D01*
X12116540Y-10572795D02*
X12097492Y-10572795D01*
X12097492Y-10572795D02*
X12078444Y-10563271D01*
X12078444Y-10563271D02*
X12068921Y-10553747D01*
X12068921Y-10553747D02*
X12059397Y-10534699D01*
X12059397Y-10534699D02*
X12049873Y-10496604D01*
X12049873Y-10496604D02*
X12049873Y-10448985D01*
X12049873Y-10448985D02*
X12059397Y-10410890D01*
X12059397Y-10410890D02*
X12068921Y-10391842D01*
X12068921Y-10391842D02*
X12078444Y-10382319D01*
X12078444Y-10382319D02*
X12097492Y-10372795D01*
X12240349Y-10391842D02*
X12249873Y-10382319D01*
X12249873Y-10382319D02*
X12268921Y-10372795D01*
X12268921Y-10372795D02*
X12316540Y-10372795D01*
X12316540Y-10372795D02*
X12335587Y-10382319D01*
X12335587Y-10382319D02*
X12345111Y-10391842D01*
X12345111Y-10391842D02*
X12354635Y-10410890D01*
X12354635Y-10410890D02*
X12354635Y-10429938D01*
X12354635Y-10429938D02*
X12345111Y-10458509D01*
X12345111Y-10458509D02*
X12230825Y-10572795D01*
X12230825Y-10572795D02*
X12354635Y-10572795D01*
X12421302Y-10372795D02*
X12554635Y-10372795D01*
X12554635Y-10372795D02*
X12468921Y-10572795D01*
X12716540Y-10372795D02*
X12678444Y-10372795D01*
X12678444Y-10372795D02*
X12659397Y-10382319D01*
X12659397Y-10382319D02*
X12649873Y-10391842D01*
X12649873Y-10391842D02*
X12630825Y-10420414D01*
X12630825Y-10420414D02*
X12621302Y-10458509D01*
X12621302Y-10458509D02*
X12621302Y-10534699D01*
X12621302Y-10534699D02*
X12630825Y-10553747D01*
X12630825Y-10553747D02*
X12640349Y-10563271D01*
X12640349Y-10563271D02*
X12659397Y-10572795D01*
X12659397Y-10572795D02*
X12697492Y-10572795D01*
X12697492Y-10572795D02*
X12716540Y-10563271D01*
X12716540Y-10563271D02*
X12726063Y-10553747D01*
X12726063Y-10553747D02*
X12735587Y-10534699D01*
X12735587Y-10534699D02*
X12735587Y-10487080D01*
X12735587Y-10487080D02*
X12726063Y-10468033D01*
X12726063Y-10468033D02*
X12716540Y-10458509D01*
X12716540Y-10458509D02*
X12697492Y-10448985D01*
X12697492Y-10448985D02*
X12659397Y-10448985D01*
X12659397Y-10448985D02*
X12640349Y-10458509D01*
X12640349Y-10458509D02*
X12630825Y-10468033D01*
X12630825Y-10468033D02*
X12621302Y-10487080D01*
X12811778Y-10372795D02*
X12811778Y-10410890D01*
X12887968Y-10372795D02*
X12887968Y-10410890D01*
X13183206Y-10648985D02*
X13173683Y-10639461D01*
X13173683Y-10639461D02*
X13154635Y-10610890D01*
X13154635Y-10610890D02*
X13145111Y-10591842D01*
X13145111Y-10591842D02*
X13135587Y-10563271D01*
X13135587Y-10563271D02*
X13126064Y-10515652D01*
X13126064Y-10515652D02*
X13126064Y-10477557D01*
X13126064Y-10477557D02*
X13135587Y-10429938D01*
X13135587Y-10429938D02*
X13145111Y-10401366D01*
X13145111Y-10401366D02*
X13154635Y-10382319D01*
X13154635Y-10382319D02*
X13173683Y-10353747D01*
X13173683Y-10353747D02*
X13183206Y-10344223D01*
X13364159Y-10572795D02*
X13249873Y-10572795D01*
X13307016Y-10572795D02*
X13307016Y-10372795D01*
X13307016Y-10372795D02*
X13287968Y-10401366D01*
X13287968Y-10401366D02*
X13268921Y-10420414D01*
X13268921Y-10420414D02*
X13249873Y-10429938D01*
X13430825Y-10372795D02*
X13564159Y-10372795D01*
X13564159Y-10372795D02*
X13478444Y-10572795D01*
X13792730Y-10572795D02*
X13792730Y-10372795D01*
X13878445Y-10572795D02*
X13878445Y-10468033D01*
X13878445Y-10468033D02*
X13868921Y-10448985D01*
X13868921Y-10448985D02*
X13849873Y-10439461D01*
X13849873Y-10439461D02*
X13821302Y-10439461D01*
X13821302Y-10439461D02*
X13802254Y-10448985D01*
X13802254Y-10448985D02*
X13792730Y-10458509D01*
X14002254Y-10572795D02*
X13983206Y-10563271D01*
X13983206Y-10563271D02*
X13973683Y-10553747D01*
X13973683Y-10553747D02*
X13964159Y-10534699D01*
X13964159Y-10534699D02*
X13964159Y-10477557D01*
X13964159Y-10477557D02*
X13973683Y-10458509D01*
X13973683Y-10458509D02*
X13983206Y-10448985D01*
X13983206Y-10448985D02*
X14002254Y-10439461D01*
X14002254Y-10439461D02*
X14030826Y-10439461D01*
X14030826Y-10439461D02*
X14049873Y-10448985D01*
X14049873Y-10448985D02*
X14059397Y-10458509D01*
X14059397Y-10458509D02*
X14068921Y-10477557D01*
X14068921Y-10477557D02*
X14068921Y-10534699D01*
X14068921Y-10534699D02*
X14059397Y-10553747D01*
X14059397Y-10553747D02*
X14049873Y-10563271D01*
X14049873Y-10563271D02*
X14030826Y-10572795D01*
X14030826Y-10572795D02*
X14002254Y-10572795D01*
X14183206Y-10572795D02*
X14164159Y-10563271D01*
X14164159Y-10563271D02*
X14154635Y-10544223D01*
X14154635Y-10544223D02*
X14154635Y-10372795D01*
X14335587Y-10563271D02*
X14316540Y-10572795D01*
X14316540Y-10572795D02*
X14278445Y-10572795D01*
X14278445Y-10572795D02*
X14259397Y-10563271D01*
X14259397Y-10563271D02*
X14249873Y-10544223D01*
X14249873Y-10544223D02*
X14249873Y-10468033D01*
X14249873Y-10468033D02*
X14259397Y-10448985D01*
X14259397Y-10448985D02*
X14278445Y-10439461D01*
X14278445Y-10439461D02*
X14316540Y-10439461D01*
X14316540Y-10439461D02*
X14335587Y-10448985D01*
X14335587Y-10448985D02*
X14345111Y-10468033D01*
X14345111Y-10468033D02*
X14345111Y-10487080D01*
X14345111Y-10487080D02*
X14249873Y-10506128D01*
X14421302Y-10563271D02*
X14440349Y-10572795D01*
X14440349Y-10572795D02*
X14478445Y-10572795D01*
X14478445Y-10572795D02*
X14497492Y-10563271D01*
X14497492Y-10563271D02*
X14507016Y-10544223D01*
X14507016Y-10544223D02*
X14507016Y-10534699D01*
X14507016Y-10534699D02*
X14497492Y-10515652D01*
X14497492Y-10515652D02*
X14478445Y-10506128D01*
X14478445Y-10506128D02*
X14449873Y-10506128D01*
X14449873Y-10506128D02*
X14430826Y-10496604D01*
X14430826Y-10496604D02*
X14421302Y-10477557D01*
X14421302Y-10477557D02*
X14421302Y-10468033D01*
X14421302Y-10468033D02*
X14430826Y-10448985D01*
X14430826Y-10448985D02*
X14449873Y-10439461D01*
X14449873Y-10439461D02*
X14478445Y-10439461D01*
X14478445Y-10439461D02*
X14497492Y-10448985D01*
X14573683Y-10648985D02*
X14583207Y-10639461D01*
X14583207Y-10639461D02*
X14602254Y-10610890D01*
X14602254Y-10610890D02*
X14611778Y-10591842D01*
X14611778Y-10591842D02*
X14621302Y-10563271D01*
X14621302Y-10563271D02*
X14630826Y-10515652D01*
X14630826Y-10515652D02*
X14630826Y-10477557D01*
X14630826Y-10477557D02*
X14621302Y-10429938D01*
X14621302Y-10429938D02*
X14611778Y-10401366D01*
X14611778Y-10401366D02*
X14602254Y-10382319D01*
X14602254Y-10382319D02*
X14583207Y-10353747D01*
X14583207Y-10353747D02*
X14573683Y-10344223D01*
D14*
X9544301Y-10667271D02*
X9544301Y-10821271D01*
X9467301Y-10744271D02*
X9621301Y-10744271D01*
D11*
X9973682Y-10836795D02*
X9859397Y-10836795D01*
X9916539Y-10836795D02*
X9916539Y-10636795D01*
X9916539Y-10636795D02*
X9897492Y-10665366D01*
X9897492Y-10665366D02*
X9878444Y-10684414D01*
X9878444Y-10684414D02*
X9859397Y-10693938D01*
X10059397Y-10817747D02*
X10068920Y-10827271D01*
X10068920Y-10827271D02*
X10059397Y-10836795D01*
X10059397Y-10836795D02*
X10049873Y-10827271D01*
X10049873Y-10827271D02*
X10059397Y-10817747D01*
X10059397Y-10817747D02*
X10059397Y-10836795D01*
X10249873Y-10636795D02*
X10154635Y-10636795D01*
X10154635Y-10636795D02*
X10145111Y-10732033D01*
X10145111Y-10732033D02*
X10154635Y-10722509D01*
X10154635Y-10722509D02*
X10173682Y-10712985D01*
X10173682Y-10712985D02*
X10221301Y-10712985D01*
X10221301Y-10712985D02*
X10240349Y-10722509D01*
X10240349Y-10722509D02*
X10249873Y-10732033D01*
X10249873Y-10732033D02*
X10259397Y-10751080D01*
X10259397Y-10751080D02*
X10259397Y-10798699D01*
X10259397Y-10798699D02*
X10249873Y-10817747D01*
X10249873Y-10817747D02*
X10240349Y-10827271D01*
X10240349Y-10827271D02*
X10221301Y-10836795D01*
X10221301Y-10836795D02*
X10173682Y-10836795D01*
X10173682Y-10836795D02*
X10154635Y-10827271D01*
X10154635Y-10827271D02*
X10145111Y-10817747D01*
X10430825Y-10703461D02*
X10430825Y-10836795D01*
X10383206Y-10627271D02*
X10335587Y-10770128D01*
X10335587Y-10770128D02*
X10459397Y-10770128D01*
X10573682Y-10636795D02*
X10592730Y-10636795D01*
X10592730Y-10636795D02*
X10611778Y-10646319D01*
X10611778Y-10646319D02*
X10621301Y-10655842D01*
X10621301Y-10655842D02*
X10630825Y-10674890D01*
X10630825Y-10674890D02*
X10640349Y-10712985D01*
X10640349Y-10712985D02*
X10640349Y-10760604D01*
X10640349Y-10760604D02*
X10630825Y-10798699D01*
X10630825Y-10798699D02*
X10621301Y-10817747D01*
X10621301Y-10817747D02*
X10611778Y-10827271D01*
X10611778Y-10827271D02*
X10592730Y-10836795D01*
X10592730Y-10836795D02*
X10573682Y-10836795D01*
X10573682Y-10836795D02*
X10554635Y-10827271D01*
X10554635Y-10827271D02*
X10545111Y-10817747D01*
X10545111Y-10817747D02*
X10535587Y-10798699D01*
X10535587Y-10798699D02*
X10526063Y-10760604D01*
X10526063Y-10760604D02*
X10526063Y-10712985D01*
X10526063Y-10712985D02*
X10535587Y-10674890D01*
X10535587Y-10674890D02*
X10545111Y-10655842D01*
X10545111Y-10655842D02*
X10554635Y-10646319D01*
X10554635Y-10646319D02*
X10573682Y-10636795D01*
X10726063Y-10836795D02*
X10726063Y-10703461D01*
X10726063Y-10722509D02*
X10735587Y-10712985D01*
X10735587Y-10712985D02*
X10754635Y-10703461D01*
X10754635Y-10703461D02*
X10783206Y-10703461D01*
X10783206Y-10703461D02*
X10802254Y-10712985D01*
X10802254Y-10712985D02*
X10811778Y-10732033D01*
X10811778Y-10732033D02*
X10811778Y-10836795D01*
X10811778Y-10732033D02*
X10821301Y-10712985D01*
X10821301Y-10712985D02*
X10840349Y-10703461D01*
X10840349Y-10703461D02*
X10868920Y-10703461D01*
X10868920Y-10703461D02*
X10887968Y-10712985D01*
X10887968Y-10712985D02*
X10897492Y-10732033D01*
X10897492Y-10732033D02*
X10897492Y-10836795D01*
X10992730Y-10836795D02*
X10992730Y-10703461D01*
X10992730Y-10722509D02*
X11002254Y-10712985D01*
X11002254Y-10712985D02*
X11021301Y-10703461D01*
X11021301Y-10703461D02*
X11049873Y-10703461D01*
X11049873Y-10703461D02*
X11068921Y-10712985D01*
X11068921Y-10712985D02*
X11078444Y-10732033D01*
X11078444Y-10732033D02*
X11078444Y-10836795D01*
X11078444Y-10732033D02*
X11087968Y-10712985D01*
X11087968Y-10712985D02*
X11107016Y-10703461D01*
X11107016Y-10703461D02*
X11135587Y-10703461D01*
X11135587Y-10703461D02*
X11154635Y-10712985D01*
X11154635Y-10712985D02*
X11164159Y-10732033D01*
X11164159Y-10732033D02*
X11164159Y-10836795D01*
X11554635Y-10627271D02*
X11383206Y-10884414D01*
X11811778Y-10636795D02*
X11830825Y-10636795D01*
X11830825Y-10636795D02*
X11849873Y-10646319D01*
X11849873Y-10646319D02*
X11859397Y-10655842D01*
X11859397Y-10655842D02*
X11868921Y-10674890D01*
X11868921Y-10674890D02*
X11878444Y-10712985D01*
X11878444Y-10712985D02*
X11878444Y-10760604D01*
X11878444Y-10760604D02*
X11868921Y-10798699D01*
X11868921Y-10798699D02*
X11859397Y-10817747D01*
X11859397Y-10817747D02*
X11849873Y-10827271D01*
X11849873Y-10827271D02*
X11830825Y-10836795D01*
X11830825Y-10836795D02*
X11811778Y-10836795D01*
X11811778Y-10836795D02*
X11792730Y-10827271D01*
X11792730Y-10827271D02*
X11783206Y-10817747D01*
X11783206Y-10817747D02*
X11773682Y-10798699D01*
X11773682Y-10798699D02*
X11764159Y-10760604D01*
X11764159Y-10760604D02*
X11764159Y-10712985D01*
X11764159Y-10712985D02*
X11773682Y-10674890D01*
X11773682Y-10674890D02*
X11783206Y-10655842D01*
X11783206Y-10655842D02*
X11792730Y-10646319D01*
X11792730Y-10646319D02*
X11811778Y-10636795D01*
X11964159Y-10817747D02*
X11973682Y-10827271D01*
X11973682Y-10827271D02*
X11964159Y-10836795D01*
X11964159Y-10836795D02*
X11954635Y-10827271D01*
X11954635Y-10827271D02*
X11964159Y-10817747D01*
X11964159Y-10817747D02*
X11964159Y-10836795D01*
X12097492Y-10636795D02*
X12116540Y-10636795D01*
X12116540Y-10636795D02*
X12135587Y-10646319D01*
X12135587Y-10646319D02*
X12145111Y-10655842D01*
X12145111Y-10655842D02*
X12154635Y-10674890D01*
X12154635Y-10674890D02*
X12164159Y-10712985D01*
X12164159Y-10712985D02*
X12164159Y-10760604D01*
X12164159Y-10760604D02*
X12154635Y-10798699D01*
X12154635Y-10798699D02*
X12145111Y-10817747D01*
X12145111Y-10817747D02*
X12135587Y-10827271D01*
X12135587Y-10827271D02*
X12116540Y-10836795D01*
X12116540Y-10836795D02*
X12097492Y-10836795D01*
X12097492Y-10836795D02*
X12078444Y-10827271D01*
X12078444Y-10827271D02*
X12068921Y-10817747D01*
X12068921Y-10817747D02*
X12059397Y-10798699D01*
X12059397Y-10798699D02*
X12049873Y-10760604D01*
X12049873Y-10760604D02*
X12049873Y-10712985D01*
X12049873Y-10712985D02*
X12059397Y-10674890D01*
X12059397Y-10674890D02*
X12068921Y-10655842D01*
X12068921Y-10655842D02*
X12078444Y-10646319D01*
X12078444Y-10646319D02*
X12097492Y-10636795D01*
X12335587Y-10636795D02*
X12297492Y-10636795D01*
X12297492Y-10636795D02*
X12278444Y-10646319D01*
X12278444Y-10646319D02*
X12268921Y-10655842D01*
X12268921Y-10655842D02*
X12249873Y-10684414D01*
X12249873Y-10684414D02*
X12240349Y-10722509D01*
X12240349Y-10722509D02*
X12240349Y-10798699D01*
X12240349Y-10798699D02*
X12249873Y-10817747D01*
X12249873Y-10817747D02*
X12259397Y-10827271D01*
X12259397Y-10827271D02*
X12278444Y-10836795D01*
X12278444Y-10836795D02*
X12316540Y-10836795D01*
X12316540Y-10836795D02*
X12335587Y-10827271D01*
X12335587Y-10827271D02*
X12345111Y-10817747D01*
X12345111Y-10817747D02*
X12354635Y-10798699D01*
X12354635Y-10798699D02*
X12354635Y-10751080D01*
X12354635Y-10751080D02*
X12345111Y-10732033D01*
X12345111Y-10732033D02*
X12335587Y-10722509D01*
X12335587Y-10722509D02*
X12316540Y-10712985D01*
X12316540Y-10712985D02*
X12278444Y-10712985D01*
X12278444Y-10712985D02*
X12259397Y-10722509D01*
X12259397Y-10722509D02*
X12249873Y-10732033D01*
X12249873Y-10732033D02*
X12240349Y-10751080D01*
X12478444Y-10636795D02*
X12497492Y-10636795D01*
X12497492Y-10636795D02*
X12516540Y-10646319D01*
X12516540Y-10646319D02*
X12526063Y-10655842D01*
X12526063Y-10655842D02*
X12535587Y-10674890D01*
X12535587Y-10674890D02*
X12545111Y-10712985D01*
X12545111Y-10712985D02*
X12545111Y-10760604D01*
X12545111Y-10760604D02*
X12535587Y-10798699D01*
X12535587Y-10798699D02*
X12526063Y-10817747D01*
X12526063Y-10817747D02*
X12516540Y-10827271D01*
X12516540Y-10827271D02*
X12497492Y-10836795D01*
X12497492Y-10836795D02*
X12478444Y-10836795D01*
X12478444Y-10836795D02*
X12459397Y-10827271D01*
X12459397Y-10827271D02*
X12449873Y-10817747D01*
X12449873Y-10817747D02*
X12440349Y-10798699D01*
X12440349Y-10798699D02*
X12430825Y-10760604D01*
X12430825Y-10760604D02*
X12430825Y-10712985D01*
X12430825Y-10712985D02*
X12440349Y-10674890D01*
X12440349Y-10674890D02*
X12449873Y-10655842D01*
X12449873Y-10655842D02*
X12459397Y-10646319D01*
X12459397Y-10646319D02*
X12478444Y-10636795D01*
X12716540Y-10636795D02*
X12678444Y-10636795D01*
X12678444Y-10636795D02*
X12659397Y-10646319D01*
X12659397Y-10646319D02*
X12649873Y-10655842D01*
X12649873Y-10655842D02*
X12630825Y-10684414D01*
X12630825Y-10684414D02*
X12621302Y-10722509D01*
X12621302Y-10722509D02*
X12621302Y-10798699D01*
X12621302Y-10798699D02*
X12630825Y-10817747D01*
X12630825Y-10817747D02*
X12640349Y-10827271D01*
X12640349Y-10827271D02*
X12659397Y-10836795D01*
X12659397Y-10836795D02*
X12697492Y-10836795D01*
X12697492Y-10836795D02*
X12716540Y-10827271D01*
X12716540Y-10827271D02*
X12726063Y-10817747D01*
X12726063Y-10817747D02*
X12735587Y-10798699D01*
X12735587Y-10798699D02*
X12735587Y-10751080D01*
X12735587Y-10751080D02*
X12726063Y-10732033D01*
X12726063Y-10732033D02*
X12716540Y-10722509D01*
X12716540Y-10722509D02*
X12697492Y-10712985D01*
X12697492Y-10712985D02*
X12659397Y-10712985D01*
X12659397Y-10712985D02*
X12640349Y-10722509D01*
X12640349Y-10722509D02*
X12630825Y-10732033D01*
X12630825Y-10732033D02*
X12621302Y-10751080D01*
X12811778Y-10636795D02*
X12811778Y-10674890D01*
X12887968Y-10636795D02*
X12887968Y-10674890D01*
X13183206Y-10912985D02*
X13173683Y-10903461D01*
X13173683Y-10903461D02*
X13154635Y-10874890D01*
X13154635Y-10874890D02*
X13145111Y-10855842D01*
X13145111Y-10855842D02*
X13135587Y-10827271D01*
X13135587Y-10827271D02*
X13126064Y-10779652D01*
X13126064Y-10779652D02*
X13126064Y-10741557D01*
X13126064Y-10741557D02*
X13135587Y-10693938D01*
X13135587Y-10693938D02*
X13145111Y-10665366D01*
X13145111Y-10665366D02*
X13154635Y-10646319D01*
X13154635Y-10646319D02*
X13173683Y-10617747D01*
X13173683Y-10617747D02*
X13183206Y-10608223D01*
X13249873Y-10655842D02*
X13259397Y-10646319D01*
X13259397Y-10646319D02*
X13278444Y-10636795D01*
X13278444Y-10636795D02*
X13326064Y-10636795D01*
X13326064Y-10636795D02*
X13345111Y-10646319D01*
X13345111Y-10646319D02*
X13354635Y-10655842D01*
X13354635Y-10655842D02*
X13364159Y-10674890D01*
X13364159Y-10674890D02*
X13364159Y-10693938D01*
X13364159Y-10693938D02*
X13354635Y-10722509D01*
X13354635Y-10722509D02*
X13240349Y-10836795D01*
X13240349Y-10836795D02*
X13364159Y-10836795D01*
X13602254Y-10836795D02*
X13602254Y-10636795D01*
X13687968Y-10836795D02*
X13687968Y-10732033D01*
X13687968Y-10732033D02*
X13678445Y-10712985D01*
X13678445Y-10712985D02*
X13659397Y-10703461D01*
X13659397Y-10703461D02*
X13630825Y-10703461D01*
X13630825Y-10703461D02*
X13611778Y-10712985D01*
X13611778Y-10712985D02*
X13602254Y-10722509D01*
X13811778Y-10836795D02*
X13792730Y-10827271D01*
X13792730Y-10827271D02*
X13783206Y-10817747D01*
X13783206Y-10817747D02*
X13773683Y-10798699D01*
X13773683Y-10798699D02*
X13773683Y-10741557D01*
X13773683Y-10741557D02*
X13783206Y-10722509D01*
X13783206Y-10722509D02*
X13792730Y-10712985D01*
X13792730Y-10712985D02*
X13811778Y-10703461D01*
X13811778Y-10703461D02*
X13840349Y-10703461D01*
X13840349Y-10703461D02*
X13859397Y-10712985D01*
X13859397Y-10712985D02*
X13868921Y-10722509D01*
X13868921Y-10722509D02*
X13878445Y-10741557D01*
X13878445Y-10741557D02*
X13878445Y-10798699D01*
X13878445Y-10798699D02*
X13868921Y-10817747D01*
X13868921Y-10817747D02*
X13859397Y-10827271D01*
X13859397Y-10827271D02*
X13840349Y-10836795D01*
X13840349Y-10836795D02*
X13811778Y-10836795D01*
X13992730Y-10836795D02*
X13973683Y-10827271D01*
X13973683Y-10827271D02*
X13964159Y-10808223D01*
X13964159Y-10808223D02*
X13964159Y-10636795D01*
X14145111Y-10827271D02*
X14126064Y-10836795D01*
X14126064Y-10836795D02*
X14087968Y-10836795D01*
X14087968Y-10836795D02*
X14068921Y-10827271D01*
X14068921Y-10827271D02*
X14059397Y-10808223D01*
X14059397Y-10808223D02*
X14059397Y-10732033D01*
X14059397Y-10732033D02*
X14068921Y-10712985D01*
X14068921Y-10712985D02*
X14087968Y-10703461D01*
X14087968Y-10703461D02*
X14126064Y-10703461D01*
X14126064Y-10703461D02*
X14145111Y-10712985D01*
X14145111Y-10712985D02*
X14154635Y-10732033D01*
X14154635Y-10732033D02*
X14154635Y-10751080D01*
X14154635Y-10751080D02*
X14059397Y-10770128D01*
X14230826Y-10827271D02*
X14249873Y-10836795D01*
X14249873Y-10836795D02*
X14287968Y-10836795D01*
X14287968Y-10836795D02*
X14307016Y-10827271D01*
X14307016Y-10827271D02*
X14316540Y-10808223D01*
X14316540Y-10808223D02*
X14316540Y-10798699D01*
X14316540Y-10798699D02*
X14307016Y-10779652D01*
X14307016Y-10779652D02*
X14287968Y-10770128D01*
X14287968Y-10770128D02*
X14259397Y-10770128D01*
X14259397Y-10770128D02*
X14240349Y-10760604D01*
X14240349Y-10760604D02*
X14230826Y-10741557D01*
X14230826Y-10741557D02*
X14230826Y-10732033D01*
X14230826Y-10732033D02*
X14240349Y-10712985D01*
X14240349Y-10712985D02*
X14259397Y-10703461D01*
X14259397Y-10703461D02*
X14287968Y-10703461D01*
X14287968Y-10703461D02*
X14307016Y-10712985D01*
X14383207Y-10912985D02*
X14392730Y-10903461D01*
X14392730Y-10903461D02*
X14411778Y-10874890D01*
X14411778Y-10874890D02*
X14421302Y-10855842D01*
X14421302Y-10855842D02*
X14430826Y-10827271D01*
X14430826Y-10827271D02*
X14440349Y-10779652D01*
X14440349Y-10779652D02*
X14440349Y-10741557D01*
X14440349Y-10741557D02*
X14430826Y-10693938D01*
X14430826Y-10693938D02*
X14421302Y-10665366D01*
X14421302Y-10665366D02*
X14411778Y-10646319D01*
X14411778Y-10646319D02*
X14392730Y-10617747D01*
X14392730Y-10617747D02*
X14383207Y-10608223D01*
X9592013Y-11088982D02*
X9592013Y-10947560D01*
X9450590Y-10947560D01*
X9450590Y-11088982D01*
X9592013Y-11088982D01*
X9859397Y-10929842D02*
X9868920Y-10920319D01*
X9868920Y-10920319D02*
X9887968Y-10910795D01*
X9887968Y-10910795D02*
X9935587Y-10910795D01*
X9935587Y-10910795D02*
X9954635Y-10920319D01*
X9954635Y-10920319D02*
X9964159Y-10929842D01*
X9964159Y-10929842D02*
X9973682Y-10948890D01*
X9973682Y-10948890D02*
X9973682Y-10967938D01*
X9973682Y-10967938D02*
X9964159Y-10996509D01*
X9964159Y-10996509D02*
X9849873Y-11110795D01*
X9849873Y-11110795D02*
X9973682Y-11110795D01*
X10059397Y-11091747D02*
X10068920Y-11101271D01*
X10068920Y-11101271D02*
X10059397Y-11110795D01*
X10059397Y-11110795D02*
X10049873Y-11101271D01*
X10049873Y-11101271D02*
X10059397Y-11091747D01*
X10059397Y-11091747D02*
X10059397Y-11110795D01*
X10183206Y-10996509D02*
X10164159Y-10986985D01*
X10164159Y-10986985D02*
X10154635Y-10977461D01*
X10154635Y-10977461D02*
X10145111Y-10958414D01*
X10145111Y-10958414D02*
X10145111Y-10948890D01*
X10145111Y-10948890D02*
X10154635Y-10929842D01*
X10154635Y-10929842D02*
X10164159Y-10920319D01*
X10164159Y-10920319D02*
X10183206Y-10910795D01*
X10183206Y-10910795D02*
X10221301Y-10910795D01*
X10221301Y-10910795D02*
X10240349Y-10920319D01*
X10240349Y-10920319D02*
X10249873Y-10929842D01*
X10249873Y-10929842D02*
X10259397Y-10948890D01*
X10259397Y-10948890D02*
X10259397Y-10958414D01*
X10259397Y-10958414D02*
X10249873Y-10977461D01*
X10249873Y-10977461D02*
X10240349Y-10986985D01*
X10240349Y-10986985D02*
X10221301Y-10996509D01*
X10221301Y-10996509D02*
X10183206Y-10996509D01*
X10183206Y-10996509D02*
X10164159Y-11006033D01*
X10164159Y-11006033D02*
X10154635Y-11015557D01*
X10154635Y-11015557D02*
X10145111Y-11034604D01*
X10145111Y-11034604D02*
X10145111Y-11072699D01*
X10145111Y-11072699D02*
X10154635Y-11091747D01*
X10154635Y-11091747D02*
X10164159Y-11101271D01*
X10164159Y-11101271D02*
X10183206Y-11110795D01*
X10183206Y-11110795D02*
X10221301Y-11110795D01*
X10221301Y-11110795D02*
X10240349Y-11101271D01*
X10240349Y-11101271D02*
X10249873Y-11091747D01*
X10249873Y-11091747D02*
X10259397Y-11072699D01*
X10259397Y-11072699D02*
X10259397Y-11034604D01*
X10259397Y-11034604D02*
X10249873Y-11015557D01*
X10249873Y-11015557D02*
X10240349Y-11006033D01*
X10240349Y-11006033D02*
X10221301Y-10996509D01*
X10383206Y-10910795D02*
X10402254Y-10910795D01*
X10402254Y-10910795D02*
X10421301Y-10920319D01*
X10421301Y-10920319D02*
X10430825Y-10929842D01*
X10430825Y-10929842D02*
X10440349Y-10948890D01*
X10440349Y-10948890D02*
X10449873Y-10986985D01*
X10449873Y-10986985D02*
X10449873Y-11034604D01*
X10449873Y-11034604D02*
X10440349Y-11072699D01*
X10440349Y-11072699D02*
X10430825Y-11091747D01*
X10430825Y-11091747D02*
X10421301Y-11101271D01*
X10421301Y-11101271D02*
X10402254Y-11110795D01*
X10402254Y-11110795D02*
X10383206Y-11110795D01*
X10383206Y-11110795D02*
X10364159Y-11101271D01*
X10364159Y-11101271D02*
X10354635Y-11091747D01*
X10354635Y-11091747D02*
X10345111Y-11072699D01*
X10345111Y-11072699D02*
X10335587Y-11034604D01*
X10335587Y-11034604D02*
X10335587Y-10986985D01*
X10335587Y-10986985D02*
X10345111Y-10948890D01*
X10345111Y-10948890D02*
X10354635Y-10929842D01*
X10354635Y-10929842D02*
X10364159Y-10920319D01*
X10364159Y-10920319D02*
X10383206Y-10910795D01*
X10573682Y-10910795D02*
X10592730Y-10910795D01*
X10592730Y-10910795D02*
X10611778Y-10920319D01*
X10611778Y-10920319D02*
X10621301Y-10929842D01*
X10621301Y-10929842D02*
X10630825Y-10948890D01*
X10630825Y-10948890D02*
X10640349Y-10986985D01*
X10640349Y-10986985D02*
X10640349Y-11034604D01*
X10640349Y-11034604D02*
X10630825Y-11072699D01*
X10630825Y-11072699D02*
X10621301Y-11091747D01*
X10621301Y-11091747D02*
X10611778Y-11101271D01*
X10611778Y-11101271D02*
X10592730Y-11110795D01*
X10592730Y-11110795D02*
X10573682Y-11110795D01*
X10573682Y-11110795D02*
X10554635Y-11101271D01*
X10554635Y-11101271D02*
X10545111Y-11091747D01*
X10545111Y-11091747D02*
X10535587Y-11072699D01*
X10535587Y-11072699D02*
X10526063Y-11034604D01*
X10526063Y-11034604D02*
X10526063Y-10986985D01*
X10526063Y-10986985D02*
X10535587Y-10948890D01*
X10535587Y-10948890D02*
X10545111Y-10929842D01*
X10545111Y-10929842D02*
X10554635Y-10920319D01*
X10554635Y-10920319D02*
X10573682Y-10910795D01*
X10726063Y-11110795D02*
X10726063Y-10977461D01*
X10726063Y-10996509D02*
X10735587Y-10986985D01*
X10735587Y-10986985D02*
X10754635Y-10977461D01*
X10754635Y-10977461D02*
X10783206Y-10977461D01*
X10783206Y-10977461D02*
X10802254Y-10986985D01*
X10802254Y-10986985D02*
X10811778Y-11006033D01*
X10811778Y-11006033D02*
X10811778Y-11110795D01*
X10811778Y-11006033D02*
X10821301Y-10986985D01*
X10821301Y-10986985D02*
X10840349Y-10977461D01*
X10840349Y-10977461D02*
X10868920Y-10977461D01*
X10868920Y-10977461D02*
X10887968Y-10986985D01*
X10887968Y-10986985D02*
X10897492Y-11006033D01*
X10897492Y-11006033D02*
X10897492Y-11110795D01*
X10992730Y-11110795D02*
X10992730Y-10977461D01*
X10992730Y-10996509D02*
X11002254Y-10986985D01*
X11002254Y-10986985D02*
X11021301Y-10977461D01*
X11021301Y-10977461D02*
X11049873Y-10977461D01*
X11049873Y-10977461D02*
X11068921Y-10986985D01*
X11068921Y-10986985D02*
X11078444Y-11006033D01*
X11078444Y-11006033D02*
X11078444Y-11110795D01*
X11078444Y-11006033D02*
X11087968Y-10986985D01*
X11087968Y-10986985D02*
X11107016Y-10977461D01*
X11107016Y-10977461D02*
X11135587Y-10977461D01*
X11135587Y-10977461D02*
X11154635Y-10986985D01*
X11154635Y-10986985D02*
X11164159Y-11006033D01*
X11164159Y-11006033D02*
X11164159Y-11110795D01*
X11554635Y-10901271D02*
X11383206Y-11158414D01*
X11811778Y-10910795D02*
X11830825Y-10910795D01*
X11830825Y-10910795D02*
X11849873Y-10920319D01*
X11849873Y-10920319D02*
X11859397Y-10929842D01*
X11859397Y-10929842D02*
X11868921Y-10948890D01*
X11868921Y-10948890D02*
X11878444Y-10986985D01*
X11878444Y-10986985D02*
X11878444Y-11034604D01*
X11878444Y-11034604D02*
X11868921Y-11072699D01*
X11868921Y-11072699D02*
X11859397Y-11091747D01*
X11859397Y-11091747D02*
X11849873Y-11101271D01*
X11849873Y-11101271D02*
X11830825Y-11110795D01*
X11830825Y-11110795D02*
X11811778Y-11110795D01*
X11811778Y-11110795D02*
X11792730Y-11101271D01*
X11792730Y-11101271D02*
X11783206Y-11091747D01*
X11783206Y-11091747D02*
X11773682Y-11072699D01*
X11773682Y-11072699D02*
X11764159Y-11034604D01*
X11764159Y-11034604D02*
X11764159Y-10986985D01*
X11764159Y-10986985D02*
X11773682Y-10948890D01*
X11773682Y-10948890D02*
X11783206Y-10929842D01*
X11783206Y-10929842D02*
X11792730Y-10920319D01*
X11792730Y-10920319D02*
X11811778Y-10910795D01*
X11964159Y-11091747D02*
X11973682Y-11101271D01*
X11973682Y-11101271D02*
X11964159Y-11110795D01*
X11964159Y-11110795D02*
X11954635Y-11101271D01*
X11954635Y-11101271D02*
X11964159Y-11091747D01*
X11964159Y-11091747D02*
X11964159Y-11110795D01*
X12164159Y-11110795D02*
X12049873Y-11110795D01*
X12107016Y-11110795D02*
X12107016Y-10910795D01*
X12107016Y-10910795D02*
X12087968Y-10939366D01*
X12087968Y-10939366D02*
X12068921Y-10958414D01*
X12068921Y-10958414D02*
X12049873Y-10967938D01*
X12354635Y-11110795D02*
X12240349Y-11110795D01*
X12297492Y-11110795D02*
X12297492Y-10910795D01*
X12297492Y-10910795D02*
X12278444Y-10939366D01*
X12278444Y-10939366D02*
X12259397Y-10958414D01*
X12259397Y-10958414D02*
X12240349Y-10967938D01*
X12478444Y-10910795D02*
X12497492Y-10910795D01*
X12497492Y-10910795D02*
X12516540Y-10920319D01*
X12516540Y-10920319D02*
X12526063Y-10929842D01*
X12526063Y-10929842D02*
X12535587Y-10948890D01*
X12535587Y-10948890D02*
X12545111Y-10986985D01*
X12545111Y-10986985D02*
X12545111Y-11034604D01*
X12545111Y-11034604D02*
X12535587Y-11072699D01*
X12535587Y-11072699D02*
X12526063Y-11091747D01*
X12526063Y-11091747D02*
X12516540Y-11101271D01*
X12516540Y-11101271D02*
X12497492Y-11110795D01*
X12497492Y-11110795D02*
X12478444Y-11110795D01*
X12478444Y-11110795D02*
X12459397Y-11101271D01*
X12459397Y-11101271D02*
X12449873Y-11091747D01*
X12449873Y-11091747D02*
X12440349Y-11072699D01*
X12440349Y-11072699D02*
X12430825Y-11034604D01*
X12430825Y-11034604D02*
X12430825Y-10986985D01*
X12430825Y-10986985D02*
X12440349Y-10948890D01*
X12440349Y-10948890D02*
X12449873Y-10929842D01*
X12449873Y-10929842D02*
X12459397Y-10920319D01*
X12459397Y-10920319D02*
X12478444Y-10910795D01*
X12621302Y-10929842D02*
X12630825Y-10920319D01*
X12630825Y-10920319D02*
X12649873Y-10910795D01*
X12649873Y-10910795D02*
X12697492Y-10910795D01*
X12697492Y-10910795D02*
X12716540Y-10920319D01*
X12716540Y-10920319D02*
X12726063Y-10929842D01*
X12726063Y-10929842D02*
X12735587Y-10948890D01*
X12735587Y-10948890D02*
X12735587Y-10967938D01*
X12735587Y-10967938D02*
X12726063Y-10996509D01*
X12726063Y-10996509D02*
X12611778Y-11110795D01*
X12611778Y-11110795D02*
X12735587Y-11110795D01*
X12811778Y-10910795D02*
X12811778Y-10948890D01*
X12887968Y-10910795D02*
X12887968Y-10948890D01*
X13183206Y-11186985D02*
X13173683Y-11177461D01*
X13173683Y-11177461D02*
X13154635Y-11148890D01*
X13154635Y-11148890D02*
X13145111Y-11129842D01*
X13145111Y-11129842D02*
X13135587Y-11101271D01*
X13135587Y-11101271D02*
X13126064Y-11053652D01*
X13126064Y-11053652D02*
X13126064Y-11015557D01*
X13126064Y-11015557D02*
X13135587Y-10967938D01*
X13135587Y-10967938D02*
X13145111Y-10939366D01*
X13145111Y-10939366D02*
X13154635Y-10920319D01*
X13154635Y-10920319D02*
X13173683Y-10891747D01*
X13173683Y-10891747D02*
X13183206Y-10882223D01*
X13240349Y-10910795D02*
X13364159Y-10910795D01*
X13364159Y-10910795D02*
X13297492Y-10986985D01*
X13297492Y-10986985D02*
X13326064Y-10986985D01*
X13326064Y-10986985D02*
X13345111Y-10996509D01*
X13345111Y-10996509D02*
X13354635Y-11006033D01*
X13354635Y-11006033D02*
X13364159Y-11025080D01*
X13364159Y-11025080D02*
X13364159Y-11072699D01*
X13364159Y-11072699D02*
X13354635Y-11091747D01*
X13354635Y-11091747D02*
X13345111Y-11101271D01*
X13345111Y-11101271D02*
X13326064Y-11110795D01*
X13326064Y-11110795D02*
X13268921Y-11110795D01*
X13268921Y-11110795D02*
X13249873Y-11101271D01*
X13249873Y-11101271D02*
X13240349Y-11091747D01*
X13602254Y-11110795D02*
X13602254Y-10910795D01*
X13687968Y-11110795D02*
X13687968Y-11006033D01*
X13687968Y-11006033D02*
X13678445Y-10986985D01*
X13678445Y-10986985D02*
X13659397Y-10977461D01*
X13659397Y-10977461D02*
X13630825Y-10977461D01*
X13630825Y-10977461D02*
X13611778Y-10986985D01*
X13611778Y-10986985D02*
X13602254Y-10996509D01*
X13811778Y-11110795D02*
X13792730Y-11101271D01*
X13792730Y-11101271D02*
X13783206Y-11091747D01*
X13783206Y-11091747D02*
X13773683Y-11072699D01*
X13773683Y-11072699D02*
X13773683Y-11015557D01*
X13773683Y-11015557D02*
X13783206Y-10996509D01*
X13783206Y-10996509D02*
X13792730Y-10986985D01*
X13792730Y-10986985D02*
X13811778Y-10977461D01*
X13811778Y-10977461D02*
X13840349Y-10977461D01*
X13840349Y-10977461D02*
X13859397Y-10986985D01*
X13859397Y-10986985D02*
X13868921Y-10996509D01*
X13868921Y-10996509D02*
X13878445Y-11015557D01*
X13878445Y-11015557D02*
X13878445Y-11072699D01*
X13878445Y-11072699D02*
X13868921Y-11091747D01*
X13868921Y-11091747D02*
X13859397Y-11101271D01*
X13859397Y-11101271D02*
X13840349Y-11110795D01*
X13840349Y-11110795D02*
X13811778Y-11110795D01*
X13992730Y-11110795D02*
X13973683Y-11101271D01*
X13973683Y-11101271D02*
X13964159Y-11082223D01*
X13964159Y-11082223D02*
X13964159Y-10910795D01*
X14145111Y-11101271D02*
X14126064Y-11110795D01*
X14126064Y-11110795D02*
X14087968Y-11110795D01*
X14087968Y-11110795D02*
X14068921Y-11101271D01*
X14068921Y-11101271D02*
X14059397Y-11082223D01*
X14059397Y-11082223D02*
X14059397Y-11006033D01*
X14059397Y-11006033D02*
X14068921Y-10986985D01*
X14068921Y-10986985D02*
X14087968Y-10977461D01*
X14087968Y-10977461D02*
X14126064Y-10977461D01*
X14126064Y-10977461D02*
X14145111Y-10986985D01*
X14145111Y-10986985D02*
X14154635Y-11006033D01*
X14154635Y-11006033D02*
X14154635Y-11025080D01*
X14154635Y-11025080D02*
X14059397Y-11044128D01*
X14230826Y-11101271D02*
X14249873Y-11110795D01*
X14249873Y-11110795D02*
X14287968Y-11110795D01*
X14287968Y-11110795D02*
X14307016Y-11101271D01*
X14307016Y-11101271D02*
X14316540Y-11082223D01*
X14316540Y-11082223D02*
X14316540Y-11072699D01*
X14316540Y-11072699D02*
X14307016Y-11053652D01*
X14307016Y-11053652D02*
X14287968Y-11044128D01*
X14287968Y-11044128D02*
X14259397Y-11044128D01*
X14259397Y-11044128D02*
X14240349Y-11034604D01*
X14240349Y-11034604D02*
X14230826Y-11015557D01*
X14230826Y-11015557D02*
X14230826Y-11006033D01*
X14230826Y-11006033D02*
X14240349Y-10986985D01*
X14240349Y-10986985D02*
X14259397Y-10977461D01*
X14259397Y-10977461D02*
X14287968Y-10977461D01*
X14287968Y-10977461D02*
X14307016Y-10986985D01*
X14383207Y-11186985D02*
X14392730Y-11177461D01*
X14392730Y-11177461D02*
X14411778Y-11148890D01*
X14411778Y-11148890D02*
X14421302Y-11129842D01*
X14421302Y-11129842D02*
X14430826Y-11101271D01*
X14430826Y-11101271D02*
X14440349Y-11053652D01*
X14440349Y-11053652D02*
X14440349Y-11015557D01*
X14440349Y-11015557D02*
X14430826Y-10967938D01*
X14430826Y-10967938D02*
X14421302Y-10939366D01*
X14421302Y-10939366D02*
X14411778Y-10920319D01*
X14411778Y-10920319D02*
X14392730Y-10891747D01*
X14392730Y-10891747D02*
X14383207Y-10882223D01*
M02*
