%TF.GenerationSoftware,KiCad,Pcbnew,7.0.2-0*%
%TF.CreationDate,2023-11-12T18:26:11-05:00*%
%TF.ProjectId,LCD Module,4c434420-4d6f-4647-956c-652e6b696361,rev?*%
%TF.SameCoordinates,Original*%
%TF.FileFunction,Legend,Bot*%
%TF.FilePolarity,Positive*%
%FSLAX46Y46*%
G04 Gerber Fmt 4.6, Leading zero omitted, Abs format (unit mm)*
G04 Created by KiCad (PCBNEW 7.0.2-0) date 2023-11-12 18:26:11*
%MOMM*%
%LPD*%
G01*
G04 APERTURE LIST*
%ADD10C,0.125000*%
%ADD11C,0.150000*%
%ADD12C,0.120000*%
G04 APERTURE END LIST*
D10*
G36*
X116714712Y-74682071D02*
G01*
X116829506Y-74682071D01*
X116838979Y-74682420D01*
X116848162Y-74683133D01*
X116857056Y-74684210D01*
X116865662Y-74685650D01*
X116873978Y-74687454D01*
X116882005Y-74689621D01*
X116889743Y-74692152D01*
X116897192Y-74695046D01*
X116904352Y-74698304D01*
X116911223Y-74701925D01*
X116917804Y-74705909D01*
X116924097Y-74710258D01*
X116930100Y-74714969D01*
X116935815Y-74720045D01*
X116941240Y-74725483D01*
X116946376Y-74731285D01*
X116951094Y-74737018D01*
X116955507Y-74742828D01*
X116959616Y-74748715D01*
X116963420Y-74754679D01*
X116966920Y-74760721D01*
X116970116Y-74766840D01*
X116973007Y-74773036D01*
X116975594Y-74779310D01*
X116977877Y-74785660D01*
X116979855Y-74792089D01*
X116981529Y-74798594D01*
X116982898Y-74805177D01*
X116983963Y-74811836D01*
X116984724Y-74818574D01*
X116985181Y-74825388D01*
X116985333Y-74832280D01*
X116985273Y-74837366D01*
X116985093Y-74842366D01*
X116984792Y-74847281D01*
X116984116Y-74854491D01*
X116983169Y-74861509D01*
X116981952Y-74868333D01*
X116980464Y-74874964D01*
X116978706Y-74881402D01*
X116976678Y-74887647D01*
X116974379Y-74893698D01*
X116971809Y-74899556D01*
X116969946Y-74903355D01*
X116967120Y-74909067D01*
X116964137Y-74914526D01*
X116960997Y-74919731D01*
X116957701Y-74924684D01*
X116954248Y-74929383D01*
X116950639Y-74933829D01*
X116946872Y-74938021D01*
X116942949Y-74941960D01*
X116938870Y-74945646D01*
X116934633Y-74949079D01*
X116931722Y-74951226D01*
X116926463Y-74955261D01*
X116921219Y-74959033D01*
X116915990Y-74962540D01*
X116910776Y-74965783D01*
X116905577Y-74968763D01*
X116900393Y-74971478D01*
X116895225Y-74973929D01*
X116890071Y-74976116D01*
X116884932Y-74978039D01*
X116879808Y-74979698D01*
X116876401Y-74980657D01*
X116871253Y-74981639D01*
X116866070Y-74982525D01*
X116860849Y-74983314D01*
X116855592Y-74984006D01*
X116850299Y-74984602D01*
X116844969Y-74985101D01*
X116839603Y-74985503D01*
X116834200Y-74985809D01*
X116828761Y-74986019D01*
X116823285Y-74986131D01*
X116819614Y-74986153D01*
X116639119Y-74986153D01*
X116639119Y-74750947D01*
X116714712Y-74750947D01*
X116714712Y-74916544D01*
X116823766Y-74916544D01*
X116829470Y-74916521D01*
X116835041Y-74916223D01*
X116840478Y-74915651D01*
X116845783Y-74914803D01*
X116850954Y-74913681D01*
X116855992Y-74912285D01*
X116860897Y-74910613D01*
X116865669Y-74908667D01*
X116870308Y-74906446D01*
X116874814Y-74903950D01*
X116877744Y-74902133D01*
X116882386Y-74899110D01*
X116886693Y-74895765D01*
X116890667Y-74892098D01*
X116894307Y-74888108D01*
X116897613Y-74883797D01*
X116900585Y-74879164D01*
X116901680Y-74877221D01*
X116903598Y-74872696D01*
X116905260Y-74867916D01*
X116906666Y-74862881D01*
X116907816Y-74857590D01*
X116908711Y-74852043D01*
X116909351Y-74846240D01*
X116909734Y-74840181D01*
X116909862Y-74833867D01*
X116909685Y-74828124D01*
X116909154Y-74822479D01*
X116908268Y-74816932D01*
X116907028Y-74811485D01*
X116905435Y-74806136D01*
X116903486Y-74800886D01*
X116901184Y-74795735D01*
X116898528Y-74790682D01*
X116895517Y-74785728D01*
X116892152Y-74780873D01*
X116889712Y-74777692D01*
X116885545Y-74773037D01*
X116881014Y-74768826D01*
X116876117Y-74765060D01*
X116870856Y-74761738D01*
X116865229Y-74758860D01*
X116859238Y-74756427D01*
X116852882Y-74754438D01*
X116846160Y-74752893D01*
X116839074Y-74751793D01*
X116834147Y-74751307D01*
X116829058Y-74751017D01*
X116826453Y-74750947D01*
X116714712Y-74750947D01*
X116639119Y-74750947D01*
X116639119Y-74485944D01*
X116714712Y-74485944D01*
X116714712Y-74682071D01*
G37*
G36*
X117049447Y-74485944D02*
G01*
X117120888Y-74485944D01*
X117120888Y-74837653D01*
X117049447Y-74837653D01*
X117049447Y-74485944D01*
G37*
G36*
X117049447Y-74916544D02*
G01*
X117120888Y-74916544D01*
X117120888Y-74986153D01*
X117049447Y-74986153D01*
X117049447Y-74916544D01*
G37*
G36*
X117214921Y-74485944D02*
G01*
X117286362Y-74485944D01*
X117286362Y-74698679D01*
X117286539Y-74705573D01*
X117287071Y-74712149D01*
X117287956Y-74718407D01*
X117289196Y-74724347D01*
X117290790Y-74729970D01*
X117292738Y-74735275D01*
X117295040Y-74740263D01*
X117297697Y-74744933D01*
X117300707Y-74749285D01*
X117304072Y-74753319D01*
X117306512Y-74755832D01*
X117310318Y-74759411D01*
X117314318Y-74762638D01*
X117318510Y-74765513D01*
X117322896Y-74768036D01*
X117327475Y-74770207D01*
X117332247Y-74772026D01*
X117337212Y-74773493D01*
X117342370Y-74774608D01*
X117347722Y-74775371D01*
X117353267Y-74775782D01*
X117357071Y-74775860D01*
X117362742Y-74775684D01*
X117368216Y-74775156D01*
X117373493Y-74774276D01*
X117378572Y-74773043D01*
X117383453Y-74771459D01*
X117388137Y-74769523D01*
X117392624Y-74767234D01*
X117396913Y-74764594D01*
X117401004Y-74761602D01*
X117404898Y-74758257D01*
X117407385Y-74755832D01*
X117410920Y-74752009D01*
X117414108Y-74747869D01*
X117416948Y-74743411D01*
X117419440Y-74738636D01*
X117421585Y-74733542D01*
X117423382Y-74728131D01*
X117424831Y-74722403D01*
X117425932Y-74716356D01*
X117426685Y-74709992D01*
X117427091Y-74703310D01*
X117427168Y-74698679D01*
X117427168Y-74485944D01*
X117498609Y-74485944D01*
X117498609Y-74722004D01*
X117498261Y-74729492D01*
X117497642Y-74736750D01*
X117496753Y-74743780D01*
X117495595Y-74750581D01*
X117494166Y-74757152D01*
X117492467Y-74763495D01*
X117490498Y-74769609D01*
X117488260Y-74775493D01*
X117485751Y-74781149D01*
X117482972Y-74786576D01*
X117479923Y-74791774D01*
X117476605Y-74796743D01*
X117473016Y-74801482D01*
X117469157Y-74805993D01*
X117465028Y-74810275D01*
X117460630Y-74814328D01*
X117456036Y-74818099D01*
X117451383Y-74821627D01*
X117446671Y-74824911D01*
X117441899Y-74827952D01*
X117437069Y-74830750D01*
X117432179Y-74833305D01*
X117427230Y-74835616D01*
X117422222Y-74837684D01*
X117417155Y-74839508D01*
X117412029Y-74841090D01*
X117406844Y-74842428D01*
X117401599Y-74843523D01*
X117396296Y-74844374D01*
X117390933Y-74844982D01*
X117385511Y-74845347D01*
X117380030Y-74845469D01*
X117372971Y-74845292D01*
X117366085Y-74844759D01*
X117359370Y-74843872D01*
X117352827Y-74842630D01*
X117346456Y-74841033D01*
X117340256Y-74839080D01*
X117334228Y-74836774D01*
X117328372Y-74834112D01*
X117322688Y-74831095D01*
X117317175Y-74827723D01*
X117311834Y-74823997D01*
X117306665Y-74819915D01*
X117301668Y-74815479D01*
X117296842Y-74810687D01*
X117292188Y-74805541D01*
X117287706Y-74800040D01*
X117286362Y-74800040D01*
X117286362Y-74837653D01*
X117214921Y-74837653D01*
X117214921Y-74485944D01*
G37*
G36*
X117847632Y-74909583D02*
G01*
X117847632Y-74485944D01*
X117919073Y-74485944D01*
X117919073Y-74986153D01*
X117847632Y-74986153D01*
X117776924Y-74933641D01*
X117776924Y-74857681D01*
X117847632Y-74909583D01*
G37*
G36*
X118252343Y-74642992D02*
G01*
X118462880Y-74642992D01*
X118462880Y-74711868D01*
X118252343Y-74711868D01*
X118252343Y-74642992D01*
G37*
G36*
X118536642Y-74642992D02*
G01*
X118747179Y-74642992D01*
X118747179Y-74711868D01*
X118536642Y-74711868D01*
X118536642Y-74642992D01*
G37*
G36*
X118816544Y-74479227D02*
G01*
X119170574Y-74636519D01*
X119170574Y-74687077D01*
X118816544Y-74845469D01*
X118816544Y-74785874D01*
X119107681Y-74661798D01*
X118816544Y-74538089D01*
X118816544Y-74479227D01*
G37*
G36*
X126987851Y-82735163D02*
G01*
X126987851Y-82633680D01*
X126961351Y-82633680D01*
X126955439Y-82633881D01*
X126949673Y-82634301D01*
X126944052Y-82634938D01*
X126938575Y-82635795D01*
X126933244Y-82636869D01*
X126928058Y-82638163D01*
X126923016Y-82639674D01*
X126918120Y-82641405D01*
X126913369Y-82643353D01*
X126908762Y-82645521D01*
X126904301Y-82647906D01*
X126899985Y-82650510D01*
X126895814Y-82653333D01*
X126891788Y-82656374D01*
X126887906Y-82659634D01*
X126884170Y-82663112D01*
X126880458Y-82666759D01*
X126876986Y-82670527D01*
X126873753Y-82674415D01*
X126870760Y-82678423D01*
X126868006Y-82682551D01*
X126865491Y-82686800D01*
X126863216Y-82691168D01*
X126861181Y-82695657D01*
X126859385Y-82700266D01*
X126857828Y-82704996D01*
X126856511Y-82709845D01*
X126855433Y-82714815D01*
X126854595Y-82719905D01*
X126853997Y-82725115D01*
X126853637Y-82730446D01*
X126853518Y-82735896D01*
X126853616Y-82740822D01*
X126854055Y-82747187D01*
X126854845Y-82753319D01*
X126855986Y-82759218D01*
X126857479Y-82764884D01*
X126859322Y-82770318D01*
X126861516Y-82775518D01*
X126864062Y-82780486D01*
X126864753Y-82781692D01*
X126867224Y-82786458D01*
X126869874Y-82790988D01*
X126872704Y-82795281D01*
X126875713Y-82799338D01*
X126878902Y-82803158D01*
X126882270Y-82806742D01*
X126886732Y-82810888D01*
X126889544Y-82813199D01*
X126893669Y-82816708D01*
X126898107Y-82819908D01*
X126902859Y-82822799D01*
X126907923Y-82825381D01*
X126913300Y-82827653D01*
X126918990Y-82829617D01*
X126924993Y-82831271D01*
X126931309Y-82832616D01*
X126936556Y-82833598D01*
X126942633Y-82834484D01*
X126949542Y-82835273D01*
X126954609Y-82835745D01*
X126960045Y-82836174D01*
X126965851Y-82836561D01*
X126972025Y-82836904D01*
X126978569Y-82837205D01*
X126985483Y-82837462D01*
X126992765Y-82837677D01*
X127000417Y-82837849D01*
X127008438Y-82837978D01*
X127016828Y-82838063D01*
X127025587Y-82838106D01*
X127030105Y-82838112D01*
X127039052Y-82838090D01*
X127047635Y-82838026D01*
X127055855Y-82837919D01*
X127063712Y-82837768D01*
X127071204Y-82837575D01*
X127078334Y-82837339D01*
X127085100Y-82837060D01*
X127091502Y-82836738D01*
X127097541Y-82836373D01*
X127103216Y-82835965D01*
X127108528Y-82835514D01*
X127113476Y-82835021D01*
X127120217Y-82834199D01*
X127126140Y-82833282D01*
X127129634Y-82832616D01*
X127135778Y-82831271D01*
X127141633Y-82829617D01*
X127147197Y-82827653D01*
X127152471Y-82825381D01*
X127157455Y-82822799D01*
X127162149Y-82819908D01*
X127166553Y-82816708D01*
X127170667Y-82813199D01*
X127175315Y-82809274D01*
X127178858Y-82805868D01*
X127182244Y-82802225D01*
X127185473Y-82798346D01*
X127188546Y-82794230D01*
X127191463Y-82789878D01*
X127194223Y-82785289D01*
X127196190Y-82781692D01*
X127198492Y-82776782D01*
X127200510Y-82771640D01*
X127202247Y-82766264D01*
X127203701Y-82760656D01*
X127204872Y-82754815D01*
X127205762Y-82748742D01*
X127206368Y-82742435D01*
X127206638Y-82737553D01*
X127206693Y-82735896D01*
X127206388Y-82729192D01*
X127205748Y-82722681D01*
X127204774Y-82716364D01*
X127203464Y-82710239D01*
X127201820Y-82704308D01*
X127199841Y-82698570D01*
X127197527Y-82693025D01*
X127194878Y-82687673D01*
X127191894Y-82682515D01*
X127188575Y-82677550D01*
X127186176Y-82674347D01*
X127182185Y-82669944D01*
X127178041Y-82665803D01*
X127173744Y-82661924D01*
X127169295Y-82658307D01*
X127164694Y-82654952D01*
X127159940Y-82651858D01*
X127155034Y-82649027D01*
X127149975Y-82646457D01*
X127144764Y-82644150D01*
X127139401Y-82642104D01*
X127135740Y-82640886D01*
X127135740Y-82560896D01*
X127143522Y-82562523D01*
X127151145Y-82564411D01*
X127158608Y-82566560D01*
X127165912Y-82568971D01*
X127173057Y-82571644D01*
X127180042Y-82574578D01*
X127186868Y-82577773D01*
X127193534Y-82581229D01*
X127200042Y-82584947D01*
X127206389Y-82588927D01*
X127212578Y-82593168D01*
X127218607Y-82597670D01*
X127224477Y-82602434D01*
X127230188Y-82607459D01*
X127235739Y-82612745D01*
X127241131Y-82618293D01*
X127246251Y-82624076D01*
X127251046Y-82630068D01*
X127255517Y-82636269D01*
X127259663Y-82642679D01*
X127263485Y-82649298D01*
X127266983Y-82656126D01*
X127270156Y-82663163D01*
X127273005Y-82670409D01*
X127275529Y-82677863D01*
X127277729Y-82685527D01*
X127279605Y-82693399D01*
X127281156Y-82701481D01*
X127282383Y-82709771D01*
X127283286Y-82718271D01*
X127283864Y-82726979D01*
X127284118Y-82735896D01*
X127283922Y-82743163D01*
X127283519Y-82750278D01*
X127282907Y-82757241D01*
X127282088Y-82764053D01*
X127281060Y-82770713D01*
X127279825Y-82777221D01*
X127278381Y-82783577D01*
X127276730Y-82789782D01*
X127274870Y-82795835D01*
X127272803Y-82801737D01*
X127270527Y-82807486D01*
X127268044Y-82813085D01*
X127265352Y-82818531D01*
X127262453Y-82823825D01*
X127259345Y-82828968D01*
X127256030Y-82833960D01*
X127252612Y-82838881D01*
X127249136Y-82843630D01*
X127245601Y-82848208D01*
X127242009Y-82852614D01*
X127238358Y-82856848D01*
X127234649Y-82860910D01*
X127230882Y-82864801D01*
X127227057Y-82868520D01*
X127223173Y-82872067D01*
X127219231Y-82875443D01*
X127215231Y-82878647D01*
X127211173Y-82881679D01*
X127207057Y-82884539D01*
X127202882Y-82887227D01*
X127198650Y-82889744D01*
X127194359Y-82892089D01*
X127189632Y-82894809D01*
X127184551Y-82897348D01*
X127179114Y-82899709D01*
X127173323Y-82901890D01*
X127167177Y-82903891D01*
X127162335Y-82905275D01*
X127157292Y-82906557D01*
X127152051Y-82907739D01*
X127146609Y-82908820D01*
X127140584Y-82909737D01*
X127133546Y-82910563D01*
X127128291Y-82911064D01*
X127122586Y-82911525D01*
X127116430Y-82911946D01*
X127109824Y-82912326D01*
X127102768Y-82912667D01*
X127095261Y-82912967D01*
X127087304Y-82913228D01*
X127078897Y-82913448D01*
X127070039Y-82913629D01*
X127060731Y-82913769D01*
X127050973Y-82913869D01*
X127045925Y-82913904D01*
X127040764Y-82913929D01*
X127035491Y-82913944D01*
X127030105Y-82913949D01*
X127024801Y-82913944D01*
X127019606Y-82913929D01*
X127014519Y-82913904D01*
X127009541Y-82913869D01*
X126999910Y-82913769D01*
X126990713Y-82913629D01*
X126981951Y-82913448D01*
X126973622Y-82913228D01*
X126965728Y-82912967D01*
X126958267Y-82912667D01*
X126951241Y-82912326D01*
X126944649Y-82911946D01*
X126938491Y-82911525D01*
X126932767Y-82911064D01*
X126927477Y-82910563D01*
X126922621Y-82910022D01*
X126916152Y-82909136D01*
X126914212Y-82908820D01*
X126909309Y-82907945D01*
X126903779Y-82906800D01*
X126898635Y-82905552D01*
X126893878Y-82904201D01*
X126888817Y-82902495D01*
X126887467Y-82901981D01*
X126882927Y-82900005D01*
X126878281Y-82897924D01*
X126873530Y-82895738D01*
X126868674Y-82893446D01*
X126865852Y-82892089D01*
X126861564Y-82889730D01*
X126857340Y-82887201D01*
X126853179Y-82884502D01*
X126849083Y-82881633D01*
X126845051Y-82878594D01*
X126841082Y-82875386D01*
X126837178Y-82872007D01*
X126833337Y-82868459D01*
X126829560Y-82864741D01*
X126825848Y-82860853D01*
X126822199Y-82856795D01*
X126818614Y-82852568D01*
X126815093Y-82848171D01*
X126811636Y-82843603D01*
X126808243Y-82838866D01*
X126804913Y-82833960D01*
X126801581Y-82828968D01*
X126798452Y-82823825D01*
X126795528Y-82818531D01*
X126792808Y-82813085D01*
X126790292Y-82807486D01*
X126787980Y-82801737D01*
X126785873Y-82795835D01*
X126783970Y-82789782D01*
X126782270Y-82783577D01*
X126780775Y-82777221D01*
X126779484Y-82770713D01*
X126778398Y-82764053D01*
X126777515Y-82757241D01*
X126776837Y-82750278D01*
X126776363Y-82743163D01*
X126776093Y-82735896D01*
X126776453Y-82726457D01*
X126777199Y-82717223D01*
X126778331Y-82708193D01*
X126779848Y-82699367D01*
X126781750Y-82690745D01*
X126784038Y-82682327D01*
X126786712Y-82674113D01*
X126789770Y-82666104D01*
X126793215Y-82658298D01*
X126797044Y-82650697D01*
X126801259Y-82643300D01*
X126805860Y-82636108D01*
X126810846Y-82629119D01*
X126816217Y-82622335D01*
X126821974Y-82615754D01*
X126828116Y-82609378D01*
X126834578Y-82603325D01*
X126841231Y-82597651D01*
X126848076Y-82592357D01*
X126855113Y-82587442D01*
X126862341Y-82582908D01*
X126869762Y-82578753D01*
X126877374Y-82574977D01*
X126885178Y-82571582D01*
X126893173Y-82568566D01*
X126901361Y-82565930D01*
X126909740Y-82563673D01*
X126918311Y-82561797D01*
X126927073Y-82560300D01*
X126936028Y-82559183D01*
X126945174Y-82558445D01*
X126954512Y-82558087D01*
X127056728Y-82558087D01*
X127056728Y-82735163D01*
X126987851Y-82735163D01*
G37*
G36*
X126783909Y-82469916D02*
G01*
X126783909Y-82394323D01*
X127138793Y-82394323D01*
X127138793Y-82392979D01*
X126783909Y-82167787D01*
X126783909Y-82096346D01*
X127284118Y-82096346D01*
X127284118Y-82171817D01*
X126928622Y-82171817D01*
X126928622Y-82173161D01*
X127284118Y-82398841D01*
X127284118Y-82469916D01*
X126783909Y-82469916D01*
G37*
G36*
X127043317Y-81638528D02*
G01*
X127052270Y-81638572D01*
X127060872Y-81638646D01*
X127069123Y-81638750D01*
X127077023Y-81638883D01*
X127084571Y-81639045D01*
X127091769Y-81639238D01*
X127098615Y-81639459D01*
X127105111Y-81639711D01*
X127111255Y-81639992D01*
X127117048Y-81640302D01*
X127122490Y-81640643D01*
X127127581Y-81641012D01*
X127134559Y-81641622D01*
X127140747Y-81642299D01*
X127146516Y-81643309D01*
X127152235Y-81644553D01*
X127157905Y-81646031D01*
X127163525Y-81647743D01*
X127169096Y-81649689D01*
X127174617Y-81651869D01*
X127180090Y-81654283D01*
X127185512Y-81656930D01*
X127190886Y-81659812D01*
X127196210Y-81662928D01*
X127199732Y-81665135D01*
X127204879Y-81668345D01*
X127209865Y-81671653D01*
X127214688Y-81675061D01*
X127219350Y-81678567D01*
X127223849Y-81682172D01*
X127228187Y-81685877D01*
X127232362Y-81689680D01*
X127236376Y-81693582D01*
X127240228Y-81697583D01*
X127243917Y-81701684D01*
X127247445Y-81705883D01*
X127250811Y-81710181D01*
X127254015Y-81714578D01*
X127257057Y-81719075D01*
X127259937Y-81723670D01*
X127262655Y-81728364D01*
X127265211Y-81733157D01*
X127267605Y-81738049D01*
X127269837Y-81743040D01*
X127271908Y-81748130D01*
X127273816Y-81753319D01*
X127275562Y-81758608D01*
X127277147Y-81763995D01*
X127278569Y-81769481D01*
X127279829Y-81775066D01*
X127280928Y-81780750D01*
X127281864Y-81786533D01*
X127282639Y-81792415D01*
X127283252Y-81798396D01*
X127283702Y-81804476D01*
X127283991Y-81810654D01*
X127284118Y-81816932D01*
X127284118Y-81991200D01*
X126783909Y-81991200D01*
X126783909Y-81915607D01*
X126853518Y-81915607D01*
X127214509Y-81915607D01*
X127214509Y-81825359D01*
X127214499Y-81818286D01*
X127214135Y-81811416D01*
X127213415Y-81804749D01*
X127212341Y-81798286D01*
X127210912Y-81792026D01*
X127209128Y-81785969D01*
X127206989Y-81780115D01*
X127204495Y-81774465D01*
X127201646Y-81769017D01*
X127198442Y-81763773D01*
X127194883Y-81758732D01*
X127190970Y-81753895D01*
X127186701Y-81749260D01*
X127182078Y-81744829D01*
X127177099Y-81740601D01*
X127171766Y-81736577D01*
X127167171Y-81732905D01*
X127162241Y-81729585D01*
X127156974Y-81726616D01*
X127151372Y-81723998D01*
X127145434Y-81721731D01*
X127140760Y-81720261D01*
X127135897Y-81718989D01*
X127130845Y-81717914D01*
X127125604Y-81717037D01*
X127119940Y-81716491D01*
X127113616Y-81716000D01*
X127106633Y-81715561D01*
X127101612Y-81715299D01*
X127096298Y-81715060D01*
X127090691Y-81714846D01*
X127084791Y-81714655D01*
X127078598Y-81714488D01*
X127072112Y-81714345D01*
X127065333Y-81714226D01*
X127058262Y-81714130D01*
X127050897Y-81714059D01*
X127043240Y-81714011D01*
X127035289Y-81713987D01*
X127031204Y-81713984D01*
X127022915Y-81713996D01*
X127014962Y-81714032D01*
X127007345Y-81714091D01*
X127000063Y-81714175D01*
X126993118Y-81714282D01*
X126986508Y-81714413D01*
X126980234Y-81714568D01*
X126974296Y-81714747D01*
X126968693Y-81714950D01*
X126963427Y-81715177D01*
X126958496Y-81715427D01*
X126951730Y-81715847D01*
X126945719Y-81716322D01*
X126940464Y-81716849D01*
X126938881Y-81717037D01*
X126932786Y-81718037D01*
X126926958Y-81719327D01*
X126921398Y-81720907D01*
X126916105Y-81722777D01*
X126911079Y-81724937D01*
X126906320Y-81727387D01*
X126901828Y-81730127D01*
X126897604Y-81733157D01*
X126892265Y-81736880D01*
X126887271Y-81740876D01*
X126882621Y-81745143D01*
X126878316Y-81749682D01*
X126874355Y-81754493D01*
X126870739Y-81759575D01*
X126867467Y-81764930D01*
X126864539Y-81770557D01*
X126861956Y-81776455D01*
X126859717Y-81782626D01*
X126857823Y-81789068D01*
X126856273Y-81795783D01*
X126855068Y-81802769D01*
X126854207Y-81810027D01*
X126853690Y-81817557D01*
X126853518Y-81825359D01*
X126853518Y-81915607D01*
X126783909Y-81915607D01*
X126783909Y-81822062D01*
X126784005Y-81815123D01*
X126784294Y-81808321D01*
X126784776Y-81801655D01*
X126785450Y-81795126D01*
X126786318Y-81788733D01*
X126787378Y-81782477D01*
X126788630Y-81776357D01*
X126790076Y-81770374D01*
X126791714Y-81764527D01*
X126793545Y-81758816D01*
X126795568Y-81753242D01*
X126797785Y-81747804D01*
X126800194Y-81742503D01*
X126802795Y-81737338D01*
X126805590Y-81732309D01*
X126808577Y-81727417D01*
X126811496Y-81722614D01*
X126814511Y-81717943D01*
X126817625Y-81713405D01*
X126820835Y-81709000D01*
X126824143Y-81704727D01*
X126827548Y-81700587D01*
X126831050Y-81696579D01*
X126834650Y-81692704D01*
X126838347Y-81688962D01*
X126842141Y-81685352D01*
X126846033Y-81681875D01*
X126850022Y-81678531D01*
X126854108Y-81675319D01*
X126858292Y-81672240D01*
X126862573Y-81669293D01*
X126866951Y-81666479D01*
X126871913Y-81663496D01*
X126876814Y-81660686D01*
X126881656Y-81658047D01*
X126886437Y-81655579D01*
X126891158Y-81653284D01*
X126892719Y-81652557D01*
X126897602Y-81650595D01*
X126902725Y-81648830D01*
X126908089Y-81647263D01*
X126913693Y-81645894D01*
X126918547Y-81644903D01*
X126921539Y-81644375D01*
X126927944Y-81643327D01*
X126935205Y-81642383D01*
X126940522Y-81641810D01*
X126946219Y-81641284D01*
X126952297Y-81640803D01*
X126958755Y-81640368D01*
X126965595Y-81639978D01*
X126972815Y-81639635D01*
X126980415Y-81639337D01*
X126988397Y-81639085D01*
X126996759Y-81638879D01*
X127005501Y-81638719D01*
X127014624Y-81638605D01*
X127024128Y-81638536D01*
X127029023Y-81638519D01*
X127034013Y-81638513D01*
X127043317Y-81638528D01*
G37*
D11*
X134098425Y-91151127D02*
X134574615Y-91151127D01*
X134574615Y-91151127D02*
X134574615Y-90151127D01*
X133193663Y-91055888D02*
X133241282Y-91103508D01*
X133241282Y-91103508D02*
X133384139Y-91151127D01*
X133384139Y-91151127D02*
X133479377Y-91151127D01*
X133479377Y-91151127D02*
X133622234Y-91103508D01*
X133622234Y-91103508D02*
X133717472Y-91008269D01*
X133717472Y-91008269D02*
X133765091Y-90913031D01*
X133765091Y-90913031D02*
X133812710Y-90722555D01*
X133812710Y-90722555D02*
X133812710Y-90579698D01*
X133812710Y-90579698D02*
X133765091Y-90389222D01*
X133765091Y-90389222D02*
X133717472Y-90293984D01*
X133717472Y-90293984D02*
X133622234Y-90198746D01*
X133622234Y-90198746D02*
X133479377Y-90151127D01*
X133479377Y-90151127D02*
X133384139Y-90151127D01*
X133384139Y-90151127D02*
X133241282Y-90198746D01*
X133241282Y-90198746D02*
X133193663Y-90246365D01*
X132765091Y-91151127D02*
X132765091Y-90151127D01*
X132765091Y-90151127D02*
X132526996Y-90151127D01*
X132526996Y-90151127D02*
X132384139Y-90198746D01*
X132384139Y-90198746D02*
X132288901Y-90293984D01*
X132288901Y-90293984D02*
X132241282Y-90389222D01*
X132241282Y-90389222D02*
X132193663Y-90579698D01*
X132193663Y-90579698D02*
X132193663Y-90722555D01*
X132193663Y-90722555D02*
X132241282Y-90913031D01*
X132241282Y-90913031D02*
X132288901Y-91008269D01*
X132288901Y-91008269D02*
X132384139Y-91103508D01*
X132384139Y-91103508D02*
X132526996Y-91151127D01*
X132526996Y-91151127D02*
X132765091Y-91151127D01*
X131003186Y-91151127D02*
X131003186Y-90151127D01*
X131003186Y-90151127D02*
X130669853Y-90865412D01*
X130669853Y-90865412D02*
X130336520Y-90151127D01*
X130336520Y-90151127D02*
X130336520Y-91151127D01*
X129717472Y-91151127D02*
X129812710Y-91103508D01*
X129812710Y-91103508D02*
X129860329Y-91055888D01*
X129860329Y-91055888D02*
X129907948Y-90960650D01*
X129907948Y-90960650D02*
X129907948Y-90674936D01*
X129907948Y-90674936D02*
X129860329Y-90579698D01*
X129860329Y-90579698D02*
X129812710Y-90532079D01*
X129812710Y-90532079D02*
X129717472Y-90484460D01*
X129717472Y-90484460D02*
X129574615Y-90484460D01*
X129574615Y-90484460D02*
X129479377Y-90532079D01*
X129479377Y-90532079D02*
X129431758Y-90579698D01*
X129431758Y-90579698D02*
X129384139Y-90674936D01*
X129384139Y-90674936D02*
X129384139Y-90960650D01*
X129384139Y-90960650D02*
X129431758Y-91055888D01*
X129431758Y-91055888D02*
X129479377Y-91103508D01*
X129479377Y-91103508D02*
X129574615Y-91151127D01*
X129574615Y-91151127D02*
X129717472Y-91151127D01*
X128526996Y-91151127D02*
X128526996Y-90151127D01*
X128526996Y-91103508D02*
X128622234Y-91151127D01*
X128622234Y-91151127D02*
X128812710Y-91151127D01*
X128812710Y-91151127D02*
X128907948Y-91103508D01*
X128907948Y-91103508D02*
X128955567Y-91055888D01*
X128955567Y-91055888D02*
X129003186Y-90960650D01*
X129003186Y-90960650D02*
X129003186Y-90674936D01*
X129003186Y-90674936D02*
X128955567Y-90579698D01*
X128955567Y-90579698D02*
X128907948Y-90532079D01*
X128907948Y-90532079D02*
X128812710Y-90484460D01*
X128812710Y-90484460D02*
X128622234Y-90484460D01*
X128622234Y-90484460D02*
X128526996Y-90532079D01*
X127622234Y-90484460D02*
X127622234Y-91151127D01*
X128050805Y-90484460D02*
X128050805Y-91008269D01*
X128050805Y-91008269D02*
X128003186Y-91103508D01*
X128003186Y-91103508D02*
X127907948Y-91151127D01*
X127907948Y-91151127D02*
X127765091Y-91151127D01*
X127765091Y-91151127D02*
X127669853Y-91103508D01*
X127669853Y-91103508D02*
X127622234Y-91055888D01*
X127003186Y-91151127D02*
X127098424Y-91103508D01*
X127098424Y-91103508D02*
X127146043Y-91008269D01*
X127146043Y-91008269D02*
X127146043Y-90151127D01*
X126241281Y-91103508D02*
X126336519Y-91151127D01*
X126336519Y-91151127D02*
X126526995Y-91151127D01*
X126526995Y-91151127D02*
X126622233Y-91103508D01*
X126622233Y-91103508D02*
X126669852Y-91008269D01*
X126669852Y-91008269D02*
X126669852Y-90627317D01*
X126669852Y-90627317D02*
X126622233Y-90532079D01*
X126622233Y-90532079D02*
X126526995Y-90484460D01*
X126526995Y-90484460D02*
X126336519Y-90484460D01*
X126336519Y-90484460D02*
X126241281Y-90532079D01*
X126241281Y-90532079D02*
X126193662Y-90627317D01*
X126193662Y-90627317D02*
X126193662Y-90722555D01*
X126193662Y-90722555D02*
X126669852Y-90817793D01*
X125098423Y-90484460D02*
X124860328Y-91151127D01*
X124860328Y-91151127D02*
X124622233Y-90484460D01*
X124241280Y-91055888D02*
X124193661Y-91103508D01*
X124193661Y-91103508D02*
X124241280Y-91151127D01*
X124241280Y-91151127D02*
X124288899Y-91103508D01*
X124288899Y-91103508D02*
X124241280Y-91055888D01*
X124241280Y-91055888D02*
X124241280Y-91151127D01*
X123574614Y-90151127D02*
X123479376Y-90151127D01*
X123479376Y-90151127D02*
X123384138Y-90198746D01*
X123384138Y-90198746D02*
X123336519Y-90246365D01*
X123336519Y-90246365D02*
X123288900Y-90341603D01*
X123288900Y-90341603D02*
X123241281Y-90532079D01*
X123241281Y-90532079D02*
X123241281Y-90770174D01*
X123241281Y-90770174D02*
X123288900Y-90960650D01*
X123288900Y-90960650D02*
X123336519Y-91055888D01*
X123336519Y-91055888D02*
X123384138Y-91103508D01*
X123384138Y-91103508D02*
X123479376Y-91151127D01*
X123479376Y-91151127D02*
X123574614Y-91151127D01*
X123574614Y-91151127D02*
X123669852Y-91103508D01*
X123669852Y-91103508D02*
X123717471Y-91055888D01*
X123717471Y-91055888D02*
X123765090Y-90960650D01*
X123765090Y-90960650D02*
X123812709Y-90770174D01*
X123812709Y-90770174D02*
X123812709Y-90532079D01*
X123812709Y-90532079D02*
X123765090Y-90341603D01*
X123765090Y-90341603D02*
X123717471Y-90246365D01*
X123717471Y-90246365D02*
X123669852Y-90198746D01*
X123669852Y-90198746D02*
X123574614Y-90151127D01*
X122288900Y-91151127D02*
X122860328Y-91151127D01*
X122574614Y-91151127D02*
X122574614Y-90151127D01*
X122574614Y-90151127D02*
X122669852Y-90293984D01*
X122669852Y-90293984D02*
X122765090Y-90389222D01*
X122765090Y-90389222D02*
X122860328Y-90436841D01*
X121812709Y-91103508D02*
X121812709Y-91151127D01*
X121812709Y-91151127D02*
X121860328Y-91246365D01*
X121860328Y-91246365D02*
X121907947Y-91293984D01*
X120336519Y-90151127D02*
X120336519Y-90865412D01*
X120336519Y-90865412D02*
X120384138Y-91008269D01*
X120384138Y-91008269D02*
X120479376Y-91103508D01*
X120479376Y-91103508D02*
X120622233Y-91151127D01*
X120622233Y-91151127D02*
X120717471Y-91151127D01*
X119431757Y-90484460D02*
X119431757Y-91151127D01*
X119860328Y-90484460D02*
X119860328Y-91008269D01*
X119860328Y-91008269D02*
X119812709Y-91103508D01*
X119812709Y-91103508D02*
X119717471Y-91151127D01*
X119717471Y-91151127D02*
X119574614Y-91151127D01*
X119574614Y-91151127D02*
X119479376Y-91103508D01*
X119479376Y-91103508D02*
X119431757Y-91055888D01*
X118955566Y-90484460D02*
X118955566Y-91151127D01*
X118955566Y-90579698D02*
X118907947Y-90532079D01*
X118907947Y-90532079D02*
X118812709Y-90484460D01*
X118812709Y-90484460D02*
X118669852Y-90484460D01*
X118669852Y-90484460D02*
X118574614Y-90532079D01*
X118574614Y-90532079D02*
X118526995Y-90627317D01*
X118526995Y-90627317D02*
X118526995Y-91151127D01*
X117669852Y-91103508D02*
X117765090Y-91151127D01*
X117765090Y-91151127D02*
X117955566Y-91151127D01*
X117955566Y-91151127D02*
X118050804Y-91103508D01*
X118050804Y-91103508D02*
X118098423Y-91008269D01*
X118098423Y-91008269D02*
X118098423Y-90627317D01*
X118098423Y-90627317D02*
X118050804Y-90532079D01*
X118050804Y-90532079D02*
X117955566Y-90484460D01*
X117955566Y-90484460D02*
X117765090Y-90484460D01*
X117765090Y-90484460D02*
X117669852Y-90532079D01*
X117669852Y-90532079D02*
X117622233Y-90627317D01*
X117622233Y-90627317D02*
X117622233Y-90722555D01*
X117622233Y-90722555D02*
X118098423Y-90817793D01*
X116479375Y-90246365D02*
X116431756Y-90198746D01*
X116431756Y-90198746D02*
X116336518Y-90151127D01*
X116336518Y-90151127D02*
X116098423Y-90151127D01*
X116098423Y-90151127D02*
X116003185Y-90198746D01*
X116003185Y-90198746D02*
X115955566Y-90246365D01*
X115955566Y-90246365D02*
X115907947Y-90341603D01*
X115907947Y-90341603D02*
X115907947Y-90436841D01*
X115907947Y-90436841D02*
X115955566Y-90579698D01*
X115955566Y-90579698D02*
X116526994Y-91151127D01*
X116526994Y-91151127D02*
X115907947Y-91151127D01*
X115288899Y-90151127D02*
X115193661Y-90151127D01*
X115193661Y-90151127D02*
X115098423Y-90198746D01*
X115098423Y-90198746D02*
X115050804Y-90246365D01*
X115050804Y-90246365D02*
X115003185Y-90341603D01*
X115003185Y-90341603D02*
X114955566Y-90532079D01*
X114955566Y-90532079D02*
X114955566Y-90770174D01*
X114955566Y-90770174D02*
X115003185Y-90960650D01*
X115003185Y-90960650D02*
X115050804Y-91055888D01*
X115050804Y-91055888D02*
X115098423Y-91103508D01*
X115098423Y-91103508D02*
X115193661Y-91151127D01*
X115193661Y-91151127D02*
X115288899Y-91151127D01*
X115288899Y-91151127D02*
X115384137Y-91103508D01*
X115384137Y-91103508D02*
X115431756Y-91055888D01*
X115431756Y-91055888D02*
X115479375Y-90960650D01*
X115479375Y-90960650D02*
X115526994Y-90770174D01*
X115526994Y-90770174D02*
X115526994Y-90532079D01*
X115526994Y-90532079D02*
X115479375Y-90341603D01*
X115479375Y-90341603D02*
X115431756Y-90246365D01*
X115431756Y-90246365D02*
X115384137Y-90198746D01*
X115384137Y-90198746D02*
X115288899Y-90151127D01*
X114574613Y-90246365D02*
X114526994Y-90198746D01*
X114526994Y-90198746D02*
X114431756Y-90151127D01*
X114431756Y-90151127D02*
X114193661Y-90151127D01*
X114193661Y-90151127D02*
X114098423Y-90198746D01*
X114098423Y-90198746D02*
X114050804Y-90246365D01*
X114050804Y-90246365D02*
X114003185Y-90341603D01*
X114003185Y-90341603D02*
X114003185Y-90436841D01*
X114003185Y-90436841D02*
X114050804Y-90579698D01*
X114050804Y-90579698D02*
X114622232Y-91151127D01*
X114622232Y-91151127D02*
X114003185Y-91151127D01*
X113669851Y-90151127D02*
X113050804Y-90151127D01*
X113050804Y-90151127D02*
X113384137Y-90532079D01*
X113384137Y-90532079D02*
X113241280Y-90532079D01*
X113241280Y-90532079D02*
X113146042Y-90579698D01*
X113146042Y-90579698D02*
X113098423Y-90627317D01*
X113098423Y-90627317D02*
X113050804Y-90722555D01*
X113050804Y-90722555D02*
X113050804Y-90960650D01*
X113050804Y-90960650D02*
X113098423Y-91055888D01*
X113098423Y-91055888D02*
X113146042Y-91103508D01*
X113146042Y-91103508D02*
X113241280Y-91151127D01*
X113241280Y-91151127D02*
X113526994Y-91151127D01*
X113526994Y-91151127D02*
X113622232Y-91103508D01*
X113622232Y-91103508D02*
X113669851Y-91055888D01*
X134574615Y-92771127D02*
X134574615Y-91771127D01*
X134574615Y-91771127D02*
X134003187Y-92771127D01*
X134003187Y-92771127D02*
X134003187Y-91771127D01*
X133384139Y-92771127D02*
X133479377Y-92723508D01*
X133479377Y-92723508D02*
X133526996Y-92675888D01*
X133526996Y-92675888D02*
X133574615Y-92580650D01*
X133574615Y-92580650D02*
X133574615Y-92294936D01*
X133574615Y-92294936D02*
X133526996Y-92199698D01*
X133526996Y-92199698D02*
X133479377Y-92152079D01*
X133479377Y-92152079D02*
X133384139Y-92104460D01*
X133384139Y-92104460D02*
X133241282Y-92104460D01*
X133241282Y-92104460D02*
X133146044Y-92152079D01*
X133146044Y-92152079D02*
X133098425Y-92199698D01*
X133098425Y-92199698D02*
X133050806Y-92294936D01*
X133050806Y-92294936D02*
X133050806Y-92580650D01*
X133050806Y-92580650D02*
X133098425Y-92675888D01*
X133098425Y-92675888D02*
X133146044Y-92723508D01*
X133146044Y-92723508D02*
X133241282Y-92771127D01*
X133241282Y-92771127D02*
X133384139Y-92771127D01*
X132622234Y-92771127D02*
X132622234Y-92104460D01*
X132622234Y-92294936D02*
X132574615Y-92199698D01*
X132574615Y-92199698D02*
X132526996Y-92152079D01*
X132526996Y-92152079D02*
X132431758Y-92104460D01*
X132431758Y-92104460D02*
X132336520Y-92104460D01*
X132146043Y-92104460D02*
X131765091Y-92104460D01*
X132003186Y-91771127D02*
X132003186Y-92628269D01*
X132003186Y-92628269D02*
X131955567Y-92723508D01*
X131955567Y-92723508D02*
X131860329Y-92771127D01*
X131860329Y-92771127D02*
X131765091Y-92771127D01*
X131431757Y-92771127D02*
X131431757Y-91771127D01*
X131003186Y-92771127D02*
X131003186Y-92247317D01*
X131003186Y-92247317D02*
X131050805Y-92152079D01*
X131050805Y-92152079D02*
X131146043Y-92104460D01*
X131146043Y-92104460D02*
X131288900Y-92104460D01*
X131288900Y-92104460D02*
X131384138Y-92152079D01*
X131384138Y-92152079D02*
X131431757Y-92199698D01*
X129193662Y-92675888D02*
X129241281Y-92723508D01*
X129241281Y-92723508D02*
X129384138Y-92771127D01*
X129384138Y-92771127D02*
X129479376Y-92771127D01*
X129479376Y-92771127D02*
X129622233Y-92723508D01*
X129622233Y-92723508D02*
X129717471Y-92628269D01*
X129717471Y-92628269D02*
X129765090Y-92533031D01*
X129765090Y-92533031D02*
X129812709Y-92342555D01*
X129812709Y-92342555D02*
X129812709Y-92199698D01*
X129812709Y-92199698D02*
X129765090Y-92009222D01*
X129765090Y-92009222D02*
X129717471Y-91913984D01*
X129717471Y-91913984D02*
X129622233Y-91818746D01*
X129622233Y-91818746D02*
X129479376Y-91771127D01*
X129479376Y-91771127D02*
X129384138Y-91771127D01*
X129384138Y-91771127D02*
X129241281Y-91818746D01*
X129241281Y-91818746D02*
X129193662Y-91866365D01*
X128622233Y-92771127D02*
X128717471Y-92723508D01*
X128717471Y-92723508D02*
X128765090Y-92675888D01*
X128765090Y-92675888D02*
X128812709Y-92580650D01*
X128812709Y-92580650D02*
X128812709Y-92294936D01*
X128812709Y-92294936D02*
X128765090Y-92199698D01*
X128765090Y-92199698D02*
X128717471Y-92152079D01*
X128717471Y-92152079D02*
X128622233Y-92104460D01*
X128622233Y-92104460D02*
X128479376Y-92104460D01*
X128479376Y-92104460D02*
X128384138Y-92152079D01*
X128384138Y-92152079D02*
X128336519Y-92199698D01*
X128336519Y-92199698D02*
X128288900Y-92294936D01*
X128288900Y-92294936D02*
X128288900Y-92580650D01*
X128288900Y-92580650D02*
X128336519Y-92675888D01*
X128336519Y-92675888D02*
X128384138Y-92723508D01*
X128384138Y-92723508D02*
X128479376Y-92771127D01*
X128479376Y-92771127D02*
X128622233Y-92771127D01*
X127431757Y-92771127D02*
X127431757Y-92247317D01*
X127431757Y-92247317D02*
X127479376Y-92152079D01*
X127479376Y-92152079D02*
X127574614Y-92104460D01*
X127574614Y-92104460D02*
X127765090Y-92104460D01*
X127765090Y-92104460D02*
X127860328Y-92152079D01*
X127431757Y-92723508D02*
X127526995Y-92771127D01*
X127526995Y-92771127D02*
X127765090Y-92771127D01*
X127765090Y-92771127D02*
X127860328Y-92723508D01*
X127860328Y-92723508D02*
X127907947Y-92628269D01*
X127907947Y-92628269D02*
X127907947Y-92533031D01*
X127907947Y-92533031D02*
X127860328Y-92437793D01*
X127860328Y-92437793D02*
X127765090Y-92390174D01*
X127765090Y-92390174D02*
X127526995Y-92390174D01*
X127526995Y-92390174D02*
X127431757Y-92342555D01*
X127003185Y-92723508D02*
X126907947Y-92771127D01*
X126907947Y-92771127D02*
X126717471Y-92771127D01*
X126717471Y-92771127D02*
X126622233Y-92723508D01*
X126622233Y-92723508D02*
X126574614Y-92628269D01*
X126574614Y-92628269D02*
X126574614Y-92580650D01*
X126574614Y-92580650D02*
X126622233Y-92485412D01*
X126622233Y-92485412D02*
X126717471Y-92437793D01*
X126717471Y-92437793D02*
X126860328Y-92437793D01*
X126860328Y-92437793D02*
X126955566Y-92390174D01*
X126955566Y-92390174D02*
X127003185Y-92294936D01*
X127003185Y-92294936D02*
X127003185Y-92247317D01*
X127003185Y-92247317D02*
X126955566Y-92152079D01*
X126955566Y-92152079D02*
X126860328Y-92104460D01*
X126860328Y-92104460D02*
X126717471Y-92104460D01*
X126717471Y-92104460D02*
X126622233Y-92152079D01*
X126288899Y-92104460D02*
X125907947Y-92104460D01*
X126146042Y-91771127D02*
X126146042Y-92628269D01*
X126146042Y-92628269D02*
X126098423Y-92723508D01*
X126098423Y-92723508D02*
X126003185Y-92771127D01*
X126003185Y-92771127D02*
X125907947Y-92771127D01*
X124812708Y-92771127D02*
X124812708Y-91771127D01*
X124812708Y-91771127D02*
X124479375Y-92485412D01*
X124479375Y-92485412D02*
X124146042Y-91771127D01*
X124146042Y-91771127D02*
X124146042Y-92771127D01*
X123526994Y-92771127D02*
X123622232Y-92723508D01*
X123622232Y-92723508D02*
X123669851Y-92675888D01*
X123669851Y-92675888D02*
X123717470Y-92580650D01*
X123717470Y-92580650D02*
X123717470Y-92294936D01*
X123717470Y-92294936D02*
X123669851Y-92199698D01*
X123669851Y-92199698D02*
X123622232Y-92152079D01*
X123622232Y-92152079D02*
X123526994Y-92104460D01*
X123526994Y-92104460D02*
X123384137Y-92104460D01*
X123384137Y-92104460D02*
X123288899Y-92152079D01*
X123288899Y-92152079D02*
X123241280Y-92199698D01*
X123241280Y-92199698D02*
X123193661Y-92294936D01*
X123193661Y-92294936D02*
X123193661Y-92580650D01*
X123193661Y-92580650D02*
X123241280Y-92675888D01*
X123241280Y-92675888D02*
X123288899Y-92723508D01*
X123288899Y-92723508D02*
X123384137Y-92771127D01*
X123384137Y-92771127D02*
X123526994Y-92771127D01*
X122336518Y-92771127D02*
X122336518Y-91771127D01*
X122336518Y-92723508D02*
X122431756Y-92771127D01*
X122431756Y-92771127D02*
X122622232Y-92771127D01*
X122622232Y-92771127D02*
X122717470Y-92723508D01*
X122717470Y-92723508D02*
X122765089Y-92675888D01*
X122765089Y-92675888D02*
X122812708Y-92580650D01*
X122812708Y-92580650D02*
X122812708Y-92294936D01*
X122812708Y-92294936D02*
X122765089Y-92199698D01*
X122765089Y-92199698D02*
X122717470Y-92152079D01*
X122717470Y-92152079D02*
X122622232Y-92104460D01*
X122622232Y-92104460D02*
X122431756Y-92104460D01*
X122431756Y-92104460D02*
X122336518Y-92152079D01*
X121431756Y-92104460D02*
X121431756Y-92771127D01*
X121860327Y-92104460D02*
X121860327Y-92628269D01*
X121860327Y-92628269D02*
X121812708Y-92723508D01*
X121812708Y-92723508D02*
X121717470Y-92771127D01*
X121717470Y-92771127D02*
X121574613Y-92771127D01*
X121574613Y-92771127D02*
X121479375Y-92723508D01*
X121479375Y-92723508D02*
X121431756Y-92675888D01*
X120812708Y-92771127D02*
X120907946Y-92723508D01*
X120907946Y-92723508D02*
X120955565Y-92628269D01*
X120955565Y-92628269D02*
X120955565Y-91771127D01*
X120003184Y-92771127D02*
X120003184Y-92247317D01*
X120003184Y-92247317D02*
X120050803Y-92152079D01*
X120050803Y-92152079D02*
X120146041Y-92104460D01*
X120146041Y-92104460D02*
X120336517Y-92104460D01*
X120336517Y-92104460D02*
X120431755Y-92152079D01*
X120003184Y-92723508D02*
X120098422Y-92771127D01*
X120098422Y-92771127D02*
X120336517Y-92771127D01*
X120336517Y-92771127D02*
X120431755Y-92723508D01*
X120431755Y-92723508D02*
X120479374Y-92628269D01*
X120479374Y-92628269D02*
X120479374Y-92533031D01*
X120479374Y-92533031D02*
X120431755Y-92437793D01*
X120431755Y-92437793D02*
X120336517Y-92390174D01*
X120336517Y-92390174D02*
X120098422Y-92390174D01*
X120098422Y-92390174D02*
X120003184Y-92342555D01*
X119526993Y-92771127D02*
X119526993Y-92104460D01*
X119526993Y-92294936D02*
X119479374Y-92199698D01*
X119479374Y-92199698D02*
X119431755Y-92152079D01*
X119431755Y-92152079D02*
X119336517Y-92104460D01*
X119336517Y-92104460D02*
X119241279Y-92104460D01*
X117574612Y-92675888D02*
X117622231Y-92723508D01*
X117622231Y-92723508D02*
X117765088Y-92771127D01*
X117765088Y-92771127D02*
X117860326Y-92771127D01*
X117860326Y-92771127D02*
X118003183Y-92723508D01*
X118003183Y-92723508D02*
X118098421Y-92628269D01*
X118098421Y-92628269D02*
X118146040Y-92533031D01*
X118146040Y-92533031D02*
X118193659Y-92342555D01*
X118193659Y-92342555D02*
X118193659Y-92199698D01*
X118193659Y-92199698D02*
X118146040Y-92009222D01*
X118146040Y-92009222D02*
X118098421Y-91913984D01*
X118098421Y-91913984D02*
X118003183Y-91818746D01*
X118003183Y-91818746D02*
X117860326Y-91771127D01*
X117860326Y-91771127D02*
X117765088Y-91771127D01*
X117765088Y-91771127D02*
X117622231Y-91818746D01*
X117622231Y-91818746D02*
X117574612Y-91866365D01*
X117003183Y-92771127D02*
X117098421Y-92723508D01*
X117098421Y-92723508D02*
X117146040Y-92675888D01*
X117146040Y-92675888D02*
X117193659Y-92580650D01*
X117193659Y-92580650D02*
X117193659Y-92294936D01*
X117193659Y-92294936D02*
X117146040Y-92199698D01*
X117146040Y-92199698D02*
X117098421Y-92152079D01*
X117098421Y-92152079D02*
X117003183Y-92104460D01*
X117003183Y-92104460D02*
X116860326Y-92104460D01*
X116860326Y-92104460D02*
X116765088Y-92152079D01*
X116765088Y-92152079D02*
X116717469Y-92199698D01*
X116717469Y-92199698D02*
X116669850Y-92294936D01*
X116669850Y-92294936D02*
X116669850Y-92580650D01*
X116669850Y-92580650D02*
X116717469Y-92675888D01*
X116717469Y-92675888D02*
X116765088Y-92723508D01*
X116765088Y-92723508D02*
X116860326Y-92771127D01*
X116860326Y-92771127D02*
X117003183Y-92771127D01*
X116098421Y-92771127D02*
X116193659Y-92723508D01*
X116193659Y-92723508D02*
X116241278Y-92628269D01*
X116241278Y-92628269D02*
X116241278Y-91771127D01*
X115574611Y-92771127D02*
X115669849Y-92723508D01*
X115669849Y-92723508D02*
X115717468Y-92628269D01*
X115717468Y-92628269D02*
X115717468Y-91771127D01*
X114812706Y-92723508D02*
X114907944Y-92771127D01*
X114907944Y-92771127D02*
X115098420Y-92771127D01*
X115098420Y-92771127D02*
X115193658Y-92723508D01*
X115193658Y-92723508D02*
X115241277Y-92628269D01*
X115241277Y-92628269D02*
X115241277Y-92247317D01*
X115241277Y-92247317D02*
X115193658Y-92152079D01*
X115193658Y-92152079D02*
X115098420Y-92104460D01*
X115098420Y-92104460D02*
X114907944Y-92104460D01*
X114907944Y-92104460D02*
X114812706Y-92152079D01*
X114812706Y-92152079D02*
X114765087Y-92247317D01*
X114765087Y-92247317D02*
X114765087Y-92342555D01*
X114765087Y-92342555D02*
X115241277Y-92437793D01*
X113907944Y-92723508D02*
X114003182Y-92771127D01*
X114003182Y-92771127D02*
X114193658Y-92771127D01*
X114193658Y-92771127D02*
X114288896Y-92723508D01*
X114288896Y-92723508D02*
X114336515Y-92675888D01*
X114336515Y-92675888D02*
X114384134Y-92580650D01*
X114384134Y-92580650D02*
X114384134Y-92294936D01*
X114384134Y-92294936D02*
X114336515Y-92199698D01*
X114336515Y-92199698D02*
X114288896Y-92152079D01*
X114288896Y-92152079D02*
X114193658Y-92104460D01*
X114193658Y-92104460D02*
X114003182Y-92104460D01*
X114003182Y-92104460D02*
X113907944Y-92152079D01*
X113622229Y-92104460D02*
X113241277Y-92104460D01*
X113479372Y-91771127D02*
X113479372Y-92628269D01*
X113479372Y-92628269D02*
X113431753Y-92723508D01*
X113431753Y-92723508D02*
X113336515Y-92771127D01*
X113336515Y-92771127D02*
X113241277Y-92771127D01*
X112907943Y-92771127D02*
X112907943Y-92104460D01*
X112907943Y-91771127D02*
X112955562Y-91818746D01*
X112955562Y-91818746D02*
X112907943Y-91866365D01*
X112907943Y-91866365D02*
X112860324Y-91818746D01*
X112860324Y-91818746D02*
X112907943Y-91771127D01*
X112907943Y-91771127D02*
X112907943Y-91866365D01*
X112526991Y-92104460D02*
X112288896Y-92771127D01*
X112288896Y-92771127D02*
X112050801Y-92104460D01*
X111288896Y-92723508D02*
X111384134Y-92771127D01*
X111384134Y-92771127D02*
X111574610Y-92771127D01*
X111574610Y-92771127D02*
X111669848Y-92723508D01*
X111669848Y-92723508D02*
X111717467Y-92628269D01*
X111717467Y-92628269D02*
X111717467Y-92247317D01*
X111717467Y-92247317D02*
X111669848Y-92152079D01*
X111669848Y-92152079D02*
X111574610Y-92104460D01*
X111574610Y-92104460D02*
X111384134Y-92104460D01*
X111384134Y-92104460D02*
X111288896Y-92152079D01*
X111288896Y-92152079D02*
X111241277Y-92247317D01*
X111241277Y-92247317D02*
X111241277Y-92342555D01*
X111241277Y-92342555D02*
X111717467Y-92437793D01*
D10*
G36*
X120932719Y-71651130D02*
G01*
X120932719Y-71800851D01*
X120879474Y-71800851D01*
X120879474Y-71651130D01*
X120730242Y-71651130D01*
X120730242Y-71596542D01*
X120879474Y-71596542D01*
X120879474Y-71446821D01*
X120932719Y-71446821D01*
X120932719Y-71596542D01*
X121081951Y-71596542D01*
X121081951Y-71651130D01*
X120932719Y-71651130D01*
G37*
G36*
X120957632Y-71290505D02*
G01*
X120957632Y-71260464D01*
X120957446Y-71254360D01*
X120956889Y-71248461D01*
X120955960Y-71242765D01*
X120954661Y-71237274D01*
X120952989Y-71231986D01*
X120950947Y-71226903D01*
X120948533Y-71222023D01*
X120945748Y-71217347D01*
X120942591Y-71212875D01*
X120939063Y-71208607D01*
X120936505Y-71205875D01*
X120932248Y-71201962D01*
X120927676Y-71198421D01*
X120922788Y-71195250D01*
X120917585Y-71192451D01*
X120912067Y-71190024D01*
X120906232Y-71187968D01*
X120900082Y-71186283D01*
X120893617Y-71184970D01*
X120886836Y-71184028D01*
X120879740Y-71183457D01*
X120874833Y-71183283D01*
X120867664Y-71183606D01*
X120860810Y-71184300D01*
X120854271Y-71185366D01*
X120848049Y-71186803D01*
X120842141Y-71188612D01*
X120836550Y-71190792D01*
X120831273Y-71193343D01*
X120826313Y-71196266D01*
X120821668Y-71199560D01*
X120817338Y-71203225D01*
X120814627Y-71205875D01*
X120810590Y-71209992D01*
X120806949Y-71214283D01*
X120803706Y-71218748D01*
X120800860Y-71223386D01*
X120798411Y-71228199D01*
X120796359Y-71233185D01*
X120794705Y-71238345D01*
X120793447Y-71243679D01*
X120792587Y-71249187D01*
X120792123Y-71254869D01*
X120792035Y-71258754D01*
X120792183Y-71264169D01*
X120792627Y-71269378D01*
X120793368Y-71274382D01*
X120794405Y-71279179D01*
X120796248Y-71285254D01*
X120798618Y-71290963D01*
X120801515Y-71296306D01*
X120804938Y-71301283D01*
X120808888Y-71305893D01*
X120813076Y-71310135D01*
X120817581Y-71314128D01*
X120822403Y-71317874D01*
X120827542Y-71321372D01*
X120832997Y-71324621D01*
X120838769Y-71327623D01*
X120843306Y-71329711D01*
X120848021Y-71331660D01*
X120851264Y-71332882D01*
X120851264Y-71404323D01*
X120843548Y-71402764D01*
X120836064Y-71400989D01*
X120828810Y-71398997D01*
X120821787Y-71396789D01*
X120814995Y-71394364D01*
X120808434Y-71391723D01*
X120802103Y-71388865D01*
X120796004Y-71385791D01*
X120790135Y-71382500D01*
X120784498Y-71378992D01*
X120779091Y-71375268D01*
X120773915Y-71371327D01*
X120768970Y-71367170D01*
X120764256Y-71362796D01*
X120759773Y-71358205D01*
X120755521Y-71353398D01*
X120751513Y-71348437D01*
X120747764Y-71343386D01*
X120744274Y-71338244D01*
X120741042Y-71333011D01*
X120738068Y-71327688D01*
X120735353Y-71322274D01*
X120732897Y-71316770D01*
X120730699Y-71311174D01*
X120728760Y-71305489D01*
X120727080Y-71299712D01*
X120725658Y-71293845D01*
X120724494Y-71287887D01*
X120723589Y-71281839D01*
X120722943Y-71275700D01*
X120722555Y-71269470D01*
X120722426Y-71263150D01*
X120722676Y-71255001D01*
X120723244Y-71247038D01*
X120724130Y-71239262D01*
X120725334Y-71231673D01*
X120726855Y-71224272D01*
X120728694Y-71217057D01*
X120730851Y-71210029D01*
X120733325Y-71203189D01*
X120736117Y-71196535D01*
X120739227Y-71190068D01*
X120742654Y-71183788D01*
X120746400Y-71177696D01*
X120750463Y-71171790D01*
X120754843Y-71166071D01*
X120759542Y-71160540D01*
X120764558Y-71155195D01*
X120769727Y-71150031D01*
X120775131Y-71145194D01*
X120780768Y-71140685D01*
X120786639Y-71136503D01*
X120792743Y-71132648D01*
X120799082Y-71129120D01*
X120805654Y-71125920D01*
X120812460Y-71123046D01*
X120819499Y-71120500D01*
X120826773Y-71118282D01*
X120834280Y-71116390D01*
X120842021Y-71114826D01*
X120849995Y-71113589D01*
X120858204Y-71112679D01*
X120866646Y-71112097D01*
X120875322Y-71111842D01*
X120881206Y-71111959D01*
X120887043Y-71112310D01*
X120892832Y-71112895D01*
X120898574Y-71113714D01*
X120904270Y-71114767D01*
X120909917Y-71116054D01*
X120915518Y-71117574D01*
X120921071Y-71119329D01*
X120926578Y-71121318D01*
X120932037Y-71123541D01*
X120935650Y-71125153D01*
X120940981Y-71127939D01*
X120946166Y-71131029D01*
X120951204Y-71134424D01*
X120956097Y-71138125D01*
X120960844Y-71142130D01*
X120965445Y-71146439D01*
X120969901Y-71151054D01*
X120974210Y-71155973D01*
X120978373Y-71161198D01*
X120982390Y-71166727D01*
X120984987Y-71170582D01*
X120988954Y-71164977D01*
X120993024Y-71159703D01*
X120997197Y-71154759D01*
X121001473Y-71150146D01*
X121005852Y-71145863D01*
X121010335Y-71141911D01*
X121014920Y-71138290D01*
X121019608Y-71134999D01*
X121024400Y-71132039D01*
X121029294Y-71129409D01*
X121032614Y-71127840D01*
X121037647Y-71126006D01*
X121042716Y-71124353D01*
X121047822Y-71122881D01*
X121052965Y-71121589D01*
X121058143Y-71120477D01*
X121063359Y-71119545D01*
X121068611Y-71118794D01*
X121073899Y-71118223D01*
X121079224Y-71117832D01*
X121084585Y-71117622D01*
X121088179Y-71117581D01*
X121095234Y-71117820D01*
X121102172Y-71118350D01*
X121108992Y-71119174D01*
X121115695Y-71120291D01*
X121122280Y-71121701D01*
X121128749Y-71123403D01*
X121135099Y-71125399D01*
X121141333Y-71127687D01*
X121147449Y-71130268D01*
X121153448Y-71133142D01*
X121159329Y-71136309D01*
X121165093Y-71139769D01*
X121170740Y-71143522D01*
X121176269Y-71147568D01*
X121181681Y-71151907D01*
X121186976Y-71156538D01*
X121192154Y-71161654D01*
X121197005Y-71166989D01*
X121201527Y-71172542D01*
X121205721Y-71178314D01*
X121209587Y-71184304D01*
X121213125Y-71190513D01*
X121216334Y-71196940D01*
X121219216Y-71203585D01*
X121221769Y-71210450D01*
X121223994Y-71217532D01*
X121225890Y-71224833D01*
X121227459Y-71232353D01*
X121228699Y-71240091D01*
X121229611Y-71248047D01*
X121230195Y-71256222D01*
X121230451Y-71264616D01*
X121230218Y-71271258D01*
X121229701Y-71277784D01*
X121228901Y-71284192D01*
X121227818Y-71290483D01*
X121226451Y-71296656D01*
X121224801Y-71302712D01*
X121222867Y-71308650D01*
X121220651Y-71314472D01*
X121218150Y-71320176D01*
X121215367Y-71325762D01*
X121212300Y-71331231D01*
X121208950Y-71336583D01*
X121205316Y-71341818D01*
X121201399Y-71346935D01*
X121197199Y-71351935D01*
X121192715Y-71356817D01*
X121187977Y-71361601D01*
X121183106Y-71366120D01*
X121178101Y-71370374D01*
X121172962Y-71374365D01*
X121167690Y-71378091D01*
X121162284Y-71381553D01*
X121156745Y-71384750D01*
X121151072Y-71387684D01*
X121145265Y-71390353D01*
X121139325Y-71392757D01*
X121133252Y-71394898D01*
X121127045Y-71396774D01*
X121120704Y-71398386D01*
X121114229Y-71399733D01*
X121107622Y-71400817D01*
X121100880Y-71401636D01*
X121100880Y-71330195D01*
X121106487Y-71328799D01*
X121111812Y-71327175D01*
X121116857Y-71325324D01*
X121121620Y-71323245D01*
X121126102Y-71320939D01*
X121130302Y-71318405D01*
X121135466Y-71314673D01*
X121140129Y-71310536D01*
X121144293Y-71305995D01*
X121146187Y-71303572D01*
X121149622Y-71298806D01*
X121152598Y-71293910D01*
X121155117Y-71288883D01*
X121157178Y-71283728D01*
X121158781Y-71278442D01*
X121159926Y-71273027D01*
X121160613Y-71267482D01*
X121160842Y-71261807D01*
X121160540Y-71255955D01*
X121159910Y-71250308D01*
X121158952Y-71244864D01*
X121157665Y-71239625D01*
X121156049Y-71234589D01*
X121154105Y-71229757D01*
X121151833Y-71225129D01*
X121149232Y-71220705D01*
X121146303Y-71216485D01*
X121143046Y-71212469D01*
X121140692Y-71209905D01*
X121136837Y-71206298D01*
X121132782Y-71203032D01*
X121128528Y-71200107D01*
X121124074Y-71197523D01*
X121119420Y-71195281D01*
X121114567Y-71193380D01*
X121109514Y-71191821D01*
X121104261Y-71190602D01*
X121098809Y-71189726D01*
X121093157Y-71189190D01*
X121089278Y-71189023D01*
X121083564Y-71189200D01*
X121078054Y-71189731D01*
X121072748Y-71190616D01*
X121067646Y-71191856D01*
X121062747Y-71193450D01*
X121058053Y-71195398D01*
X121053563Y-71197700D01*
X121049276Y-71200357D01*
X121045193Y-71203368D01*
X121041315Y-71206732D01*
X121038842Y-71209173D01*
X121035241Y-71213096D01*
X121031994Y-71217308D01*
X121029102Y-71221811D01*
X121026563Y-71226603D01*
X121024379Y-71231686D01*
X121022549Y-71237058D01*
X121021073Y-71242720D01*
X121019952Y-71248671D01*
X121019184Y-71254913D01*
X121018771Y-71261444D01*
X121018692Y-71265959D01*
X121018692Y-71290505D01*
X120957632Y-71290505D01*
G37*
G36*
X120730242Y-71029776D02*
G01*
X120730242Y-70958335D01*
X120799851Y-70958335D01*
X120799851Y-71029776D01*
X120730242Y-71029776D01*
G37*
G36*
X120957632Y-70787365D02*
G01*
X120957632Y-70757323D01*
X120957446Y-70751220D01*
X120956889Y-70745321D01*
X120955960Y-70739625D01*
X120954661Y-70734134D01*
X120952989Y-70728846D01*
X120950947Y-70723762D01*
X120948533Y-70718883D01*
X120945748Y-70714207D01*
X120942591Y-70709735D01*
X120939063Y-70705467D01*
X120936505Y-70702735D01*
X120932248Y-70698822D01*
X120927676Y-70695280D01*
X120922788Y-70692110D01*
X120917585Y-70689311D01*
X120912067Y-70686884D01*
X120906232Y-70684828D01*
X120900082Y-70683143D01*
X120893617Y-70681829D01*
X120886836Y-70680887D01*
X120879740Y-70680317D01*
X120874833Y-70680143D01*
X120867664Y-70680466D01*
X120860810Y-70681160D01*
X120854271Y-70682226D01*
X120848049Y-70683663D01*
X120842141Y-70685472D01*
X120836550Y-70687652D01*
X120831273Y-70690203D01*
X120826313Y-70693126D01*
X120821668Y-70696420D01*
X120817338Y-70700085D01*
X120814627Y-70702735D01*
X120810590Y-70706852D01*
X120806949Y-70711143D01*
X120803706Y-70715607D01*
X120800860Y-70720246D01*
X120798411Y-70725059D01*
X120796359Y-70730045D01*
X120794705Y-70735205D01*
X120793447Y-70740539D01*
X120792587Y-70746047D01*
X120792123Y-70751729D01*
X120792035Y-70755614D01*
X120792183Y-70761029D01*
X120792627Y-70766238D01*
X120793368Y-70771241D01*
X120794405Y-70776038D01*
X120796248Y-70782114D01*
X120798618Y-70787823D01*
X120801515Y-70793166D01*
X120804938Y-70798142D01*
X120808888Y-70802752D01*
X120813076Y-70806994D01*
X120817581Y-70810988D01*
X120822403Y-70814734D01*
X120827542Y-70818231D01*
X120832997Y-70821481D01*
X120838769Y-70824482D01*
X120843306Y-70826571D01*
X120848021Y-70828520D01*
X120851264Y-70829741D01*
X120851264Y-70901182D01*
X120843548Y-70899624D01*
X120836064Y-70897849D01*
X120828810Y-70895857D01*
X120821787Y-70893649D01*
X120814995Y-70891224D01*
X120808434Y-70888583D01*
X120802103Y-70885725D01*
X120796004Y-70882650D01*
X120790135Y-70879359D01*
X120784498Y-70875852D01*
X120779091Y-70872127D01*
X120773915Y-70868187D01*
X120768970Y-70864029D01*
X120764256Y-70859655D01*
X120759773Y-70855065D01*
X120755521Y-70850258D01*
X120751513Y-70845297D01*
X120747764Y-70840246D01*
X120744274Y-70835104D01*
X120741042Y-70829871D01*
X120738068Y-70824548D01*
X120735353Y-70819134D01*
X120732897Y-70813629D01*
X120730699Y-70808034D01*
X120728760Y-70802348D01*
X120727080Y-70796572D01*
X120725658Y-70790705D01*
X120724494Y-70784747D01*
X120723589Y-70778699D01*
X120722943Y-70772560D01*
X120722555Y-70766330D01*
X120722426Y-70760010D01*
X120722676Y-70751860D01*
X120723244Y-70743898D01*
X120724130Y-70736122D01*
X120725334Y-70728533D01*
X120726855Y-70721131D01*
X120728694Y-70713917D01*
X120730851Y-70706889D01*
X120733325Y-70700048D01*
X120736117Y-70693395D01*
X120739227Y-70686928D01*
X120742654Y-70680648D01*
X120746400Y-70674555D01*
X120750463Y-70668650D01*
X120754843Y-70662931D01*
X120759542Y-70657399D01*
X120764558Y-70652055D01*
X120769727Y-70646891D01*
X120775131Y-70642054D01*
X120780768Y-70637545D01*
X120786639Y-70633362D01*
X120792743Y-70629507D01*
X120799082Y-70625980D01*
X120805654Y-70622779D01*
X120812460Y-70619906D01*
X120819499Y-70617360D01*
X120826773Y-70615141D01*
X120834280Y-70613250D01*
X120842021Y-70611686D01*
X120849995Y-70610449D01*
X120858204Y-70609539D01*
X120866646Y-70608957D01*
X120875322Y-70608702D01*
X120881206Y-70608818D01*
X120887043Y-70609169D01*
X120892832Y-70609754D01*
X120898574Y-70610573D01*
X120904270Y-70611626D01*
X120909917Y-70612913D01*
X120915518Y-70614434D01*
X120921071Y-70616189D01*
X120926578Y-70618178D01*
X120932037Y-70620401D01*
X120935650Y-70622013D01*
X120940981Y-70624798D01*
X120946166Y-70627889D01*
X120951204Y-70631284D01*
X120956097Y-70634984D01*
X120960844Y-70638989D01*
X120965445Y-70643299D01*
X120969901Y-70647914D01*
X120974210Y-70652833D01*
X120978373Y-70658057D01*
X120982390Y-70663586D01*
X120984987Y-70667442D01*
X120988954Y-70661837D01*
X120993024Y-70656563D01*
X120997197Y-70651619D01*
X121001473Y-70647006D01*
X121005852Y-70642723D01*
X121010335Y-70638771D01*
X121014920Y-70635150D01*
X121019608Y-70631859D01*
X121024400Y-70628899D01*
X121029294Y-70626269D01*
X121032614Y-70624699D01*
X121037647Y-70622866D01*
X121042716Y-70621213D01*
X121047822Y-70619741D01*
X121052965Y-70618448D01*
X121058143Y-70617336D01*
X121063359Y-70616405D01*
X121068611Y-70615653D01*
X121073899Y-70615082D01*
X121079224Y-70614692D01*
X121084585Y-70614481D01*
X121088179Y-70614441D01*
X121095234Y-70614679D01*
X121102172Y-70615210D01*
X121108992Y-70616034D01*
X121115695Y-70617151D01*
X121122280Y-70618560D01*
X121128749Y-70620263D01*
X121135099Y-70622258D01*
X121141333Y-70624547D01*
X121147449Y-70627128D01*
X121153448Y-70630002D01*
X121159329Y-70633169D01*
X121165093Y-70636629D01*
X121170740Y-70640382D01*
X121176269Y-70644428D01*
X121181681Y-70648766D01*
X121186976Y-70653398D01*
X121192154Y-70658514D01*
X121197005Y-70663849D01*
X121201527Y-70669402D01*
X121205721Y-70675174D01*
X121209587Y-70681164D01*
X121213125Y-70687373D01*
X121216334Y-70693800D01*
X121219216Y-70700445D01*
X121221769Y-70707309D01*
X121223994Y-70714392D01*
X121225890Y-70721693D01*
X121227459Y-70729212D01*
X121228699Y-70736950D01*
X121229611Y-70744907D01*
X121230195Y-70753082D01*
X121230451Y-70761475D01*
X121230218Y-70768118D01*
X121229701Y-70774644D01*
X121228901Y-70781052D01*
X121227818Y-70787342D01*
X121226451Y-70793516D01*
X121224801Y-70799572D01*
X121222867Y-70805510D01*
X121220651Y-70811331D01*
X121218150Y-70817035D01*
X121215367Y-70822622D01*
X121212300Y-70828091D01*
X121208950Y-70833443D01*
X121205316Y-70838678D01*
X121201399Y-70843795D01*
X121197199Y-70848795D01*
X121192715Y-70853677D01*
X121187977Y-70858460D01*
X121183106Y-70862979D01*
X121178101Y-70867234D01*
X121172962Y-70871224D01*
X121167690Y-70874951D01*
X121162284Y-70878412D01*
X121156745Y-70881610D01*
X121151072Y-70884543D01*
X121145265Y-70887212D01*
X121139325Y-70889617D01*
X121133252Y-70891757D01*
X121127045Y-70893634D01*
X121120704Y-70895246D01*
X121114229Y-70896593D01*
X121107622Y-70897677D01*
X121100880Y-70898496D01*
X121100880Y-70827055D01*
X121106487Y-70825659D01*
X121111812Y-70824035D01*
X121116857Y-70822184D01*
X121121620Y-70820105D01*
X121126102Y-70817799D01*
X121130302Y-70815265D01*
X121135466Y-70811533D01*
X121140129Y-70807396D01*
X121144293Y-70802855D01*
X121146187Y-70800432D01*
X121149622Y-70795666D01*
X121152598Y-70790769D01*
X121155117Y-70785743D01*
X121157178Y-70780587D01*
X121158781Y-70775302D01*
X121159926Y-70769887D01*
X121160613Y-70764341D01*
X121160842Y-70758667D01*
X121160540Y-70752815D01*
X121159910Y-70747168D01*
X121158952Y-70741724D01*
X121157665Y-70736484D01*
X121156049Y-70731449D01*
X121154105Y-70726617D01*
X121151833Y-70721989D01*
X121149232Y-70717565D01*
X121146303Y-70713345D01*
X121143046Y-70709329D01*
X121140692Y-70706765D01*
X121136837Y-70703158D01*
X121132782Y-70699891D01*
X121128528Y-70696967D01*
X121124074Y-70694383D01*
X121119420Y-70692141D01*
X121114567Y-70690240D01*
X121109514Y-70688680D01*
X121104261Y-70687462D01*
X121098809Y-70686585D01*
X121093157Y-70686050D01*
X121089278Y-70685882D01*
X121083564Y-70686059D01*
X121078054Y-70686591D01*
X121072748Y-70687476D01*
X121067646Y-70688716D01*
X121062747Y-70690310D01*
X121058053Y-70692258D01*
X121053563Y-70694560D01*
X121049276Y-70697217D01*
X121045193Y-70700227D01*
X121041315Y-70703592D01*
X121038842Y-70706032D01*
X121035241Y-70709955D01*
X121031994Y-70714168D01*
X121029102Y-70718671D01*
X121026563Y-70723463D01*
X121024379Y-70728545D01*
X121022549Y-70733917D01*
X121021073Y-70739579D01*
X121019952Y-70745531D01*
X121019184Y-70751772D01*
X121018771Y-70758304D01*
X121018692Y-70762819D01*
X121018692Y-70787365D01*
X120957632Y-70787365D01*
G37*
G36*
X120730242Y-70409766D02*
G01*
X120730242Y-70351025D01*
X121230451Y-70186283D01*
X121230451Y-70266273D01*
X120849554Y-70379724D01*
X120849554Y-70381067D01*
X121230451Y-70494152D01*
X121230451Y-70574141D01*
X120730242Y-70409766D01*
G37*
G36*
X120815198Y-82797446D02*
G01*
X120807020Y-82801509D01*
X120799370Y-82805822D01*
X120792247Y-82810386D01*
X120785652Y-82815199D01*
X120779585Y-82820262D01*
X120774045Y-82825576D01*
X120769033Y-82831139D01*
X120764548Y-82836952D01*
X120760591Y-82843015D01*
X120757162Y-82849328D01*
X120754260Y-82855891D01*
X120751886Y-82862704D01*
X120750039Y-82869767D01*
X120748720Y-82877080D01*
X120747929Y-82884643D01*
X120747665Y-82892456D01*
X120747763Y-82897382D01*
X120748202Y-82903747D01*
X120748992Y-82909879D01*
X120750133Y-82915778D01*
X120751626Y-82921444D01*
X120753469Y-82926878D01*
X120755663Y-82932078D01*
X120758209Y-82937046D01*
X120758900Y-82938252D01*
X120761371Y-82943018D01*
X120764021Y-82947548D01*
X120766851Y-82951841D01*
X120769860Y-82955898D01*
X120773049Y-82959718D01*
X120776417Y-82963302D01*
X120780879Y-82967448D01*
X120783691Y-82969759D01*
X120787816Y-82973268D01*
X120792254Y-82976468D01*
X120797006Y-82979359D01*
X120802070Y-82981941D01*
X120807447Y-82984213D01*
X120813137Y-82986177D01*
X120819140Y-82987831D01*
X120825456Y-82989176D01*
X120830703Y-82990158D01*
X120836780Y-82991044D01*
X120843689Y-82991833D01*
X120848756Y-82992305D01*
X120854192Y-82992734D01*
X120859998Y-82993121D01*
X120866172Y-82993464D01*
X120872716Y-82993765D01*
X120879630Y-82994022D01*
X120886912Y-82994237D01*
X120894564Y-82994409D01*
X120902585Y-82994538D01*
X120910975Y-82994623D01*
X120919734Y-82994666D01*
X120924252Y-82994672D01*
X120933199Y-82994650D01*
X120941782Y-82994586D01*
X120950002Y-82994479D01*
X120957859Y-82994328D01*
X120965351Y-82994135D01*
X120972481Y-82993899D01*
X120979247Y-82993620D01*
X120985649Y-82993298D01*
X120991688Y-82992933D01*
X120997363Y-82992525D01*
X121002675Y-82992074D01*
X121007623Y-82991581D01*
X121014364Y-82990759D01*
X121020287Y-82989842D01*
X121023781Y-82989176D01*
X121029925Y-82987831D01*
X121035780Y-82986177D01*
X121041344Y-82984213D01*
X121046618Y-82981941D01*
X121051602Y-82979359D01*
X121056296Y-82976468D01*
X121060700Y-82973268D01*
X121064814Y-82969759D01*
X121069462Y-82965834D01*
X121073005Y-82962428D01*
X121076391Y-82958785D01*
X121079620Y-82954906D01*
X121082693Y-82950790D01*
X121085610Y-82946438D01*
X121088370Y-82941849D01*
X121090337Y-82938252D01*
X121092639Y-82933342D01*
X121094657Y-82928200D01*
X121096394Y-82922824D01*
X121097848Y-82917216D01*
X121099019Y-82911375D01*
X121099909Y-82905302D01*
X121100515Y-82898995D01*
X121100785Y-82894113D01*
X121100840Y-82892456D01*
X121100533Y-82885752D01*
X121099887Y-82879241D01*
X121098901Y-82872924D01*
X121097577Y-82866799D01*
X121095913Y-82860868D01*
X121093910Y-82855130D01*
X121091568Y-82849585D01*
X121088887Y-82844233D01*
X121085867Y-82839075D01*
X121082507Y-82834110D01*
X121080079Y-82830907D01*
X121076062Y-82826504D01*
X121071889Y-82822363D01*
X121067559Y-82818484D01*
X121063072Y-82814867D01*
X121058428Y-82811512D01*
X121053628Y-82808418D01*
X121048671Y-82805587D01*
X121043557Y-82803017D01*
X121038287Y-82800710D01*
X121032860Y-82798664D01*
X121029155Y-82797446D01*
X121029155Y-82717456D01*
X121036968Y-82719083D01*
X121044622Y-82720971D01*
X121052118Y-82723120D01*
X121059456Y-82725531D01*
X121066635Y-82728204D01*
X121073656Y-82731138D01*
X121080519Y-82734333D01*
X121087223Y-82737789D01*
X121093769Y-82741507D01*
X121100157Y-82745487D01*
X121106386Y-82749728D01*
X121112457Y-82754230D01*
X121118369Y-82758994D01*
X121124123Y-82764019D01*
X121129719Y-82769305D01*
X121135156Y-82774853D01*
X121140290Y-82780636D01*
X121145099Y-82786628D01*
X121149583Y-82792829D01*
X121153741Y-82799239D01*
X121157574Y-82805858D01*
X121161082Y-82812686D01*
X121164264Y-82819723D01*
X121167121Y-82826969D01*
X121169653Y-82834423D01*
X121171859Y-82842087D01*
X121173740Y-82849959D01*
X121175296Y-82858041D01*
X121176526Y-82866331D01*
X121177431Y-82874831D01*
X121178011Y-82883539D01*
X121178265Y-82892456D01*
X121178069Y-82899723D01*
X121177666Y-82906838D01*
X121177054Y-82913801D01*
X121176235Y-82920613D01*
X121175207Y-82927273D01*
X121173972Y-82933781D01*
X121172528Y-82940137D01*
X121170877Y-82946342D01*
X121169017Y-82952395D01*
X121166950Y-82958297D01*
X121164674Y-82964046D01*
X121162191Y-82969645D01*
X121159499Y-82975091D01*
X121156600Y-82980385D01*
X121153492Y-82985528D01*
X121150177Y-82990520D01*
X121146759Y-82995441D01*
X121143283Y-83000190D01*
X121139748Y-83004768D01*
X121136156Y-83009174D01*
X121132505Y-83013408D01*
X121128796Y-83017470D01*
X121125029Y-83021361D01*
X121121204Y-83025080D01*
X121117320Y-83028627D01*
X121113378Y-83032003D01*
X121109378Y-83035207D01*
X121105320Y-83038239D01*
X121101204Y-83041099D01*
X121097029Y-83043787D01*
X121092797Y-83046304D01*
X121088506Y-83048649D01*
X121083779Y-83051369D01*
X121078698Y-83053908D01*
X121073261Y-83056269D01*
X121067470Y-83058450D01*
X121061324Y-83060451D01*
X121056482Y-83061835D01*
X121051439Y-83063117D01*
X121046198Y-83064299D01*
X121040756Y-83065380D01*
X121034731Y-83066297D01*
X121027693Y-83067123D01*
X121022438Y-83067624D01*
X121016733Y-83068085D01*
X121010577Y-83068506D01*
X121003971Y-83068886D01*
X120996915Y-83069227D01*
X120989408Y-83069527D01*
X120981451Y-83069788D01*
X120973044Y-83070008D01*
X120964186Y-83070189D01*
X120954878Y-83070329D01*
X120945120Y-83070429D01*
X120940072Y-83070464D01*
X120934911Y-83070489D01*
X120929638Y-83070504D01*
X120924252Y-83070509D01*
X120918948Y-83070504D01*
X120913753Y-83070489D01*
X120908666Y-83070464D01*
X120903688Y-83070429D01*
X120894057Y-83070329D01*
X120884860Y-83070189D01*
X120876098Y-83070008D01*
X120867769Y-83069788D01*
X120859875Y-83069527D01*
X120852414Y-83069227D01*
X120845388Y-83068886D01*
X120838796Y-83068506D01*
X120832638Y-83068085D01*
X120826914Y-83067624D01*
X120821624Y-83067123D01*
X120816768Y-83066582D01*
X120810299Y-83065696D01*
X120808359Y-83065380D01*
X120803456Y-83064505D01*
X120797926Y-83063360D01*
X120792782Y-83062112D01*
X120788025Y-83060761D01*
X120782964Y-83059055D01*
X120781614Y-83058541D01*
X120777074Y-83056565D01*
X120772428Y-83054484D01*
X120767677Y-83052298D01*
X120762821Y-83050006D01*
X120759999Y-83048649D01*
X120755711Y-83046304D01*
X120751487Y-83043787D01*
X120747326Y-83041099D01*
X120743230Y-83038239D01*
X120739198Y-83035207D01*
X120735229Y-83032003D01*
X120731325Y-83028627D01*
X120727484Y-83025080D01*
X120723707Y-83021361D01*
X120719995Y-83017470D01*
X120716346Y-83013408D01*
X120712761Y-83009174D01*
X120709240Y-83004768D01*
X120705783Y-83000190D01*
X120702390Y-82995441D01*
X120699060Y-82990520D01*
X120695728Y-82985528D01*
X120692599Y-82980385D01*
X120689675Y-82975091D01*
X120686955Y-82969645D01*
X120684439Y-82964046D01*
X120682127Y-82958297D01*
X120680020Y-82952395D01*
X120678117Y-82946342D01*
X120676417Y-82940137D01*
X120674922Y-82933781D01*
X120673631Y-82927273D01*
X120672545Y-82920613D01*
X120671662Y-82913801D01*
X120670984Y-82906838D01*
X120670510Y-82899723D01*
X120670240Y-82892456D01*
X120670385Y-82884403D01*
X120670822Y-82876487D01*
X120671549Y-82868707D01*
X120672568Y-82861063D01*
X120673877Y-82853556D01*
X120675478Y-82846185D01*
X120677369Y-82838951D01*
X120679551Y-82831853D01*
X120682025Y-82824892D01*
X120684789Y-82818067D01*
X120687845Y-82811378D01*
X120691191Y-82804826D01*
X120694829Y-82798411D01*
X120698757Y-82792131D01*
X120702976Y-82785989D01*
X120707487Y-82779982D01*
X120712315Y-82774328D01*
X120717398Y-82768907D01*
X120722734Y-82763719D01*
X120728324Y-82758764D01*
X120734167Y-82754041D01*
X120740265Y-82749551D01*
X120746616Y-82745294D01*
X120753221Y-82741270D01*
X120760080Y-82737478D01*
X120767193Y-82733920D01*
X120774559Y-82730594D01*
X120782179Y-82727501D01*
X120790053Y-82724640D01*
X120798181Y-82722013D01*
X120806563Y-82719618D01*
X120815198Y-82717456D01*
X120815198Y-82797446D01*
G37*
G36*
X120796880Y-82657983D02*
G01*
X120740337Y-82707442D01*
X120736025Y-82702435D01*
X120731849Y-82697368D01*
X120727810Y-82692239D01*
X120723908Y-82687050D01*
X120720143Y-82681800D01*
X120716515Y-82676489D01*
X120713024Y-82671117D01*
X120709670Y-82665684D01*
X120706452Y-82660191D01*
X120703372Y-82654637D01*
X120700428Y-82649022D01*
X120697622Y-82643346D01*
X120694952Y-82637609D01*
X120692419Y-82631811D01*
X120690023Y-82625953D01*
X120687764Y-82620034D01*
X120685642Y-82614054D01*
X120683657Y-82608013D01*
X120681809Y-82601911D01*
X120680097Y-82595749D01*
X120678523Y-82589525D01*
X120677085Y-82583241D01*
X120675785Y-82576896D01*
X120674621Y-82570491D01*
X120673594Y-82564024D01*
X120672704Y-82557497D01*
X120671951Y-82550908D01*
X120671335Y-82544259D01*
X120670856Y-82537549D01*
X120670514Y-82530779D01*
X120670308Y-82523947D01*
X120670240Y-82517055D01*
X120670507Y-82506517D01*
X120671049Y-82496307D01*
X120671865Y-82486424D01*
X120672957Y-82476867D01*
X120674323Y-82467638D01*
X120675964Y-82458736D01*
X120677880Y-82450160D01*
X120680071Y-82441912D01*
X120682536Y-82433991D01*
X120685276Y-82426396D01*
X120688291Y-82419129D01*
X120691580Y-82412189D01*
X120695145Y-82405576D01*
X120698984Y-82399289D01*
X120703098Y-82393330D01*
X120707487Y-82387698D01*
X120712150Y-82382393D01*
X120717089Y-82377414D01*
X120722302Y-82372763D01*
X120727789Y-82368439D01*
X120733552Y-82364442D01*
X120739589Y-82360771D01*
X120745902Y-82357428D01*
X120752489Y-82354412D01*
X120759350Y-82351723D01*
X120766487Y-82349361D01*
X120773898Y-82347326D01*
X120781584Y-82345617D01*
X120789545Y-82344236D01*
X120797780Y-82343182D01*
X120806291Y-82342455D01*
X120815076Y-82342055D01*
X120821635Y-82342185D01*
X120828093Y-82342574D01*
X120834450Y-82343223D01*
X120840706Y-82344131D01*
X120846861Y-82345299D01*
X120852914Y-82346726D01*
X120858867Y-82348413D01*
X120864718Y-82350359D01*
X120870468Y-82352565D01*
X120876117Y-82355030D01*
X120881665Y-82357755D01*
X120887112Y-82360739D01*
X120892458Y-82363983D01*
X120897702Y-82367487D01*
X120902846Y-82371250D01*
X120907888Y-82375272D01*
X120912850Y-82379598D01*
X120917568Y-82384210D01*
X120922043Y-82389108D01*
X120926275Y-82394292D01*
X120930263Y-82399763D01*
X120934009Y-82405520D01*
X120937511Y-82411563D01*
X120940769Y-82417892D01*
X120943785Y-82424508D01*
X120946557Y-82431410D01*
X120949085Y-82438598D01*
X120951371Y-82446072D01*
X120953413Y-82453832D01*
X120955212Y-82461879D01*
X120956768Y-82470212D01*
X120958080Y-82478831D01*
X120958916Y-82485362D01*
X120959731Y-82491629D01*
X120960525Y-82497632D01*
X120961297Y-82503372D01*
X120962048Y-82508847D01*
X120962777Y-82514058D01*
X120963485Y-82519005D01*
X120964395Y-82525190D01*
X120965267Y-82530906D01*
X120965896Y-82534885D01*
X120967275Y-82541644D01*
X120968847Y-82548048D01*
X120970612Y-82554095D01*
X120972570Y-82559786D01*
X120974722Y-82565120D01*
X120977067Y-82570099D01*
X120979605Y-82574720D01*
X120982336Y-82578986D01*
X120986279Y-82584119D01*
X120990564Y-82588618D01*
X120994966Y-82592539D01*
X120999502Y-82595938D01*
X121004171Y-82598813D01*
X121008974Y-82601166D01*
X121013910Y-82602996D01*
X121018980Y-82604303D01*
X121024184Y-82605087D01*
X121029521Y-82605349D01*
X121036074Y-82605005D01*
X121042317Y-82604250D01*
X121048247Y-82603082D01*
X121053867Y-82601502D01*
X121059175Y-82599510D01*
X121064172Y-82597105D01*
X121068858Y-82594289D01*
X121073233Y-82591060D01*
X121077296Y-82587420D01*
X121081048Y-82583367D01*
X121083377Y-82580436D01*
X121086497Y-82575962D01*
X121089311Y-82571285D01*
X121091818Y-82566407D01*
X121094018Y-82561328D01*
X121095911Y-82556046D01*
X121097497Y-82550563D01*
X121098776Y-82544878D01*
X121099748Y-82538991D01*
X121100414Y-82532902D01*
X121100772Y-82526612D01*
X121100840Y-82522306D01*
X121100534Y-82513924D01*
X121099951Y-82505631D01*
X121099091Y-82497426D01*
X121097955Y-82489310D01*
X121096542Y-82481283D01*
X121094852Y-82473345D01*
X121092886Y-82465495D01*
X121090643Y-82457734D01*
X121088123Y-82450062D01*
X121085327Y-82442479D01*
X121082254Y-82434984D01*
X121078904Y-82427578D01*
X121075277Y-82420261D01*
X121071374Y-82413032D01*
X121067194Y-82405892D01*
X121062738Y-82398841D01*
X121125875Y-82356832D01*
X121128972Y-82361152D01*
X121131976Y-82365520D01*
X121134885Y-82369936D01*
X121137700Y-82374398D01*
X121140420Y-82378908D01*
X121143047Y-82383465D01*
X121145579Y-82388069D01*
X121148017Y-82392720D01*
X121150361Y-82397419D01*
X121152610Y-82402164D01*
X121154766Y-82406957D01*
X121156827Y-82411798D01*
X121158794Y-82416685D01*
X121160666Y-82421620D01*
X121162445Y-82426602D01*
X121164129Y-82431631D01*
X121165719Y-82436707D01*
X121167215Y-82441831D01*
X121168617Y-82447002D01*
X121169924Y-82452220D01*
X121171138Y-82457485D01*
X121172257Y-82462798D01*
X121173281Y-82468157D01*
X121174212Y-82473564D01*
X121175048Y-82479019D01*
X121175790Y-82484520D01*
X121176438Y-82490069D01*
X121176992Y-82495665D01*
X121177452Y-82501308D01*
X121177817Y-82506998D01*
X121178088Y-82512736D01*
X121178265Y-82518520D01*
X121178022Y-82528031D01*
X121177475Y-82537268D01*
X121176625Y-82546231D01*
X121175471Y-82554920D01*
X121174014Y-82563336D01*
X121172254Y-82571477D01*
X121170191Y-82579345D01*
X121167823Y-82586939D01*
X121165153Y-82594259D01*
X121162179Y-82601305D01*
X121158902Y-82608078D01*
X121155321Y-82614576D01*
X121151437Y-82620801D01*
X121147250Y-82626752D01*
X121142759Y-82632430D01*
X121137965Y-82637833D01*
X121132874Y-82643083D01*
X121127586Y-82647994D01*
X121122101Y-82652566D01*
X121116418Y-82656800D01*
X121110538Y-82660695D01*
X121104460Y-82664251D01*
X121098184Y-82667469D01*
X121091711Y-82670348D01*
X121085041Y-82672888D01*
X121078173Y-82675090D01*
X121071108Y-82676952D01*
X121063845Y-82678476D01*
X121056384Y-82679662D01*
X121048726Y-82680509D01*
X121040871Y-82681017D01*
X121032818Y-82681186D01*
X121026090Y-82681051D01*
X121019490Y-82680646D01*
X121013019Y-82679971D01*
X121006677Y-82679026D01*
X121000463Y-82677811D01*
X120994379Y-82676326D01*
X120988423Y-82674571D01*
X120982596Y-82672546D01*
X120976898Y-82670251D01*
X120971328Y-82667686D01*
X120965888Y-82664851D01*
X120960576Y-82661746D01*
X120955393Y-82658371D01*
X120950339Y-82654726D01*
X120945413Y-82650811D01*
X120940617Y-82646626D01*
X120936109Y-82642323D01*
X120931807Y-82637780D01*
X120927709Y-82632996D01*
X120923817Y-82627972D01*
X120920130Y-82622707D01*
X120916648Y-82617202D01*
X120913372Y-82611457D01*
X120910300Y-82605471D01*
X120907433Y-82599245D01*
X120904772Y-82592778D01*
X120902316Y-82586071D01*
X120900065Y-82579123D01*
X120898019Y-82571935D01*
X120896178Y-82564507D01*
X120894542Y-82556838D01*
X120893111Y-82548929D01*
X120892159Y-82542248D01*
X120891227Y-82535671D01*
X120890313Y-82529196D01*
X120889419Y-82522825D01*
X120888544Y-82516557D01*
X120887689Y-82510392D01*
X120886853Y-82504329D01*
X120886036Y-82498370D01*
X120885238Y-82492514D01*
X120884460Y-82486761D01*
X120883952Y-82482983D01*
X120882360Y-82475030D01*
X120880422Y-82467596D01*
X120878139Y-82460681D01*
X120875511Y-82454284D01*
X120872537Y-82448407D01*
X120869218Y-82443049D01*
X120865553Y-82438210D01*
X120861543Y-82433890D01*
X120857188Y-82430089D01*
X120852487Y-82426807D01*
X120847441Y-82424044D01*
X120842049Y-82421800D01*
X120836312Y-82420075D01*
X120830230Y-82418869D01*
X120823803Y-82418182D01*
X120817030Y-82418014D01*
X120808787Y-82418556D01*
X120801066Y-82419846D01*
X120793866Y-82421884D01*
X120787186Y-82424670D01*
X120781028Y-82428204D01*
X120775390Y-82432486D01*
X120770273Y-82437516D01*
X120765678Y-82443294D01*
X120761603Y-82449819D01*
X120758049Y-82457093D01*
X120755016Y-82465115D01*
X120752504Y-82473885D01*
X120750513Y-82483403D01*
X120749712Y-82488442D01*
X120749042Y-82493669D01*
X120748503Y-82499082D01*
X120748093Y-82504682D01*
X120747814Y-82510470D01*
X120747665Y-82516444D01*
X120747757Y-82521551D01*
X120747943Y-82526614D01*
X120748222Y-82531633D01*
X120748594Y-82536608D01*
X120749059Y-82541538D01*
X120749618Y-82546425D01*
X120750270Y-82551267D01*
X120751854Y-82560819D01*
X120753811Y-82570195D01*
X120756141Y-82579394D01*
X120758843Y-82588417D01*
X120761919Y-82597263D01*
X120765368Y-82605932D01*
X120769190Y-82614426D01*
X120773385Y-82622742D01*
X120777954Y-82630882D01*
X120782895Y-82638846D01*
X120788209Y-82646633D01*
X120793896Y-82654244D01*
X120796880Y-82657983D01*
G37*
G36*
X121101695Y-82179511D02*
G01*
X120678056Y-82179511D01*
X120678056Y-82108070D01*
X121178265Y-82108070D01*
X121178265Y-82179511D01*
X121125753Y-82250220D01*
X121049793Y-82250220D01*
X121101695Y-82179511D01*
G37*
G36*
X126905678Y-71795245D02*
G01*
X126905678Y-71719652D01*
X127217087Y-71719652D01*
X127217087Y-71718309D01*
X126977241Y-71614017D01*
X126977241Y-71551124D01*
X127217087Y-71446955D01*
X127217087Y-71445245D01*
X126905678Y-71445245D01*
X126905678Y-71369652D01*
X127405887Y-71369652D01*
X127405887Y-71441093D01*
X127079823Y-71581288D01*
X127405887Y-71724170D01*
X127405887Y-71795245D01*
X126905678Y-71795245D01*
G37*
G36*
X127157260Y-70925989D02*
G01*
X127162533Y-70926002D01*
X127167694Y-70926024D01*
X127172742Y-70926054D01*
X127177677Y-70926092D01*
X127187210Y-70926195D01*
X127196293Y-70926333D01*
X127204926Y-70926504D01*
X127213108Y-70926710D01*
X127220840Y-70926951D01*
X127228121Y-70927226D01*
X127234952Y-70927535D01*
X127241333Y-70927878D01*
X127247264Y-70928256D01*
X127252744Y-70928668D01*
X127257774Y-70929115D01*
X127264474Y-70929849D01*
X127268378Y-70930381D01*
X127273820Y-70931365D01*
X127279061Y-70932484D01*
X127284104Y-70933738D01*
X127288946Y-70935127D01*
X127293589Y-70936651D01*
X127299469Y-70938894D01*
X127304994Y-70941378D01*
X127310164Y-70944102D01*
X127314979Y-70947066D01*
X127316128Y-70947845D01*
X127322542Y-70951311D01*
X127326746Y-70953836D01*
X127330891Y-70956531D01*
X127334979Y-70959397D01*
X127339008Y-70962434D01*
X127342978Y-70965641D01*
X127346891Y-70969020D01*
X127350746Y-70972569D01*
X127354542Y-70976289D01*
X127358280Y-70980179D01*
X127361960Y-70984241D01*
X127365581Y-70988473D01*
X127369145Y-70992876D01*
X127372650Y-70997450D01*
X127376097Y-71002195D01*
X127377799Y-71004631D01*
X127381114Y-71009655D01*
X127384222Y-71014836D01*
X127387121Y-71020173D01*
X127389813Y-71025666D01*
X127392296Y-71031317D01*
X127394572Y-71037123D01*
X127396639Y-71043086D01*
X127398499Y-71049205D01*
X127400150Y-71055481D01*
X127401594Y-71061914D01*
X127402829Y-71068502D01*
X127403857Y-71075248D01*
X127404676Y-71082150D01*
X127405288Y-71089208D01*
X127405691Y-71096422D01*
X127405887Y-71103794D01*
X127405689Y-71111060D01*
X127405280Y-71118175D01*
X127404659Y-71125139D01*
X127403826Y-71131950D01*
X127402781Y-71138610D01*
X127401525Y-71145118D01*
X127400057Y-71151475D01*
X127398376Y-71157680D01*
X127396484Y-71163733D01*
X127394381Y-71169634D01*
X127392065Y-71175384D01*
X127389538Y-71180982D01*
X127386799Y-71186428D01*
X127383848Y-71191723D01*
X127380685Y-71196866D01*
X127377310Y-71201857D01*
X127373831Y-71206764D01*
X127370292Y-71211501D01*
X127366694Y-71216068D01*
X127363037Y-71220465D01*
X127359321Y-71224693D01*
X127355546Y-71228751D01*
X127351712Y-71232638D01*
X127347818Y-71236356D01*
X127343865Y-71239905D01*
X127339854Y-71243283D01*
X127335782Y-71246492D01*
X127331652Y-71249530D01*
X127327463Y-71252399D01*
X127323214Y-71255098D01*
X127318907Y-71257628D01*
X127314540Y-71259987D01*
X127309875Y-71262706D01*
X127304854Y-71265246D01*
X127299479Y-71267606D01*
X127293749Y-71269787D01*
X127287664Y-71271789D01*
X127282867Y-71273172D01*
X127277871Y-71274455D01*
X127272675Y-71275637D01*
X127267279Y-71276718D01*
X127261305Y-71277634D01*
X127254329Y-71278461D01*
X127249121Y-71278962D01*
X127243468Y-71279422D01*
X127237369Y-71279843D01*
X127230824Y-71280224D01*
X127223834Y-71280564D01*
X127216399Y-71280865D01*
X127208518Y-71281125D01*
X127200191Y-71281346D01*
X127191419Y-71281526D01*
X127182201Y-71281666D01*
X127172538Y-71281767D01*
X127167539Y-71281802D01*
X127162429Y-71281827D01*
X127157207Y-71281842D01*
X127151874Y-71281847D01*
X127146570Y-71281842D01*
X127141375Y-71281827D01*
X127136288Y-71281802D01*
X127131310Y-71281767D01*
X127121679Y-71281666D01*
X127112482Y-71281526D01*
X127103720Y-71281346D01*
X127095391Y-71281125D01*
X127087497Y-71280865D01*
X127080036Y-71280564D01*
X127073010Y-71280224D01*
X127066418Y-71279843D01*
X127060260Y-71279422D01*
X127054536Y-71278962D01*
X127049246Y-71278461D01*
X127044390Y-71277920D01*
X127037921Y-71277033D01*
X127035981Y-71276718D01*
X127031078Y-71275842D01*
X127025548Y-71274697D01*
X127020404Y-71273449D01*
X127015647Y-71272098D01*
X127010586Y-71270392D01*
X127009236Y-71269879D01*
X127004696Y-71267903D01*
X127000050Y-71265822D01*
X126995299Y-71263635D01*
X126990443Y-71261344D01*
X126987621Y-71259987D01*
X126983333Y-71257628D01*
X126979109Y-71255098D01*
X126974948Y-71252399D01*
X126970852Y-71249530D01*
X126966820Y-71246492D01*
X126962851Y-71243283D01*
X126958947Y-71239905D01*
X126955106Y-71236356D01*
X126951329Y-71232638D01*
X126947617Y-71228751D01*
X126943968Y-71224693D01*
X126940383Y-71220465D01*
X126936862Y-71216068D01*
X126933405Y-71211501D01*
X126930012Y-71206764D01*
X126926682Y-71201857D01*
X126923350Y-71196866D01*
X126920221Y-71191723D01*
X126917297Y-71186428D01*
X126914577Y-71180982D01*
X126912061Y-71175384D01*
X126909749Y-71169634D01*
X126907642Y-71163733D01*
X126905739Y-71157680D01*
X126904039Y-71151475D01*
X126902544Y-71145118D01*
X126901253Y-71138610D01*
X126900167Y-71131950D01*
X126899284Y-71125139D01*
X126898606Y-71118175D01*
X126898132Y-71111060D01*
X126897862Y-71103794D01*
X126975287Y-71103794D01*
X126975385Y-71108720D01*
X126975824Y-71115085D01*
X126976614Y-71121216D01*
X126977755Y-71127115D01*
X126979248Y-71132782D01*
X126981091Y-71138215D01*
X126983285Y-71143416D01*
X126985831Y-71148384D01*
X126986522Y-71149589D01*
X126988993Y-71154356D01*
X126991643Y-71158886D01*
X126994473Y-71163179D01*
X126997482Y-71167236D01*
X127000671Y-71171056D01*
X127004039Y-71174639D01*
X127008501Y-71178786D01*
X127011313Y-71181097D01*
X127015465Y-71184606D01*
X127019922Y-71187806D01*
X127024685Y-71190696D01*
X127029753Y-71193278D01*
X127035126Y-71195551D01*
X127040805Y-71197514D01*
X127046789Y-71199169D01*
X127053078Y-71200514D01*
X127058325Y-71201496D01*
X127064402Y-71202381D01*
X127071311Y-71203170D01*
X127076378Y-71203643D01*
X127081814Y-71204072D01*
X127087620Y-71204458D01*
X127093794Y-71204802D01*
X127100338Y-71205102D01*
X127107252Y-71205360D01*
X127114534Y-71205575D01*
X127122186Y-71205746D01*
X127130207Y-71205875D01*
X127138597Y-71205961D01*
X127147356Y-71206004D01*
X127151874Y-71206009D01*
X127160821Y-71205988D01*
X127169404Y-71205923D01*
X127177624Y-71205816D01*
X127185481Y-71205666D01*
X127192973Y-71205473D01*
X127200103Y-71205236D01*
X127206869Y-71204957D01*
X127213271Y-71204635D01*
X127219310Y-71204270D01*
X127224985Y-71203863D01*
X127230297Y-71203412D01*
X127235245Y-71202918D01*
X127241986Y-71202097D01*
X127247909Y-71201179D01*
X127251403Y-71200514D01*
X127257521Y-71199169D01*
X127263356Y-71197514D01*
X127268909Y-71195551D01*
X127274179Y-71193278D01*
X127279167Y-71190696D01*
X127283872Y-71187806D01*
X127288295Y-71184606D01*
X127292436Y-71181097D01*
X127297084Y-71177172D01*
X127300627Y-71173766D01*
X127304013Y-71170123D01*
X127307242Y-71166244D01*
X127310315Y-71162128D01*
X127313232Y-71157775D01*
X127315992Y-71153186D01*
X127317959Y-71149589D01*
X127320261Y-71144680D01*
X127322279Y-71139537D01*
X127324016Y-71134162D01*
X127325470Y-71128554D01*
X127326641Y-71122713D01*
X127327531Y-71116639D01*
X127328137Y-71110333D01*
X127328407Y-71105450D01*
X127328462Y-71103794D01*
X127328245Y-71098796D01*
X127327869Y-71093922D01*
X127327121Y-71087617D01*
X127326091Y-71081534D01*
X127324778Y-71075672D01*
X127323183Y-71070032D01*
X127321305Y-71064613D01*
X127319145Y-71059415D01*
X127317959Y-71056899D01*
X127315317Y-71052342D01*
X127312517Y-71048015D01*
X127309562Y-71043916D01*
X127306449Y-71040046D01*
X127303181Y-71036406D01*
X127298875Y-71032177D01*
X127294325Y-71028305D01*
X127292436Y-71026857D01*
X127288322Y-71023337D01*
X127283918Y-71020102D01*
X127279224Y-71017154D01*
X127274240Y-71014492D01*
X127268966Y-71012117D01*
X127263402Y-71010027D01*
X127257547Y-71008224D01*
X127251403Y-71006707D01*
X127246025Y-71005791D01*
X127239830Y-71004964D01*
X127232816Y-71004228D01*
X127227686Y-71003787D01*
X127222193Y-71003386D01*
X127216336Y-71003026D01*
X127210115Y-71002705D01*
X127203531Y-71002425D01*
X127196583Y-71002184D01*
X127189272Y-71001984D01*
X127181598Y-71001823D01*
X127173560Y-71001703D01*
X127165158Y-71001623D01*
X127156393Y-71001583D01*
X127151874Y-71001578D01*
X127142930Y-71001598D01*
X127134356Y-71001658D01*
X127126150Y-71001758D01*
X127118314Y-71001899D01*
X127110847Y-71002079D01*
X127103749Y-71002299D01*
X127097020Y-71002560D01*
X127090661Y-71002860D01*
X127084671Y-71003201D01*
X127079050Y-71003582D01*
X127073798Y-71004002D01*
X127068916Y-71004463D01*
X127062284Y-71005230D01*
X127056484Y-71006086D01*
X127053078Y-71006707D01*
X127048312Y-71007818D01*
X127042230Y-71009550D01*
X127036462Y-71011568D01*
X127031007Y-71013872D01*
X127025864Y-71016462D01*
X127021035Y-71019338D01*
X127016518Y-71022501D01*
X127012315Y-71025950D01*
X127011313Y-71026857D01*
X127006682Y-71030585D01*
X127002332Y-71034671D01*
X126998263Y-71039115D01*
X126995209Y-71042927D01*
X126992334Y-71046969D01*
X126989639Y-71051239D01*
X126987123Y-71055738D01*
X126986522Y-71056899D01*
X126983889Y-71061986D01*
X126981606Y-71067295D01*
X126979675Y-71072824D01*
X126978096Y-71078576D01*
X126976867Y-71084548D01*
X126975989Y-71090742D01*
X126975462Y-71097157D01*
X126975298Y-71102114D01*
X126975287Y-71103794D01*
X126897862Y-71103794D01*
X126898132Y-71096437D01*
X126898606Y-71089235D01*
X126899284Y-71082187D01*
X126900167Y-71075294D01*
X126901253Y-71068555D01*
X126902544Y-71061971D01*
X126904039Y-71055541D01*
X126905739Y-71049266D01*
X126907642Y-71043146D01*
X126909749Y-71037180D01*
X126912061Y-71031369D01*
X126914577Y-71025712D01*
X126917297Y-71020210D01*
X126920221Y-71014863D01*
X126923350Y-71009670D01*
X126926682Y-71004631D01*
X126930012Y-70999801D01*
X126933405Y-70995142D01*
X126936862Y-70990653D01*
X126940383Y-70986336D01*
X126943968Y-70982189D01*
X126947617Y-70978213D01*
X126951329Y-70974407D01*
X126955106Y-70970773D01*
X126958947Y-70967309D01*
X126962851Y-70964016D01*
X126966820Y-70960894D01*
X126970852Y-70957943D01*
X126974948Y-70955162D01*
X126979109Y-70952552D01*
X126985469Y-70948957D01*
X126987621Y-70947845D01*
X126992357Y-70944820D01*
X126997467Y-70942036D01*
X127002951Y-70939493D01*
X127008809Y-70937190D01*
X127013448Y-70935620D01*
X127018297Y-70934186D01*
X127023357Y-70932887D01*
X127028627Y-70931723D01*
X127034107Y-70930694D01*
X127035981Y-70930381D01*
X127042125Y-70929596D01*
X127049246Y-70928887D01*
X127054536Y-70928458D01*
X127060260Y-70928063D01*
X127066418Y-70927702D01*
X127073010Y-70927376D01*
X127080036Y-70927084D01*
X127087497Y-70926826D01*
X127095391Y-70926603D01*
X127103720Y-70926414D01*
X127112482Y-70926260D01*
X127121679Y-70926139D01*
X127131310Y-70926054D01*
X127136288Y-70926024D01*
X127141375Y-70926002D01*
X127146570Y-70925989D01*
X127151874Y-70925985D01*
X127157260Y-70925989D01*
G37*
G36*
X127024502Y-70831707D02*
G01*
X126967959Y-70881166D01*
X126963647Y-70876159D01*
X126959471Y-70871092D01*
X126955432Y-70865963D01*
X126951530Y-70860774D01*
X126947765Y-70855524D01*
X126944137Y-70850213D01*
X126940646Y-70844841D01*
X126937292Y-70839408D01*
X126934074Y-70833915D01*
X126930994Y-70828361D01*
X126928050Y-70822746D01*
X126925244Y-70817070D01*
X126922574Y-70811333D01*
X126920041Y-70805535D01*
X126917645Y-70799677D01*
X126915386Y-70793758D01*
X126913264Y-70787778D01*
X126911279Y-70781737D01*
X126909431Y-70775635D01*
X126907719Y-70769473D01*
X126906145Y-70763250D01*
X126904707Y-70756965D01*
X126903407Y-70750621D01*
X126902243Y-70744215D01*
X126901216Y-70737748D01*
X126900326Y-70731221D01*
X126899573Y-70724633D01*
X126898957Y-70717983D01*
X126898478Y-70711274D01*
X126898136Y-70704503D01*
X126897930Y-70697671D01*
X126897862Y-70690779D01*
X126898129Y-70680242D01*
X126898671Y-70670031D01*
X126899487Y-70660148D01*
X126900579Y-70650592D01*
X126901945Y-70641362D01*
X126903586Y-70632460D01*
X126905502Y-70623884D01*
X126907693Y-70615636D01*
X126910158Y-70607715D01*
X126912898Y-70600121D01*
X126915913Y-70592853D01*
X126919202Y-70585913D01*
X126922767Y-70579300D01*
X126926606Y-70573013D01*
X126930720Y-70567054D01*
X126935109Y-70561422D01*
X126939772Y-70556117D01*
X126944711Y-70551138D01*
X126949924Y-70546487D01*
X126955411Y-70542163D01*
X126961174Y-70538166D01*
X126967211Y-70534496D01*
X126973524Y-70531152D01*
X126980111Y-70528136D01*
X126986972Y-70525447D01*
X126994109Y-70523085D01*
X127001520Y-70521050D01*
X127009206Y-70519342D01*
X127017167Y-70517960D01*
X127025402Y-70516906D01*
X127033913Y-70516179D01*
X127042698Y-70515779D01*
X127049257Y-70515909D01*
X127055715Y-70516298D01*
X127062072Y-70516947D01*
X127068328Y-70517855D01*
X127074483Y-70519023D01*
X127080536Y-70520450D01*
X127086489Y-70522137D01*
X127092340Y-70524083D01*
X127098090Y-70526289D01*
X127103739Y-70528754D01*
X127109287Y-70531479D01*
X127114734Y-70534464D01*
X127120080Y-70537707D01*
X127125324Y-70541211D01*
X127130468Y-70544974D01*
X127135510Y-70548996D01*
X127140472Y-70553322D01*
X127145190Y-70557934D01*
X127149665Y-70562832D01*
X127153897Y-70568016D01*
X127157885Y-70573487D01*
X127161631Y-70579244D01*
X127165133Y-70585287D01*
X127168391Y-70591616D01*
X127171407Y-70598232D01*
X127174179Y-70605134D01*
X127176707Y-70612322D01*
X127178993Y-70619796D01*
X127181035Y-70627556D01*
X127182834Y-70635603D01*
X127184390Y-70643936D01*
X127185702Y-70652555D01*
X127186538Y-70659086D01*
X127187353Y-70665353D01*
X127188147Y-70671357D01*
X127188919Y-70677096D01*
X127189670Y-70682571D01*
X127190399Y-70687782D01*
X127191107Y-70692729D01*
X127192017Y-70698914D01*
X127192889Y-70704630D01*
X127193518Y-70708609D01*
X127194897Y-70715369D01*
X127196469Y-70721772D01*
X127198234Y-70727819D01*
X127200192Y-70733510D01*
X127202344Y-70738845D01*
X127204689Y-70743823D01*
X127207227Y-70748444D01*
X127209958Y-70752710D01*
X127213901Y-70757843D01*
X127218186Y-70762342D01*
X127222588Y-70766263D01*
X127227124Y-70769662D01*
X127231793Y-70772537D01*
X127236596Y-70774890D01*
X127241532Y-70776720D01*
X127246602Y-70778027D01*
X127251806Y-70778811D01*
X127257143Y-70779073D01*
X127263696Y-70778729D01*
X127269939Y-70777974D01*
X127275869Y-70776806D01*
X127281489Y-70775226D01*
X127286797Y-70773234D01*
X127291794Y-70770830D01*
X127296480Y-70768013D01*
X127300855Y-70764785D01*
X127304918Y-70761144D01*
X127308670Y-70757091D01*
X127310999Y-70754160D01*
X127314119Y-70749686D01*
X127316933Y-70745010D01*
X127319440Y-70740132D01*
X127321640Y-70735052D01*
X127323533Y-70729770D01*
X127325119Y-70724287D01*
X127326398Y-70718602D01*
X127327370Y-70712715D01*
X127328036Y-70706626D01*
X127328394Y-70700336D01*
X127328462Y-70696030D01*
X127328156Y-70687648D01*
X127327573Y-70679355D01*
X127326713Y-70671150D01*
X127325577Y-70663035D01*
X127324164Y-70655007D01*
X127322474Y-70647069D01*
X127320508Y-70639219D01*
X127318265Y-70631459D01*
X127315745Y-70623786D01*
X127312949Y-70616203D01*
X127309876Y-70608708D01*
X127306526Y-70601302D01*
X127302899Y-70593985D01*
X127298996Y-70586756D01*
X127294816Y-70579617D01*
X127290360Y-70572565D01*
X127353497Y-70530556D01*
X127356594Y-70534876D01*
X127359598Y-70539244D01*
X127362507Y-70543660D01*
X127365322Y-70548122D01*
X127368042Y-70552632D01*
X127370669Y-70557189D01*
X127373201Y-70561793D01*
X127375639Y-70566444D01*
X127377983Y-70571143D01*
X127380232Y-70575889D01*
X127382388Y-70580682D01*
X127384449Y-70585522D01*
X127386416Y-70590409D01*
X127388288Y-70595344D01*
X127390067Y-70600326D01*
X127391751Y-70605355D01*
X127393341Y-70610431D01*
X127394837Y-70615555D01*
X127396239Y-70620726D01*
X127397546Y-70625944D01*
X127398760Y-70631209D01*
X127399879Y-70636522D01*
X127400903Y-70641882D01*
X127401834Y-70647289D01*
X127402670Y-70652743D01*
X127403412Y-70658244D01*
X127404060Y-70663793D01*
X127404614Y-70669389D01*
X127405074Y-70675032D01*
X127405439Y-70680722D01*
X127405710Y-70686460D01*
X127405887Y-70692244D01*
X127405644Y-70701755D01*
X127405097Y-70710992D01*
X127404247Y-70719955D01*
X127403093Y-70728644D01*
X127401636Y-70737060D01*
X127399876Y-70745201D01*
X127397813Y-70753069D01*
X127395445Y-70760663D01*
X127392775Y-70767983D01*
X127389801Y-70775029D01*
X127386524Y-70781802D01*
X127382943Y-70788301D01*
X127379059Y-70794525D01*
X127374872Y-70800476D01*
X127370381Y-70806154D01*
X127365587Y-70811557D01*
X127360496Y-70816807D01*
X127355208Y-70821718D01*
X127349723Y-70826290D01*
X127344040Y-70830524D01*
X127338160Y-70834419D01*
X127332082Y-70837975D01*
X127325806Y-70841193D01*
X127319333Y-70844072D01*
X127312663Y-70846612D01*
X127305795Y-70848814D01*
X127298730Y-70850677D01*
X127291467Y-70852201D01*
X127284006Y-70853386D01*
X127276348Y-70854233D01*
X127268493Y-70854741D01*
X127260440Y-70854910D01*
X127253712Y-70854775D01*
X127247112Y-70854370D01*
X127240641Y-70853695D01*
X127234299Y-70852750D01*
X127228085Y-70851535D01*
X127222001Y-70850050D01*
X127216045Y-70848295D01*
X127210218Y-70846270D01*
X127204520Y-70843975D01*
X127198950Y-70841410D01*
X127193510Y-70838575D01*
X127188198Y-70835470D01*
X127183015Y-70832095D01*
X127177961Y-70828450D01*
X127173035Y-70824535D01*
X127168239Y-70820350D01*
X127163731Y-70816047D01*
X127159429Y-70811504D01*
X127155331Y-70806720D01*
X127151439Y-70801696D01*
X127147752Y-70796431D01*
X127144270Y-70790926D01*
X127140994Y-70785181D01*
X127137922Y-70779195D01*
X127135055Y-70772969D01*
X127132394Y-70766502D01*
X127129938Y-70759795D01*
X127127687Y-70752847D01*
X127125641Y-70745659D01*
X127123800Y-70738231D01*
X127122164Y-70730562D01*
X127120733Y-70722653D01*
X127119781Y-70715972D01*
X127118849Y-70709395D01*
X127117935Y-70702921D01*
X127117041Y-70696549D01*
X127116166Y-70690281D01*
X127115311Y-70684116D01*
X127114475Y-70678054D01*
X127113658Y-70672094D01*
X127112860Y-70666238D01*
X127112082Y-70660485D01*
X127111574Y-70656707D01*
X127109982Y-70648754D01*
X127108044Y-70641320D01*
X127105761Y-70634405D01*
X127103133Y-70628009D01*
X127100159Y-70622132D01*
X127096840Y-70616773D01*
X127093175Y-70611934D01*
X127089165Y-70607614D01*
X127084810Y-70603813D01*
X127080109Y-70600531D01*
X127075063Y-70597768D01*
X127069671Y-70595524D01*
X127063934Y-70593799D01*
X127057852Y-70592593D01*
X127051425Y-70591906D01*
X127044652Y-70591739D01*
X127036409Y-70592280D01*
X127028688Y-70593570D01*
X127021488Y-70595608D01*
X127014808Y-70598394D01*
X127008650Y-70601928D01*
X127003012Y-70606210D01*
X126997895Y-70611240D01*
X126993300Y-70617018D01*
X126989225Y-70623544D01*
X126985671Y-70630817D01*
X126982638Y-70638839D01*
X126980126Y-70647609D01*
X126978135Y-70657127D01*
X126977334Y-70662166D01*
X126976664Y-70667393D01*
X126976125Y-70672806D01*
X126975715Y-70678407D01*
X126975436Y-70684194D01*
X126975287Y-70690168D01*
X126975379Y-70695275D01*
X126975565Y-70700338D01*
X126975844Y-70705357D01*
X126976216Y-70710332D01*
X126976681Y-70715262D01*
X126977240Y-70720149D01*
X126977892Y-70724991D01*
X126979476Y-70734543D01*
X126981433Y-70743919D01*
X126983763Y-70753118D01*
X126986465Y-70762141D01*
X126989541Y-70770987D01*
X126992990Y-70779657D01*
X126996812Y-70788150D01*
X127001007Y-70796466D01*
X127005576Y-70804607D01*
X127010517Y-70812570D01*
X127015831Y-70820357D01*
X127021518Y-70827968D01*
X127024502Y-70831707D01*
G37*
G36*
X126905678Y-70436278D02*
G01*
X126905678Y-70360685D01*
X127405887Y-70360685D01*
X127405887Y-70436278D01*
X126905678Y-70436278D01*
G37*
G36*
X122661153Y-82983830D02*
G01*
X122661153Y-82908237D01*
X122972562Y-82908237D01*
X122972562Y-82906894D01*
X122732716Y-82802602D01*
X122732716Y-82739709D01*
X122972562Y-82635540D01*
X122972562Y-82633830D01*
X122661153Y-82633830D01*
X122661153Y-82558237D01*
X123161362Y-82558237D01*
X123161362Y-82629678D01*
X122835298Y-82769873D01*
X123161362Y-82912755D01*
X123161362Y-82983830D01*
X122661153Y-82983830D01*
G37*
G36*
X122661153Y-82453335D02*
G01*
X122661153Y-82377742D01*
X123161362Y-82377742D01*
X123161362Y-82453335D01*
X122661153Y-82453335D01*
G37*
G36*
X122779977Y-82266977D02*
G01*
X122723434Y-82316437D01*
X122719122Y-82311430D01*
X122714946Y-82306362D01*
X122710907Y-82301234D01*
X122707005Y-82296044D01*
X122703240Y-82290794D01*
X122699612Y-82285483D01*
X122696121Y-82280111D01*
X122692767Y-82274679D01*
X122689549Y-82269185D01*
X122686469Y-82263631D01*
X122683525Y-82258016D01*
X122680719Y-82252340D01*
X122678049Y-82246603D01*
X122675516Y-82240806D01*
X122673120Y-82234947D01*
X122670861Y-82229028D01*
X122668739Y-82223048D01*
X122666754Y-82217007D01*
X122664906Y-82210906D01*
X122663194Y-82204743D01*
X122661620Y-82198520D01*
X122660182Y-82192236D01*
X122658882Y-82185891D01*
X122657718Y-82179485D01*
X122656691Y-82173018D01*
X122655801Y-82166491D01*
X122655048Y-82159903D01*
X122654432Y-82153254D01*
X122653953Y-82146544D01*
X122653611Y-82139773D01*
X122653405Y-82132942D01*
X122653337Y-82126049D01*
X122653604Y-82115512D01*
X122654146Y-82105302D01*
X122654962Y-82095418D01*
X122656054Y-82085862D01*
X122657420Y-82076632D01*
X122659061Y-82067730D01*
X122660977Y-82059155D01*
X122663168Y-82050906D01*
X122665633Y-82042985D01*
X122668373Y-82035391D01*
X122671388Y-82028124D01*
X122674677Y-82021183D01*
X122678242Y-82014570D01*
X122682081Y-82008284D01*
X122686195Y-82002324D01*
X122690584Y-81996692D01*
X122695247Y-81991387D01*
X122700186Y-81986409D01*
X122705399Y-81981757D01*
X122710886Y-81977433D01*
X122716649Y-81973436D01*
X122722686Y-81969766D01*
X122728999Y-81966423D01*
X122735586Y-81963406D01*
X122742447Y-81960717D01*
X122749584Y-81958355D01*
X122756995Y-81956320D01*
X122764681Y-81954612D01*
X122772642Y-81953231D01*
X122780877Y-81952177D01*
X122789388Y-81951449D01*
X122798173Y-81951049D01*
X122804732Y-81951179D01*
X122811190Y-81951568D01*
X122817547Y-81952217D01*
X122823803Y-81953125D01*
X122829958Y-81954293D01*
X122836011Y-81955720D01*
X122841964Y-81957407D01*
X122847815Y-81959354D01*
X122853565Y-81961559D01*
X122859214Y-81964025D01*
X122864762Y-81966750D01*
X122870209Y-81969734D01*
X122875555Y-81972978D01*
X122880799Y-81976481D01*
X122885943Y-81980244D01*
X122890985Y-81984266D01*
X122895947Y-81988592D01*
X122900665Y-81993204D01*
X122905140Y-81998102D01*
X122909372Y-82003287D01*
X122913360Y-82008757D01*
X122917106Y-82014514D01*
X122920608Y-82020557D01*
X122923866Y-82026887D01*
X122926882Y-82033502D01*
X122929654Y-82040404D01*
X122932182Y-82047592D01*
X122934468Y-82055066D01*
X122936510Y-82062827D01*
X122938309Y-82070873D01*
X122939865Y-82079206D01*
X122941177Y-82087825D01*
X122942013Y-82094357D01*
X122942828Y-82100624D01*
X122943622Y-82106627D01*
X122944394Y-82112366D01*
X122945145Y-82117841D01*
X122945874Y-82123052D01*
X122946582Y-82127999D01*
X122947492Y-82134184D01*
X122948364Y-82139900D01*
X122948993Y-82143879D01*
X122950372Y-82150639D01*
X122951944Y-82157042D01*
X122953709Y-82163090D01*
X122955667Y-82168780D01*
X122957819Y-82174115D01*
X122960164Y-82179093D01*
X122962702Y-82183715D01*
X122965433Y-82187980D01*
X122969376Y-82193113D01*
X122973661Y-82197612D01*
X122978063Y-82201534D01*
X122982599Y-82204932D01*
X122987268Y-82207808D01*
X122992071Y-82210160D01*
X122997007Y-82211990D01*
X123002077Y-82213297D01*
X123007281Y-82214082D01*
X123012618Y-82214343D01*
X123019171Y-82214000D01*
X123025414Y-82213244D01*
X123031344Y-82212076D01*
X123036964Y-82210496D01*
X123042272Y-82208504D01*
X123047269Y-82206100D01*
X123051955Y-82203283D01*
X123056330Y-82200055D01*
X123060393Y-82196414D01*
X123064145Y-82192361D01*
X123066474Y-82189430D01*
X123069594Y-82184956D01*
X123072408Y-82180280D01*
X123074915Y-82175402D01*
X123077115Y-82170322D01*
X123079008Y-82165041D01*
X123080594Y-82159557D01*
X123081873Y-82153872D01*
X123082845Y-82147985D01*
X123083511Y-82141897D01*
X123083869Y-82135606D01*
X123083937Y-82131301D01*
X123083631Y-82122918D01*
X123083048Y-82114625D01*
X123082188Y-82106421D01*
X123081052Y-82098305D01*
X123079639Y-82090278D01*
X123077949Y-82082339D01*
X123075983Y-82074490D01*
X123073740Y-82066729D01*
X123071220Y-82059057D01*
X123068424Y-82051473D01*
X123065351Y-82043978D01*
X123062001Y-82036572D01*
X123058374Y-82029255D01*
X123054471Y-82022027D01*
X123050291Y-82014887D01*
X123045835Y-82007836D01*
X123108972Y-81965826D01*
X123112069Y-81970147D01*
X123115073Y-81974515D01*
X123117982Y-81978930D01*
X123120797Y-81983392D01*
X123123517Y-81987902D01*
X123126144Y-81992459D01*
X123128676Y-81997063D01*
X123131114Y-82001714D01*
X123133458Y-82006413D01*
X123135707Y-82011159D01*
X123137863Y-82015952D01*
X123139924Y-82020792D01*
X123141891Y-82025680D01*
X123143763Y-82030614D01*
X123145542Y-82035596D01*
X123147226Y-82040625D01*
X123148816Y-82045702D01*
X123150312Y-82050825D01*
X123151714Y-82055996D01*
X123153021Y-82061214D01*
X123154235Y-82066480D01*
X123155354Y-82071792D01*
X123156378Y-82077152D01*
X123157309Y-82082559D01*
X123158145Y-82088013D01*
X123158887Y-82093514D01*
X123159535Y-82099063D01*
X123160089Y-82104659D01*
X123160549Y-82110302D01*
X123160914Y-82115992D01*
X123161185Y-82121730D01*
X123161362Y-82127515D01*
X123161119Y-82137025D01*
X123160572Y-82146262D01*
X123159722Y-82155225D01*
X123158568Y-82163915D01*
X123157111Y-82172330D01*
X123155351Y-82180472D01*
X123153288Y-82188339D01*
X123150920Y-82195933D01*
X123148250Y-82203253D01*
X123145276Y-82210300D01*
X123141999Y-82217072D01*
X123138418Y-82223571D01*
X123134534Y-82229796D01*
X123130347Y-82235747D01*
X123125856Y-82241424D01*
X123121062Y-82246827D01*
X123115971Y-82252077D01*
X123110683Y-82256988D01*
X123105198Y-82261561D01*
X123099515Y-82265794D01*
X123093635Y-82269689D01*
X123087557Y-82273246D01*
X123081281Y-82276463D01*
X123074808Y-82279342D01*
X123068138Y-82281882D01*
X123061270Y-82284084D01*
X123054205Y-82285947D01*
X123046942Y-82287471D01*
X123039481Y-82288656D01*
X123031823Y-82289503D01*
X123023968Y-82290011D01*
X123015915Y-82290180D01*
X123009187Y-82290045D01*
X123002587Y-82289640D01*
X122996116Y-82288965D01*
X122989774Y-82288020D01*
X122983560Y-82286805D01*
X122977476Y-82285320D01*
X122971520Y-82283565D01*
X122965693Y-82281540D01*
X122959995Y-82279245D01*
X122954425Y-82276680D01*
X122948985Y-82273845D01*
X122943673Y-82270740D01*
X122938490Y-82267365D01*
X122933436Y-82263720D01*
X122928510Y-82259805D01*
X122923714Y-82255620D01*
X122919206Y-82251317D01*
X122914904Y-82246774D01*
X122910806Y-82241990D01*
X122906914Y-82236966D01*
X122903227Y-82231701D01*
X122899745Y-82226196D01*
X122896469Y-82220451D01*
X122893397Y-82214465D01*
X122890530Y-82208239D01*
X122887869Y-82201772D01*
X122885413Y-82195065D01*
X122883162Y-82188118D01*
X122881116Y-82180930D01*
X122879275Y-82173501D01*
X122877639Y-82165832D01*
X122876208Y-82157923D01*
X122875256Y-82151243D01*
X122874324Y-82144665D01*
X122873410Y-82138191D01*
X122872516Y-82131820D01*
X122871641Y-82125551D01*
X122870786Y-82119386D01*
X122869950Y-82113324D01*
X122869133Y-82107365D01*
X122868335Y-82101509D01*
X122867557Y-82095756D01*
X122867049Y-82091977D01*
X122865457Y-82084024D01*
X122863519Y-82076590D01*
X122861236Y-82069675D01*
X122858608Y-82063279D01*
X122855634Y-82057402D01*
X122852315Y-82052044D01*
X122848650Y-82047205D01*
X122844640Y-82042885D01*
X122840285Y-82039084D01*
X122835584Y-82035802D01*
X122830538Y-82033039D01*
X122825146Y-82030795D01*
X122819409Y-82029070D01*
X122813327Y-82027864D01*
X122806900Y-82027177D01*
X122800127Y-82027009D01*
X122791884Y-82027551D01*
X122784163Y-82028841D01*
X122776963Y-82030879D01*
X122770283Y-82033664D01*
X122764125Y-82037198D01*
X122758487Y-82041480D01*
X122753370Y-82046510D01*
X122748775Y-82052288D01*
X122744700Y-82058814D01*
X122741146Y-82066088D01*
X122738113Y-82074110D01*
X122735601Y-82082879D01*
X122733610Y-82092397D01*
X122732809Y-82097437D01*
X122732139Y-82102663D01*
X122731600Y-82108076D01*
X122731190Y-82113677D01*
X122730911Y-82119464D01*
X122730762Y-82125439D01*
X122730854Y-82130546D01*
X122731040Y-82135609D01*
X122731319Y-82140627D01*
X122731691Y-82145602D01*
X122732156Y-82150533D01*
X122732715Y-82155419D01*
X122733367Y-82160261D01*
X122734951Y-82169813D01*
X122736908Y-82179189D01*
X122739238Y-82188388D01*
X122741940Y-82197411D01*
X122745016Y-82206257D01*
X122748465Y-82214927D01*
X122752287Y-82223420D01*
X122756482Y-82231737D01*
X122761051Y-82239877D01*
X122765992Y-82247840D01*
X122771306Y-82255628D01*
X122776993Y-82263238D01*
X122779977Y-82266977D01*
G37*
G36*
X122912735Y-81532788D02*
G01*
X122918008Y-81532801D01*
X122923169Y-81532822D01*
X122928217Y-81532852D01*
X122933152Y-81532891D01*
X122942685Y-81532994D01*
X122951768Y-81533131D01*
X122960401Y-81533303D01*
X122968583Y-81533509D01*
X122976315Y-81533749D01*
X122983596Y-81534024D01*
X122990427Y-81534333D01*
X122996808Y-81534677D01*
X123002739Y-81535055D01*
X123008219Y-81535467D01*
X123013249Y-81535913D01*
X123019949Y-81536647D01*
X123023853Y-81537180D01*
X123029295Y-81538163D01*
X123034536Y-81539282D01*
X123039579Y-81540536D01*
X123044421Y-81541925D01*
X123049064Y-81543450D01*
X123054944Y-81545693D01*
X123060469Y-81548176D01*
X123065639Y-81550900D01*
X123070454Y-81553865D01*
X123071603Y-81554643D01*
X123078017Y-81558110D01*
X123082221Y-81560634D01*
X123086366Y-81563329D01*
X123090454Y-81566195D01*
X123094483Y-81569232D01*
X123098453Y-81572440D01*
X123102366Y-81575818D01*
X123106221Y-81579367D01*
X123110017Y-81583087D01*
X123113755Y-81586978D01*
X123117435Y-81591040D01*
X123121056Y-81595272D01*
X123124620Y-81599675D01*
X123128125Y-81604249D01*
X123131572Y-81608993D01*
X123133274Y-81611430D01*
X123136589Y-81616454D01*
X123139697Y-81621634D01*
X123142596Y-81626971D01*
X123145288Y-81632465D01*
X123147771Y-81638115D01*
X123150047Y-81643922D01*
X123152114Y-81649884D01*
X123153974Y-81656004D01*
X123155625Y-81662280D01*
X123157069Y-81668712D01*
X123158304Y-81675301D01*
X123159332Y-81682046D01*
X123160151Y-81688948D01*
X123160763Y-81696006D01*
X123161166Y-81703221D01*
X123161362Y-81710592D01*
X123161164Y-81717859D01*
X123160755Y-81724974D01*
X123160134Y-81731937D01*
X123159301Y-81738749D01*
X123158256Y-81745409D01*
X123157000Y-81751917D01*
X123155532Y-81758273D01*
X123153851Y-81764478D01*
X123151959Y-81770531D01*
X123149856Y-81776433D01*
X123147540Y-81782183D01*
X123145013Y-81787781D01*
X123142274Y-81793227D01*
X123139323Y-81798522D01*
X123136160Y-81803664D01*
X123132785Y-81808656D01*
X123129306Y-81813563D01*
X123125767Y-81818299D01*
X123122169Y-81822867D01*
X123118512Y-81827264D01*
X123114796Y-81831491D01*
X123111021Y-81835549D01*
X123107187Y-81839437D01*
X123103293Y-81843155D01*
X123099340Y-81846703D01*
X123095329Y-81850082D01*
X123091257Y-81853290D01*
X123087127Y-81856329D01*
X123082938Y-81859198D01*
X123078689Y-81861897D01*
X123074382Y-81864426D01*
X123070015Y-81866786D01*
X123065350Y-81869505D01*
X123060329Y-81872044D01*
X123054954Y-81874405D01*
X123049224Y-81876586D01*
X123043139Y-81878587D01*
X123038342Y-81879971D01*
X123033346Y-81881254D01*
X123028150Y-81882435D01*
X123022754Y-81883516D01*
X123016780Y-81884433D01*
X123009804Y-81885259D01*
X123004596Y-81885760D01*
X122998943Y-81886221D01*
X122992844Y-81886642D01*
X122986299Y-81887022D01*
X122979309Y-81887363D01*
X122971874Y-81887663D01*
X122963993Y-81887924D01*
X122955666Y-81888144D01*
X122946894Y-81888325D01*
X122937676Y-81888465D01*
X122928013Y-81888565D01*
X122923014Y-81888600D01*
X122917904Y-81888625D01*
X122912682Y-81888640D01*
X122907349Y-81888645D01*
X122902045Y-81888640D01*
X122896850Y-81888625D01*
X122891763Y-81888600D01*
X122886785Y-81888565D01*
X122877154Y-81888465D01*
X122867957Y-81888325D01*
X122859195Y-81888144D01*
X122850866Y-81887924D01*
X122842972Y-81887663D01*
X122835511Y-81887363D01*
X122828485Y-81887022D01*
X122821893Y-81886642D01*
X122815735Y-81886221D01*
X122810011Y-81885760D01*
X122804721Y-81885259D01*
X122799865Y-81884718D01*
X122793396Y-81883832D01*
X122791456Y-81883516D01*
X122786553Y-81882641D01*
X122781023Y-81881496D01*
X122775879Y-81880248D01*
X122771122Y-81878897D01*
X122766061Y-81877191D01*
X122764711Y-81876677D01*
X122760171Y-81874701D01*
X122755525Y-81872620D01*
X122750774Y-81870434D01*
X122745918Y-81868142D01*
X122743096Y-81866786D01*
X122738808Y-81864426D01*
X122734584Y-81861897D01*
X122730423Y-81859198D01*
X122726327Y-81856329D01*
X122722295Y-81853290D01*
X122718326Y-81850082D01*
X122714422Y-81846703D01*
X122710581Y-81843155D01*
X122706804Y-81839437D01*
X122703092Y-81835549D01*
X122699443Y-81831491D01*
X122695858Y-81827264D01*
X122692337Y-81822867D01*
X122688880Y-81818299D01*
X122685487Y-81813563D01*
X122682157Y-81808656D01*
X122678825Y-81803664D01*
X122675696Y-81798522D01*
X122672772Y-81793227D01*
X122670052Y-81787781D01*
X122667536Y-81782183D01*
X122665224Y-81776433D01*
X122663117Y-81770531D01*
X122661214Y-81764478D01*
X122659514Y-81758273D01*
X122658019Y-81751917D01*
X122656728Y-81745409D01*
X122655642Y-81738749D01*
X122654759Y-81731937D01*
X122654081Y-81724974D01*
X122653607Y-81717859D01*
X122653337Y-81710592D01*
X122730762Y-81710592D01*
X122730860Y-81715518D01*
X122731299Y-81721883D01*
X122732089Y-81728015D01*
X122733230Y-81733914D01*
X122734723Y-81739580D01*
X122736566Y-81745014D01*
X122738760Y-81750214D01*
X122741306Y-81755182D01*
X122741997Y-81756388D01*
X122744468Y-81761154D01*
X122747118Y-81765684D01*
X122749948Y-81769978D01*
X122752957Y-81774034D01*
X122756146Y-81777854D01*
X122759514Y-81781438D01*
X122763976Y-81785585D01*
X122766788Y-81787895D01*
X122770940Y-81791404D01*
X122775397Y-81794604D01*
X122780160Y-81797495D01*
X122785228Y-81800077D01*
X122790601Y-81802349D01*
X122796280Y-81804313D01*
X122802264Y-81805967D01*
X122808553Y-81807312D01*
X122813800Y-81808294D01*
X122819877Y-81809180D01*
X122826786Y-81809969D01*
X122831853Y-81810441D01*
X122837289Y-81810870D01*
X122843095Y-81811257D01*
X122849269Y-81811600D01*
X122855813Y-81811901D01*
X122862727Y-81812158D01*
X122870009Y-81812373D01*
X122877661Y-81812545D01*
X122885682Y-81812674D01*
X122894072Y-81812760D01*
X122902831Y-81812802D01*
X122907349Y-81812808D01*
X122916296Y-81812786D01*
X122924879Y-81812722D01*
X122933099Y-81812615D01*
X122940956Y-81812464D01*
X122948448Y-81812271D01*
X122955578Y-81812035D01*
X122962344Y-81811756D01*
X122968746Y-81811434D01*
X122974785Y-81811069D01*
X122980460Y-81810661D01*
X122985772Y-81810210D01*
X122990720Y-81809717D01*
X122997461Y-81808896D01*
X123003384Y-81807978D01*
X123006878Y-81807312D01*
X123012996Y-81805967D01*
X123018831Y-81804313D01*
X123024384Y-81802349D01*
X123029654Y-81800077D01*
X123034642Y-81797495D01*
X123039347Y-81794604D01*
X123043770Y-81791404D01*
X123047911Y-81787895D01*
X123052559Y-81783970D01*
X123056102Y-81780564D01*
X123059488Y-81776922D01*
X123062717Y-81773042D01*
X123065790Y-81768926D01*
X123068707Y-81764574D01*
X123071467Y-81759985D01*
X123073434Y-81756388D01*
X123075736Y-81751478D01*
X123077754Y-81746336D01*
X123079491Y-81740960D01*
X123080945Y-81735352D01*
X123082116Y-81729511D01*
X123083006Y-81723438D01*
X123083612Y-81717131D01*
X123083882Y-81712249D01*
X123083937Y-81710592D01*
X123083720Y-81705594D01*
X123083344Y-81700720D01*
X123082596Y-81694416D01*
X123081566Y-81688333D01*
X123080253Y-81682471D01*
X123078658Y-81676830D01*
X123076780Y-81671411D01*
X123074620Y-81666213D01*
X123073434Y-81663698D01*
X123070792Y-81659141D01*
X123067992Y-81654813D01*
X123065037Y-81650715D01*
X123061924Y-81646845D01*
X123058656Y-81643204D01*
X123054350Y-81638975D01*
X123049800Y-81635104D01*
X123047911Y-81633656D01*
X123043797Y-81630135D01*
X123039393Y-81626901D01*
X123034699Y-81623953D01*
X123029715Y-81621291D01*
X123024441Y-81618915D01*
X123018877Y-81616826D01*
X123013022Y-81615023D01*
X123006878Y-81613506D01*
X123001500Y-81612589D01*
X122995305Y-81611763D01*
X122988291Y-81611026D01*
X122983161Y-81610585D01*
X122977668Y-81610185D01*
X122971811Y-81609824D01*
X122965590Y-81609504D01*
X122959006Y-81609223D01*
X122952058Y-81608983D01*
X122944747Y-81608782D01*
X122937073Y-81608622D01*
X122929035Y-81608502D01*
X122920633Y-81608422D01*
X122911868Y-81608382D01*
X122907349Y-81608377D01*
X122898405Y-81608397D01*
X122889831Y-81608457D01*
X122881625Y-81608557D01*
X122873789Y-81608697D01*
X122866322Y-81608877D01*
X122859224Y-81609098D01*
X122852495Y-81609358D01*
X122846136Y-81609659D01*
X122840146Y-81609999D01*
X122834525Y-81610380D01*
X122829273Y-81610801D01*
X122824391Y-81611262D01*
X122817759Y-81612028D01*
X122811959Y-81612885D01*
X122808553Y-81613506D01*
X122803787Y-81614617D01*
X122797705Y-81616348D01*
X122791937Y-81618366D01*
X122786482Y-81620670D01*
X122781339Y-81623260D01*
X122776510Y-81626137D01*
X122771993Y-81629300D01*
X122767790Y-81632749D01*
X122766788Y-81633656D01*
X122762157Y-81637384D01*
X122757807Y-81641470D01*
X122753738Y-81645913D01*
X122750684Y-81649726D01*
X122747809Y-81653767D01*
X122745114Y-81658038D01*
X122742598Y-81662537D01*
X122741997Y-81663698D01*
X122739364Y-81668785D01*
X122737081Y-81674093D01*
X122735150Y-81679623D01*
X122733571Y-81685374D01*
X122732342Y-81691347D01*
X122731464Y-81697540D01*
X122730937Y-81703956D01*
X122730773Y-81708912D01*
X122730762Y-81710592D01*
X122653337Y-81710592D01*
X122653607Y-81703235D01*
X122654081Y-81696033D01*
X122654759Y-81688985D01*
X122655642Y-81682092D01*
X122656728Y-81675353D01*
X122658019Y-81668769D01*
X122659514Y-81662340D01*
X122661214Y-81656065D01*
X122663117Y-81649945D01*
X122665224Y-81643979D01*
X122667536Y-81638168D01*
X122670052Y-81632511D01*
X122672772Y-81627009D01*
X122675696Y-81621661D01*
X122678825Y-81616468D01*
X122682157Y-81611430D01*
X122685487Y-81606600D01*
X122688880Y-81601940D01*
X122692337Y-81597452D01*
X122695858Y-81593134D01*
X122699443Y-81588987D01*
X122703092Y-81585011D01*
X122706804Y-81581206D01*
X122710581Y-81577571D01*
X122714422Y-81574108D01*
X122718326Y-81570815D01*
X122722295Y-81567692D01*
X122726327Y-81564741D01*
X122730423Y-81561960D01*
X122734584Y-81559351D01*
X122740944Y-81555756D01*
X122743096Y-81554643D01*
X122747832Y-81551619D01*
X122752942Y-81548835D01*
X122758426Y-81546291D01*
X122764284Y-81543988D01*
X122768923Y-81542418D01*
X122773772Y-81540984D01*
X122778832Y-81539685D01*
X122784102Y-81538521D01*
X122789582Y-81537493D01*
X122791456Y-81537180D01*
X122797600Y-81536394D01*
X122804721Y-81535686D01*
X122810011Y-81535256D01*
X122815735Y-81534861D01*
X122821893Y-81534501D01*
X122828485Y-81534174D01*
X122835511Y-81533883D01*
X122842972Y-81533625D01*
X122850866Y-81533402D01*
X122859195Y-81533213D01*
X122867957Y-81533058D01*
X122877154Y-81532938D01*
X122886785Y-81532852D01*
X122891763Y-81532822D01*
X122896850Y-81532801D01*
X122902045Y-81532788D01*
X122907349Y-81532783D01*
X122912735Y-81532788D01*
G37*
G36*
X125057619Y-82699910D02*
G01*
X125059973Y-82694056D01*
X125062454Y-82688385D01*
X125065063Y-82682897D01*
X125067799Y-82677593D01*
X125070663Y-82672471D01*
X125073655Y-82667533D01*
X125076774Y-82662778D01*
X125080021Y-82658206D01*
X125083395Y-82653817D01*
X125086897Y-82649612D01*
X125090527Y-82645589D01*
X125094284Y-82641750D01*
X125098169Y-82638094D01*
X125102182Y-82634621D01*
X125106322Y-82631332D01*
X125110589Y-82628225D01*
X125114985Y-82625302D01*
X125119508Y-82622562D01*
X125124158Y-82620005D01*
X125128936Y-82617631D01*
X125133842Y-82615441D01*
X125138875Y-82613433D01*
X125144036Y-82611609D01*
X125149325Y-82609968D01*
X125154741Y-82608510D01*
X125160285Y-82607236D01*
X125165956Y-82606144D01*
X125171755Y-82605236D01*
X125177682Y-82604511D01*
X125183736Y-82603969D01*
X125189918Y-82603610D01*
X125196227Y-82603435D01*
X125204758Y-82603872D01*
X125213040Y-82604663D01*
X125221073Y-82605810D01*
X125228856Y-82607312D01*
X125236391Y-82609169D01*
X125243677Y-82611380D01*
X125250714Y-82613947D01*
X125257501Y-82616868D01*
X125264040Y-82620144D01*
X125270330Y-82623775D01*
X125276371Y-82627762D01*
X125282162Y-82632103D01*
X125287705Y-82636798D01*
X125292999Y-82641849D01*
X125298043Y-82647255D01*
X125302839Y-82653016D01*
X125306832Y-82658020D01*
X125310567Y-82663203D01*
X125314045Y-82668565D01*
X125317265Y-82674105D01*
X125320227Y-82679823D01*
X125322932Y-82685720D01*
X125325379Y-82691795D01*
X125327569Y-82698048D01*
X125329501Y-82704480D01*
X125331175Y-82711090D01*
X125332592Y-82717879D01*
X125333751Y-82724846D01*
X125334653Y-82731992D01*
X125335297Y-82739316D01*
X125335683Y-82746818D01*
X125335812Y-82754499D01*
X125335812Y-82949038D01*
X124835603Y-82949038D01*
X124835603Y-82873445D01*
X125047361Y-82873445D01*
X125116238Y-82873445D01*
X125266203Y-82873445D01*
X125266203Y-82755231D01*
X125266068Y-82748581D01*
X125265666Y-82742231D01*
X125264995Y-82736182D01*
X125264056Y-82730433D01*
X125262848Y-82724985D01*
X125261373Y-82719837D01*
X125259628Y-82714990D01*
X125257616Y-82710443D01*
X125254515Y-82704849D01*
X125250937Y-82699788D01*
X125247499Y-82695461D01*
X125243687Y-82691545D01*
X125239502Y-82688042D01*
X125234943Y-82684951D01*
X125230011Y-82682272D01*
X125224705Y-82680005D01*
X125219026Y-82678150D01*
X125212973Y-82676707D01*
X125206547Y-82675677D01*
X125199747Y-82675059D01*
X125195006Y-82674876D01*
X125189050Y-82675059D01*
X125183272Y-82675610D01*
X125177673Y-82676527D01*
X125172251Y-82677812D01*
X125167008Y-82679464D01*
X125161943Y-82681483D01*
X125157056Y-82683869D01*
X125152347Y-82686622D01*
X125147817Y-82689742D01*
X125143464Y-82693230D01*
X125140662Y-82695758D01*
X125136421Y-82699906D01*
X125132585Y-82704428D01*
X125129151Y-82709323D01*
X125126122Y-82714592D01*
X125123496Y-82720234D01*
X125121273Y-82726250D01*
X125119454Y-82732639D01*
X125118039Y-82739401D01*
X125117027Y-82746538D01*
X125116577Y-82751503D01*
X125116306Y-82756634D01*
X125116238Y-82759261D01*
X125116238Y-82873445D01*
X125047361Y-82873445D01*
X125047361Y-82777091D01*
X124835603Y-82674265D01*
X124835603Y-82584384D01*
X125057619Y-82699910D01*
G37*
G36*
X124954427Y-82515996D02*
G01*
X124897884Y-82565455D01*
X124893572Y-82560448D01*
X124889396Y-82555380D01*
X124885357Y-82550252D01*
X124881455Y-82545062D01*
X124877690Y-82539812D01*
X124874062Y-82534501D01*
X124870571Y-82529129D01*
X124867217Y-82523697D01*
X124863999Y-82518203D01*
X124860919Y-82512649D01*
X124857975Y-82507034D01*
X124855169Y-82501358D01*
X124852499Y-82495621D01*
X124849966Y-82489824D01*
X124847570Y-82483966D01*
X124845311Y-82478046D01*
X124843189Y-82472066D01*
X124841204Y-82466026D01*
X124839356Y-82459924D01*
X124837644Y-82453761D01*
X124836070Y-82447538D01*
X124834632Y-82441254D01*
X124833332Y-82434909D01*
X124832168Y-82428503D01*
X124831141Y-82422037D01*
X124830251Y-82415509D01*
X124829498Y-82408921D01*
X124828882Y-82402272D01*
X124828403Y-82395562D01*
X124828061Y-82388791D01*
X124827855Y-82381960D01*
X124827787Y-82375067D01*
X124828054Y-82364530D01*
X124828596Y-82354320D01*
X124829412Y-82344436D01*
X124830504Y-82334880D01*
X124831870Y-82325651D01*
X124833511Y-82316748D01*
X124835427Y-82308173D01*
X124837618Y-82299925D01*
X124840083Y-82292003D01*
X124842823Y-82284409D01*
X124845838Y-82277142D01*
X124849127Y-82270201D01*
X124852692Y-82263588D01*
X124856531Y-82257302D01*
X124860645Y-82251343D01*
X124865034Y-82245710D01*
X124869697Y-82240405D01*
X124874636Y-82235427D01*
X124879849Y-82230776D01*
X124885336Y-82226451D01*
X124891099Y-82222454D01*
X124897136Y-82218784D01*
X124903449Y-82215441D01*
X124910036Y-82212425D01*
X124916897Y-82209735D01*
X124924034Y-82207373D01*
X124931445Y-82205338D01*
X124939131Y-82203630D01*
X124947092Y-82202249D01*
X124955327Y-82201195D01*
X124963838Y-82200468D01*
X124972623Y-82200067D01*
X124979182Y-82200197D01*
X124985640Y-82200586D01*
X124991997Y-82201235D01*
X124998253Y-82202144D01*
X125004408Y-82203311D01*
X125010461Y-82204739D01*
X125016414Y-82206425D01*
X125022265Y-82208372D01*
X125028015Y-82210578D01*
X125033664Y-82213043D01*
X125039212Y-82215768D01*
X125044659Y-82218752D01*
X125050005Y-82221996D01*
X125055249Y-82225499D01*
X125060393Y-82229262D01*
X125065435Y-82233285D01*
X125070397Y-82237610D01*
X125075115Y-82242222D01*
X125079590Y-82247120D01*
X125083822Y-82252305D01*
X125087810Y-82257776D01*
X125091556Y-82263532D01*
X125095058Y-82269576D01*
X125098316Y-82275905D01*
X125101332Y-82282520D01*
X125104104Y-82289422D01*
X125106632Y-82296610D01*
X125108918Y-82304084D01*
X125110960Y-82311845D01*
X125112759Y-82319891D01*
X125114315Y-82328224D01*
X125115627Y-82336843D01*
X125116463Y-82343375D01*
X125117278Y-82349642D01*
X125118072Y-82355645D01*
X125118844Y-82361384D01*
X125119595Y-82366859D01*
X125120324Y-82372070D01*
X125121032Y-82377017D01*
X125121942Y-82383203D01*
X125122814Y-82388918D01*
X125123443Y-82392897D01*
X125124822Y-82399657D01*
X125126394Y-82406061D01*
X125128159Y-82412108D01*
X125130117Y-82417799D01*
X125132269Y-82423133D01*
X125134614Y-82428111D01*
X125137152Y-82432733D01*
X125139883Y-82436998D01*
X125143826Y-82442131D01*
X125148111Y-82446631D01*
X125152513Y-82450552D01*
X125157049Y-82453950D01*
X125161718Y-82456826D01*
X125166521Y-82459179D01*
X125171457Y-82461009D01*
X125176527Y-82462316D01*
X125181731Y-82463100D01*
X125187068Y-82463361D01*
X125193621Y-82463018D01*
X125199864Y-82462262D01*
X125205794Y-82461094D01*
X125211414Y-82459514D01*
X125216722Y-82457522D01*
X125221719Y-82455118D01*
X125226405Y-82452302D01*
X125230780Y-82449073D01*
X125234843Y-82445432D01*
X125238595Y-82441379D01*
X125240924Y-82438448D01*
X125244044Y-82433974D01*
X125246858Y-82429298D01*
X125249365Y-82424420D01*
X125251565Y-82419340D01*
X125253458Y-82414059D01*
X125255044Y-82408575D01*
X125256323Y-82402890D01*
X125257295Y-82397004D01*
X125257961Y-82390915D01*
X125258319Y-82384624D01*
X125258387Y-82380319D01*
X125258081Y-82371937D01*
X125257498Y-82363643D01*
X125256638Y-82355439D01*
X125255502Y-82347323D01*
X125254089Y-82339296D01*
X125252399Y-82331358D01*
X125250433Y-82323508D01*
X125248190Y-82315747D01*
X125245670Y-82308075D01*
X125242874Y-82300491D01*
X125239801Y-82292997D01*
X125236451Y-82285591D01*
X125232824Y-82278273D01*
X125228921Y-82271045D01*
X125224741Y-82263905D01*
X125220285Y-82256854D01*
X125283422Y-82214844D01*
X125286519Y-82219165D01*
X125289523Y-82223533D01*
X125292432Y-82227948D01*
X125295247Y-82232411D01*
X125297967Y-82236920D01*
X125300594Y-82241477D01*
X125303126Y-82246081D01*
X125305564Y-82250733D01*
X125307908Y-82255431D01*
X125310157Y-82260177D01*
X125312313Y-82264970D01*
X125314374Y-82269810D01*
X125316341Y-82274698D01*
X125318213Y-82279632D01*
X125319992Y-82284614D01*
X125321676Y-82289644D01*
X125323266Y-82294720D01*
X125324762Y-82299844D01*
X125326164Y-82305014D01*
X125327471Y-82310232D01*
X125328685Y-82315498D01*
X125329804Y-82320810D01*
X125330828Y-82326170D01*
X125331759Y-82331577D01*
X125332595Y-82337031D01*
X125333337Y-82342533D01*
X125333985Y-82348081D01*
X125334539Y-82353677D01*
X125334999Y-82359320D01*
X125335364Y-82365011D01*
X125335635Y-82370748D01*
X125335812Y-82376533D01*
X125335569Y-82386044D01*
X125335022Y-82395280D01*
X125334172Y-82404244D01*
X125333018Y-82412933D01*
X125331561Y-82421348D01*
X125329801Y-82429490D01*
X125327738Y-82437358D01*
X125325370Y-82444951D01*
X125322700Y-82452272D01*
X125319726Y-82459318D01*
X125316449Y-82466090D01*
X125312868Y-82472589D01*
X125308984Y-82478814D01*
X125304797Y-82484765D01*
X125300306Y-82490442D01*
X125295512Y-82495846D01*
X125290421Y-82501095D01*
X125285133Y-82506006D01*
X125279648Y-82510579D01*
X125273965Y-82514813D01*
X125268085Y-82518708D01*
X125262007Y-82522264D01*
X125255731Y-82525481D01*
X125249258Y-82528360D01*
X125242588Y-82530901D01*
X125235720Y-82533102D01*
X125228655Y-82534965D01*
X125221392Y-82536489D01*
X125213931Y-82537675D01*
X125206273Y-82538521D01*
X125198418Y-82539029D01*
X125190365Y-82539199D01*
X125183637Y-82539064D01*
X125177037Y-82538659D01*
X125170566Y-82537984D01*
X125164224Y-82537039D01*
X125158010Y-82535824D01*
X125151926Y-82534339D01*
X125145970Y-82532584D01*
X125140143Y-82530559D01*
X125134445Y-82528264D01*
X125128875Y-82525699D01*
X125123435Y-82522863D01*
X125118123Y-82519758D01*
X125112940Y-82516383D01*
X125107886Y-82512738D01*
X125102960Y-82508823D01*
X125098164Y-82504638D01*
X125093656Y-82500335D01*
X125089354Y-82495792D01*
X125085256Y-82491008D01*
X125081364Y-82485984D01*
X125077677Y-82480720D01*
X125074195Y-82475215D01*
X125070919Y-82469469D01*
X125067847Y-82463483D01*
X125064980Y-82457257D01*
X125062319Y-82450790D01*
X125059863Y-82444083D01*
X125057612Y-82437136D01*
X125055566Y-82429948D01*
X125053725Y-82422519D01*
X125052089Y-82414850D01*
X125050658Y-82406941D01*
X125049706Y-82400261D01*
X125048774Y-82393683D01*
X125047860Y-82387209D01*
X125046966Y-82380838D01*
X125046091Y-82374569D01*
X125045236Y-82368404D01*
X125044400Y-82362342D01*
X125043583Y-82356383D01*
X125042785Y-82350527D01*
X125042007Y-82344774D01*
X125041499Y-82340996D01*
X125039907Y-82333042D01*
X125037969Y-82325608D01*
X125035686Y-82318693D01*
X125033058Y-82312297D01*
X125030084Y-82306420D01*
X125026765Y-82301062D01*
X125023100Y-82296223D01*
X125019090Y-82291903D01*
X125014735Y-82288102D01*
X125010034Y-82284820D01*
X125004988Y-82282057D01*
X124999596Y-82279813D01*
X124993859Y-82278088D01*
X124987777Y-82276882D01*
X124981350Y-82276195D01*
X124974577Y-82276027D01*
X124966334Y-82276569D01*
X124958613Y-82277859D01*
X124951413Y-82279897D01*
X124944733Y-82282683D01*
X124938575Y-82286217D01*
X124932937Y-82290498D01*
X124927820Y-82295528D01*
X124923225Y-82301306D01*
X124919150Y-82307832D01*
X124915596Y-82315106D01*
X124912563Y-82323128D01*
X124910051Y-82331898D01*
X124908060Y-82341415D01*
X124907259Y-82346455D01*
X124906589Y-82351681D01*
X124906050Y-82357095D01*
X124905640Y-82362695D01*
X124905361Y-82368482D01*
X124905212Y-82374457D01*
X124905304Y-82379564D01*
X124905490Y-82384627D01*
X124905769Y-82389646D01*
X124906141Y-82394620D01*
X124906606Y-82399551D01*
X124907165Y-82404437D01*
X124907817Y-82409279D01*
X124909401Y-82418832D01*
X124911358Y-82428207D01*
X124913688Y-82437407D01*
X124916390Y-82446429D01*
X124919466Y-82455275D01*
X124922915Y-82463945D01*
X124926737Y-82472438D01*
X124930932Y-82480755D01*
X124935501Y-82488895D01*
X124940442Y-82496859D01*
X124945756Y-82504646D01*
X124951443Y-82512256D01*
X124954427Y-82515996D01*
G37*
G36*
X125040223Y-71563512D02*
G01*
X125042577Y-71557658D01*
X125045058Y-71551987D01*
X125047667Y-71546499D01*
X125050403Y-71541195D01*
X125053267Y-71536073D01*
X125056259Y-71531135D01*
X125059378Y-71526380D01*
X125062625Y-71521808D01*
X125065999Y-71517419D01*
X125069501Y-71513214D01*
X125073131Y-71509191D01*
X125076888Y-71505352D01*
X125080773Y-71501696D01*
X125084786Y-71498223D01*
X125088926Y-71494934D01*
X125093193Y-71491827D01*
X125097589Y-71488904D01*
X125102112Y-71486164D01*
X125106762Y-71483607D01*
X125111540Y-71481233D01*
X125116446Y-71479043D01*
X125121479Y-71477035D01*
X125126640Y-71475211D01*
X125131929Y-71473570D01*
X125137345Y-71472112D01*
X125142889Y-71470838D01*
X125148560Y-71469746D01*
X125154359Y-71468838D01*
X125160286Y-71468113D01*
X125166340Y-71467571D01*
X125172522Y-71467212D01*
X125178831Y-71467037D01*
X125187362Y-71467474D01*
X125195644Y-71468265D01*
X125203677Y-71469412D01*
X125211460Y-71470914D01*
X125218995Y-71472771D01*
X125226281Y-71474982D01*
X125233318Y-71477549D01*
X125240105Y-71480470D01*
X125246644Y-71483746D01*
X125252934Y-71487377D01*
X125258975Y-71491364D01*
X125264766Y-71495705D01*
X125270309Y-71500400D01*
X125275603Y-71505451D01*
X125280647Y-71510857D01*
X125285443Y-71516618D01*
X125289436Y-71521622D01*
X125293171Y-71526805D01*
X125296649Y-71532167D01*
X125299869Y-71537707D01*
X125302831Y-71543425D01*
X125305536Y-71549322D01*
X125307983Y-71555397D01*
X125310173Y-71561650D01*
X125312105Y-71568082D01*
X125313779Y-71574692D01*
X125315196Y-71581481D01*
X125316355Y-71588448D01*
X125317257Y-71595594D01*
X125317901Y-71602918D01*
X125318287Y-71610420D01*
X125318416Y-71618101D01*
X125318416Y-71812640D01*
X124818207Y-71812640D01*
X124818207Y-71737047D01*
X125029965Y-71737047D01*
X125098842Y-71737047D01*
X125248807Y-71737047D01*
X125248807Y-71618833D01*
X125248672Y-71612183D01*
X125248270Y-71605833D01*
X125247599Y-71599784D01*
X125246660Y-71594035D01*
X125245452Y-71588587D01*
X125243977Y-71583439D01*
X125242232Y-71578592D01*
X125240220Y-71574045D01*
X125237119Y-71568451D01*
X125233541Y-71563390D01*
X125230103Y-71559063D01*
X125226291Y-71555147D01*
X125222106Y-71551644D01*
X125217547Y-71548553D01*
X125212615Y-71545874D01*
X125207309Y-71543607D01*
X125201630Y-71541752D01*
X125195577Y-71540309D01*
X125189151Y-71539279D01*
X125182351Y-71538661D01*
X125177610Y-71538478D01*
X125171654Y-71538661D01*
X125165876Y-71539212D01*
X125160277Y-71540129D01*
X125154855Y-71541414D01*
X125149612Y-71543066D01*
X125144547Y-71545085D01*
X125139660Y-71547471D01*
X125134951Y-71550224D01*
X125130421Y-71553344D01*
X125126068Y-71556832D01*
X125123266Y-71559360D01*
X125119025Y-71563508D01*
X125115189Y-71568030D01*
X125111755Y-71572925D01*
X125108726Y-71578194D01*
X125106100Y-71583836D01*
X125103877Y-71589852D01*
X125102058Y-71596241D01*
X125100643Y-71603003D01*
X125099631Y-71610140D01*
X125099181Y-71615105D01*
X125098910Y-71620236D01*
X125098842Y-71622863D01*
X125098842Y-71737047D01*
X125029965Y-71737047D01*
X125029965Y-71640693D01*
X124818207Y-71537867D01*
X124818207Y-71447986D01*
X125040223Y-71563512D01*
G37*
G36*
X125037099Y-71117292D02*
G01*
X125045463Y-71117874D01*
X125053593Y-71118784D01*
X125061488Y-71120021D01*
X125069148Y-71121585D01*
X125076573Y-71123477D01*
X125083764Y-71125695D01*
X125090720Y-71128241D01*
X125097442Y-71131114D01*
X125103929Y-71134315D01*
X125110181Y-71137842D01*
X125116198Y-71141697D01*
X125121981Y-71145880D01*
X125127529Y-71150389D01*
X125132842Y-71155226D01*
X125137920Y-71160390D01*
X125142655Y-71165729D01*
X125147091Y-71171215D01*
X125151227Y-71176846D01*
X125155063Y-71182623D01*
X125158600Y-71188547D01*
X125161837Y-71194616D01*
X125164775Y-71200831D01*
X125167413Y-71207193D01*
X125169751Y-71213700D01*
X125171790Y-71220353D01*
X125173529Y-71227152D01*
X125174969Y-71234098D01*
X125176109Y-71241189D01*
X125176950Y-71248426D01*
X125177491Y-71255809D01*
X125177732Y-71263338D01*
X125177587Y-71269669D01*
X125177152Y-71276023D01*
X125176427Y-71282400D01*
X125175412Y-71288800D01*
X125174460Y-71293615D01*
X125173345Y-71298443D01*
X125172067Y-71303284D01*
X125170626Y-71308137D01*
X125169022Y-71313004D01*
X125168451Y-71314629D01*
X125166586Y-71319508D01*
X125164517Y-71324299D01*
X125162244Y-71329002D01*
X125159767Y-71333617D01*
X125157086Y-71338144D01*
X125154201Y-71342583D01*
X125151112Y-71346934D01*
X125147820Y-71351197D01*
X125144323Y-71355372D01*
X125140623Y-71359459D01*
X125138043Y-71362134D01*
X125134017Y-71365983D01*
X125129725Y-71369699D01*
X125125167Y-71373282D01*
X125120343Y-71376732D01*
X125115252Y-71380048D01*
X125109895Y-71383232D01*
X125104273Y-71386282D01*
X125098384Y-71389199D01*
X125092228Y-71391984D01*
X125085807Y-71394635D01*
X125081378Y-71396328D01*
X125074603Y-71398707D01*
X125069911Y-71400163D01*
X125065078Y-71401515D01*
X125060106Y-71402763D01*
X125054993Y-71403907D01*
X125049740Y-71404947D01*
X125044346Y-71405883D01*
X125038813Y-71406715D01*
X125033139Y-71407443D01*
X125027325Y-71408067D01*
X125021370Y-71408587D01*
X125015276Y-71409003D01*
X125009041Y-71409314D01*
X125002666Y-71409522D01*
X124996150Y-71409626D01*
X124992840Y-71409639D01*
X124986006Y-71409579D01*
X124979334Y-71409399D01*
X124972825Y-71409099D01*
X124966477Y-71408678D01*
X124960292Y-71408137D01*
X124954269Y-71407476D01*
X124948408Y-71406694D01*
X124942709Y-71405793D01*
X124937173Y-71404771D01*
X124931799Y-71403629D01*
X124926586Y-71402367D01*
X124921536Y-71400984D01*
X124916649Y-71399481D01*
X124911923Y-71397859D01*
X124907360Y-71396115D01*
X124902959Y-71394252D01*
X124896366Y-71391545D01*
X124890053Y-71388689D01*
X124884019Y-71385686D01*
X124878264Y-71382534D01*
X124872787Y-71379234D01*
X124867590Y-71375787D01*
X124862672Y-71372191D01*
X124858033Y-71368446D01*
X124853673Y-71364554D01*
X124849593Y-71360514D01*
X124847027Y-71357738D01*
X124843517Y-71353286D01*
X124840221Y-71348722D01*
X124837140Y-71344046D01*
X124834273Y-71339259D01*
X124831621Y-71334361D01*
X124830785Y-71332703D01*
X124828053Y-71327960D01*
X124825536Y-71323166D01*
X124823233Y-71318320D01*
X124821145Y-71313423D01*
X124819272Y-71308474D01*
X124818695Y-71306813D01*
X124817211Y-71301788D01*
X124815873Y-71296741D01*
X124814681Y-71291673D01*
X124813635Y-71286583D01*
X124812734Y-71281472D01*
X124811980Y-71276339D01*
X124811372Y-71271185D01*
X124810910Y-71266009D01*
X124810593Y-71260812D01*
X124810423Y-71255594D01*
X124810391Y-71252103D01*
X124810552Y-71242988D01*
X124811190Y-71234023D01*
X124812304Y-71225208D01*
X124813894Y-71216543D01*
X124815960Y-71208027D01*
X124818502Y-71199661D01*
X124821520Y-71191445D01*
X124825015Y-71183379D01*
X124828985Y-71175463D01*
X124833432Y-71167696D01*
X124838354Y-71160079D01*
X124843753Y-71152612D01*
X124849627Y-71145295D01*
X124855978Y-71138127D01*
X124862805Y-71131110D01*
X124866397Y-71127657D01*
X124870108Y-71124242D01*
X124914560Y-71175899D01*
X124910375Y-71180195D01*
X124906460Y-71184564D01*
X124902815Y-71189007D01*
X124899440Y-71193523D01*
X124896335Y-71198112D01*
X124893500Y-71202775D01*
X124890935Y-71207512D01*
X124888640Y-71212322D01*
X124886615Y-71217205D01*
X124884860Y-71222162D01*
X124883375Y-71227192D01*
X124882160Y-71232296D01*
X124881215Y-71237474D01*
X124880540Y-71242724D01*
X124880135Y-71248048D01*
X124880000Y-71253446D01*
X124880199Y-71260303D01*
X124880794Y-71266907D01*
X124881787Y-71273258D01*
X124883177Y-71279355D01*
X124884964Y-71285199D01*
X124887148Y-71290790D01*
X124889730Y-71296127D01*
X124892708Y-71301211D01*
X124896084Y-71306042D01*
X124899857Y-71310619D01*
X124902592Y-71313530D01*
X124906918Y-71317938D01*
X124911607Y-71321913D01*
X124916658Y-71325455D01*
X124922073Y-71328562D01*
X124927850Y-71331236D01*
X124933990Y-71333477D01*
X124940492Y-71335284D01*
X124947358Y-71336657D01*
X124954586Y-71337596D01*
X124959606Y-71337982D01*
X124964788Y-71338174D01*
X124967439Y-71338198D01*
X124967439Y-71188478D01*
X125028500Y-71188478D01*
X125028500Y-71338198D01*
X125033400Y-71337868D01*
X125040467Y-71337108D01*
X125047192Y-71336031D01*
X125053576Y-71334635D01*
X125059618Y-71332922D01*
X125065319Y-71330892D01*
X125070679Y-71328543D01*
X125075698Y-71325877D01*
X125080375Y-71322893D01*
X125084711Y-71319592D01*
X125088705Y-71315972D01*
X125092176Y-71312024D01*
X125095304Y-71307871D01*
X125098092Y-71303514D01*
X125100538Y-71298954D01*
X125102643Y-71294189D01*
X125104406Y-71289221D01*
X125105828Y-71284048D01*
X125106909Y-71278672D01*
X125107649Y-71273092D01*
X125108047Y-71267307D01*
X125108123Y-71263338D01*
X125107952Y-71257418D01*
X125107440Y-71251702D01*
X125106587Y-71246189D01*
X125105392Y-71240881D01*
X125103856Y-71235777D01*
X125101979Y-71230876D01*
X125099760Y-71226180D01*
X125097201Y-71221687D01*
X125094299Y-71217398D01*
X125091057Y-71213314D01*
X125088705Y-71210704D01*
X125084711Y-71206960D01*
X125080375Y-71203560D01*
X125075698Y-71200503D01*
X125070679Y-71197789D01*
X125065319Y-71195419D01*
X125059618Y-71193393D01*
X125053576Y-71191710D01*
X125047192Y-71190370D01*
X125040467Y-71189374D01*
X125033400Y-71188722D01*
X125028500Y-71188478D01*
X124967439Y-71188478D01*
X124967439Y-71117037D01*
X125028500Y-71117037D01*
X125037099Y-71117292D01*
G37*
G36*
X124927627Y-71031796D02*
G01*
X124876458Y-71081743D01*
X124872394Y-71077391D01*
X124868458Y-71073005D01*
X124864651Y-71068584D01*
X124860974Y-71064129D01*
X124857425Y-71059641D01*
X124854006Y-71055118D01*
X124850715Y-71050561D01*
X124847554Y-71045970D01*
X124844521Y-71041344D01*
X124841618Y-71036685D01*
X124838844Y-71031991D01*
X124836198Y-71027264D01*
X124833682Y-71022502D01*
X124831295Y-71017707D01*
X124829037Y-71012877D01*
X124826908Y-71008013D01*
X124824908Y-71003115D01*
X124823036Y-70998182D01*
X124821294Y-70993216D01*
X124819681Y-70988216D01*
X124818198Y-70983181D01*
X124816843Y-70978112D01*
X124815617Y-70973010D01*
X124814520Y-70967873D01*
X124813552Y-70962702D01*
X124812713Y-70957497D01*
X124812004Y-70952258D01*
X124811423Y-70946984D01*
X124810971Y-70941677D01*
X124810649Y-70936335D01*
X124810455Y-70930960D01*
X124810391Y-70925550D01*
X124810592Y-70917641D01*
X124811013Y-70909911D01*
X124811653Y-70902360D01*
X124812513Y-70894989D01*
X124813592Y-70887797D01*
X124814890Y-70880785D01*
X124816408Y-70873952D01*
X124818145Y-70867298D01*
X124820102Y-70860824D01*
X124822278Y-70854529D01*
X124824674Y-70848413D01*
X124827289Y-70842477D01*
X124830124Y-70836720D01*
X124833178Y-70831143D01*
X124836451Y-70825745D01*
X124839944Y-70820526D01*
X124843563Y-70815524D01*
X124847367Y-70810840D01*
X124851356Y-70806472D01*
X124855530Y-70802421D01*
X124859889Y-70798687D01*
X124864433Y-70795269D01*
X124869163Y-70792169D01*
X124874077Y-70789385D01*
X124879177Y-70786918D01*
X124884461Y-70784767D01*
X124889931Y-70782933D01*
X124895586Y-70781416D01*
X124901426Y-70780216D01*
X124907451Y-70779333D01*
X124913661Y-70778766D01*
X124920056Y-70778516D01*
X124925537Y-70778606D01*
X124930898Y-70778875D01*
X124936139Y-70779323D01*
X124941259Y-70779951D01*
X124946259Y-70780758D01*
X124951139Y-70781745D01*
X124955899Y-70782910D01*
X124962814Y-70784996D01*
X124969458Y-70787484D01*
X124975831Y-70790377D01*
X124981934Y-70793672D01*
X124987767Y-70797372D01*
X124993329Y-70801475D01*
X124998647Y-70806349D01*
X125003518Y-70811766D01*
X125006518Y-70815679D01*
X125009319Y-70819834D01*
X125011922Y-70824229D01*
X125014326Y-70828867D01*
X125016532Y-70833745D01*
X125018539Y-70838865D01*
X125020348Y-70844227D01*
X125021958Y-70849830D01*
X125023370Y-70855674D01*
X125024584Y-70861759D01*
X125025599Y-70868086D01*
X125026416Y-70874655D01*
X125027034Y-70881464D01*
X125031431Y-70940205D01*
X125032243Y-70946462D01*
X125033278Y-70952226D01*
X125034533Y-70957498D01*
X125036010Y-70962278D01*
X125038167Y-70967561D01*
X125040671Y-70972074D01*
X125044131Y-70976475D01*
X125047623Y-70980272D01*
X125051957Y-70983648D01*
X125056572Y-70985891D01*
X125061468Y-70987001D01*
X125065136Y-70987099D01*
X125070881Y-70986756D01*
X125076287Y-70985728D01*
X125081352Y-70984014D01*
X125086078Y-70981613D01*
X125090464Y-70978528D01*
X125094510Y-70974756D01*
X125096033Y-70973055D01*
X125099516Y-70968404D01*
X125101877Y-70963974D01*
X125103861Y-70958914D01*
X125105466Y-70953225D01*
X125106694Y-70946906D01*
X125107367Y-70941754D01*
X125107828Y-70936248D01*
X125108076Y-70930387D01*
X125108123Y-70926283D01*
X125108054Y-70920825D01*
X125107848Y-70915487D01*
X125107505Y-70910269D01*
X125107024Y-70905171D01*
X125106405Y-70900194D01*
X125105650Y-70895337D01*
X125104429Y-70889047D01*
X125102963Y-70882972D01*
X125101253Y-70877110D01*
X125100307Y-70874259D01*
X125098036Y-70868586D01*
X125095621Y-70862986D01*
X125093060Y-70857458D01*
X125090354Y-70852003D01*
X125087503Y-70846620D01*
X125084508Y-70841309D01*
X125081367Y-70836071D01*
X125078081Y-70830906D01*
X125129494Y-70786820D01*
X125133605Y-70791756D01*
X125137557Y-70796811D01*
X125141350Y-70801983D01*
X125144984Y-70807274D01*
X125148460Y-70812682D01*
X125151776Y-70818209D01*
X125154934Y-70823853D01*
X125157933Y-70829616D01*
X125160773Y-70835497D01*
X125163454Y-70841496D01*
X125165153Y-70845561D01*
X125166996Y-70850963D01*
X125168707Y-70856485D01*
X125170288Y-70862126D01*
X125171737Y-70867886D01*
X125173054Y-70873765D01*
X125174241Y-70879764D01*
X125174679Y-70882197D01*
X125175394Y-70887133D01*
X125176015Y-70892234D01*
X125176539Y-70897498D01*
X125176969Y-70902927D01*
X125177303Y-70908520D01*
X125177541Y-70914277D01*
X125177684Y-70920198D01*
X125177732Y-70926283D01*
X125177625Y-70933289D01*
X125177303Y-70940142D01*
X125176766Y-70946841D01*
X125176015Y-70953386D01*
X125175049Y-70959778D01*
X125173868Y-70966016D01*
X125172473Y-70972101D01*
X125170863Y-70978032D01*
X125169038Y-70983809D01*
X125166999Y-70989433D01*
X125164745Y-70994903D01*
X125162276Y-71000220D01*
X125159593Y-71005383D01*
X125156695Y-71010392D01*
X125153582Y-71015248D01*
X125150255Y-71019950D01*
X125146713Y-71024537D01*
X125142956Y-71028834D01*
X125138985Y-71032841D01*
X125134799Y-71036559D01*
X125130398Y-71039986D01*
X125125783Y-71043123D01*
X125120953Y-71045970D01*
X125115908Y-71048526D01*
X125110649Y-71050793D01*
X125105175Y-71052770D01*
X125099486Y-71054457D01*
X125093583Y-71055854D01*
X125087465Y-71056960D01*
X125081132Y-71057777D01*
X125074585Y-71058304D01*
X125067823Y-71058540D01*
X125062193Y-71058340D01*
X125056721Y-71057920D01*
X125051408Y-71057282D01*
X125046253Y-71056426D01*
X125041257Y-71055351D01*
X125036418Y-71054058D01*
X125031739Y-71052546D01*
X125025016Y-71049869D01*
X125018650Y-71046700D01*
X125012640Y-71043040D01*
X125006986Y-71038888D01*
X125001689Y-71034244D01*
X124996748Y-71029109D01*
X124992042Y-71023717D01*
X124987725Y-71018029D01*
X124983796Y-71012045D01*
X124980256Y-71005765D01*
X124977104Y-70999188D01*
X124975219Y-70994639D01*
X124973506Y-70989958D01*
X124971967Y-70985146D01*
X124970599Y-70980202D01*
X124969405Y-70975126D01*
X124968383Y-70969919D01*
X124967534Y-70964580D01*
X124966857Y-70959109D01*
X124966584Y-70956325D01*
X124961089Y-70893432D01*
X124960684Y-70887405D01*
X124959927Y-70881766D01*
X124958818Y-70876515D01*
X124957358Y-70871651D01*
X124955141Y-70866326D01*
X124952418Y-70861559D01*
X124949171Y-70857616D01*
X124945108Y-70854489D01*
X124940229Y-70852178D01*
X124934535Y-70850682D01*
X124929166Y-70850059D01*
X124925673Y-70849957D01*
X124920418Y-70850262D01*
X124915461Y-70851178D01*
X124910801Y-70852705D01*
X124905395Y-70855472D01*
X124901405Y-70858372D01*
X124897713Y-70861883D01*
X124894318Y-70866005D01*
X124891968Y-70869496D01*
X124889163Y-70874528D01*
X124886732Y-70879915D01*
X124884675Y-70885657D01*
X124882992Y-70891753D01*
X124881975Y-70896558D01*
X124881169Y-70901563D01*
X124880573Y-70906768D01*
X124880187Y-70912172D01*
X124880012Y-70917776D01*
X124880000Y-70919688D01*
X124880186Y-70928183D01*
X124880744Y-70936480D01*
X124881674Y-70944578D01*
X124882977Y-70952478D01*
X124884651Y-70960179D01*
X124886698Y-70967682D01*
X124889116Y-70974986D01*
X124891907Y-70982092D01*
X124895070Y-70989000D01*
X124898604Y-70995709D01*
X124902511Y-71002220D01*
X124906790Y-71008532D01*
X124911441Y-71014645D01*
X124916465Y-71020561D01*
X124921860Y-71026277D01*
X124927627Y-71031796D01*
G37*
G36*
X125037099Y-70431946D02*
G01*
X125045463Y-70432529D01*
X125053593Y-70433438D01*
X125061488Y-70434675D01*
X125069148Y-70436240D01*
X125076573Y-70438131D01*
X125083764Y-70440350D01*
X125090720Y-70442896D01*
X125097442Y-70445769D01*
X125103929Y-70448969D01*
X125110181Y-70452497D01*
X125116198Y-70456352D01*
X125121981Y-70460534D01*
X125127529Y-70465044D01*
X125132842Y-70469880D01*
X125137920Y-70475044D01*
X125142655Y-70480384D01*
X125147091Y-70485869D01*
X125151227Y-70491501D01*
X125155063Y-70497278D01*
X125158600Y-70503201D01*
X125161837Y-70509271D01*
X125164775Y-70515486D01*
X125167413Y-70521847D01*
X125169751Y-70528355D01*
X125171790Y-70535008D01*
X125173529Y-70541807D01*
X125174969Y-70548752D01*
X125176109Y-70555843D01*
X125176950Y-70563080D01*
X125177491Y-70570464D01*
X125177732Y-70577993D01*
X125177587Y-70584324D01*
X125177152Y-70590678D01*
X125176427Y-70597055D01*
X125175412Y-70603455D01*
X125174460Y-70608270D01*
X125173345Y-70613098D01*
X125172067Y-70617938D01*
X125170626Y-70622792D01*
X125169022Y-70627659D01*
X125168451Y-70629284D01*
X125166586Y-70634163D01*
X125164517Y-70638954D01*
X125162244Y-70643657D01*
X125159767Y-70648272D01*
X125157086Y-70652799D01*
X125154201Y-70657237D01*
X125151112Y-70661588D01*
X125147820Y-70665851D01*
X125144323Y-70670026D01*
X125140623Y-70674113D01*
X125138043Y-70676789D01*
X125134017Y-70680638D01*
X125129725Y-70684354D01*
X125125167Y-70687936D01*
X125120343Y-70691386D01*
X125115252Y-70694703D01*
X125109895Y-70697886D01*
X125104273Y-70700937D01*
X125098384Y-70703854D01*
X125092228Y-70706638D01*
X125085807Y-70709289D01*
X125081378Y-70710983D01*
X125074603Y-70713362D01*
X125069911Y-70714818D01*
X125065078Y-70716170D01*
X125060106Y-70717417D01*
X125054993Y-70718561D01*
X125049740Y-70719601D01*
X125044346Y-70720537D01*
X125038813Y-70721369D01*
X125033139Y-70722097D01*
X125027325Y-70722721D01*
X125021370Y-70723241D01*
X125015276Y-70723657D01*
X125009041Y-70723969D01*
X125002666Y-70724177D01*
X124996150Y-70724281D01*
X124992840Y-70724294D01*
X124986006Y-70724234D01*
X124979334Y-70724054D01*
X124972825Y-70723753D01*
X124966477Y-70723332D01*
X124960292Y-70722791D01*
X124954269Y-70722130D01*
X124948408Y-70721349D01*
X124942709Y-70720447D01*
X124937173Y-70719425D01*
X124931799Y-70718283D01*
X124926586Y-70717021D01*
X124921536Y-70715639D01*
X124916649Y-70714136D01*
X124911923Y-70712513D01*
X124907360Y-70710770D01*
X124902959Y-70708907D01*
X124896366Y-70706199D01*
X124890053Y-70703344D01*
X124884019Y-70700340D01*
X124878264Y-70697189D01*
X124872787Y-70693889D01*
X124867590Y-70690441D01*
X124862672Y-70686845D01*
X124858033Y-70683101D01*
X124853673Y-70679209D01*
X124849593Y-70675168D01*
X124847027Y-70672392D01*
X124843517Y-70667940D01*
X124840221Y-70663376D01*
X124837140Y-70658701D01*
X124834273Y-70653914D01*
X124831621Y-70649015D01*
X124830785Y-70647358D01*
X124828053Y-70642615D01*
X124825536Y-70637821D01*
X124823233Y-70632975D01*
X124821145Y-70628078D01*
X124819272Y-70623129D01*
X124818695Y-70621468D01*
X124817211Y-70616442D01*
X124815873Y-70611396D01*
X124814681Y-70606327D01*
X124813635Y-70601238D01*
X124812734Y-70596126D01*
X124811980Y-70590994D01*
X124811372Y-70585840D01*
X124810910Y-70580664D01*
X124810593Y-70575467D01*
X124810423Y-70570248D01*
X124810391Y-70566757D01*
X124810552Y-70557643D01*
X124811190Y-70548678D01*
X124812304Y-70539863D01*
X124813894Y-70531197D01*
X124815960Y-70522682D01*
X124818502Y-70514316D01*
X124821520Y-70506100D01*
X124825015Y-70498034D01*
X124828985Y-70490117D01*
X124833432Y-70482351D01*
X124838354Y-70474734D01*
X124843753Y-70467267D01*
X124849627Y-70459949D01*
X124855978Y-70452782D01*
X124862805Y-70445764D01*
X124866397Y-70442311D01*
X124870108Y-70438896D01*
X124914560Y-70490554D01*
X124910375Y-70494849D01*
X124906460Y-70499219D01*
X124902815Y-70503661D01*
X124899440Y-70508177D01*
X124896335Y-70512767D01*
X124893500Y-70517430D01*
X124890935Y-70522166D01*
X124888640Y-70526976D01*
X124886615Y-70531860D01*
X124884860Y-70536817D01*
X124883375Y-70541847D01*
X124882160Y-70546951D01*
X124881215Y-70552128D01*
X124880540Y-70557379D01*
X124880135Y-70562703D01*
X124880000Y-70568101D01*
X124880199Y-70574958D01*
X124880794Y-70581562D01*
X124881787Y-70587912D01*
X124883177Y-70594010D01*
X124884964Y-70599854D01*
X124887148Y-70605444D01*
X124889730Y-70610781D01*
X124892708Y-70615865D01*
X124896084Y-70620696D01*
X124899857Y-70625274D01*
X124902592Y-70628184D01*
X124906918Y-70632593D01*
X124911607Y-70636568D01*
X124916658Y-70640109D01*
X124922073Y-70643217D01*
X124927850Y-70645891D01*
X124933990Y-70648131D01*
X124940492Y-70649938D01*
X124947358Y-70651311D01*
X124954586Y-70652251D01*
X124959606Y-70652636D01*
X124964788Y-70652829D01*
X124967439Y-70652853D01*
X124967439Y-70503132D01*
X125028500Y-70503132D01*
X125028500Y-70652853D01*
X125033400Y-70652523D01*
X125040467Y-70651763D01*
X125047192Y-70650685D01*
X125053576Y-70649290D01*
X125059618Y-70647577D01*
X125065319Y-70645546D01*
X125070679Y-70643198D01*
X125075698Y-70640532D01*
X125080375Y-70637548D01*
X125084711Y-70634246D01*
X125088705Y-70630627D01*
X125092176Y-70626678D01*
X125095304Y-70622525D01*
X125098092Y-70618169D01*
X125100538Y-70613608D01*
X125102643Y-70608844D01*
X125104406Y-70603875D01*
X125105828Y-70598703D01*
X125106909Y-70593326D01*
X125107649Y-70587746D01*
X125108047Y-70581962D01*
X125108123Y-70577993D01*
X125107952Y-70572072D01*
X125107440Y-70566356D01*
X125106587Y-70560844D01*
X125105392Y-70555536D01*
X125103856Y-70550431D01*
X125101979Y-70545531D01*
X125099760Y-70540834D01*
X125097201Y-70536342D01*
X125094299Y-70532053D01*
X125091057Y-70527968D01*
X125088705Y-70525358D01*
X125084711Y-70521614D01*
X125080375Y-70518214D01*
X125075698Y-70515157D01*
X125070679Y-70512444D01*
X125065319Y-70510074D01*
X125059618Y-70508048D01*
X125053576Y-70506365D01*
X125047192Y-70505025D01*
X125040467Y-70504029D01*
X125033400Y-70503376D01*
X125028500Y-70503132D01*
X124967439Y-70503132D01*
X124967439Y-70431691D01*
X125028500Y-70431691D01*
X125037099Y-70431946D01*
G37*
G36*
X125169916Y-70353045D02*
G01*
X125169916Y-70388582D01*
X125115939Y-70388582D01*
X125115939Y-70353045D01*
X124904913Y-70353045D01*
X124899784Y-70352949D01*
X124894809Y-70352659D01*
X124887635Y-70351864D01*
X124880806Y-70350636D01*
X124874322Y-70348974D01*
X124868185Y-70346878D01*
X124862393Y-70344348D01*
X124856946Y-70341385D01*
X124851845Y-70337988D01*
X124847090Y-70334158D01*
X124842681Y-70329894D01*
X124841287Y-70328376D01*
X124837163Y-70323768D01*
X124833444Y-70318920D01*
X124830130Y-70313831D01*
X124827222Y-70308501D01*
X124824721Y-70302931D01*
X124822624Y-70297121D01*
X124820934Y-70291070D01*
X124819649Y-70284779D01*
X124818770Y-70278247D01*
X124818297Y-70271475D01*
X124818207Y-70266827D01*
X124818207Y-70229580D01*
X124887816Y-70229580D01*
X124887816Y-70256325D01*
X124888085Y-70262383D01*
X124889197Y-70267613D01*
X124891774Y-70272987D01*
X124895668Y-70277066D01*
X124900880Y-70279851D01*
X124905999Y-70281148D01*
X124911961Y-70281616D01*
X124913583Y-70281604D01*
X125115939Y-70281604D01*
X125115939Y-70229580D01*
X125169916Y-70229580D01*
X125169916Y-70281604D01*
X125277994Y-70281604D01*
X125277994Y-70353045D01*
X125169916Y-70353045D01*
G37*
G36*
X122713340Y-71708267D02*
G01*
X122713340Y-71390019D01*
X122782949Y-71390019D01*
X122782949Y-71632674D01*
X123213549Y-71632674D01*
X123213549Y-71708267D01*
X122713340Y-71708267D01*
G37*
G36*
X122713340Y-71318944D02*
G01*
X122713340Y-71000696D01*
X122782949Y-71000696D01*
X122782949Y-71243351D01*
X122932914Y-71243351D01*
X122932914Y-71036233D01*
X123001790Y-71036233D01*
X123001790Y-71243351D01*
X123143940Y-71243351D01*
X123143940Y-71000696D01*
X123213549Y-71000696D01*
X123213549Y-71318944D01*
X122713340Y-71318944D01*
G37*
G36*
X122972748Y-70576949D02*
G01*
X122981701Y-70576993D01*
X122990303Y-70577067D01*
X122998554Y-70577171D01*
X123006454Y-70577304D01*
X123014002Y-70577467D01*
X123021200Y-70577659D01*
X123028046Y-70577881D01*
X123034542Y-70578132D01*
X123040686Y-70578413D01*
X123046479Y-70578724D01*
X123051921Y-70579064D01*
X123057012Y-70579433D01*
X123063990Y-70580044D01*
X123070178Y-70580720D01*
X123075947Y-70581730D01*
X123081666Y-70582974D01*
X123087336Y-70584452D01*
X123092956Y-70586164D01*
X123098527Y-70588110D01*
X123104048Y-70590290D01*
X123109521Y-70592704D01*
X123114943Y-70595352D01*
X123120317Y-70598234D01*
X123125641Y-70601350D01*
X123129163Y-70603557D01*
X123134310Y-70606766D01*
X123139296Y-70610075D01*
X123144119Y-70613482D01*
X123148781Y-70616988D01*
X123153280Y-70620594D01*
X123157618Y-70624298D01*
X123161793Y-70628101D01*
X123165807Y-70632003D01*
X123169659Y-70636005D01*
X123173348Y-70640105D01*
X123176876Y-70644304D01*
X123180242Y-70648602D01*
X123183446Y-70653000D01*
X123186488Y-70657496D01*
X123189368Y-70662091D01*
X123192086Y-70666785D01*
X123194642Y-70671578D01*
X123197036Y-70676470D01*
X123199268Y-70681462D01*
X123201339Y-70686552D01*
X123203247Y-70691741D01*
X123204993Y-70697029D01*
X123206578Y-70702416D01*
X123208000Y-70707902D01*
X123209260Y-70713487D01*
X123210359Y-70719171D01*
X123211295Y-70724954D01*
X123212070Y-70730836D01*
X123212683Y-70736817D01*
X123213133Y-70742897D01*
X123213422Y-70749076D01*
X123213549Y-70755354D01*
X123213549Y-70929621D01*
X122713340Y-70929621D01*
X122713340Y-70854028D01*
X122782949Y-70854028D01*
X123143940Y-70854028D01*
X123143940Y-70763780D01*
X123143930Y-70756707D01*
X123143566Y-70749837D01*
X123142846Y-70743171D01*
X123141772Y-70736707D01*
X123140343Y-70730447D01*
X123138559Y-70724390D01*
X123136420Y-70718536D01*
X123133926Y-70712886D01*
X123131077Y-70707439D01*
X123127873Y-70702195D01*
X123124314Y-70697154D01*
X123120401Y-70692316D01*
X123116132Y-70687682D01*
X123111509Y-70683251D01*
X123106530Y-70679023D01*
X123101197Y-70674998D01*
X123096602Y-70671327D01*
X123091672Y-70668006D01*
X123086405Y-70665037D01*
X123080803Y-70662419D01*
X123074865Y-70660152D01*
X123070191Y-70658683D01*
X123065328Y-70657410D01*
X123060276Y-70656336D01*
X123055035Y-70655458D01*
X123049371Y-70654913D01*
X123043047Y-70654421D01*
X123036064Y-70653983D01*
X123031043Y-70653720D01*
X123025729Y-70653482D01*
X123020122Y-70653267D01*
X123014222Y-70653076D01*
X123008029Y-70652909D01*
X123001543Y-70652766D01*
X122994764Y-70652647D01*
X122987693Y-70652551D01*
X122980328Y-70652480D01*
X122972671Y-70652432D01*
X122964720Y-70652408D01*
X122960635Y-70652405D01*
X122952346Y-70652417D01*
X122944393Y-70652453D01*
X122936776Y-70652513D01*
X122929494Y-70652596D01*
X122922549Y-70652703D01*
X122915939Y-70652835D01*
X122909665Y-70652990D01*
X122903727Y-70653169D01*
X122898124Y-70653371D01*
X122892858Y-70653598D01*
X122887927Y-70653848D01*
X122881161Y-70654269D01*
X122875150Y-70654743D01*
X122869895Y-70655271D01*
X122868312Y-70655458D01*
X122862217Y-70656458D01*
X122856389Y-70657748D01*
X122850829Y-70659328D01*
X122845536Y-70661198D01*
X122840510Y-70663358D01*
X122835751Y-70665808D01*
X122831259Y-70668548D01*
X122827035Y-70671578D01*
X122821696Y-70675302D01*
X122816702Y-70679297D01*
X122812052Y-70683564D01*
X122807747Y-70688103D01*
X122803786Y-70692914D01*
X122800170Y-70697997D01*
X122796898Y-70703351D01*
X122793970Y-70708978D01*
X122791387Y-70714877D01*
X122789148Y-70721047D01*
X122787254Y-70727490D01*
X122785704Y-70734204D01*
X122784499Y-70741190D01*
X122783638Y-70748448D01*
X122783121Y-70755978D01*
X122782949Y-70763780D01*
X122782949Y-70854028D01*
X122713340Y-70854028D01*
X122713340Y-70760483D01*
X122713436Y-70753544D01*
X122713725Y-70746742D01*
X122714207Y-70740077D01*
X122714881Y-70733547D01*
X122715749Y-70727155D01*
X122716809Y-70720898D01*
X122718061Y-70714778D01*
X122719507Y-70708795D01*
X122721145Y-70702948D01*
X122722976Y-70697237D01*
X122724999Y-70691663D01*
X122727216Y-70686225D01*
X122729625Y-70680924D01*
X122732226Y-70675759D01*
X122735021Y-70670731D01*
X122738008Y-70665839D01*
X122740927Y-70661035D01*
X122743942Y-70656365D01*
X122747056Y-70651827D01*
X122750266Y-70647421D01*
X122753574Y-70643148D01*
X122756979Y-70639008D01*
X122760481Y-70635001D01*
X122764081Y-70631126D01*
X122767778Y-70627383D01*
X122771572Y-70623774D01*
X122775464Y-70620296D01*
X122779453Y-70616952D01*
X122783539Y-70613740D01*
X122787723Y-70610661D01*
X122792004Y-70607714D01*
X122796382Y-70604900D01*
X122801344Y-70601918D01*
X122806245Y-70599107D01*
X122811087Y-70596468D01*
X122815868Y-70594001D01*
X122820589Y-70591705D01*
X122822150Y-70590978D01*
X122827033Y-70589016D01*
X122832156Y-70587252D01*
X122837520Y-70585685D01*
X122843124Y-70584315D01*
X122847978Y-70583325D01*
X122850970Y-70582796D01*
X122857375Y-70581749D01*
X122864636Y-70580804D01*
X122869953Y-70580232D01*
X122875650Y-70579705D01*
X122881728Y-70579224D01*
X122888186Y-70578789D01*
X122895026Y-70578400D01*
X122902246Y-70578056D01*
X122909846Y-70577759D01*
X122917828Y-70577507D01*
X122926190Y-70577301D01*
X122934932Y-70577140D01*
X122944055Y-70577026D01*
X122953559Y-70576957D01*
X122958454Y-70576940D01*
X122963444Y-70576934D01*
X122972748Y-70576949D01*
G37*
G36*
X122862644Y-69973337D02*
G01*
X122869819Y-69973849D01*
X122876895Y-69974702D01*
X122883869Y-69975897D01*
X122890742Y-69977432D01*
X122897514Y-69979310D01*
X122904186Y-69981528D01*
X122910756Y-69984088D01*
X122917226Y-69986989D01*
X122923595Y-69990232D01*
X122927785Y-69992583D01*
X122933640Y-69996673D01*
X122939115Y-70001110D01*
X122944210Y-70005895D01*
X122948925Y-70011027D01*
X122953260Y-70016508D01*
X122957216Y-70022336D01*
X122960791Y-70028512D01*
X122963986Y-70035036D01*
X122965905Y-70039578D01*
X122967655Y-70044275D01*
X122969237Y-70049126D01*
X122970649Y-70054132D01*
X122971993Y-70054132D01*
X122974622Y-70048866D01*
X122977320Y-70043813D01*
X122980087Y-70038974D01*
X122982923Y-70034349D01*
X122985827Y-70029937D01*
X122988800Y-70025739D01*
X122991841Y-70021755D01*
X122994952Y-70017985D01*
X122998759Y-70013537D01*
X123002627Y-70009429D01*
X123006554Y-70005661D01*
X123010541Y-70002233D01*
X123014588Y-69999145D01*
X123018694Y-69996396D01*
X123020353Y-69995392D01*
X123025666Y-69992649D01*
X123031026Y-69990189D01*
X123036433Y-69988012D01*
X123041888Y-69986118D01*
X123047390Y-69984508D01*
X123052939Y-69983182D01*
X123058536Y-69982139D01*
X123064179Y-69981379D01*
X123069870Y-69980902D01*
X123075608Y-69980709D01*
X123079460Y-69980738D01*
X123086908Y-69980883D01*
X123094173Y-69981319D01*
X123101254Y-69982047D01*
X123108150Y-69983065D01*
X123114863Y-69984375D01*
X123121391Y-69985975D01*
X123127735Y-69987867D01*
X123133895Y-69990049D01*
X123139871Y-69992523D01*
X123145663Y-69995287D01*
X123151270Y-69998343D01*
X123156694Y-70001689D01*
X123161933Y-70005326D01*
X123166988Y-70009255D01*
X123171859Y-70013474D01*
X123176546Y-70017985D01*
X123180941Y-70022738D01*
X123185058Y-70027777D01*
X123188898Y-70033103D01*
X123192460Y-70038715D01*
X123195744Y-70044613D01*
X123198751Y-70050797D01*
X123201480Y-70057268D01*
X123203932Y-70064024D01*
X123206106Y-70071067D01*
X123208002Y-70078396D01*
X123209620Y-70086012D01*
X123210961Y-70093914D01*
X123212025Y-70102101D01*
X123212810Y-70110575D01*
X123213318Y-70119336D01*
X123213549Y-70128382D01*
X123213549Y-70321456D01*
X122713340Y-70321456D01*
X122713340Y-70245863D01*
X122782949Y-70245863D01*
X122932914Y-70245863D01*
X123001790Y-70245863D01*
X123143940Y-70245863D01*
X123143940Y-70136931D01*
X123143775Y-70131841D01*
X123143465Y-70126923D01*
X123142725Y-70119865D01*
X123141657Y-70113191D01*
X123140261Y-70106902D01*
X123138536Y-70100997D01*
X123136482Y-70095476D01*
X123134101Y-70090339D01*
X123131391Y-70085587D01*
X123128352Y-70081219D01*
X123124985Y-70077235D01*
X123123790Y-70075992D01*
X123119815Y-70072457D01*
X123115678Y-70069269D01*
X123111378Y-70066429D01*
X123106914Y-70063937D01*
X123102287Y-70061792D01*
X123097497Y-70059995D01*
X123092544Y-70058546D01*
X123087428Y-70057445D01*
X123082149Y-70056692D01*
X123076706Y-70056286D01*
X123072987Y-70056209D01*
X123067466Y-70056382D01*
X123062124Y-70056904D01*
X123056959Y-70057773D01*
X123051973Y-70058991D01*
X123047164Y-70060556D01*
X123042534Y-70062468D01*
X123038083Y-70064729D01*
X123033809Y-70067337D01*
X123029714Y-70070293D01*
X123025796Y-70073597D01*
X123023284Y-70075992D01*
X123019443Y-70079847D01*
X123015979Y-70084084D01*
X123012894Y-70088703D01*
X123010186Y-70093704D01*
X123007856Y-70099087D01*
X123005904Y-70104852D01*
X123004330Y-70110999D01*
X123003134Y-70117529D01*
X123002315Y-70124440D01*
X123001874Y-70131734D01*
X123001790Y-70136809D01*
X123001790Y-70245863D01*
X122932914Y-70245863D01*
X122932914Y-70129726D01*
X122932741Y-70124562D01*
X122932406Y-70119574D01*
X122931600Y-70112422D01*
X122930428Y-70105664D01*
X122928892Y-70099301D01*
X122926991Y-70093333D01*
X122924725Y-70087761D01*
X122922094Y-70082583D01*
X122919098Y-70077800D01*
X122915737Y-70073412D01*
X122912011Y-70069420D01*
X122910688Y-70068176D01*
X122906489Y-70064706D01*
X122902135Y-70061578D01*
X122897627Y-70058790D01*
X122892965Y-70056344D01*
X122888148Y-70054239D01*
X122883176Y-70052476D01*
X122878050Y-70051054D01*
X122872769Y-70049973D01*
X122867334Y-70049233D01*
X122861744Y-70048835D01*
X122857931Y-70048759D01*
X122852349Y-70048930D01*
X122846912Y-70049442D01*
X122841621Y-70050295D01*
X122836476Y-70051490D01*
X122831477Y-70053026D01*
X122826624Y-70054903D01*
X122821917Y-70057121D01*
X122817356Y-70059681D01*
X122812941Y-70062583D01*
X122808672Y-70065825D01*
X122805908Y-70068176D01*
X122801929Y-70072038D01*
X122798328Y-70076294D01*
X122795106Y-70080945D01*
X122792260Y-70085991D01*
X122789793Y-70091432D01*
X122787704Y-70097268D01*
X122785992Y-70103499D01*
X122784658Y-70110125D01*
X122783702Y-70117146D01*
X122783275Y-70122046D01*
X122783015Y-70127122D01*
X122782949Y-70129726D01*
X122782949Y-70245863D01*
X122713340Y-70245863D01*
X122713340Y-70111652D01*
X122713494Y-70104370D01*
X122713956Y-70097241D01*
X122714726Y-70090265D01*
X122715805Y-70083442D01*
X122717192Y-70076771D01*
X122718886Y-70070253D01*
X122720890Y-70063887D01*
X122723201Y-70057674D01*
X122725820Y-70051614D01*
X122728748Y-70045706D01*
X122731984Y-70039951D01*
X122735527Y-70034349D01*
X122739380Y-70028899D01*
X122743540Y-70023602D01*
X122748008Y-70018458D01*
X122752785Y-70013466D01*
X122757608Y-70008672D01*
X122762642Y-70004181D01*
X122767889Y-69999994D01*
X122773347Y-69996110D01*
X122779017Y-69992529D01*
X122784899Y-69989252D01*
X122790993Y-69986278D01*
X122797298Y-69983607D01*
X122803815Y-69981240D01*
X122810544Y-69979177D01*
X122817485Y-69977416D01*
X122824638Y-69975960D01*
X122832002Y-69974806D01*
X122839579Y-69973956D01*
X122847367Y-69973409D01*
X122855367Y-69973166D01*
X122862644Y-69973337D01*
G37*
G36*
X122963844Y-69643561D02*
G01*
X122971518Y-69644112D01*
X122978892Y-69644969D01*
X122985968Y-69646132D01*
X122992745Y-69647602D01*
X122999224Y-69649378D01*
X123005404Y-69651460D01*
X123011285Y-69653849D01*
X123016868Y-69656544D01*
X123022152Y-69659545D01*
X123027138Y-69662852D01*
X123031825Y-69666466D01*
X123036213Y-69670385D01*
X123040302Y-69674612D01*
X123044093Y-69679144D01*
X123047586Y-69683982D01*
X123050719Y-69689080D01*
X123053644Y-69694389D01*
X123056363Y-69699911D01*
X123058874Y-69705644D01*
X123061179Y-69711589D01*
X123063277Y-69717745D01*
X123065167Y-69724114D01*
X123066850Y-69730694D01*
X123068327Y-69737486D01*
X123069596Y-69744490D01*
X123070659Y-69751705D01*
X123071514Y-69759133D01*
X123072162Y-69766772D01*
X123072604Y-69774623D01*
X123072838Y-69782686D01*
X123072865Y-69790961D01*
X123072894Y-69795877D01*
X123072621Y-69805482D01*
X123071907Y-69814786D01*
X123070753Y-69823789D01*
X123069158Y-69832490D01*
X123067122Y-69840890D01*
X123064645Y-69848988D01*
X123061727Y-69856785D01*
X123058369Y-69864280D01*
X123054570Y-69871474D01*
X123050330Y-69878366D01*
X123045649Y-69884957D01*
X123040528Y-69891246D01*
X123034966Y-69897234D01*
X123028963Y-69902920D01*
X123022519Y-69908305D01*
X123019132Y-69910884D01*
X122976878Y-69854830D01*
X122981290Y-69851798D01*
X122985290Y-69848426D01*
X122988879Y-69844714D01*
X122992057Y-69840662D01*
X122994823Y-69836271D01*
X122997178Y-69831539D01*
X122998005Y-69829551D01*
X122999517Y-69824468D01*
X123000774Y-69818837D01*
X123001594Y-69813937D01*
X123002251Y-69808686D01*
X123002743Y-69803083D01*
X123003071Y-69797130D01*
X123003235Y-69790825D01*
X123003256Y-69787541D01*
X123003242Y-69778642D01*
X123002866Y-69770322D01*
X123002128Y-69762583D01*
X123001027Y-69755423D01*
X122999563Y-69748844D01*
X122997737Y-69742845D01*
X122995549Y-69737426D01*
X122992998Y-69732587D01*
X122990084Y-69728328D01*
X122986808Y-69724649D01*
X122981213Y-69720218D01*
X122974803Y-69717093D01*
X122970077Y-69715734D01*
X122964988Y-69714955D01*
X122959536Y-69714757D01*
X122923633Y-69714757D01*
X122923633Y-69813553D01*
X122923424Y-69820544D01*
X122922980Y-69827321D01*
X122922302Y-69833882D01*
X122921389Y-69840229D01*
X122920241Y-69846361D01*
X122918858Y-69852279D01*
X122917241Y-69857982D01*
X122915389Y-69863470D01*
X122913303Y-69868744D01*
X122910982Y-69873803D01*
X122908426Y-69878647D01*
X122905635Y-69883277D01*
X122902610Y-69887692D01*
X122899350Y-69891892D01*
X122895855Y-69895878D01*
X122892125Y-69899649D01*
X122888308Y-69903213D01*
X122884369Y-69906547D01*
X122880306Y-69909651D01*
X122876120Y-69912525D01*
X122871811Y-69915169D01*
X122867379Y-69917584D01*
X122862823Y-69919768D01*
X122858145Y-69921722D01*
X122853344Y-69923447D01*
X122848419Y-69924941D01*
X122843372Y-69926206D01*
X122838201Y-69927241D01*
X122832907Y-69928045D01*
X122827491Y-69928620D01*
X122821951Y-69928965D01*
X122816288Y-69929080D01*
X122810371Y-69928948D01*
X122804587Y-69928552D01*
X122798937Y-69927891D01*
X122793421Y-69926966D01*
X122788038Y-69925777D01*
X122782788Y-69924323D01*
X122777673Y-69922605D01*
X122772691Y-69920623D01*
X122767842Y-69918377D01*
X122763127Y-69915866D01*
X122758545Y-69913091D01*
X122754098Y-69910052D01*
X122749783Y-69906749D01*
X122745602Y-69903181D01*
X122741555Y-69899349D01*
X122737642Y-69895253D01*
X122733838Y-69891131D01*
X122730274Y-69886796D01*
X122726950Y-69882247D01*
X122723865Y-69877484D01*
X122721019Y-69872507D01*
X122718413Y-69867317D01*
X122716047Y-69861913D01*
X122713920Y-69856296D01*
X122712032Y-69850464D01*
X122710384Y-69844419D01*
X122708975Y-69838161D01*
X122707806Y-69831688D01*
X122706876Y-69825002D01*
X122706186Y-69818102D01*
X122705735Y-69810989D01*
X122705524Y-69803661D01*
X122705604Y-69796999D01*
X122705846Y-69790614D01*
X122705936Y-69789247D01*
X122775089Y-69789247D01*
X122775133Y-69794747D01*
X122775256Y-69801233D01*
X122775627Y-69807365D01*
X122776244Y-69813142D01*
X122777108Y-69818566D01*
X122778219Y-69823635D01*
X122779577Y-69828350D01*
X122781771Y-69834086D01*
X122784404Y-69839193D01*
X122787476Y-69843669D01*
X122789177Y-69845671D01*
X122792407Y-69849421D01*
X122796687Y-69853405D01*
X122801235Y-69856607D01*
X122806051Y-69859029D01*
X122811136Y-69860669D01*
X122816489Y-69861529D01*
X122819829Y-69861669D01*
X122824848Y-69861515D01*
X122831789Y-69860360D01*
X122838025Y-69858097D01*
X122843558Y-69854727D01*
X122848387Y-69850249D01*
X122852511Y-69844663D01*
X122854870Y-69840324D01*
X122856915Y-69835493D01*
X122858648Y-69830169D01*
X122860067Y-69824353D01*
X122861174Y-69818045D01*
X122861968Y-69811244D01*
X122862449Y-69803951D01*
X122862572Y-69800120D01*
X122862572Y-69714757D01*
X122837049Y-69714757D01*
X122832154Y-69714822D01*
X122825235Y-69715166D01*
X122818822Y-69715803D01*
X122812916Y-69716734D01*
X122807516Y-69717959D01*
X122802623Y-69719479D01*
X122796887Y-69721962D01*
X122792052Y-69724969D01*
X122788117Y-69728498D01*
X122785758Y-69731488D01*
X122783107Y-69736510D01*
X122780834Y-69742356D01*
X122779378Y-69747282D01*
X122778134Y-69752672D01*
X122777103Y-69758525D01*
X122776284Y-69764842D01*
X122775677Y-69771623D01*
X122775283Y-69778867D01*
X122775139Y-69783954D01*
X122775089Y-69789247D01*
X122705936Y-69789247D01*
X122706248Y-69784506D01*
X122706812Y-69778674D01*
X122707536Y-69773120D01*
X122708422Y-69767842D01*
X122709468Y-69762842D01*
X122711114Y-69756605D01*
X122713046Y-69750860D01*
X122714683Y-69746875D01*
X122717066Y-69741826D01*
X122719759Y-69737121D01*
X122722760Y-69732759D01*
X122726071Y-69728740D01*
X122729690Y-69725065D01*
X122733619Y-69721733D01*
X122737857Y-69718745D01*
X122742404Y-69716100D01*
X122742404Y-69714757D01*
X122713340Y-69714757D01*
X122713340Y-69643316D01*
X122955873Y-69643316D01*
X122963844Y-69643561D01*
G37*
G36*
X122813357Y-69342775D02*
G01*
X122808814Y-69346219D01*
X122804558Y-69349805D01*
X122800590Y-69353531D01*
X122796909Y-69357399D01*
X122793515Y-69361408D01*
X122790408Y-69365558D01*
X122787588Y-69369850D01*
X122785055Y-69374283D01*
X122782810Y-69378856D01*
X122780852Y-69383571D01*
X122779181Y-69388428D01*
X122777797Y-69393425D01*
X122776700Y-69398564D01*
X122775890Y-69403844D01*
X122775368Y-69409265D01*
X122775133Y-69414827D01*
X122775140Y-69420426D01*
X122775376Y-69425849D01*
X122775841Y-69431098D01*
X122776534Y-69436171D01*
X122777455Y-69441070D01*
X122779983Y-69450342D01*
X122783426Y-69458913D01*
X122787782Y-69466784D01*
X122793052Y-69473955D01*
X122799236Y-69480425D01*
X122806335Y-69486196D01*
X122814347Y-69491266D01*
X122818696Y-69493538D01*
X122823273Y-69495635D01*
X122828079Y-69497557D01*
X122833114Y-69499305D01*
X122838377Y-69500877D01*
X122843868Y-69502274D01*
X122849588Y-69503496D01*
X122855536Y-69504542D01*
X122861713Y-69505414D01*
X122868119Y-69506111D01*
X122874753Y-69506633D01*
X122881615Y-69506979D01*
X122888706Y-69507151D01*
X122895835Y-69506979D01*
X122902735Y-69506633D01*
X122909405Y-69506111D01*
X122915847Y-69505414D01*
X122922060Y-69504542D01*
X122928044Y-69503496D01*
X122933799Y-69502274D01*
X122939325Y-69500877D01*
X122944622Y-69499305D01*
X122949690Y-69497557D01*
X122954529Y-69495635D01*
X122959139Y-69493538D01*
X122963521Y-69491266D01*
X122971596Y-69486196D01*
X122978755Y-69480425D01*
X122984999Y-69473955D01*
X122990326Y-69466784D01*
X122994738Y-69458913D01*
X122998234Y-69450342D01*
X123000813Y-69441070D01*
X123001760Y-69436171D01*
X123002477Y-69431098D01*
X123002966Y-69425849D01*
X123003225Y-69420426D01*
X123003256Y-69414827D01*
X123002934Y-69409265D01*
X123002334Y-69403844D01*
X123001457Y-69398564D01*
X123000302Y-69393425D01*
X122998869Y-69388428D01*
X122997159Y-69383571D01*
X122995171Y-69378856D01*
X122992906Y-69374283D01*
X122990363Y-69369850D01*
X122987542Y-69365558D01*
X122984444Y-69361408D01*
X122981068Y-69357399D01*
X122977414Y-69353531D01*
X122973483Y-69349805D01*
X122969274Y-69346219D01*
X122964788Y-69342775D01*
X123011316Y-69290141D01*
X123016439Y-69294564D01*
X123021366Y-69299134D01*
X123026099Y-69303849D01*
X123030636Y-69308711D01*
X123034977Y-69313718D01*
X123039124Y-69318872D01*
X123043075Y-69324171D01*
X123046830Y-69329617D01*
X123050390Y-69335208D01*
X123053755Y-69340945D01*
X123055890Y-69344851D01*
X123058799Y-69350824D01*
X123061436Y-69356973D01*
X123063799Y-69363298D01*
X123065891Y-69369798D01*
X123067709Y-69376475D01*
X123069255Y-69383328D01*
X123070529Y-69390357D01*
X123071529Y-69397562D01*
X123072045Y-69402463D01*
X123072439Y-69407442D01*
X123072713Y-69412500D01*
X123072865Y-69417636D01*
X123072771Y-69425437D01*
X123072335Y-69433118D01*
X123071557Y-69440679D01*
X123070438Y-69448120D01*
X123068977Y-69455441D01*
X123067175Y-69462641D01*
X123065031Y-69469721D01*
X123062546Y-69476681D01*
X123059719Y-69483521D01*
X123056550Y-69490241D01*
X123053040Y-69496840D01*
X123049189Y-69503319D01*
X123044996Y-69509678D01*
X123040461Y-69515917D01*
X123035585Y-69522035D01*
X123030367Y-69528033D01*
X123024676Y-69533998D01*
X123018563Y-69539589D01*
X123012028Y-69544806D01*
X123005072Y-69549649D01*
X122997694Y-69554118D01*
X122989895Y-69558213D01*
X122981674Y-69561934D01*
X122973031Y-69565280D01*
X122963966Y-69568253D01*
X122954480Y-69570852D01*
X122949578Y-69572011D01*
X122944572Y-69573077D01*
X122939459Y-69574049D01*
X122934242Y-69574928D01*
X122928919Y-69575713D01*
X122923490Y-69576405D01*
X122917957Y-69577003D01*
X122912317Y-69577508D01*
X122906573Y-69577919D01*
X122900722Y-69578237D01*
X122894767Y-69578461D01*
X122888706Y-69578592D01*
X122882706Y-69578461D01*
X122876810Y-69578237D01*
X122871020Y-69577919D01*
X122865335Y-69577508D01*
X122859755Y-69577003D01*
X122854279Y-69576405D01*
X122848909Y-69575713D01*
X122843643Y-69574928D01*
X122838482Y-69574049D01*
X122833427Y-69573077D01*
X122828476Y-69572011D01*
X122823630Y-69570852D01*
X122818890Y-69569600D01*
X122809723Y-69566814D01*
X122800976Y-69563654D01*
X122792649Y-69560120D01*
X122784741Y-69556212D01*
X122777254Y-69551930D01*
X122770186Y-69547274D01*
X122763538Y-69542244D01*
X122757310Y-69536840D01*
X122751501Y-69531063D01*
X122748755Y-69528033D01*
X122743520Y-69522035D01*
X122738622Y-69515917D01*
X122734063Y-69509678D01*
X122729841Y-69503319D01*
X122725957Y-69496840D01*
X122722411Y-69490241D01*
X122719202Y-69483521D01*
X122716331Y-69476681D01*
X122713798Y-69469721D01*
X122711603Y-69462641D01*
X122709746Y-69455441D01*
X122708226Y-69448120D01*
X122707044Y-69440679D01*
X122706199Y-69433118D01*
X122705693Y-69425437D01*
X122705524Y-69417636D01*
X122705664Y-69412500D01*
X122705934Y-69407442D01*
X122706332Y-69402463D01*
X122706859Y-69397562D01*
X122707892Y-69390357D01*
X122709214Y-69383328D01*
X122710825Y-69376475D01*
X122712727Y-69369798D01*
X122714918Y-69363298D01*
X122717400Y-69356973D01*
X122720171Y-69350824D01*
X122723231Y-69344851D01*
X122726363Y-69339017D01*
X122729666Y-69333328D01*
X122733140Y-69327785D01*
X122736787Y-69322389D01*
X122740605Y-69317138D01*
X122744595Y-69312033D01*
X122748757Y-69307074D01*
X122753090Y-69302261D01*
X122757595Y-69297595D01*
X122762272Y-69293074D01*
X122765485Y-69290141D01*
X122813357Y-69342775D01*
G37*
G36*
X122713340Y-69240560D02*
G01*
X122713340Y-69169119D01*
X122814456Y-69169119D01*
X122877349Y-69113065D01*
X122713340Y-69018665D01*
X122713340Y-68929150D01*
X122927785Y-69068246D01*
X123065049Y-68945881D01*
X123065049Y-69031366D01*
X122899697Y-69167775D01*
X122899697Y-69169119D01*
X123213549Y-69169119D01*
X123213549Y-69240560D01*
X122713340Y-69240560D01*
G37*
G36*
X122801755Y-68877615D02*
G01*
X122795850Y-68877511D01*
X122790162Y-68877199D01*
X122784691Y-68876679D01*
X122779438Y-68875951D01*
X122774402Y-68875015D01*
X122769584Y-68873871D01*
X122762765Y-68871765D01*
X122756435Y-68869191D01*
X122750595Y-68866149D01*
X122745244Y-68862640D01*
X122740382Y-68858662D01*
X122736010Y-68854216D01*
X122733367Y-68850992D01*
X122729788Y-68846110D01*
X122726561Y-68840990D01*
X122723686Y-68835632D01*
X122721163Y-68830035D01*
X122718992Y-68824200D01*
X122717173Y-68818127D01*
X122715706Y-68811815D01*
X122714591Y-68805265D01*
X122713828Y-68798477D01*
X122713418Y-68791451D01*
X122713340Y-68786634D01*
X122713340Y-68754883D01*
X122782949Y-68754883D01*
X122782949Y-68779551D01*
X122783328Y-68785791D01*
X122784468Y-68791199D01*
X122786366Y-68795774D01*
X122789807Y-68800324D01*
X122794435Y-68803574D01*
X122800250Y-68805524D01*
X122805756Y-68806148D01*
X122807251Y-68806174D01*
X123213549Y-68806174D01*
X123213549Y-68877615D01*
X122801755Y-68877615D01*
G37*
G36*
X122713340Y-68695287D02*
G01*
X122713340Y-68623846D01*
X123065049Y-68623846D01*
X123065049Y-68695287D01*
X122713340Y-68695287D01*
G37*
G36*
X123143940Y-68695287D02*
G01*
X123143940Y-68623846D01*
X123213549Y-68623846D01*
X123213549Y-68695287D01*
X123143940Y-68695287D01*
G37*
G36*
X123065049Y-68330266D02*
G01*
X123027436Y-68330266D01*
X123032937Y-68335147D01*
X123038083Y-68340139D01*
X123042875Y-68345244D01*
X123047311Y-68350462D01*
X123051393Y-68355793D01*
X123055119Y-68361236D01*
X123058491Y-68366791D01*
X123061508Y-68372459D01*
X123064170Y-68378240D01*
X123066476Y-68384133D01*
X123068429Y-68390139D01*
X123070026Y-68396258D01*
X123071268Y-68402489D01*
X123072155Y-68408833D01*
X123072688Y-68415289D01*
X123072865Y-68421858D01*
X123072646Y-68428235D01*
X123072220Y-68434406D01*
X123071584Y-68440370D01*
X123070741Y-68446129D01*
X123069690Y-68451682D01*
X123068430Y-68457029D01*
X123066962Y-68462169D01*
X123065286Y-68467104D01*
X123063401Y-68471832D01*
X123061309Y-68476354D01*
X123059798Y-68479255D01*
X123057341Y-68483644D01*
X123054823Y-68487836D01*
X123051374Y-68493117D01*
X123047817Y-68498048D01*
X123044153Y-68502628D01*
X123040383Y-68506856D01*
X123036505Y-68510733D01*
X123032521Y-68514260D01*
X123030489Y-68515891D01*
X123026028Y-68519251D01*
X123021314Y-68522371D01*
X123016349Y-68525250D01*
X123011133Y-68527889D01*
X123005664Y-68530288D01*
X122999943Y-68532446D01*
X122993971Y-68534364D01*
X122987746Y-68536041D01*
X122982526Y-68537198D01*
X122976481Y-68538241D01*
X122969611Y-68539170D01*
X122964574Y-68539726D01*
X122959170Y-68540232D01*
X122953400Y-68540687D01*
X122947263Y-68541091D01*
X122940760Y-68541445D01*
X122933891Y-68541749D01*
X122926655Y-68542002D01*
X122919053Y-68542204D01*
X122911085Y-68542355D01*
X122902750Y-68542457D01*
X122894049Y-68542507D01*
X122889561Y-68542514D01*
X122880840Y-68542488D01*
X122872477Y-68542412D01*
X122864472Y-68542286D01*
X122856825Y-68542109D01*
X122849535Y-68541881D01*
X122842603Y-68541603D01*
X122836029Y-68541275D01*
X122829813Y-68540895D01*
X122823954Y-68540466D01*
X122818454Y-68539985D01*
X122813311Y-68539454D01*
X122806267Y-68538563D01*
X122800029Y-68537558D01*
X122794595Y-68536439D01*
X122792963Y-68536041D01*
X122788224Y-68534806D01*
X122782123Y-68532948D01*
X122776269Y-68530850D01*
X122770664Y-68528512D01*
X122765307Y-68525933D01*
X122760198Y-68523113D01*
X122755337Y-68520054D01*
X122750724Y-68516754D01*
X122749610Y-68515891D01*
X122745734Y-68512540D01*
X122741924Y-68508839D01*
X122738178Y-68504786D01*
X122734497Y-68500382D01*
X122730881Y-68495627D01*
X122727330Y-68490520D01*
X122723844Y-68485063D01*
X122721272Y-68480740D01*
X122720423Y-68479255D01*
X122717884Y-68474870D01*
X122715583Y-68470279D01*
X122713517Y-68465482D01*
X122711687Y-68460478D01*
X122710094Y-68455269D01*
X122708736Y-68449854D01*
X122707615Y-68444232D01*
X122706730Y-68438405D01*
X122706081Y-68432371D01*
X122705668Y-68426132D01*
X122705524Y-68421858D01*
X122705839Y-68414888D01*
X122706447Y-68408085D01*
X122707350Y-68401447D01*
X122707550Y-68400364D01*
X122775133Y-68400364D01*
X122775288Y-68405449D01*
X122775751Y-68410325D01*
X122776765Y-68416124D01*
X122778263Y-68421595D01*
X122780243Y-68426738D01*
X122782706Y-68431553D01*
X122785025Y-68435169D01*
X122787623Y-68439566D01*
X122790852Y-68444364D01*
X122794201Y-68448637D01*
X122797670Y-68452386D01*
X122801869Y-68456099D01*
X122803099Y-68457029D01*
X122807418Y-68460144D01*
X122812132Y-68462804D01*
X122817241Y-68465010D01*
X122822745Y-68466760D01*
X122827633Y-68467871D01*
X122830698Y-68468386D01*
X122836300Y-68469160D01*
X122841705Y-68469685D01*
X122847931Y-68470125D01*
X122853138Y-68470401D01*
X122858807Y-68470629D01*
X122864938Y-68470810D01*
X122871530Y-68470944D01*
X122878583Y-68471030D01*
X122883542Y-68471062D01*
X122888706Y-68471072D01*
X122893947Y-68471062D01*
X122898983Y-68471030D01*
X122906155Y-68470944D01*
X122912868Y-68470810D01*
X122919121Y-68470629D01*
X122924915Y-68470401D01*
X122930249Y-68470125D01*
X122935124Y-68469803D01*
X122940910Y-68469299D01*
X122945879Y-68468711D01*
X122948057Y-68468386D01*
X122953092Y-68467465D01*
X122958725Y-68465942D01*
X122963911Y-68463964D01*
X122968651Y-68461531D01*
X122972944Y-68458643D01*
X122974924Y-68457029D01*
X122979234Y-68453520D01*
X122982900Y-68449945D01*
X122986541Y-68445846D01*
X122990156Y-68441224D01*
X122993149Y-68436971D01*
X122994341Y-68435169D01*
X122996716Y-68430616D01*
X122998727Y-68425735D01*
X123000375Y-68420527D01*
X123001659Y-68414990D01*
X123002579Y-68409126D01*
X123003053Y-68404198D01*
X123003256Y-68400364D01*
X123002958Y-68395250D01*
X123002431Y-68390350D01*
X123001451Y-68384526D01*
X123000113Y-68379035D01*
X122998417Y-68373878D01*
X122996364Y-68369055D01*
X122994463Y-68365437D01*
X122991442Y-68361251D01*
X122988409Y-68357392D01*
X122984754Y-68353195D01*
X122981082Y-68349470D01*
X122977393Y-68346217D01*
X122974924Y-68344310D01*
X122970854Y-68341173D01*
X122966337Y-68338449D01*
X122961374Y-68336136D01*
X122955964Y-68334235D01*
X122951115Y-68332966D01*
X122948057Y-68332343D01*
X122942229Y-68331744D01*
X122936647Y-68331339D01*
X122930249Y-68330998D01*
X122924915Y-68330785D01*
X122919121Y-68330609D01*
X122912868Y-68330469D01*
X122906155Y-68330366D01*
X122898983Y-68330299D01*
X122893947Y-68330275D01*
X122888706Y-68330266D01*
X122883542Y-68330275D01*
X122878583Y-68330299D01*
X122871530Y-68330366D01*
X122864938Y-68330469D01*
X122858807Y-68330609D01*
X122853138Y-68330785D01*
X122847931Y-68330998D01*
X122841705Y-68331339D01*
X122836300Y-68331744D01*
X122830698Y-68332343D01*
X122825645Y-68333440D01*
X122820866Y-68334823D01*
X122815494Y-68336861D01*
X122810517Y-68339311D01*
X122805934Y-68342173D01*
X122803099Y-68344310D01*
X122798853Y-68347784D01*
X122795344Y-68351273D01*
X122791955Y-68355234D01*
X122788686Y-68359668D01*
X122785538Y-68364574D01*
X122785025Y-68365437D01*
X122782175Y-68369993D01*
X122779808Y-68374883D01*
X122777925Y-68380106D01*
X122776524Y-68385664D01*
X122775606Y-68391555D01*
X122775220Y-68396509D01*
X122775133Y-68400364D01*
X122707550Y-68400364D01*
X122708546Y-68394976D01*
X122710036Y-68388670D01*
X122711821Y-68382531D01*
X122713899Y-68376557D01*
X122716270Y-68370750D01*
X122718936Y-68365108D01*
X122721896Y-68359633D01*
X122725149Y-68354323D01*
X122728696Y-68349180D01*
X122732537Y-68344203D01*
X122736672Y-68339391D01*
X122741101Y-68334746D01*
X122745824Y-68330266D01*
X122710286Y-68330266D01*
X122703715Y-68330590D01*
X122697418Y-68331284D01*
X122691396Y-68332350D01*
X122685648Y-68333787D01*
X122680176Y-68335596D01*
X122674978Y-68337776D01*
X122670055Y-68340327D01*
X122665407Y-68343250D01*
X122661033Y-68346544D01*
X122656935Y-68350209D01*
X122654355Y-68352859D01*
X122650797Y-68357152D01*
X122647590Y-68361696D01*
X122644732Y-68366491D01*
X122642225Y-68371538D01*
X122640067Y-68376835D01*
X122638259Y-68382384D01*
X122636801Y-68388184D01*
X122635693Y-68394235D01*
X122634935Y-68400537D01*
X122634527Y-68407091D01*
X122634449Y-68411599D01*
X122634896Y-68417670D01*
X122635778Y-68423668D01*
X122637095Y-68429596D01*
X122638462Y-68434286D01*
X122640108Y-68438930D01*
X122642032Y-68443529D01*
X122644235Y-68448082D01*
X122644829Y-68449213D01*
X122647085Y-68453605D01*
X122650065Y-68458914D01*
X122653224Y-68464019D01*
X122656562Y-68468922D01*
X122660079Y-68473622D01*
X122663775Y-68478119D01*
X122666079Y-68480720D01*
X122622970Y-68536041D01*
X122616088Y-68529592D01*
X122609639Y-68522978D01*
X122603624Y-68516197D01*
X122598042Y-68509251D01*
X122592892Y-68502138D01*
X122588176Y-68494859D01*
X122583894Y-68487415D01*
X122580044Y-68479804D01*
X122576627Y-68472027D01*
X122573644Y-68464085D01*
X122571094Y-68455976D01*
X122568977Y-68447701D01*
X122567293Y-68439261D01*
X122566042Y-68430654D01*
X122565224Y-68421881D01*
X122564840Y-68412943D01*
X122564990Y-68405151D01*
X122565441Y-68397498D01*
X122566192Y-68389985D01*
X122567244Y-68382611D01*
X122568597Y-68375376D01*
X122570249Y-68368281D01*
X122572203Y-68361324D01*
X122574457Y-68354508D01*
X122577011Y-68347830D01*
X122579867Y-68341292D01*
X122583022Y-68334893D01*
X122586478Y-68328633D01*
X122590235Y-68322513D01*
X122594292Y-68316532D01*
X122598650Y-68310690D01*
X122603308Y-68304987D01*
X122608144Y-68299555D01*
X122613311Y-68294462D01*
X122618807Y-68289709D01*
X122624634Y-68285295D01*
X122630790Y-68281221D01*
X122637277Y-68277487D01*
X122644094Y-68274093D01*
X122651241Y-68271038D01*
X122658718Y-68268322D01*
X122666525Y-68265947D01*
X122674662Y-68263911D01*
X122683130Y-68262214D01*
X122691927Y-68260858D01*
X122701055Y-68259841D01*
X122710513Y-68259163D01*
X122720300Y-68258825D01*
X123065049Y-68258825D01*
X123065049Y-68330266D01*
G37*
G36*
X122713340Y-68166868D02*
G01*
X122713340Y-68095427D01*
X122926075Y-68095427D01*
X122932969Y-68095250D01*
X122939545Y-68094719D01*
X122945803Y-68093833D01*
X122951743Y-68092593D01*
X122957366Y-68090999D01*
X122962671Y-68089051D01*
X122967659Y-68086749D01*
X122972329Y-68084093D01*
X122976681Y-68081082D01*
X122980715Y-68077717D01*
X122983228Y-68075277D01*
X122986807Y-68071471D01*
X122990034Y-68067472D01*
X122992909Y-68063279D01*
X122995432Y-68058894D01*
X122997603Y-68054315D01*
X122999422Y-68049543D01*
X123000889Y-68044577D01*
X123002004Y-68039419D01*
X123002767Y-68034067D01*
X123003178Y-68028523D01*
X123003256Y-68024719D01*
X123003080Y-68019047D01*
X123002552Y-68013573D01*
X123001672Y-68008297D01*
X123000439Y-68003218D01*
X122998855Y-67998336D01*
X122996919Y-67993652D01*
X122994630Y-67989166D01*
X122991990Y-67984877D01*
X122988998Y-67980785D01*
X122985653Y-67976891D01*
X122983228Y-67974405D01*
X122979405Y-67970869D01*
X122975265Y-67967681D01*
X122970807Y-67964841D01*
X122966032Y-67962349D01*
X122960938Y-67960204D01*
X122955527Y-67958408D01*
X122949799Y-67956959D01*
X122943752Y-67955857D01*
X122937388Y-67955104D01*
X122930706Y-67954698D01*
X122926075Y-67954621D01*
X122713340Y-67954621D01*
X122713340Y-67883180D01*
X122949400Y-67883180D01*
X122956888Y-67883529D01*
X122964146Y-67884147D01*
X122971176Y-67885036D01*
X122977977Y-67886195D01*
X122984548Y-67887624D01*
X122990891Y-67889322D01*
X122997005Y-67891291D01*
X123002889Y-67893530D01*
X123008545Y-67896038D01*
X123013972Y-67898817D01*
X123019170Y-67901866D01*
X123024139Y-67905185D01*
X123028878Y-67908773D01*
X123033389Y-67912632D01*
X123037671Y-67916761D01*
X123041724Y-67921160D01*
X123045495Y-67925754D01*
X123049023Y-67930407D01*
X123052307Y-67935119D01*
X123055348Y-67939890D01*
X123058146Y-67944721D01*
X123060701Y-67949610D01*
X123063012Y-67954559D01*
X123065080Y-67959567D01*
X123066904Y-67964634D01*
X123068486Y-67969760D01*
X123069824Y-67974946D01*
X123070919Y-67980190D01*
X123071770Y-67985494D01*
X123072378Y-67990857D01*
X123072743Y-67996279D01*
X123072865Y-68001760D01*
X123072700Y-68008818D01*
X123072207Y-68015705D01*
X123071384Y-68022419D01*
X123070232Y-68028962D01*
X123068751Y-68035334D01*
X123066940Y-68041533D01*
X123064801Y-68047561D01*
X123062332Y-68053417D01*
X123059534Y-68059102D01*
X123056407Y-68064614D01*
X123052951Y-68069955D01*
X123049166Y-68075124D01*
X123045051Y-68080122D01*
X123040608Y-68084947D01*
X123035835Y-68089601D01*
X123030733Y-68094084D01*
X123030733Y-68095427D01*
X123213549Y-68095427D01*
X123213549Y-68166868D01*
X122713340Y-68166868D01*
G37*
G36*
X123065049Y-67787192D02*
G01*
X123065049Y-67822730D01*
X123011072Y-67822730D01*
X123011072Y-67787192D01*
X122800046Y-67787192D01*
X122794917Y-67787096D01*
X122789942Y-67786807D01*
X122782768Y-67786012D01*
X122775939Y-67784783D01*
X122769455Y-67783121D01*
X122763318Y-67781025D01*
X122757526Y-67778496D01*
X122752079Y-67775533D01*
X122746978Y-67772136D01*
X122742223Y-67768306D01*
X122737814Y-67764042D01*
X122736420Y-67762524D01*
X122732296Y-67757916D01*
X122728577Y-67753067D01*
X122725263Y-67747978D01*
X122722355Y-67742649D01*
X122719854Y-67737079D01*
X122717757Y-67731269D01*
X122716067Y-67725218D01*
X122714782Y-67718927D01*
X122713903Y-67712395D01*
X122713430Y-67705623D01*
X122713340Y-67700975D01*
X122713340Y-67663728D01*
X122782949Y-67663728D01*
X122782949Y-67690472D01*
X122783218Y-67696531D01*
X122784330Y-67701761D01*
X122786907Y-67707134D01*
X122790801Y-67711213D01*
X122796013Y-67713999D01*
X122801132Y-67715295D01*
X122807094Y-67715764D01*
X122808716Y-67715751D01*
X123011072Y-67715751D01*
X123011072Y-67663728D01*
X123065049Y-67663728D01*
X123065049Y-67715751D01*
X123173127Y-67715751D01*
X123173127Y-67787192D01*
X123065049Y-67787192D01*
G37*
D11*
%TO.C,J1*%
X118402619Y-76451666D02*
X119116904Y-76451666D01*
X119116904Y-76451666D02*
X119259761Y-76404047D01*
X119259761Y-76404047D02*
X119355000Y-76308809D01*
X119355000Y-76308809D02*
X119402619Y-76165952D01*
X119402619Y-76165952D02*
X119402619Y-76070714D01*
X119402619Y-77451666D02*
X119402619Y-76880238D01*
X119402619Y-77165952D02*
X118402619Y-77165952D01*
X118402619Y-77165952D02*
X118545476Y-77070714D01*
X118545476Y-77070714D02*
X118640714Y-76975476D01*
X118640714Y-76975476D02*
X118688333Y-76880238D01*
%TO.C,C5*%
X138626180Y-74323733D02*
X138673800Y-74276114D01*
X138673800Y-74276114D02*
X138721419Y-74133257D01*
X138721419Y-74133257D02*
X138721419Y-74038019D01*
X138721419Y-74038019D02*
X138673800Y-73895162D01*
X138673800Y-73895162D02*
X138578561Y-73799924D01*
X138578561Y-73799924D02*
X138483323Y-73752305D01*
X138483323Y-73752305D02*
X138292847Y-73704686D01*
X138292847Y-73704686D02*
X138149990Y-73704686D01*
X138149990Y-73704686D02*
X137959514Y-73752305D01*
X137959514Y-73752305D02*
X137864276Y-73799924D01*
X137864276Y-73799924D02*
X137769038Y-73895162D01*
X137769038Y-73895162D02*
X137721419Y-74038019D01*
X137721419Y-74038019D02*
X137721419Y-74133257D01*
X137721419Y-74133257D02*
X137769038Y-74276114D01*
X137769038Y-74276114D02*
X137816657Y-74323733D01*
X137721419Y-75228495D02*
X137721419Y-74752305D01*
X137721419Y-74752305D02*
X138197609Y-74704686D01*
X138197609Y-74704686D02*
X138149990Y-74752305D01*
X138149990Y-74752305D02*
X138102371Y-74847543D01*
X138102371Y-74847543D02*
X138102371Y-75085638D01*
X138102371Y-75085638D02*
X138149990Y-75180876D01*
X138149990Y-75180876D02*
X138197609Y-75228495D01*
X138197609Y-75228495D02*
X138292847Y-75276114D01*
X138292847Y-75276114D02*
X138530942Y-75276114D01*
X138530942Y-75276114D02*
X138626180Y-75228495D01*
X138626180Y-75228495D02*
X138673800Y-75180876D01*
X138673800Y-75180876D02*
X138721419Y-75085638D01*
X138721419Y-75085638D02*
X138721419Y-74847543D01*
X138721419Y-74847543D02*
X138673800Y-74752305D01*
X138673800Y-74752305D02*
X138626180Y-74704686D01*
%TO.C,C6*%
X133392080Y-74285233D02*
X133439700Y-74237614D01*
X133439700Y-74237614D02*
X133487319Y-74094757D01*
X133487319Y-74094757D02*
X133487319Y-73999519D01*
X133487319Y-73999519D02*
X133439700Y-73856662D01*
X133439700Y-73856662D02*
X133344461Y-73761424D01*
X133344461Y-73761424D02*
X133249223Y-73713805D01*
X133249223Y-73713805D02*
X133058747Y-73666186D01*
X133058747Y-73666186D02*
X132915890Y-73666186D01*
X132915890Y-73666186D02*
X132725414Y-73713805D01*
X132725414Y-73713805D02*
X132630176Y-73761424D01*
X132630176Y-73761424D02*
X132534938Y-73856662D01*
X132534938Y-73856662D02*
X132487319Y-73999519D01*
X132487319Y-73999519D02*
X132487319Y-74094757D01*
X132487319Y-74094757D02*
X132534938Y-74237614D01*
X132534938Y-74237614D02*
X132582557Y-74285233D01*
X132487319Y-75142376D02*
X132487319Y-74951900D01*
X132487319Y-74951900D02*
X132534938Y-74856662D01*
X132534938Y-74856662D02*
X132582557Y-74809043D01*
X132582557Y-74809043D02*
X132725414Y-74713805D01*
X132725414Y-74713805D02*
X132915890Y-74666186D01*
X132915890Y-74666186D02*
X133296842Y-74666186D01*
X133296842Y-74666186D02*
X133392080Y-74713805D01*
X133392080Y-74713805D02*
X133439700Y-74761424D01*
X133439700Y-74761424D02*
X133487319Y-74856662D01*
X133487319Y-74856662D02*
X133487319Y-75047138D01*
X133487319Y-75047138D02*
X133439700Y-75142376D01*
X133439700Y-75142376D02*
X133392080Y-75189995D01*
X133392080Y-75189995D02*
X133296842Y-75237614D01*
X133296842Y-75237614D02*
X133058747Y-75237614D01*
X133058747Y-75237614D02*
X132963509Y-75189995D01*
X132963509Y-75189995D02*
X132915890Y-75142376D01*
X132915890Y-75142376D02*
X132868271Y-75047138D01*
X132868271Y-75047138D02*
X132868271Y-74856662D01*
X132868271Y-74856662D02*
X132915890Y-74761424D01*
X132915890Y-74761424D02*
X132963509Y-74713805D01*
X132963509Y-74713805D02*
X133058747Y-74666186D01*
%TO.C,C8*%
X138703180Y-86824033D02*
X138750800Y-86776414D01*
X138750800Y-86776414D02*
X138798419Y-86633557D01*
X138798419Y-86633557D02*
X138798419Y-86538319D01*
X138798419Y-86538319D02*
X138750800Y-86395462D01*
X138750800Y-86395462D02*
X138655561Y-86300224D01*
X138655561Y-86300224D02*
X138560323Y-86252605D01*
X138560323Y-86252605D02*
X138369847Y-86204986D01*
X138369847Y-86204986D02*
X138226990Y-86204986D01*
X138226990Y-86204986D02*
X138036514Y-86252605D01*
X138036514Y-86252605D02*
X137941276Y-86300224D01*
X137941276Y-86300224D02*
X137846038Y-86395462D01*
X137846038Y-86395462D02*
X137798419Y-86538319D01*
X137798419Y-86538319D02*
X137798419Y-86633557D01*
X137798419Y-86633557D02*
X137846038Y-86776414D01*
X137846038Y-86776414D02*
X137893657Y-86824033D01*
X138226990Y-87395462D02*
X138179371Y-87300224D01*
X138179371Y-87300224D02*
X138131752Y-87252605D01*
X138131752Y-87252605D02*
X138036514Y-87204986D01*
X138036514Y-87204986D02*
X137988895Y-87204986D01*
X137988895Y-87204986D02*
X137893657Y-87252605D01*
X137893657Y-87252605D02*
X137846038Y-87300224D01*
X137846038Y-87300224D02*
X137798419Y-87395462D01*
X137798419Y-87395462D02*
X137798419Y-87585938D01*
X137798419Y-87585938D02*
X137846038Y-87681176D01*
X137846038Y-87681176D02*
X137893657Y-87728795D01*
X137893657Y-87728795D02*
X137988895Y-87776414D01*
X137988895Y-87776414D02*
X138036514Y-87776414D01*
X138036514Y-87776414D02*
X138131752Y-87728795D01*
X138131752Y-87728795D02*
X138179371Y-87681176D01*
X138179371Y-87681176D02*
X138226990Y-87585938D01*
X138226990Y-87585938D02*
X138226990Y-87395462D01*
X138226990Y-87395462D02*
X138274609Y-87300224D01*
X138274609Y-87300224D02*
X138322228Y-87252605D01*
X138322228Y-87252605D02*
X138417466Y-87204986D01*
X138417466Y-87204986D02*
X138607942Y-87204986D01*
X138607942Y-87204986D02*
X138703180Y-87252605D01*
X138703180Y-87252605D02*
X138750800Y-87300224D01*
X138750800Y-87300224D02*
X138798419Y-87395462D01*
X138798419Y-87395462D02*
X138798419Y-87585938D01*
X138798419Y-87585938D02*
X138750800Y-87681176D01*
X138750800Y-87681176D02*
X138703180Y-87728795D01*
X138703180Y-87728795D02*
X138607942Y-87776414D01*
X138607942Y-87776414D02*
X138417466Y-87776414D01*
X138417466Y-87776414D02*
X138322228Y-87728795D01*
X138322228Y-87728795D02*
X138274609Y-87681176D01*
X138274609Y-87681176D02*
X138226990Y-87585938D01*
%TO.C,C7*%
X138626180Y-80981833D02*
X138673800Y-80934214D01*
X138673800Y-80934214D02*
X138721419Y-80791357D01*
X138721419Y-80791357D02*
X138721419Y-80696119D01*
X138721419Y-80696119D02*
X138673800Y-80553262D01*
X138673800Y-80553262D02*
X138578561Y-80458024D01*
X138578561Y-80458024D02*
X138483323Y-80410405D01*
X138483323Y-80410405D02*
X138292847Y-80362786D01*
X138292847Y-80362786D02*
X138149990Y-80362786D01*
X138149990Y-80362786D02*
X137959514Y-80410405D01*
X137959514Y-80410405D02*
X137864276Y-80458024D01*
X137864276Y-80458024D02*
X137769038Y-80553262D01*
X137769038Y-80553262D02*
X137721419Y-80696119D01*
X137721419Y-80696119D02*
X137721419Y-80791357D01*
X137721419Y-80791357D02*
X137769038Y-80934214D01*
X137769038Y-80934214D02*
X137816657Y-80981833D01*
X137721419Y-81315167D02*
X137721419Y-81981833D01*
X137721419Y-81981833D02*
X138721419Y-81553262D01*
%TO.C,C1*%
X122977380Y-87170833D02*
X123025000Y-87123214D01*
X123025000Y-87123214D02*
X123072619Y-86980357D01*
X123072619Y-86980357D02*
X123072619Y-86885119D01*
X123072619Y-86885119D02*
X123025000Y-86742262D01*
X123025000Y-86742262D02*
X122929761Y-86647024D01*
X122929761Y-86647024D02*
X122834523Y-86599405D01*
X122834523Y-86599405D02*
X122644047Y-86551786D01*
X122644047Y-86551786D02*
X122501190Y-86551786D01*
X122501190Y-86551786D02*
X122310714Y-86599405D01*
X122310714Y-86599405D02*
X122215476Y-86647024D01*
X122215476Y-86647024D02*
X122120238Y-86742262D01*
X122120238Y-86742262D02*
X122072619Y-86885119D01*
X122072619Y-86885119D02*
X122072619Y-86980357D01*
X122072619Y-86980357D02*
X122120238Y-87123214D01*
X122120238Y-87123214D02*
X122167857Y-87170833D01*
X123072619Y-88123214D02*
X123072619Y-87551786D01*
X123072619Y-87837500D02*
X122072619Y-87837500D01*
X122072619Y-87837500D02*
X122215476Y-87742262D01*
X122215476Y-87742262D02*
X122310714Y-87647024D01*
X122310714Y-87647024D02*
X122358333Y-87551786D01*
%TO.C,C2*%
X129043180Y-87016433D02*
X129090800Y-86968814D01*
X129090800Y-86968814D02*
X129138419Y-86825957D01*
X129138419Y-86825957D02*
X129138419Y-86730719D01*
X129138419Y-86730719D02*
X129090800Y-86587862D01*
X129090800Y-86587862D02*
X128995561Y-86492624D01*
X128995561Y-86492624D02*
X128900323Y-86445005D01*
X128900323Y-86445005D02*
X128709847Y-86397386D01*
X128709847Y-86397386D02*
X128566990Y-86397386D01*
X128566990Y-86397386D02*
X128376514Y-86445005D01*
X128376514Y-86445005D02*
X128281276Y-86492624D01*
X128281276Y-86492624D02*
X128186038Y-86587862D01*
X128186038Y-86587862D02*
X128138419Y-86730719D01*
X128138419Y-86730719D02*
X128138419Y-86825957D01*
X128138419Y-86825957D02*
X128186038Y-86968814D01*
X128186038Y-86968814D02*
X128233657Y-87016433D01*
X128233657Y-87397386D02*
X128186038Y-87445005D01*
X128186038Y-87445005D02*
X128138419Y-87540243D01*
X128138419Y-87540243D02*
X128138419Y-87778338D01*
X128138419Y-87778338D02*
X128186038Y-87873576D01*
X128186038Y-87873576D02*
X128233657Y-87921195D01*
X128233657Y-87921195D02*
X128328895Y-87968814D01*
X128328895Y-87968814D02*
X128424133Y-87968814D01*
X128424133Y-87968814D02*
X128566990Y-87921195D01*
X128566990Y-87921195D02*
X129138419Y-87349767D01*
X129138419Y-87349767D02*
X129138419Y-87968814D01*
%TO.C,R1*%
X107986666Y-83562619D02*
X108319999Y-83086428D01*
X108558094Y-83562619D02*
X108558094Y-82562619D01*
X108558094Y-82562619D02*
X108177142Y-82562619D01*
X108177142Y-82562619D02*
X108081904Y-82610238D01*
X108081904Y-82610238D02*
X108034285Y-82657857D01*
X108034285Y-82657857D02*
X107986666Y-82753095D01*
X107986666Y-82753095D02*
X107986666Y-82895952D01*
X107986666Y-82895952D02*
X108034285Y-82991190D01*
X108034285Y-82991190D02*
X108081904Y-83038809D01*
X108081904Y-83038809D02*
X108177142Y-83086428D01*
X108177142Y-83086428D02*
X108558094Y-83086428D01*
X107034285Y-83562619D02*
X107605713Y-83562619D01*
X107319999Y-83562619D02*
X107319999Y-82562619D01*
X107319999Y-82562619D02*
X107415237Y-82705476D01*
X107415237Y-82705476D02*
X107510475Y-82800714D01*
X107510475Y-82800714D02*
X107605713Y-82848333D01*
%TO.C,C4*%
X133661480Y-80866333D02*
X133709100Y-80818714D01*
X133709100Y-80818714D02*
X133756719Y-80675857D01*
X133756719Y-80675857D02*
X133756719Y-80580619D01*
X133756719Y-80580619D02*
X133709100Y-80437762D01*
X133709100Y-80437762D02*
X133613861Y-80342524D01*
X133613861Y-80342524D02*
X133518623Y-80294905D01*
X133518623Y-80294905D02*
X133328147Y-80247286D01*
X133328147Y-80247286D02*
X133185290Y-80247286D01*
X133185290Y-80247286D02*
X132994814Y-80294905D01*
X132994814Y-80294905D02*
X132899576Y-80342524D01*
X132899576Y-80342524D02*
X132804338Y-80437762D01*
X132804338Y-80437762D02*
X132756719Y-80580619D01*
X132756719Y-80580619D02*
X132756719Y-80675857D01*
X132756719Y-80675857D02*
X132804338Y-80818714D01*
X132804338Y-80818714D02*
X132851957Y-80866333D01*
X133090052Y-81723476D02*
X133756719Y-81723476D01*
X132709100Y-81485381D02*
X133423385Y-81247286D01*
X133423385Y-81247286D02*
X133423385Y-81866333D01*
%TO.C,C3*%
X133738480Y-86977933D02*
X133786100Y-86930314D01*
X133786100Y-86930314D02*
X133833719Y-86787457D01*
X133833719Y-86787457D02*
X133833719Y-86692219D01*
X133833719Y-86692219D02*
X133786100Y-86549362D01*
X133786100Y-86549362D02*
X133690861Y-86454124D01*
X133690861Y-86454124D02*
X133595623Y-86406505D01*
X133595623Y-86406505D02*
X133405147Y-86358886D01*
X133405147Y-86358886D02*
X133262290Y-86358886D01*
X133262290Y-86358886D02*
X133071814Y-86406505D01*
X133071814Y-86406505D02*
X132976576Y-86454124D01*
X132976576Y-86454124D02*
X132881338Y-86549362D01*
X132881338Y-86549362D02*
X132833719Y-86692219D01*
X132833719Y-86692219D02*
X132833719Y-86787457D01*
X132833719Y-86787457D02*
X132881338Y-86930314D01*
X132881338Y-86930314D02*
X132928957Y-86977933D01*
X132833719Y-87311267D02*
X132833719Y-87930314D01*
X132833719Y-87930314D02*
X133214671Y-87596981D01*
X133214671Y-87596981D02*
X133214671Y-87739838D01*
X133214671Y-87739838D02*
X133262290Y-87835076D01*
X133262290Y-87835076D02*
X133309909Y-87882695D01*
X133309909Y-87882695D02*
X133405147Y-87930314D01*
X133405147Y-87930314D02*
X133643242Y-87930314D01*
X133643242Y-87930314D02*
X133738480Y-87882695D01*
X133738480Y-87882695D02*
X133786100Y-87835076D01*
X133786100Y-87835076D02*
X133833719Y-87739838D01*
X133833719Y-87739838D02*
X133833719Y-87454124D01*
X133833719Y-87454124D02*
X133786100Y-87358886D01*
X133786100Y-87358886D02*
X133738480Y-87311267D01*
D12*
%TO.C,J1*%
X120240000Y-73470000D02*
X120240000Y-74725000D01*
X128060000Y-74725000D02*
X128060000Y-78845000D01*
X127760000Y-74725000D02*
X128060000Y-74725000D01*
X125760000Y-74725000D02*
X126240000Y-74725000D01*
X123760000Y-74725000D02*
X124240000Y-74725000D01*
X121760000Y-74725000D02*
X122240000Y-74725000D01*
X119940000Y-74725000D02*
X120240000Y-74725000D01*
X119940000Y-74725000D02*
X119940000Y-78845000D01*
X127760000Y-78845000D02*
X128060000Y-78845000D01*
X125760000Y-78845000D02*
X126240000Y-78845000D01*
X123760000Y-78845000D02*
X124240000Y-78845000D01*
X121760000Y-78845000D02*
X122240000Y-78845000D01*
X119940000Y-78845000D02*
X120240000Y-78845000D01*
%TO.C,C5*%
X141018800Y-73779148D02*
X141018800Y-75201652D01*
X139198800Y-73779148D02*
X139198800Y-75201652D01*
%TO.C,C6*%
X135784700Y-73740648D02*
X135784700Y-75163152D01*
X133964700Y-73740648D02*
X133964700Y-75163152D01*
%TO.C,C8*%
X141095800Y-86279448D02*
X141095800Y-87701952D01*
X139275800Y-86279448D02*
X139275800Y-87701952D01*
%TO.C,C7*%
X141018800Y-80437248D02*
X141018800Y-81859752D01*
X139198800Y-80437248D02*
X139198800Y-81859752D01*
%TO.C,C1*%
X125370000Y-86626248D02*
X125370000Y-88048752D01*
X123550000Y-86626248D02*
X123550000Y-88048752D01*
%TO.C,C2*%
X131435800Y-86471848D02*
X131435800Y-87894352D01*
X129615800Y-86471848D02*
X129615800Y-87894352D01*
%TO.C,R1*%
X107217936Y-80370000D02*
X108422064Y-80370000D01*
X107217936Y-82190000D02*
X108422064Y-82190000D01*
%TO.C,C4*%
X136054100Y-80321748D02*
X136054100Y-81744252D01*
X134234100Y-80321748D02*
X134234100Y-81744252D01*
%TO.C,C3*%
X136131100Y-86433348D02*
X136131100Y-87855852D01*
X134311100Y-86433348D02*
X134311100Y-87855852D01*
%TD*%
M02*
