M48
; DRILL file {KiCad 7.0.2-0} date 2023 November 12, Sunday 18:26:14
; FORMAT={-:-/ absolute / inch / decimal}
; #@! TF.CreationDate,2023-11-12T18:26:14-05:00
; #@! TF.GenerationSoftware,Kicad,Pcbnew,7.0.2-0
; #@! TF.FileFunction,Plated,1,2,PTH
FMAT,2
INCH
; #@! TA.AperFunction,Plated,PTH,ViaDrill
T1C0.0157
; #@! TA.AperFunction,Plated,PTH,ComponentDrill
T2C0.0276
; #@! TA.AperFunction,Plated,PTH,ComponentDrill
T3C0.0606
; #@! TA.AperFunction,Plated,PTH,ViaDrill
T4C0.1102
%
G90
G05
T1
X4.3651Y-3.6447
X4.6451Y-3.594
X4.6851Y-3.6027
X4.9429Y-3.1866
X5.3938Y-2.8755
X5.3995Y-3.3062
T2
X4.3718Y-3.699
X4.4308Y-3.699
X4.4899Y-3.699
X4.5489Y-3.699
X4.608Y-3.699
X4.667Y-3.699
X4.7261Y-3.699
X4.7851Y-3.699
X4.8442Y-3.699
X4.9032Y-3.699
X4.9623Y-3.699
X5.0214Y-3.699
X5.0804Y-3.699
X5.1395Y-3.699
X5.1985Y-3.699
X5.2576Y-3.699
X5.3166Y-3.699
T3
X4.1631Y-3.6281
X5.5253Y-3.6281
T4
X3.8721Y-3.1606
X4.8453Y-2.6017
X5.7988Y-3.1606
T0
M30
